<?plantuml 1.2026.2beta3?><svg xmlns="http://www.w3.org/2000/svg" xmlns:xlink="http://www.w3.org/1999/xlink" contentStyleType="text/css" data-diagram-type="ACTIVITY" height="790.625px" preserveAspectRatio="none" style="width:630px;height:790px;" version="1.1" viewBox="0 0 630 790" width="630.2083px" zoomAndPan="magnify"><title>&#1604;&#1608;&#1581;&#1575;&#1578; &#1575;&#1604;&#1578;&#1581;&#1603;&#1605; &#1575;&#1604;&#1571;&#1608;&#1578;&#1608;&#1605;&#1575;&#1578;&#1610;&#1603;&#1610;&#1577; &#1604;&#1604;&#1605;&#1590;&#1582;&#1575;&#1578; - &#1585;&#1608;&#1575;&#1574;&#1593; &#1575;&#1604;&#1603;&#1585;&#1610;&#1587;&#1578;&#1575;&#1604;</title><defs><linearGradient id="gm89pq9yx8dsb0" x1="50%" x2="50%" y1="0%" y2="100%"><stop offset="0%" stop-color="#F4A1A4"/><stop offset="100%" stop-color="#F3969A"/></linearGradient></defs><g><g class="title" data-source-line="3"><rect fill="url(#gm89pq9yx8dsb0)" height="47.168" rx="4.1667" ry="4.1667" style="stroke:#DB878B;stroke-width:1.0417;" width="585.7931" x="20.8333" y="20.8333"/><text fill="#6CAF9C" font-family="'Verdana'" font-size="20.8333" font-weight="bold" lengthAdjust="spacing" textLength="562.8764" x="32.2917" y="51.6296">&#1604;&#1608;&#1581;&#1575;&#1578; &#1575;&#1604;&#1578;&#1581;&#1603;&#1605; &#1575;&#1604;&#1571;&#1608;&#1578;&#1608;&#1605;&#1575;&#1578;&#1610;&#1603;&#1610;&#1577; &#1604;&#1604;&#1605;&#1590;&#1582;&#1575;&#1578; - &#1585;&#1608;&#1575;&#1574;&#1593; &#1575;&#1604;&#1603;&#1585;&#1610;&#1587;&#1578;&#1575;&#1604;</text></g><ellipse cx="368.5112" cy="89.8763" fill="#6CC3D5" rx="10.4167" ry="10.4167" style="stroke:#6CAF9C;stroke-width:1.0417;"/><rect fill="#86C8B5" height="37.4674" rx="4.1667" ry="4.1667" style="stroke:#78C2AD;stroke-width:1.0417;" width="85.734" x="325.6442" y="121.1263"/><text fill="#FFFFFF" font-family="'Verdana'" font-size="12.5" lengthAdjust="spacing" textLength="62.8174" x="337.1025" y="144.1874">&#1576;&#1583;&#1575;&#1610;&#1577; &#1575;&#1604;&#1593;&#1605;&#1604;&#1610;&#1577;</text><polygon fill="#F4A1A4" points="323.4317,179.4271,413.5907,179.4271,426.0907,191.9271,413.5907,204.4271,323.4317,204.4271,310.9317,191.9271,323.4317,179.4271" style="stroke:#DB878B;stroke-width:1.0417;"/><text fill="#FFFFFF" font-family="'Verdana'" font-size="12.5" lengthAdjust="spacing" textLength="79.7424" x="328.64" y="196.2545">&#1605;&#1587;&#1578;&#1608;&#1610;&#1575;&#1578; &#1575;&#1604;&#1605;&#1610;&#1575;&#1607;</text><text fill="#FFFFFF" font-family="'Verdana'" font-size="12.5" lengthAdjust="spacing" textLength="42.4011" x="263.3222" y="183.7708">&#1605;&#1606;&#1582;&#1601;&#1590;&#1577;</text><text fill="#FFFFFF" font-family="'Verdana'" font-size="12.5" lengthAdjust="spacing" textLength="77.3804" x="431.2991" y="183.7708">&#1604;&#1610;&#1587;&#1578; &#1605;&#1606;&#1582;&#1601;&#1590;&#1577;</text><rect fill="#86C8B5" height="37.4674" rx="4.1667" ry="4.1667" style="stroke:#78C2AD;stroke-width:1.0417;" width="100.9074" x="171.6466" y="214.8438"/><text fill="#FFFFFF" font-family="'Verdana'" font-size="12.5" lengthAdjust="spacing" textLength="77.9907" x="183.105" y="237.9049">&#1578;&#1588;&#1594;&#1610;&#1604; &#1575;&#1604;&#1605;&#1590;&#1582;&#1577;</text><polygon fill="#F4A1A4" points="177.0208,273.1445,267.1799,273.1445,279.6799,285.6445,267.1799,298.1445,177.0208,298.1445,164.5208,285.6445,177.0208,273.1445" style="stroke:#DB878B;stroke-width:1.0417;"/><text fill="#FFFFFF" font-family="'Verdana'" font-size="12.5" lengthAdjust="spacing" textLength="79.7424" x="182.2291" y="289.9719">&#1605;&#1587;&#1578;&#1608;&#1610;&#1575;&#1578; &#1575;&#1604;&#1605;&#1610;&#1575;&#1607;</text><text fill="#FFFFFF" font-family="'Verdana'" font-size="12.5" lengthAdjust="spacing" textLength="25.5493" x="133.7631" y="277.4882">&#1593;&#1575;&#1604;&#1610;&#1577;</text><text fill="#FFFFFF" font-family="'Verdana'" font-size="12.5" lengthAdjust="spacing" textLength="60.5286" x="284.8882" y="277.4882">&#1604;&#1610;&#1587;&#1578; &#1593;&#1575;&#1604;&#1610;&#1577;</text><path d="M157.3903,309.6029 L157.3903,323.1283 L136.557,327.2949 L157.3903,331.4616 L157.3903,344.987 A0,0 0 0 0 157.3903,344.987 L283.9874,344.987 A0,0 0 0 0 283.9874,344.987 L283.9874,320.0195 L273.5708,309.6029 L157.3903,309.6029 A0,0 0 0 0 157.3903,309.6029" fill="#6CC3D5" style="stroke:#61B0C0;stroke-width:1.0417;"/><path d="M273.5708,309.6029 L273.5708,320.0195 L283.9874,320.0195 L273.5708,309.6029" fill="#6CC3D5" style="stroke:#61B0C0;stroke-width:1.0417;"/><text fill="#FFFFFF" font-family="'Verdana'" font-size="12.5" lengthAdjust="spacing" textLength="94.3054" x="168.8487" y="331.6223">&#1581;&#1605;&#1575;&#1610;&#1577; &#1605;&#1606; &#1575;&#1604;&#1601;&#1610;&#1590;&#1575;&#1606;</text><rect fill="#86C8B5" height="37.4674" rx="4.1667" ry="4.1667" style="stroke:#78C2AD;stroke-width:1.0417;" width="97.05" x="39.507" y="308.5612"/><text fill="#FFFFFF" font-family="'Verdana'" font-size="12.5" lengthAdjust="spacing" textLength="74.1333" x="50.9654" y="331.6223">&#1573;&#1610;&#1602;&#1575;&#1601; &#1575;&#1604;&#1605;&#1590;&#1582;&#1577;</text><rect fill="#86C8B5" height="37.4674" rx="4.1667" ry="4.1667" style="stroke:#78C2AD;stroke-width:1.0417;" width="102.6957" x="304.8208" y="308.5612"/><text fill="#FFFFFF" font-family="'Verdana'" font-size="12.5" lengthAdjust="spacing" textLength="79.7791" x="316.2791" y="331.6223">&#1605;&#1585;&#1575;&#1602;&#1576;&#1577; &#1605;&#1587;&#1578;&#1605;&#1585;&#1577;</text><polygon fill="#F4A1A4" points="222.1003,356.4453,234.6003,368.9453,222.1003,381.4453,209.6003,368.9453,222.1003,356.4453" style="stroke:#DB878B;stroke-width:1.0417;"/><rect fill="#86C8B5" height="37.4674" rx="4.1667" ry="4.1667" style="stroke:#78C2AD;stroke-width:1.0417;" width="152.3112" x="438.7665" y="214.8438"/><text fill="#FFFFFF" font-family="'Verdana'" font-size="12.5" lengthAdjust="spacing" textLength="129.3945" x="450.2248" y="237.9049">&#1575;&#1604;&#1605;&#1590;&#1582;&#1577; &#1601;&#1610; &#1608;&#1590;&#1593; &#1575;&#1604;&#1573;&#1610;&#1602;&#1575;&#1601;</text><rect fill="#86C8B5" height="37.4674" rx="4.1667" ry="4.1667" style="stroke:#78C2AD;stroke-width:1.0417;" width="102.6957" x="463.5742" y="273.1445"/><text fill="#FFFFFF" font-family="'Verdana'" font-size="12.5" lengthAdjust="spacing" textLength="79.7791" x="475.0326" y="296.2056">&#1605;&#1585;&#1575;&#1602;&#1576;&#1577; &#1605;&#1587;&#1578;&#1605;&#1585;&#1577;</text><polygon fill="#F4A1A4" points="368.5112,391.862,381.0112,404.362,368.5112,416.862,356.0112,404.362,368.5112,391.862" style="stroke:#DB878B;stroke-width:1.0417;"/><path d="M124.2312,494.9707 L124.2312,530.3548 A0,0 0 0 0 124.2312,530.3548 L307.0478,530.3548 A0,0 0 0 0 307.0478,530.3548 L307.0478,516.8294 L327.8811,512.6628 L307.0478,508.4961 L307.0478,505.3874 L296.6311,494.9707 L124.2312,494.9707 A0,0 0 0 0 124.2312,494.9707" fill="#6CC3D5" style="stroke:#61B0C0;stroke-width:1.0417;"/><path d="M296.6311,494.9707 L296.6311,505.3874 L307.0478,505.3874 L296.6311,494.9707" fill="#6CC3D5" style="stroke:#61B0C0;stroke-width:1.0417;"/><text fill="#FFFFFF" font-family="'Verdana'" font-size="12.5" lengthAdjust="spacing" textLength="150.5249" x="135.6895" y="516.9902">&#1585;&#1587;&#1575;&#1574;&#1604; SMS &#1571;&#1608; &#1576;&#1585;&#1610;&#1583; &#1573;&#1604;&#1603;&#1578;&#1585;&#1608;&#1606;&#1610;</text><rect fill="#86C8B5" height="37.4674" rx="4.1667" ry="4.1667" style="stroke:#78C2AD;stroke-width:1.0417;" width="81.2602" x="327.8811" y="493.929"/><text fill="#FFFFFF" font-family="'Verdana'" font-size="12.5" lengthAdjust="spacing" textLength="58.3435" x="339.3394" y="516.9902">&#1573;&#1585;&#1587;&#1575;&#1604; &#1578;&#1606;&#1576;&#1610;&#1607;</text><polygon fill="#F4A1A4" points="319.4705,437.6953,417.5519,437.6953,430.0519,450.1953,417.5519,462.6953,319.4705,462.6953,306.9705,450.1953,319.4705,437.6953" style="stroke:#DB878B;stroke-width:1.0417;"/><text fill="#FFFFFF" font-family="'Verdana'" font-size="12.5" lengthAdjust="spacing" textLength="24.2249" x="377.8862" y="479.5064">&#1610;&#1608;&#1580;&#1583;</text><text fill="#FFFFFF" font-family="'Verdana'" font-size="12.5" lengthAdjust="spacing" textLength="87.6648" x="324.6788" y="454.5227">&#1571;&#1593;&#1591;&#1575;&#1604; &#1571;&#1608; &#1578;&#1606;&#1576;&#1610;&#1607;&#1575;&#1578;</text><text fill="#FFFFFF" font-family="'Verdana'" font-size="12.5" lengthAdjust="spacing" textLength="35.3271" x="435.2603" y="442.039">&#1604;&#1575; &#1610;&#1608;&#1580;&#1583;</text><polygon fill="#F4A1A4" points="368.5112,552.2298,381.0112,564.7298,368.5112,577.2298,356.0112,564.7298,368.5112,552.2298" style="stroke:#DB878B;stroke-width:1.0417;"/><rect fill="#86C8B5" height="37.4674" rx="4.1667" ry="4.1667" style="stroke:#78C2AD;stroke-width:1.0417;" width="120.9025" x="308.0599" y="654.2969"/><text fill="#FFFFFF" font-family="'Verdana'" font-size="12.5" lengthAdjust="spacing" textLength="97.9858" x="319.5183" y="677.358">&#1578;&#1588;&#1594;&#1610;&#1604;/&#1573;&#1610;&#1602;&#1575;&#1601; &#1610;&#1583;&#1608;&#1610;</text><polygon fill="#F4A1A4" points="331.4364,598.0632,405.586,598.0632,418.086,610.5632,405.586,623.0632,331.4364,623.0632,318.9364,610.5632,331.4364,598.0632" style="stroke:#DB878B;stroke-width:1.0417;"/><text fill="#FFFFFF" font-family="'Verdana'" font-size="12.5" lengthAdjust="spacing" textLength="17.8284" x="377.8862" y="639.8743">&#1606;&#1593;&#1605;</text><text fill="#FFFFFF" font-family="'Verdana'" font-size="12.5" lengthAdjust="spacing" textLength="63.7329" x="336.6447" y="614.8905">&#1578;&#1588;&#1594;&#1610;&#1604; &#1610;&#1583;&#1608;&#1610;</text><text fill="#FFFFFF" font-family="'Verdana'" font-size="12.5" lengthAdjust="spacing" textLength="7.1289" x="423.2943" y="602.4068">&#1604;&#1575;</text><polygon fill="#F4A1A4" points="368.5112,712.5977,381.0112,725.0977,368.5112,737.5977,356.0112,725.0977,368.5112,712.5977" style="stroke:#DB878B;stroke-width:1.0417;"/><ellipse cx="368.5112" cy="768.8477" fill="none" rx="10.4167" ry="10.4167" style="stroke:#6CC3D5;stroke-width:1.0417;"/><line style="stroke:#6CC3D5;stroke-width:2.6042;" x1="362.0662" x2="374.9562" y1="762.4027" y2="775.2926"/><line style="stroke:#6CC3D5;stroke-width:2.6042;" x1="374.9562" x2="362.0662" y1="762.4027" y2="775.2926"/><line style="stroke:#78C2AD;stroke-width:3.125;" x1="368.5112" x2="368.5112" y1="100.293" y2="121.1263"/><polygon fill="#78C2AD" points="364.3445,110.7096,368.5112,121.1263,372.6779,110.7096,368.5112,114.8763" style="stroke:#78C2AD;stroke-width:1.0417;"/><line style="stroke:#78C2AD;stroke-width:3.125;" x1="164.5208" x2="88.032" y1="285.6445" y2="285.6445"/><line style="stroke:#78C2AD;stroke-width:3.125;" x1="88.032" x2="88.032" y1="285.6445" y2="308.5612"/><polygon fill="#78C2AD" points="83.8654,298.1445,88.032,308.5612,92.1987,298.1445,88.032,302.3112" style="stroke:#78C2AD;stroke-width:1.0417;"/><line style="stroke:#78C2AD;stroke-width:3.125;" x1="279.6799" x2="356.1686" y1="285.6445" y2="285.6445"/><line style="stroke:#78C2AD;stroke-width:3.125;" x1="356.1686" x2="356.1686" y1="285.6445" y2="308.5612"/><polygon fill="#78C2AD" points="352.002,298.1445,356.1686,308.5612,360.3353,298.1445,356.1686,302.3112" style="stroke:#78C2AD;stroke-width:1.0417;"/><line style="stroke:#78C2AD;stroke-width:3.125;" x1="88.032" x2="88.032" y1="346.0286" y2="368.9453"/><line style="stroke:#78C2AD;stroke-width:3.125;" x1="88.032" x2="209.6003" y1="368.9453" y2="368.9453"/><polygon fill="#78C2AD" points="199.1837,364.7786,209.6003,368.9453,199.1837,373.112,203.3503,368.9453" style="stroke:#78C2AD;stroke-width:1.0417;"/><line style="stroke:#78C2AD;stroke-width:3.125;" x1="356.1686" x2="356.1686" y1="346.0286" y2="368.9453"/><line style="stroke:#78C2AD;stroke-width:3.125;" x1="356.1686" x2="234.6003" y1="368.9453" y2="368.9453"/><polygon fill="#78C2AD" points="245.017,364.7786,234.6003,368.9453,245.017,373.112,240.8503,368.9453" style="stroke:#78C2AD;stroke-width:1.0417;"/><line style="stroke:#78C2AD;stroke-width:3.125;" x1="222.1003" x2="222.1003" y1="252.3112" y2="273.1445"/><polygon fill="#78C2AD" points="217.9337,262.7279,222.1003,273.1445,226.267,262.7279,222.1003,266.8945" style="stroke:#78C2AD;stroke-width:1.0417;"/><line style="stroke:#78C2AD;stroke-width:3.125;" x1="514.9221" x2="514.9221" y1="252.3112" y2="273.1445"/><polygon fill="#78C2AD" points="510.7554,262.7279,514.9221,273.1445,519.0887,262.7279,514.9221,266.8945" style="stroke:#78C2AD;stroke-width:1.0417;"/><line style="stroke:#78C2AD;stroke-width:3.125;" x1="310.9317" x2="222.1003" y1="191.9271" y2="191.9271"/><line style="stroke:#78C2AD;stroke-width:3.125;" x1="222.1003" x2="222.1003" y1="191.9271" y2="214.8438"/><polygon fill="#78C2AD" points="217.9337,204.4271,222.1003,214.8438,226.267,204.4271,222.1003,208.5938" style="stroke:#78C2AD;stroke-width:1.0417;"/><line style="stroke:#78C2AD;stroke-width:3.125;" x1="426.0907" x2="514.9221" y1="191.9271" y2="191.9271"/><line style="stroke:#78C2AD;stroke-width:3.125;" x1="514.9221" x2="514.9221" y1="191.9271" y2="214.8438"/><polygon fill="#78C2AD" points="510.7554,204.4271,514.9221,214.8438,519.0887,204.4271,514.9221,208.5938" style="stroke:#78C2AD;stroke-width:1.0417;"/><line style="stroke:#78C2AD;stroke-width:3.125;" x1="222.1003" x2="222.1003" y1="381.4453" y2="404.362"/><line style="stroke:#78C2AD;stroke-width:3.125;" x1="222.1003" x2="356.0112" y1="404.362" y2="404.362"/><polygon fill="#78C2AD" points="345.5945,400.1953,356.0112,404.362,345.5945,408.5286,349.7612,404.362" style="stroke:#78C2AD;stroke-width:1.0417;"/><line style="stroke:#78C2AD;stroke-width:3.125;" x1="514.9221" x2="514.9221" y1="310.612" y2="404.362"/><line style="stroke:#78C2AD;stroke-width:3.125;" x1="514.9221" x2="381.0112" y1="404.362" y2="404.362"/><polygon fill="#78C2AD" points="391.4279,400.1953,381.0112,404.362,391.4279,408.5286,387.2612,404.362" style="stroke:#78C2AD;stroke-width:1.0417;"/><line style="stroke:#78C2AD;stroke-width:3.125;" x1="368.5112" x2="368.5112" y1="158.5938" y2="179.4271"/><polygon fill="#78C2AD" points="364.3445,169.0104,368.5112,179.4271,372.6779,169.0104,368.5112,173.1771" style="stroke:#78C2AD;stroke-width:1.0417;"/><line style="stroke:#78C2AD;stroke-width:3.125;" x1="368.5112" x2="368.5112" y1="462.6953" y2="493.929"/><polygon fill="#78C2AD" points="364.3445,483.5124,368.5112,493.929,372.6779,483.5124,368.5112,487.679" style="stroke:#78C2AD;stroke-width:1.0417;"/><line style="stroke:#78C2AD;stroke-width:3.125;" x1="430.0519" x2="442.5519" y1="450.1953" y2="450.1953"/><polygon fill="#78C2AD" points="438.3853,507.4544,442.5519,517.8711,446.7186,507.4544,442.5519,511.6211" style="stroke:#78C2AD;stroke-width:3.125;"/><line style="stroke:#78C2AD;stroke-width:3.125;" x1="442.5519" x2="442.5519" y1="450.1953" y2="564.7298"/><line style="stroke:#78C2AD;stroke-width:3.125;" x1="442.5519" x2="381.0112" y1="564.7298" y2="564.7298"/><polygon fill="#78C2AD" points="391.4279,560.5632,381.0112,564.7298,391.4279,568.8965,387.2612,564.7298" style="stroke:#78C2AD;stroke-width:1.0417;"/><line style="stroke:#78C2AD;stroke-width:3.125;" x1="368.5112" x2="368.5112" y1="531.3965" y2="552.2298"/><polygon fill="#78C2AD" points="364.3445,541.8132,368.5112,552.2298,372.6779,541.8132,368.5112,545.9798" style="stroke:#78C2AD;stroke-width:1.0417;"/><line style="stroke:#78C2AD;stroke-width:3.125;" x1="368.5112" x2="368.5112" y1="416.862" y2="437.6953"/><polygon fill="#78C2AD" points="364.3445,427.2786,368.5112,437.6953,372.6779,427.2786,368.5112,431.4453" style="stroke:#78C2AD;stroke-width:1.0417;"/><line style="stroke:#78C2AD;stroke-width:3.125;" x1="368.5112" x2="368.5112" y1="623.0632" y2="654.2969"/><polygon fill="#78C2AD" points="364.3445,643.8802,368.5112,654.2969,372.6779,643.8802,368.5112,648.0469" style="stroke:#78C2AD;stroke-width:1.0417;"/><line style="stroke:#78C2AD;stroke-width:3.125;" x1="418.086" x2="439.3791" y1="610.5632" y2="610.5632"/><polygon fill="#78C2AD" points="435.2125,667.8223,439.3791,678.2389,443.5458,667.8223,439.3791,671.9889" style="stroke:#78C2AD;stroke-width:3.125;"/><line style="stroke:#78C2AD;stroke-width:3.125;" x1="439.3791" x2="439.3791" y1="610.5632" y2="725.0977"/><line style="stroke:#78C2AD;stroke-width:3.125;" x1="439.3791" x2="381.0112" y1="725.0977" y2="725.0977"/><polygon fill="#78C2AD" points="391.4279,720.931,381.0112,725.0977,391.4279,729.2643,387.2612,725.0977" style="stroke:#78C2AD;stroke-width:1.0417;"/><line style="stroke:#78C2AD;stroke-width:3.125;" x1="368.5112" x2="368.5112" y1="691.7643" y2="712.5977"/><polygon fill="#78C2AD" points="364.3445,702.181,368.5112,712.5977,372.6779,702.181,368.5112,706.3477" style="stroke:#78C2AD;stroke-width:1.0417;"/><line style="stroke:#78C2AD;stroke-width:3.125;" x1="368.5112" x2="368.5112" y1="577.2298" y2="598.0632"/><polygon fill="#78C2AD" points="364.3445,587.6465,368.5112,598.0632,372.6779,587.6465,368.5112,591.8132" style="stroke:#78C2AD;stroke-width:1.0417;"/><line style="stroke:#78C2AD;stroke-width:3.125;" x1="368.5112" x2="368.5112" y1="737.5977" y2="758.431"/><polygon fill="#78C2AD" points="364.3445,748.0143,368.5112,758.431,372.6779,748.0143,368.5112,752.181" style="stroke:#78C2AD;stroke-width:1.0417;"/><?plantuml-src ZP91Ri9034NtSmftLnPLzt26hZX1fGub4gGIpAPB88Ggrq0GY0e8KL7HazYtwVTC2158LLTWZ_t-Z-qxrxLzI_qeTk_6kCZrB4aY7xpXd0lYN18kU2CJcOPWZhT2FcIgxvBX8UErjYH87Ndhsnw8zwZBUSadtoOJ938-W8N8cA5x7ZZJv1Nla522XvzaYbg4BMEY3jq3UV1gMUK65GXarY0uZxL4KjxA2DhhXY5gGkABV-0iAUkzAn29_edaayzc0QZ81N1Z94StIABupLaQHAzTvqCYJ6jQVfIQ2oqZn4VyItsHZLzy7mBR6rguIi9qw4ORh3rIOunAUTwyfhmwE577N25k9rBpJEg4i9jZkPdBjodmBxaWvlV2S_ZyrdRIWo0KfRm2QAP3hLQJGUUJTy740fH3QAcgLTBFhsSxONoXY9SeQp-rI_hA7y-Eu5KlgT3ZabGoKvlaUGYSqqMtRlbo5ihI0wXyfdfuLyVpM5lwkQ5LKwdW-Fa5?></g></svg>