<svg xmlns="http://www.w3.org/2000/svg" xmlns:xlink="http://www.w3.org/1999/xlink" contentStyleType="text/css" data-diagram-type="ACTIVITY" height="748px" preserveAspectRatio="none" style="width:503px;height:748px;background:#FFFFFF;" version="1.1" viewBox="0 0 503 748" width="503px" zoomAndPan="magnify"><title>&#1571;&#1601;&#1590;&#1604; &#1588;&#1585;&#1603;&#1577; &#1605;&#1590;&#1582;&#1575;&#1578; &#1605;&#1610;&#1575;&#1607; &#1601;&#1610; &#1575;&#1604;&#1587;&#1593;&#1608;&#1583;&#1610;&#1577; 2026
&#1585;&#1608;&#1575;&#1574;&#1593; &#1575;&#1604;&#1603;&#1585;&#1610;&#1587;&#1578;&#1575;&#1604;</title><defs/><g><g class="title" data-source-line="1"><text fill="#000000" font-family="sans-serif" font-size="14" font-weight="bold" lengthAdjust="spacing" textLength="312.6006" x="93.7505" y="32.9951">&#1571;&#1601;&#1590;&#1604; &#1588;&#1585;&#1603;&#1577; &#1605;&#1590;&#1582;&#1575;&#1578; &#1605;&#1610;&#1575;&#1607; &#1601;&#1610; &#1575;&#1604;&#1587;&#1593;&#1608;&#1583;&#1610;&#1577; 2026</text><text fill="#000000" font-family="sans-serif" font-size="14" font-weight="bold" lengthAdjust="spacing" textLength="110.7832" x="194.6592" y="49.292">&#1585;&#1608;&#1575;&#1574;&#1593; &#1575;&#1604;&#1603;&#1585;&#1610;&#1587;&#1578;&#1575;&#1604;</text></g><ellipse cx="251.5508" cy="73.5938" fill="#222222" rx="10" ry="10" style="stroke:#222222;stroke-width:1;"/><rect fill="#F1F1F1" height="33.9688" rx="12.5" ry="12.5" style="stroke:#181818;stroke-width:0.5;" width="124.4375" x="189.332" y="103.5938"/><text fill="#000000" font-family="sans-serif" font-size="12" lengthAdjust="spacing" textLength="104.4375" x="199.332" y="124.7324">&#1575;&#1587;&#1578;&#1602;&#1576;&#1575;&#1604; &#1591;&#1604;&#1576; &#1575;&#1604;&#1593;&#1605;&#1610;&#1604;</text><polygon fill="#F1F1F1" points="188.5774,157.5625,314.5242,157.5625,326.5242,169.5625,314.5242,181.5625,188.5774,181.5625,176.5774,169.5625,188.5774,157.5625" style="stroke:#181818;stroke-width:0.5;"/><text fill="#000000" font-family="sans-serif" font-size="11" lengthAdjust="spacing" textLength="125.9468" x="188.5774" y="173.3706">&#1578;&#1581;&#1583;&#1610;&#1583; &#1606;&#1608;&#1593; &#1575;&#1604;&#1605;&#1590;&#1582;&#1577; &#1575;&#1604;&#1605;&#1591;&#1604;&#1608;&#1576;&#1577;</text><text fill="#000000" font-family="sans-serif" font-size="11" lengthAdjust="spacing" textLength="15.689" x="160.8884" y="166.9683">&#1606;&#1593;&#1605;</text><text fill="#000000" font-family="sans-serif" font-size="11" lengthAdjust="spacing" textLength="6.2734" x="326.5242" y="166.9683">&#1604;&#1575;</text><rect fill="#F1F1F1" height="33.9688" rx="12.5" ry="12.5" style="stroke:#181818;stroke-width:0.5;" width="230.5508" x="11" y="191.5625"/><text fill="#000000" font-family="sans-serif" font-size="12" lengthAdjust="spacing" textLength="210.5508" x="21" y="212.7012">&#1578;&#1581;&#1583;&#1610;&#1583; &#1575;&#1604;&#1575;&#1581;&#1578;&#1610;&#1575;&#1580;&#1575;&#1578; (&#1575;&#1604;&#1602;&#1583;&#1585;&#1577;&#1548; &#1575;&#1604;&#1578;&#1583;&#1601;&#1602;&#1548; &#1575;&#1604;&#1575;&#1585;&#1578;&#1601;&#1575;&#1593;)</text><rect fill="#F1F1F1" height="33.9688" rx="12.5" ry="12.5" style="stroke:#181818;stroke-width:0.5;" width="134.9023" x="58.8242" y="245.5313"/><text fill="#000000" font-family="sans-serif" font-size="12" lengthAdjust="spacing" textLength="114.9023" x="68.8242" y="266.6699">&#1575;&#1582;&#1578;&#1610;&#1575;&#1585; &#1575;&#1604;&#1605;&#1590;&#1582;&#1577; &#1575;&#1604;&#1605;&#1606;&#1575;&#1587;&#1576;&#1577;</text><rect fill="#F1F1F1" height="33.9688" rx="12.5" ry="12.5" style="stroke:#181818;stroke-width:0.5;" width="216.5293" x="268.5615" y="191.5625"/><text fill="#000000" font-family="sans-serif" font-size="12" lengthAdjust="spacing" textLength="196.5293" x="278.5615" y="212.7012">&#1578;&#1602;&#1583;&#1610;&#1605; &#1575;&#1587;&#1578;&#1588;&#1575;&#1585;&#1577; &#1604;&#1575;&#1582;&#1578;&#1610;&#1575;&#1585; &#1575;&#1604;&#1605;&#1590;&#1582;&#1577; &#1575;&#1604;&#1605;&#1606;&#1575;&#1587;&#1576;&#1577;</text><rect fill="#F1F1F1" height="33.9688" rx="12.5" ry="12.5" style="stroke:#181818;stroke-width:0.5;" width="230.5508" x="261.5508" y="245.5313"/><text fill="#000000" font-family="sans-serif" font-size="12" lengthAdjust="spacing" textLength="210.5508" x="271.5508" y="266.6699">&#1578;&#1581;&#1583;&#1610;&#1583; &#1575;&#1604;&#1575;&#1581;&#1578;&#1610;&#1575;&#1580;&#1575;&#1578; (&#1575;&#1604;&#1602;&#1583;&#1585;&#1577;&#1548; &#1575;&#1604;&#1578;&#1583;&#1601;&#1602;&#1548; &#1575;&#1604;&#1575;&#1585;&#1578;&#1601;&#1575;&#1593;)</text><rect fill="#F1F1F1" height="33.9688" rx="12.5" ry="12.5" style="stroke:#181818;stroke-width:0.5;" width="134.9023" x="309.375" y="299.5"/><text fill="#000000" font-family="sans-serif" font-size="12" lengthAdjust="spacing" textLength="114.9023" x="319.375" y="320.6387">&#1575;&#1582;&#1578;&#1610;&#1575;&#1585; &#1575;&#1604;&#1605;&#1590;&#1582;&#1577; &#1575;&#1604;&#1605;&#1606;&#1575;&#1587;&#1576;&#1577;</text><polygon fill="#F1F1F1" points="251.5508,339.4688,263.5508,351.4688,251.5508,363.4688,239.5508,351.4688,251.5508,339.4688" style="stroke:#181818;stroke-width:0.5;"/><rect fill="#F1F1F1" height="33.9688" rx="12.5" ry="12.5" style="stroke:#181818;stroke-width:0.5;" width="105.418" x="198.8418" y="383.4688"/><text fill="#000000" font-family="sans-serif" font-size="12" lengthAdjust="spacing" textLength="85.418" x="208.8418" y="404.6074">&#1578;&#1602;&#1583;&#1610;&#1605; &#1593;&#1585;&#1590; &#1587;&#1593;&#1585;</text><polygon fill="#F1F1F1" points="219.2651,437.4375,283.8364,437.4375,295.8364,449.4375,283.8364,461.4375,219.2651,461.4375,207.2651,449.4375,219.2651,437.4375" style="stroke:#181818;stroke-width:0.5;"/><text fill="#000000" font-family="sans-serif" font-size="11" lengthAdjust="spacing" textLength="64.5713" x="219.2651" y="453.2456">&#1605;&#1608;&#1575;&#1601;&#1602;&#1577; &#1575;&#1604;&#1593;&#1605;&#1610;&#1604;</text><text fill="#000000" font-family="sans-serif" font-size="11" lengthAdjust="spacing" textLength="15.689" x="191.5762" y="446.8433">&#1606;&#1593;&#1605;</text><text fill="#000000" font-family="sans-serif" font-size="11" lengthAdjust="spacing" textLength="6.2734" x="295.8364" y="446.8433">&#1604;&#1575;</text><rect fill="#F1F1F1" height="33.9688" rx="12.5" ry="12.5" style="stroke:#181818;stroke-width:0.5;" width="89.1875" x="125.9155" y="471.4375"/><text fill="#000000" font-family="sans-serif" font-size="12" lengthAdjust="spacing" textLength="69.1875" x="135.9155" y="492.5762">&#1578;&#1580;&#1607;&#1610;&#1586; &#1575;&#1604;&#1605;&#1590;&#1582;&#1577;</text><rect fill="#F1F1F1" height="33.9688" rx="12.5" ry="12.5" style="stroke:#181818;stroke-width:0.5;" width="150.2188" x="95.3999" y="525.4063"/><text fill="#000000" font-family="sans-serif" font-size="12" lengthAdjust="spacing" textLength="130.2188" x="105.3999" y="546.5449">&#1575;&#1604;&#1578;&#1608;&#1585;&#1610;&#1583; &#1608;&#1575;&#1604;&#1578;&#1585;&#1603;&#1610;&#1576; (&#1575;&#1582;&#1578;&#1610;&#1575;&#1585;&#1610;)</text><rect fill="#F1F1F1" height="33.9688" rx="12.5" ry="12.5" style="stroke:#181818;stroke-width:0.5;" width="103.7129" x="118.6528" y="579.375"/><text fill="#000000" font-family="sans-serif" font-size="12" lengthAdjust="spacing" textLength="83.7129" x="128.6528" y="600.5137">&#1575;&#1604;&#1575;&#1582;&#1578;&#1576;&#1575;&#1585; &#1608;&#1575;&#1604;&#1578;&#1588;&#1594;&#1610;&#1604;</text><rect fill="#F1F1F1" height="33.9688" rx="12.5" ry="12.5" style="stroke:#181818;stroke-width:0.5;" width="148.209" x="96.4048" y="633.3438"/><text fill="#000000" font-family="sans-serif" font-size="12" lengthAdjust="spacing" textLength="128.209" x="106.4048" y="654.4824">&#1582;&#1583;&#1605;&#1577; &#1605;&#1575; &#1576;&#1593;&#1583; &#1575;&#1604;&#1576;&#1610;&#1593; &#1608;&#1575;&#1604;&#1589;&#1610;&#1575;&#1606;&#1577;</text><rect fill="#F1F1F1" height="33.9688" rx="12.5" ry="12.5" style="stroke:#181818;stroke-width:0.5;" width="133.9473" x="265.6187" y="471.4375"/><text fill="#000000" font-family="sans-serif" font-size="12" lengthAdjust="spacing" textLength="113.9473" x="275.6187" y="492.5762">&#1573;&#1593;&#1575;&#1583;&#1577; &#1575;&#1604;&#1606;&#1592;&#1585; &#1601;&#1610; &#1575;&#1604;&#1593;&#1585;&#1590;</text><polygon fill="#F1F1F1" points="251.5508,673.3125,263.5508,685.3125,251.5508,697.3125,239.5508,685.3125,251.5508,673.3125" style="stroke:#181818;stroke-width:0.5;"/><ellipse cx="251.5508" cy="727.3125" fill="none" rx="10" ry="10" style="stroke:#222222;stroke-width:1.5;"/><line style="stroke:#222222;stroke-width:2.5;" x1="245.3636" x2="257.738" y1="721.1253" y2="733.4997"/><line style="stroke:#222222;stroke-width:2.5;" x1="257.738" x2="245.3636" y1="721.1253" y2="733.4997"/><line style="stroke:#181818;stroke-width:1;" x1="251.5508" x2="251.5508" y1="83.5938" y2="103.5938"/><polygon fill="#181818" points="247.5508,93.5938,251.5508,103.5938,255.5508,93.5938,251.5508,97.5938" style="stroke:#181818;stroke-width:1;"/><line style="stroke:#181818;stroke-width:1;" x1="126.2754" x2="126.2754" y1="225.5313" y2="245.5313"/><polygon fill="#181818" points="122.2754,235.5313,126.2754,245.5313,130.2754,235.5313,126.2754,239.5313" style="stroke:#181818;stroke-width:1;"/><line style="stroke:#181818;stroke-width:1;" x1="376.8262" x2="376.8262" y1="225.5313" y2="245.5313"/><polygon fill="#181818" points="372.8262,235.5313,376.8262,245.5313,380.8262,235.5313,376.8262,239.5313" style="stroke:#181818;stroke-width:1;"/><line style="stroke:#181818;stroke-width:1;" x1="376.8262" x2="376.8262" y1="279.5" y2="299.5"/><polygon fill="#181818" points="372.8262,289.5,376.8262,299.5,380.8262,289.5,376.8262,293.5" style="stroke:#181818;stroke-width:1;"/><line style="stroke:#181818;stroke-width:1;" x1="176.5774" x2="126.2754" y1="169.5625" y2="169.5625"/><line style="stroke:#181818;stroke-width:1;" x1="126.2754" x2="126.2754" y1="169.5625" y2="191.5625"/><polygon fill="#181818" points="122.2754,181.5625,126.2754,191.5625,130.2754,181.5625,126.2754,185.5625" style="stroke:#181818;stroke-width:1;"/><line style="stroke:#181818;stroke-width:1;" x1="326.5242" x2="376.8262" y1="169.5625" y2="169.5625"/><line style="stroke:#181818;stroke-width:1;" x1="376.8262" x2="376.8262" y1="169.5625" y2="191.5625"/><polygon fill="#181818" points="372.8262,181.5625,376.8262,191.5625,380.8262,181.5625,376.8262,185.5625" style="stroke:#181818;stroke-width:1;"/><line style="stroke:#181818;stroke-width:1;" x1="126.2754" x2="126.2754" y1="279.5" y2="351.4688"/><line style="stroke:#181818;stroke-width:1;" x1="126.2754" x2="239.5508" y1="351.4688" y2="351.4688"/><polygon fill="#181818" points="229.5508,347.4688,239.5508,351.4688,229.5508,355.4688,233.5508,351.4688" style="stroke:#181818;stroke-width:1;"/><line style="stroke:#181818;stroke-width:1;" x1="376.8262" x2="376.8262" y1="333.4688" y2="351.4688"/><line style="stroke:#181818;stroke-width:1;" x1="376.8262" x2="263.5508" y1="351.4688" y2="351.4688"/><polygon fill="#181818" points="273.5508,347.4688,263.5508,351.4688,273.5508,355.4688,269.5508,351.4688" style="stroke:#181818;stroke-width:1;"/><line style="stroke:#181818;stroke-width:1;" x1="251.5508" x2="251.5508" y1="137.5625" y2="157.5625"/><polygon fill="#181818" points="247.5508,147.5625,251.5508,157.5625,255.5508,147.5625,251.5508,151.5625" style="stroke:#181818;stroke-width:1;"/><line style="stroke:#181818;stroke-width:1;" x1="251.5508" x2="251.5508" y1="363.4688" y2="383.4688"/><polygon fill="#181818" points="247.5508,373.4688,251.5508,383.4688,255.5508,373.4688,251.5508,377.4688" style="stroke:#181818;stroke-width:1;"/><line style="stroke:#181818;stroke-width:1;" x1="170.5093" x2="170.5093" y1="505.4063" y2="525.4063"/><polygon fill="#181818" points="166.5093,515.4063,170.5093,525.4063,174.5093,515.4063,170.5093,519.4063" style="stroke:#181818;stroke-width:1;"/><line style="stroke:#181818;stroke-width:1;" x1="170.5093" x2="170.5093" y1="559.375" y2="579.375"/><polygon fill="#181818" points="166.5093,569.375,170.5093,579.375,174.5093,569.375,170.5093,573.375" style="stroke:#181818;stroke-width:1;"/><line style="stroke:#181818;stroke-width:1;" x1="170.5093" x2="170.5093" y1="613.3438" y2="633.3438"/><polygon fill="#181818" points="166.5093,623.3438,170.5093,633.3438,174.5093,623.3438,170.5093,627.3438" style="stroke:#181818;stroke-width:1;"/><line style="stroke:#181818;stroke-width:1;" x1="207.2651" x2="170.5093" y1="449.4375" y2="449.4375"/><line style="stroke:#181818;stroke-width:1;" x1="170.5093" x2="170.5093" y1="449.4375" y2="471.4375"/><polygon fill="#181818" points="166.5093,461.4375,170.5093,471.4375,174.5093,461.4375,170.5093,465.4375" style="stroke:#181818;stroke-width:1;"/><line style="stroke:#181818;stroke-width:1;" x1="295.8364" x2="332.5923" y1="449.4375" y2="449.4375"/><line style="stroke:#181818;stroke-width:1;" x1="332.5923" x2="332.5923" y1="449.4375" y2="471.4375"/><polygon fill="#181818" points="328.5923,461.4375,332.5923,471.4375,336.5923,461.4375,332.5923,465.4375" style="stroke:#181818;stroke-width:1;"/><line style="stroke:#181818;stroke-width:1;" x1="170.5093" x2="170.5093" y1="667.3125" y2="685.3125"/><line style="stroke:#181818;stroke-width:1;" x1="170.5093" x2="239.5508" y1="685.3125" y2="685.3125"/><polygon fill="#181818" points="229.5508,681.3125,239.5508,685.3125,229.5508,689.3125,233.5508,685.3125" style="stroke:#181818;stroke-width:1;"/><line style="stroke:#181818;stroke-width:1;" x1="332.5923" x2="332.5923" y1="505.4063" y2="685.3125"/><line style="stroke:#181818;stroke-width:1;" x1="332.5923" x2="263.5508" y1="685.3125" y2="685.3125"/><polygon fill="#181818" points="273.5508,681.3125,263.5508,685.3125,273.5508,689.3125,269.5508,685.3125" style="stroke:#181818;stroke-width:1;"/><line style="stroke:#181818;stroke-width:1;" x1="251.5508" x2="251.5508" y1="417.4375" y2="437.4375"/><polygon fill="#181818" points="247.5508,427.4375,251.5508,437.4375,255.5508,427.4375,251.5508,431.4375" style="stroke:#181818;stroke-width:1;"/><line style="stroke:#181818;stroke-width:1;" x1="251.5508" x2="251.5508" y1="697.3125" y2="717.3125"/><polygon fill="#181818" points="247.5508,707.3125,251.5508,717.3125,255.5508,707.3125,251.5508,711.3125" style="stroke:#181818;stroke-width:1;"/></g></svg>