<?plantuml 1.2026.2beta3?><svg xmlns="http://www.w3.org/2000/svg" xmlns:xlink="http://www.w3.org/1999/xlink" contentStyleType="text/css" data-diagram-type="DESCRIPTION" height="698px" preserveAspectRatio="none" style="width:818px;height:698px;background:#FFFFFF;" version="1.1" viewBox="0 0 818 698" width="818px" zoomAndPan="magnify"><title>&#1606;&#1592;&#1575;&#1605; &#1605;&#1590;&#1582;&#1575;&#1578; &#1575;&#1604;&#1605;&#1610;&#1575;&#1607; &#1604;&#1604;&#1605;&#1576;&#1575;&#1606;&#1610; &#1575;&#1604;&#1587;&#1603;&#1606;&#1610;&#1577;</title><defs/><g><g class="title" data-source-line="13"><text fill="#000000" font-family="'Arial'" font-size="18" font-weight="bold" lengthAdjust="spacing" textLength="318.3135" x="245.3433" y="31.708">&#1606;&#1592;&#1575;&#1605; &#1605;&#1590;&#1582;&#1575;&#1578; &#1575;&#1604;&#1605;&#1610;&#1575;&#1607; &#1604;&#1604;&#1605;&#1576;&#1575;&#1606;&#1610; &#1575;&#1604;&#1587;&#1603;&#1606;&#1610;&#1577;</text></g><!--cluster ????? ??????--><g class="cluster" data-qualified-name="..... ......" data-source-line="15" id="ent0002"><path d="M601.5,52.9531 L693.3428,52.9531 A3.75,3.75 0 0 1 695.8428,55.4531 L702.8428,75.25 L808.5,75.25 A2.5,2.5 0 0 1 811,77.75 L811,417.3431 A2.5,2.5 0 0 1 808.5,419.8431 L601.5,419.8431 A2.5,2.5 0 0 1 599,417.3431 L599,55.4531 A2.5,2.5 0 0 1 601.5,52.9531" fill="#FFFFFF" style="stroke:#000000;stroke-width:1;"/><line style="stroke:#000000;stroke-width:1;" x1="599" x2="702.8428" y1="75.25" y2="75.25"/><text fill="#000000" font-family="'Arial'" font-size="14" font-weight="bold" lengthAdjust="spacing" textLength="90.8428" x="603" y="67.9482">&#1575;&#1604;&#1583;&#1608;&#1585; &#1575;&#1604;&#1571;&#1585;&#1590;&#1610;</text></g><!--cluster ??? ??????--><g class="cluster" data-qualified-name="... ......" data-source-line="21" id="ent0006"><path d="M17.5,198.2431 L105.9043,198.2431 A3.75,3.75 0 0 1 108.4043,200.7431 L115.4043,220.54 L198.5,220.54 A2.5,2.5 0 0 1 201,223.04 L201,417.3431 A2.5,2.5 0 0 1 198.5,419.8431 L17.5,419.8431 A2.5,2.5 0 0 1 15,417.3431 L15,200.7431 A2.5,2.5 0 0 1 17.5,198.2431" fill="#FFFFFF" style="stroke:#000000;stroke-width:1;"/><line style="stroke:#000000;stroke-width:1;" x1="15" x2="115.4043" y1="220.54" y2="220.54"/><text fill="#000000" font-family="'Arial'" font-size="14" font-weight="bold" lengthAdjust="spacing" textLength="87.4043" x="19" y="213.2382">&#1587;&#1591;&#1581; &#1575;&#1604;&#1605;&#1576;&#1606;&#1609;</text></g><!--cluster ??????? ???????--><g class="cluster" data-qualified-name="....... ......." data-source-line="26" id="ent0009"><path d="M13.5,469.8431 L115.7949,469.8431 A3.75,3.75 0 0 1 118.2949,472.3431 L125.2949,492.14 L232.5,492.14 A2.5,2.5 0 0 1 235,494.64 L235,688.9331 A2.5,2.5 0 0 1 232.5,691.4331 L13.5,691.4331 A2.5,2.5 0 0 1 11,688.9331 L11,472.3431 A2.5,2.5 0 0 1 13.5,469.8431" fill="#FFFFFF" style="stroke:#000000;stroke-width:1;"/><line style="stroke:#000000;stroke-width:1;" x1="11" x2="125.2949" y1="492.14" y2="492.14"/><text fill="#000000" font-family="'Arial'" font-size="14" font-weight="bold" lengthAdjust="spacing" textLength="101.2949" x="15" y="484.8382">&#1575;&#1604;&#1571;&#1583;&#1608;&#1575;&#1585; &#1575;&#1604;&#1587;&#1603;&#1606;&#1610;&#1577;</text></g><!--entity source--><g class="entity" data-qualified-name="..... .......source" data-source-line="16" id="ent0003"><rect fill="#FFFFFF" height="46.2969" rx="2.5" ry="2.5" style="stroke:#000000;stroke-width:1;" width="146.3467" x="624.83" y="87.9531"/><rect fill="#FFFFFF" height="10" style="stroke:#000000;stroke-width:1;" width="15" x="751.1767" y="92.9531"/><rect fill="#FFFFFF" height="2" style="stroke:#000000;stroke-width:1;" width="4" x="749.1767" y="94.9531"/><rect fill="#FFFFFF" height="2" style="stroke:#000000;stroke-width:1;" width="4" x="749.1767" y="98.9531"/><text fill="#000000" font-family="'Arial'" font-size="14" lengthAdjust="spacing" textLength="106.3467" x="639.83" y="120.9482">&#1588;&#1576;&#1603;&#1577; &#1575;&#1604;&#1605;&#1610;&#1575;&#1607; &#1575;&#1604;&#1593;&#1575;&#1605;&#1577;</text></g><!--entity ground_tank--><g class="entity" data-qualified-name="..... .......ground_tank" data-source-line="17" id="ent0004"><rect fill="#FFFFFF" height="46.2969" rx="2.5" ry="2.5" style="stroke:#000000;stroke-width:1;" width="154.2627" x="620.87" y="233.2431"/><rect fill="#FFFFFF" height="10" style="stroke:#000000;stroke-width:1;" width="15" x="755.1327" y="238.2431"/><rect fill="#FFFFFF" height="2" style="stroke:#000000;stroke-width:1;" width="4" x="753.1327" y="240.2431"/><rect fill="#FFFFFF" height="2" style="stroke:#000000;stroke-width:1;" width="4" x="753.1327" y="244.2431"/><text fill="#000000" font-family="'Arial'" font-size="14" lengthAdjust="spacing" textLength="114.2627" x="635.87" y="266.2382">&#1582;&#1586;&#1575;&#1606; &#1575;&#1604;&#1605;&#1610;&#1575;&#1607; &#1575;&#1604;&#1571;&#1585;&#1590;&#1610;</text></g><!--entity booster_pump--><g class="entity" data-qualified-name="..... .......booster_pump" data-source-line="18" id="ent0005"><rect fill="#FFFFFF" height="46.2969" rx="2.5" ry="2.5" style="stroke:#000000;stroke-width:1;" width="179.542" x="615.23" y="357.5431"/><rect fill="#FFFFFF" height="10" style="stroke:#000000;stroke-width:1;" width="15" x="774.772" y="362.5431"/><rect fill="#FFFFFF" height="2" style="stroke:#000000;stroke-width:1;" width="4" x="772.772" y="364.5431"/><rect fill="#FFFFFF" height="2" style="stroke:#000000;stroke-width:1;" width="4" x="772.772" y="368.5431"/><text fill="#000000" font-family="'Arial'" font-size="14" lengthAdjust="spacing" textLength="139.542" x="630.23" y="390.5382">&#1605;&#1590;&#1582;&#1577; &#1575;&#1604;&#1583;&#1601;&#1593; (Booster)</text></g><!--entity roof_tank--><g class="entity" data-qualified-name="... .......roof_tank" data-source-line="22" id="ent0007"><rect fill="#FFFFFF" height="46.2969" rx="2.5" ry="2.5" style="stroke:#000000;stroke-width:1;" width="149.2588" x="35.37" y="233.2431"/><rect fill="#FFFFFF" height="10" style="stroke:#000000;stroke-width:1;" width="15" x="164.6288" y="238.2431"/><rect fill="#FFFFFF" height="2" style="stroke:#000000;stroke-width:1;" width="4" x="162.6288" y="240.2431"/><rect fill="#FFFFFF" height="2" style="stroke:#000000;stroke-width:1;" width="4" x="162.6288" y="244.2431"/><text fill="#000000" font-family="'Arial'" font-size="14" lengthAdjust="spacing" textLength="109.2588" x="50.37" y="266.2382">&#1582;&#1586;&#1575;&#1606; &#1575;&#1604;&#1605;&#1610;&#1575;&#1607; &#1575;&#1604;&#1593;&#1604;&#1608;&#1610;</text></g><!--entity pressure_pump--><g class="entity" data-qualified-name="... .......pressure_pump" data-source-line="23" id="ent0008"><rect fill="#FFFFFF" height="46.2969" rx="2.5" ry="2.5" style="stroke:#000000;stroke-width:1;" width="154.6592" x="30.67" y="357.5431"/><rect fill="#FFFFFF" height="10" style="stroke:#000000;stroke-width:1;" width="15" x="165.3292" y="362.5431"/><rect fill="#FFFFFF" height="2" style="stroke:#000000;stroke-width:1;" width="4" x="163.3292" y="364.5431"/><rect fill="#FFFFFF" height="2" style="stroke:#000000;stroke-width:1;" width="4" x="163.3292" y="368.5431"/><text fill="#000000" font-family="'Arial'" font-size="14" lengthAdjust="spacing" textLength="114.6592" x="45.67" y="390.5382">&#1605;&#1590;&#1582;&#1577; &#1578;&#1608;&#1586;&#1610;&#1593; &#1575;&#1604;&#1590;&#1594;&#1591;</text></g><!--entity distribution--><g class="entity" data-qualified-name="....... ........distribution" data-source-line="27" id="ent0010"><rect fill="#FFFFFF" height="46.2969" rx="2.5" ry="2.5" style="stroke:#000000;stroke-width:1;" width="162.2266" x="26.89" y="504.8431"/><rect fill="#FFFFFF" height="10" style="stroke:#000000;stroke-width:1;" width="15" x="169.1166" y="509.8431"/><rect fill="#FFFFFF" height="2" style="stroke:#000000;stroke-width:1;" width="4" x="167.1166" y="511.8431"/><rect fill="#FFFFFF" height="2" style="stroke:#000000;stroke-width:1;" width="4" x="167.1166" y="515.8431"/><text fill="#000000" font-family="'Arial'" font-size="14" lengthAdjust="spacing" textLength="122.2266" x="41.89" y="537.8382">&#1588;&#1576;&#1603;&#1577; &#1575;&#1604;&#1578;&#1608;&#1586;&#1610;&#1593; &#1575;&#1604;&#1583;&#1575;&#1582;&#1604;&#1610;&#1577;</text></g><!--entity apartments--><g class="entity" data-qualified-name="....... ........apartments" data-source-line="28" id="ent0011"><rect fill="#FFFFFF" height="46.2969" rx="2.5" ry="2.5" style="stroke:#000000;stroke-width:1;" width="192.0176" x="26.99" y="629.1331"/><rect fill="#FFFFFF" height="10" style="stroke:#000000;stroke-width:1;" width="15" x="199.0076" y="634.1331"/><rect fill="#FFFFFF" height="2" style="stroke:#000000;stroke-width:1;" width="4" x="197.0076" y="636.1331"/><rect fill="#FFFFFF" height="2" style="stroke:#000000;stroke-width:1;" width="4" x="197.0076" y="640.1331"/><text fill="#000000" font-family="'Arial'" font-size="14" lengthAdjust="spacing" textLength="152.0176" x="41.99" y="662.1282">&#1575;&#1604;&#1608;&#1581;&#1583;&#1575;&#1578; &#1575;&#1604;&#1587;&#1603;&#1606;&#1610;&#1577; (&#1575;&#1604;&#1588;&#1602;&#1602;)</text></g><!--entity control_panel--><g class="entity" data-qualified-name="control_panel" data-source-line="31" id="ent0012"><rect fill="#FFFFFF" height="46.2969" rx="2.5" ry="2.5" style="stroke:#000000;stroke-width:1;" width="143.3799" x="299.31" y="357.5431"/><rect fill="#FFFFFF" height="10" style="stroke:#000000;stroke-width:1;" width="15" x="422.6899" y="362.5431"/><rect fill="#FFFFFF" height="2" style="stroke:#000000;stroke-width:1;" width="4" x="420.6899" y="364.5431"/><rect fill="#FFFFFF" height="2" style="stroke:#000000;stroke-width:1;" width="4" x="420.6899" y="368.5431"/><text fill="#000000" font-family="'Arial'" font-size="14" lengthAdjust="spacing" textLength="103.3799" x="314.31" y="390.5382">&#1604;&#1608;&#1581;&#1577; &#1575;&#1604;&#1578;&#1581;&#1603;&#1605; &#1575;&#1604;&#1570;&#1604;&#1610;</text></g><!--link source to ground_tank--><g class="link" data-entity-1="ent0003" data-entity-2="ent0004" data-link-type="dependency" data-source-line="34" id="lnk13"><path d="M698,134.4831 C698,161.4031 698,200.3131 698,227.1631" fill="none" id="source-to-ground_tank" style="stroke:#000000;stroke-width:1;"/><polygon fill="#000000" points="698,233.1631,702,224.1631,698,228.1631,694,224.1631,698,233.1631" style="stroke:#000000;stroke-width:1;"/><text fill="#000000" font-family="'Arial'" font-size="14" lengthAdjust="spacing" textLength="65.2217" x="699" y="178.2382">&#1578;&#1594;&#1584;&#1610;&#1577; &#1576;&#1575;&#1604;&#1605;&#1575;&#1569;</text></g><!--link ground_tank to booster_pump--><g class="link" data-entity-1="ent0004" data-entity-2="ent0005" data-link-type="dependency" data-source-line="35" id="lnk14"><path d="M699.28,279.8231 C700.55,301.8931 702.1172,329.3929 703.3772,351.4129" fill="none" id="ground_tank-to-booster_pump" style="stroke:#000000;stroke-width:1;"/><polygon fill="#000000" points="703.72,357.4031,707.1993,348.1893,703.4344,352.4113,699.2124,348.6463,703.72,357.4031" style="stroke:#000000;stroke-width:1;"/></g><!--link booster_pump to roof_tank--><g class="link" data-entity-1="ent0005" data-entity-2="ent0007" data-link-type="dependency" data-source-line="36" id="lnk15"><path d="M615,367.6431 C555.03,358.7331 474.71,345.1131 405,327.5431 C380.47,321.3631 375.4,316.2231 351,309.5431 C295.88,294.4431 238.595,282.082 190.765,272.582" fill="none" id="booster_pump-to-roof_tank" style="stroke:#000000;stroke-width:1;"/><polygon fill="#000000" points="184.88,271.4131,192.9283,277.0898,189.7842,272.3872,194.4868,269.2431,184.88,271.4131" style="stroke:#000000;stroke-width:1;"/><text fill="#000000" font-family="'Arial'" font-size="14" lengthAdjust="spacing" textLength="99.7227" x="406" y="323.5382">&#1590;&#1582; &#1575;&#1604;&#1605;&#1610;&#1575;&#1607; &#1604;&#1604;&#1571;&#1593;&#1604;&#1609;</text></g><!--link roof_tank to pressure_pump--><g class="link" data-entity-1="ent0007" data-entity-2="ent0008" data-link-type="dependency" data-source-line="38" id="lnk16"><path d="M109.63,279.8231 C109.27,301.8931 108.8181,329.3839 108.4581,351.4039" fill="none" id="roof_tank-to-pressure_pump" style="stroke:#000000;stroke-width:1;"/><polygon fill="#000000" points="108.36,357.4031,112.5066,348.4697,108.4417,352.4038,104.5077,348.3389,108.36,357.4031" style="stroke:#000000;stroke-width:1;"/></g><!--link pressure_pump to distribution--><g class="link" data-entity-1="ent0008" data-entity-2="ent0010" data-link-type="dependency" data-source-line="39" id="lnk17"><path d="M108,404.0731 C108,431.4631 108,471.5331 108,498.8131" fill="none" id="pressure_pump-to-distribution" style="stroke:#000000;stroke-width:1;"/><polygon fill="#000000" points="108,504.8131,112,495.8131,108,499.8131,104,495.8131,108,504.8131" style="stroke:#000000;stroke-width:1;"/><text fill="#000000" font-family="'Arial'" font-size="14" lengthAdjust="spacing" textLength="100.0234" x="109" y="449.8382">&#1578;&#1608;&#1586;&#1610;&#1593; &#1576;&#1590;&#1594;&#1591; &#1579;&#1575;&#1576;&#1578;</text></g><!--link distribution to apartments--><g class="link" data-entity-1="ent0010" data-entity-2="ent0011" data-link-type="dependency" data-source-line="40" id="lnk18"><path d="M110.75,551.4231 C113.46,573.4831 116.8394,601.0278 119.5394,623.0378" fill="none" id="distribution-to-apartments" style="stroke:#000000;stroke-width:1;"/><polygon fill="#000000" points="120.27,628.9931,123.1444,619.5731,119.6612,624.0303,115.2039,620.5471,120.27,628.9931" style="stroke:#000000;stroke-width:1;"/><text fill="#000000" font-family="'Arial'" font-size="14" lengthAdjust="spacing" textLength="135.7891" x="117" y="595.1282">&#1608;&#1589;&#1608;&#1604; &#1575;&#1604;&#1605;&#1610;&#1575;&#1607; &#1604;&#1604;&#1605;&#1587;&#1578;&#1582;&#1583;&#1605;</text></g><!--link control_panel to booster_pump--><g class="link" data-entity-1="ent0012" data-entity-2="ent0005" data-link-type="dependency" data-source-line="43" id="lnk19"><path d="M443.06,380.6931 C493.4,380.6931 554.98,380.6931 608.88,380.6931" fill="none" id="control_panel-to-booster_pump" style="stroke:#000000;stroke-width:1;stroke-dasharray:7,7;"/><polygon fill="#000000" points="614.88,380.6931,605.88,376.6931,609.88,380.6931,605.88,384.6931,614.88,380.6931" style="stroke:#000000;stroke-width:1;"/><text fill="#000000" font-family="'Arial'" font-size="14" lengthAdjust="spacing" textLength="136.459" x="460.96" y="373.6882">&#1571;&#1608;&#1575;&#1605;&#1585; &#1575;&#1604;&#1578;&#1588;&#1594;&#1610;&#1604; / &#1575;&#1604;&#1573;&#1610;&#1602;&#1575;&#1601;</text></g><!--link control_panel to pressure_pump--><g class="link" data-entity-1="ent0012" data-entity-2="ent0008" data-link-type="dependency" data-source-line="44" id="lnk20"><path d="M299.01,380.6931 C263.81,380.6931 227.4,380.6931 191.49,380.6931" fill="none" id="control_panel-to-pressure_pump" style="stroke:#000000;stroke-width:1;stroke-dasharray:7,7;"/><polygon fill="#000000" points="185.49,380.6931,194.49,384.6931,190.49,380.6931,194.49,376.6931,185.49,380.6931" style="stroke:#000000;stroke-width:1;"/><text fill="#000000" font-family="'Arial'" font-size="14" lengthAdjust="spacing" textLength="77.9365" x="203.82" y="373.6882">&#1578;&#1606;&#1592;&#1610;&#1605; &#1575;&#1604;&#1590;&#1594;&#1591;</text></g><!--reverse link ground_tank to control_panel--><g class="link" data-entity-1="ent0004" data-entity-2="ent0012" data-link-type="dependency" data-source-line="46" id="lnk21"><path d="M632.0205,282.0658 C573.2505,304.0558 490.03,335.1731 431.28,357.1431" fill="none" id="ground_tank-backto-control_panel" style="stroke:#000000;stroke-width:1;stroke-dasharray:7,7;"/><polygon fill="#000000" points="637.64,279.9631,627.809,279.3708,632.9571,281.7153,630.6125,286.8634,637.64,279.9631" style="stroke:#000000;stroke-width:1;"/><text fill="#000000" font-family="'Arial'" font-size="14" lengthAdjust="spacing" textLength="120.9004" x="555" y="323.5382">&#1581;&#1587;&#1575;&#1587; &#1605;&#1587;&#1578;&#1608;&#1609; &#1575;&#1604;&#1605;&#1575;&#1569;</text></g><!--reverse link roof_tank to control_panel--><g class="link" data-entity-1="ent0007" data-entity-2="ent0012" data-link-type="dependency" data-source-line="47" id="lnk22"><path d="M147.7114,283.1225 C170.1914,297.9225 196.09,313.7431 225,327.5431 C248.44,338.7331 274.95,348.8931 298.89,357.2131" fill="none" id="roof_tank-backto-control_panel" style="stroke:#000000;stroke-width:1;stroke-dasharray:7,7;"/><polygon fill="#000000" points="142.7,279.8231,148.0176,288.1131,146.8762,282.5726,152.4167,281.4312,142.7,279.8231" style="stroke:#000000;stroke-width:1;"/><text fill="#000000" font-family="'Arial'" font-size="14" lengthAdjust="spacing" textLength="120.9004" x="226" y="323.5382">&#1581;&#1587;&#1575;&#1587; &#1605;&#1587;&#1578;&#1608;&#1609; &#1575;&#1604;&#1605;&#1575;&#1569;</text></g><?plantuml-src bLHDRzD04BtlhnXweHnI1EA0449gaJXowR52qIRPD5PihxLUgmB4eMaJqlmBg53IeAIaAItfBvdzDypkviDkpO6JFPvvCs_Uc-IHReb8G1Bo86PQ9g0brAJMCe96e4HT1p9cB6q7SS8LZw0keqJ68jRx-cCe88l2vxbi96DPRob97RNAH2wJjdX37WNn8JHvcEOpkqh9exSob0hsGbvlbmtRaweXL7bHGpHv5kftCjRlEGtUsbK13xVAA_Q3JmAUlSWbTQ13iKczPCnz0TF3FpWqNJ1TlC4f3d4C59-QhXdGyolGAmKueg1d1Yw7StDY0xnWB26M_93ekCIbwUFCrvpZ36_CO0i-Cu03lCQHES6BOczNkB3ZyU83y1HIcQcwS80fNjcH9O1bPmSuL3AB6rNDuxP5BPVmOuZDCIvWUq_AL0lrn05gFgWcMPImBtd-Sxp5oN8SaUsPinNtVrDPq8V-aegIibb2P4oIN15cuH4tU8UthZvH8aqp9Kge-2sjcCELd6l9FQdxajuVSqd8AP4RB8Lj1AbMGIrpT-xXTfa-Jbpf-DuGs7RnjUcOZjUDqndfY6uqjLGFbjZLS9mGikk3xtQimzJft9GCgmcFHSZOOwXKAclTwDbnawdHs5fbEaM1gPZvUw3NDtcduHN9IZh-SbJTQLhFXlYDvQiigc1tFd3PjMMs8_dryFB91kln6MERMeiicbU8N3wljwExiMVaRm3m9p4UuPWLQYruepL12VYRRkoqz5Sv9nsc95vthMvUsO8tLiw28R1JbCVIFBSdHtrdA-mrtfa13N_gF_oWW7gRuuUjYXgubUclXUgxkSDd1ODUx-mKRyJ29hJK4EVWjwFDpo3dxyQ5_mV_1G00?></g></svg>