<?plantuml 1.2026.2beta3?><svg xmlns="http://www.w3.org/2000/svg" xmlns:xlink="http://www.w3.org/1999/xlink" contentStyleType="text/css" data-diagram-type="DESCRIPTION" height="602px" preserveAspectRatio="none" style="width:602px;height:602px;background:#FFFFFF;" version="1.1" viewBox="0 0 602 602" width="602px" zoomAndPan="magnify"><title>&#1605;&#1590;&#1582;&#1577; &#1575;&#1604;&#1591;&#1585;&#1583; &#1575;&#1604;&#1605;&#1585;&#1603;&#1586;&#1610; - &#1575;&#1604;&#1605;&#1603;&#1608;&#1606;&#1575;&#1578; &#1575;&#1604;&#1585;&#1574;&#1610;&#1587;&#1610;&#1577; &#1608;&#1575;&#1604;&#1593;&#1605;&#1604;&#1610;&#1577;</title><defs/><g><g class="title" data-source-line="1"><text fill="#000000" font-family="sans-serif" font-size="14" font-weight="bold" lengthAdjust="spacing" textLength="348.6123" x="120.1905" y="22.9951">&#1605;&#1590;&#1582;&#1577; &#1575;&#1604;&#1591;&#1585;&#1583; &#1575;&#1604;&#1605;&#1585;&#1603;&#1586;&#1610; - &#1575;&#1604;&#1605;&#1603;&#1608;&#1606;&#1575;&#1578; &#1575;&#1604;&#1585;&#1574;&#1610;&#1587;&#1610;&#1577; &#1608;&#1575;&#1604;&#1593;&#1605;&#1604;&#1610;&#1577;</text></g><!--cluster ??? ?????? (Pump Head)--><g class="cluster" data-qualified-name="... ...... .Pump Head." data-source-line="9" id="ent0006"><path d="M8.5,276.8869 L206.4297,276.8869 A3.75,3.75 0 0 1 208.9297,279.3869 L215.9297,299.1838 L386.5,299.1838 A2.5,2.5 0 0 1 389,301.6838 L389,494.9769 A2.5,2.5 0 0 1 386.5,497.4769 L8.5,497.4769 A2.5,2.5 0 0 1 6,494.9769 L6,279.3869 A2.5,2.5 0 0 1 8.5,276.8869" fill="none" style="stroke:#000000;stroke-width:1.5;"/><line style="stroke:#000000;stroke-width:1.5;" x1="6" x2="215.9297" y1="299.1838" y2="299.1838"/><text fill="#000000" font-family="sans-serif" font-size="14" font-weight="bold" lengthAdjust="spacing" textLength="196.9297" x="10" y="291.882">&#1585;&#1571;&#1587; &#1575;&#1604;&#1605;&#1590;&#1582;&#1577; (Pump Head)</text></g><!--entity Impeller--><g class="entity" data-qualified-name="... ...... .Pump Head..Impeller" data-source-line="10" id="ent0007"><rect fill="#F1F1F1" height="46.2969" rx="2.5" ry="2.5" style="stroke:#181818;stroke-width:0.5;" width="151.8291" x="202.09" y="311.8869"/><rect fill="#F1F1F1" height="10" style="stroke:#181818;stroke-width:0.5;" width="15" x="333.9191" y="316.8869"/><rect fill="#F1F1F1" height="2" style="stroke:#181818;stroke-width:0.5;" width="4" x="331.9191" y="318.8869"/><rect fill="#F1F1F1" height="2" style="stroke:#181818;stroke-width:0.5;" width="4" x="331.9191" y="322.8869"/><text fill="#000000" font-family="sans-serif" font-size="14" lengthAdjust="spacing" textLength="111.8291" x="217.09" y="344.882">&#1575;&#1604;&#1605;&#1603;&#1585;&#1607; (Impeller)</text></g><!--entity Casing--><g class="entity" data-qualified-name="... ...... .Pump Head..Casing" data-source-line="11" id="ent0008"><rect fill="#F1F1F1" height="46.2969" rx="2.5" ry="2.5" style="stroke:#181818;stroke-width:0.5;" width="182.2422" x="186.88" y="435.1869"/><rect fill="#F1F1F1" height="10" style="stroke:#181818;stroke-width:0.5;" width="15" x="349.1222" y="440.1869"/><rect fill="#F1F1F1" height="2" style="stroke:#181818;stroke-width:0.5;" width="4" x="347.1222" y="442.1869"/><rect fill="#F1F1F1" height="2" style="stroke:#181818;stroke-width:0.5;" width="4" x="347.1222" y="446.1869"/><text fill="#000000" font-family="sans-serif" font-size="14" lengthAdjust="spacing" textLength="142.2422" x="201.88" y="468.182">&#1594;&#1604;&#1575;&#1601; &#1575;&#1604;&#1605;&#1590;&#1582;&#1577; (Casing)</text></g><!--entity Suction--><g class="entity" data-qualified-name="Suction" data-source-line="3" id="ent0002"><rect fill="#F1F1F1" height="36.2969" rx="2.5" ry="2.5" style="stroke:#181818;stroke-width:0.5;" width="101.9834" x="495.01" y="440.1869"/><text fill="#000000" font-family="sans-serif" font-size="14" lengthAdjust="spacing" textLength="81.9834" x="505.01" y="463.182">&#1605;&#1583;&#1582;&#1604; &#1575;&#1604;&#1587;&#1581;&#1576;</text></g><!--entity Discharge--><g class="entity" data-qualified-name="Discharge" data-source-line="4" id="ent0003"><rect fill="#F1F1F1" height="36.2969" rx="2.5" ry="2.5" style="stroke:#181818;stroke-width:0.5;" width="91.3467" x="232.33" y="560.4769"/><text fill="#000000" font-family="sans-serif" font-size="14" lengthAdjust="spacing" textLength="71.3467" x="242.33" y="583.472">&#1605;&#1582;&#1585;&#1580; &#1575;&#1604;&#1591;&#1585;&#1583;</text></g><!--entity Motor--><g class="entity" data-qualified-name="Motor" data-source-line="6" id="ent0004"><rect fill="#F1F1F1" height="46.2969" rx="2.5" ry="2.5" style="stroke:#181818;stroke-width:0.5;" width="84.5498" x="235.73" y="44.2969"/><rect fill="#F1F1F1" height="10" style="stroke:#181818;stroke-width:0.5;" width="15" x="300.2798" y="49.2969"/><rect fill="#F1F1F1" height="2" style="stroke:#181818;stroke-width:0.5;" width="4" x="298.2798" y="51.2969"/><rect fill="#F1F1F1" height="2" style="stroke:#181818;stroke-width:0.5;" width="4" x="298.2798" y="55.2969"/><text fill="#000000" font-family="sans-serif" font-size="14" lengthAdjust="spacing" textLength="44.5498" x="250.73" y="77.292">&#1575;&#1604;&#1605;&#1581;&#1585;&#1603;</text></g><!--entity Shaft--><g class="entity" data-qualified-name="Shaft" data-source-line="7" id="ent0005"><rect fill="#F1F1F1" height="46.2969" rx="2.5" ry="2.5" style="stroke:#181818;stroke-width:0.5;" width="76.4697" x="239.77" y="167.5869"/><rect fill="#F1F1F1" height="10" style="stroke:#181818;stroke-width:0.5;" width="15" x="296.2397" y="172.5869"/><rect fill="#F1F1F1" height="2" style="stroke:#181818;stroke-width:0.5;" width="4" x="294.2397" y="174.5869"/><rect fill="#F1F1F1" height="2" style="stroke:#181818;stroke-width:0.5;" width="4" x="294.2397" y="178.5869"/><text fill="#000000" font-family="sans-serif" font-size="14" lengthAdjust="spacing" textLength="36.4697" x="254.77" y="200.582">&#1575;&#1604;&#1593;&#1605;&#1608;&#1583;</text></g><!--link Motor to Shaft--><g class="link" data-entity-1="ent0004" data-entity-2="ent0005" data-link-type="dependency" data-source-line="15" id="lnk9"><path d="M278,90.9669 C278,112.7569 278,139.5769 278,161.3269" fill="none" id="Motor-to-Shaft" style="stroke:#181818;stroke-width:1;"/><polygon fill="#181818" points="278,167.3269,282,158.3269,278,162.3269,274,158.3269,278,167.3269" style="stroke:#181818;stroke-width:1;"/><text fill="#000000" font-family="sans-serif" font-size="13" lengthAdjust="spacing" textLength="63.1274" x="279" y="133.6538">&#1591;&#1575;&#1602;&#1577; &#1583;&#1608;&#1585;&#1575;&#1606;</text></g><!--link Motor to Shaft--><g class="link" data-entity-1="ent0004" data-entity-2="ent0005" data-link-type="dependency" data-source-line="25" id="lnk15"><path d="M274.31,90.9669 C272.98,100.1269 271.65,110.8369 271,120.5869 C269.95,136.2369 270.8848,147.894 272.9248,161.414" fill="none" id="Motor-to-Shaft-1" style="stroke:#181818;stroke-width:1;"/><polygon fill="#181818" points="273.82,167.3469,276.4324,157.8508,273.074,162.4028,268.522,159.0444,273.82,167.3469" style="stroke:#181818;stroke-width:1;"/></g><!--link Shaft to Impeller--><g class="link" data-entity-1="ent0005" data-entity-2="ent0007" data-link-type="dependency" data-source-line="16" id="lnk10"><path d="M278,214.2869 C278,240.9269 278,278.9969 278,305.5969" fill="none" id="Shaft-to-Impeller" style="stroke:#181818;stroke-width:1;"/><polygon fill="#181818" points="278,311.5969,282,302.5969,278,306.5969,274,302.5969,278,311.5969" style="stroke:#181818;stroke-width:1;"/><text fill="#000000" font-family="sans-serif" font-size="13" lengthAdjust="spacing" textLength="67.8945" x="279" y="256.9538">&#1578;&#1583;&#1608;&#1610;&#1585; &#1575;&#1604;&#1605;&#1603;&#1585;&#1607;</text></g><!--link Shaft to Impeller--><g class="link" data-entity-1="ent0005" data-entity-2="ent0007" data-link-type="dependency" data-source-line="26" id="lnk16"><path d="M274.31,214.2569 C272.98,223.4269 271.65,234.1369 271,243.8869 C269.46,266.9069 271.204,287.2699 273.644,305.4999" fill="none" id="Shaft-to-Impeller-1" style="stroke:#181818;stroke-width:1;"/><polygon fill="#181818" points="274.44,311.4469,277.2107,301.9958,273.7767,306.4911,269.2814,303.0571,274.44,311.4469" style="stroke:#181818;stroke-width:1;"/></g><!--link Suction to Casing--><g class="link" data-entity-1="ent0002" data-entity-2="ent0008" data-link-type="dependency" data-source-line="19" id="lnk11"><path d="M494.74,458.3269 C459.36,458.3269 417.33,458.3269 375.48,458.3269" fill="none" id="Suction-to-Casing" style="stroke:#181818;stroke-width:1;"/><polygon fill="#181818" points="369.48,458.3269,378.48,462.3269,374.48,458.3269,378.48,454.3269,369.48,458.3269" style="stroke:#181818;stroke-width:1;"/><text fill="#000000" font-family="sans-serif" font-size="13" lengthAdjust="spacing" textLength="89.3115" x="387.56" y="451.3938">1. &#1587;&#1581;&#1576; &#1575;&#1604;&#1587;&#1575;&#1574;&#1604;</text></g><!--reverse link Casing to Suction--><g class="link" data-entity-1="ent0008" data-entity-2="ent0002" data-link-type="dependency" data-source-line="28" id="lnk20"><path d="M375.6,458.3269 C417.29,458.3269 452.98,458.3269 494.67,458.3269" fill="none" id="Casing-backto-Suction" style="stroke:#181818;stroke-width:1;"/><polygon fill="#181818" points="369.6,458.3269,378.6,462.3269,374.6,458.3269,378.6,454.3269,369.6,458.3269" style="stroke:#181818;stroke-width:1;"/></g><!--link Casing to Impeller--><g class="link" data-entity-1="ent0008" data-entity-2="ent0007" data-link-type="dependency" data-source-line="20" id="lnk12"><path d="M276.21,434.9169 C275.33,421.3869 274.55,403.7969 275,388.1869 C275.28,378.4869 275.4782,373.7753 276.0482,364.5953" fill="none" id="Casing-to-Impeller" style="stroke:#181818;stroke-width:1;"/><polygon fill="#181818" points="276.42,358.6069,271.8699,367.3417,276.1101,363.5973,279.8546,367.8375,276.42,358.6069" style="stroke:#181818;stroke-width:1;"/><text fill="#000000" font-family="sans-serif" font-size="13" lengthAdjust="spacing" textLength="86.5249" x="276" y="401.2538">2. &#1578;&#1608;&#1580;&#1610;&#1607; &#1575;&#1604;&#1587;&#1575;&#1574;&#1604;</text></g><!--link Impeller to Casing--><g class="link" data-entity-1="ent0007" data-entity-2="ent0008" data-link-type="dependency" data-source-line="21" id="lnk13"><path d="M201.81,346.9869 C154.31,355.5469 99.53,369.2069 85,388.1869 C53.03,429.9369 116.2811,445.9166 180.5411,452.4866" fill="none" id="Impeller-to-Casing" style="stroke:#181818;stroke-width:1;"/><polygon fill="#181818" points="186.51,453.0969,177.9635,448.2022,181.5359,452.5883,177.1498,456.1607,186.51,453.0969" style="stroke:#181818;stroke-width:1;"/><text fill="#000000" font-family="sans-serif" font-size="13" lengthAdjust="spacing" textLength="179.4482" x="86" y="401.2538">3. &#1583;&#1601;&#1593; &#1575;&#1604;&#1587;&#1575;&#1574;&#1604; (&#1602;&#1608;&#1577; &#1591;&#1585;&#1583; &#1605;&#1585;&#1603;&#1586;&#1610;)</text></g><!--reverse link Casing to Impeller--><g class="link" data-entity-1="ent0008" data-entity-2="ent0007" data-link-type="dependency" data-source-line="27" id="lnk18"><path d="M341.3697,431.7618 C353.6197,424.2218 359.88,417.6169 367,405.1869 C378.04,385.9169 361.8,370.1369 340.29,358.5469" fill="none" id="Casing-backto-Impeller" style="stroke:#181818;stroke-width:1;"/><polygon fill="#181818" points="336.26,434.9069,346.0212,433.5957,340.5181,432.286,341.8278,426.7829,336.26,434.9069" style="stroke:#181818;stroke-width:1;"/></g><!--link Casing to Discharge--><g class="link" data-entity-1="ent0008" data-entity-2="ent0003" data-link-type="dependency" data-source-line="22" id="lnk14"><path d="M278,481.8569 C278,504.6569 278,533.4069 278,554.1869" fill="none" id="Casing-to-Discharge" style="stroke:#181818;stroke-width:1;"/><polygon fill="#181818" points="278,560.1869,282,551.1869,278,555.1869,274,551.1869,278,560.1869" style="stroke:#181818;stroke-width:1;"/><text fill="#000000" font-family="sans-serif" font-size="13" lengthAdjust="spacing" textLength="153.645" x="279" y="526.5438">4. &#1591;&#1585;&#1583; &#1575;&#1604;&#1587;&#1575;&#1574;&#1604; (&#1576;&#1590;&#1594;&#1591; &#1593;&#1575;&#1604;&#1613;)</text></g><!--link Casing to Discharge--><g class="link" data-entity-1="ent0008" data-entity-2="ent0003" data-link-type="dependency" data-source-line="29" id="lnk21"><path d="M273.81,481.7369 C271.69,495.7369 269.79,514.1369 271,530.4769 C271.73,540.3869 272.3225,545.4487 273.8025,554.3187" fill="none" id="Casing-to-Discharge-1" style="stroke:#181818;stroke-width:1;"/><polygon fill="#181818" points="274.79,560.2369,277.2542,550.7013,273.9671,555.3051,269.3633,552.0179,274.79,560.2369" style="stroke:#181818;stroke-width:1;"/></g><?plantuml-src PLDDRjfG4Dw_KupO51OWDUcgYsxQHRkeL2adi1p7M0NRCezLrGM49CXIJr4f1XH0BWeHESdCRJhlpyREmh8z_kRxcNcMaHm5G7Tun1sk0GjQu0kMkDUFN2_f5lzH3drRe5jQqZqMk37W4XyfnmDVQw2bBfqOjL058RB0bruSiaI7kVQueuLfE-0MLntm9d0rzMMKn2teZecVpknew9TeuW-zB0o4y9DnciH1BA5ZZMwLLGtxdiWaQoEqgwKbkXfwDrA8rFD_UY4Bii9VFBZ8PXJT7zDn2by3xxhNWLy2u8qaJwQa1-X-6wV1Q1HaFStjtbeThsoXe5bBuxCtYUBGD9fdyLk8Tu0RtDECvcu21StjTbWsP-62xjLTJrddXNx_aya57w7ks7FcKg65-QPGpg42AfqbivHmdkcjXGDl_54jxuIh2cnI2Bj1pMr2CFFx0PWbD_g5_TwoSS7W3JjzuamFpOOArM2_7AXeCpmrtNLfpYnhi4UuFhwzS-7g637HXm6SdVUQY5CUyHLVL62LzK_FpgHaexbDrVWR-7N1uaU-jePiXS-idxlzP54ub6v9RXskM9sQEkyqhHBN8nu5Dx8kkr2EfKhs7m00?></g></svg>