<?plantuml 1.2026.2beta3?><svg xmlns="http://www.w3.org/2000/svg" xmlns:xlink="http://www.w3.org/1999/xlink" contentStyleType="text/css" data-diagram-type="DESCRIPTION" height="635px" preserveAspectRatio="none" style="width:1104px;height:635px;background:#FFFFFF;" version="1.1" viewBox="0 0 1104 635" width="1104px" zoomAndPan="magnify"><title>&#1605;&#1582;&#1591;&#1591; &#1606;&#1592;&#1575;&#1605; &#1604;&#1608;&#1581;&#1575;&#1578; &#1578;&#1581;&#1603;&#1605; &#1605;&#1590;&#1582;&#1575;&#1578; &#1575;&#1604;&#1581;&#1585;&#1610;&#1602; &#1575;&#1604;&#1605;&#1593;&#1578;&#1605;&#1583;&#1577; (&#1585;&#1608;&#1575;&#1574;&#1593; &#1575;&#1604;&#1603;&#1585;&#1610;&#1587;&#1578;&#1575;&#1604;)</title><defs/><g><g class="title" data-source-line="6"><text fill="#000000" font-family="Arial" font-size="22" font-weight="bold" lengthAdjust="spacing" textLength="746.1416" x="174.4292" y="35.4209">&#1605;&#1582;&#1591;&#1591; &#1606;&#1592;&#1575;&#1605; &#1604;&#1608;&#1581;&#1575;&#1578; &#1578;&#1581;&#1603;&#1605; &#1605;&#1590;&#1582;&#1575;&#1578; &#1575;&#1604;&#1581;&#1585;&#1610;&#1602; &#1575;&#1604;&#1605;&#1593;&#1578;&#1605;&#1583;&#1577; (&#1585;&#1608;&#1575;&#1574;&#1593; &#1575;&#1604;&#1603;&#1585;&#1610;&#1587;&#1578;&#1575;&#1604;)</text></g><!--cluster ???????? ?????????--><g class="cluster" data-qualified-name="........ ........." data-source-line="8" id="ent0002"><path d="M79.5,57.6094 L212.7139,57.6094 A3.75,3.75 0 0 1 215.2139,60.1094 L222.2139,79.9063 L453.5,79.9063 A2.5,2.5 0 0 1 456,82.4063 L456,158.6994 A2.5,2.5 0 0 1 453.5,161.1994 L79.5,161.1994 A2.5,2.5 0 0 1 77,158.6994 L77,60.1094 A2.5,2.5 0 0 1 79.5,57.6094" fill="#FFFFFF" style="stroke:#000000;stroke-width:1;"/><line style="stroke:#000000;stroke-width:1;" x1="77" x2="222.2139" y1="79.9063" y2="79.9063"/><text fill="#000000" font-family="Arial" font-size="14" font-weight="bold" lengthAdjust="spacing" textLength="132.2139" x="81" y="72.6045">&#1575;&#1604;&#1605;&#1583;&#1582;&#1604;&#1575;&#1578; &#1608;&#1575;&#1604;&#1605;&#1585;&#1575;&#1602;&#1576;&#1577;</text></g><!--cluster ???? ?????? ???????? (?????? ??????)--><g class="cluster" data-qualified-name=".... ...... ........ ....... ......." data-source-line="13" id="ent0005"><path d="M13.5,210.1994 L272.2627,210.1994 A3.75,3.75 0 0 1 274.7627,212.6994 L281.7627,232.4962 L470.5,232.4962 A2.5,2.5 0 0 1 473,234.9962 L473,437.4394 A2.5,2.5 0 0 1 470.5,439.9394 L13.5,439.9394 A2.5,2.5 0 0 1 11,437.4394 L11,212.6994 A2.5,2.5 0 0 1 13.5,210.1994" fill="#ADD8E6" style="stroke:#000000;stroke-width:1;"/><line style="stroke:#000000;stroke-width:1;" x1="11" x2="281.7627" y1="232.4962" y2="232.4962"/><text fill="#000000" font-family="Arial" font-size="14" font-weight="bold" lengthAdjust="spacing" textLength="257.7627" x="15" y="225.1945">&#1604;&#1608;&#1581;&#1577; &#1575;&#1604;&#1578;&#1581;&#1603;&#1605; &#1575;&#1604;&#1605;&#1593;&#1578;&#1605;&#1583;&#1577; (&#1575;&#1604;&#1583;&#1601;&#1575;&#1593; &#1575;&#1604;&#1605;&#1583;&#1606;&#1610;)</text></g><!--cluster ????? ???? (???????)--><g class="cluster" data-qualified-name="..... .... ........." data-source-line="19" id="ent0009"><path d="M499.5,344.4994 L665.3828,344.4994 A3.75,3.75 0 0 1 667.8828,346.9994 L674.8828,366.7963 L1094.5,366.7963 A2.5,2.5 0 0 1 1097,369.2963 L1097,445.5894 A2.5,2.5 0 0 1 1094.5,448.0894 L499.5,448.0894 A2.5,2.5 0 0 1 497,445.5894 L497,346.9994 A2.5,2.5 0 0 1 499.5,344.4994" fill="#FFFFFF" style="stroke:#000000;stroke-width:1;"/><line style="stroke:#000000;stroke-width:1;" x1="497" x2="674.8828" y1="366.7963" y2="366.7963"/><text fill="#000000" font-family="Arial" font-size="14" font-weight="bold" lengthAdjust="spacing" textLength="164.8828" x="501" y="359.4945">&#1608;&#1581;&#1583;&#1575;&#1578; &#1575;&#1604;&#1590;&#1582; (&#1575;&#1604;&#1605;&#1590;&#1582;&#1575;&#1578;)</text></g><!--cluster ????????--><g class="cluster" data-qualified-name="........" data-source-line="25" id="ent0013"><polygon fill="#FFFFFF" points="708,507.0894,718,497.0894,892,497.0894,892,579.3894,882,589.3894,708,589.3894,708,507.0894" style="stroke:#000000;stroke-width:1;"/><line style="stroke:#000000;stroke-width:1;" x1="882" x2="892" y1="507.0894" y2="497.0894"/><line style="stroke:#000000;stroke-width:1;" x1="708" x2="882" y1="507.0894" y2="507.0894"/><line style="stroke:#000000;stroke-width:1;" x1="882" x2="882" y1="507.0894" y2="589.3894"/><text fill="#000000" font-family="Arial" font-size="14" font-weight="bold" lengthAdjust="spacing" textLength="67.6553" x="762.1724" y="523.0845">&#1575;&#1604;&#1605;&#1582;&#1585;&#1580;&#1575;&#1578;</text></g><!--entity Sensors--><g class="entity" data-qualified-name="........ ..........Sensors" data-source-line="9" id="ent0003"><rect fill="#FFFFFF" height="52.5938" rx="2.5" ry="2.5" style="stroke:#000000;stroke-width:1;" width="158.209" x="92.9" y="92.6094"/><text fill="#000000" font-family="Arial" font-size="14" lengthAdjust="spacing" textLength="99.374" x="102.9" y="115.6045">&#1581;&#1587;&#1575;&#1587;&#1575;&#1578; &#1575;&#1604;&#1590;&#1594;&#1591;</text><text fill="#000000" font-family="Arial" font-size="14" lengthAdjust="spacing" textLength="138.209" x="102.9" y="131.9014">(Pressure Switches)</text></g><!--entity Power--><g class="entity" data-qualified-name="........ ..........Power" data-source-line="10" id="ent0004"><rect fill="#FFFFFF" height="36.2969" rx="2.5" ry="2.5" style="stroke:#000000;stroke-width:1;" width="154.6064" x="285.7" y="100.7594"/><text fill="#000000" font-family="Arial" font-size="14" lengthAdjust="spacing" textLength="134.6064" x="295.7" y="123.7545">&#1605;&#1589;&#1583;&#1585; &#1575;&#1604;&#1591;&#1575;&#1602;&#1577; &#1575;&#1604;&#1603;&#1607;&#1585;&#1576;&#1575;&#1574;&#1610;&#1577;</text></g><!--entity CPU--><g class="entity" data-qualified-name=".... ...... ........ ....... ........CPU" data-source-line="14" id="ent0006"><rect fill="#FFFFFF" height="36.2969" rx="2.5" ry="2.5" style="stroke:#000000;stroke-width:1;" width="198.2334" x="26.88" y="245.1994"/><text fill="#000000" font-family="Arial" font-size="14" lengthAdjust="spacing" textLength="178.2334" x="36.88" y="268.1945">&#1608;&#1581;&#1583;&#1577; &#1575;&#1604;&#1605;&#1593;&#1575;&#1604;&#1580;&#1577; &#1575;&#1604;&#1605;&#1585;&#1603;&#1586;&#1610;&#1577; (PLC)</text></g><!--entity Alarms--><g class="entity" data-qualified-name=".... ...... ........ ....... ........Alarms" data-source-line="15" id="ent0007"><rect fill="#FFFFFF" height="36.2969" rx="2.5" ry="2.5" style="stroke:#000000;stroke-width:1;" width="144.5781" x="53.71" y="387.6494"/><text fill="#000000" font-family="Arial" font-size="14" lengthAdjust="spacing" textLength="124.5781" x="63.71" y="410.6445">&#1606;&#1592;&#1575;&#1605; &#1575;&#1604;&#1573;&#1606;&#1584;&#1575;&#1585; &#1608;&#1575;&#1604;&#1605;&#1585;&#1575;&#1602;&#1576;&#1577;</text></g><!--entity Breakers--><g class="entity" data-qualified-name=".... ...... ........ ....... ........Breakers" data-source-line="16" id="ent0008"><rect fill="#FFFFFF" height="36.2969" rx="2.5" ry="2.5" style="stroke:#000000;stroke-width:1;" width="130.3252" x="326.84" y="245.1994"/><text fill="#000000" font-family="Arial" font-size="14" lengthAdjust="spacing" textLength="110.3252" x="336.84" y="268.1945">&#1575;&#1604;&#1602;&#1608;&#1575;&#1591;&#1593; &#1608;&#1575;&#1604;&#1605;&#1585;&#1581;&#1604;&#1575;&#1578;</text></g><!--entity JockeyPump--><g class="entity" data-qualified-name="..... .... ..........JockeyPump" data-source-line="20" id="ent0010"><rect fill="#FFFFFF" height="52.5938" rx="2.5" ry="2.5" style="stroke:#000000;stroke-width:1;" width="164.1631" x="512.92" y="379.4994"/><text fill="#000000" font-family="Arial" font-size="14" lengthAdjust="spacing" textLength="144.1631" x="522.92" y="402.4945">&#1605;&#1590;&#1582;&#1577; &#1575;&#1604;&#1580;&#1608;&#1603;&#1610; (Jockey)</text><text fill="#000000" font-family="Arial" font-size="14" lengthAdjust="spacing" textLength="116.1289" x="522.92" y="418.7914">&#1604;&#1604;&#1581;&#1601;&#1575;&#1592; &#1593;&#1604;&#1609; &#1575;&#1604;&#1590;&#1594;&#1591;</text></g><!--entity MainPump--><g class="entity" data-qualified-name="..... .... ..........MainPump" data-source-line="21" id="ent0011"><rect fill="#FFFFFF" height="52.5938" rx="2.5" ry="2.5" style="stroke:#000000;stroke-width:1;" width="175.9072" x="712.05" y="379.4994"/><text fill="#000000" font-family="Arial" font-size="14" lengthAdjust="spacing" textLength="155.9072" x="722.05" y="402.4945">&#1575;&#1604;&#1605;&#1590;&#1582;&#1577; &#1575;&#1604;&#1603;&#1607;&#1585;&#1576;&#1575;&#1574;&#1610;&#1577; &#1575;&#1604;&#1585;&#1574;&#1610;&#1587;&#1610;&#1577;</text><text fill="#000000" font-family="Arial" font-size="14" lengthAdjust="spacing" textLength="107.0918" x="722.05" y="418.7914">(Electric Pump)</text></g><!--entity DieselPump--><g class="entity" data-qualified-name="..... .... ..........DieselPump" data-source-line="22" id="ent0012"><rect fill="#FFFFFF" height="52.5938" rx="2.5" ry="2.5" style="stroke:#000000;stroke-width:1;" width="158.4961" x="922.75" y="379.4994"/><text fill="#000000" font-family="Arial" font-size="14" lengthAdjust="spacing" textLength="138.4961" x="932.75" y="402.4945">&#1605;&#1590;&#1582;&#1577; &#1575;&#1604;&#1583;&#1610;&#1586;&#1604; &#1575;&#1604;&#1575;&#1581;&#1578;&#1610;&#1575;&#1591;&#1610;&#1577;</text><text fill="#000000" font-family="Arial" font-size="14" lengthAdjust="spacing" textLength="98.2939" x="932.75" y="418.7914">(Diesel Pump)</text></g><!--entity Sprinklers--><g class="entity" data-qualified-name=".........Sprinklers" data-source-line="26" id="ent0014"><rect fill="#FFFFFF" height="36.2969" rx="2.5" ry="2.5" style="stroke:#000000;stroke-width:1;" width="152.5146" x="723.74" y="537.0894"/><text fill="#000000" font-family="Arial" font-size="14" lengthAdjust="spacing" textLength="132.5146" x="733.74" y="560.0845">&#1588;&#1576;&#1603;&#1577; &#1585;&#1588;&#1575;&#1588;&#1575;&#1578; &#1575;&#1604;&#1581;&#1585;&#1610;&#1602;</text></g><!--link Power to Breakers--><g class="link" data-entity-1="ent0004" data-entity-2="ent0008" data-link-type="dependency" data-source-line="30" id="lnk15"><path d="M366.56,137.3694 C372.12,164.7094 381.6339,211.4298 387.2139,238.8598" fill="none" id="Power-to-Breakers" style="stroke:#000000;stroke-width:1;"/><polygon fill="#000000" points="388.41,244.7394,390.5356,235.1226,387.4133,239.8397,382.6962,236.7174,388.41,244.7394" style="stroke:#000000;stroke-width:1;"/><text fill="#000000" font-family="Arial" font-size="13" lengthAdjust="spacing" textLength="27.3013" x="378" y="190.2663">&#1578;&#1594;&#1584;&#1610;&#1577;</text></g><!--link Sensors to CPU--><g class="link" data-entity-1="ent0003" data-entity-2="ent0006" data-link-type="dependency" data-source-line="31" id="lnk16"><path d="M163.67,145.6994 C154.4,174.3994 141.5242,214.2898 133.5042,239.1198" fill="none" id="Sensors-to-CPU" style="stroke:#000000;stroke-width:1;"/><polygon fill="#000000" points="131.66,244.8294,138.2326,237.4945,133.1968,240.0714,130.6199,235.0356,131.66,244.8294" style="stroke:#000000;stroke-width:1;"/><text fill="#000000" font-family="Arial" font-size="13" lengthAdjust="spacing" textLength="119.1519" x="155" y="190.2663">&#1573;&#1588;&#1575;&#1585;&#1577; &#1575;&#1606;&#1582;&#1601;&#1575;&#1590; &#1575;&#1604;&#1590;&#1594;&#1591;</text></g><!--link CPU to Alarms--><g class="link" data-entity-1="ent0006" data-entity-2="ent0007" data-link-type="dependency" data-source-line="33" id="lnk17"><path d="M126,281.8494 C126,308.9094 126,354.5894 126,381.5094" fill="none" id="CPU-to-Alarms" style="stroke:#000000;stroke-width:1;"/><polygon fill="#000000" points="126,387.5094,130,378.5094,126,382.5094,122,378.5094,126,387.5094" style="stroke:#000000;stroke-width:1;"/><text fill="#000000" font-family="Arial" font-size="13" lengthAdjust="spacing" textLength="79.8218" x="127" y="324.5663">&#1578;&#1601;&#1593;&#1610;&#1604; &#1575;&#1604;&#1578;&#1606;&#1576;&#1610;&#1607;&#1575;&#1578;</text></g><!--link CPU to Breakers--><g class="link" data-entity-1="ent0006" data-entity-2="ent0008" data-link-type="dependency" data-source-line="34" id="lnk18"><path d="M225.43,263.3494 C259.22,263.3494 290.11,263.3494 320.56,263.3494" fill="none" id="CPU-to-Breakers" style="stroke:#000000;stroke-width:1;"/><polygon fill="#000000" points="326.56,263.3494,317.56,259.3494,321.56,263.3494,317.56,267.3494,326.56,263.3494" style="stroke:#000000;stroke-width:1;"/><text fill="#000000" font-family="Arial" font-size="13" lengthAdjust="spacing" textLength="65.0127" x="243.48" y="256.4163">&#1571;&#1605;&#1585; &#1575;&#1604;&#1578;&#1588;&#1594;&#1610;&#1604;</text></g><!--link Breakers to JockeyPump--><g class="link" data-entity-1="ent0008" data-entity-2="ent0010" data-link-type="dependency" data-source-line="36" id="lnk19"><path d="M417.3,281.8494 C452.69,306.3394 512.2858,347.5657 553.0758,375.7857" fill="none" id="Breakers-to-JockeyPump" style="stroke:#000000;stroke-width:1;"/><polygon fill="#000000" points="558.01,379.1994,552.8844,370.7893,553.8981,376.3546,548.3328,377.3683,558.01,379.1994" style="stroke:#000000;stroke-width:1;"/><text fill="#000000" font-family="Arial" font-size="13" lengthAdjust="spacing" textLength="123.9126" x="482" y="324.5663">&#1578;&#1588;&#1594;&#1610;&#1604; (&#1578;&#1587;&#1585;&#1610;&#1576; &#1576;&#1587;&#1610;&#1591;)</text></g><!--link Breakers to MainPump--><g class="link" data-entity-1="ent0008" data-entity-2="ent0011" data-link-type="dependency" data-source-line="37" id="lnk20"><path d="M457.5,272.0894 C520.65,281.3294 617.75,300.3194 695,336.4994 C720.01,348.2094 741.1505,361.646 761.0405,375.706" fill="none" id="Breakers-to-MainPump" style="stroke:#000000;stroke-width:1;"/><polygon fill="#000000" points="765.94,379.1694,760.8997,370.708,761.8571,376.2832,756.2818,377.2406,765.94,379.1694" style="stroke:#000000;stroke-width:1;"/><text fill="#000000" font-family="Arial" font-size="13" lengthAdjust="spacing" textLength="135.0146" x="672" y="324.5663">&#1578;&#1588;&#1594;&#1610;&#1604; (&#1581;&#1585;&#1610;&#1602;/&#1607;&#1576;&#1608;&#1591; &#1581;&#1575;&#1583;)</text></g><!--link Breakers to DieselPump--><g class="link" data-entity-1="ent0008" data-entity-2="ent0012" data-link-type="dependency" data-source-line="38" id="lnk21"><path d="M457.53,268.6794 C577.45,277.3894 827.02,299.4394 905,336.4994 C928.81,347.8194 948.3247,361.2047 966.6247,375.4447" fill="none" id="Breakers-to-DieselPump" style="stroke:#000000;stroke-width:1;"/><polygon fill="#000000" points="971.36,379.1294,966.7136,370.4454,967.4139,376.0588,961.8006,376.7591,971.36,379.1294" style="stroke:#000000;stroke-width:1;"/><text fill="#000000" font-family="Arial" font-size="13" lengthAdjust="spacing" textLength="154.0957" x="884" y="324.5663">&#1578;&#1588;&#1594;&#1610;&#1604; (&#1593;&#1606;&#1583; &#1575;&#1606;&#1602;&#1591;&#1575;&#1593; &#1575;&#1604;&#1603;&#1607;&#1585;&#1576;&#1575;&#1569;)</text></g><!--link JockeyPump to Sprinklers--><g class="link" data-entity-1="ent0010" data-entity-2="ent0014" data-link-type="dependency" data-source-line="40" id="lnk22"><path d="M630.71,432.4794 C672.23,462.3494 734.7986,507.3466 770.7486,533.1966" fill="none" id="JockeyPump-to-Sprinklers" style="stroke:#000000;stroke-width:1;"/><polygon fill="#000000" points="775.62,536.6994,770.6481,528.1976,771.5605,533.7804,765.9777,534.6928,775.62,536.6994" style="stroke:#000000;stroke-width:1;"/><text fill="#000000" font-family="Arial" font-size="13" lengthAdjust="spacing" textLength="53.3457" x="698" y="477.1563">&#1590;&#1582; &#1575;&#1604;&#1605;&#1610;&#1575;&#1607;</text></g><!--link MainPump to Sprinklers--><g class="link" data-entity-1="ent0011" data-entity-2="ent0014" data-link-type="dependency" data-source-line="41" id="lnk23"><path d="M800,432.4794 C800,462.3494 800,504.8494 800,530.6994" fill="none" id="MainPump-to-Sprinklers" style="stroke:#000000;stroke-width:1;"/><polygon fill="#000000" points="800,536.6994,804,527.6994,800,531.6994,796,527.6994,800,536.6994" style="stroke:#000000;stroke-width:1;"/><text fill="#000000" font-family="Arial" font-size="13" lengthAdjust="spacing" textLength="122.4399" x="801" y="477.1563">&#1590;&#1582; &#1575;&#1604;&#1605;&#1610;&#1575;&#1607; &#1576;&#1603;&#1601;&#1575;&#1569;&#1577; &#1593;&#1575;&#1604;&#1610;&#1577;</text></g><!--link DieselPump to Sprinklers--><g class="link" data-entity-1="ent0012" data-entity-2="ent0014" data-link-type="dependency" data-source-line="42" id="lnk24"><path d="M981.34,432.4494 C968.23,447.7294 950.33,466.8494 932,481.0894 C903.04,503.5994 871.667,520.7478 844.307,534.0378" fill="none" id="DieselPump-to-Sprinklers" style="stroke:#000000;stroke-width:1;"/><polygon fill="#000000" points="838.91,536.6594,848.7532,536.325,843.4075,534.4747,845.2578,529.129,838.91,536.6594" style="stroke:#000000;stroke-width:1;"/><text fill="#000000" font-family="Arial" font-size="13" lengthAdjust="spacing" textLength="104.749" x="951" y="477.1563">&#1590;&#1582; &#1575;&#1604;&#1605;&#1610;&#1575;&#1607; (&#1591;&#1608;&#1575;&#1585;&#1574;)</text></g><g class="footer" data-source-line="44"><text fill="#000000" font-family="Arial" font-size="10" lengthAdjust="spacing" textLength="135.1025" x="479.9487" y="619.6716">&#1585;&#1608;&#1575;&#1574;&#1593; &#1575;&#1604;&#1603;&#1585;&#1610;&#1587;&#1578;&#1575;&#1604; - &#1571;&#1606;&#1592;&#1605;&#1577; &#1575;&#1604;&#1587;&#1604;&#1575;&#1605;&#1577;</text></g><?plantuml-src ZLNBJjj05DtxAwPqqMGHTTz59UXZKT4g4kggT6650QmuTcGxGgZgeZnJ_W9La8SWneHYp9VC_4tFlJE9dGYrHO8mC_VSEVUSUoVFabtPaQBhkrxWn6qlwBgHsn6jiDCD0naa6yc-BqKaMuaRxFYo4hBbqQuN1iANsub8GX5vExj9DK9kkpq_UHy6oISNbwn6dkixJk8bIAcFrKJbAXVwH3seWJuM-aZtrRKQgB5GOtMj3sdlMDqZZlS6-WZ7cJxJ1xp0MQ76-9kgaQZXe8-uIrMOmqEAL5DamghkE5strNPtf5Ynq5HDa8yI4uwtCdmUgA4QhOXlZi3F5zmtHSoq972l7bM-6TIQaOpZNYJ5nfwNj7PbNFygt5Xio20EezYWaV8txiaCCkVi8yjEd-Aw8H46on5Zc-6UZ9pl5QfM4OEPQ_94xNISwXz8LyoEKtsYp-ehulawkRBcz-IiACwPpfXG8e9VbHiPnBibMgBMN7zZ2dlJ_6pHCxiOTO7b3QxDdb2HSQk-6tMi7Xnmm3Rb85f1N1ih6B4MIRSjeU624ePpnOQ9ARjiaFhSDRjdPRlIVSXs9ceVmbPRxjSt0w3GIIpNWr05bZyhvZ894zliTReLwjMqomwQ11alfhI17dddOq0YhoKeZv7n8yQipBf8D0NiLX-PnG3rZh41gMosjvwCfL_9PJOu6wGAmgsokITWSaMYb9ryfuQm5LTb-7V0luipPVgt6tb1sxVolp011V61f-MmSEMvmnqh6etNSzF4AvhTHtL3f1qx3Ho11gB32xuvCpMVO0R9XVkA_8v3aOsjS2y0ohGFPqLa0PvMdp70GonFYPM1BBBuHOqr6vmxzKXGnvb74ANIP4FRHg6nnXXvUZw60dMIdNbz4JhpSHbejNm9NaD8bGj-qD8bTEdSChv0MIbB0xtpSfxBRZl7MrOXJkbAqoWTZOPf0seVVUhCkVuxLb2Ji2Ndv12_3EnaXV5_PAcXQVjiyoNOjl0rWZRP3aFw-EixBHfa75uOc6UdOihDX-KV?></g></svg>