<?plantuml 1.2026.2beta3?><svg xmlns="http://www.w3.org/2000/svg" xmlns:xlink="http://www.w3.org/1999/xlink" contentStyleType="text/css" data-diagram-type="DESCRIPTION" height="939px" preserveAspectRatio="none" style="width:1084px;height:939px;background:#FFFFFF;" version="1.1" viewBox="0 0 1084 939" width="1084px" zoomAndPan="magnify"><title>&#1588;&#1585;&#1603;&#1575;&#1578; &#1605;&#1593;&#1578;&#1605;&#1583;&#1577; &#1604;&#1604;&#1583;&#1601;&#1575;&#1593; &#1575;&#1604;&#1605;&#1583;&#1606;&#1610;: &#1578;&#1585;&#1603;&#1610;&#1576; &#1608;&#1589;&#1610;&#1575;&#1606;&#1577; &#1571;&#1606;&#1592;&#1605;&#1577; &#1575;&#1604;&#1587;&#1604;&#1575;&#1605;&#1577;</title><defs/><g><rect fill="#FFFFCC" height="26.6406" rx="2.5" ry="2.5" style="stroke:#FFDD88;stroke-width:3;" width="1073.4819" x="5" y="5"/><text fill="#000000" font-family="monospace" font-size="10" lengthAdjust="spacing" textLength="355.21" x="10" y="20">Please&#160;use&#160;'!option&#160;handwritten&#160;true'&#160;to&#160;enable&#160;handwritten</text><g class="title" data-source-line="1"><text fill="#000000" font-family="Arial" font-size="14" font-weight="bold" lengthAdjust="spacing" textLength="410.9287" x="322.2766" y="59.6357">&#1588;&#1585;&#1603;&#1575;&#1578; &#1605;&#1593;&#1578;&#1605;&#1583;&#1577; &#1604;&#1604;&#1583;&#1601;&#1575;&#1593; &#1575;&#1604;&#1605;&#1583;&#1606;&#1610;: &#1578;&#1585;&#1603;&#1610;&#1576; &#1608;&#1589;&#1610;&#1575;&#1606;&#1577; &#1571;&#1606;&#1592;&#1605;&#1577; &#1575;&#1604;&#1587;&#1604;&#1575;&#1605;&#1577;</text></g><!--cluster Company--><g class="cluster" data-qualified-name="Company" data-source-line="6" id="ent0002"><polygon fill="none" points="484.5,197.2375,484.5,197.4477,494.3889,196.8232,504.2778,197.4308,514.1667,197.6372,524.0556,196.5241,533.9444,197.1598,543.8333,196.811,553.7222,196.854,563.6111,197.1693,573.5,196.5461,583.3889,197.7911,593.2778,196.6072,603.1667,197.0397,613.0556,197.6694,622.9444,197.1517,632.8333,197.3057,642.7222,197.2056,652.6111,197.416,662.5,197.4766,672.3889,197.8232,682.2778,197.9086,692.1667,197.9168,702.0556,197.4921,711.9444,197.7011,721.8333,197.9397,731.7222,196.5163,741.6111,197.916,751.5,196.941,761.3889,197.7713,771.2778,196.7425,781.1667,197.169,791.0556,197.9791,800.9444,197.1888,810.8333,197.3428,820.7222,197.5761,830.6111,197.6537,840.5,197.2375,840.4995,197.2363,840.8902,197.4724,841.1341,197.3541,841.5969,197.7644,841.9841,197.9921,842.2678,197.9697,842.4047,198.0264,842.603,198.4015,842.4119,198.6152,842.5063,198.9472,842.6622,199.3047,843,199.7375,842.9411,199.7375,842.8035,209.7055,843.6814,219.6736,842.8253,229.6416,842.6569,239.6096,843.2283,249.5777,842.3332,259.5457,842.4809,269.5137,843.649,279.4817,843.4357,289.4498,843.7345,299.4178,842.6782,309.3858,843.3192,319.3539,843.5904,329.3219,842.5276,339.2899,842.9041,349.258,843.126,359.226,843.6518,369.194,842.9958,379.162,843.4626,389.1301,842.4462,399.0981,842.3227,409.0661,843.5036,419.0342,842.2831,429.0022,843.509,438.9702,843.2066,448.9383,842.7321,458.9063,842.6462,468.8743,843.4588,478.8423,842.7007,488.8104,843.5919,498.7784,842.4473,508.7464,843.6174,518.7145,843.4843,528.6825,843.245,538.6505,843.0472,548.6186,843.7266,558.5866,843.6136,568.5546,843.1693,578.5227,843.2682,588.4907,842.8697,598.4587,843.7165,608.4267,843.1549,618.3948,843.1726,628.3628,842.3916,638.3308,842.5948,648.2989,843.5307,658.2669,843.4298,668.2349,842.9571,678.203,842.6778,688.171,842.7811,698.139,842.3138,708.107,843.4147,718.0751,843.7396,728.0431,843.5264,738.0111,843.6949,747.9792,842.8633,757.9472,843.0872,767.9152,842.6124,777.8833,843.284,787.8513,843.2468,797.8193,843.5524,807.7873,842.7703,817.7554,842.8656,827.7234,843.4435,837.6914,843.5673,847.6595,843,857.6275,842.8422,857.5621,842.7938,857.9563,842.7531,858.3536,842.3725,858.6102,842.523,859.0868,842.2678,859.3953,842.3007,859.4747,841.9014,859.5107,841.5788,859.732,841.3001,860.059,840.8136,859.8847,840.5,860.1275,840.5,860.4425,830.6111,860.4131,820.7222,860.2433,810.8333,860.2684,800.9444,860.241,791.0556,859.5033,781.1667,859.7267,771.2778,859.666,761.3889,860.1913,751.5,860.2156,741.6111,860.2892,731.7222,859.8365,721.8333,860.06,711.9444,860.0073,702.0556,860.7044,692.1667,860.5541,682.2778,859.642,672.3889,860.0546,662.5,859.5503,652.6111,860.4159,642.7222,860.736,632.8333,860.6721,622.9444,859.6919,613.0556,860.5915,603.1667,859.3847,593.2778,860.3277,583.3889,859.8282,573.5,860.2242,563.6111,860.3678,553.7222,860.5996,543.8333,859.4076,533.9444,860.603,524.0556,860.3057,514.1667,860.4828,504.2778,860.8753,494.3889,860.133,484.5,860.1275,484.5224,860.1815,484.1737,860.0468,483.8181,859.8953,483.4392,859.6879,483.1764,859.7606,482.7322,859.3953,482.5445,859.3175,482.7599,859.1138,482.2472,858.6086,482.1265,858.2657,482.1588,857.9862,482,857.6275,482.0283,857.6275,481.5072,847.6595,482.4137,837.6914,482.1089,827.7234,482.7267,817.7554,482.6671,807.7873,481.5517,797.8193,481.6021,787.8513,481.8708,777.8833,482.3555,767.9152,482.403,757.9472,482.3012,747.9792,481.658,738.0111,482.6364,728.0431,482.6338,718.0751,481.9527,708.107,481.7609,698.139,481.5986,688.171,481.7854,678.203,482.1374,668.2349,481.9316,658.2669,481.5822,648.2989,482.4874,638.3308,481.5411,628.3628,482.5024,618.3948,482.4272,608.4267,482.3719,598.4587,482.6925,588.4907,481.7541,578.5227,481.6994,568.5546,482.5189,558.5866,481.4031,548.6186,481.766,538.6505,482.1155,528.6825,482.0687,518.7145,481.6415,508.7464,481.957,498.7784,482.7446,488.8104,482.6485,478.8423,481.4037,468.8743,482.0785,458.9063,481.4861,448.9383,481.9737,438.9702,482.293,429.0022,482.4199,419.0342,481.3353,409.0661,482.4005,399.0981,482.0084,389.1301,481.4447,379.162,481.5289,369.194,482.3266,359.226,482.2499,349.258,481.9836,339.2899,481.3279,329.3219,482.6581,319.3539,481.6882,309.3858,481.4719,299.4178,481.9327,289.4498,482.5897,279.4817,482.6154,269.5137,482.0351,259.5457,481.8488,249.5777,482.1698,239.6096,482.1862,229.6416,481.4922,219.6736,482.414,209.7055,482,199.7375,482.1721,199.8088,482.08,199.3564,482.1607,198.9756,482.6471,198.7629,482.5923,198.326,482.7322,197.9697,482.7322,197.9697,483.1239,197.9154,483.357,197.478,483.8605,197.6936,484.1445,197.3792,484.5,197.2375" style="stroke:#181818;stroke-width:1;"/><text fill="#000000" font-family="Arial" font-size="14" font-weight="bold" lengthAdjust="spacing" textLength="113.3125" x="605.8438" y="212.2326">&#1575;&#1604;&#1588;&#1585;&#1603;&#1577; &#1575;&#1604;&#1605;&#1593;&#1578;&#1605;&#1583;&#1577;</text></g><!--cluster Systems--><g class="cluster" data-qualified-name="Systems" data-source-line="14" id="ent0008"><polygon fill="none" points="9.5,357.5375,9.5,357.7477,19.5,357.1232,29.5,357.7308,39.5,357.9372,49.5,356.8241,59.5,357.4598,69.5,357.111,79.5,357.154,89.5,357.4693,99.5,356.8461,109.5,358.0911,119.5,356.9072,129.5,357.3397,139.5,357.9694,149.5,357.4517,159.5,357.6057,169.5,357.5056,179.5,357.716,189.5,357.7766,199.5,358.1232,209.5,358.2086,219.5,358.2168,229.5,357.7921,239.5,358.0011,249.5,358.2397,259.5,356.8163,269.5,358.216,279.5,357.241,289.5,358.0713,299.5,357.0425,309.5,357.469,319.5,358.2791,329.5,357.4888,339.5,357.6428,349.5,357.8761,359.5,357.9537,369.5,357.5336,379.5,357.8247,389.5,356.9651,399.5,357.8219,409.5,358.0857,419.5,357.982,429.5,358.1505,439.5,357.5375,439.4384,357.3887,439.7704,357.4831,440.1278,357.639,440.5531,357.9587,440.8891,358.0628,441.2678,358.2697,441.4776,358.3567,441.3604,358.601,441.455,358.9331,441.7774,359.3595,441.6482,359.5989,442,360.0375,441.4809,360.0375,442.649,370.1679,442.4357,380.2984,442.7345,390.4288,441.6782,400.5592,442.3192,410.6897,442.5904,420.8201,441.5276,430.9505,441.9041,441.081,442.126,451.2114,442.6518,461.3418,441.9958,471.4723,442.4626,481.6027,441.4462,491.7332,441.3227,501.8636,442.5036,511.994,441.2831,522.1245,442.509,532.2549,442.2066,542.3853,441.7321,552.5158,441.6462,562.6462,442.4588,572.7766,441.7007,582.9071,442,593.0375,442.1823,593.113,441.6833,593.3205,441.8972,593.8234,441.7098,594.1599,441.4897,594.483,441.2678,594.8053,441.2738,594.8198,441.0069,595.1755,440.6389,595.2871,440.2287,595.2967,439.8878,595.4736,439.5,595.5375,439.5,595.4072,429.5,596.254,419.5,595.6924,409.5,595.7101,399.5,594.9291,389.5,595.1323,379.5,596.0682,369.5,595.9673,359.5,595.4946,349.5,595.2153,339.5,595.3186,329.5,594.8513,319.5,595.9522,309.5,596.2771,299.5,596.0639,289.5,596.2324,279.5,595.4008,269.5,595.6247,259.5,595.1499,249.5,595.8215,239.5,595.7843,229.5,596.0899,219.5,595.3078,209.5,595.4031,199.5,595.981,189.5,596.1048,179.5,595.025,169.5,595.3436,159.5,595.6868,149.5,594.9267,139.5,595.8909,129.5,595.7955,119.5,595.4367,109.5,595.6797,99.5,596.2662,89.5,595.2246,79.5,595.8525,69.5,595.8231,59.5,595.6533,49.5,595.6784,39.5,595.651,29.5,594.9133,19.5,595.1367,9.5,595.5375,9.4411,595.3954,9.1546,595.4107,8.8041,595.2717,8.46,595.148,8.0487,594.8621,7.7322,594.8053,7.7114,594.7967,7.5488,594.4364,7.617,594.1717,7.4243,593.799,6.9969,593.3291,7,593.0375,6.9271,593.0375,6.4228,582.9071,7.2884,572.7766,7.6085,562.6462,7.5446,552.5158,6.5644,542.3853,7.464,532.2549,6.2572,522.1245,7.2002,511.994,6.7007,501.8636,7.0967,491.7332,7.2403,481.6027,7.4721,471.4723,6.2801,461.3418,7.4755,451.2114,7.1782,441.081,7.3553,430.9505,7.7478,420.8201,7.0055,410.6897,7.1753,400.5592,7.2134,390.4288,7.1972,380.2984,6.9992,370.1679,7,360.0375,7.2189,360.1282,6.9587,359.6062,7.467,359.4025,7.2472,358.8972,7.4194,358.5544,7.7322,358.2697,7.7373,358.2821,8.0894,358.132,8.3765,357.8251,8.8457,357.9578,9.1603,357.7175,9.5,357.5375" style="stroke:#181818;stroke-width:1;"/><text fill="#000000" font-family="Arial" font-size="14" font-weight="bold" lengthAdjust="spacing" textLength="98.5332" x="175.2334" y="372.5326">&#1571;&#1606;&#1592;&#1605;&#1577; &#1575;&#1604;&#1587;&#1604;&#1575;&#1605;&#1577;</text></g><!--entity Assess--><g class="entity" data-qualified-name="Company.Assess" data-source-line="7" id="ent0003"><polygon fill="#F1F1F1" points="648.77,240.2375,648.77,240.4477,658.4975,239.8232,668.2251,240.4308,677.9526,240.6372,687.6802,239.5241,697.4077,240.1598,707.1352,239.811,716.8628,239.854,726.5903,240.1693,736.3179,239.5461,746.0454,240.7911,755.7729,239.6072,765.5005,240.0397,775.228,240.2375,775.2831,240.3705,775.5706,240.3575,775.9438,240.5514,776.2846,240.667,776.665,240.8783,776.9958,240.9697,777.0694,241.0002,777.3226,241.398,777.4953,241.7624,777.6443,242.117,777.66,242.4164,777.728,242.7375,777.8825,242.7375,777.9621,250.9969,777.4876,259.2563,777.9542,267.5156,777.6292,275.775,777.728,284.0344,777.8924,284.1025,777.4291,284.3248,777.414,284.7327,777.5171,285.1896,777.1272,285.4424,776.9958,285.8021,777.0092,285.8346,776.6854,286.0529,776.3418,286.2232,775.9346,286.2403,775.6182,286.4764,775.228,286.5344,775.228,285.962,765.5005,286.8188,755.7729,287.0826,746.0454,286.9789,736.3179,287.1474,726.5903,286.0513,716.8628,285.8822,707.1352,285.913,697.4077,286.4755,687.6802,286.3378,677.9526,287.2158,668.2251,286.3597,658.4975,286.1913,648.77,286.5344,648.7991,286.6047,648.3314,286.1826,647.9967,286.0816,647.7921,286.2949,647.4114,286.0828,647.0022,285.8021,647.2284,285.8958,646.7567,285.4075,646.8076,285.1358,646.7447,284.8168,646.271,284.3277,646.27,284.0344,646.238,284.0344,646.312,275.775,646.4873,267.5156,646.2686,259.2563,646.4242,250.9969,646.27,242.7375,646.0995,242.6669,646.2079,242.2976,646.718,242.0946,646.4886,241.5854,647.0125,241.3882,647.0022,240.9697,647.0286,241.0334,647.3216,240.7408,647.6642,240.5679,648.1214,240.6717,648.3783,240.2918,648.77,240.2375" style="stroke:#181818;stroke-width:0.5;"/><polygon fill="#F1F1F1" points="757.728,245.2375,757.728,245.3076,760.728,245.0994,763.728,245.3019,766.728,245.3707,769.728,244.9997,772.728,245.2375,772.7021,245.2375,772.5858,247.2375,772.6002,249.2375,772.7053,251.2375,772.4976,253.2375,772.728,255.2375,772.728,255.422,769.728,255.0274,766.728,255.1716,763.728,255.3815,760.728,255.2089,757.728,255.2375,757.7508,255.2375,757.7174,253.2375,757.7875,251.2375,757.8077,249.2375,757.9232,247.2375,757.728,245.2375" style="stroke:#181818;stroke-width:0.5;"/><polygon fill="#F1F1F1" points="755.728,247.2375,755.728,247.3076,756.528,247.0994,757.328,247.3019,758.128,247.3707,758.928,246.9997,759.728,247.2375,759.7021,247.2375,759.5858,247.6375,759.6002,248.0375,759.7053,248.4375,759.4976,248.8375,759.728,249.2375,759.728,249.422,758.928,249.0274,758.128,249.1716,757.328,249.3815,756.528,249.2089,755.728,249.2375,755.7508,249.2375,755.7174,248.8375,755.7875,248.4375,755.8077,248.0375,755.9232,247.6375,755.728,247.2375" style="stroke:#181818;stroke-width:0.5;"/><polygon fill="#F1F1F1" points="755.728,251.2375,755.728,251.3076,756.528,251.0994,757.328,251.3019,758.128,251.3707,758.928,250.9997,759.728,251.2375,759.7021,251.2375,759.5858,251.6375,759.6002,252.0375,759.7053,252.4375,759.4976,252.8375,759.728,253.2375,759.728,253.422,758.928,253.0274,758.128,253.1716,757.328,253.3815,756.528,253.2089,755.728,253.2375,755.7508,253.2375,755.7174,252.8375,755.7875,252.4375,755.8077,252.0375,755.9232,251.6375,755.728,251.2375" style="stroke:#181818;stroke-width:0.5;"/><text fill="#000000" font-family="Arial" font-size="14" lengthAdjust="spacing" textLength="91.458" x="661.27" y="273.2326">&#1578;&#1602;&#1610;&#1610;&#1605; &#1575;&#1604;&#1605;&#1578;&#1591;&#1604;&#1576;&#1575;&#1578;</text></g><!--entity Design--><g class="entity" data-qualified-name="Company.Design" data-source-line="8" id="ent0004"><polygon fill="#F1F1F1" points="633.04,402.0675,633.04,402.2777,643.3964,401.6532,653.7529,402.2608,664.1093,402.4672,674.4658,401.3541,684.8222,401.9898,695.1787,401.641,705.5351,401.684,715.8916,401.9993,726.248,401.3761,736.6045,402.6211,746.9609,402.0675,746.8805,401.8734,747.2892,402.153,747.7231,402.4934,748.0106,402.4804,748.3838,402.6743,748.7287,402.7997,748.7188,402.7957,748.9301,403.1761,749.0952,403.5373,749.3484,403.9351,749.5211,404.2995,749.4609,404.5675,749.6873,404.5675,749.5458,412.8269,749.6154,421.0863,749.695,429.3456,749.2205,437.605,749.4609,445.8644,749.6699,445.9509,749.2231,446.1801,749.3324,446.6396,748.8691,446.8619,748.854,447.2699,748.7287,447.6321,748.8233,447.8605,748.3689,447.7636,748.035,447.9575,747.7112,448.1758,747.3675,448.3461,746.9609,448.3644,746.9609,448.3605,736.6045,448.6516,726.248,447.792,715.8916,448.6488,705.5351,448.9126,695.1787,448.8089,684.8222,448.9774,674.4658,447.8813,664.1093,447.7122,653.7529,447.743,643.3964,448.3055,633.04,448.3644,633.0149,448.3039,632.7734,448.4278,632.3106,448.0177,631.9356,447.8194,631.6549,447.8489,631.2722,447.6321,631.0669,447.5471,630.9659,447.2124,631.1792,447.0078,630.9671,446.6271,630.9126,446.3116,630.54,445.8644,630.4327,445.8644,630.6464,437.605,630.7368,429.3456,630.3825,421.0863,630.508,412.8269,630.54,404.5675,630.5788,404.5836,630.8872,404.2971,630.8316,403.8599,631.1218,403.5658,630.9552,403.0826,631.2722,402.7997,631.1858,402.5912,631.69,402.8084,631.8879,402.2861,632.3978,402.5171,632.7128,402.2776,633.04,402.0675" style="stroke:#181818;stroke-width:0.5;"/><polygon fill="#F1F1F1" points="729.4609,407.0675,729.4609,407.1376,732.4609,406.9294,735.4609,407.1319,738.4609,407.2007,741.4609,406.8297,744.4609,407.0675,744.435,407.0675,744.3187,409.0675,744.3331,411.0675,744.4382,413.0675,744.2304,415.0675,744.4609,417.0675,744.4609,417.252,741.4609,416.8574,738.4609,417.0016,735.4609,417.2115,732.4609,417.0389,729.4609,417.0675,729.4836,417.0675,729.4502,415.0675,729.5204,413.0675,729.5406,411.0675,729.6561,409.0675,729.4609,407.0675" style="stroke:#181818;stroke-width:0.5;"/><polygon fill="#F1F1F1" points="727.4609,409.0675,727.4609,409.1376,728.2609,408.9294,729.0609,409.1319,729.8609,409.2007,730.6609,408.8297,731.4609,409.0675,731.435,409.0675,731.3187,409.4675,731.3331,409.8675,731.4382,410.2675,731.2304,410.6675,731.4609,411.0675,731.4609,411.252,730.6609,410.8574,729.8609,411.0016,729.0609,411.2115,728.2609,411.0389,727.4609,411.0675,727.4836,411.0675,727.4502,410.6675,727.5204,410.2675,727.5406,409.8675,727.6561,409.4675,727.4609,409.0675" style="stroke:#181818;stroke-width:0.5;"/><polygon fill="#F1F1F1" points="727.4609,413.0675,727.4609,413.1376,728.2609,412.9294,729.0609,413.1319,729.8609,413.2007,730.6609,412.8297,731.4609,413.0675,731.435,413.0675,731.3187,413.4675,731.3331,413.8675,731.4382,414.2675,731.2304,414.6675,731.4609,415.0675,731.4609,415.252,730.6609,414.8574,729.8609,415.0016,729.0609,415.2115,728.2609,415.0389,727.4609,415.0675,727.4836,415.0675,727.4502,414.6675,727.5204,414.2675,727.5406,413.8675,727.6561,413.4675,727.4609,413.0675" style="stroke:#181818;stroke-width:0.5;"/><text fill="#000000" font-family="Arial" font-size="14" lengthAdjust="spacing" textLength="78.9209" x="645.54" y="435.0626">&#1578;&#1589;&#1605;&#1610;&#1605; &#1575;&#1604;&#1606;&#1592;&#1575;&#1605;</text></g><!--entity Install--><g class="entity" data-qualified-name="Company.Install" data-source-line="9" id="ent0005"><polygon fill="#F1F1F1" points="596.26,526.8975,596.26,527.1077,606.4772,526.4832,616.6943,527.0908,626.9115,527.2972,637.1287,526.1841,647.3458,526.8198,657.563,526.471,667.7801,526.514,677.9973,526.8293,688.2145,526.2061,698.4316,527.4511,708.6488,526.2672,718.866,526.6997,729.0831,527.3294,739.3003,526.8117,749.5174,526.9657,759.7346,526.8975,759.7305,526.8877,760.1109,527.0989,760.4722,527.264,760.87,527.5172,761.2344,527.6899,761.5024,527.6297,761.7116,527.7164,761.7272,528.0158,761.938,528.396,762.158,528.78,761.8661,528.952,762.2346,529.3975,762.4608,529.3975,762.1358,537.6569,762.4125,545.9163,762.0696,554.1756,762.2118,562.435,762.2346,570.6944,762.463,570.789,762.0732,571.0417,761.9741,571.4149,761.8996,571.7982,761.777,572.1617,761.5024,572.4621,761.5019,572.4609,761.1855,572.697,760.7223,572.5788,760.478,572.9891,760.1581,573.2168,759.7346,573.1944,759.7346,573.6389,749.5174,573.8074,739.3003,572.7113,729.0831,572.5422,718.866,572.573,708.6488,573.1355,698.4316,572.9978,688.2145,573.8758,677.9973,573.0197,667.7801,572.8513,657.563,573.4226,647.3458,572.5275,637.1287,572.6752,626.9115,573.8433,616.6943,573.63,606.4772,573.9289,596.26,573.1944,596.219,573.0953,595.9472,573.1462,595.6282,573.0833,595.1391,572.6096,594.8336,572.5791,594.4922,572.4621,594.531,572.4782,594.5465,572.1917,594.198,571.7545,594.1953,571.4605,593.7359,570.9773,593.76,570.6944,593.5342,570.6944,593.9279,562.435,593.521,554.1756,593.9297,545.9163,593.8289,537.6569,593.76,529.3975,593.6775,529.3633,593.7975,528.9988,594.1942,528.7489,594.1072,528.2987,594.5281,528.0588,594.4922,527.6297,594.4217,527.4595,594.9245,527.6734,595.2611,527.486,595.5841,527.2658,595.9125,527.0585,596.26,526.8975" style="stroke:#181818;stroke-width:0.5;"/><polygon fill="#F1F1F1" points="742.2346,531.8975,742.2346,531.9676,745.2346,531.7594,748.2346,531.9619,751.2346,532.0307,754.2346,531.6597,757.2346,531.8975,757.2087,531.8975,757.0924,533.8975,757.1068,535.8975,757.2119,537.8975,757.0042,539.8975,757.2346,541.8975,757.2346,542.082,754.2346,541.6874,751.2346,541.8316,748.2346,542.0415,745.2346,541.8689,742.2346,541.8975,742.2574,541.8975,742.224,539.8975,742.2941,537.8975,742.3143,535.8975,742.4298,533.8975,742.2346,531.8975" style="stroke:#181818;stroke-width:0.5;"/><polygon fill="#F1F1F1" points="740.2346,533.8975,740.2346,533.9676,741.0346,533.7594,741.8346,533.9619,742.6346,534.0307,743.4346,533.6597,744.2346,533.8975,744.2087,533.8975,744.0924,534.2975,744.1068,534.6975,744.2119,535.0975,744.0042,535.4975,744.2346,535.8975,744.2346,536.082,743.4346,535.6874,742.6346,535.8316,741.8346,536.0415,741.0346,535.8689,740.2346,535.8975,740.2574,535.8975,740.224,535.4975,740.2941,535.0975,740.3143,534.6975,740.4298,534.2975,740.2346,533.8975" style="stroke:#181818;stroke-width:0.5;"/><polygon fill="#F1F1F1" points="740.2346,537.8975,740.2346,537.9676,741.0346,537.7594,741.8346,537.9619,742.6346,538.0307,743.4346,537.6597,744.2346,537.8975,744.2087,537.8975,744.0924,538.2975,744.1068,538.6975,744.2119,539.0975,744.0042,539.4975,744.2346,539.8975,744.2346,540.082,743.4346,539.6874,742.6346,539.8316,741.8346,540.0415,741.0346,539.8689,740.2346,539.8975,740.2574,539.8975,740.224,539.4975,740.2941,539.0975,740.3143,538.6975,740.4298,538.2975,740.2346,537.8975" style="stroke:#181818;stroke-width:0.5;"/><text fill="#000000" font-family="Arial" font-size="14" lengthAdjust="spacing" textLength="128.4746" x="608.76" y="559.8926">&#1578;&#1608;&#1585;&#1610;&#1583; &#1608;&#1578;&#1585;&#1603;&#1610;&#1576; &#1575;&#1604;&#1605;&#1593;&#1583;&#1575;&#1578;</text></g><!--entity Test--><g class="entity" data-qualified-name="Company.Test" data-source-line="10" id="ent0006"><polygon fill="#F1F1F1" points="614.18,666.5375,614.18,666.7477,623.9985,666.1232,633.817,666.7308,643.6355,666.9372,653.454,665.8241,663.2725,666.4598,673.0911,666.111,682.9096,666.154,692.7281,666.4693,702.5466,665.8461,712.3651,667.0911,722.1836,665.9072,732.0021,666.3397,741.8206,666.5375,741.8757,666.6705,742.1632,666.6575,742.5364,666.8514,742.8772,666.967,743.2576,667.1783,743.5884,667.2697,743.662,667.3002,743.9152,667.698,744.0879,668.0624,744.2369,668.417,744.2526,668.7164,744.3206,669.0375,744.4752,669.0375,744.5547,677.2969,744.0802,685.5563,744.5468,693.8156,744.2218,702.075,744.3206,710.3344,744.485,710.4025,744.0217,710.6248,744.0066,711.0327,744.1097,711.4896,743.7198,711.7424,743.5884,712.1021,743.6018,712.1346,743.278,712.3529,742.9344,712.5232,742.5272,712.5403,742.2108,712.7764,741.8206,712.8344,741.8206,712.262,732.0021,713.1188,722.1836,713.3826,712.3651,713.2789,702.5466,713.4474,692.7281,712.3513,682.9096,712.1822,673.0911,712.213,663.2725,712.7755,653.454,712.6378,643.6355,713.5158,633.817,712.6597,623.9985,712.4913,614.18,712.8344,614.2091,712.9047,613.7414,712.4826,613.4067,712.3816,613.2021,712.5949,612.8214,712.3828,612.4122,712.1021,612.6384,712.1958,612.1667,711.7075,612.2176,711.4358,612.1547,711.1168,611.681,710.6277,611.68,710.3344,611.648,710.3344,611.722,702.075,611.8973,693.8156,611.6786,685.5563,611.8342,677.2969,611.68,669.0375,611.5095,668.9669,611.6179,668.5976,612.128,668.3946,611.8986,667.8854,612.4225,667.6882,612.4122,667.2697,612.4386,667.3334,612.7316,667.0408,613.0742,666.8679,613.5314,666.9717,613.7883,666.5918,614.18,666.5375" style="stroke:#181818;stroke-width:0.5;"/><polygon fill="#F1F1F1" points="724.3206,671.5375,724.3206,671.6076,727.3206,671.3994,730.3206,671.6019,733.3206,671.6707,736.3206,671.2997,739.3206,671.5375,739.2947,671.5375,739.1785,673.5375,739.1928,675.5375,739.2979,677.5375,739.0902,679.5375,739.3206,681.5375,739.3206,681.722,736.3206,681.3274,733.3206,681.4716,730.3206,681.6815,727.3206,681.5089,724.3206,681.5375,724.3434,681.5375,724.31,679.5375,724.3801,677.5375,724.4003,675.5375,724.5159,673.5375,724.3206,671.5375" style="stroke:#181818;stroke-width:0.5;"/><polygon fill="#F1F1F1" points="722.3206,673.5375,722.3206,673.6076,723.1206,673.3994,723.9206,673.6019,724.7206,673.6707,725.5206,673.2997,726.3206,673.5375,726.2947,673.5375,726.1785,673.9375,726.1928,674.3375,726.2979,674.7375,726.0902,675.1375,726.3206,675.5375,726.3206,675.722,725.5206,675.3274,724.7206,675.4716,723.9206,675.6815,723.1206,675.5089,722.3206,675.5375,722.3434,675.5375,722.31,675.1375,722.3801,674.7375,722.4003,674.3375,722.5159,673.9375,722.3206,673.5375" style="stroke:#181818;stroke-width:0.5;"/><polygon fill="#F1F1F1" points="722.3206,677.5375,722.3206,677.6076,723.1206,677.3994,723.9206,677.6019,724.7206,677.6707,725.5206,677.2997,726.3206,677.5375,726.2947,677.5375,726.1785,677.9375,726.1928,678.3375,726.2979,678.7375,726.0902,679.1375,726.3206,679.5375,726.3206,679.722,725.5206,679.3274,724.7206,679.4716,723.9206,679.6815,723.1206,679.5089,722.3206,679.5375,722.3434,679.5375,722.31,679.1375,722.3801,678.7375,722.4003,678.3375,722.5159,677.9375,722.3206,677.5375" style="stroke:#181818;stroke-width:0.5;"/><text fill="#000000" font-family="Arial" font-size="14" lengthAdjust="spacing" textLength="92.6406" x="626.68" y="699.5326">&#1575;&#1604;&#1601;&#1581;&#1589; &#1608;&#1575;&#1604;&#1575;&#1582;&#1578;&#1576;&#1575;&#1585;</text></g><!--entity Maintenance--><g class="entity" data-qualified-name="Company.Maintenance" data-source-line="11" id="ent0007"><polygon fill="#F1F1F1" points="562.97,789.8275,562.97,790.0377,572.9755,789.4132,582.9811,790.0208,592.9866,790.2272,602.9921,789.1141,612.9977,789.7498,623.0032,789.401,633.0087,789.444,643.0143,789.7593,653.0198,789.1361,663.0253,790.3811,673.0309,789.1972,683.0364,789.8275,683.0112,789.7666,683.4451,790.107,683.7326,790.094,684.1058,790.2879,684.4465,790.4034,684.8042,790.5597,684.8592,790.5825,685.0243,790.9438,685.2774,791.3416,685.4502,791.706,685.5991,792.0606,685.5364,792.3275,685.6213,792.3275,685.6909,800.5869,685.7705,808.8463,685.296,817.1056,685.7626,825.365,685.5364,833.6244,685.4451,833.5866,685.5544,834.046,685.0911,834.2683,685.076,834.6763,685.179,835.1332,684.8042,835.3921,684.798,835.3771,684.4641,835.571,684.1403,835.7893,683.7966,835.9597,683.3895,835.9767,683.0364,836.1244,683.0364,836.4116,673.0309,835.552,663.0253,836.4088,653.0198,836.6726,643.0143,836.5689,633.0087,836.7374,623.0032,835.6413,612.9977,835.4722,602.9921,835.503,592.9866,836.0655,582.9811,835.9278,572.9755,836.8058,562.97,836.1244,562.9477,836.0706,562.5727,835.8723,562.292,835.9018,561.8243,835.4797,561.4896,835.3787,561.2022,835.3921,561.4021,835.4749,561.19,835.0942,561.1355,834.7787,560.6638,834.2904,560.7147,834.0186,560.47,833.6244,560.6668,833.6244,560.3125,825.365,560.438,817.1056,560.512,808.8463,560.6873,800.5869,560.47,792.3275,560.4687,792.327,560.7589,792.033,560.5923,791.5498,560.7008,791.1804,561.2109,790.9775,561.2022,790.5597,561.1108,790.3389,561.6207,790.57,561.9357,790.3305,562.2287,790.0379,562.5713,789.865,562.97,789.8275" style="stroke:#181818;stroke-width:0.5;"/><polygon fill="#F1F1F1" points="665.5364,794.8275,665.5364,794.8976,668.5364,794.6894,671.5364,794.8919,674.5364,794.9607,677.5364,794.5897,680.5364,794.8275,680.5105,794.8275,680.3942,796.8275,680.4086,798.8275,680.5137,800.8275,680.3059,802.8275,680.5364,804.8275,680.5364,805.012,677.5364,804.6174,674.5364,804.7616,671.5364,804.9715,668.5364,804.7989,665.5364,804.8275,665.5592,804.8275,665.5258,802.8275,665.5959,800.8275,665.6161,798.8275,665.7316,796.8275,665.5364,794.8275" style="stroke:#181818;stroke-width:0.5;"/><polygon fill="#F1F1F1" points="663.5364,796.8275,663.5364,796.8976,664.3364,796.6894,665.1364,796.8919,665.9364,796.9607,666.7364,796.5897,667.5364,796.8275,667.5105,796.8275,667.3942,797.2275,667.4086,797.6275,667.5137,798.0275,667.3059,798.4275,667.5364,798.8275,667.5364,799.012,666.7364,798.6174,665.9364,798.7616,665.1364,798.9715,664.3364,798.7989,663.5364,798.8275,663.5592,798.8275,663.5258,798.4275,663.5959,798.0275,663.6161,797.6275,663.7316,797.2275,663.5364,796.8275" style="stroke:#181818;stroke-width:0.5;"/><polygon fill="#F1F1F1" points="663.5364,800.8275,663.5364,800.8976,664.3364,800.6894,665.1364,800.8919,665.9364,800.9607,666.7364,800.5897,667.5364,800.8275,667.5105,800.8275,667.3942,801.2275,667.4086,801.6275,667.5137,802.0275,667.3059,802.4275,667.5364,802.8275,667.5364,803.012,666.7364,802.6174,665.9364,802.7616,665.1364,802.9715,664.3364,802.7989,663.5364,802.8275,663.5592,802.8275,663.5258,802.4275,663.5959,802.0275,663.6161,801.6275,663.7316,801.2275,663.5364,800.8275" style="stroke:#181818;stroke-width:0.5;"/><text fill="#000000" font-family="Arial" font-size="14" lengthAdjust="spacing" textLength="85.0664" x="575.47" y="822.8226">&#1575;&#1604;&#1589;&#1610;&#1575;&#1606;&#1577; &#1575;&#1604;&#1583;&#1608;&#1585;&#1610;&#1577;</text></g><!--entity Alarm--><g class="entity" data-qualified-name="Systems.Alarm" data-source-line="15" id="ent0009"><polygon fill="#F1F1F1" points="140.0814,427.4117,138.9812,429.8696,134.782,431.7399,129.9639,433.6031,125.9863,435.7672,118.4819,437.0011,111.6261,438.327,103.5795,439.1825,94.7138,439.5923,87.0143,440.0125,76.5713,439.3515,69.9073,439.278,61.2886,438.2384,52.9959,436.8037,47.1853,435.5241,41.347,433.7315,36.9791,431.8271,33.3631,429.64,31.2568,427.4005,30.0699,424.9943,30.6225,422.6892,32.6278,420.47,36.5582,418.5289,40.7665,416.5048,46.0281,414.6794,54.6893,413.7506,60.0018,412.0177,69.4172,411.5232,76.6004,410.6696,86.726,410.8892,94.7143,410.9028,101.9272,411.1211,111.0714,412.2994,118.2131,413.4305,124.4414,414.8202,129.9396,416.5231,135.0716,418.6291,137.951,420.6218,141.2307,423.1708,140.6504,425.111" style="stroke:#181818;stroke-width:0.5;"/><text fill="#000000" font-family="Arial" font-size="14" lengthAdjust="spacing" textLength="73.6367" x="49.1807" y="429.8696">&#1571;&#1606;&#1592;&#1605;&#1577; &#1575;&#1604;&#1573;&#1606;&#1584;&#1575;&#1585;</text></g><!--entity FireSuppression--><g class="entity" data-qualified-name="Systems.FireSuppression" data-source-line="16" id="ent0010"><polygon fill="#F1F1F1" points="396.4102,428.9418,394.1845,433.1189,385.6893,436.2971,375.9418,439.4636,367.895,443.1412,352.7131,445.2381,338.8434,447.4913,322.5645,448.9452,304.6287,449.6417,289.0521,450.3558,267.9253,449.2325,254.4436,449.1076,237.0074,447.3408,220.2308,444.9027,208.4755,442.7281,196.6643,439.6817,187.8277,436.4454,180.5123,432.7287,176.2512,428.9228,173.85,424.8336,174.968,420.9164,179.0247,417.145,186.9763,413.8463,195.4898,410.4065,206.1344,407.3044,223.6566,405.7259,234.4041,402.7811,253.452,401.9407,267.9842,400.49,288.4688,400.8633,304.6297,400.8865,319.2219,401.2574,337.7212,403.2597,352.1694,405.182,364.7696,407.5437,375.8927,410.4377,386.2751,414.0165,392.1003,417.403,398.7353,421.7348,397.5614,425.032" style="stroke:#181818;stroke-width:0.5;"/><text fill="#000000" font-family="Arial" font-size="14" lengthAdjust="spacing" textLength="200.9219" x="186.5372" y="429.8676">&#1571;&#1606;&#1592;&#1605;&#1577; &#1575;&#1604;&#1573;&#1591;&#1601;&#1575;&#1569; (&#1585;&#1588;&#1575;&#1588;&#1575;&#1578;&#1548; &#1591;&#1601;&#1575;&#1610;&#1575;&#1578;)</text></g><!--entity Evac--><g class="entity" data-qualified-name="Systems.Evac" data-source-line="17" id="ent0011"><polygon fill="#F1F1F1" points="219.7336,553.2881,217.8267,556.9249,210.5486,559.6921,202.1976,562.449,195.3037,565.6509,182.2968,567.4767,170.4143,569.4384,156.4676,570.7042,141.1015,571.3107,127.7565,571.9324,109.6565,570.9544,98.1063,570.8456,83.1682,569.3074,68.7952,567.1846,58.724,565.2913,48.605,562.6389,41.0344,559.8211,34.7671,556.5851,31.1165,553.2715,29.0593,549.7112,30.0171,546.3006,33.4926,543.017,40.305,540.145,47.5988,537.1501,56.7184,534.4492,71.7302,533.0749,80.9379,530.5109,97.2568,529.7792,109.707,528.5162,127.2568,528.8412,141.1023,528.8613,153.6039,529.1843,169.4528,530.9276,181.831,532.6013,192.626,534.6575,202.1555,537.1772,211.0505,540.2931,216.0411,543.2417,221.7255,547.0132,220.7198,549.8839" style="stroke:#181818;stroke-width:0.5;"/><text fill="#000000" font-family="Arial" font-size="14" lengthAdjust="spacing" textLength="165.9697" x="43.012" y="554.6953">&#1605;&#1593;&#1583;&#1575;&#1578; &#1575;&#1604;&#1573;&#1582;&#1604;&#1575;&#1569; (&#1573;&#1606;&#1575;&#1585;&#1577;&#1548; &#1604;&#1575;&#1601;&#1578;&#1575;&#1578;)</text></g><!--entity CivilDefense--><g class="entity" data-qualified-name="CivilDefense" data-source-line="20" id="ent0012"><polygon fill="#F1F1F1" points="869.02,794.8275,869.02,795.0377,879.1233,794.4132,889.2265,795.0208,899.3298,795.2272,909.433,794.1141,919.5363,794.7498,929.6396,794.401,939.7428,794.444,949.8461,794.7593,959.9493,794.1361,970.0526,795.3811,980.1558,794.1972,990.2591,794.6297,1000.3624,795.2594,1010.4656,794.7417,1020.5689,794.8957,1030.6721,794.7956,1040.7754,795.006,1050.8787,795.0666,1060.9819,794.8275,1061.0566,795.0079,1061.4211,795.1806,1061.7757,795.3296,1062.0751,795.3453,1062.4553,795.5561,1062.7497,795.5597,1062.9659,795.6493,1062.674,795.8213,1063.2515,796.3534,1063.0977,796.5826,1063.4999,797.042,1063.4819,797.3275,1063.3169,797.3275,1063.4591,803.5869,1063.7291,809.8463,1063.4657,816.1056,1063.517,822.365,1063.4819,828.6244,1063.5862,828.6676,1063.4636,829.031,1063.1878,829.331,1063.131,829.7217,1062.7198,829.9656,1062.7497,830.3921,1062.786,830.4797,1062.4661,830.7074,1062.0993,830.8219,1061.7672,831.0203,1061.2738,830.8292,1060.9819,831.1244,1060.9819,830.4722,1050.8787,830.503,1040.7754,831.0655,1030.6721,830.9278,1020.5689,831.8058,1010.4656,830.9497,1000.3624,830.7813,990.2591,831.3526,980.1558,830.4575,970.0526,830.6052,959.9493,831.7733,949.8461,831.56,939.7428,831.8589,929.6396,830.8026,919.5363,831.4436,909.433,831.7148,899.3298,830.652,889.2265,831.0285,879.1233,831.2504,869.02,831.1244,869.1031,831.3251,868.6659,830.9766,868.3719,830.9739,867.8887,830.5145,867.5194,830.33,867.2522,830.3921,867.4073,830.4564,866.885,829.9471,867.1161,829.75,866.8765,829.3578,866.5839,828.9438,866.52,828.6244,866.4021,828.6244,866.6729,822.365,866.4202,816.1056,866.7173,809.8463,866.3358,803.5869,866.52,797.3275,866.7101,797.4063,866.8156,797.0357,866.8883,796.6516,866.9739,796.2729,867.3296,796.006,867.2522,795.5597,867.3305,795.7487,867.6274,795.4654,867.9936,795.3494,868.2963,795.0803,868.7578,795.1946,869.02,794.8275" style="stroke:#181818;stroke-width:0.5;"/><text fill="#000000" font-family="Arial" font-size="14" lengthAdjust="spacing" textLength="176.9619" x="876.52" y="817.8226">&#1575;&#1604;&#1583;&#1601;&#1575;&#1593; &#1575;&#1604;&#1605;&#1583;&#1606;&#1610; (&#1575;&#1604;&#1580;&#1607;&#1577; &#1575;&#1604;&#1605;&#1606;&#1592;&#1605;&#1577;)</text></g><!--entity Client--><g class="entity" data-qualified-name="Client" data-source-line="22" id="ent0013"><polygon fill="#F1F1F1" points="714.54,89.9375,714.5895,89.987,716.4423,87.8398,718.5856,85.9831,720.6342,84.0317,722.3719,81.7694,724.54,79.9375,724.54,79.8598,734.4413,79.511,744.3426,79.554,754.2438,79.8693,764.1451,79.2461,774.0464,80.4911,783.9477,79.3072,793.8489,79.7397,803.7502,80.3694,813.6515,79.8517,823.5528,80.0057,833.4541,79.9375,833.4434,79.9375,833.5136,87.1969,833.5338,94.4563,833.6493,101.7156,833.6777,108.975,833.4541,116.2344,833.6142,116.3945,831.5141,118.2944,829.5633,120.3436,827.6196,122.3999,825.2841,124.0644,823.4541,126.2344,823.4541,126.9129,813.5528,125.9379,803.6515,126.7682,793.7502,125.7394,783.8489,126.1659,773.9477,126.976,764.0464,126.1856,754.1451,126.3397,744.2438,126.573,734.3426,126.6506,724.4413,126.2305,714.54,126.2344,714.6357,126.2344,714.3492,118.975,714.6348,111.7156,714.7227,104.4563,714.6882,97.1969,714.54,89.9375" style="stroke:#181818;stroke-width:0.5;"/><path d="M823.4541,89.9375 L823.5201,90.0036 L825.3239,87.8073 L827.5148,85.9982 L829.5797,84.0631 L831.2299,81.7133 L833.4541,79.9375" fill="#F1F1F1" style="stroke:#181818;stroke-width:0.5;"/><path d="M714.54,89.9375 L714.54,90.2177 L724.4413,89.3851 L734.3426,90.1952 L744.2438,90.4704 L754.1451,88.9863 L764.0464,89.8339 L773.9477,89.3688 L783.8489,89.4262 L793.7502,89.8466 L803.6515,89.0157 L813.5528,90.6757 L823.4541,89.9375" fill="#F1F1F1" style="stroke:#181818;stroke-width:0.5;"/><path d="M823.4541,89.9375 L823.5475,89.9375 L823.2699,97.1969 L823.54,104.4563 L823.6317,111.7156 L823.137,118.975 L823.4541,126.2344" fill="#F1F1F1" style="stroke:#181818;stroke-width:0.5;"/><text fill="#000000" font-family="Arial" font-size="14" lengthAdjust="spacing" textLength="78.9141" x="729.54" y="112.9326">&#1575;&#1604;&#1593;&#1605;&#1610;&#1604;/&#1575;&#1604;&#1605;&#1576;&#1606;&#1609;</text></g><!--link Assess to Design--><g class="link" data-entity-1="ent0003" data-entity-2="ent0004" data-link-type="dependency" data-source-line="24" id="lnk14"><path d="M708.89,286.9475 L709.1676,286.9857 L706.9807,296.77 L706.4212,306.7783 L705.3317,316.7136 L702.4994,326.4091 L701.977,336.4224 L700.1543,346.2568 L698.849,356.1625 L697.9035,366.1176 L695.7182,375.9021 L696.0007,386.0263 L693.9073,395.8234" fill="none" style="stroke:#181818;stroke-width:1;"/><polygon fill="#181818" points="693.09,401.7675,693.1495,401.8044,694.0103,400.0205,695.2202,398.4529,696.3164,396.8149,697.0388,394.9452,698.2787,393.3963,698.263,393.3756,697.2913,393.9666,696.3984,394.6615,695.5604,395.4289,694.5334,395.9469,693.7711,396.8141,693.9181,396.9256,692.9201,395.7857,692.3514,394.9712,691.8351,394.1965,691.014,393.1908,690.3532,392.3065,690.3751,392.3128,690.8904,394.1958,691.5051,396.1074,692.0719,398.0053,692.7302,399.9296,693.09,401.7675" style="stroke:#181818;stroke-width:1;"/><text fill="#000000" font-family="Arial" font-size="13" lengthAdjust="spacing" textLength="77.5557" x="705" y="329.6044">&#1610;&#1581;&#1583;&#1583; &#1575;&#1604;&#1605;&#1603;&#1608;&#1606;&#1575;&#1578;</text></g><!--link Design to Install--><g class="link" data-entity-1="ent0004" data-entity-2="ent0005" data-link-type="dependency" data-source-line="25" id="lnk15"><path d="M687.8,448.7475 L688.0789,448.7747 L686.2464,458.9707 L686.0489,469.3264 L685.319,479.6301 L682.8381,489.7627 L682.6779,500.122 L681.2112,510.3537 L680.7734,520.6859" fill="none" style="stroke:#181818;stroke-width:1;"/><polygon fill="#181818" points="680.19,526.6575,680.251,526.692,681.0411,524.8757,682.1885,523.2619,683.2196,521.5821,683.868,519.6855,685.0461,518.0891,685.0297,518.0691,684.0819,518.6977,683.217,519.4272,682.4097,520.2268,681.4038,520.7847,680.6762,521.6812,680.8187,521.7984,679.7954,520.6738,679.1884,519.8913,678.6321,519.1506,677.7804,518.1671,677.084,517.3112,677.1056,517.3184,677.6951,519.1771,678.3829,521.0685,679.0233,522.9441,679.7541,524.8498,680.19,526.6575" style="stroke:#181818;stroke-width:1;"/><text fill="#000000" font-family="Arial" font-size="13" lengthAdjust="spacing" textLength="105.2378" x="686" y="492.9644">&#1576;&#1593;&#1583; &#1575;&#1604;&#1575;&#1593;&#1578;&#1605;&#1575;&#1583; &#1575;&#1604;&#1605;&#1576;&#1583;&#1574;&#1610;</text></g><!--link Install to Test--><g class="link" data-entity-1="ent0005" data-entity-2="ent0006" data-link-type="dependency" data-source-line="26" id="lnk16"><path d="M678,573.4675 L678.2802,573.4675 L677.4476,583.1119 L678.2577,592.7564 L678.5329,602.4008 L677.0488,612.0453 L677.8964,621.6897 L677.4313,631.3342 L677.4887,640.9786 L677.9091,650.6231 L678,660.2675" fill="none" style="stroke:#181818;stroke-width:1;"/><polygon fill="#181818" points="678,666.2675,678.064,666.296,678.6738,664.4114,679.6589,662.6937,680.5217,660.9216,680.9827,658.9709,682,657.2675,681.9817,657.2492,681.0995,657.967,680.3096,658.7771,679.5839,659.6514,678.637,660.3045,678,661.2675,678.1305,661.398,677.0514,660.3189,676.3534,659.6209,675.7018,658.9693,674.7798,658.0473,674,657.2675,674.0208,657.2767,674.7903,659.0632,675.6544,660.8917,676.4728,662.6999,677.3784,664.5468,678,666.2675" style="stroke:#181818;stroke-width:1;"/><text fill="#000000" font-family="Arial" font-size="13" lengthAdjust="spacing" textLength="101.1689" x="679" y="632.6044">&#1576;&#1593;&#1583; &#1575;&#1603;&#1578;&#1605;&#1575;&#1604; &#1575;&#1604;&#1578;&#1585;&#1603;&#1610;&#1576;</text></g><!--link Test to Maintenance--><g class="link" data-entity-1="ent0006" data-entity-2="ent0007" data-link-type="dependency" data-source-line="27" id="lnk17"><path d="M611.4,698.7875 L611.4253,698.8774 L609.2808,699.1926 L607.2847,700.035 L605.2403,700.7057 L603.037,700.8119 L601.0536,701.6995 L601.0424,701.6668 L598.9229,702.2268 L596.8596,702.9515 L594.8354,703.7908 L592.6764,704.2354 L590.7063,705.2328 L590.8004,705.4602 L588.563,705.8169 L586.6004,706.8374 L584.6714,707.9388 L582.5473,708.5691 L580.5258,709.4472 L580.5394,709.4743 L578.5502,710.4256 L576.6231,711.5002 L574.6661,712.5153 L572.7662,713.644 L570.68,714.4025 L570.8364,714.6564 L568.9697,715.8107 L567.002,716.8012 L565.1821,718.0315 L563.3691,719.2729 L561.3367,720.1584 L561.1423,719.9036 L559.785,721.7214 L557.7876,722.7001 L556.2768,724.3168 L554.2649,725.2765 L552.6638,726.7747 L552.6426,726.7527 L551.3253,728.5195 L549.5148,729.7737 L547.9953,731.3303 L546.5002,732.9123 L544.8289,734.3111 L544.9732,734.4269 L543.4618,736.0133 L542.1969,737.7975 L540.5331,739.2618 L539.4644,741.2033 L538,742.8275 L538.2259,742.9187 L537.1396,745.4857 L536.1655,748.0979 L534.6701,750.4996 L533.5569,753.0557 L532.782,755.7484 L532.5132,755.6851 L533.2904,758.0124 L533.7647,760.2683 L534.6784,762.6276 L534.8419,764.8105 L535.4513,767.0983 L535.3384,766.9958 L537.3701,769.1965 L538.9193,770.959 L540.8117,773.0331 L543.0397,775.4121 L544.6699,777.2482 L544.775,777.4108 L547.7331,779.3866 L550.3644,780.8564 L553.405,782.9599 L556.3564,784.9253 L559.1001,786.5691" fill="none" style="stroke:#181818;stroke-width:1;"/><polygon fill="#181818" points="564.37,789.4375,564.4256,789.4801,563.0619,787.7903,562.0241,786.3503,560.8802,784.829,559.3872,783.0401,558.3774,781.6216,558.3526,781.6142,558.5613,782.6664,558.8952,783.7556,559.3162,784.8705,559.4372,785.8968,559.9784,787.0471,560.0306,787.2241,558.8338,787.1658,557.7895,787.6243,556.7638,788.1458,555.6298,788.3005,554.5528,788.6481,554.5547,788.6708,556.5154,788.7954,558.4845,789.0232,560.4495,789.2012,562.4222,789.4742,564.37,789.4375" style="stroke:#181818;stroke-width:1;"/><text fill="#000000" font-family="Arial" font-size="13" lengthAdjust="spacing" textLength="95.1133" x="539" y="755.8944">&#1576;&#1593;&#1583; &#1575;&#1604;&#1602;&#1576;&#1608;&#1604; &#1575;&#1604;&#1606;&#1607;&#1575;&#1574;&#1610;</text></g><!--link Maintenance to Test--><g class="link" data-entity-1="ent0007" data-entity-2="ent0006" data-link-type="dependency" data-source-line="32" id="lnk20"><path d="M633.16,789.5675 L633.4152,789.6832 L636.6745,780.4786 L641.43,771.9524 L645.6983,763.2053 L648.3644,753.7317 L653.154,745.221 L656.7481,736.1682 L660.818,727.3312 L665.3013,718.6816" fill="none" style="stroke:#181818;stroke-width:1;stroke-dasharray:7,7;"/><polygon fill="#181818" points="667.78,713.2175,667.8265,713.2699,666.2161,714.423,664.8785,715.8831,663.4521,717.2433,661.7334,718.2747,660.4193,719.7612,660.4102,719.7369,661.4283,719.2301,662.4924,718.8454,663.5884,718.5458,664.5743,717.9532,665.7145,717.7709,665.8872,717.8358,665.9158,718.756,666.4489,719.8658,667.0434,720.9987,667.2799,721.997,667.7047,723.0661,667.7275,723.0662,667.7091,721.0963,667.7943,719.1271,667.8296,717.1575,667.9602,715.1887,667.78,713.2175" style="stroke:#181818;stroke-width:1;"/><text fill="#000000" font-family="Arial" font-size="13" lengthAdjust="spacing" textLength="131.6504" x="655" y="755.8944">&#1610;&#1578;&#1605; &#1573;&#1580;&#1585;&#1575;&#1569; &#1575;&#1582;&#1578;&#1576;&#1575;&#1585;&#1575;&#1578; &#1583;&#1608;&#1585;&#1610;&#1577;</text></g><!--link Systems to Install--><g class="link" data-entity-1="ent0008" data-entity-2="ent0005" data-link-type="dependency" data-source-line="29" id="lnk18"><path d="M442.0796,430.465 L442.123,430.5477 L442.0551,430.334 L442.2418,430.6052 L442.3455,430.7185 L442.1766,430.3126 L442.3852,430.6254 L442.3691,430.5948 L443.4098,431.0414 L444.5315,431.6421 L445.7093,432.3501 L446.6934,432.6886 L447.9489,433.5445 L448.0628,433.7627 L454.3862,436.7246 L461.0422,440.3233 L467.7387,443.9997 L474.1991,447.2241 L480.7838,450.6863 L480.8255,450.7671 L489.5058,455.1654 L498.3762,459.9317 L507.1549,464.5204 L516.1086,469.4479 L524.4917,473.2711 L524.897,474.0688 L534.2036,478.8038 L543.2488,483.0243 L552.6766,487.998 L562.1224,493.007 L571,496.8975 L570.8573,496.6105 L576.6599,499.9142 L581.9926,502.2728 L587.6826,505.3499 L593.0047,507.6871 L598.6283,510.6308 L598.6149,510.6034 L604.1696,513.5626 L609.4121,515.8826 L614.8388,518.5798 L620.2809,521.3086 L625.6115,523.809" fill="none" style="stroke:#181818;stroke-width:1;stroke-dasharray:7,7;"/><polygon fill="#181818" points="631.01,526.4275,631.0635,526.4727,629.634,524.8331,628.5184,523.4584,627.3006,521.9974,625.7466,520.2528,624.658,518.9008,624.6335,518.8923,624.8943,519.9231,625.2785,520.9968,625.7485,522.1001,625.9229,523.101,626.5113,524.2454,626.5717,524.4198,625.3735,524.4176,624.3518,524.9245,623.3517,525.4935,622.2262,525.7011,621.1666,526.0987,621.1674,526.1215,623.1349,526.1539,625.106,526.2897,627.0753,526.3757,629.0478,526.5569,631.01,526.4275" style="stroke:#181818;stroke-width:1;"/><text fill="#000000" font-family="Arial" font-size="13" lengthAdjust="spacing" textLength="103.3843" x="572" y="492.9644">&#1610;&#1578;&#1605; &#1578;&#1608;&#1585;&#1610;&#1583;&#1607;&#1575; &#1608;&#1578;&#1585;&#1603;&#1610;&#1576;&#1607;&#1575;</text></g><!--link Test to CivilDefense--><g class="link" data-entity-1="ent0006" data-entity-2="ent0012" data-link-type="dependency" data-source-line="30" id="lnk19"><path d="M731.31,713.2175 L731.4191,713.4756 L740.4331,716.6548 L750.0867,721.3473 L759.532,725.547 L768.2924,728.1261 L777.9605,732.8531 L787.1177,736.3709 L796.4782,740.3699 L805.98,744.7034 L814.9947,747.8842 L824.9791,753.3595 L833.7028,755.8516 L843.2654,760.329 L852.9304,765.0486 L861.9999,768.359 L871.418,772.4943 L880.7042,776.3175 L890.1516,780.5222 L899.5212,784.5428 L909.0392,788.9146 L918.0734,792.1415" fill="none" style="stroke:#181818;stroke-width:1;"/><polygon fill="#181818" points="923.6,794.4775,923.6511,794.5254,922.1527,792.9454,920.954,791.6462,919.6577,790.2555,918.0404,788.5642,916.8674,787.2891,916.8434,787.2794,917.1611,788.284,917.5998,789.3377,918.1226,790.4256,918.3556,791.3958,918.9945,792.5308,919.0639,792.7018,917.8672,792.7616,916.873,793.3206,915.9036,793.9405,914.7904,794.206,913.7528,794.6579,913.7532,794.6806,915.722,794.6112,917.6928,794.6452,919.6626,794.6294,921.6341,794.7088,923.6,794.4775" style="stroke:#181818;stroke-width:1;"/><text fill="#000000" font-family="Arial" font-size="13" lengthAdjust="spacing" textLength="168.7334" x="839" y="755.8944">&#1604;&#1591;&#1604;&#1576; &#1575;&#1604;&#1578;&#1601;&#1578;&#1610;&#1588; &#1608;&#1575;&#1604;&#1575;&#1593;&#1578;&#1605;&#1575;&#1583; &#1575;&#1604;&#1606;&#1607;&#1575;&#1574;&#1610;</text></g><!--link Client to Assess--><g class="link" data-entity-1="ent0013" data-entity-2="ent0003" data-link-type="dependency" data-source-line="34" id="lnk21"><path d="M753.25,126.5075 L753.3251,126.563 L751.0096,129.2316 L749.1346,132.2255 L747.1162,135.1135 L744.6259,137.6532 L742.7887,140.675 L742.7587,140.658 L740.8659,143.6943 L739.1248,146.8162 L737.4891,149.9976 L735.4902,152.9739 L734,156.2375 L734.2267,156.3332 L732.8769,158.1774 L732.1889,160.301 L731.5817,162.4587 L730.5047,164.4181 L729.6748,166.4818 L729.7034,166.492 L728.9273,168.5305 L728.2812,170.6154 L727.5725,172.678 L726.9834,174.7833 L726.0041,176.7491 L726.2897,176.8352 L725.6779,178.877 L724.8819,180.8632 L724.3555,182.9308 L723.8418,185.0021 L722.9277,186.9527 L722.617,186.8741 L722.7116,189.0372 L721.783,190.9415 L721.6323,193.0426 L720.6806,194.941 L720.3854,197.0055 L720.3555,196.9997 L719.9644,200.9291 L718.8749,204.7237 L718.1975,208.5978 L717.5547,212.4786 L716.6623,216.3112 L716.8457,216.3352 L716.1988,219.843 L715.8653,223.3917 L715.0246,226.8741 L714.9404,230.4554 L714.3533,233.971" fill="none" style="stroke:#181818;stroke-width:1;"/><polygon fill="#181818" points="713.72,239.9375,713.7807,239.9726,714.5859,238.1629,715.7468,236.5587,716.7919,234.8876,717.4562,232.9965,718.6476,231.41,718.6313,231.3898,717.6783,232.0105,716.8073,232.7327,715.9934,233.5256,714.9829,234.0751,714.2477,234.9654,714.3913,235.0814,713.3732,233.9534,712.7743,233.1641,712.2265,232.416,711.3811,231.4276,710.6923,230.5656,710.7139,230.5726,711.2877,232.4367,711.96,234.3326,712.5848,236.2132,713.3002,238.1231,713.72,239.9375" style="stroke:#181818;stroke-width:1;"/><text fill="#000000" font-family="Arial" font-size="13" lengthAdjust="spacing" textLength="72.2046" x="735" y="169.3044">&#1610;&#1591;&#1604;&#1576; &#1575;&#1604;&#1582;&#1583;&#1605;&#1577;</text></g><!--link Company to Client--><g class="link" data-entity-1="ent0002" data-entity-2="ent0013" data-link-type="dependency" data-source-line="35" id="lnk22"><path d="M831.4696,196.9706 L831.5609,196.9905 L831.2716,196.8483 L831.5173,196.8228 L831.5889,196.7593 L831.0874,196.5709 L831.3791,196.5554 L831.3454,196.5479 L831.1572,196.3484 L831.139,196.1867 L831.2389,196.0512 L830.9316,195.8253 L831.1946,195.7261 L831.4343,195.7817 L830.8451,195.3322 L830.9557,195.045 L831.1516,194.7775 L830.8508,194.3949 L830.8112,194.0728 L830.8403,194.0815 L830.0354,191.5017 L829.3628,188.9613 L828.6264,186.4019 L828.0118,183.8787 L827,181.2375 L827.2748,181.3535 L826.075,178.5044 L824.698,175.5806 L823.5804,172.7663 L822.475,169.9571 L820.9843,166.9852 L820.7025,166.8325 L819.8622,164.5691 L818.094,161.8028 L817.0313,159.4187 L815.242,156.641 L814.0482,154.186 L814.0228,154.1693 L812.7734,152.018 L810.9302,149.4751 L809.4374,147.1634 L807.974,144.871 L806.2984,142.4387 L806.4456,142.5508 L804.6057,140.2183 L803.0172,138.0774 L801.0219,135.6265 L799.6334,133.638 L797.8415,131.342" fill="none" style="stroke:#181818;stroke-width:1;"/><polygon fill="#181818" points="794.08,126.6675,794.1477,126.6855,794.4517,128.536,795.1526,130.4918,795.7243,132.4133,795.8709,134.2221,796.6059,136.187,796.5801,136.1842,796.5863,135.0469,796.7223,133.9236,796.9485,132.8101,796.8637,131.6629,797.2146,130.5629,797.2344,130.7464,798.3168,130.4758,799.4571,130.7409,800.6045,131.0713,801.7107,131.0215,802.8386,131.1716,802.849,131.1919,801.082,130.2613,799.3624,129.4229,797.6199,128.54,795.921,127.7419,794.08,126.6675" style="stroke:#181818;stroke-width:1;"/><text fill="#000000" font-family="Arial" font-size="13" lengthAdjust="spacing" textLength="106.7485" x="824" y="169.3044">&#1610;&#1602;&#1583;&#1605; &#1588;&#1607;&#1575;&#1583;&#1577; &#1575;&#1604;&#1575;&#1593;&#1578;&#1605;&#1575;&#1583;</text></g><g class="legend" data-source-line="37"><polygon fill="#DDDDDD" points="823.145,877.1275,823.145,877.3377,833.2801,876.7132,843.4152,877.3208,853.5503,877.5272,863.6854,876.4141,873.8205,877.0498,883.9555,876.701,894.0906,876.744,904.2257,877.0593,914.3608,876.4361,924.4959,877.6811,934.631,876.4972,944.7661,876.9297,954.9012,877.5594,965.0363,877.0417,975.1714,877.1957,985.3065,877.0956,995.4415,877.306,1005.5766,877.3666,1015.7117,877.7132,1025.8468,877.7986,1035.9819,877.1275,1036.0686,877.3367,1037.0751,877.6453,1038.1624,878.1489,1039.2535,878.6618,1040.1326,878.6628,1041.2852,879.3242,1041.4942,879.4108,1041.6332,880.347,1042.3283,881.5136,1042.4508,882.443,1043.0215,883.5581,1043.4819,884.6275,1043.7291,884.6275,1043.4657,890.1463,1043.517,895.665,1043.5948,901.1838,1043.6207,906.7025,1043.4819,912.2213,1043.4807,912.2208,1043.131,913.3185,1042.427,914.2696,1042.2515,915.4395,1041.8934,916.5338,1041.2852,917.5246,1041.3419,917.6614,1040.3028,918.1527,1039.1023,918.2545,1038.02,918.6417,1036.9633,919.0905,1035.9819,919.7213,1035.9819,919.6624,1025.8468,919.5247,1015.7117,920.4027,1005.5766,919.5466,995.4415,919.3782,985.3065,919.9495,975.1714,919.0544,965.0363,919.2021,954.9012,920.3702,944.7661,920.1569,934.631,920.4557,924.4959,919.3995,914.3608,920.0404,904.2257,920.3117,894.0906,919.2488,883.9555,919.6254,873.8205,919.8472,863.6854,920.373,853.5503,919.7171,843.4152,920.1838,833.2801,919.1675,823.145,919.7213,823.0586,919.5127,822.1486,919.437,820.9322,918.6218,820.0279,918.56,818.9287,918.0275,817.8417,917.5246,817.7592,917.4904,817.2934,916.4188,817.1043,915.4618,816.4315,914.3044,816.2666,913.3574,815.645,912.2213,815.4608,912.2213,815.8508,906.7025,815.8064,901.1838,815.7267,895.665,815.6607,890.1463,815.645,884.6275,815.8688,884.7202,816.2733,883.6451,816.5758,882.5278,817.0456,881.4797,817.3622,880.3682,817.8417,879.3242,817.9331,879.5448,818.9221,878.9326,819.985,878.4987,820.9461,877.8188,822.0326,877.442,823.145,877.1275" style="stroke:#000000;stroke-width:1;"/><polygon fill="#000000" points="828.6588,891.5325,828.2924,892.0332,827.8589,892.7666,827.239,893.2608,826.5876,893.5311,826.0682,893.5546,825.4006,893.2165,824.7707,892.9957,824.2926,892.5474,824.0418,892.0341,823.8931,891.6254,823.7474,891.0916,823.5109,890.6322,823.6926,890.1837,823.8519,889.6924,824.4494,889.3038,824.8698,888.7996,825.3901,888.6322,826.0087,888.488,826.8019,888.5737,827.2364,888.7786,827.7415,888.8715,828.3557,889.5007,828.5698,890.165,828.6629,890.6183,828.5575,891.3653"/><text fill="#000000" font-family="Arial" font-size="14" lengthAdjust="spacing" textLength="186.5391" x="832.645" y="895.1226">&#1575;&#1604;&#1578;&#1585;&#1603;&#1610;&#1576;: &#1610;&#1588;&#1605;&#1604; &#1575;&#1604;&#1578;&#1608;&#1585;&#1610;&#1583; &#1608;&#1575;&#1604;&#1578;&#1580;&#1607;&#1610;&#1586;.</text><polygon fill="#000000" points="828.6588,907.8293,828.2924,908.3301,827.8589,909.0635,827.239,909.5577,826.5876,909.828,826.0682,909.8514,825.4006,909.5134,824.7707,909.2926,824.2926,908.8442,824.0418,908.331,823.8931,907.9223,823.7474,907.3885,823.5109,906.9291,823.6926,906.4806,823.8519,905.9893,824.4494,905.6007,824.8698,905.0965,825.3901,904.9291,826.0087,904.7849,826.8019,904.8706,827.2364,905.0755,827.7415,905.1683,828.3557,905.7976,828.5698,906.4619,828.6629,906.9152,828.5575,907.6621"/><text fill="#000000" font-family="Arial" font-size="14" lengthAdjust="spacing" textLength="205.8369" x="832.645" y="911.4195">&#1575;&#1604;&#1589;&#1610;&#1575;&#1606;&#1577;: &#1604;&#1590;&#1605;&#1575;&#1606; &#1575;&#1604;&#1580;&#1575;&#1607;&#1586;&#1610;&#1577; &#1575;&#1604;&#1605;&#1587;&#1578;&#1605;&#1585;&#1577;.</text></g><?plantuml-src VLJDRjD04BxlKwnw0gI6Umz8KKib3d0fBx1Ajgc5iucyJb65EAJv9U8b42fEh3GcRGhaJMRVXfbTh-sa54LEOkzyttmpyutZ80ubXmsipG0IIBaPmHPI_CvWmStG324pVJpPSaZm5f-RiPaTSKW9OcOmvsOA3_WdCME4m7Vy-ODn2mk0UxmIkcLCVmXKLqIYpI-4QdwCWZYMYiTHJrQEcl9SzCBujAFYTw8jUJqAHCXO91knK2tKUc1fdU255rL8Fk12y-DEkolK5V_4E6_W_uwIAaPWQgxD33yZ3qlXDtBDgN0Bh6ijjTv7ONMZ4eNLKK4s_aJgeAKUPPcYk1bar9YoIuNIh4ZtHkbOXE4UdkBwS0iFXATQ4rWX3wbSMzXxgUF7cEeC4Zis9yErvAq857PRg8PadtVR-TJ0BExiIiUohMqhUresXFu7v0PlVnRowg68slyDnwwJfRxnPx36IIRsIk4hTmTK1wJFBTbf4CcpNhSRuLo2ZghIbitqj2lRBA8bHQW75aXgw-aZVq7w-b8qzhkGFE5q9AEZfPaKRlFLEBBZu388J-IvL5eofZfDpxQrhXc-pDdcoFR58S80fyQOSni_F7oL6uaVSQpz5elAVAg1cTfIKfQ7K7Jk6mn7LsppO59kjo0fq7YQmGypOnv0O7BF3dBWK6ReQ0h7CXj9a8fvTdEQQonhcYEnlWacftpCswPMgwf5rfJMgDWG0kni2JqeyrPRI_2XMzTS9yqKCPjoJVRgh-YfLa2QyYPuGJUmHBEGTQhBvgnLx15ZRd1MMZuxIr4HjS9mUjVvDv2jmg4e5FkLKRwDLPRvXQWePooKBQcQF0fQ5xJbB_QcOZDkq1b-NDMtZOj4h-A3krg9BbuDjec_xBZ7xcY9tnEuemAzQ-wj65oU6aCbJizV?></g></svg>