<?plantuml 1.2026.2beta3?><svg xmlns="http://www.w3.org/2000/svg" xmlns:xlink="http://www.w3.org/1999/xlink" contentStyleType="text/css" data-diagram-type="DESCRIPTION" height="617px" preserveAspectRatio="none" style="width:1185px;height:617px;background:#FFFFFF;" version="1.1" viewBox="0 0 1185 617" width="1185px" zoomAndPan="magnify"><title>&#1571;&#1587;&#1593;&#1575;&#1585; &#1604;&#1608;&#1581;&#1575;&#1578; &#1575;&#1604;&#1578;&#1581;&#1603;&#1605; &#1575;&#1604;&#1603;&#1607;&#1585;&#1576;&#1575;&#1574;&#1610;&#1577; 2026 &#1601;&#1610; &#1575;&#1604;&#1587;&#1593;&#1608;&#1583;&#1610;&#1577;</title><defs/><g><g class="title" data-source-line="1"><text fill="#000000" font-family="sans-serif" font-size="14" font-weight="bold" lengthAdjust="spacing" textLength="347.792" x="411.6243" y="22.9951">&#1571;&#1587;&#1593;&#1575;&#1585; &#1604;&#1608;&#1581;&#1575;&#1578; &#1575;&#1604;&#1578;&#1581;&#1603;&#1605; &#1575;&#1604;&#1603;&#1607;&#1585;&#1576;&#1575;&#1574;&#1610;&#1577; 2026 &#1601;&#1610; &#1575;&#1604;&#1587;&#1593;&#1608;&#1583;&#1610;&#1577;</text></g><!--cluster PriceDetermination--><g class="cluster" data-qualified-name="PriceDetermination" data-source-line="6" id="ent0002"><rect fill="none" height="566.74" rx="2.5" ry="2.5" style="stroke:#181818;stroke-width:1;" width="1009" x="7" y="44.2969"/><text fill="#000000" font-family="sans-serif" font-size="14" font-weight="bold" lengthAdjust="spacing" textLength="216.0088" x="403.4956" y="59.292">&#1578;&#1581;&#1583;&#1610;&#1583; &#1587;&#1593;&#1585; &#1604;&#1608;&#1581;&#1577; &#1575;&#1604;&#1578;&#1581;&#1603;&#1605; (2026)</text></g><!--cluster Internal--><g class="cluster" data-qualified-name="PriceDetermination.Internal" data-source-line="8" id="ent0003"><rect fill="none" height="219.6" rx="2.5" ry="2.5" style="stroke:#181818;stroke-width:1;" width="451" x="39" y="95.2969"/><rect fill="none" height="10" style="stroke:#181818;stroke-width:1;" width="15" x="470" y="100.2969"/><rect fill="none" height="2" style="stroke:#181818;stroke-width:1;" width="4" x="468" y="102.2969"/><rect fill="none" height="2" style="stroke:#181818;stroke-width:1;" width="4" x="468" y="106.2969"/><text fill="#000000" font-family="sans-serif" font-size="14" font-weight="bold" lengthAdjust="spacing" textLength="187.8789" x="170.5605" y="121.292">1. &#1593;&#1608;&#1575;&#1605;&#1604; &#1575;&#1604;&#1605;&#1603;&#1608;&#1606;&#1575;&#1578; &#1575;&#1604;&#1583;&#1575;&#1582;&#1604;&#1610;&#1577;</text></g><!--cluster Services--><g class="cluster" data-qualified-name="PriceDetermination.Services" data-source-line="15" id="ent0008"><rect fill="none" height="219.6" rx="2.5" ry="2.5" style="stroke:#181818;stroke-width:1;" width="454" x="530" y="95.2969"/><rect fill="none" height="10" style="stroke:#181818;stroke-width:1;" width="15" x="964" y="100.2969"/><rect fill="none" height="2" style="stroke:#181818;stroke-width:1;" width="4" x="962" y="102.2969"/><rect fill="none" height="2" style="stroke:#181818;stroke-width:1;" width="4" x="962" y="106.2969"/><text fill="#000000" font-family="sans-serif" font-size="14" font-weight="bold" lengthAdjust="spacing" textLength="189.4717" x="662.2642" y="121.292">2. &#1593;&#1608;&#1575;&#1605;&#1604; &#1575;&#1604;&#1578;&#1589;&#1606;&#1610;&#1593; &#1608;&#1575;&#1604;&#1582;&#1583;&#1605;&#1575;&#1578;</text></g><!--cluster Economy--><g class="cluster" data-qualified-name="PriceDetermination.Economy" data-source-line="21" id="ent0012"><rect fill="none" height="224.14" rx="2.5" ry="2.5" style="stroke:#181818;stroke-width:1;" width="479" x="39" y="354.8969"/><rect fill="none" height="10" style="stroke:#181818;stroke-width:1;" width="15" x="498" y="359.8969"/><rect fill="none" height="2" style="stroke:#181818;stroke-width:1;" width="4" x="496" y="361.8969"/><rect fill="none" height="2" style="stroke:#181818;stroke-width:1;" width="4" x="496" y="365.8969"/><text fill="#000000" font-family="sans-serif" font-size="14" font-weight="bold" lengthAdjust="spacing" textLength="217.6221" x="169.689" y="380.892">3. &#1575;&#1604;&#1593;&#1608;&#1575;&#1605;&#1604; &#1575;&#1604;&#1575;&#1602;&#1578;&#1589;&#1575;&#1583;&#1610;&#1577; &#1608;&#1575;&#1604;&#1587;&#1608;&#1602;&#1610;&#1577;</text></g><!--entity FinalPrice--><g class="entity" data-qualified-name="PriceDetermination.FinalPrice" data-source-line="27" id="ent0016"><rect fill="#F1F1F1" height="46.2969" rx="2.5" ry="2.5" style="stroke:#181818;stroke-width:0.5;" width="196.8711" x="671.56" y="508.7369"/><rect fill="#F1F1F1" height="10" style="stroke:#181818;stroke-width:0.5;" width="15" x="848.4311" y="513.7369"/><rect fill="#F1F1F1" height="2" style="stroke:#181818;stroke-width:0.5;" width="4" x="846.4311" y="515.7369"/><rect fill="#F1F1F1" height="2" style="stroke:#181818;stroke-width:0.5;" width="4" x="846.4311" y="519.7369"/><text fill="#000000" font-family="sans-serif" font-size="14" lengthAdjust="spacing" textLength="156.8711" x="686.56" y="541.732">&#1575;&#1604;&#1587;&#1593;&#1585; &#1575;&#1604;&#1606;&#1607;&#1575;&#1574;&#1610; &#1575;&#1604;&#1605;&#1602;&#1583;&#1585; &#1604;&#1604;&#1608;&#1581;&#1577;</text></g><!--entity Breakers--><g class="entity" data-qualified-name="PriceDetermination.Internal.Breakers" data-source-line="9" id="ent0004"><rect fill="#F1F1F1" height="46.2969" rx="2.5" ry="2.5" style="stroke:#181818;stroke-width:0.5;" width="161.1602" x="63.42" y="138.2969"/><rect fill="#F1F1F1" height="10" style="stroke:#181818;stroke-width:0.5;" width="15" x="204.5802" y="143.2969"/><rect fill="#F1F1F1" height="2" style="stroke:#181818;stroke-width:0.5;" width="4" x="202.5802" y="145.2969"/><rect fill="#F1F1F1" height="2" style="stroke:#181818;stroke-width:0.5;" width="4" x="202.5802" y="149.2969"/><text fill="#000000" font-family="sans-serif" font-size="14" lengthAdjust="spacing" textLength="121.1602" x="78.42" y="171.292">&#1602;&#1608;&#1575;&#1591;&#1593; &#1575;&#1604;&#1578;&#1610;&#1575;&#1585; &#1575;&#1604;&#1585;&#1574;&#1610;&#1587;&#1610;&#1577;</text></g><!--entity Busbars--><g class="entity" data-qualified-name="PriceDetermination.Internal.Busbars" data-source-line="10" id="ent0005"><rect fill="#F1F1F1" height="46.2969" rx="2.5" ry="2.5" style="stroke:#181818;stroke-width:0.5;" width="186.5283" x="259.74" y="138.2969"/><rect fill="#F1F1F1" height="10" style="stroke:#181818;stroke-width:0.5;" width="15" x="426.2683" y="143.2969"/><rect fill="#F1F1F1" height="2" style="stroke:#181818;stroke-width:0.5;" width="4" x="424.2683" y="145.2969"/><rect fill="#F1F1F1" height="2" style="stroke:#181818;stroke-width:0.5;" width="4" x="424.2683" y="149.2969"/><text fill="#000000" font-family="sans-serif" font-size="14" lengthAdjust="spacing" textLength="146.5283" x="274.74" y="171.292">&#1602;&#1590;&#1576;&#1575;&#1606; &#1575;&#1604;&#1578;&#1608;&#1589;&#1610;&#1604; (&#1575;&#1604;&#1606;&#1581;&#1575;&#1587;)</text></g><!--entity Meters--><g class="entity" data-qualified-name="PriceDetermination.Internal.Meters" data-source-line="11" id="ent0006"><rect fill="#F1F1F1" height="46.2969" rx="2.5" ry="2.5" style="stroke:#181818;stroke-width:0.5;" width="169.001" x="69.5" y="244.5969"/><rect fill="#F1F1F1" height="10" style="stroke:#181818;stroke-width:0.5;" width="15" x="218.501" y="249.5969"/><rect fill="#F1F1F1" height="2" style="stroke:#181818;stroke-width:0.5;" width="4" x="216.501" y="251.5969"/><rect fill="#F1F1F1" height="2" style="stroke:#181818;stroke-width:0.5;" width="4" x="216.501" y="255.5969"/><text fill="#000000" font-family="sans-serif" font-size="14" lengthAdjust="spacing" textLength="129.001" x="84.5" y="277.592">&#1571;&#1580;&#1607;&#1586;&#1577; &#1575;&#1604;&#1602;&#1610;&#1575;&#1587; &#1608;&#1575;&#1604;&#1578;&#1581;&#1603;&#1605;</text></g><!--entity Enclosure--><g class="entity" data-qualified-name="PriceDetermination.Internal.Enclosure" data-source-line="12" id="ent0007"><rect fill="#F1F1F1" height="46.2969" rx="2.5" ry="2.5" style="stroke:#181818;stroke-width:0.5;" width="166.1572" x="273.92" y="244.5969"/><rect fill="#F1F1F1" height="10" style="stroke:#181818;stroke-width:0.5;" width="15" x="420.0772" y="249.5969"/><rect fill="#F1F1F1" height="2" style="stroke:#181818;stroke-width:0.5;" width="4" x="418.0772" y="251.5969"/><rect fill="#F1F1F1" height="2" style="stroke:#181818;stroke-width:0.5;" width="4" x="418.0772" y="255.5969"/><text fill="#000000" font-family="sans-serif" font-size="14" lengthAdjust="spacing" textLength="126.1572" x="288.92" y="277.592">&#1607;&#1610;&#1603;&#1604; &#1575;&#1604;&#1604;&#1608;&#1581;&#1577; (&#1575;&#1604;&#1582;&#1586;&#1575;&#1606;&#1577;)</text></g><!--entity Design--><g class="entity" data-qualified-name="PriceDetermination.Services.Design" data-source-line="16" id="ent0009"><rect fill="#F1F1F1" height="46.2969" rx="2.5" ry="2.5" style="stroke:#181818;stroke-width:0.5;" width="183.5137" x="554.24" y="138.2969"/><rect fill="#F1F1F1" height="10" style="stroke:#181818;stroke-width:0.5;" width="15" x="717.7537" y="143.2969"/><rect fill="#F1F1F1" height="2" style="stroke:#181818;stroke-width:0.5;" width="4" x="715.7537" y="145.2969"/><rect fill="#F1F1F1" height="2" style="stroke:#181818;stroke-width:0.5;" width="4" x="715.7537" y="149.2969"/><text fill="#000000" font-family="sans-serif" font-size="14" lengthAdjust="spacing" textLength="143.5137" x="569.24" y="171.292">&#1578;&#1603;&#1575;&#1604;&#1610;&#1601; &#1575;&#1604;&#1578;&#1589;&#1605;&#1610;&#1605; &#1575;&#1604;&#1607;&#1606;&#1583;&#1587;&#1610;</text></g><!--entity Labor--><g class="entity" data-qualified-name="PriceDetermination.Services.Labor" data-source-line="17" id="ent0010"><rect fill="#F1F1F1" height="46.2969" rx="2.5" ry="2.5" style="stroke:#181818;stroke-width:0.5;" width="168.126" x="772.94" y="138.2969"/><rect fill="#F1F1F1" height="10" style="stroke:#181818;stroke-width:0.5;" width="15" x="921.066" y="143.2969"/><rect fill="#F1F1F1" height="2" style="stroke:#181818;stroke-width:0.5;" width="4" x="919.066" y="145.2969"/><rect fill="#F1F1F1" height="2" style="stroke:#181818;stroke-width:0.5;" width="4" x="919.066" y="149.2969"/><text fill="#000000" font-family="sans-serif" font-size="14" lengthAdjust="spacing" textLength="128.126" x="787.94" y="171.292">&#1571;&#1580;&#1608;&#1585; &#1575;&#1604;&#1578;&#1580;&#1605;&#1610;&#1593; &#1608;&#1575;&#1604;&#1578;&#1585;&#1603;&#1610;&#1576;</text></g><!--entity Quality--><g class="entity" data-qualified-name="PriceDetermination.Services.Quality" data-source-line="18" id="ent0011"><rect fill="#F1F1F1" height="46.2969" rx="2.5" ry="2.5" style="stroke:#181818;stroke-width:0.5;" width="243.6357" x="554.18" y="244.5969"/><rect fill="#F1F1F1" height="10" style="stroke:#181818;stroke-width:0.5;" width="15" x="777.8157" y="249.5969"/><rect fill="#F1F1F1" height="2" style="stroke:#181818;stroke-width:0.5;" width="4" x="775.8157" y="251.5969"/><rect fill="#F1F1F1" height="2" style="stroke:#181818;stroke-width:0.5;" width="4" x="775.8157" y="255.5969"/><text fill="#000000" font-family="sans-serif" font-size="14" lengthAdjust="spacing" textLength="203.6357" x="569.18" y="277.592">&#1588;&#1607;&#1575;&#1583;&#1575;&#1578; &#1575;&#1604;&#1580;&#1608;&#1583;&#1577; &#1608;&#1575;&#1604;&#1605;&#1591;&#1575;&#1576;&#1602;&#1577; (SASO)</text></g><!--entity RawMaterial--><g class="entity" data-qualified-name="PriceDetermination.Economy.RawMaterial" data-source-line="22" id="ent0013"><rect fill="#F1F1F1" height="46.2969" rx="2.5" ry="2.5" style="stroke:#181818;stroke-width:0.5;" width="193.7471" x="63.13" y="397.8969"/><rect fill="#F1F1F1" height="10" style="stroke:#181818;stroke-width:0.5;" width="15" x="236.8771" y="402.8969"/><rect fill="#F1F1F1" height="2" style="stroke:#181818;stroke-width:0.5;" width="4" x="234.8771" y="404.8969"/><rect fill="#F1F1F1" height="2" style="stroke:#181818;stroke-width:0.5;" width="4" x="234.8771" y="408.8969"/><text fill="#000000" font-family="sans-serif" font-size="14" lengthAdjust="spacing" textLength="153.7471" x="78.13" y="430.892">&#1571;&#1587;&#1593;&#1575;&#1585; &#1575;&#1604;&#1605;&#1608;&#1575;&#1583; &#1575;&#1604;&#1582;&#1575;&#1605; &#1575;&#1604;&#1593;&#1575;&#1604;&#1605;&#1610;&#1577;</text></g><!--entity Shipping--><g class="entity" data-qualified-name="PriceDetermination.Economy.Shipping" data-source-line="23" id="ent0014"><rect fill="#F1F1F1" height="46.2969" rx="2.5" ry="2.5" style="stroke:#181818;stroke-width:0.5;" width="182.7275" x="291.64" y="397.8969"/><rect fill="#F1F1F1" height="10" style="stroke:#181818;stroke-width:0.5;" width="15" x="454.3675" y="402.8969"/><rect fill="#F1F1F1" height="2" style="stroke:#181818;stroke-width:0.5;" width="4" x="452.3675" y="404.8969"/><rect fill="#F1F1F1" height="2" style="stroke:#181818;stroke-width:0.5;" width="4" x="452.3675" y="408.8969"/><text fill="#000000" font-family="sans-serif" font-size="14" lengthAdjust="spacing" textLength="142.7275" x="306.64" y="430.892">&#1578;&#1603;&#1575;&#1604;&#1610;&#1601; &#1575;&#1604;&#1588;&#1581;&#1606; &#1608;&#1575;&#1604;&#1580;&#1605;&#1575;&#1585;&#1603;</text></g><!--entity Margin--><g class="entity" data-qualified-name="PriceDetermination.Economy.Margin" data-source-line="24" id="ent0015"><rect fill="#F1F1F1" height="46.2969" rx="2.5" ry="2.5" style="stroke:#181818;stroke-width:0.5;" width="217.126" x="63.44" y="508.7369"/><rect fill="#F1F1F1" height="10" style="stroke:#181818;stroke-width:0.5;" width="15" x="260.566" y="513.7369"/><rect fill="#F1F1F1" height="2" style="stroke:#181818;stroke-width:0.5;" width="4" x="258.566" y="515.7369"/><rect fill="#F1F1F1" height="2" style="stroke:#181818;stroke-width:0.5;" width="4" x="258.566" y="519.7369"/><text fill="#000000" font-family="sans-serif" font-size="14" lengthAdjust="spacing" textLength="177.126" x="78.44" y="541.732">&#1575;&#1604;&#1590;&#1585;&#1575;&#1574;&#1576; &#1575;&#1604;&#1605;&#1581;&#1604;&#1610;&#1577; &#1608;&#1607;&#1575;&#1605;&#1588; &#1575;&#1604;&#1585;&#1576;&#1581;</text></g><g class="entity" data-qualified-name="GMN20" data-source-line="35" id="ent0021"><path d="M1031.96,504.1869 L1031.96,527.8869 L868.8,531.8869 L1031.96,535.8869 L1031.96,559.5853 A0,0 0 0 0 1031.96,559.5853 L1178.0406,559.5853 A0,0 0 0 0 1178.0406,559.5853 L1178.0406,514.1869 L1168.0406,504.1869 L1031.96,504.1869 A0,0 0 0 0 1031.96,504.1869" fill="#FEFFDD" style="stroke:#181818;stroke-width:0.5;"/><path d="M1168.0406,504.1869 L1168.0406,514.1869 L1178.0406,514.1869 L1168.0406,504.1869" fill="#FEFFDD" style="stroke:#181818;stroke-width:0.5;"/><text fill="#000000" font-family="sans-serif" font-size="13" lengthAdjust="spacing" textLength="101.7148" x="1037.96" y="521.2538">&#1575;&#1604;&#1587;&#1593;&#1585; &#1610;&#1578;&#1571;&#1579;&#1585; &#1576;&#1578;&#1602;&#1604;&#1576;&#1575;&#1578;</text><text fill="#000000" font-family="sans-serif" font-size="13" lengthAdjust="spacing" textLength="125.0806" x="1037.96" y="536.3866">&#1587;&#1608;&#1602; &#1575;&#1604;&#1591;&#1575;&#1602;&#1577; &#1608;&#1575;&#1604;&#1605;&#1588;&#1575;&#1585;&#1610;&#1593;</text><text fill="#000000" font-family="sans-serif" font-size="13" lengthAdjust="spacing" textLength="115.2798" x="1037.96" y="551.5194">&#1575;&#1604;&#1585;&#1574;&#1610;&#1587;&#1610;&#1577; &#1601;&#1610; &#1575;&#1604;&#1605;&#1605;&#1604;&#1603;&#1577;.</text></g><!--link Internal to FinalPrice--><g class="link" data-entity-1="ent0003" data-entity-2="ent0016" data-link-type="dependency" data-source-line="29" id="lnk17"><path d="M490.1551,207.8257 C490.2086,208.0653 490.2624,208.3055 490.3166,208.5464 C490.5332,209.5098 490.7547,210.4832 490.9811,211.4662 C491.8868,215.398 492.8716,219.4825 493.94,223.6869 C502.4875,257.3219 516.39,298.6319 538,330.8969 C590.68,409.5369 677.2204,472.2507 728.1404,505.1507" fill="none" id="Internal-to-FinalPrice" style="stroke:#181818;stroke-width:1;"/><polygon fill="#181818" points="733.18,508.4069,727.7914,500.1629,728.9803,505.6934,723.4498,506.8824,733.18,508.4069" style="stroke:#181818;stroke-width:1;"/></g><!--link Services to FinalPrice--><g class="link" data-entity-1="ent0008" data-entity-2="ent0016" data-link-type="dependency" data-source-line="30" id="lnk18"><path d="M963.2315,315.4461 C963.1338,315.7243 963.0355,316.0021 962.9366,316.2796 C962.7388,316.8346 962.5387,317.3882 962.3361,317.9405 C960.7155,322.3585 958.9413,326.6875 957,330.8969 C921.37,408.1569 848.8928,471.4947 805.6628,504.8047" fill="none" id="Services-to-FinalPrice" style="stroke:#181818;stroke-width:1;"/><polygon fill="#181818" points="800.91,508.4669,810.4806,506.1422,804.8706,505.4151,805.5977,499.8052,800.91,508.4669" style="stroke:#181818;stroke-width:1;"/></g><!--link Economy to FinalPrice--><g class="link" data-entity-1="ent0012" data-entity-2="ent0016" data-link-type="dependency" data-source-line="31" id="lnk19"><path d="M518.2181,448.8887 C518.3776,449.0596 518.5375,449.2302 518.6977,449.4004 C519.0181,449.7408 519.34,450.0799 519.6633,450.4174 C520.3098,451.0926 520.962,451.7622 521.6197,452.4261 C524.2504,455.0818 526.9692,457.6477 529.7677,460.127 C535.3646,465.0856 541.2801,469.6975 547.447,473.9869 C559.7809,482.5656 573.1206,489.8544 586.9288,496.0469 C614.545,508.4319 638.1414,515.3072 665.2064,520.4722" fill="none" id="Economy-to-FinalPrice" style="stroke:#181818;stroke-width:1;"/><polygon fill="#181818" points="671.1,521.5969,663.0094,515.9807,666.1886,520.6596,661.5097,523.8389,671.1,521.5969" style="stroke:#181818;stroke-width:1;"/></g><?plantuml-src TLHDRnen4Btlhx1oIWw9MYhrMAbLKgbIetvmZ7fmY4ii5Y_QNHgXgeS0In1_erBuQ0YYa23-YVrl-ZnhmvQqdDQCvyrxRsQSoZGKJF_K2xtMGprdfclwUehF2TD3qzKJFJKTaz417pTwhaU8tfg17hFIiz9BPgxD8ByB32JFR2W8affK3HxpEgj4zKQaX4fPahPGBHQLbAjgA0ftU1n7Loozb9MQ4ad2Ia6mkSRsB0l2dJ4Ykg4v_flalYLqiCTumZx6iYAEHIhYkbGybP5YtuE05SZiFJzYH7XeCjFD1MQ0wPlULluCd_S8G1B1lbD0L3m46CFlpBGjW5xfjME2czP6Eip9feLD_cAJtyI2rqIS-5JzQBqqFP_Qrmzc02hxnAL7RLWSvAdDv9pxJBJh3ftuxUI3WoswOAHbumRbdLe7VC4Re7UyL6yW5TFtG0CJFSxBdQXA62NDM23pnuvjfIUseUA3wO74sbEuHxSowoAPLXRnDtGZyQP1QeSu3Cpr5Y33qStP3PZCh754vbWaigeAqllUu0aEMR7kHC-XSA17bFYUdqUnorl2i26rqtNMmioWFyy4snLY8pG5bfHVbp_aHdngyb2chN_OyE8enzcnOWW4gB6rQ4KSiGN6ghsPefDAfA9wQ-F7TltS5DgPcZ5dvT3POgzGrC_JPtvroj5VoSF_6Rl4BFGyYJlg2HoYxFAbR3IaghfKU-4H8ulTrYF70ybTfyBQXp-MVh97UfeF68-hKdb_plmxuANqoFPRzqA0Unkcq_gw-IEGjrZHa3RMWcnsxF3mLJ74jeFq9E8TtGc0b8fIF3coUfcow6inLg0AZHCquPTbFOA9RKJiApS9yiRbebVKtCB4BCbDZ5-mk-xRHn6IC_jowl5H8DG5itJ-0000?></g></svg>