<svg xmlns="http://www.w3.org/2000/svg" xmlns:xlink="http://www.w3.org/1999/xlink" contentStyleType="text/css" data-diagram-type="ACTIVITY" height="678px" preserveAspectRatio="none" style="width:359px;height:678px;background:#FFFFFF;" version="1.1" viewBox="0 0 359 678" width="359px" zoomAndPan="magnify"><title>&#1578;&#1585;&#1603;&#1610;&#1576; &#1604;&#1608;&#1581;&#1575;&#1578; &#1578;&#1581;&#1603;&#1605; - &#1585;&#1608;&#1575;&#1574;&#1593; &#1575;&#1604;&#1603;&#1585;&#1610;&#1587;&#1578;&#1575;&#1604;</title><defs/><g><g class="title" data-source-line="1"><text fill="#000000" font-family="sans-serif" font-size="14" font-weight="bold" lengthAdjust="spacing" textLength="256.6484" x="50.1719" y="32.9951">&#1578;&#1585;&#1603;&#1610;&#1576; &#1604;&#1608;&#1581;&#1575;&#1578; &#1578;&#1581;&#1603;&#1605; - &#1585;&#1608;&#1575;&#1574;&#1593; &#1575;&#1604;&#1603;&#1585;&#1610;&#1587;&#1578;&#1575;&#1604;</text></g><ellipse cx="170.7471" cy="57.2969" fill="#222222" rx="10" ry="10" style="stroke:#222222;stroke-width:1;"/><rect fill="#FFFFFF" height="33.9688" rx="12.5" ry="12.5" style="stroke:#000000;stroke-width:0.5;" width="247.8418" x="46.8262" y="87.2969"/><text fill="#000000" font-family="sans-serif" font-size="12" lengthAdjust="spacing" textLength="227.8418" x="56.8262" y="108.4355">&#1583;&#1585;&#1575;&#1587;&#1577; &#1575;&#1604;&#1605;&#1582;&#1591;&#1591;&#1575;&#1578; &#1575;&#1604;&#1607;&#1606;&#1583;&#1587;&#1610;&#1577; &#1608;&#1578;&#1581;&#1583;&#1610;&#1583; &#1575;&#1604;&#1605;&#1578;&#1591;&#1604;&#1576;&#1575;&#1578;</text><rect fill="#FFFFFF" height="33.9688" rx="12.5" ry="12.5" style="stroke:#000000;stroke-width:0.5;" width="215.3691" x="63.0625" y="141.2656"/><text fill="#000000" font-family="sans-serif" font-size="12" lengthAdjust="spacing" textLength="195.3691" x="73.0625" y="162.4043">&#1578;&#1580;&#1607;&#1610;&#1586; &#1575;&#1604;&#1607;&#1610;&#1603;&#1604; &#1575;&#1604;&#1605;&#1593;&#1583;&#1606;&#1610; (&#1575;&#1604;&#1604;&#1608;&#1581;&#1577; &#1575;&#1604;&#1582;&#1575;&#1585;&#1580;&#1610;&#1577;)</text><rect fill="#FFFFFF" height="33.9688" rx="12.5" ry="12.5" style="stroke:#000000;stroke-width:0.5;" width="219.541" x="60.9766" y="195.2344"/><text fill="#000000" font-family="sans-serif" font-size="12" lengthAdjust="spacing" textLength="199.541" x="70.9766" y="216.373">&#1578;&#1608;&#1586;&#1610;&#1593; &#1608;&#1578;&#1579;&#1576;&#1610;&#1578; &#1575;&#1604;&#1602;&#1608;&#1575;&#1591;&#1593; &#1608;&#1575;&#1604;&#1605;&#1603;&#1608;&#1606;&#1575;&#1578; &#1575;&#1604;&#1583;&#1575;&#1582;&#1604;&#1610;&#1577;</text><rect fill="#FFFFFF" height="33.9688" rx="12.5" ry="12.5" style="stroke:#000000;stroke-width:0.5;" width="227.6973" x="56.8984" y="249.2031"/><text fill="#000000" font-family="sans-serif" font-size="12" lengthAdjust="spacing" textLength="207.6973" x="66.8984" y="270.3418">&#1573;&#1580;&#1585;&#1575;&#1569; &#1575;&#1604;&#1578;&#1608;&#1589;&#1610;&#1604;&#1575;&#1578; &#1575;&#1604;&#1603;&#1607;&#1585;&#1576;&#1575;&#1574;&#1610;&#1577; &#1608;&#1578;&#1585;&#1602;&#1610;&#1605; &#1575;&#1604;&#1571;&#1587;&#1604;&#1575;&#1603;</text><rect fill="#FFFFFF" height="33.9688" rx="12.5" ry="12.5" style="stroke:#000000;stroke-width:0.5;" width="251.6914" x="44.9014" y="303.1719"/><text fill="#000000" font-family="sans-serif" font-size="12" lengthAdjust="spacing" textLength="231.6914" x="54.9014" y="324.3105">&#1576;&#1585;&#1605;&#1580;&#1577; &#1571;&#1606;&#1592;&#1605;&#1577; &#1575;&#1604;&#1578;&#1581;&#1603;&#1605; (PLC/Smart Systems)</text><rect fill="none" height="170.2344" style="stroke:#000000;stroke-width:1.5;" width="337.9922" x="11" y="347.1406"/><path d="M99.4629,347.1406 L99.4629,356.4375 L89.4629,366.4375 L11,366.4375" fill="none" style="stroke:#000000;stroke-width:1.5;"/><text fill="#000000" font-family="sans-serif" font-size="14" lengthAdjust="spacing" textLength="78.4629" x="14" y="361.1357">&#1605;&#1585;&#1581;&#1604;&#1577; &#1575;&#1604;&#1580;&#1608;&#1583;&#1577;</text><rect fill="#FFFFFF" height="33.9688" rx="12.5" ry="12.5" style="stroke:#000000;stroke-width:0.5;" width="166.6895" x="87.4023" y="383.4375"/><text fill="#000000" font-family="sans-serif" font-size="12" lengthAdjust="spacing" textLength="146.6895" x="97.4023" y="404.5762">&#1575;&#1604;&#1601;&#1581;&#1589; &#1575;&#1604;&#1601;&#1606;&#1610; &#1608;&#1575;&#1582;&#1578;&#1576;&#1575;&#1585; &#1575;&#1604;&#1578;&#1588;&#1594;&#1610;&#1604;</text><polygon fill="#FFFFFF" points="131.3931,437.4063,210.1011,437.4063,222.1011,449.4063,210.1011,461.4063,131.3931,461.4063,119.3931,449.4063,131.3931,437.4063" style="stroke:#000000;stroke-width:0.5;"/><text fill="#000000" font-family="sans-serif" font-size="11" lengthAdjust="spacing" textLength="78.708" x="131.3931" y="453.2144">&#1607;&#1604; &#1575;&#1604;&#1575;&#1582;&#1578;&#1576;&#1575;&#1585; &#1606;&#1575;&#1580;&#1581;&#1567;</text><text fill="#000000" font-family="sans-serif" font-size="11" lengthAdjust="spacing" textLength="15.689" x="103.7041" y="446.812">&#1606;&#1593;&#1605;</text><text fill="#000000" font-family="sans-serif" font-size="11" lengthAdjust="spacing" textLength="6.2734" x="222.1011" y="446.812">&#1604;&#1575;</text><rect fill="#FFFFFF" height="33.9688" rx="12.5" ry="12.5" style="stroke:#000000;stroke-width:0.5;" width="128.498" x="23" y="471.4063"/><text fill="#000000" font-family="sans-serif" font-size="12" lengthAdjust="spacing" textLength="108.498" x="33" y="492.5449">&#1575;&#1604;&#1578;&#1594;&#1604;&#1610;&#1601; &#1608;&#1575;&#1604;&#1606;&#1602;&#1604; &#1604;&#1604;&#1605;&#1608;&#1602;&#1593;</text><rect fill="#FFFFFF" height="33.9688" rx="12.5" ry="12.5" style="stroke:#000000;stroke-width:0.5;" width="165.4941" x="171.498" y="471.4063"/><text fill="#000000" font-family="sans-serif" font-size="12" lengthAdjust="spacing" textLength="145.4941" x="181.498" y="492.5449">&#1578;&#1589;&#1581;&#1610;&#1581; &#1575;&#1604;&#1571;&#1582;&#1591;&#1575;&#1569; &#1608;&#1573;&#1593;&#1575;&#1583;&#1577; &#1575;&#1604;&#1590;&#1576;&#1591;</text><rect fill="#FFFFFF" height="33.9688" rx="12.5" ry="12.5" style="stroke:#000000;stroke-width:0.5;" width="191.0762" x="75.209" y="537.375"/><text fill="#000000" font-family="sans-serif" font-size="12" lengthAdjust="spacing" textLength="171.0762" x="85.209" y="558.5137">&#1575;&#1604;&#1578;&#1585;&#1603;&#1610;&#1576; &#1575;&#1604;&#1606;&#1607;&#1575;&#1574;&#1610; &#1608;&#1575;&#1604;&#1585;&#1576;&#1591; &#1605;&#1593; &#1575;&#1604;&#1571;&#1581;&#1605;&#1575;&#1604;</text><rect fill="#FFFFFF" height="33.9688" rx="12.5" ry="12.5" style="stroke:#000000;stroke-width:0.5;" width="192.8281" x="74.333" y="591.3438"/><text fill="#000000" font-family="sans-serif" font-size="12" lengthAdjust="spacing" textLength="172.8281" x="84.333" y="612.4824">&#1575;&#1604;&#1578;&#1588;&#1594;&#1610;&#1604; &#1575;&#1604;&#1578;&#1580;&#1585;&#1610;&#1576;&#1610; &#1608;&#1578;&#1587;&#1604;&#1610;&#1605; &#1575;&#1604;&#1605;&#1588;&#1585;&#1608;&#1593;</text><ellipse cx="170.7471" cy="656.3125" fill="none" rx="11" ry="11" style="stroke:#222222;stroke-width:1;"/><ellipse cx="170.7471" cy="656.3125" fill="#222222" rx="6" ry="6" style="stroke:#222222;stroke-width:1;"/><line style="stroke:#000000;stroke-width:1;" x1="170.7471" x2="170.7471" y1="67.2969" y2="87.2969"/><polygon fill="#000000" points="166.7471,77.2969,170.7471,87.2969,174.7471,77.2969,170.7471,81.2969" style="stroke:#000000;stroke-width:1;"/><line style="stroke:#000000;stroke-width:1;" x1="170.7471" x2="170.7471" y1="121.2656" y2="141.2656"/><polygon fill="#000000" points="166.7471,131.2656,170.7471,141.2656,174.7471,131.2656,170.7471,135.2656" style="stroke:#000000;stroke-width:1;"/><line style="stroke:#000000;stroke-width:1;" x1="170.7471" x2="170.7471" y1="175.2344" y2="195.2344"/><polygon fill="#000000" points="166.7471,185.2344,170.7471,195.2344,174.7471,185.2344,170.7471,189.2344" style="stroke:#000000;stroke-width:1;"/><line style="stroke:#000000;stroke-width:1;" x1="170.7471" x2="170.7471" y1="229.2031" y2="249.2031"/><polygon fill="#000000" points="166.7471,239.2031,170.7471,249.2031,174.7471,239.2031,170.7471,243.2031" style="stroke:#000000;stroke-width:1;"/><line style="stroke:#000000;stroke-width:1;" x1="170.7471" x2="170.7471" y1="283.1719" y2="303.1719"/><polygon fill="#000000" points="166.7471,293.1719,170.7471,303.1719,174.7471,293.1719,170.7471,297.1719" style="stroke:#000000;stroke-width:1;"/><line style="stroke:#000000;stroke-width:1;" x1="119.3931" x2="87.249" y1="449.4063" y2="449.4063"/><line style="stroke:#000000;stroke-width:1;" x1="87.249" x2="87.249" y1="449.4063" y2="471.4063"/><polygon fill="#000000" points="83.249,461.4063,87.249,471.4063,91.249,461.4063,87.249,465.4063" style="stroke:#000000;stroke-width:1;"/><line style="stroke:#000000;stroke-width:1;" x1="222.1011" x2="254.2451" y1="449.4063" y2="449.4063"/><line style="stroke:#000000;stroke-width:1;" x1="254.2451" x2="254.2451" y1="449.4063" y2="471.4063"/><polygon fill="#000000" points="250.2451,461.4063,254.2451,471.4063,258.2451,461.4063,254.2451,465.4063" style="stroke:#000000;stroke-width:1;"/><line style="stroke:#000000;stroke-width:1;" x1="87.249" x2="87.249" y1="505.375" y2="510.375"/><line style="stroke:#000000;stroke-width:1;" x1="87.249" x2="170.7471" y1="510.375" y2="510.375"/><line style="stroke:#000000;stroke-width:1;" x1="170.7471" x2="170.7471" y1="510.375" y2="537.375"/><polygon fill="#000000" points="166.7471,527.375,170.7471,537.375,174.7471,527.375,170.7471,531.375" style="stroke:#000000;stroke-width:1;"/><line style="stroke:#000000;stroke-width:1;" x1="170.7471" x2="170.7471" y1="417.4063" y2="437.4063"/><polygon fill="#000000" points="166.7471,427.4063,170.7471,437.4063,174.7471,427.4063,170.7471,431.4063" style="stroke:#000000;stroke-width:1;"/><line style="stroke:#000000;stroke-width:1;" x1="170.7471" x2="170.7471" y1="337.1406" y2="383.4375"/><polygon fill="#000000" points="166.7471,373.4375,170.7471,383.4375,174.7471,373.4375,170.7471,377.4375" style="stroke:#000000;stroke-width:1;"/><line style="stroke:#000000;stroke-width:1;" x1="170.7471" x2="170.7471" y1="571.3438" y2="591.3438"/><polygon fill="#000000" points="166.7471,581.3438,170.7471,591.3438,174.7471,581.3438,170.7471,585.3438" style="stroke:#000000;stroke-width:1;"/><line style="stroke:#000000;stroke-width:1;" x1="170.7471" x2="170.7471" y1="625.3125" y2="645.3125"/><polygon fill="#000000" points="166.7471,635.3125,170.7471,645.3125,174.7471,635.3125,170.7471,639.3125" style="stroke:#000000;stroke-width:1;"/></g></svg>