<svg xmlns="http://www.w3.org/2000/svg" xmlns:xlink="http://www.w3.org/1999/xlink" contentStyleType="text/css" data-diagram-type="DESCRIPTION" height="484px" preserveAspectRatio="none" style="width:1571px;height:484px;background:#FFFFFF;" version="1.1" viewBox="0 0 1571 484" width="1571px" zoomAndPan="magnify"><title>&#1605;&#1603;&#1608;&#1606;&#1575;&#1578; &#1608;&#1593;&#1605;&#1604;&#1610;&#1577; &#1605;&#1590;&#1582;&#1577; &#1573;&#1576;&#1575;&#1585;&#1575; &#1575;&#1604;&#1610;&#1575;&#1576;&#1575;&#1606;&#1610;&#1577;</title><defs/><g><g class="title" data-source-line="6"><text fill="#000000" font-family="'Arial'" font-size="14" font-weight="bold" lengthAdjust="spacing" textLength="237.4531" x="660.006" y="22.9951">&#1605;&#1603;&#1608;&#1606;&#1575;&#1578; &#1608;&#1593;&#1605;&#1604;&#1610;&#1577; &#1605;&#1590;&#1582;&#1577; &#1573;&#1576;&#1575;&#1585;&#1575; &#1575;&#1604;&#1610;&#1575;&#1576;&#1575;&#1606;&#1610;&#1577;</text></g><!--cluster PumpSystem--><g class="cluster" data-qualified-name="PumpSystem" data-source-line="10" id="ent0003"><rect fill="none" height="382.04" rx="2.5" ry="2.5" style="stroke:#181818;stroke-width:1;" width="513" x="7" y="96.4969"/><text fill="#000000" font-family="'Arial'" font-size="14" font-weight="bold" lengthAdjust="spacing" textLength="289.3311" x="118.8345" y="111.492">&#1606;&#1592;&#1575;&#1605; &#1605;&#1590;&#1582;&#1577; &#1573;&#1576;&#1575;&#1585;&#1575; (Ebara Pump System)</text></g><!--entity Motor--><g class="entity" data-qualified-name="PumpSystem.Motor" data-source-line="11" id="ent0004"><rect fill="#F1F1F1" height="46.2969" rx="2.5" ry="2.5" style="stroke:#181818;stroke-width:0.5;" width="142.792" x="30.6" y="158.4969"/><rect fill="#F1F1F1" height="10" style="stroke:#181818;stroke-width:0.5;" width="15" x="153.392" y="163.4969"/><rect fill="#F1F1F1" height="2" style="stroke:#181818;stroke-width:0.5;" width="4" x="151.392" y="165.4969"/><rect fill="#F1F1F1" height="2" style="stroke:#181818;stroke-width:0.5;" width="4" x="151.392" y="169.4969"/><text fill="#000000" font-family="'Arial'" font-size="14" lengthAdjust="spacing" textLength="102.792" x="45.6" y="191.492">&#1575;&#1604;&#1605;&#1581;&#1585;&#1603; &#1575;&#1604;&#1603;&#1607;&#1585;&#1576;&#1575;&#1574;&#1610;</text></g><!--entity Body--><g class="entity" data-qualified-name="PumpSystem.Body" data-source-line="12" id="ent0005"><rect fill="#F1F1F1" height="46.2969" rx="2.5" ry="2.5" style="stroke:#181818;stroke-width:0.5;" width="188.7842" x="30.61" y="408.2369"/><rect fill="#F1F1F1" height="10" style="stroke:#181818;stroke-width:0.5;" width="15" x="199.3942" y="413.2369"/><rect fill="#F1F1F1" height="2" style="stroke:#181818;stroke-width:0.5;" width="4" x="197.3942" y="415.2369"/><rect fill="#F1F1F1" height="2" style="stroke:#181818;stroke-width:0.5;" width="4" x="197.3942" y="419.2369"/><text fill="#000000" font-family="'Arial'" font-size="14" lengthAdjust="spacing" textLength="148.7842" x="45.61" y="441.232">&#1580;&#1587;&#1605; &#1575;&#1604;&#1605;&#1590;&#1582;&#1577; (&#1581;&#1583;&#1610;&#1583; &#1586;&#1607;&#1585;)</text></g><!--entity Impeller--><g class="entity" data-qualified-name="PumpSystem.Impeller" data-source-line="13" id="ent0006"><rect fill="#F1F1F1" height="46.2969" rx="2.5" ry="2.5" style="stroke:#181818;stroke-width:0.5;" width="159.6836" x="38.16" y="284.9469"/><rect fill="#F1F1F1" height="10" style="stroke:#181818;stroke-width:0.5;" width="15" x="177.8436" y="289.9469"/><rect fill="#F1F1F1" height="2" style="stroke:#181818;stroke-width:0.5;" width="4" x="175.8436" y="291.9469"/><rect fill="#F1F1F1" height="2" style="stroke:#181818;stroke-width:0.5;" width="4" x="175.8436" y="295.9469"/><text fill="#000000" font-family="'Arial'" font-size="14" lengthAdjust="spacing" textLength="119.6836" x="53.16" y="317.942">&#1575;&#1604;&#1605;&#1585;&#1608;&#1581;&#1577; (Impeller)</text></g><!--entity Inlet--><g class="entity" data-qualified-name="PumpSystem.Inlet" data-source-line="14" id="ent0007"><rect fill="#F1F1F1" height="46.2969" rx="2.5" ry="2.5" style="stroke:#181818;stroke-width:0.5;" width="121.9834" x="208.01" y="158.4969"/><rect fill="#F1F1F1" height="10" style="stroke:#181818;stroke-width:0.5;" width="15" x="309.9934" y="163.4969"/><rect fill="#F1F1F1" height="2" style="stroke:#181818;stroke-width:0.5;" width="4" x="307.9934" y="165.4969"/><rect fill="#F1F1F1" height="2" style="stroke:#181818;stroke-width:0.5;" width="4" x="307.9934" y="169.4969"/><text fill="#000000" font-family="'Arial'" font-size="14" lengthAdjust="spacing" textLength="81.9834" x="223.01" y="191.492">&#1605;&#1583;&#1582;&#1604; &#1575;&#1604;&#1587;&#1581;&#1576;</text></g><!--entity Outlet--><g class="entity" data-qualified-name="PumpSystem.Outlet" data-source-line="15" id="ent0008"><rect fill="#F1F1F1" height="46.2969" rx="2.5" ry="2.5" style="stroke:#181818;stroke-width:0.5;" width="111.3467" x="365.33" y="158.4969"/><rect fill="#F1F1F1" height="10" style="stroke:#181818;stroke-width:0.5;" width="15" x="456.6767" y="163.4969"/><rect fill="#F1F1F1" height="2" style="stroke:#181818;stroke-width:0.5;" width="4" x="454.6767" y="165.4969"/><rect fill="#F1F1F1" height="2" style="stroke:#181818;stroke-width:0.5;" width="4" x="454.6767" y="169.4969"/><text fill="#000000" font-family="'Arial'" font-size="14" lengthAdjust="spacing" textLength="71.3467" x="380.33" y="191.492">&#1605;&#1582;&#1585;&#1580; &#1575;&#1604;&#1591;&#1585;&#1583;</text></g><!--entity Distributor--><g class="entity" data-qualified-name="Distributor" data-source-line="8" id="ent0002"><rect fill="#F1F1F1" height="52.5938" rx="2.5" ry="2.5" style="stroke:#181818;stroke-width:0.5;" width="121.0898" x="745.46" y="155.3469"/><text fill="#000000" font-family="'Arial'" font-size="14" lengthAdjust="spacing" textLength="91.8682" x="755.46" y="178.342">&#1585;&#1608;&#1575;&#1574;&#1593; &#1575;&#1604;&#1603;&#1585;&#1610;&#1587;&#1578;&#1575;&#1604;</text><text fill="#000000" font-family="'Arial'" font-size="14" lengthAdjust="spacing" textLength="96.6396" x="759.9102" y="194.6389">(&#1575;&#1604;&#1605;&#1608;&#1586;&#1593; &#1575;&#1604;&#1605;&#1593;&#1578;&#1605;&#1583;)</text></g><g class="entity" data-qualified-name="GMN9" data-source-line="19" id="ent0010"><path d="M547.05,161.5169 L547.05,201.7825 L710.9421,201.7825 L710.9421,171.5169 L700.9421,161.5169 L547.05,161.5169" fill="#FEFFDD" style="stroke:#181818;stroke-width:0.5;"/><path d="M700.9421,161.5169 L700.9421,171.5169 L710.9421,171.5169 L700.9421,161.5169" fill="#FEFFDD" style="stroke:#181818;stroke-width:1;"/><text fill="#000000" font-family="'Arial'" font-size="13" font-weight="bold" lengthAdjust="spacing" textLength="142.8921" x="553.05" y="178.5838">&#1575;&#1604;&#1580;&#1608;&#1583;&#1577; &#1575;&#1604;&#1610;&#1575;&#1576;&#1575;&#1606;&#1610;&#1577; &#1575;&#1604;&#1571;&#1589;&#1604;&#1610;&#1577;</text><text fill="#000000" font-family="'Arial'" font-size="13" lengthAdjust="spacing" textLength="108.748" x="553.05" y="193.7166">&#1589;&#1606;&#1575;&#1593;&#1577; &#1610;&#1575;&#1576;&#1575;&#1606;&#1610;&#1577; 100%</text></g><!--entity WaterSource--><g class="entity" data-qualified-name="WaterSource" data-source-line="23" id="ent0012"><path d="M1120.7396,166.8435 C1124.3382,162.1585 1127.865,161.0135 1131.6488,166.6477 C1135.8437,160.4675 1141.2855,161.9109 1144.6706,167.5405 C1147.5315,162.0691 1151.5844,161.4717 1155.2776,166.7167 C1158.325,160.7219 1164.0549,159.6025 1168.1257,165.6223 C1172.0787,160.8386 1175.4975,161.58 1178.9798,166.1675 C1182.3623,158.8001 1187.4107,159.0686 1192.137,164.8197 C1195.5288,160.0181 1199.3019,160.4709 1202.5828,164.9446 C1206.3582,159.6764 1209.9209,158.8774 1214.5434,163.9664 C1218.3739,158.3987 1223.4319,157.8143 1227.1147,164.1228 C1231.1265,159.7525 1235.5396,161.2296 1237.7076,166.2113 C1241.4834,160.3356 1247.7983,159.6291 1250.9477,166.8448 C1254.8469,162.308 1258.3547,162.1036 1261.4314,167.696 C1265.4603,162.4105 1270.012,162.8107 1273.6529,168.1426 C1276.8315,162.3387 1281.5142,163.1289 1284.8986,167.9243 C1296.661,166.8249 1300.0689,173.7996 1296.1204,183.8033 C1299.4151,193.1639 1297.1667,197.704 1286.6423,197.506 C1284.329,204.3782 1278.2987,203.9831 1274.6723,198.811 C1272.8155,205.817 1266.4695,207.2762 1261.9251,201.4889 C1258.1903,206.8559 1253.7126,205.9512 1250.5378,200.8779 C1247.854,207.5464 1242.6169,209.661 1237.4994,203.3163 C1234.6813,208.0154 1230.8418,208.2292 1227.2804,204.1851 C1224.4647,211.0249 1218.4376,211.4466 1213.9826,205.9525 C1211.332,211.3436 1207.17,211.2628 1203.2858,207.3745 C1198.4305,210.9939 1194.2348,210.8372 1191.938,204.4679 C1187.8546,209.7121 1183.3095,210.9198 1179.4519,204.2317 C1175.2338,209.5303 1171.0617,208.0607 1168.6821,202.4214 C1163.3714,208.5424 1159.3088,208.3501 1155.4677,200.9818 C1152.0168,206.4667 1147.779,204.7328 1145.0682,200.2125 C1139.5689,205.2089 1135.2103,205.6534 1131.7035,198.092 C1128.0098,203.2909 1122.3431,203.5441 1119.278,197.4032 C1111.8309,194.6699 1110.2315,189.2443 1115.0772,182.9405 C1109.9655,175.4267 1110.4511,168.94 1120.7396,166.8435" fill="#F1F1F1" style="stroke:#181818;stroke-width:0.5;"/><text fill="#000000" font-family="'Arial'" font-size="14" lengthAdjust="spacing" textLength="151.5938" x="1126.2" y="186.492">&#1605;&#1589;&#1583;&#1585; &#1575;&#1604;&#1605;&#1610;&#1575;&#1607; (&#1582;&#1586;&#1575;&#1606; &#1571;&#1608; &#1576;&#1574;&#1585;)</text></g><!--entity Destination--><g class="entity" data-qualified-name="Destination" data-source-line="24" id="ent0013"><path d="M1338.1397,169.375 C1340.4223,161.9165 1346.6709,161.4332 1351.4158,166.8326 C1356.686,160.1372 1363.8668,160.0878 1368.2168,167.8984 C1371.3603,159.0875 1377.1146,159.2258 1383.1973,164.8476 C1389.0034,156.8037 1395.2794,157.4152 1399.3493,166.4861 C1403.0464,159.7219 1409.8139,157.7154 1414.2757,165.7129 C1417.2795,158.312 1424.0501,157.5552 1428.6474,164.0669 C1433.0376,156.8282 1440.8043,156.2743 1445.6717,163.5054 C1450.5163,157.1845 1456.8807,157.2796 1460.7145,164.6187 C1465.7255,156.2209 1471.7392,157.6937 1476.5981,164.7748 C1481.1743,157.8871 1487.6693,158.0733 1490.908,166.0614 C1496.6792,156.8329 1502.2111,156.9173 1508.1231,165.9287 C1512.1169,158.2737 1519.7957,157.6064 1524.0796,165.6336 C1528.5138,159.4084 1535.4332,159.5866 1538.6247,166.9625 C1543.4417,160.39 1549.2661,159.6783 1553.3512,167.701 C1562.3054,169.6747 1562.8008,176.4184 1557.6426,182.4878 C1564.126,188.708 1564.4651,194.1507 1555.3882,198.1279 C1551.2241,204.876 1544.1178,207.0541 1539.3033,198.8264 C1534.2873,206.3946 1528.569,208.6124 1521.9381,200.6296 C1517.3239,207.9247 1512.1312,206.9859 1507.5132,200.6336 C1504.2926,208.4061 1496.4131,208.8388 1491.4724,202.6032 C1487.2113,208.4874 1482.2385,209.2963 1477.7061,202.9077 C1472.738,212.8147 1466.8601,212.6206 1460.4117,204.3133 C1457.3705,211.0211 1451.0327,211.8921 1446.7833,205.5777 C1440.8523,212.7035 1434.3579,211.896 1430.5563,203.37 C1426.2773,211.6901 1418.7609,209.3615 1414.8719,202.9546 C1409.6107,210.606 1403.1855,208.3113 1399.5907,201.2266 C1394.145,207.2219 1388.0821,208.3428 1384.2003,199.5942 C1378.1135,208.2219 1372.5912,206.6329 1366.7379,199.3382 C1363.0869,205.367 1356.3069,206.0615 1352.1524,199.9427 C1347.8385,206.0262 1340.7779,207.3392 1337.3476,199.0336 C1326.1775,198.8364 1323.5757,192.7648 1328.2334,183.3623 C1325.2087,175.1671 1327.9343,168.2001 1338.1397,169.375" fill="#F1F1F1" style="stroke:#181818;stroke-width:0.5;"/><text fill="#000000" font-family="'Arial'" font-size="14" lengthAdjust="spacing" textLength="202.9658" x="1342.52" y="186.492">&#1588;&#1576;&#1603;&#1577; &#1575;&#1604;&#1571;&#1606;&#1575;&#1576;&#1610;&#1576; (&#1575;&#1604;&#1605;&#1606;&#1586;&#1604; &#1571;&#1608; &#1575;&#1604;&#1605;&#1588;&#1585;&#1608;&#1593;)</text></g><!--entity PowerSource--><g class="entity" data-qualified-name="PowerSource" data-source-line="25" id="ent0014"><rect fill="#F1F1F1" height="46.2969" rx="2.5" ry="2.5" style="stroke:#181818;stroke-width:0.5;" width="174.6064" x="901.7" y="158.4969"/><rect fill="#F1F1F1" height="10" style="stroke:#181818;stroke-width:0.5;" width="15" x="1056.3064" y="163.4969"/><rect fill="#F1F1F1" height="2" style="stroke:#181818;stroke-width:0.5;" width="4" x="1054.3064" y="165.4969"/><rect fill="#F1F1F1" height="2" style="stroke:#181818;stroke-width:0.5;" width="4" x="1054.3064" y="169.4969"/><text fill="#000000" font-family="'Arial'" font-size="14" lengthAdjust="spacing" textLength="134.6064" x="916.7" y="191.492">&#1605;&#1589;&#1583;&#1585; &#1575;&#1604;&#1591;&#1575;&#1602;&#1577; &#1575;&#1604;&#1603;&#1607;&#1585;&#1576;&#1575;&#1574;&#1610;&#1577;</text></g><!--link PumpSystem to GMN9--><g class="link" data-entity-1="ent0003" data-entity-2="ent0010" data-link-type="association" data-source-line="19" id="lnk11"><path d="M520.0615,181.6469 C520.1059,181.6469 520.1504,181.6469 520.1948,181.6469 C520.2838,181.6469 520.3727,181.6469 520.4616,181.6469 C520.6394,181.6469 520.8172,181.6469 520.995,181.6469 C523.84,181.6469 526.685,181.6469 529.53,181.6469 C535.22,181.6469 540.91,181.6469 546.6,181.6469" fill="none" id="PumpSystem-GMN9" style="stroke:#181818;stroke-width:1;stroke-dasharray:7,7;"/></g><!--link Distributor to PumpSystem--><g class="link" data-entity-1="ent0002" data-entity-2="ent0003" data-link-type="dependency" data-source-line="27" id="lnk15"><path d="M792.55,154.9169 C779.5,132.2869 757.38,101.3869 728,87.5769 C688.18,68.8669 563.91,59.5469 530,87.5769 C526.1563,90.7556 522.9663,94.4813 520.3296,98.5819 C520.2472,98.7101 523.3672,93.7643 523.2858,93.8932" fill="none" id="Distributor-to-PumpSystem" style="stroke:#181818;stroke-width:1;"/><polygon fill="#181818" points="520.084,98.9674,528.2696,93.4906,522.7522,94.7389,521.5039,89.2215,520.084,98.9674" style="stroke:#181818;stroke-width:1;"/><text fill="#000000" font-family="'Arial'" font-size="13" lengthAdjust="spacing" textLength="71.7222" x="592.5" y="68.5638">&#1578;&#1608;&#1601;&#1610;&#1585; &#1608;&#1578;&#1585;&#1603;&#1610;&#1576;</text></g><!--link PowerSource to Motor--><g class="link" data-entity-1="ent0014" data-entity-2="ent0004" data-link-type="dependency" data-source-line="28" id="lnk16"><path d="M971.56,158.2169 C952.85,135.2369 920.8,101.6569 884,87.5769 C812.08,60.0769 261.72,57.1369 191,87.5769 C157.75,101.8969 134.4341,130.4052 119.2541,153.3152" fill="none" id="PowerSource-to-Motor" style="stroke:#181818;stroke-width:1;"/><polygon fill="#181818" points="115.94,158.3169,124.2456,153.0237,118.7017,154.1488,117.5767,148.605,115.94,158.3169" style="stroke:#181818;stroke-width:1;"/><text fill="#000000" font-family="'Arial'" font-size="13" lengthAdjust="spacing" textLength="70.9922" x="809" y="68.5638">&#1578;&#1586;&#1608;&#1610;&#1583; &#1576;&#1575;&#1604;&#1591;&#1575;&#1602;&#1577;</text></g><!--link WaterSource to Inlet--><g class="link" data-entity-1="ent0012" data-entity-2="ent0007" data-link-type="dependency" data-source-line="29" id="lnk17"><path d="M1183.91,158.1969 C1164.54,135.2069 1131.49,101.6169 1094,87.5769 C1016.37,58.5169 423.13,52.5669 348,87.5769 C316.88,102.0869 296.6193,130.3275 283.6693,153.1675" fill="none" id="WaterSource-to-Inlet" style="stroke:#181818;stroke-width:1;"/><polygon fill="#181818" points="280.71,158.3869,288.6286,152.5306,283.1761,154.0374,281.6694,148.5849,280.71,158.3869" style="stroke:#181818;stroke-width:1;"/><text fill="#000000" font-family="'Arial'" font-size="13" lengthAdjust="spacing" textLength="65.9648" x="714.5" y="68.5638">&#1587;&#1581;&#1576; &#1575;&#1604;&#1605;&#1610;&#1575;&#1607;</text></g><!--link Outlet to Destination--><g class="link" data-entity-1="ent0008" data-entity-2="ent0013" data-link-type="dependency" data-source-line="30" id="lnk18"><path d="M428.52,158.1669 C437.18,135.4969 453.82,102.4769 481,87.5769 C561.77,43.2969 1222.17,59.8269 1310,87.5769 C1353.64,101.3669 1390.9839,130.9443 1415.9539,154.0243" fill="none" id="Outlet-to-Destination" style="stroke:#181818;stroke-width:1;"/><polygon fill="#181818" points="1420.36,158.0969,1416.4659,149.0505,1416.6882,154.703,1411.0358,154.9254,1420.36,158.0969" style="stroke:#181818;stroke-width:1;"/><text fill="#000000" font-family="'Arial'" font-size="13" lengthAdjust="spacing" textLength="53.3457" x="1080.5" y="68.5638">&#1590;&#1582; &#1575;&#1604;&#1605;&#1610;&#1575;&#1607;</text></g><!--link Motor to Impeller--><g class="link" data-entity-1="ent0004" data-entity-2="ent0006" data-link-type="dependency" data-source-line="32" id="lnk19"><path d="M104.9,205.1869 C107.8,227.7369 111.4656,256.2758 114.3556,278.7758" fill="none" id="Motor-to-Impeller" style="stroke:#181818;stroke-width:1;stroke-dasharray:7,7;"/><polygon fill="#181818" points="115.12,284.7269,117.9408,275.2906,114.483,279.7676,110.006,276.3098,115.12,284.7269" style="stroke:#181818;stroke-width:1;"/><text fill="#000000" font-family="'Arial'" font-size="13" lengthAdjust="spacing" textLength="27.5107" x="111" y="251.0138">&#1578;&#1583;&#1608;&#1610;&#1585;</text></g><!--link Impeller to Body--><g class="link" data-entity-1="ent0006" data-entity-2="ent0005" data-link-type="association" data-source-line="33" id="lnk20"><path d="M119.3,331.6269 C120.56,353.4069 122.45,386.2369 123.71,407.9769" fill="none" id="Impeller-Body" style="stroke:#181818;stroke-width:1;"/><text fill="#000000" font-family="'Arial'" font-size="13" lengthAdjust="spacing" textLength="82.5894" x="122" y="374.3038">(&#1605;&#1608;&#1580;&#1608;&#1583;&#1577; &#1583;&#1575;&#1582;&#1604;)</text></g></g></svg>