<svg xmlns="http://www.w3.org/2000/svg" xmlns:xlink="http://www.w3.org/1999/xlink" contentStyleType="text/css" data-diagram-type="ACTIVITY" height="657px" preserveAspectRatio="none" style="width:334px;height:657px;background:#FFFFFF;" version="1.1" viewBox="0 0 334 657" width="334px" zoomAndPan="magnify"><title>&#1604;&#1601; &#1605;&#1581;&#1585;&#1603;&#1575;&#1578; &#1603;&#1607;&#1585;&#1576;&#1575;&#1574;&#1610;&#1577;: &#1573;&#1593;&#1575;&#1583;&#1577; &#1575;&#1604;&#1581;&#1610;&#1575;&#1577; &#1604;&#1605;&#1581;&#1585;&#1603;&#1603;</title><defs/><g><g class="title" data-source-line="1"><text fill="#000000" font-family="sans-serif" font-size="14" font-weight="bold" lengthAdjust="spacing" textLength="291.9697" x="20" y="32.9951">&#1604;&#1601; &#1605;&#1581;&#1585;&#1603;&#1575;&#1578; &#1603;&#1607;&#1585;&#1576;&#1575;&#1574;&#1610;&#1577;: &#1573;&#1593;&#1575;&#1583;&#1577; &#1575;&#1604;&#1581;&#1610;&#1575;&#1577; &#1604;&#1605;&#1581;&#1585;&#1603;&#1603;</text></g><ellipse cx="167.4849" cy="57.2969" fill="#222222" rx="10" ry="10" style="stroke:#222222;stroke-width:1;"/><rect fill="#F1F1F1" height="33.9688" rx="12.5" ry="12.5" style="stroke:#181818;stroke-width:0.5;" width="169.1855" x="82.8921" y="87.2969"/><text fill="#000000" font-family="sans-serif" font-size="12" lengthAdjust="spacing" textLength="149.1855" x="92.8921" y="108.4355">&#1578;&#1588;&#1582;&#1610;&#1589; &#1575;&#1604;&#1593;&#1591;&#1604; &#1608;&#1578;&#1581;&#1583;&#1610;&#1583; &#1575;&#1604;&#1587;&#1576;&#1576;</text><rect fill="#F1F1F1" height="33.9688" rx="12.5" ry="12.5" style="stroke:#181818;stroke-width:0.5;" width="143.5156" x="95.7271" y="141.2656"/><text fill="#000000" font-family="sans-serif" font-size="12" lengthAdjust="spacing" textLength="123.5156" x="105.7271" y="162.4043">-&gt; :&#1601;&#1603; &#1608;&#1578;&#1601;&#1603;&#1610;&#1603; &#1575;&#1604;&#1605;&#1581;&#1585;&#1603;;</text><rect fill="#F1F1F1" height="33.9688" rx="12.5" ry="12.5" style="stroke:#181818;stroke-width:0.5;" width="178.7656" x="78.1021" y="195.2344"/><text fill="#000000" font-family="sans-serif" font-size="12" lengthAdjust="spacing" textLength="158.7656" x="88.1021" y="216.373">-&gt; :&#1573;&#1586;&#1575;&#1604;&#1577; &#1575;&#1604;&#1604;&#1601;&#1575;&#1578; &#1575;&#1604;&#1602;&#1583;&#1610;&#1605;&#1577; &#1575;&#1604;&#1578;&#1575;&#1604;&#1601;&#1577;;</text><rect fill="#F1F1F1" height="33.9688" rx="12.5" ry="12.5" style="stroke:#181818;stroke-width:0.5;" width="241.9473" x="46.5112" y="249.2031"/><text fill="#000000" font-family="sans-serif" font-size="12" lengthAdjust="spacing" textLength="221.9473" x="56.5112" y="270.3418">-&gt; :&#1578;&#1606;&#1592;&#1610;&#1601; &#1608;&#1578;&#1580;&#1607;&#1610;&#1586; &#1575;&#1604;&#1602;&#1604;&#1576; &#1575;&#1604;&#1581;&#1583;&#1610;&#1583;&#1610; (Stator);</text><rect fill="#F1F1F1" height="33.9688" rx="12.5" ry="12.5" style="stroke:#181818;stroke-width:0.5;" width="197.8379" x="68.5659" y="303.1719"/><text fill="#000000" font-family="sans-serif" font-size="12" lengthAdjust="spacing" textLength="177.8379" x="78.5659" y="324.3105">-&gt; :&#1578;&#1589;&#1605;&#1610;&#1605; &#1608;&#1581;&#1587;&#1575;&#1576; &#1575;&#1604;&#1604;&#1601;&#1575;&#1578; &#1575;&#1604;&#1580;&#1583;&#1610;&#1583;&#1577;;</text><rect fill="#F1F1F1" height="33.9688" rx="12.5" ry="12.5" style="stroke:#181818;stroke-width:0.5;" width="179.627" x="77.6714" y="357.1406"/><text fill="#000000" font-family="sans-serif" font-size="12" lengthAdjust="spacing" textLength="159.627" x="87.6714" y="378.2793">-&gt; :&#1604;&#1601; &#1608;&#1578;&#1585;&#1603;&#1610;&#1576; &#1575;&#1604;&#1604;&#1601;&#1575;&#1578; &#1575;&#1604;&#1580;&#1583;&#1610;&#1583;&#1577;;</text><rect fill="#F1F1F1" height="33.9688" rx="12.5" ry="12.5" style="stroke:#181818;stroke-width:0.5;" width="153.6172" x="90.6763" y="411.1094"/><text fill="#000000" font-family="sans-serif" font-size="12" lengthAdjust="spacing" textLength="133.6172" x="100.6763" y="432.248">-&gt; :&#1578;&#1608;&#1589;&#1610;&#1604; &#1571;&#1591;&#1585;&#1575;&#1601; &#1575;&#1604;&#1604;&#1601;&#1575;&#1578;;</text><rect fill="#F1F1F1" height="33.9688" rx="12.5" ry="12.5" style="stroke:#181818;stroke-width:0.5;" width="190.918" x="72.0259" y="465.0781"/><text fill="#000000" font-family="sans-serif" font-size="12" lengthAdjust="spacing" textLength="170.918" x="82.0259" y="486.2168">-&gt; :&#1593;&#1586;&#1604; &#1575;&#1604;&#1604;&#1601;&#1575;&#1578; &#1608;&#1575;&#1582;&#1578;&#1576;&#1575;&#1585;&#1607;&#1575; &#1603;&#1607;&#1585;&#1576;&#1575;&#1574;&#1610;&#1575;&#1611;;</text><rect fill="#F1F1F1" height="33.9688" rx="12.5" ry="12.5" style="stroke:#181818;stroke-width:0.5;" width="145.9121" x="94.5288" y="519.0469"/><text fill="#000000" font-family="sans-serif" font-size="12" lengthAdjust="spacing" textLength="125.9121" x="104.5288" y="540.1855">-&gt; :&#1573;&#1593;&#1575;&#1583;&#1577; &#1578;&#1580;&#1605;&#1610;&#1593; &#1575;&#1604;&#1605;&#1581;&#1585;&#1603;;</text><rect fill="#F1F1F1" height="33.9688" rx="12.5" ry="12.5" style="stroke:#181818;stroke-width:0.5;" width="154.3145" x="90.3276" y="573.0156"/><text fill="#000000" font-family="sans-serif" font-size="12" lengthAdjust="spacing" textLength="134.3145" x="100.3276" y="594.1543">-&gt; :&#1575;&#1582;&#1578;&#1576;&#1575;&#1585; &#1575;&#1604;&#1578;&#1588;&#1594;&#1610;&#1604; &#1575;&#1604;&#1606;&#1607;&#1575;&#1574;&#1610;;</text><ellipse cx="167.4849" cy="636.9844" fill="none" rx="10" ry="10" style="stroke:#222222;stroke-width:1.5;"/><line style="stroke:#222222;stroke-width:2.5;" x1="161.2977" x2="173.672" y1="630.7972" y2="643.1716"/><line style="stroke:#222222;stroke-width:2.5;" x1="173.672" x2="161.2977" y1="630.7972" y2="643.1716"/><line style="stroke:#181818;stroke-width:1;" x1="167.4849" x2="167.4849" y1="67.2969" y2="87.2969"/><polygon fill="#181818" points="163.4849,77.2969,167.4849,87.2969,171.4849,77.2969,167.4849,81.2969" style="stroke:#181818;stroke-width:1;"/><line style="stroke:#181818;stroke-width:1;" x1="167.4849" x2="167.4849" y1="121.2656" y2="141.2656"/><polygon fill="#181818" points="163.4849,131.2656,167.4849,141.2656,171.4849,131.2656,167.4849,135.2656" style="stroke:#181818;stroke-width:1;"/><line style="stroke:#181818;stroke-width:1;" x1="167.4849" x2="167.4849" y1="175.2344" y2="195.2344"/><polygon fill="#181818" points="163.4849,185.2344,167.4849,195.2344,171.4849,185.2344,167.4849,189.2344" style="stroke:#181818;stroke-width:1;"/><line style="stroke:#181818;stroke-width:1;" x1="167.4849" x2="167.4849" y1="229.2031" y2="249.2031"/><polygon fill="#181818" points="163.4849,239.2031,167.4849,249.2031,171.4849,239.2031,167.4849,243.2031" style="stroke:#181818;stroke-width:1;"/><line style="stroke:#181818;stroke-width:1;" x1="167.4849" x2="167.4849" y1="283.1719" y2="303.1719"/><polygon fill="#181818" points="163.4849,293.1719,167.4849,303.1719,171.4849,293.1719,167.4849,297.1719" style="stroke:#181818;stroke-width:1;"/><line style="stroke:#181818;stroke-width:1;" x1="167.4849" x2="167.4849" y1="337.1406" y2="357.1406"/><polygon fill="#181818" points="163.4849,347.1406,167.4849,357.1406,171.4849,347.1406,167.4849,351.1406" style="stroke:#181818;stroke-width:1;"/><line style="stroke:#181818;stroke-width:1;" x1="167.4849" x2="167.4849" y1="391.1094" y2="411.1094"/><polygon fill="#181818" points="163.4849,401.1094,167.4849,411.1094,171.4849,401.1094,167.4849,405.1094" style="stroke:#181818;stroke-width:1;"/><line style="stroke:#181818;stroke-width:1;" x1="167.4849" x2="167.4849" y1="445.0781" y2="465.0781"/><polygon fill="#181818" points="163.4849,455.0781,167.4849,465.0781,171.4849,455.0781,167.4849,459.0781" style="stroke:#181818;stroke-width:1;"/><line style="stroke:#181818;stroke-width:1;" x1="167.4849" x2="167.4849" y1="499.0469" y2="519.0469"/><polygon fill="#181818" points="163.4849,509.0469,167.4849,519.0469,171.4849,509.0469,167.4849,513.0469" style="stroke:#181818;stroke-width:1;"/><line style="stroke:#181818;stroke-width:1;" x1="167.4849" x2="167.4849" y1="553.0156" y2="573.0156"/><polygon fill="#181818" points="163.4849,563.0156,167.4849,573.0156,171.4849,563.0156,167.4849,567.0156" style="stroke:#181818;stroke-width:1;"/><line style="stroke:#181818;stroke-width:1;" x1="167.4849" x2="167.4849" y1="606.9844" y2="626.9844"/><polygon fill="#181818" points="163.4849,616.9844,167.4849,626.9844,171.4849,616.9844,167.4849,620.9844" style="stroke:#181818;stroke-width:1;"/></g></svg>