<svg xmlns="http://www.w3.org/2000/svg" xmlns:xlink="http://www.w3.org/1999/xlink" contentStyleType="text/css" data-diagram-type="ACTIVITY" height="562px" preserveAspectRatio="none" style="width:579px;height:562px;background:#FFFFFF;" version="1.1" viewBox="0 0 579 562" width="579px" zoomAndPan="magnify"><title>&#1602;&#1585;&#1575;&#1569;&#1577; &#1608;&#1578;&#1589;&#1605;&#1610;&#1605; &#1575;&#1604;&#1605;&#1582;&#1591;&#1591;&#1575;&#1578; &#1575;&#1604;&#1603;&#1607;&#1585;&#1576;&#1575;&#1574;&#1610;&#1577; &#1604;&#1604;&#1605;&#1576;&#1575;&#1606;&#1610; &#1575;&#1604;&#1587;&#1603;&#1606;&#1610;&#1577;</title><defs/><g><g class="title" data-source-line="1"><text fill="#000000" font-family="sans-serif" font-size="14" font-weight="bold" lengthAdjust="spacing" textLength="361.6689" x="107.6245" y="32.9951">&#1602;&#1585;&#1575;&#1569;&#1577; &#1608;&#1578;&#1589;&#1605;&#1610;&#1605; &#1575;&#1604;&#1605;&#1582;&#1591;&#1591;&#1575;&#1578; &#1575;&#1604;&#1603;&#1607;&#1585;&#1576;&#1575;&#1574;&#1610;&#1577; &#1604;&#1604;&#1605;&#1576;&#1575;&#1606;&#1610; &#1575;&#1604;&#1587;&#1603;&#1606;&#1610;&#1577;</text></g><ellipse cx="257.1318" cy="57.2969" fill="#222222" rx="10" ry="10" style="stroke:#222222;stroke-width:1;"/><rect fill="#F1F1F1" height="33.9688" rx="12.5" ry="12.5" style="stroke:#181818;stroke-width:0.5;" width="252.0781" x="131.0928" y="87.2969"/><text fill="#000000" font-family="sans-serif" font-size="12" lengthAdjust="spacing" textLength="232.0781" x="141.0928" y="108.4355">&#1601;&#1607;&#1605; &#1571;&#1587;&#1575;&#1587;&#1610;&#1575;&#1578; &#1575;&#1604;&#1603;&#1607;&#1585;&#1576;&#1575;&#1569; (&#1575;&#1604;&#1580;&#1607;&#1583;&#1548; &#1575;&#1604;&#1578;&#1610;&#1575;&#1585;&#1548; &#1575;&#1604;&#1605;&#1602;&#1575;&#1608;&#1605;&#1577;)</text><polygon fill="#F1F1F1" points="197.4348,141.2656,316.8289,141.2656,328.8289,153.2656,316.8289,165.2656,197.4348,165.2656,185.4348,153.2656,197.4348,141.2656" style="stroke:#181818;stroke-width:0.5;"/><text fill="#000000" font-family="sans-serif" font-size="11" lengthAdjust="spacing" textLength="119.394" x="197.4348" y="157.0737">&#1607;&#1604; &#1604;&#1583;&#1610;&#1603; &#1605;&#1582;&#1591;&#1591; &#1603;&#1607;&#1585;&#1576;&#1575;&#1574;&#1610;&#1567;</text><text fill="#000000" font-family="sans-serif" font-size="11" lengthAdjust="spacing" textLength="15.689" x="169.7458" y="150.6714">&#1606;&#1593;&#1605;</text><text fill="#000000" font-family="sans-serif" font-size="11" lengthAdjust="spacing" textLength="6.2734" x="328.8289" y="150.6714">&#1604;&#1575;</text><rect fill="#F1F1F1" height="33.9688" rx="12.5" ry="12.5" style="stroke:#181818;stroke-width:0.5;" width="187.7305" x="18.7871" y="175.2656"/><text fill="#000000" font-family="sans-serif" font-size="12" lengthAdjust="spacing" textLength="167.7305" x="28.7871" y="196.4043">&#1601;&#1581;&#1589; &#1575;&#1604;&#1605;&#1582;&#1591;&#1591; &#1575;&#1604;&#1603;&#1607;&#1585;&#1576;&#1575;&#1574;&#1610; &#1575;&#1604;&#1605;&#1608;&#1580;&#1608;&#1583;</text><rect fill="#F1F1F1" height="33.9688" rx="12.5" ry="12.5" style="stroke:#181818;stroke-width:0.5;" width="203.3047" x="11" y="229.2344"/><text fill="#000000" font-family="sans-serif" font-size="12" lengthAdjust="spacing" textLength="183.3047" x="21" y="250.373">&#1578;&#1581;&#1583;&#1610;&#1583; &#1575;&#1604;&#1585;&#1605;&#1608;&#1586; &#1608;&#1575;&#1604;&#1605;&#1589;&#1591;&#1604;&#1581;&#1575;&#1578; &#1575;&#1604;&#1603;&#1607;&#1585;&#1576;&#1575;&#1574;&#1610;&#1577;</text><rect fill="#F1F1F1" height="33.9688" rx="12.5" ry="12.5" style="stroke:#181818;stroke-width:0.5;" width="188.2754" x="18.5146" y="283.2031"/><text fill="#000000" font-family="sans-serif" font-size="12" lengthAdjust="spacing" textLength="168.2754" x="28.5146" y="304.3418">&#1578;&#1581;&#1583;&#1610;&#1583; &#1605;&#1587;&#1575;&#1585;&#1575;&#1578; &#1575;&#1604;&#1571;&#1587;&#1604;&#1575;&#1603; &#1608;&#1575;&#1604;&#1605;&#1603;&#1608;&#1606;&#1575;&#1578;</text><rect fill="#F1F1F1" height="33.9688" rx="12.5" ry="12.5" style="stroke:#181818;stroke-width:0.5;" width="198.582" x="13.3613" y="337.1719"/><text fill="#000000" font-family="sans-serif" font-size="12" lengthAdjust="spacing" textLength="178.582" x="23.3613" y="358.3105">&#1575;&#1604;&#1578;&#1581;&#1602;&#1602; &#1605;&#1606; &#1575;&#1604;&#1578;&#1608;&#1575;&#1601;&#1602; &#1605;&#1593; &#1575;&#1604;&#1603;&#1608;&#1583; &#1575;&#1604;&#1605;&#1581;&#1604;&#1610;</text><rect fill="#F1F1F1" height="33.9688" rx="12.5" ry="12.5" style="stroke:#181818;stroke-width:0.5;" width="323.709" x="239.7568" y="175.2656"/><text fill="#000000" font-family="sans-serif" font-size="12" lengthAdjust="spacing" textLength="303.709" x="249.7568" y="196.4043">&#1578;&#1581;&#1583;&#1610;&#1583; &#1605;&#1578;&#1591;&#1604;&#1576;&#1575;&#1578; &#1575;&#1604;&#1583;&#1575;&#1574;&#1585;&#1577; &#1575;&#1604;&#1603;&#1607;&#1585;&#1576;&#1575;&#1574;&#1610;&#1577; (&#1575;&#1604;&#1573;&#1590;&#1575;&#1569;&#1577;&#1548; &#1575;&#1604;&#1605;&#1602;&#1575;&#1576;&#1587;&#1548; &#1575;&#1604;&#1571;&#1580;&#1607;&#1586;&#1577;)</text><rect fill="#F1F1F1" height="33.9688" rx="12.5" ry="12.5" style="stroke:#181818;stroke-width:0.5;" width="334.6133" x="234.3047" y="229.2344"/><text fill="#000000" font-family="sans-serif" font-size="12" lengthAdjust="spacing" textLength="314.6133" x="244.3047" y="250.373">&#1575;&#1582;&#1578;&#1610;&#1575;&#1585; &#1575;&#1604;&#1605;&#1603;&#1608;&#1606;&#1575;&#1578; &#1575;&#1604;&#1605;&#1606;&#1575;&#1587;&#1576;&#1577; (&#1575;&#1604;&#1571;&#1587;&#1604;&#1575;&#1603;&#1548; &#1575;&#1604;&#1602;&#1608;&#1575;&#1591;&#1593;&#1548; &#1575;&#1604;&#1605;&#1602;&#1575;&#1576;&#1587;&#1548; &#1575;&#1604;&#1605;&#1601;&#1575;&#1578;&#1610;&#1581;)</text><rect fill="#F1F1F1" height="33.9688" rx="12.5" ry="12.5" style="stroke:#181818;stroke-width:0.5;" width="174.3945" x="314.4141" y="283.2031"/><text fill="#000000" font-family="sans-serif" font-size="12" lengthAdjust="spacing" textLength="154.3945" x="324.4141" y="304.3418">&#1585;&#1587;&#1605; &#1575;&#1604;&#1605;&#1582;&#1591;&#1591; &#1575;&#1604;&#1603;&#1607;&#1585;&#1576;&#1575;&#1574;&#1610; &#1575;&#1604;&#1571;&#1608;&#1604;&#1610;</text><rect fill="#F1F1F1" height="33.9688" rx="12.5" ry="12.5" style="stroke:#181818;stroke-width:0.5;" width="193.25" x="304.9863" y="337.1719"/><text fill="#000000" font-family="sans-serif" font-size="12" lengthAdjust="spacing" textLength="173.25" x="314.9863" y="358.3105">&#1605;&#1585;&#1575;&#1580;&#1593;&#1577; &#1575;&#1604;&#1605;&#1582;&#1591;&#1591; &#1605;&#1593; &#1603;&#1607;&#1585;&#1576;&#1575;&#1574;&#1610; &#1605;&#1572;&#1607;&#1604;</text><polygon fill="#F1F1F1" points="257.1318,377.1406,269.1318,389.1406,257.1318,401.1406,245.1318,389.1406,257.1318,377.1406" style="stroke:#181818;stroke-width:0.5;"/><rect fill="#F1F1F1" height="33.9688" rx="12.5" ry="12.5" style="stroke:#181818;stroke-width:0.5;" width="174.2246" x="170.0195" y="421.1406"/><text fill="#000000" font-family="sans-serif" font-size="12" lengthAdjust="spacing" textLength="154.2246" x="180.0195" y="442.2793">&#1578;&#1606;&#1601;&#1610;&#1584; &#1571;&#1608; &#1578;&#1593;&#1583;&#1610;&#1604; &#1575;&#1604;&#1583;&#1575;&#1574;&#1585;&#1577; &#1575;&#1604;&#1603;&#1607;&#1585;&#1576;&#1575;&#1574;&#1610;&#1577;</text><rect fill="#F1F1F1" height="33.9688" rx="12.5" ry="12.5" style="stroke:#181818;stroke-width:0.5;" width="159.2422" x="177.5107" y="475.1094"/><text fill="#000000" font-family="sans-serif" font-size="12" lengthAdjust="spacing" textLength="139.2422" x="187.5107" y="496.248">&#1575;&#1604;&#1575;&#1582;&#1578;&#1576;&#1575;&#1585; &#1608;&#1575;&#1604;&#1578;&#1581;&#1602;&#1602; &#1605;&#1606; &#1575;&#1604;&#1587;&#1604;&#1575;&#1605;&#1577;</text><ellipse cx="257.1318" cy="540.0781" fill="none" rx="11" ry="11" style="stroke:#222222;stroke-width:1;"/><ellipse cx="257.1318" cy="540.0781" fill="#222222" rx="6" ry="6" style="stroke:#222222;stroke-width:1;"/><line style="stroke:#181818;stroke-width:1;" x1="257.1318" x2="257.1318" y1="67.2969" y2="87.2969"/><polygon fill="#181818" points="253.1318,77.2969,257.1318,87.2969,261.1318,77.2969,257.1318,81.2969" style="stroke:#181818;stroke-width:1;"/><line style="stroke:#181818;stroke-width:1;" x1="112.6523" x2="112.6523" y1="209.2344" y2="229.2344"/><polygon fill="#181818" points="108.6523,219.2344,112.6523,229.2344,116.6523,219.2344,112.6523,223.2344" style="stroke:#181818;stroke-width:1;"/><line style="stroke:#181818;stroke-width:1;" x1="112.6523" x2="112.6523" y1="263.2031" y2="283.2031"/><polygon fill="#181818" points="108.6523,273.2031,112.6523,283.2031,116.6523,273.2031,112.6523,277.2031" style="stroke:#181818;stroke-width:1;"/><line style="stroke:#181818;stroke-width:1;" x1="112.6523" x2="112.6523" y1="317.1719" y2="337.1719"/><polygon fill="#181818" points="108.6523,327.1719,112.6523,337.1719,116.6523,327.1719,112.6523,331.1719" style="stroke:#181818;stroke-width:1;"/><line style="stroke:#181818;stroke-width:1;" x1="401.6113" x2="401.6113" y1="209.2344" y2="229.2344"/><polygon fill="#181818" points="397.6113,219.2344,401.6113,229.2344,405.6113,219.2344,401.6113,223.2344" style="stroke:#181818;stroke-width:1;"/><line style="stroke:#181818;stroke-width:1;" x1="401.6113" x2="401.6113" y1="263.2031" y2="283.2031"/><polygon fill="#181818" points="397.6113,273.2031,401.6113,283.2031,405.6113,273.2031,401.6113,277.2031" style="stroke:#181818;stroke-width:1;"/><line style="stroke:#181818;stroke-width:1;" x1="401.6113" x2="401.6113" y1="317.1719" y2="337.1719"/><polygon fill="#181818" points="397.6113,327.1719,401.6113,337.1719,405.6113,327.1719,401.6113,331.1719" style="stroke:#181818;stroke-width:1;"/><line style="stroke:#181818;stroke-width:1;" x1="185.4348" x2="112.6523" y1="153.2656" y2="153.2656"/><line style="stroke:#181818;stroke-width:1;" x1="112.6523" x2="112.6523" y1="153.2656" y2="175.2656"/><polygon fill="#181818" points="108.6523,165.2656,112.6523,175.2656,116.6523,165.2656,112.6523,169.2656" style="stroke:#181818;stroke-width:1;"/><line style="stroke:#181818;stroke-width:1;" x1="328.8289" x2="401.6113" y1="153.2656" y2="153.2656"/><line style="stroke:#181818;stroke-width:1;" x1="401.6113" x2="401.6113" y1="153.2656" y2="175.2656"/><polygon fill="#181818" points="397.6113,165.2656,401.6113,175.2656,405.6113,165.2656,401.6113,169.2656" style="stroke:#181818;stroke-width:1;"/><line style="stroke:#181818;stroke-width:1;" x1="112.6523" x2="112.6523" y1="371.1406" y2="389.1406"/><line style="stroke:#181818;stroke-width:1;" x1="112.6523" x2="245.1318" y1="389.1406" y2="389.1406"/><polygon fill="#181818" points="235.1318,385.1406,245.1318,389.1406,235.1318,393.1406,239.1318,389.1406" style="stroke:#181818;stroke-width:1;"/><line style="stroke:#181818;stroke-width:1;" x1="401.6113" x2="401.6113" y1="371.1406" y2="389.1406"/><line style="stroke:#181818;stroke-width:1;" x1="401.6113" x2="269.1318" y1="389.1406" y2="389.1406"/><polygon fill="#181818" points="279.1318,385.1406,269.1318,389.1406,279.1318,393.1406,275.1318,389.1406" style="stroke:#181818;stroke-width:1;"/><line style="stroke:#181818;stroke-width:1;" x1="257.1318" x2="257.1318" y1="121.2656" y2="141.2656"/><polygon fill="#181818" points="253.1318,131.2656,257.1318,141.2656,261.1318,131.2656,257.1318,135.2656" style="stroke:#181818;stroke-width:1;"/><line style="stroke:#181818;stroke-width:1;" x1="257.1318" x2="257.1318" y1="401.1406" y2="421.1406"/><polygon fill="#181818" points="253.1318,411.1406,257.1318,421.1406,261.1318,411.1406,257.1318,415.1406" style="stroke:#181818;stroke-width:1;"/><line style="stroke:#181818;stroke-width:1;" x1="257.1318" x2="257.1318" y1="455.1094" y2="475.1094"/><polygon fill="#181818" points="253.1318,465.1094,257.1318,475.1094,261.1318,465.1094,257.1318,469.1094" style="stroke:#181818;stroke-width:1;"/><line style="stroke:#181818;stroke-width:1;" x1="257.1318" x2="257.1318" y1="509.0781" y2="529.0781"/><polygon fill="#181818" points="253.1318,519.0781,257.1318,529.0781,261.1318,519.0781,257.1318,523.0781" style="stroke:#181818;stroke-width:1;"/></g></svg>