<svg xmlns="http://www.w3.org/2000/svg" xmlns:xlink="http://www.w3.org/1999/xlink" contentStyleType="text/css" data-diagram-type="ACTIVITY" height="951px" preserveAspectRatio="none" style="width:520px;height:951px;background:#DDDDDD;" version="1.1" viewBox="0 0 520 951" width="520px" zoomAndPan="magnify"><title>&#1582;&#1591;&#1608;&#1575;&#1578; &#1578;&#1585;&#1603;&#1610;&#1576; &#1605;&#1590;&#1582;&#1575;&#1578; &#1581;&#1585;&#1610;&#1602; (&#1608;&#1601;&#1602; &#1605;&#1593;&#1575;&#1610;&#1610;&#1585; &#1575;&#1604;&#1583;&#1601;&#1575;&#1593; &#1575;&#1604;&#1605;&#1583;&#1606;&#1610;)</title><defs/><g><rect fill="#DDDDDD" height="951" style="stroke:none;stroke-width:1;" width="520" x="0" y="0"/><g class="title" data-source-line="3"><text fill="#000000" font-family="sans-serif" font-size="14" font-weight="bold" lengthAdjust="spacing" textLength="390.5576" x="63.7017" y="32.9951">&#1582;&#1591;&#1608;&#1575;&#1578; &#1578;&#1585;&#1603;&#1610;&#1576; &#1605;&#1590;&#1582;&#1575;&#1578; &#1581;&#1585;&#1610;&#1602; (&#1608;&#1601;&#1602; &#1605;&#1593;&#1575;&#1610;&#1610;&#1585; &#1575;&#1604;&#1583;&#1601;&#1575;&#1593; &#1575;&#1604;&#1605;&#1583;&#1606;&#1610;)</text></g><ellipse cx="273.3682" cy="57.2969" fill="#222222" rx="10" ry="10" style="stroke:#222222;stroke-width:1;"/><rect fill="none" height="136.2344" rx="3.5" ry="3.5" style="stroke:#000000;stroke-width:1.5;" width="280.7734" x="132.9814" y="77.2969"/><path d="M341.1553,77.2969 L341.1553,86.5938 L331.1553,96.5938 L132.9814,96.5938" fill="none" style="stroke:#000000;stroke-width:1.5;"/><text fill="#000000" font-family="sans-serif" font-size="14" lengthAdjust="spacing" textLength="198.1738" x="135.9814" y="91.292">&#1575;&#1604;&#1605;&#1585;&#1581;&#1604;&#1577; &#1575;&#1604;&#1571;&#1608;&#1604;&#1609;: &#1575;&#1604;&#1578;&#1582;&#1591;&#1610;&#1591; &#1608;&#1575;&#1604;&#1575;&#1593;&#1578;&#1605;&#1575;&#1583;</text><rect fill="#F1F1F1" height="33.9688" rx="3.5" ry="3.5" style="stroke:#181818;stroke-width:0.5;" width="260.7734" x="142.9814" y="113.5938"/><text fill="#000000" font-family="sans-serif" font-size="12" lengthAdjust="spacing" textLength="240.7734" x="152.9814" y="134.7324">1. &#1578;&#1602;&#1583;&#1610;&#1605; &#1608;&#1575;&#1593;&#1578;&#1605;&#1575;&#1583; &#1575;&#1604;&#1605;&#1582;&#1591;&#1591;&#1575;&#1578; &#1608;&#1575;&#1604;&#1578;&#1589;&#1575;&#1605;&#1610;&#1605; &#1575;&#1604;&#1607;&#1606;&#1583;&#1587;&#1610;&#1577;</text><rect fill="#F1F1F1" height="33.9688" rx="3.5" ry="3.5" style="stroke:#181818;stroke-width:0.5;" width="243.7813" x="151.4775" y="167.5625"/><text fill="#000000" font-family="sans-serif" font-size="12" lengthAdjust="spacing" textLength="223.7813" x="161.4775" y="188.7012">2. &#1578;&#1580;&#1607;&#1610;&#1586; &#1608;&#1578;&#1571;&#1587;&#1610;&#1587; &#1602;&#1575;&#1593;&#1583;&#1577; &#1575;&#1604;&#1605;&#1590;&#1582;&#1575;&#1578; &#1575;&#1604;&#1582;&#1585;&#1587;&#1575;&#1606;&#1610;&#1577;</text><rect fill="none" height="190.2031" rx="3.5" ry="3.5" style="stroke:#000000;stroke-width:1.5;" width="365.2656" x="90.7354" y="223.5313"/><path d="M300.5771,223.5313 L300.5771,232.8281 L290.5771,242.8281 L90.7354,242.8281" fill="none" style="stroke:#000000;stroke-width:1.5;"/><text fill="#000000" font-family="sans-serif" font-size="14" lengthAdjust="spacing" textLength="199.8418" x="93.7354" y="237.5264">&#1575;&#1604;&#1605;&#1585;&#1581;&#1604;&#1577; &#1575;&#1604;&#1579;&#1575;&#1606;&#1610;&#1577;: &#1575;&#1604;&#1578;&#1585;&#1603;&#1610;&#1576; &#1575;&#1604;&#1605;&#1610;&#1603;&#1575;&#1606;&#1610;&#1603;&#1610;</text><rect fill="#F1F1F1" height="33.9688" rx="3.5" ry="3.5" style="stroke:#181818;stroke-width:0.5;" width="345.2656" x="100.7354" y="259.8281"/><text fill="#000000" font-family="sans-serif" font-size="12" lengthAdjust="spacing" textLength="325.2656" x="110.7354" y="280.9668">3. &#1578;&#1579;&#1576;&#1610;&#1578; &#1608;&#1581;&#1583;&#1575;&#1578; &#1575;&#1604;&#1605;&#1590;&#1582;&#1577; (&#1575;&#1604;&#1585;&#1574;&#1610;&#1587;&#1610;&#1577;&#1548; &#1575;&#1604;&#1580;&#1608;&#1603;&#1610;&#1548; &#1575;&#1604;&#1583;&#1610;&#1586;&#1604;) &#1593;&#1604;&#1609; &#1575;&#1604;&#1602;&#1575;&#1593;&#1583;&#1577;</text><rect fill="#F1F1F1" height="33.9688" rx="3.5" ry="3.5" style="stroke:#181818;stroke-width:0.5;" width="284.1934" x="131.2715" y="313.7969"/><text fill="#000000" font-family="sans-serif" font-size="12" lengthAdjust="spacing" textLength="264.1934" x="141.2715" y="334.9355">4. &#1578;&#1585;&#1603;&#1610;&#1576; &#1575;&#1604;&#1571;&#1606;&#1575;&#1576;&#1610;&#1576; &#1608;&#1608;&#1589;&#1604;&#1575;&#1578; &#1575;&#1604;&#1587;&#1581;&#1576; &#1608;&#1575;&#1604;&#1578;&#1601;&#1585;&#1610;&#1594; (Piping)</text><rect fill="#F1F1F1" height="33.9688" rx="3.5" ry="3.5" style="stroke:#181818;stroke-width:0.5;" width="259.1328" x="143.8018" y="367.7656"/><text fill="#000000" font-family="sans-serif" font-size="12" lengthAdjust="spacing" textLength="239.1328" x="153.8018" y="388.9043">5. &#1578;&#1608;&#1589;&#1610;&#1604; &#1589;&#1605;&#1575;&#1605;&#1575;&#1578; &#1575;&#1604;&#1578;&#1581;&#1603;&#1605; &#1608;&#1571;&#1580;&#1607;&#1586;&#1577; &#1602;&#1610;&#1575;&#1587; &#1575;&#1604;&#1590;&#1594;&#1591;</text><rect fill="none" height="136.2344" rx="3.5" ry="3.5" style="stroke:#000000;stroke-width:1.5;" width="372.9707" x="86.8828" y="423.7344"/><path d="M340.5703,423.7344 L340.5703,433.0313 L330.5703,443.0313 L86.8828,443.0313" fill="none" style="stroke:#000000;stroke-width:1.5;"/><text fill="#000000" font-family="sans-serif" font-size="14" lengthAdjust="spacing" textLength="243.6875" x="89.8828" y="437.7295">&#1575;&#1604;&#1605;&#1585;&#1581;&#1604;&#1577; &#1575;&#1604;&#1579;&#1575;&#1604;&#1579;&#1577;: &#1575;&#1604;&#1578;&#1585;&#1603;&#1610;&#1576; &#1575;&#1604;&#1603;&#1607;&#1585;&#1576;&#1575;&#1574;&#1610; &#1608;&#1575;&#1604;&#1578;&#1581;&#1603;&#1605;</text><rect fill="#F1F1F1" height="33.9688" rx="3.5" ry="3.5" style="stroke:#181818;stroke-width:0.5;" width="324.3945" x="111.1709" y="460.0313"/><text fill="#000000" font-family="sans-serif" font-size="12" lengthAdjust="spacing" textLength="304.3945" x="121.1709" y="481.1699">6. &#1578;&#1585;&#1603;&#1610;&#1576; &#1604;&#1608;&#1581;&#1575;&#1578; &#1575;&#1604;&#1578;&#1581;&#1603;&#1605; (&#1575;&#1604;&#1603;&#1606;&#1578;&#1585;&#1608;&#1604;&#1585;) &#1608;&#1578;&#1608;&#1589;&#1610;&#1604; &#1575;&#1604;&#1591;&#1575;&#1602;&#1577; &#1575;&#1604;&#1603;&#1607;&#1585;&#1576;&#1575;&#1574;&#1610;&#1577;</text><rect fill="#F1F1F1" height="33.9688" rx="3.5" ry="3.5" style="stroke:#181818;stroke-width:0.5;" width="352.9707" x="96.8828" y="514"/><text fill="#000000" font-family="sans-serif" font-size="12" lengthAdjust="spacing" textLength="332.9707" x="106.8828" y="535.1387">7. &#1578;&#1608;&#1589;&#1610;&#1604; &#1581;&#1587;&#1575;&#1587;&#1575;&#1578; &#1575;&#1604;&#1590;&#1594;&#1591; (Pressure Switches) &#1576;&#1583;&#1575;&#1585;&#1575;&#1578; &#1575;&#1604;&#1578;&#1581;&#1603;&#1605;</text><rect fill="none" height="136.2344" rx="3.5" ry="3.5" style="stroke:#000000;stroke-width:1.5;" width="365.9512" x="90.3926" y="569.9688"/><path d="M294.3691,569.9688 L294.3691,579.2656 L284.3691,589.2656 L90.3926,589.2656" fill="none" style="stroke:#000000;stroke-width:1.5;"/><text fill="#000000" font-family="sans-serif" font-size="14" lengthAdjust="spacing" textLength="193.9766" x="93.3926" y="583.9639">&#1575;&#1604;&#1605;&#1585;&#1581;&#1604;&#1577; &#1575;&#1604;&#1585;&#1575;&#1576;&#1593;&#1577;: &#1575;&#1604;&#1575;&#1582;&#1578;&#1576;&#1575;&#1585; &#1608;&#1575;&#1604;&#1578;&#1588;&#1594;&#1610;&#1604;</text><rect fill="#F1F1F1" height="33.9688" rx="3.5" ry="3.5" style="stroke:#181818;stroke-width:0.5;" width="230.9199" x="157.9082" y="606.2656"/><text fill="#000000" font-family="sans-serif" font-size="12" lengthAdjust="spacing" textLength="210.9199" x="167.9082" y="627.4043">8. &#1605;&#1604;&#1569; &#1575;&#1604;&#1606;&#1592;&#1575;&#1605; &#1576;&#1575;&#1604;&#1605;&#1575;&#1569; &#1608;&#1575;&#1582;&#1578;&#1576;&#1575;&#1585; &#1590;&#1594;&#1591; &#1575;&#1604;&#1571;&#1606;&#1575;&#1576;&#1610;&#1576;</text><rect fill="#F1F1F1" height="33.9688" rx="3.5" ry="3.5" style="stroke:#181818;stroke-width:0.5;" width="345.9512" x="100.3926" y="660.2344"/><text fill="#000000" font-family="sans-serif" font-size="12" lengthAdjust="spacing" textLength="325.9512" x="110.3926" y="681.373">9. &#1575;&#1582;&#1578;&#1576;&#1575;&#1585; &#1575;&#1604;&#1578;&#1588;&#1594;&#1610;&#1604; &#1575;&#1604;&#1578;&#1604;&#1602;&#1575;&#1574;&#1610; &#1608;&#1575;&#1604;&#1610;&#1583;&#1608;&#1610; &#1604;&#1604;&#1605;&#1590;&#1582;&#1575;&#1578; (Commissioning)</text><rect fill="none" height="224.2031" rx="3.5" ry="3.5" style="stroke:#000000;stroke-width:1.5;" width="498.9609" x="11" y="716.2031"/><path d="M267.1348,716.2031 L267.1348,725.5 L257.1348,735.5 L11,735.5" fill="none" style="stroke:#000000;stroke-width:1.5;"/><text fill="#000000" font-family="sans-serif" font-size="14" lengthAdjust="spacing" textLength="246.1348" x="14" y="730.1982">&#1575;&#1604;&#1605;&#1585;&#1581;&#1604;&#1577; &#1575;&#1604;&#1582;&#1575;&#1605;&#1587;&#1577;: &#1575;&#1604;&#1601;&#1581;&#1589; &#1608;&#1575;&#1604;&#1575;&#1593;&#1578;&#1605;&#1575;&#1583; &#1575;&#1604;&#1606;&#1607;&#1575;&#1574;&#1610;</text><rect fill="#F1F1F1" height="33.9688" rx="3.5" ry="3.5" style="stroke:#181818;stroke-width:0.5;" width="259.1328" x="143.8018" y="752.5"/><text fill="#000000" font-family="sans-serif" font-size="12" lengthAdjust="spacing" textLength="239.1328" x="153.8018" y="773.6387">10. &#1575;&#1604;&#1578;&#1606;&#1587;&#1610;&#1602; &#1604;&#1591;&#1604;&#1576; &#1601;&#1581;&#1589; &#1608;&#1578;&#1601;&#1578;&#1610;&#1588; &#1575;&#1604;&#1583;&#1601;&#1575;&#1593; &#1575;&#1604;&#1605;&#1583;&#1606;&#1610;</text><polygon fill="#F1F1F1" points="224.0938,806.4688,322.6426,806.4688,334.6426,818.4688,322.6426,830.4688,224.0938,830.4688,212.0938,818.4688,224.0938,806.4688" style="stroke:#181818;stroke-width:0.5;"/><text fill="#000000" font-family="sans-serif" font-size="11" lengthAdjust="spacing" textLength="98.5488" x="224.0938" y="822.2769">&#1607;&#1604; &#1578;&#1605; &#1575;&#1580;&#1578;&#1610;&#1575;&#1586; &#1575;&#1604;&#1601;&#1581;&#1589;&#1567;</text><text fill="#000000" font-family="sans-serif" font-size="11" lengthAdjust="spacing" textLength="15.689" x="196.4048" y="815.8745">&#1606;&#1593;&#1605;</text><text fill="#000000" font-family="sans-serif" font-size="11" lengthAdjust="spacing" textLength="6.2734" x="334.6426" y="815.8745">&#1604;&#1575;</text><rect fill="#F1F1F1" height="33.9688" rx="3.5" ry="3.5" style="stroke:#181818;stroke-width:0.5;" width="253.2559" x="23" y="840.4688"/><text fill="#000000" font-family="sans-serif" font-size="12" lengthAdjust="spacing" textLength="233.2559" x="33" y="861.6074">&#1575;&#1604;&#1581;&#1589;&#1608;&#1604; &#1593;&#1604;&#1609; &#1588;&#1607;&#1575;&#1583;&#1577; &#1575;&#1593;&#1578;&#1605;&#1575;&#1583; &#1575;&#1604;&#1605;&#1606;&#1592;&#1608;&#1605;&#1577; &#1608;&#1575;&#1604;&#1578;&#1588;&#1594;&#1610;&#1604;</text><ellipse cx="149.6279" cy="905.4375" fill="none" rx="11" ry="11" style="stroke:#222222;stroke-width:1;"/><ellipse cx="149.6279" cy="905.4375" fill="#222222" rx="6" ry="6" style="stroke:#222222;stroke-width:1;"/><rect fill="#F1F1F1" height="33.9688" rx="3.5" ry="3.5" style="stroke:#181818;stroke-width:0.5;" width="201.7051" x="296.2559" y="840.4688"/><text fill="#000000" font-family="sans-serif" font-size="12" lengthAdjust="spacing" textLength="181.7051" x="306.2559" y="861.6074">&#1578;&#1606;&#1601;&#1610;&#1584; &#1575;&#1604;&#1605;&#1604;&#1575;&#1581;&#1592;&#1575;&#1578; &#1608;&#1575;&#1604;&#1578;&#1593;&#1583;&#1610;&#1604;&#1575;&#1578; &#1575;&#1604;&#1605;&#1591;&#1604;&#1608;&#1576;&#1577;</text><rect fill="#F1F1F1" height="33.9688" rx="3.5" ry="3.5" style="stroke:#181818;stroke-width:0.5;" width="41.5039" x="376.3564" y="894.4375"/><text fill="#000000" font-family="sans-serif" font-size="12" lengthAdjust="spacing" textLength="21.5039" x="386.3564" y="915.5762">&gt; 9</text><line style="stroke:#454645;stroke-width:1;" x1="273.3682" x2="273.3682" y1="147.5625" y2="167.5625"/><polygon fill="#454645" points="269.3682,157.5625,273.3682,167.5625,277.3682,157.5625,273.3682,161.5625" style="stroke:#454645;stroke-width:1;"/><line style="stroke:#454645;stroke-width:1;" x1="273.3682" x2="273.3682" y1="67.2969" y2="113.5938"/><polygon fill="#454645" points="269.3682,103.5938,273.3682,113.5938,277.3682,103.5938,273.3682,107.5938" style="stroke:#454645;stroke-width:1;"/><line style="stroke:#454645;stroke-width:1;" x1="273.3682" x2="273.3682" y1="293.7969" y2="313.7969"/><polygon fill="#454645" points="269.3682,303.7969,273.3682,313.7969,277.3682,303.7969,273.3682,307.7969" style="stroke:#454645;stroke-width:1;"/><line style="stroke:#454645;stroke-width:1;" x1="273.3682" x2="273.3682" y1="347.7656" y2="367.7656"/><polygon fill="#454645" points="269.3682,357.7656,273.3682,367.7656,277.3682,357.7656,273.3682,361.7656" style="stroke:#454645;stroke-width:1;"/><line style="stroke:#454645;stroke-width:1;" x1="273.3682" x2="273.3682" y1="201.5313" y2="259.8281"/><polygon fill="#454645" points="269.3682,249.8281,273.3682,259.8281,277.3682,249.8281,273.3682,253.8281" style="stroke:#454645;stroke-width:1;"/><line style="stroke:#454645;stroke-width:1;" x1="273.3682" x2="273.3682" y1="494" y2="514"/><polygon fill="#454645" points="269.3682,504,273.3682,514,277.3682,504,273.3682,508" style="stroke:#454645;stroke-width:1;"/><line style="stroke:#454645;stroke-width:1;" x1="273.3682" x2="273.3682" y1="401.7344" y2="460.0313"/><polygon fill="#454645" points="269.3682,450.0313,273.3682,460.0313,277.3682,450.0313,273.3682,454.0313" style="stroke:#454645;stroke-width:1;"/><line style="stroke:#454645;stroke-width:1;" x1="273.3682" x2="273.3682" y1="640.2344" y2="660.2344"/><polygon fill="#454645" points="269.3682,650.2344,273.3682,660.2344,277.3682,650.2344,273.3682,654.2344" style="stroke:#454645;stroke-width:1;"/><line style="stroke:#454645;stroke-width:1;" x1="273.3682" x2="273.3682" y1="547.9688" y2="606.2656"/><polygon fill="#454645" points="269.3682,596.2656,273.3682,606.2656,277.3682,596.2656,273.3682,600.2656" style="stroke:#454645;stroke-width:1;"/><line style="stroke:#454645;stroke-width:1;" x1="149.6279" x2="149.6279" y1="874.4375" y2="894.4375"/><polygon fill="#454645" points="145.6279,884.4375,149.6279,894.4375,153.6279,884.4375,149.6279,888.4375" style="stroke:#454645;stroke-width:1;"/><line style="stroke:#454645;stroke-width:1;" x1="397.1084" x2="397.1084" y1="874.4375" y2="894.4375"/><polygon fill="#454645" points="393.1084,884.4375,397.1084,894.4375,401.1084,884.4375,397.1084,888.4375" style="stroke:#454645;stroke-width:1;"/><line style="stroke:#454645;stroke-width:1;" x1="212.0938" x2="149.6279" y1="818.4688" y2="818.4688"/><line style="stroke:#454645;stroke-width:1;" x1="149.6279" x2="149.6279" y1="818.4688" y2="840.4688"/><polygon fill="#454645" points="145.6279,830.4688,149.6279,840.4688,153.6279,830.4688,149.6279,834.4688" style="stroke:#454645;stroke-width:1;"/><line style="stroke:#454645;stroke-width:1;" x1="334.6426" x2="397.1084" y1="818.4688" y2="818.4688"/><line style="stroke:#454645;stroke-width:1;" x1="397.1084" x2="397.1084" y1="818.4688" y2="840.4688"/><polygon fill="#454645" points="393.1084,830.4688,397.1084,840.4688,401.1084,830.4688,397.1084,834.4688" style="stroke:#454645;stroke-width:1;"/><line style="stroke:#454645;stroke-width:1;" x1="397.1084" x2="397.1084" y1="928.4063" y2="933.4063"/><line style="stroke:#454645;stroke-width:1;" x1="397.1084" x2="273.3682" y1="933.4063" y2="933.4063"/><line style="stroke:#454645;stroke-width:1;" x1="273.3682" x2="273.3682" y1="786.4688" y2="806.4688"/><polygon fill="#454645" points="269.3682,796.4688,273.3682,806.4688,277.3682,796.4688,273.3682,800.4688" style="stroke:#454645;stroke-width:1;"/><line style="stroke:#454645;stroke-width:1;" x1="273.3682" x2="273.3682" y1="694.2031" y2="752.5"/><polygon fill="#454645" points="269.3682,742.5,273.3682,752.5,277.3682,742.5,273.3682,746.5" style="stroke:#454645;stroke-width:1;"/></g></svg>