<svg xmlns="http://www.w3.org/2000/svg" xmlns:xlink="http://www.w3.org/1999/xlink" contentStyleType="text/css" data-diagram-type="ACTIVITY" height="771px" preserveAspectRatio="none" style="width:466px;height:771px;background:#FFFFFF;" version="1.1" viewBox="0 0 466 771" width="466px" zoomAndPan="magnify"><title>&#1604;&#1608;&#1581;&#1577; &#1578;&#1581;&#1603;&#1605; &#1605;&#1590;&#1582;&#1577; &#1575;&#1604;&#1581;&#1585;&#1610;&#1602; (&#1605;&#1593;&#1578;&#1605;&#1583;&#1577; UL/FM)</title><defs/><g><g class="title" data-source-line="5"><text fill="#000000" font-family="'Arial'" font-size="14" font-weight="bold" lengthAdjust="spacing" textLength="288.9414" x="87.4727" y="32.9951">&#1604;&#1608;&#1581;&#1577; &#1578;&#1581;&#1603;&#1605; &#1605;&#1590;&#1582;&#1577; &#1575;&#1604;&#1581;&#1585;&#1610;&#1602; (&#1605;&#1593;&#1578;&#1605;&#1583;&#1577; UL/FM)</text></g><ellipse cx="244.6104" cy="57.2969" fill="#222222" rx="10" ry="10" style="stroke:#222222;stroke-width:1;"/><rect fill="#F1F1F1" height="33.9688" rx="12.5" ry="12.5" style="stroke:#181818;stroke-width:0.5;" width="210.9043" x="139.1582" y="87.2969"/><text fill="#000000" font-family="'Arial'" font-size="12" lengthAdjust="spacing" textLength="190.9043" x="149.1582" y="108.4355">&#1605;&#1587;&#1578;&#1588;&#1593;&#1585; &#1575;&#1604;&#1590;&#1594;&#1591; (Pressure Switch)</text><polygon fill="#F1F1F1" points="184.9509,141.2656,304.2698,141.2656,316.2698,153.2656,304.2698,165.2656,184.9509,165.2656,172.9509,153.2656,184.9509,141.2656" style="stroke:#181818;stroke-width:0.5;"/><text fill="#000000" font-family="'Arial'" font-size="11" lengthAdjust="spacing" textLength="119.3188" x="184.9509" y="157.0737">&#1607;&#1604; &#1575;&#1606;&#1582;&#1601;&#1590; &#1590;&#1594;&#1591; &#1575;&#1604;&#1588;&#1576;&#1603;&#1577;&#1567;</text><text fill="#000000" font-family="'Arial'" font-size="11" lengthAdjust="spacing" textLength="15.689" x="157.262" y="150.6714">&#1606;&#1593;&#1605;</text><text fill="#000000" font-family="'Arial'" font-size="11" lengthAdjust="spacing" textLength="6.2734" x="316.2698" y="150.6714">&#1604;&#1575;</text><rect fill="none" height="259.1719" style="stroke:#000000;stroke-width:1.5;" width="234.7773" x="11" y="175.2656"/><path d="M200.71,175.2656 L200.71,184.5625 L190.71,194.5625 L11,194.5625" fill="none" style="stroke:#000000;stroke-width:1.5;"/><text fill="#000000" font-family="'Arial'" font-size="14" lengthAdjust="spacing" textLength="179.71" x="14" y="189.2607">&#1604;&#1608;&#1581;&#1577; &#1575;&#1604;&#1578;&#1581;&#1603;&#1605; (Control Panel)</text><rect fill="#F1F1F1" height="33.9688" rx="12.5" ry="12.5" style="stroke:#181818;stroke-width:0.5;" width="154.7422" x="51.0176" y="211.5625"/><text fill="#000000" font-family="'Arial'" font-size="12" lengthAdjust="spacing" textLength="134.7422" x="61.0176" y="232.7012">&#1575;&#1587;&#1578;&#1602;&#1576;&#1575;&#1604; &#1573;&#1588;&#1575;&#1585;&#1577; &#1576;&#1583;&#1569; &#1575;&#1604;&#1578;&#1588;&#1594;&#1610;&#1604;</text><rect fill="#F1F1F1" height="33.9688" rx="12.5" ry="12.5" style="stroke:#181818;stroke-width:0.5;" width="214.7773" x="21" y="280.5313"/><text fill="#000000" font-family="'Arial'" font-size="12" lengthAdjust="spacing" textLength="194.7773" x="31" y="301.6699">&#1575;&#1604;&#1578;&#1581;&#1602;&#1602; &#1605;&#1606; &#1605;&#1589;&#1583;&#1585; &#1575;&#1604;&#1591;&#1575;&#1602;&#1577; (&#1603;&#1607;&#1585;&#1576;&#1575;&#1569;/&#1583;&#1610;&#1586;&#1604;)</text><rect fill="#F1F1F1" height="33.9688" rx="12.5" ry="12.5" style="stroke:#181818;stroke-width:0.5;" width="150.7695" x="53.0039" y="334.5"/><text fill="#000000" font-family="'Arial'" font-size="12" lengthAdjust="spacing" textLength="130.7695" x="63.0039" y="355.6387">&#1578;&#1588;&#1594;&#1610;&#1604; &#1605;&#1590;&#1582;&#1577; &#1575;&#1604;&#1581;&#1585;&#1610;&#1602; &#1601;&#1608;&#1585;&#1575;&#1611;</text><rect fill="#F1F1F1" height="33.9688" rx="12.5" ry="12.5" style="stroke:#181818;stroke-width:0.5;" width="132.084" x="62.3467" y="388.4688"/><text fill="#000000" font-family="'Arial'" font-size="12" lengthAdjust="spacing" textLength="112.084" x="72.3467" y="409.6074">&#1578;&#1601;&#1593;&#1610;&#1604; &#1573;&#1606;&#1584;&#1575;&#1585;&#1575;&#1578; &#1575;&#1604;&#1578;&#1588;&#1594;&#1610;&#1604;</text><rect fill="#F1F1F1" height="33.9688" rx="12.5" ry="12.5" style="stroke:#181818;stroke-width:0.5;" width="143.8086" x="56.4844" y="454.4375"/><text fill="#000000" font-family="'Arial'" font-size="12" lengthAdjust="spacing" textLength="123.8086" x="66.4844" y="475.5762">&#1590;&#1582; &#1575;&#1604;&#1605;&#1610;&#1575;&#1607; &#1604;&#1573;&#1591;&#1601;&#1575;&#1569; &#1575;&#1604;&#1581;&#1585;&#1610;&#1602;</text><rect fill="#F1F1F1" height="33.9688" rx="12.5" ry="12.5" style="stroke:#181818;stroke-width:0.5;" width="190.1094" x="265.7773" y="175.2656"/><text fill="#000000" font-family="'Arial'" font-size="12" lengthAdjust="spacing" textLength="170.1094" x="275.7773" y="196.4043">&#1608;&#1590;&#1593; &#1575;&#1604;&#1575;&#1587;&#1578;&#1593;&#1583;&#1575;&#1583; (Standby Mode)</text><rect fill="#F1F1F1" height="33.9688" rx="12.5" ry="12.5" style="stroke:#181818;stroke-width:0.5;" width="185.9727" x="267.8457" y="244.2344"/><text fill="#000000" font-family="'Arial'" font-size="12" lengthAdjust="spacing" textLength="165.9727" x="277.8457" y="265.373">&#1605;&#1585;&#1575;&#1602;&#1576;&#1577; &#1587;&#1604;&#1575;&#1605;&#1577; &#1575;&#1604;&#1583;&#1608;&#1575;&#1574;&#1585; &#1608;&#1575;&#1604;&#1581;&#1587;&#1575;&#1587;&#1575;&#1578;</text><polygon fill="#F1F1F1" points="244.6104,494.4063,256.6104,506.4063,244.6104,518.4063,232.6104,506.4063,244.6104,494.4063" style="stroke:#181818;stroke-width:0.5;"/><rect fill="none" height="190.2031" style="stroke:#000000;stroke-width:1.5;" width="230.0605" x="129.5801" y="528.4063"/><path d="M235.543,528.4063 L235.543,537.7031 L225.543,547.7031 L129.5801,547.7031" fill="none" style="stroke:#000000;stroke-width:1.5;"/><text fill="#000000" font-family="'Arial'" font-size="14" lengthAdjust="spacing" textLength="95.9629" x="132.5801" y="542.4014">&#1575;&#1604;&#1605;&#1585;&#1575;&#1602;&#1576;&#1577; &#1608;&#1575;&#1604;&#1578;&#1581;&#1603;&#1605;</text><rect fill="#F1F1F1" height="33.9688" rx="12.5" ry="12.5" style="stroke:#181818;stroke-width:0.5;" width="180.0488" x="154.5859" y="564.7031"/><text fill="#000000" font-family="'Arial'" font-size="12" lengthAdjust="spacing" textLength="160.0488" x="164.5859" y="585.8418">&#1593;&#1585;&#1590; &#1575;&#1604;&#1581;&#1575;&#1604;&#1577; (Status Display)</text><rect fill="#F1F1F1" height="33.9688" rx="12.5" ry="12.5" style="stroke:#181818;stroke-width:0.5;" width="196.4961" x="146.3623" y="618.6719"/><text fill="#000000" font-family="'Arial'" font-size="12" lengthAdjust="spacing" textLength="176.4961" x="156.3623" y="639.8105">&#1578;&#1587;&#1580;&#1610;&#1604; &#1575;&#1604;&#1571;&#1581;&#1583;&#1575;&#1579; (Event Logging)</text><rect fill="#F1F1F1" height="33.9688" rx="12.5" ry="12.5" style="stroke:#181818;stroke-width:0.5;" width="210.0605" x="139.5801" y="672.6406"/><text fill="#000000" font-family="'Arial'" font-size="12" lengthAdjust="spacing" textLength="190.0605" x="149.5801" y="693.7793">&#1575;&#1604;&#1578;&#1608;&#1602;&#1601; &#1575;&#1604;&#1610;&#1583;&#1608;&#1610; (Manual Stop Only)</text><ellipse cx="244.6104" cy="749.6094" fill="none" rx="11" ry="11" style="stroke:#222222;stroke-width:1;"/><ellipse cx="244.6104" cy="749.6094" fill="#222222" rx="6" ry="6" style="stroke:#222222;stroke-width:1;"/><line style="stroke:#181818;stroke-width:1;" x1="244.6104" x2="244.6104" y1="67.2969" y2="87.2969"/><polygon fill="#181818" points="240.6104,77.2969,244.6104,87.2969,248.6104,77.2969,244.6104,81.2969" style="stroke:#181818;stroke-width:1;"/><line style="stroke:#181818;stroke-width:1;" x1="128.3887" x2="128.3887" y1="245.5313" y2="280.5313"/><polygon fill="#181818" points="124.3887,270.5313,128.3887,280.5313,132.3887,270.5313,128.3887,274.5313" style="stroke:#181818;stroke-width:1;"/><line style="stroke:#181818;stroke-width:1;" x1="128.3887" x2="128.3887" y1="314.5" y2="334.5"/><polygon fill="#181818" points="124.3887,324.5,128.3887,334.5,132.3887,324.5,128.3887,328.5" style="stroke:#181818;stroke-width:1;"/><line style="stroke:#181818;stroke-width:1;" x1="128.3887" x2="128.3887" y1="368.4688" y2="388.4688"/><polygon fill="#181818" points="124.3887,378.4688,128.3887,388.4688,132.3887,378.4688,128.3887,382.4688" style="stroke:#181818;stroke-width:1;"/><line style="stroke:#181818;stroke-width:1;" x1="128.3887" x2="128.3887" y1="422.4375" y2="454.4375"/><polygon fill="#181818" points="124.3887,444.4375,128.3887,454.4375,132.3887,444.4375,128.3887,448.4375" style="stroke:#181818;stroke-width:1;"/><line style="stroke:#181818;stroke-width:1;" x1="360.832" x2="360.832" y1="209.2344" y2="244.2344"/><polygon fill="#181818" points="356.832,234.2344,360.832,244.2344,364.832,234.2344,360.832,238.2344" style="stroke:#181818;stroke-width:1;"/><line style="stroke:#181818;stroke-width:1;" x1="172.9509" x2="128.3887" y1="153.2656" y2="153.2656"/><line style="stroke:#181818;stroke-width:1;" x1="128.3887" x2="128.3887" y1="153.2656" y2="211.5625"/><polygon fill="#181818" points="124.3887,201.5625,128.3887,211.5625,132.3887,201.5625,128.3887,205.5625" style="stroke:#181818;stroke-width:1;"/><line style="stroke:#181818;stroke-width:1;" x1="316.2698" x2="360.832" y1="153.2656" y2="153.2656"/><line style="stroke:#181818;stroke-width:1;" x1="360.832" x2="360.832" y1="153.2656" y2="175.2656"/><polygon fill="#181818" points="356.832,165.2656,360.832,175.2656,364.832,165.2656,360.832,169.2656" style="stroke:#181818;stroke-width:1;"/><line style="stroke:#181818;stroke-width:1;" x1="128.3887" x2="128.3887" y1="488.4063" y2="506.4063"/><line style="stroke:#181818;stroke-width:1;" x1="128.3887" x2="232.6104" y1="506.4063" y2="506.4063"/><polygon fill="#181818" points="222.6104,502.4063,232.6104,506.4063,222.6104,510.4063,226.6104,506.4063" style="stroke:#181818;stroke-width:1;"/><line style="stroke:#181818;stroke-width:1;" x1="360.832" x2="360.832" y1="278.2031" y2="506.4063"/><line style="stroke:#181818;stroke-width:1;" x1="360.832" x2="256.6104" y1="506.4063" y2="506.4063"/><polygon fill="#181818" points="266.6104,502.4063,256.6104,506.4063,266.6104,510.4063,262.6104,506.4063" style="stroke:#181818;stroke-width:1;"/><line style="stroke:#181818;stroke-width:1;" x1="244.6104" x2="244.6104" y1="121.2656" y2="141.2656"/><polygon fill="#181818" points="240.6104,131.2656,244.6104,141.2656,248.6104,131.2656,244.6104,135.2656" style="stroke:#181818;stroke-width:1;"/><line style="stroke:#181818;stroke-width:1;" x1="244.6104" x2="244.6104" y1="598.6719" y2="618.6719"/><polygon fill="#181818" points="240.6104,608.6719,244.6104,618.6719,248.6104,608.6719,244.6104,612.6719" style="stroke:#181818;stroke-width:1;"/><line style="stroke:#181818;stroke-width:1;" x1="244.6104" x2="244.6104" y1="652.6406" y2="672.6406"/><polygon fill="#181818" points="240.6104,662.6406,244.6104,672.6406,248.6104,662.6406,244.6104,666.6406" style="stroke:#181818;stroke-width:1;"/><line style="stroke:#181818;stroke-width:1;" x1="244.6104" x2="244.6104" y1="518.4063" y2="564.7031"/><polygon fill="#181818" points="240.6104,554.7031,244.6104,564.7031,248.6104,554.7031,244.6104,558.7031" style="stroke:#181818;stroke-width:1;"/><line style="stroke:#181818;stroke-width:1;" x1="244.6104" x2="244.6104" y1="706.6094" y2="738.6094"/><polygon fill="#181818" points="240.6104,728.6094,244.6104,738.6094,248.6104,728.6094,244.6104,732.6094" style="stroke:#181818;stroke-width:1;"/></g></svg>