<svg xmlns="http://www.w3.org/2000/svg" xmlns:xlink="http://www.w3.org/1999/xlink" contentStyleType="text/css" data-diagram-type="ACTIVITY" height="677px" preserveAspectRatio="none" style="width:580px;height:677px;background:#FFFFFF;" version="1.1" viewBox="0 0 580 677" width="580px" zoomAndPan="magnify"><title>&#1605;&#1582;&#1591;&#1591; &#1578;&#1580;&#1605;&#1610;&#1593; &#1605;&#1590;&#1582;&#1575;&#1578; &#1580;&#1585;&#1575;&#1606;&#1583;&#1601;&#1608;&#1587; (GRUNDFOS)</title><defs/><g><g class="title" data-source-line="1"><text fill="#000000" font-family="sans-serif" font-size="14" font-weight="bold" lengthAdjust="spacing" textLength="334.2979" x="121.6069" y="32.9951">&#1605;&#1582;&#1591;&#1591; &#1578;&#1580;&#1605;&#1610;&#1593; &#1605;&#1590;&#1582;&#1575;&#1578; &#1580;&#1585;&#1575;&#1606;&#1583;&#1601;&#1608;&#1587; (GRUNDFOS)</text></g><ellipse cx="177.3403" cy="57.2969" fill="#222222" rx="10" ry="10" style="stroke:#222222;stroke-width:1;"/><rect fill="#F0F8FF" height="36.2969" rx="12.5" ry="12.5" style="stroke:#2B547E;stroke-width:0.5;" width="228.0928" x="63.2939" y="87.2969"/><text fill="#000000" font-family="Arial" font-size="14" lengthAdjust="spacing" textLength="208.0928" x="73.2939" y="110.292">&#1578;&#1580;&#1607;&#1610;&#1586; &#1602;&#1575;&#1593;&#1583;&#1577; &#1575;&#1604;&#1605;&#1590;&#1582;&#1577; (Base Plate)</text><rect fill="none" height="197.1875" style="stroke:#000000;stroke-width:1.5;" width="558.5117" x="11" y="133.5938"/><path d="M161.6973,133.5938 L161.6973,142.8906 L151.6973,152.8906 L11,152.8906" fill="none" style="stroke:#000000;stroke-width:1.5;"/><text fill="#000000" font-family="sans-serif" font-size="14" lengthAdjust="spacing" textLength="140.6973" x="14" y="147.5889">&#1578;&#1580;&#1605;&#1610;&#1593; &#1575;&#1604;&#1580;&#1586;&#1569; &#1575;&#1604;&#1607;&#1610;&#1583;&#1585;&#1608;&#1604;&#1610;&#1603;&#1610;</text><rect fill="#F0F8FF" height="36.2969" rx="12.5" ry="12.5" style="stroke:#2B547E;stroke-width:0.5;" width="190.3994" x="82.1406" y="169.8906"/><text fill="#000000" font-family="Arial" font-size="14" lengthAdjust="spacing" textLength="170.3994" x="92.1406" y="192.8857">&#1578;&#1585;&#1603;&#1610;&#1576; &#1593;&#1605;&#1608;&#1583; &#1575;&#1604;&#1583;&#1608;&#1585;&#1575;&#1606; (Shaft)</text><path d="M353.6807,231.7695 L353.6807,240.3359 L333.6807,244.3359 L353.6807,248.3359 L353.6807,256.9023 A0,0 0 0 0 353.6807,256.9023 L559.5117,256.9023 A0,0 0 0 0 559.5117,256.9023 L559.5117,241.7695 L549.5117,231.7695 L353.6807,231.7695 A0,0 0 0 0 353.6807,231.7695" fill="#FFFACD" style="stroke:#DAA520;stroke-width:0.5;"/><path d="M549.5117,231.7695 L549.5117,241.7695 L559.5117,241.7695 L549.5117,231.7695" fill="#FFFACD" style="stroke:#DAA520;stroke-width:0.5;"/><text fill="#000000" font-family="sans-serif" font-size="13" lengthAdjust="spacing" textLength="184.8311" x="359.6807" y="248.8364">&#1575;&#1604;&#1578;&#1571;&#1603;&#1583; &#1605;&#1606; &#1575;&#1604;&#1578;&#1585;&#1578;&#1610;&#1576; &#1575;&#1604;&#1589;&#1581;&#1610;&#1581; &#1604;&#1604;&#1605;&#1585;&#1575;&#1581;&#1604;</text><rect fill="#F0F8FF" height="36.2969" rx="12.5" ry="12.5" style="stroke:#2B547E;stroke-width:0.5;" width="312.6807" x="21" y="226.1875"/><text fill="#000000" font-family="Arial" font-size="14" lengthAdjust="spacing" textLength="292.6807" x="31" y="249.1826">&#1578;&#1580;&#1605;&#1610;&#1593; &#1575;&#1604;&#1583;&#1608;&#1575;&#1601;&#1593; (Impellers) &#1608;&#1575;&#1604;&#1594;&#1585;&#1601; (Chambers)</text><rect fill="#F0F8FF" height="36.2969" rx="12.5" ry="12.5" style="stroke:#2B547E;stroke-width:0.5;" width="257.9521" x="48.3643" y="282.4844"/><text fill="#000000" font-family="Arial" font-size="14" lengthAdjust="spacing" textLength="237.9521" x="58.3643" y="305.4795">&#1578;&#1585;&#1603;&#1610;&#1576; &#1575;&#1604;&#1594;&#1604;&#1575;&#1601; &#1575;&#1604;&#1582;&#1575;&#1585;&#1580;&#1610; (Outer Sleeve)</text><path d="M314.3911,356.3633 L314.3911,364.9297 L294.3911,368.9297 L314.3911,372.9297 L314.3911,381.4961 A0,0 0 0 0 314.3911,381.4961 L494.1333,381.4961 A0,0 0 0 0 494.1333,381.4961 L494.1333,366.3633 L484.1333,356.3633 L314.3911,356.3633 A0,0 0 0 0 314.3911,356.3633" fill="#FFFACD" style="stroke:#DAA520;stroke-width:0.5;"/><path d="M484.1333,356.3633 L484.1333,366.3633 L494.1333,366.3633 L484.1333,356.3633" fill="#FFFACD" style="stroke:#DAA520;stroke-width:0.5;"/><text fill="#000000" font-family="sans-serif" font-size="13" lengthAdjust="spacing" textLength="158.7422" x="320.3911" y="373.4302">&#1588;&#1583; &#1575;&#1604;&#1576;&#1585;&#1575;&#1594;&#1610; &#1576;&#1593;&#1586;&#1605; &#1583;&#1608;&#1585;&#1575;&#1606; &#1605;&#1581;&#1583;&#1583;</text><rect fill="#F0F8FF" height="36.2969" rx="12.5" ry="12.5" style="stroke:#2B547E;stroke-width:0.5;" width="234.1016" x="60.2896" y="350.7813"/><text fill="#000000" font-family="Arial" font-size="14" lengthAdjust="spacing" textLength="214.1016" x="70.2896" y="373.7764">&#1578;&#1585;&#1603;&#1610;&#1576; &#1585;&#1571;&#1587; &#1575;&#1604;&#1605;&#1590;&#1582;&#1577; (Pump Head)</text><rect fill="#F0F8FF" height="36.2969" rx="12.5" ry="12.5" style="stroke:#2B547E;stroke-width:0.5;" width="327.0498" x="13.8154" y="407.0781"/><text fill="#000000" font-family="Arial" font-size="14" lengthAdjust="spacing" textLength="307.0498" x="23.8154" y="430.0732">&#1578;&#1585;&#1603;&#1610;&#1576; &#1605;&#1575;&#1606;&#1593; &#1575;&#1604;&#1578;&#1587;&#1585;&#1576; &#1575;&#1604;&#1605;&#1610;&#1603;&#1575;&#1606;&#1610;&#1603;&#1610; (Mechanical Seal)</text><rect fill="#F0F8FF" height="36.2969" rx="12.5" ry="12.5" style="stroke:#2B547E;stroke-width:0.5;" width="213.3887" x="70.646" y="463.375"/><text fill="#000000" font-family="Arial" font-size="14" lengthAdjust="spacing" textLength="193.3887" x="80.646" y="486.3701">&#1578;&#1579;&#1576;&#1610;&#1578; &#1575;&#1604;&#1605;&#1581;&#1585;&#1603; &#1575;&#1604;&#1603;&#1607;&#1585;&#1576;&#1575;&#1574;&#1610; (Motor)</text><path d="M299.9946,525.2539 L299.9946,533.8203 L279.9946,537.8203 L299.9946,541.8203 L299.9946,550.3867 A0,0 0 0 0 299.9946,550.3867 L435.9316,550.3867 A0,0 0 0 0 435.9316,550.3867 L435.9316,535.2539 L425.9316,525.2539 L299.9946,525.2539 A0,0 0 0 0 299.9946,525.2539" fill="#FFFACD" style="stroke:#DAA520;stroke-width:0.5;"/><path d="M425.9316,525.2539 L425.9316,535.2539 L435.9316,535.2539 L425.9316,525.2539" fill="#FFFACD" style="stroke:#DAA520;stroke-width:0.5;"/><text fill="#000000" font-family="sans-serif" font-size="13" lengthAdjust="spacing" textLength="114.937" x="305.9946" y="542.3208">&#1590;&#1576;&#1591; &#1575;&#1587;&#1578;&#1602;&#1575;&#1605;&#1577; &#1575;&#1604;&#1605;&#1581;&#1608;&#1585;</text><rect fill="#F0F8FF" height="36.2969" rx="12.5" ry="12.5" style="stroke:#2B547E;stroke-width:0.5;" width="205.3086" x="74.686" y="519.6719"/><text fill="#000000" font-family="Arial" font-size="14" lengthAdjust="spacing" textLength="185.3086" x="84.686" y="542.667">&#1585;&#1576;&#1591; &#1602;&#1575;&#1585;&#1606;&#1577; &#1575;&#1604;&#1578;&#1608;&#1589;&#1610;&#1604; (Coupling)</text><rect fill="#F0F8FF" height="36.2969" rx="12.5" ry="12.5" style="stroke:#2B547E;stroke-width:0.5;" width="198.6709" x="78.0049" y="575.9688"/><text fill="#000000" font-family="Arial" font-size="14" lengthAdjust="spacing" textLength="178.6709" x="88.0049" y="598.9639">&#1575;&#1604;&#1601;&#1581;&#1589; &#1575;&#1604;&#1606;&#1607;&#1575;&#1574;&#1610; &#1608;&#1575;&#1582;&#1578;&#1576;&#1575;&#1585; &#1575;&#1604;&#1578;&#1588;&#1594;&#1610;&#1604;</text><ellipse cx="177.3403" cy="643.2656" fill="none" rx="11" ry="11" style="stroke:#222222;stroke-width:1;"/><ellipse cx="177.3403" cy="643.2656" fill="#222222" rx="6" ry="6" style="stroke:#222222;stroke-width:1;"/><line style="stroke:#181818;stroke-width:1;" x1="177.3403" x2="177.3403" y1="67.2969" y2="87.2969"/><polygon fill="#181818" points="173.3403,77.2969,177.3403,87.2969,181.3403,77.2969,177.3403,81.2969" style="stroke:#181818;stroke-width:1;"/><line style="stroke:#181818;stroke-width:1;" x1="177.3403" x2="177.3403" y1="206.1875" y2="226.1875"/><polygon fill="#181818" points="173.3403,216.1875,177.3403,226.1875,181.3403,216.1875,177.3403,220.1875" style="stroke:#181818;stroke-width:1;"/><line style="stroke:#181818;stroke-width:1;" x1="177.3403" x2="177.3403" y1="262.4844" y2="282.4844"/><polygon fill="#181818" points="173.3403,272.4844,177.3403,282.4844,181.3403,272.4844,177.3403,276.4844" style="stroke:#181818;stroke-width:1;"/><line style="stroke:#181818;stroke-width:1;" x1="177.3403" x2="177.3403" y1="123.5938" y2="169.8906"/><polygon fill="#181818" points="173.3403,159.8906,177.3403,169.8906,181.3403,159.8906,177.3403,163.8906" style="stroke:#181818;stroke-width:1;"/><line style="stroke:#181818;stroke-width:1;" x1="177.3403" x2="177.3403" y1="318.7813" y2="350.7813"/><polygon fill="#181818" points="173.3403,340.7813,177.3403,350.7813,181.3403,340.7813,177.3403,344.7813" style="stroke:#181818;stroke-width:1;"/><line style="stroke:#181818;stroke-width:1;" x1="177.3403" x2="177.3403" y1="387.0781" y2="407.0781"/><polygon fill="#181818" points="173.3403,397.0781,177.3403,407.0781,181.3403,397.0781,177.3403,401.0781" style="stroke:#181818;stroke-width:1;"/><line style="stroke:#181818;stroke-width:1;" x1="177.3403" x2="177.3403" y1="443.375" y2="463.375"/><polygon fill="#181818" points="173.3403,453.375,177.3403,463.375,181.3403,453.375,177.3403,457.375" style="stroke:#181818;stroke-width:1;"/><line style="stroke:#181818;stroke-width:1;" x1="177.3403" x2="177.3403" y1="499.6719" y2="519.6719"/><polygon fill="#181818" points="173.3403,509.6719,177.3403,519.6719,181.3403,509.6719,177.3403,513.6719" style="stroke:#181818;stroke-width:1;"/><line style="stroke:#181818;stroke-width:1;" x1="177.3403" x2="177.3403" y1="555.9688" y2="575.9688"/><polygon fill="#181818" points="173.3403,565.9688,177.3403,575.9688,181.3403,565.9688,177.3403,569.9688" style="stroke:#181818;stroke-width:1;"/><line style="stroke:#181818;stroke-width:1;" x1="177.3403" x2="177.3403" y1="612.2656" y2="632.2656"/><polygon fill="#181818" points="173.3403,622.2656,177.3403,632.2656,181.3403,622.2656,177.3403,626.2656" style="stroke:#181818;stroke-width:1;"/><g class="footer" data-source-line="39"><text fill="#888888" font-family="sans-serif" font-size="10" lengthAdjust="spacing" textLength="131.5625" x="222.9746" y="662.5479">&#1585;&#1608;&#1575;&#1574;&#1593; &#1575;&#1604;&#1603;&#1585;&#1610;&#1587;&#1578;&#1575;&#1604; - &#1602;&#1587;&#1605; &#1575;&#1604;&#1607;&#1606;&#1583;&#1587;&#1577;</text></g></g></svg>