<svg xmlns="http://www.w3.org/2000/svg" xmlns:xlink="http://www.w3.org/1999/xlink" contentStyleType="text/css" data-diagram-type="DESCRIPTION" height="343px" preserveAspectRatio="none" style="width:839px;height:343px;background:#FFFFFF;" version="1.1" viewBox="0 0 839 343" width="839px" zoomAndPan="magnify"><title>&#1608;&#1603;&#1610;&#1604; &#1605;&#1590;&#1582;&#1575;&#1578; Grundfos &#1575;&#1604;&#1585;&#1610;&#1575;&#1590;</title><defs/><g><g class="title" data-source-line="1"><text fill="#000000" font-family="sans-serif" font-size="14" font-weight="bold" lengthAdjust="spacing" textLength="222.0586" x="301.7681" y="22.9951">&#1608;&#1603;&#1610;&#1604; &#1605;&#1590;&#1582;&#1575;&#1578; Grundfos &#1575;&#1604;&#1585;&#1610;&#1575;&#1590;</text></g><!--entity Manufacturer--><g class="entity" data-qualified-name="Manufacturer" data-source-line="3" id="ent0002"><rect fill="#F1F1F1" height="46.2969" rx="2.5" ry="2.5" style="stroke:#181818;stroke-width:0.5;" width="213.2637" x="7" y="167.5969"/><rect fill="#F1F1F1" height="10" style="stroke:#181818;stroke-width:0.5;" width="15" x="200.2637" y="172.5969"/><rect fill="#F1F1F1" height="2" style="stroke:#181818;stroke-width:0.5;" width="4" x="198.2637" y="174.5969"/><rect fill="#F1F1F1" height="2" style="stroke:#181818;stroke-width:0.5;" width="4" x="198.2637" y="178.5969"/><text fill="#000000" font-family="sans-serif" font-size="14" lengthAdjust="spacing" textLength="173.2637" x="22" y="200.592">Grundfos (&#1575;&#1604;&#1588;&#1585;&#1603;&#1577; &#1575;&#1604;&#1605;&#1589;&#1606;&#1593;&#1577;)</text></g><!--entity Agent--><g class="entity" data-qualified-name="Agent" data-source-line="4" id="ent0003"><rect fill="#F1F1F1" height="46.2969" rx="2.5" ry="2.5" style="stroke:#181818;stroke-width:0.5;" width="182.1465" x="505.56" y="167.5969"/><rect fill="#F1F1F1" height="10" style="stroke:#181818;stroke-width:0.5;" width="15" x="667.7065" y="172.5969"/><rect fill="#F1F1F1" height="2" style="stroke:#181818;stroke-width:0.5;" width="4" x="665.7065" y="174.5969"/><rect fill="#F1F1F1" height="2" style="stroke:#181818;stroke-width:0.5;" width="4" x="665.7065" y="178.5969"/><text fill="#000000" font-family="sans-serif" font-size="14" lengthAdjust="spacing" textLength="142.1465" x="520.56" y="200.592">&#1608;&#1603;&#1610;&#1604; Grundfos &#1575;&#1604;&#1585;&#1610;&#1575;&#1590;</text></g><!--entity Customers--><g class="entity" data-qualified-name="Customers" data-source-line="5" id="ent0004"><rect fill="#F1F1F1" height="46.2969" rx="2.5" ry="2.5" style="stroke:#181818;stroke-width:0.5;" width="221.9248" x="611.67" y="290.8869"/><rect fill="#F1F1F1" height="10" style="stroke:#181818;stroke-width:0.5;" width="15" x="813.5948" y="295.8869"/><rect fill="#F1F1F1" height="2" style="stroke:#181818;stroke-width:0.5;" width="4" x="811.5948" y="297.8869"/><rect fill="#F1F1F1" height="2" style="stroke:#181818;stroke-width:0.5;" width="4" x="811.5948" y="301.8869"/><text fill="#000000" font-family="sans-serif" font-size="14" lengthAdjust="spacing" textLength="181.9248" x="626.67" y="323.882">&#1575;&#1604;&#1593;&#1605;&#1604;&#1575;&#1569; (&#1587;&#1603;&#1606;&#1610;&#1548; &#1578;&#1580;&#1575;&#1585;&#1610;&#1548; &#1589;&#1606;&#1575;&#1593;&#1610;)</text></g><!--entity Products--><g class="entity" data-qualified-name="Products" data-source-line="6" id="ent0005"><rect fill="#F1F1F1" height="46.2969" rx="2.5" ry="2.5" style="stroke:#181818;stroke-width:0.5;" width="208.2393" x="289.51" y="44.2969"/><rect fill="#F1F1F1" height="10" style="stroke:#181818;stroke-width:0.5;" width="15" x="477.7493" y="49.2969"/><rect fill="#F1F1F1" height="2" style="stroke:#181818;stroke-width:0.5;" width="4" x="475.7493" y="51.2969"/><rect fill="#F1F1F1" height="2" style="stroke:#181818;stroke-width:0.5;" width="4" x="475.7493" y="55.2969"/><text fill="#000000" font-family="sans-serif" font-size="14" lengthAdjust="spacing" textLength="168.2393" x="304.51" y="77.292">&#1605;&#1590;&#1582;&#1575;&#1578; &#1608;&#1605;&#1606;&#1578;&#1580;&#1575;&#1578; Grundfos</text></g><!--entity Services--><g class="entity" data-qualified-name="Services" data-source-line="7" id="ent0006"><rect fill="#F1F1F1" height="46.2969" rx="2.5" ry="2.5" style="stroke:#181818;stroke-width:0.5;" width="290.8926" x="219.19" y="290.8869"/><rect fill="#F1F1F1" height="10" style="stroke:#181818;stroke-width:0.5;" width="15" x="490.0826" y="295.8869"/><rect fill="#F1F1F1" height="2" style="stroke:#181818;stroke-width:0.5;" width="4" x="488.0826" y="297.8869"/><rect fill="#F1F1F1" height="2" style="stroke:#181818;stroke-width:0.5;" width="4" x="488.0826" y="301.8869"/><text fill="#000000" font-family="sans-serif" font-size="14" lengthAdjust="spacing" textLength="250.8926" x="234.19" y="323.882">&#1575;&#1604;&#1582;&#1583;&#1605;&#1575;&#1578; (&#1605;&#1576;&#1610;&#1593;&#1575;&#1578;&#1548; &#1578;&#1585;&#1603;&#1610;&#1576;&#1548; &#1589;&#1610;&#1575;&#1606;&#1577;&#1548; &#1583;&#1593;&#1605; &#1601;&#1606;&#1610;)</text></g><!--link Manufacturer to Agent--><g class="link" data-entity-1="ent0002" data-entity-2="ent0003" data-link-type="dependency" data-source-line="9" id="lnk7"><path d="M145.32,167.1969 C165.58,153.6569 193.05,137.9569 220.13,130.8669 C272.16,117.2469 287.71,124.6969 341.13,130.8669 C400.99,137.7869 461.4006,151.9613 511.4106,165.5713" fill="none" id="Manufacturer-to-Agent" style="stroke:#181818;stroke-width:1;"/><polygon fill="#181818" points="517.2,167.1469,509.5662,160.9239,512.3755,165.8339,507.4655,168.6431,517.2,167.1469" style="stroke:#181818;stroke-width:1;"/><text fill="#000000" font-family="sans-serif" font-size="13" lengthAdjust="spacing" textLength="119.6978" x="221.13" y="133.6638">&#1610;&#1586;&#1608;&#1583; &#1576;&#1575;&#1604;&#1605;&#1606;&#1578;&#1580;&#1575;&#1578; &#1608;&#1575;&#1604;&#1583;&#1593;&#1605;</text></g><!--reverse link Products to Agent--><g class="link" data-entity-1="ent0005" data-entity-2="ent0003" data-link-type="dependency" data-source-line="10" id="lnk9"><path d="M436.4906,94.0545 C472.8406,115.7745 522.39,145.3769 558.78,167.1269" fill="none" id="Products-backto-Agent" style="stroke:#181818;stroke-width:1;"/><polygon fill="#181818" points="431.34,90.9769,437.0141,99.027,435.6321,93.5415,441.1176,92.1595,431.34,90.9769" style="stroke:#181818;stroke-width:1;"/><text fill="#000000" font-family="sans-serif" font-size="13" lengthAdjust="spacing" textLength="61.5723" x="507.63" y="133.6638">&#1610;&#1593;&#1585;&#1590; &#1608;&#1610;&#1576;&#1610;&#1593;</text></g><!--reverse link Customers to Agent--><g class="link" data-entity-1="ent0004" data-entity-2="ent0003" data-link-type="dependency" data-source-line="11" id="lnk11"><path d="M695.0268,286.4663 C672.4368,264.7263 642.67,236.0569 620.04,214.2769" fill="none" id="Customers-backto-Agent" style="stroke:#181818;stroke-width:1;"/><polygon fill="#181818" points="699.35,290.6269,695.6389,281.504,695.7473,287.1598,690.0915,287.2682,699.35,290.6269" style="stroke:#181818;stroke-width:1;"/><text fill="#000000" font-family="sans-serif" font-size="13" lengthAdjust="spacing" textLength="67.5771" x="667.63" y="256.9538">&#1610;&#1582;&#1583;&#1605; &#1608;&#1610;&#1576;&#1610;&#1593; &#1604;&#1600;</text></g><!--link Agent to Services--><g class="link" data-entity-1="ent0003" data-entity-2="ent0006" data-link-type="dependency" data-source-line="12" id="lnk12"><path d="M553.54,214.2769 C512,235.9869 454.7968,265.8964 413.2068,287.6464" fill="none" id="Agent-to-Services" style="stroke:#181818;stroke-width:1;"/><polygon fill="#181818" points="407.89,290.4269,417.7189,289.8007,412.3207,288.1098,414.0116,282.7116,407.89,290.4269" style="stroke:#181818;stroke-width:1;"/><text fill="#000000" font-family="sans-serif" font-size="13" lengthAdjust="spacing" textLength="25.0669" x="494.63" y="256.9538">&#1610;&#1602;&#1583;&#1605;</text></g><!--link Services to Customers--><g class="link" data-entity-1="ent0006" data-entity-2="ent0004" data-link-type="dependency" data-source-line="14" id="lnk13"><path d="M510.5,314.0369 C544.16,314.0369 573.45,314.0369 605.36,314.0369" fill="none" id="Services-to-Customers" style="stroke:#181818;stroke-width:1;"/><polygon fill="#181818" points="611.36,314.0369,602.36,310.0369,606.36,314.0369,602.36,318.0369,611.36,314.0369" style="stroke:#181818;stroke-width:1;"/><text fill="#000000" font-family="sans-serif" font-size="13" lengthAdjust="spacing" textLength="65.1206" x="528.37" y="307.1038">&#1578;&#1615;&#1602;&#1583;&#1605; &#1604;&#1604;&#1593;&#1605;&#1604;&#1575;&#1569;</text></g><!--reverse link Products to Services--><g class="link" data-entity-1="ent0005" data-entity-2="ent0006" data-link-type="dependency" data-source-line="15" id="lnk15"><path d="M390.1637,96.8428 C387.7137,116.9328 384.77,141.2469 381.63,167.5969 C376.44,211.2669 370.5,262.3369 367.2,290.8569" fill="none" id="Products-backto-Services" style="stroke:#181818;stroke-width:1;"/><polygon fill="#181818" points="390.89,90.8869,385.8299,99.3365,390.2847,95.8501,393.7711,100.3049,390.89,90.8869" style="stroke:#181818;stroke-width:1;"/><text fill="#000000" font-family="sans-serif" font-size="13" lengthAdjust="spacing" textLength="104.2539" x="382.63" y="195.3038">&#1578;&#1578;&#1593;&#1575;&#1605;&#1604; &#1605;&#1593; &#1575;&#1604;&#1605;&#1606;&#1578;&#1580;&#1575;&#1578;</text></g></g></svg>