<?plantuml 1.2026.2beta3?><svg xmlns="http://www.w3.org/2000/svg" xmlns:xlink="http://www.w3.org/1999/xlink" contentStyleType="text/css" data-diagram-type="DESCRIPTION" height="617px" preserveAspectRatio="none" style="width:1087px;height:617px;background:#FFFFFF;" version="1.1" viewBox="0 0 1087 617" width="1087px" zoomAndPan="magnify"><title>&#1571;&#1606;&#1608;&#1575;&#1593; &#1605;&#1590;&#1582;&#1575;&#1578; &#1575;&#1604;&#1605;&#1610;&#1575;&#1607; &#1575;&#1604;&#1605;&#1606;&#1586;&#1604;&#1610;&#1577; (&#1585;&#1608;&#1575;&#1574;&#1593; &#1575;&#1604;&#1603;&#1585;&#1610;&#1587;&#1578;&#1575;&#1604;)</title><defs/><g><rect fill="#FFFFCC" height="26.6406" rx="2.5" ry="2.5" style="stroke:#FFDD88;stroke-width:3;" width="1076.6377" x="5" y="5"/><text fill="#000000" font-family="monospace" font-size="10" lengthAdjust="spacing" textLength="355.21" x="10" y="20">Please&#160;use&#160;'!option&#160;handwritten&#160;true'&#160;to&#160;enable&#160;handwritten</text><g class="title" data-source-line="1"><text fill="#000000" font-family="Arial" font-size="14" font-weight="bold" lengthAdjust="spacing" textLength="320.1543" x="369.2417" y="59.6357">&#1571;&#1606;&#1608;&#1575;&#1593; &#1605;&#1590;&#1582;&#1575;&#1578; &#1575;&#1604;&#1605;&#1610;&#1575;&#1607; &#1575;&#1604;&#1605;&#1606;&#1586;&#1604;&#1610;&#1577; (&#1585;&#1608;&#1575;&#1574;&#1593; &#1575;&#1604;&#1603;&#1585;&#1610;&#1587;&#1578;&#1575;&#1604;)</text></g><!--cluster Main--><g class="cluster" data-qualified-name="Main" data-source-line="6" id="ent0002"><polygon fill="none" points="9.5,80.9375,9.5,81.1477,19.4519,80.5232,29.4038,81.1308,39.3558,81.3372,49.3077,80.2241,59.2596,80.8598,69.2115,80.511,79.1635,80.554,89.1154,80.8693,99.0673,80.2461,109.0192,81.4911,118.9712,80.3072,128.9231,80.7397,138.875,81.3694,148.8269,80.8517,158.7788,81.0057,168.7308,80.9056,178.6827,81.116,188.6346,81.1766,198.5865,81.5232,208.5385,81.6086,218.4904,81.6168,228.4423,81.1921,238.3942,81.4011,248.3462,81.6397,258.2981,80.2163,268.25,81.616,278.2019,80.641,288.1538,81.4713,298.1058,80.4425,308.0577,80.869,318.0096,81.6791,327.9615,80.8888,337.9135,81.0428,347.8654,81.2761,357.8173,81.3537,367.7692,80.9336,377.7212,81.2247,387.6731,80.3651,397.625,81.2219,407.5769,81.4857,417.5288,81.382,427.4808,81.5505,437.4327,80.4544,447.3846,80.2853,457.3365,80.3161,467.2885,80.8786,477.2404,80.741,487.1923,81.6189,497.1442,80.7628,507.0962,80.5944,517.0481,81.1658,527,80.2707,536.9519,80.4184,546.9038,81.5865,556.8558,81.3732,566.8077,81.672,576.7596,80.6157,586.7115,81.2567,596.6635,81.5279,606.6154,80.4651,616.5673,80.8416,626.5192,81.0635,636.4712,81.5893,646.4231,80.9333,656.375,81.4001,666.3269,80.3837,676.2788,80.2602,686.2308,81.4411,696.1827,80.2206,706.1346,81.4465,716.0865,81.1441,726.0385,80.6696,735.9904,80.5837,745.9423,81.3963,755.8942,80.6382,765.8462,81.5294,775.7981,80.3848,785.75,81.5549,795.7019,81.4218,805.6538,81.1825,815.6058,80.9847,825.5577,81.6641,835.5096,81.5511,845.4615,81.1068,855.4135,81.2057,865.3654,80.8072,875.3173,81.654,885.2692,81.0924,895.2212,81.1101,905.1731,80.3291,915.125,80.5323,925.0769,81.4682,935.0288,81.3673,944.9808,80.8946,954.9327,80.6153,964.8846,80.7186,974.8365,80.2513,984.7885,81.3522,994.7404,81.6771,1004.6923,81.4639,1014.6442,81.6324,1024.5962,80.8008,1034.5481,81.0247,1044.5,80.9375,1044.4506,80.8181,1044.8898,81.1714,1045.2386,81.3064,1045.6311,81.547,1045.8849,81.4526,1046.2678,81.6697,1046.2264,81.6526,1046.5508,82.0799,1046.7354,82.4492,1046.5493,82.665,1046.7938,83.0592,1047,83.4375,1047.1493,83.4375,1046.3892,93.3562,1047.3534,103.2749,1047.258,113.1935,1046.8992,123.1122,1047.1422,133.0309,1047.7287,142.9496,1046.6871,152.8683,1047.315,162.7869,1047.2856,172.7056,1047.1158,182.6243,1047.1409,192.543,1047.1135,202.4617,1046.3758,212.3803,1046.5992,222.299,1046.5385,232.2177,1047.0638,242.1364,1047.0881,252.055,1047.1617,261.9737,1046.709,271.8924,1046.9325,281.8111,1046.8798,291.7298,1047.5769,301.6484,1047.4266,311.5671,1046.5145,321.4858,1046.9271,331.4045,1046.4228,341.3232,1047.2884,351.2418,1047.6085,361.1605,1047.5446,371.0792,1046.5644,380.9979,1047.464,390.9166,1046.2572,400.8352,1047.2002,410.7539,1046.7007,420.6726,1047.0967,430.5913,1047.2403,440.51,1047.4721,450.4286,1046.2801,460.3473,1047.4755,470.266,1047.1782,480.1847,1047.3553,490.1033,1047.7478,500.022,1047.0055,509.9407,1047.1753,519.8594,1047.2134,529.7781,1047.1972,539.6967,1046.9992,549.6154,1047.7107,559.5341,1046.3903,569.4528,1047.5653,579.3715,1046.376,589.2901,1046.4597,599.2088,1047,609.1275,1047.0123,609.1326,1046.8623,609.4847,1046.5553,609.7717,1046.6881,610.2409,1046.4477,610.5556,1046.2678,610.8953,1046.3605,611.119,1045.9993,611.2472,1045.5035,611.0501,1045.1563,611.2121,1044.8371,611.4413,1044.5,611.6275,1044.5,611.983,1034.5481,612.0305,1024.5962,611.9287,1014.6442,611.2855,1004.6923,612.2639,994.7404,612.2613,984.7885,611.5802,974.8365,611.3884,964.8846,611.2261,954.9327,611.4129,944.9808,611.7649,935.0288,611.5591,925.0769,611.2097,915.125,612.1149,905.1731,611.1686,895.2212,612.1299,885.2692,612.0547,875.3173,611.9994,865.3654,612.32,855.4135,611.3816,845.4615,611.3269,835.5096,612.1464,825.5577,611.0306,815.6058,611.3935,805.6538,611.743,795.7019,611.6962,785.75,611.269,775.7981,611.5845,765.8462,612.3721,755.8942,612.276,745.9423,611.0312,735.9904,611.706,726.0385,611.1136,716.0865,611.6012,706.1346,611.9205,696.1827,612.0474,686.2308,610.9628,676.2788,612.028,666.3269,611.6359,656.375,611.0722,646.4231,611.1564,636.4712,611.9541,626.5192,611.8774,616.5673,611.6111,606.6154,610.9554,596.6635,612.2856,586.7115,611.3157,576.7596,611.0994,566.8077,611.5602,556.8558,612.2172,546.9038,612.2429,536.9519,611.6626,527,611.4763,517.0481,611.7973,507.0962,611.8137,497.1442,611.1197,487.1923,612.0415,477.2404,612.1863,467.2885,611.4117,457.3365,611.1983,447.3846,612.3021,437.4327,611.6485,427.4808,611.6273,417.5288,611.9265,407.5769,610.9818,397.625,612.1575,387.6731,611.6121,377.7212,612.2963,367.7692,611.4116,357.8173,612.0365,347.8654,611.1835,337.9135,611.8725,327.9615,612.0068,318.0096,611.3002,308.0577,611.9905,298.1058,611.0561,288.1538,611.157,278.2019,612.3103,268.25,612.3119,258.2981,612.196,248.3462,611.2671,238.3942,612.0117,228.4423,611.1554,218.4904,611.6857,208.5385,611.6262,198.5865,611.3651,188.6346,612.2434,178.6827,612.0708,168.7308,611.3067,158.7788,612.1541,148.8269,611.7194,138.875,611.0439,128.9231,611.3942,118.9712,611.1022,109.0192,611.4884,99.0673,610.9985,89.1154,611.0273,79.1635,611.6978,69.2115,611.5071,59.2596,611.5689,49.3077,611.4843,39.3558,611.7948,29.4038,611.0724,19.4519,611.7876,9.5,611.6275,9.4052,611.3986,9.1842,611.5722,8.8685,611.5172,8.5059,611.3489,8.1319,611.153,7.7322,610.8953,7.7914,610.9198,7.6183,610.5552,7.2422,610.1065,7.4304,609.8916,7.248,609.5231,7,609.1275,6.8466,609.1275,6.9942,599.2088,6.7914,589.2901,7.2177,579.3715,7.6805,569.4528,6.6461,559.5341,7.4689,549.6154,6.9108,539.6967,6.6207,529.7781,6.5681,519.8594,6.3553,509.9407,6.5591,500.022,7.0363,490.1033,7.273,480.1847,7.5762,470.266,7.4201,460.3473,6.2886,450.4286,7.619,440.51,7.4861,430.5913,7.5407,420.6726,7.5219,410.7539,6.3409,400.8352,6.7423,390.9166,7.316,380.9979,6.5185,371.0792,6.8971,361.1605,7.067,351.2418,7.3261,341.3232,7.0458,331.4045,7.7447,321.4858,7.4114,311.5671,7.2561,301.6484,6.4601,291.7298,7.3388,281.8111,6.4255,271.8924,7.3057,261.9737,7.0078,252.055,7.2995,242.1364,6.9126,232.2177,6.8039,222.299,6.2591,212.3803,6.7856,202.4617,6.2951,192.543,6.7539,182.6243,7.4379,172.7056,7.1607,162.7869,6.5485,152.8683,7.2458,142.9496,7.0656,133.0309,7.5433,123.1122,7.5649,113.1935,7.0937,103.2749,6.821,93.3562,7,83.4375,6.934,83.4101,7.1445,83.0831,7.499,82.8158,7.2319,82.2909,7.5353,82.0024,7.7322,81.6697,7.7663,81.7519,8.1791,81.7486,8.4664,81.4421,8.7676,81.1693,9.0523,80.8567,9.5,80.9375" style="stroke:#181818;stroke-width:1;"/><text fill="#000000" font-family="Arial" font-size="14" font-weight="bold" lengthAdjust="spacing" textLength="153.6309" x="450.1846" y="95.9326">&#1605;&#1590;&#1582;&#1575;&#1578; &#1575;&#1604;&#1605;&#1610;&#1575;&#1607; &#1575;&#1604;&#1605;&#1606;&#1586;&#1604;&#1610;&#1577;</text></g><!--cluster Types--><g class="cluster" data-qualified-name="Main.Types" data-source-line="11" id="ent0006"><polygon fill="none" points="41.5,311.8475,41.5,312.0577,51.5103,311.4332,61.5206,312.0408,71.5309,312.2472,81.5412,311.1341,91.5515,311.7698,101.5619,311.421,111.5722,311.464,121.5825,311.7793,131.5928,311.1561,141.6031,312.4011,151.6134,311.2172,161.6237,311.6497,171.634,312.2794,181.6443,311.7617,191.6546,311.9157,201.6649,311.8156,211.6753,312.026,221.6856,312.0866,231.6959,312.4332,241.7062,312.5186,251.7165,312.5268,261.7268,312.1021,271.7371,312.3111,281.7474,312.5497,291.7577,311.1263,301.768,312.526,311.7784,311.551,321.7887,312.3813,331.799,311.3525,341.8093,311.779,351.8196,312.5891,361.8299,311.7988,371.8402,311.9528,381.8505,312.1861,391.8608,312.2637,401.8711,311.8436,411.8814,312.1347,421.8918,311.2751,431.9021,312.1319,441.9124,312.3957,451.9227,312.292,461.933,312.4605,471.9433,311.3644,481.9536,311.1953,491.9639,311.2261,501.9742,311.7886,511.9845,311.651,521.9948,312.5289,532.0052,311.6728,542.0155,311.5044,552.0258,312.0758,562.0361,311.1807,572.0464,311.3284,582.0567,312.4965,592.067,312.2832,602.0773,312.582,612.0876,311.5257,622.0979,312.1667,632.1082,312.4379,642.1186,311.3751,652.1289,311.7516,662.1392,311.9735,672.1495,312.4993,682.1598,311.8433,692.1701,312.3101,702.1804,311.2937,712.1907,311.1702,722.201,312.3511,732.2113,311.1306,742.2216,312.3565,752.232,312.0541,762.2423,311.5796,772.2526,311.4937,782.2629,312.3063,792.2732,311.5482,802.2835,312.4394,812.2938,311.2948,822.3041,312.4649,832.3144,312.3318,842.3247,312.0925,852.3351,311.8947,862.3454,312.5741,872.3557,312.4611,882.366,312.0168,892.3763,312.1157,902.3866,311.7172,912.3969,312.564,922.4072,312.0024,932.4175,312.0201,942.4278,311.2391,952.4381,311.4423,962.4485,312.3782,972.4588,312.2773,982.4691,311.8046,992.4794,311.5253,1002.4897,311.6286,1012.5,311.8475,1012.4125,311.6362,1012.9065,312.1217,1013.3014,312.3681,1013.6278,312.4489,1014.0029,312.6473,1014.2678,312.5797,1014.2257,312.5623,1014.4411,312.9444,1014.4413,313.2374,1014.7946,313.6766,1014.9295,314.0254,1015,314.3475,1015.5524,314.3475,1014.7703,324.0864,1014.8656,333.8253,1015.4435,343.5642,1015.5673,353.3031,1014.4875,363.0419,1014.8061,372.7808,1015.1493,382.5197,1014.3892,392.2586,1015.3534,401.9975,1015.258,411.7364,1014.8992,421.4753,1015.1422,431.2142,1015.7287,440.9531,1014.6871,450.6919,1015.315,460.4308,1015.2856,470.1697,1015.1158,479.9086,1015,489.6475,1015.0434,489.6655,1014.8885,490.0155,1014.5149,490.275,1014.4372,490.657,1014.2721,491.0028,1014.2678,491.4153,1014.2759,491.4349,1013.9255,491.5889,1013.5813,491.758,1013.17,491.765,1012.8449,491.9803,1012.5,492.1475,1012.5,492.0273,1002.4897,492.7244,992.4794,492.5741,982.4691,491.662,972.4588,492.0746,962.4485,491.5703,952.4381,492.4359,942.4278,492.756,932.4175,492.6921,922.4072,491.7119,912.3969,492.6115,902.3866,491.4047,892.3763,492.3477,882.366,491.8482,872.3557,492.2442,862.3454,492.3878,852.3351,492.6196,842.3247,491.4276,832.3144,492.623,822.3041,492.3257,812.2938,492.5028,802.2835,492.8953,792.2732,492.153,782.2629,492.3228,772.2526,492.3609,762.2423,492.3447,752.232,492.1467,742.2216,492.8582,732.2113,491.5378,722.201,492.7128,712.1907,491.5235,702.1804,491.6072,692.1701,492.1875,682.1598,492.1758,672.1495,491.6547,662.1392,492.5612,652.1289,492.2564,642.1186,492.8742,632.1082,492.8146,622.0979,491.6992,612.0876,491.7496,602.0773,492.0183,592.067,492.503,582.0567,492.5505,572.0464,492.4487,562.0361,491.8055,552.0258,492.7839,542.0155,492.7813,532.0052,492.1002,521.9948,491.9084,511.9845,491.7461,501.9742,491.9329,491.9639,492.2849,481.9536,492.0791,471.9433,491.7297,461.933,492.6349,451.9227,491.6886,441.9124,492.6499,431.9021,492.5747,421.8918,492.5194,411.8814,492.84,401.8711,491.9016,391.8608,491.8469,381.8505,492.6664,371.8402,491.5506,361.8299,491.9135,351.8196,492.263,341.8093,492.2162,331.799,491.789,321.7887,492.1045,311.7784,492.8921,301.768,492.796,291.7577,491.5512,281.7474,492.226,271.7371,491.6336,261.7268,492.1212,251.7165,492.4405,241.7062,492.5674,231.6959,491.4828,221.6856,492.548,211.6753,492.1559,201.6649,491.5922,191.6546,491.6764,181.6443,492.4741,171.634,492.3974,161.6237,492.1311,151.6134,491.4754,141.6031,492.8056,131.5928,491.8357,121.5825,491.6194,111.5722,492.0802,101.5619,492.7372,91.5515,492.7629,81.5412,492.1826,71.5309,491.9963,61.5206,492.3173,51.5103,492.3337,41.5,492.1475,41.4352,491.9911,41.1993,492.1285,40.8642,492.0267,40.4118,491.6417,40.031,491.4295,39.7322,491.4153,39.94,491.5013,39.5923,491.0644,39.4393,490.7081,39.385,490.3928,38.9476,489.9187,39,489.6475,39.53,489.6475,38.9846,479.9086,39.6688,470.1697,38.7841,460.4308,39.409,450.6919,38.556,440.9531,39.245,431.2142,39.3793,421.4753,38.6727,411.7364,39.363,401.9975,38.4286,392.2586,38.5295,382.5197,39.6828,372.7808,39.6844,363.0419,39.5685,353.3031,38.6396,343.5642,39.3842,333.8253,38.5279,324.0864,39,314.3475,39.0179,314.3549,39.1461,313.9938,39.2121,313.6069,39.629,313.3654,39.7223,312.9898,39.7322,312.5797,39.6913,312.481,40.153,312.5955,40.4511,312.3151,40.7185,311.9607,41.1167,311.9221,41.5,311.8475" style="stroke:#181818;stroke-width:1;"/><text fill="#000000" font-family="Arial" font-size="14" font-weight="bold" lengthAdjust="spacing" textLength="106.7705" x="473.6147" y="326.8426">&#1575;&#1604;&#1571;&#1606;&#1608;&#1575;&#1593; &#1575;&#1604;&#1585;&#1574;&#1610;&#1587;&#1610;&#1577;</text></g><!--cluster ????? ???????--><g class="cluster" data-qualified-name="Main.Types...... ......." data-source-line="12" id="ent0007"><path d="M73.5,362.8475 L73.5,363.408 L83.4989,361.7426 L93.4977,363.3629 L103.4966,363.9133 L113.4954,360.9451 L123.4943,362.6403 L133.4932,361.7102 L143.492,361.8248 L153.4909,362.6657 L163.4897,361.0038 L173.4886,364.3239 L183.4875,361.1668 L193.4863,362.8475 L195.9863,365.3475 L195.8206,365.2889 L197.7483,369.4349 L198.7144,373.2408 L200.2435,377.2458 L201.5596,381.1755 L202.9863,385.1444 L202.9863,385.6204 L213.0035,385.7821 L223.0206,386.7062 L233.0377,386.9339 L243.0548,386.9557 L253.0719,385.8234 L263.0891,386.3806 L273.1062,387.017 L283.1233,383.2212 L293.1404,386.9537 L303.1576,384.3537 L313.1747,386.5679 L323.1918,383.8243 L333.2089,384.9617 L343.226,387.122 L353.2432,385.0144 L363.2603,385.4252 L373.2774,386.0474 L383.2945,386.2543 L393.3117,385.134 L403.3288,385.9103 L413.3459,383.6179 L423.363,385.9027 L433.3801,386.6062 L443.3973,386.3298 L453.4144,386.7791 L463.4315,383.8562 L473.4486,383.4052 L483.4658,383.4873 L493.4829,384.9874 L503.5,385.1444 L506,387.6444 L505.4759,387.6444 L507.8171,397.6448 L505.5342,407.6453 L505.0852,417.6457 L506.6087,427.6462 L504.2218,437.6466 L504.6157,447.6471 L506,457.6475 L503.5,460.1475 L503.5,461.878 L493.5,461.3093 L483.5,462.1061 L473.5,459.2894 L463.5,460.9987 L453.5,461.722 L443.5,458.8878 L433.5,459.8919 L423.5,460.4835 L413.5,461.8855 L403.5,460.1363 L393.5,461.381 L383.5,458.6707 L373.5,458.3415 L363.5,461.4905 L353.5,458.2357 L343.5,461.5047 L333.5,460.6985 L323.5,459.4331 L313.5,459.2041 L303.5,461.3709 L293.5,459.3493 L283.5,461.7258 L273.5,458.6735 L263.5,461.794 L253.5,461.439 L243.5,460.8007 L233.5,460.2734 L223.5,462.0851 L213.5,461.7837 L203.5,460.5988 L193.5,460.8627 L183.5,459.8001 L173.5,462.058 L163.5,460.5605 L153.5,460.6077 L143.5,458.5252 L133.5,459.0669 L123.5,461.5628 L113.5,461.2935 L103.5,460.033 L93.5,459.2884 L83.5,459.5637 L73.5,460.1475 L71,457.6475 L69.1702,457.6475 L72.106,447.3919 L72.9722,437.1364 L72.4037,426.8808 L72.8532,416.6253 L70.6354,406.3697 L71.2326,396.1142 L69.9664,385.8586 L71.7574,375.6031 L71,365.3475 L73.5,362.8475" fill="none" style="stroke:#000000;stroke-width:1.5;"/><path d="M71,385.1444 L71,385.4246 L81.1528,384.5919 L91.3056,385.4021 L101.4584,385.6773 L111.6112,384.1932 L121.764,385.0408 L131.9168,384.5757 L142.0696,384.633 L152.2224,385.0535 L162.3752,384.2225 L172.5279,385.8826 L182.6807,384.304 L192.8335,384.8807 L202.9863,385.1444" fill="none" style="stroke:#000000;stroke-width:1.5;"/><text fill="#000000" font-family="Arial" font-size="14" font-weight="bold" lengthAdjust="spacing" textLength="118.9863" x="75" y="377.8426">&#1605;&#1590;&#1582;&#1575;&#1578; &#1575;&#1604;&#1587;&#1591;&#1581;&#1610;&#1577;</text></g><!--cluster ????? ??????? (Submersible)--><g class="cluster" data-qualified-name="Main.Types...... ....... .Submersible." data-source-line="16" id="ent0010"><path d="M532.5,362.8475 L532.5,363.408 L542.6333,361.7426 L552.7666,363.3629 L562.9,363.9133 L573.0333,360.9451 L583.1666,362.6403 L593.2999,361.7102 L603.4333,361.8248 L613.5666,362.6657 L623.6999,361.0038 L633.8332,364.3239 L643.9665,361.1668 L654.0999,362.3201 L664.2332,363.9994 L674.3665,362.6188 L684.4998,363.0295 L694.6332,362.7623 L704.7665,363.3236 L714.8998,363.4852 L725.0331,364.4093 L735.1664,364.637 L745.2998,364.6589 L755.4331,363.5265 L765.5664,362.8475 L768.0664,365.3475 L768.4549,365.4849 L770.0549,369.515 L770.262,373.0525 L772.835,377.4267 L773.4179,381.0971 L775.0664,385.1444 L775.0664,386.5679 L784.9381,383.8243 L794.8098,384.9617 L804.6814,387.122 L814.5531,385.0144 L824.4248,385.4252 L834.2965,386.0474 L844.1682,386.2543 L854.0398,385.134 L863.9115,385.9103 L873.7832,383.6179 L883.6549,385.9027 L893.5266,386.6062 L903.3982,386.3298 L913.2699,386.7791 L923.1416,383.8562 L933.0133,383.4052 L942.885,383.4873 L952.7566,384.9874 L962.6283,384.6203 L972.5,385.1444 L975,387.6444 L976.8171,387.6444 L974.5342,397.6448 L974.0852,407.6453 L975.6087,417.6457 L973.2218,427.6462 L973.6157,437.6466 L976.7305,447.6471 L975,457.6475 L972.5,460.1475 L972.5,461.3093 L962.5,462.1061 L952.5,459.2894 L942.5,460.9987 L932.5,461.722 L922.5,458.8878 L912.5,459.8919 L902.5,460.4835 L892.5,461.8855 L882.5,460.1363 L872.5,461.381 L862.5,458.6707 L852.5,458.3415 L842.5,461.4905 L832.5,458.2357 L822.5,461.5047 L812.5,460.6985 L802.5,459.4331 L792.5,459.2041 L782.5,461.3709 L772.5,459.3493 L762.5,461.7258 L752.5,458.6735 L742.5,461.794 L732.5,461.439 L722.5,460.8007 L712.5,460.2734 L702.5,462.0851 L692.5,461.7837 L682.5,460.5988 L672.5,460.8627 L662.5,459.8001 L652.5,462.058 L642.5,460.5605 L632.5,460.6077 L622.5,458.5252 L612.5,459.0669 L602.5,461.5628 L592.5,461.2935 L582.5,460.033 L572.5,459.2884 L562.5,459.5637 L552.5,458.3177 L542.5,461.2535 L532.5,460.1475 L530,457.6475 L531.9722,457.6475 L531.4037,447.3919 L531.8532,437.1364 L529.6354,426.8808 L530.2326,416.6253 L528.9664,406.3697 L530.7574,396.1142 L530.658,385.8586 L531.473,375.6031 L530,365.3475 L532.5,362.8475" fill="none" style="stroke:#000000;stroke-width:1.5;"/><path d="M530,385.1444 L530,385.4246 L539.8027,384.5919 L549.6053,385.4021 L559.408,385.6773 L569.2106,384.1932 L579.0133,385.0408 L588.8159,384.5757 L598.6186,384.633 L608.4213,385.0535 L618.2239,384.2225 L628.0266,385.8826 L637.8292,384.304 L647.6319,384.8807 L657.4345,385.7203 L667.2372,385.03 L677.0398,385.2354 L686.8425,385.1018 L696.6452,385.3824 L706.4478,385.4632 L716.2505,385.9253 L726.0531,386.0391 L735.8558,386.0501 L745.6584,385.4839 L755.4611,385.7625 L765.2638,386.0807 L775.0664,385.1444" fill="none" style="stroke:#000000;stroke-width:1.5;"/><text fill="#000000" font-family="Arial" font-size="14" font-weight="bold" lengthAdjust="spacing" textLength="232.0664" x="534" y="377.8426">&#1605;&#1590;&#1582;&#1575;&#1578; &#1575;&#1604;&#1594;&#1575;&#1591;&#1587;&#1577; (Submersible)</text></g><!--entity Need--><g class="entity" data-qualified-name="Main.Need" data-source-line="7" id="ent0003"><polygon fill="#F1F1F1" points="992.3587,132.6517,991.2325,135.1096,986.9342,136.9799,982.0022,138.8431,977.9308,141.0072,970.2492,142.2411,963.2315,143.567,954.9948,144.4225,945.9199,144.8323,938.0386,145.2525,927.349,144.5915,920.5277,144.518,911.7055,143.4784,903.217,142.0437,897.2691,140.7641,891.293,138.9715,886.8219,137.0671,883.1206,134.88,880.9645,132.6405,879.7496,130.2343,880.3153,127.9292,882.3679,125.71,886.3911,123.7689,890.6987,121.7448,896.0846,119.9194,904.9503,118.9906,910.3882,117.2577,920.0259,116.7632,927.3788,115.9096,937.7434,116.1292,945.9204,116.1428,953.3036,116.3611,962.6637,117.5394,969.9741,118.6705,976.3494,120.0602,981.9773,121.7631,987.2306,123.8691,990.178,125.8618,993.535,128.4108,992.9411,130.351" style="stroke:#181818;stroke-width:0.5;"/><text fill="#000000" font-family="Arial" font-size="14" lengthAdjust="spacing" textLength="75.4756" x="899.2615" y="135.1096">&#1578;&#1602;&#1610;&#1610;&#1605; &#1575;&#1604;&#1575;&#1581;&#1578;&#1610;&#1575;&#1580;</text></g><!--entity Selection--><g class="entity" data-qualified-name="Main.Selection" data-source-line="8" id="ent0004"><polygon fill="#F1F1F1" points="1010.8126,226.0475,1009.3111,228.9974,1003.5804,231.242,997.0049,233.4783,991.5766,236.0755,981.335,237.5564,971.9788,239.1477,960.9972,240.1745,948.8979,240.6664,938.3901,241.1707,924.1382,240.3774,915.0437,240.2892,903.2814,239.0414,891.9641,237.3195,884.0342,235.7838,876.0665,233.6323,870.1054,231.3467,865.1705,228.7219,862.296,226.0341,860.6762,223.1462,861.4304,220.3797,864.167,217.7162,869.5311,215.3866,875.2742,212.9573,882.4549,210.7665,894.2752,209.6517,901.5253,207.572,914.3747,206.9785,924.178,205.954,937.9966,206.2176,948.8986,206.2339,958.7423,206.4959,971.2217,207.91,980.9683,209.2676,989.4682,210.9355,996.9717,212.9793,1003.9756,215.5068,1007.9052,217.8985,1012.381,220.9577,1011.5892,223.2862" style="stroke:#181818;stroke-width:0.5;"/><text fill="#000000" font-family="Arial" font-size="14" lengthAdjust="spacing" textLength="119.1025" x="877.4533" y="228.0668">&#1575;&#1582;&#1578;&#1610;&#1575;&#1585; &#1575;&#1604;&#1606;&#1608;&#1593; &#1575;&#1604;&#1605;&#1606;&#1575;&#1587;&#1576;</text></g><!--entity Install--><g class="entity" data-qualified-name="Main.Install" data-source-line="9" id="ent0005"><polygon fill="#F1F1F1" points="1029.9677,581.839,1028.5851,584.5877,1023.3077,586.6792,1017.2524,588.7628,1012.2535,591.1829,1002.8222,592.5628,994.2062,594.0455,984.0934,595.0022,972.9513,595.4606,963.2748,595.9305,950.1504,595.1913,941.7754,595.1091,930.9437,593.9465,920.5217,592.3421,913.2191,590.9111,905.8818,588.9064,900.3923,586.7767,895.8478,584.3309,893.2007,581.8265,891.7091,579.1356,892.4036,576.5579,894.9237,574.0761,899.8634,571.9054,905.1521,569.6418,911.7648,567.6005,922.6499,566.5618,929.3265,564.6239,941.1594,564.0708,950.187,563.1163,962.9125,563.3619,972.9519,563.3771,982.0169,563.6212,993.509,564.9389,1002.4845,566.2038,1010.312,567.7579,1017.2218,569.6623,1023.6716,572.0174,1027.2903,574.2459,1031.4121,577.0964,1030.6829,579.2661" style="stroke:#181818;stroke-width:0.5;"/><text fill="#000000" font-family="Arial" font-size="14" lengthAdjust="spacing" textLength="104.3779" x="909.8099" y="584.0377">&#1575;&#1604;&#1578;&#1606;&#1589;&#1610;&#1576; &#1608;&#1575;&#1604;&#1578;&#1588;&#1594;&#1610;&#1604;</text></g><!--entity Centrifugal--><g class="entity" data-qualified-name="Main.Types...... ........Centrifugal" data-source-line="13" id="ent0008"><polygon fill="#F1F1F1" points="89.35,397.8475,89.35,398.0577,99.1363,397.4332,108.9225,398.0408,118.7088,398.2472,128.4951,397.1341,138.2813,397.7698,148.0676,397.421,157.8539,397.464,167.6401,397.7793,177.4264,397.1561,187.2127,398.4011,196.9989,397.2172,206.7852,397.6497,216.5715,398.2794,226.3577,397.7617,236.144,397.9157,245.9303,397.8156,255.7165,398.026,265.5028,398.0866,275.2891,398.4332,285.0753,398.5186,294.8616,398.5268,304.6479,397.8475,304.6803,397.9259,305.0605,398.1367,305.4445,398.3567,305.6165,398.0647,306.1486,398.6422,306.4156,398.5797,306.3243,398.5419,306.7265,399.0014,306.5561,399.2237,306.8339,399.6317,307.2298,400.0885,307.1479,400.3475,307.1316,400.3475,307.183,408.6069,307.2607,416.8663,307.2866,425.1256,307.1465,433.385,307.1479,441.6444,307.2363,441.681,306.8251,441.9249,306.9425,442.3878,306.8773,442.775,306.699,443.1153,306.4156,443.4121,306.4938,443.6009,306.0004,443.4098,305.6253,443.5042,305.2757,443.6601,304.9939,443.9798,304.6479,444.1444,304.6479,443.9478,294.8616,444.8258,285.0753,443.9697,275.2891,443.8013,265.5028,444.3726,255.7165,443.4775,245.9303,443.6252,236.144,444.7933,226.3577,444.58,216.5715,444.8789,206.7852,443.8226,196.9989,444.4636,187.2127,444.7348,177.4264,443.672,167.6401,444.0485,157.8539,444.2704,148.0676,444.7961,138.2813,444.1402,128.4951,444.6069,118.7088,443.5906,108.9225,443.4671,99.1363,444.648,89.35,444.1444,89.2585,443.9236,89.0614,444.1547,88.6693,443.9151,88.2552,443.6225,87.8907,443.4496,87.5822,443.4121,87.7235,443.4707,87.3436,443.0204,87.4716,442.7805,86.9727,442.281,87.1866,442.0767,86.85,441.6444,87.0114,441.6444,86.9317,433.385,86.8657,425.1256,87.0922,416.8663,87.0545,408.6069,86.85,400.3475,86.9021,400.3691,87.079,400.0282,87.1028,399.6238,87.51,399.3782,87.4835,398.953,87.5822,398.5797,87.6042,398.6329,87.8582,398.2459,88.2376,398.162,88.7106,398.3038,89.0513,398.1263,89.35,397.8475" style="stroke:#181818;stroke-width:0.5;"/><polygon fill="#F1F1F1" points="287.1479,402.8475,287.1479,402.9176,290.1479,402.7094,293.1479,402.9119,296.1479,402.9807,299.1479,402.6097,302.1479,402.8475,302.1219,402.8475,302.0057,404.8475,302.02,406.8475,302.1251,408.8475,301.9174,410.8475,302.1479,412.8475,302.1479,413.032,299.1479,412.6374,296.1479,412.7816,293.1479,412.9915,290.1479,412.8189,287.1479,412.8475,287.1706,412.8475,287.1372,410.8475,287.2074,408.8475,287.2276,406.8475,287.3431,404.8475,287.1479,402.8475" style="stroke:#181818;stroke-width:0.5;"/><polygon fill="#F1F1F1" points="285.1479,404.8475,285.1479,404.9176,285.9479,404.7094,286.7479,404.9119,287.5479,404.9807,288.3479,404.6097,289.1479,404.8475,289.1219,404.8475,289.0057,405.2475,289.02,405.6475,289.1251,406.0475,288.9174,406.4475,289.1479,406.8475,289.1479,407.032,288.3479,406.6374,287.5479,406.7816,286.7479,406.9915,285.9479,406.8189,285.1479,406.8475,285.1706,406.8475,285.1372,406.4475,285.2074,406.0475,285.2276,405.6475,285.3431,405.2475,285.1479,404.8475" style="stroke:#181818;stroke-width:0.5;"/><polygon fill="#F1F1F1" points="285.1479,408.8475,285.1479,408.9176,285.9479,408.7094,286.7479,408.9119,287.5479,408.9807,288.3479,408.6097,289.1479,408.8475,289.1219,408.8475,289.0057,409.2475,289.02,409.6475,289.1251,410.0475,288.9174,410.4475,289.1479,410.8475,289.1479,411.032,288.3479,410.6374,287.5479,410.7816,286.7479,410.9915,285.9479,410.8189,285.1479,410.8475,285.1706,410.8475,285.1372,410.4475,285.2074,410.0475,285.2276,409.6475,285.3431,409.2475,285.1479,408.8475" style="stroke:#181818;stroke-width:0.5;"/><text fill="#000000" font-family="Arial" font-size="14" lengthAdjust="spacing" textLength="180.2979" x="101.85" y="430.8426">&#1575;&#1604;&#1591;&#1585;&#1583; &#1575;&#1604;&#1605;&#1585;&#1603;&#1586;&#1610; (Centrifugal)</text></g><!--entity Jet--><g class="entity" data-qualified-name="Main.Types...... ........Jet" data-source-line="14" id="ent0009"><polygon fill="#F1F1F1" points="344.54,397.8475,344.54,398.0577,354.7485,397.4332,364.957,398.0408,375.1655,398.2472,385.374,397.1341,395.5825,397.7698,405.791,397.421,415.9995,397.464,426.208,397.7793,436.4165,397.1561,446.625,398.4011,456.8335,397.2172,467.042,397.6497,477.2504,398.2794,487.4589,397.8475,487.448,397.8211,487.8212,398.015,488.162,398.1306,488.5424,398.3418,488.9037,398.5069,489.2267,398.5797,489.4071,398.6544,489.5798,399.0189,489.7288,399.3735,489.7445,399.6729,489.9553,400.0531,489.9589,400.3475,490.193,400.3475,489.7186,408.6069,490.1851,416.8663,489.8601,425.1256,490.1369,433.385,489.9589,441.6444,489.8065,441.5812,489.7914,441.9892,489.8944,442.4461,489.5046,442.6988,489.4056,443.072,489.2267,443.4121,489.2699,443.5164,488.9263,443.6868,488.5191,443.7038,488.2027,443.9399,487.7395,443.8216,487.4589,444.1444,487.4589,444.4288,477.2504,444.6926,467.042,444.5889,456.8335,444.7574,446.625,443.6613,436.4165,443.4922,426.208,443.523,415.9995,444.0855,405.791,443.9478,395.5825,444.8258,385.374,443.9697,375.1655,443.8013,364.957,444.3726,354.7485,443.4775,344.54,444.1444,344.4738,443.9845,344.2692,444.1978,343.8885,443.9856,343.573,443.9312,343.0847,443.4595,342.7722,443.4121,342.8705,443.4529,342.8076,443.1339,342.3339,442.6448,342.3034,442.3393,342.2252,442.014,342.04,441.6444,342.2573,441.6444,342.0386,433.385,342.1942,425.1256,341.8554,416.8663,341.8142,408.6069,342.04,400.3475,342.1951,400.4117,341.9657,399.9025,342.4896,399.7053,342.543,399.3132,342.5433,398.8991,342.7722,398.5797,342.7271,398.4708,343.1843,398.5746,343.4412,398.1947,343.9084,398.3227,344.1159,397.8237,344.54,397.8475" style="stroke:#181818;stroke-width:0.5;"/><polygon fill="#F1F1F1" points="469.9589,402.8475,469.9589,402.9176,472.9589,402.7094,475.9589,402.9119,478.9589,402.9807,481.9589,402.6097,484.9589,402.8475,484.933,402.8475,484.8168,404.8475,484.8311,406.8475,484.9362,408.8475,484.7285,410.8475,484.9589,412.8475,484.9589,413.032,481.9589,412.6374,478.9589,412.7816,475.9589,412.9915,472.9589,412.8189,469.9589,412.8475,469.9817,412.8475,469.9483,410.8475,470.0185,408.8475,470.0387,406.8475,470.1542,404.8475,469.9589,402.8475" style="stroke:#181818;stroke-width:0.5;"/><polygon fill="#F1F1F1" points="467.9589,404.8475,467.9589,404.9176,468.7589,404.7094,469.5589,404.9119,470.3589,404.9807,471.1589,404.6097,471.9589,404.8475,471.933,404.8475,471.8168,405.2475,471.8311,405.6475,471.9362,406.0475,471.7285,406.4475,471.9589,406.8475,471.9589,407.032,471.1589,406.6374,470.3589,406.7816,469.5589,406.9915,468.7589,406.8189,467.9589,406.8475,467.9817,406.8475,467.9483,406.4475,468.0185,406.0475,468.0387,405.6475,468.1542,405.2475,467.9589,404.8475" style="stroke:#181818;stroke-width:0.5;"/><polygon fill="#F1F1F1" points="467.9589,408.8475,467.9589,408.9176,468.7589,408.7094,469.5589,408.9119,470.3589,408.9807,471.1589,408.6097,471.9589,408.8475,471.933,408.8475,471.8168,409.2475,471.8311,409.6475,471.9362,410.0475,471.7285,410.4475,471.9589,410.8475,471.9589,411.032,471.1589,410.6374,470.3589,410.7816,469.5589,410.9915,468.7589,410.8189,467.9589,410.8475,467.9817,410.8475,467.9483,410.4475,468.0185,410.0475,468.0387,409.6475,468.1542,409.2475,467.9589,408.8475" style="stroke:#181818;stroke-width:0.5;"/><text fill="#000000" font-family="Arial" font-size="14" lengthAdjust="spacing" textLength="107.9189" x="357.04" y="430.8426">&#1575;&#1604;&#1585;&#1601;&#1593; (Jet Pump)</text></g><!--entity Deep--><g class="entity" data-qualified-name="Main.Types...... ....... .Submersible..Deep" data-source-line="17" id="ent0011"><polygon fill="#F1F1F1" points="548.38,397.8475,548.38,398.0577,558.4689,397.4332,568.5577,398.0408,578.6466,398.2472,588.7355,397.1341,598.8243,397.7698,608.9132,397.421,619.0021,397.464,629.0909,397.7793,639.1798,397.1561,649.2687,398.4011,659.3575,397.2172,669.4464,397.6497,679.5353,398.2794,689.6241,397.8475,689.6132,397.8211,689.9864,398.015,690.3272,398.1306,690.7076,398.3418,691.0689,398.5069,691.3919,398.5797,691.5723,398.6544,691.745,399.0189,691.894,399.3735,691.9097,399.6729,692.1205,400.0531,692.1241,400.3475,692.3582,400.3475,691.8837,408.6069,692.3503,416.8663,692.0253,425.1256,692.3021,433.385,692.1241,441.6444,691.9717,441.5812,691.9566,441.9892,692.0596,442.4461,691.6698,442.6988,691.5708,443.072,691.3919,443.4121,691.4351,443.5164,691.0914,443.6868,690.6843,443.7038,690.3679,443.9399,689.9047,443.8216,689.6241,444.1444,689.6241,444.4288,679.5353,444.6926,669.4464,444.5889,659.3575,444.7574,649.2687,443.6613,639.1798,443.4922,629.0909,443.523,619.0021,444.0855,608.9132,443.9478,598.8243,444.8258,588.7355,443.9697,578.6466,443.8013,568.5577,444.3726,558.4689,443.4775,548.38,444.1444,548.3138,443.9845,548.1092,444.1978,547.7285,443.9856,547.413,443.9312,546.9247,443.4595,546.6122,443.4121,546.7105,443.4529,546.6476,443.1339,546.1739,442.6448,546.1434,442.3393,546.0652,442.014,545.88,441.6444,546.0973,441.6444,545.8786,433.385,546.0342,425.1256,545.6954,416.8663,545.6542,408.6069,545.88,400.3475,546.0351,400.4117,545.8057,399.9025,546.3296,399.7053,546.383,399.3132,546.3833,398.8991,546.6122,398.5797,546.5671,398.4708,547.0243,398.5746,547.2812,398.1947,547.7484,398.3227,547.9559,397.8237,548.38,397.8475" style="stroke:#181818;stroke-width:0.5;"/><polygon fill="#F1F1F1" points="672.1241,402.8475,672.1241,402.9176,675.1241,402.7094,678.1241,402.9119,681.1241,402.9807,684.1241,402.6097,687.1241,402.8475,687.0982,402.8475,686.982,404.8475,686.9963,406.8475,687.1014,408.8475,686.8937,410.8475,687.1241,412.8475,687.1241,413.032,684.1241,412.6374,681.1241,412.7816,678.1241,412.9915,675.1241,412.8189,672.1241,412.8475,672.1469,412.8475,672.1135,410.8475,672.1836,408.8475,672.2039,406.8475,672.3194,404.8475,672.1241,402.8475" style="stroke:#181818;stroke-width:0.5;"/><polygon fill="#F1F1F1" points="670.1241,404.8475,670.1241,404.9176,670.9241,404.7094,671.7241,404.9119,672.5241,404.9807,673.3241,404.6097,674.1241,404.8475,674.0982,404.8475,673.982,405.2475,673.9963,405.6475,674.1014,406.0475,673.8937,406.4475,674.1241,406.8475,674.1241,407.032,673.3241,406.6374,672.5241,406.7816,671.7241,406.9915,670.9241,406.8189,670.1241,406.8475,670.1469,406.8475,670.1135,406.4475,670.1836,406.0475,670.2039,405.6475,670.3194,405.2475,670.1241,404.8475" style="stroke:#181818;stroke-width:0.5;"/><polygon fill="#F1F1F1" points="670.1241,408.8475,670.1241,408.9176,670.9241,408.7094,671.7241,408.9119,672.5241,408.9807,673.3241,408.6097,674.1241,408.8475,674.0982,408.8475,673.982,409.2475,673.9963,409.6475,674.1014,410.0475,673.8937,410.4475,674.1241,410.8475,674.1241,411.032,673.3241,410.6374,672.5241,410.7816,671.7241,410.9915,670.9241,410.8189,670.1241,410.8475,670.1469,410.8475,670.1135,410.4475,670.1836,410.0475,670.2039,409.6475,670.3194,409.2475,670.1241,408.8475" style="stroke:#181818;stroke-width:0.5;"/><text fill="#000000" font-family="Arial" font-size="14" lengthAdjust="spacing" textLength="106.2441" x="560.88" y="430.8426">&#1604;&#1570;&#1576;&#1575;&#1585; &#1575;&#1604;&#1605;&#1610;&#1575;&#1607; &#1575;&#1604;&#1593;&#1605;&#1610;&#1602;&#1577;</text></g><!--entity Sump--><g class="entity" data-qualified-name="Main.Types...... ....... .Submersible..Sump" data-source-line="18" id="ent0012"><polygon fill="#F1F1F1" points="729.61,397.8475,729.61,398.0577,739.4704,397.4332,749.3308,398.0408,759.1912,398.2472,769.0516,397.1341,778.912,397.7698,788.7724,397.421,798.6328,397.464,808.4932,397.7793,818.3535,397.1561,828.2139,398.4011,838.0743,397.2172,847.9347,397.6497,857.7951,398.2794,867.6555,397.7617,877.5159,397.9157,887.3763,397.8156,897.2367,398.026,907.0971,398.0866,916.9575,398.4332,926.8179,398.5186,936.6783,398.5268,946.5387,398.1021,956.3991,397.8475,956.4582,397.9903,956.8422,398.2102,957.0142,397.9183,957.5463,398.4958,957.7755,398.342,958.1668,398.5797,958.3312,398.6478,958.1608,398.8701,958.4386,399.2781,958.8346,399.735,958.7376,399.9877,958.8991,400.3475,958.9342,400.3475,959.0119,408.6069,959.0378,416.8663,958.8978,425.1256,958.9948,433.385,958.8991,441.6444,958.7228,441.5714,958.8402,442.0342,958.775,442.4214,958.5966,442.7617,958.5021,443.1368,958.1668,443.4121,958.1052,443.2634,957.7301,443.3577,957.3805,443.5137,957.0987,443.8333,956.7275,443.9374,956.3991,444.1444,956.3991,444.8258,946.5387,443.9697,936.6783,443.8013,926.8179,444.3726,916.9575,443.4775,907.0971,443.6252,897.2367,444.7933,887.3763,444.58,877.5159,444.8789,867.6555,443.8226,857.7951,444.4636,847.9347,444.7348,838.0743,443.672,828.2139,444.0485,818.3535,444.2704,808.4932,444.7961,798.6328,444.1402,788.7724,444.6069,778.912,443.5906,769.0516,443.4671,759.1912,444.648,749.3308,443.4274,739.4704,444.6533,729.61,444.1444,729.6364,444.208,729.2223,443.9154,728.8578,443.7425,728.6079,443.8463,728.1576,443.4664,727.8422,443.4121,728.0245,443.4876,727.5256,442.9881,727.7395,442.7838,727.552,442.4133,727.3319,442.0292,727.11,441.6444,727.1257,441.6444,727.3522,433.385,727.3145,425.1256,727.1664,416.8663,727.1994,408.6069,727.11,400.3475,727.0699,400.3309,727.4771,400.0853,727.4506,399.6601,727.6025,399.3089,727.5084,398.8557,727.8422,398.5797,727.7905,398.4549,728.2635,398.5967,728.6042,398.4192,728.8974,398.1272,729.2154,397.8947,729.61,397.8475" style="stroke:#181818;stroke-width:0.5;"/><polygon fill="#F1F1F1" points="938.8991,402.8475,938.8991,402.9176,941.8991,402.7094,944.8991,402.9119,947.8991,402.9807,950.8991,402.6097,953.8991,402.8475,953.8732,402.8475,953.7569,404.8475,953.7712,406.8475,953.8763,408.8475,953.6686,410.8475,953.8991,412.8475,953.8991,413.032,950.8991,412.6374,947.8991,412.7816,944.8991,412.9915,941.8991,412.8189,938.8991,412.8475,938.9218,412.8475,938.8884,410.8475,938.9586,408.8475,938.9788,406.8475,939.0943,404.8475,938.8991,402.8475" style="stroke:#181818;stroke-width:0.5;"/><polygon fill="#F1F1F1" points="936.8991,404.8475,936.8991,404.9176,937.6991,404.7094,938.4991,404.9119,939.2991,404.9807,940.0991,404.6097,940.8991,404.8475,940.8732,404.8475,940.7569,405.2475,940.7712,405.6475,940.8763,406.0475,940.6686,406.4475,940.8991,406.8475,940.8991,407.032,940.0991,406.6374,939.2991,406.7816,938.4991,406.9915,937.6991,406.8189,936.8991,406.8475,936.9218,406.8475,936.8884,406.4475,936.9586,406.0475,936.9788,405.6475,937.0943,405.2475,936.8991,404.8475" style="stroke:#181818;stroke-width:0.5;"/><polygon fill="#F1F1F1" points="936.8991,408.8475,936.8991,408.9176,937.6991,408.7094,938.4991,408.9119,939.2991,408.9807,940.0991,408.6097,940.8991,408.8475,940.8732,408.8475,940.7569,409.2475,940.7712,409.6475,940.8763,410.0475,940.6686,410.4475,940.8991,410.8475,940.8991,411.032,940.0991,410.6374,939.2991,410.7816,938.4991,410.9915,937.6991,410.8189,936.8991,410.8475,936.9218,410.8475,936.8884,410.4475,936.9586,410.0475,936.9788,409.6475,937.0943,409.2475,936.8991,408.8475" style="stroke:#181818;stroke-width:0.5;"/><text fill="#000000" font-family="Arial" font-size="14" lengthAdjust="spacing" textLength="191.7891" x="742.11" y="430.8426">&#1604;&#1578;&#1589;&#1585;&#1610;&#1601; &#1575;&#1604;&#1605;&#1610;&#1575;&#1607; &#1575;&#1604;&#1585;&#1575;&#1603;&#1583;&#1577; (Sumps)</text></g><!--link Need to Selection--><g class="link" data-entity-1="ent0003" data-entity-2="ent0004" data-link-type="dependency" data-source-line="22" id="lnk13"><path d="M937,145.2775 L937.2802,145.2775 L936.4476,156.1595 L937.2577,167.0415 L937.5329,177.9235 L936.0488,188.8055 L937,199.6875" fill="none" style="stroke:#181818;stroke-width:1;"/><polygon fill="#181818" points="937,205.6875,937.064,205.716,937.6738,203.8314,938.6589,202.1137,939.5217,200.3416,939.9827,198.3909,941,196.6875,940.9817,196.6692,940.0995,197.387,939.3096,198.1971,938.5839,199.0714,937.637,199.7245,937,200.6875,937.1305,200.818,936.0514,199.7389,935.3534,199.0409,934.7018,198.3893,933.7798,197.4673,933,196.6875,933.0208,196.6967,933.7903,198.4832,934.6544,200.3117,935.4728,202.1199,936.3784,203.9668,937,205.6875" style="stroke:#181818;stroke-width:1;"/></g><!--link Selection to Types--><g class="link" data-entity-1="ent0004" data-entity-2="ent0006" data-link-type="dependency" data-source-line="23" id="lnk14"><path d="M947.22,240.9175 L947.3009,240.9643 L948.4237,243.1826 L950.0206,245.675 L951.4632,248.0782 L952.398,250.1878 L954.0356,252.7038 L954.0052,252.6873 L955.3423,255.3368 L956.8325,258.0691 L958.4291,260.8591 L959.6589,263.4505 L961.4025,266.32 L961.6232,266.4288 L962.5954,269.1256 L964.2119,272.1401 L965.9071,275.1934 L967.1448,278.0211 L968.6231,280.9675 L968.651,280.9794 L969.8854,283.9379 L971.2468,286.9508 L972.5469,289.9374 L973.9639,292.974 L975,295.8475 L975.2796,295.9512 L976.0235,297.9495 L976.5871,299.881 L977.4146,301.9103 L978.2546,303.9443 L978.7024,305.8328 L978.3996,305.7278 L979.3416,306.953 L979.2864,307.8322 L979.9894,308.9745 L979.9116,309.8459 L980.4738,310.9393 L980.4449,310.9296 L980.4454,310.0364 L979.7721,308.9157 L979.4963,307.9292 L979.254,306.9541 L978.7708,305.8975" fill="none" style="stroke:#181818;stroke-width:1;"/><polygon fill="#181818" points="980.6914,311.5818,980.7612,311.5883,980.7356,309.6077,981.119,307.665,981.3693,305.71,981.1816,303.7144,981.6001,301.775,981.5768,301.7635,980.9708,302.7259,980.4818,303.7463,980.0742,304.8069,979.3862,305.7287,979.0909,306.8449,979.1728,307.0103,977.9837,306.1548,977.0337,305.7822,976.1128,305.4685,975.0223,304.812,974.021,304.3358,974.0377,304.3512,975.3472,305.7778,976.7329,307.2745,978.0819,308.7374,979.501,310.2649,980.6914,311.5818" style="stroke:#181818;stroke-width:1;"/><text fill="#000000" font-family="Arial" font-size="13" lengthAdjust="spacing" textLength="92.6377" x="972" y="283.9144">&#1578;&#1581;&#1583;&#1610;&#1583; &#1575;&#1604;&#1605;&#1608;&#1575;&#1589;&#1601;&#1575;&#1578;</text></g><!--link Types to Install--><g class="link" data-entity-1="ent0006" data-entity-2="ent0005" data-link-type="dependency" data-source-line="24" id="lnk15"><path d="M986.6413,492.7517 L986.7311,492.7775 L986.4229,492.8447 L986.641,493.0633 L986.6877,493.2326 L986.1709,493.2398 L986.4342,493.4714 L986.401,493.4618 L986.0861,493.9956 L985.9385,494.5776 L985.9072,495.193 L985.4751,495.693 L985.6044,496.3547 L985.8409,496.4227 L985.0027,497.4326 L984.8549,498.6412 L984.7914,499.874 L984.2377,500.9658 L983.9419,502.1317 L983.971,502.1401 L982.6197,506.6744 L981.4011,511.247 L980.1185,515.8011 L978.958,520.3903 L977.3994,524.865 L977.686,524.9475 L975.8436,531.3618 L973.8163,537.723 L972.0597,544.162 L970.3157,550.6047 L968.1699,556.9317" fill="none" style="stroke:#181818;stroke-width:1;"/><polygon fill="#181818" points="966.51,562.6975,966.5637,562.7426,967.671,561.1003,969.0928,559.7221,970.4122,558.2579,971.3949,556.5108,972.8437,555.1553,972.8312,555.1327,971.7848,555.5784,970.8017,556.1384,969.8624,556.7778,968.7718,557.1435,967.8932,557.8926,968.0547,557.9819,967.1619,556.8009,966.7406,555.8806,966.3769,554.992,965.6784,553.9184,965.1559,552.9422,965.1785,552.9453,965.4162,554.8918,965.7565,556.8525,966.0473,558.8063,966.4326,560.7733,966.51,562.6975" style="stroke:#181818;stroke-width:1;"/><text fill="#000000" font-family="Arial" font-size="13" lengthAdjust="spacing" textLength="57.9922" x="980" y="529.2144">&#1576;&#1593;&#1583; &#1575;&#1604;&#1575;&#1582;&#1578;&#1610;&#1575;&#1585;</text></g><?plantuml-src ZL9HQjj04FtNAPPysH-vG3uAfIMGGa8XlS36dZWYqbf8Aqe9_aWSfq77Q25sHLsZ9AvnJZ9xcxxTLMpX52ShqExipfitRsPqg2CI_DFSc5iUyrAO4V_bFpYMWiVcsenCWVtxit73zzWB_YLQN3d87K3kSOYBWX-uj5Ox2BBpK2KobR4uawhxDGsr9YLqcbFZgKkdCe_qVb_f8ncJU9-6CWg2b3fQgXvIstbhGZj2Pk9GXafS108hpwWZCmJWqboP0j_8OH1fYYi4uTyESqJKtK2CGUXTAizZgxDSKuuXS-B0nnGXrR2lDYE0g8Jd754cmXRANl0ZFo6HQmSzK9cM4SHQP4EmSrqtn9aLtzdQhdH--PPGLWkrAv6TSzbxMItakU2fXwszxUhquwIlIEcQS06EMQqGZHoYh8LeVO136fxcFHcr7N7ZOckuobmYzzOdqk9p7YSU36i56hoU-nEE2oZ0h1td9p6bMNWIKNkB4e1-y6JTjkQiyDAQvggku4UYP4kOakTsdCtbVm9L-0zvvlEAayoBiySDTGFVMpjWOdVttSQmh2ptvZkw9y0yvHdedflXnc2ESg8k3kSzBQQU88kQyB96D8St6Fm3?></g></svg>