<svg xmlns="http://www.w3.org/2000/svg" xmlns:xlink="http://www.w3.org/1999/xlink" contentStyleType="text/css" data-diagram-type="DESCRIPTION" height="613px" preserveAspectRatio="none" style="width:1137px;height:613px;background:#FFFFFF;" version="1.1" viewBox="0 0 1137 613" width="1137px" zoomAndPan="magnify"><defs/><g><!--cluster ?????? ???????--><g class="cluster" data-qualified-name="...... ......." data-source-line="6" id="ent0002"><rect fill="none" height="236.6" rx="2.5" ry="2.5" style="stroke:#181818;stroke-width:1;" width="633" x="7" y="7"/><text fill="#000000" font-family="'Arial'" font-size="14" font-weight="bold" lengthAdjust="spacing" textLength="105.4512" x="270.7744" y="21.9951">&#1575;&#1604;&#1605;&#1590;&#1582;&#1577; &#1575;&#1604;&#1571;&#1601;&#1602;&#1610;&#1577;</text></g><!--cluster ???????? ????????--><g class="cluster" data-qualified-name="........ ........" data-source-line="13" id="ent0007"><polygon fill="none" points="86,380.6,96,370.6,568,370.6,568,586.19,558,596.19,86,596.19,86,380.6" style="stroke:#181818;stroke-width:1;"/><line style="stroke:#181818;stroke-width:1;" x1="558" x2="568" y1="380.6" y2="370.6"/><line style="stroke:#181818;stroke-width:1;" x1="86" x2="558" y1="380.6" y2="380.6"/><line style="stroke:#181818;stroke-width:1;" x1="558" x2="558" y1="380.6" y2="596.19"/><text fill="#000000" font-family="'Arial'" font-size="14" font-weight="bold" lengthAdjust="spacing" textLength="125.1797" x="260.4102" y="396.5951">&#1575;&#1604;&#1605;&#1605;&#1610;&#1586;&#1575;&#1578; &#1575;&#1604;&#1585;&#1574;&#1610;&#1587;&#1610;&#1577;</text></g><!--cluster ?????? ?????????--><g class="cluster" data-qualified-name="...... ........." data-source-line="19" id="ent0011"><polygon fill="none" points="608,380.6,618,370.6,1120,370.6,1120,586.19,1110,596.19,608,596.19,608,380.6" style="stroke:#181818;stroke-width:1;"/><line style="stroke:#181818;stroke-width:1;" x1="1110" x2="1120" y1="380.6" y2="370.6"/><line style="stroke:#181818;stroke-width:1;" x1="608" x2="1110" y1="380.6" y2="380.6"/><line style="stroke:#181818;stroke-width:1;" x1="1110" x2="1110" y1="380.6" y2="596.19"/><text fill="#000000" font-family="'Arial'" font-size="14" font-weight="bold" lengthAdjust="spacing" textLength="121.3242" x="799.3379" y="396.5951">&#1605;&#1580;&#1575;&#1604;&#1575;&#1578; &#1575;&#1604;&#1575;&#1587;&#1578;&#1582;&#1583;&#1575;&#1605;</text></g><!--entity Motor--><g class="entity" data-qualified-name="...... ........Motor" data-source-line="7" id="ent0003"><rect fill="#F1F1F1" height="46.2969" rx="2.5" ry="2.5" style="stroke:#181818;stroke-width:0.5;" width="142.792" x="30.6" y="50"/><rect fill="#F1F1F1" height="10" style="stroke:#181818;stroke-width:0.5;" width="15" x="153.392" y="55"/><rect fill="#F1F1F1" height="2" style="stroke:#181818;stroke-width:0.5;" width="4" x="151.392" y="57"/><rect fill="#F1F1F1" height="2" style="stroke:#181818;stroke-width:0.5;" width="4" x="151.392" y="61"/><text fill="#000000" font-family="'Arial'" font-size="14" lengthAdjust="spacing" textLength="102.792" x="45.6" y="82.9951">&#1575;&#1604;&#1605;&#1581;&#1585;&#1603; &#1575;&#1604;&#1603;&#1607;&#1585;&#1576;&#1575;&#1574;&#1610;</text></g><!--entity Shaft--><g class="entity" data-qualified-name="...... ........Shaft" data-source-line="8" id="ent0004"><rect fill="#F1F1F1" height="46.2969" rx="2.5" ry="2.5" style="stroke:#181818;stroke-width:0.5;" width="117.5605" x="237.22" y="50"/><rect fill="#F1F1F1" height="10" style="stroke:#181818;stroke-width:0.5;" width="15" x="334.7805" y="55"/><rect fill="#F1F1F1" height="2" style="stroke:#181818;stroke-width:0.5;" width="4" x="332.7805" y="57"/><rect fill="#F1F1F1" height="2" style="stroke:#181818;stroke-width:0.5;" width="4" x="332.7805" y="61"/><text fill="#000000" font-family="'Arial'" font-size="14" lengthAdjust="spacing" textLength="77.5605" x="252.22" y="82.9951">&#1593;&#1605;&#1608;&#1583; &#1575;&#1604;&#1583;&#1608;&#1585;&#1575;&#1606;</text></g><!--entity Impeller--><g class="entity" data-qualified-name="...... ........Impeller" data-source-line="9" id="ent0005"><rect fill="#F1F1F1" height="46.2969" rx="2.5" ry="2.5" style="stroke:#181818;stroke-width:0.5;" width="144.5898" x="451.71" y="50"/><rect fill="#F1F1F1" height="10" style="stroke:#181818;stroke-width:0.5;" width="15" x="576.2998" y="55"/><rect fill="#F1F1F1" height="2" style="stroke:#181818;stroke-width:0.5;" width="4" x="574.2998" y="57"/><rect fill="#F1F1F1" height="2" style="stroke:#181818;stroke-width:0.5;" width="4" x="574.2998" y="61"/><text fill="#000000" font-family="'Arial'" font-size="14" lengthAdjust="spacing" textLength="104.5898" x="466.71" y="82.9951">&#1575;&#1604;&#1583;&#1601;&#1575;&#1593;&#1577; (&#1575;&#1604;&#1605;&#1585;&#1608;&#1581;&#1577;)</text></g><!--entity Casing--><g class="entity" data-qualified-name="...... ........Casing" data-source-line="10" id="ent0006"><rect fill="#F1F1F1" height="46.2969" rx="2.5" ry="2.5" style="stroke:#181818;stroke-width:0.5;" width="119.5703" x="434.21" y="173.3"/><rect fill="#F1F1F1" height="10" style="stroke:#181818;stroke-width:0.5;" width="15" x="533.7803" y="178.3"/><rect fill="#F1F1F1" height="2" style="stroke:#181818;stroke-width:0.5;" width="4" x="531.7803" y="180.3"/><rect fill="#F1F1F1" height="2" style="stroke:#181818;stroke-width:0.5;" width="4" x="531.7803" y="184.3"/><text fill="#000000" font-family="'Arial'" font-size="14" lengthAdjust="spacing" textLength="79.5703" x="449.21" y="206.2951">&#1594;&#1604;&#1575;&#1601; &#1575;&#1604;&#1605;&#1590;&#1582;&#1577;</text></g><!--entity ????? ?????? ???????--><g class="entity" data-qualified-name="........ .............. ...... ......." data-source-line="14" id="ent0008"><rect fill="#F1F1F1" height="46.2969" rx="2.5" ry="2.5" style="stroke:#181818;stroke-width:0.5;" width="171.7012" x="110.15" y="418.6"/><rect fill="#F1F1F1" height="10" style="stroke:#181818;stroke-width:0.5;" width="15" x="261.8512" y="423.6"/><rect fill="#F1F1F1" height="2" style="stroke:#181818;stroke-width:0.5;" width="4" x="259.8512" y="425.6"/><rect fill="#F1F1F1" height="2" style="stroke:#181818;stroke-width:0.5;" width="4" x="259.8512" y="429.6"/><text fill="#000000" font-family="'Arial'" font-size="14" lengthAdjust="spacing" textLength="131.7012" x="125.15" y="451.5951">&#1587;&#1607;&#1608;&#1604;&#1577; &#1575;&#1604;&#1608;&#1589;&#1608;&#1604; &#1604;&#1604;&#1589;&#1610;&#1575;&#1606;&#1577;</text></g><!--entity ????? ???? ????? ???????--><g class="entity" data-qualified-name="........ .............. .... ..... ......." data-source-line="15" id="ent0009"><rect fill="#F1F1F1" height="46.2969" rx="2.5" ry="2.5" style="stroke:#181818;stroke-width:0.5;" width="208.2256" x="316.89" y="418.6"/><rect fill="#F1F1F1" height="10" style="stroke:#181818;stroke-width:0.5;" width="15" x="505.1156" y="423.6"/><rect fill="#F1F1F1" height="2" style="stroke:#181818;stroke-width:0.5;" width="4" x="503.1156" y="425.6"/><rect fill="#F1F1F1" height="2" style="stroke:#181818;stroke-width:0.5;" width="4" x="503.1156" y="429.6"/><text fill="#000000" font-family="'Arial'" font-size="14" lengthAdjust="spacing" textLength="168.2256" x="331.89" y="451.5951">&#1578;&#1589;&#1605;&#1610;&#1605; &#1605;&#1583;&#1605;&#1580; &#1608;&#1605;&#1608;&#1601;&#1585; &#1604;&#1604;&#1605;&#1587;&#1575;&#1581;&#1577;</text></g><!--entity ????? ???? ?????--><g class="entity" data-qualified-name="........ .............. .... ....." data-source-line="16" id="ent0010"><rect fill="#F1F1F1" height="46.2969" rx="2.5" ry="2.5" style="stroke:#181818;stroke-width:0.5;" width="139.0527" x="126.47" y="525.89"/><rect fill="#F1F1F1" height="10" style="stroke:#181818;stroke-width:0.5;" width="15" x="245.5227" y="530.89"/><rect fill="#F1F1F1" height="2" style="stroke:#181818;stroke-width:0.5;" width="4" x="243.5227" y="532.89"/><rect fill="#F1F1F1" height="2" style="stroke:#181818;stroke-width:0.5;" width="4" x="243.5227" y="536.89"/><text fill="#000000" font-family="'Arial'" font-size="14" lengthAdjust="spacing" textLength="99.0527" x="141.47" y="558.8851">&#1603;&#1601;&#1575;&#1569;&#1577; &#1591;&#1575;&#1602;&#1577; &#1593;&#1575;&#1604;&#1610;&#1577;</text></g><!--entity ????? ???? ????????--><g class="entity" data-qualified-name="...... ............... .... ........" data-source-line="20" id="ent0012"><rect fill="#F1F1F1" height="46.2969" rx="2.5" ry="2.5" style="stroke:#181818;stroke-width:0.5;" width="159.7588" x="662.12" y="418.6"/><rect fill="#F1F1F1" height="10" style="stroke:#181818;stroke-width:0.5;" width="15" x="801.8788" y="423.6"/><rect fill="#F1F1F1" height="2" style="stroke:#181818;stroke-width:0.5;" width="4" x="799.8788" y="425.6"/><rect fill="#F1F1F1" height="2" style="stroke:#181818;stroke-width:0.5;" width="4" x="799.8788" y="429.6"/><text fill="#000000" font-family="'Arial'" font-size="14" lengthAdjust="spacing" textLength="119.7588" x="677.12" y="451.5951">&#1571;&#1606;&#1592;&#1605;&#1577; &#1575;&#1604;&#1585;&#1610; &#1608;&#1575;&#1604;&#1586;&#1585;&#1575;&#1593;&#1577;</text></g><!--entity ????? ?????? ?? ???????--><g class="entity" data-qualified-name="...... ............... ...... .. ......." data-source-line="21" id="ent0013"><rect fill="#F1F1F1" height="46.2969" rx="2.5" ry="2.5" style="stroke:#181818;stroke-width:0.5;" width="173.3281" x="857.34" y="418.6"/><rect fill="#F1F1F1" height="10" style="stroke:#181818;stroke-width:0.5;" width="15" x="1010.6681" y="423.6"/><rect fill="#F1F1F1" height="2" style="stroke:#181818;stroke-width:0.5;" width="4" x="1008.6681" y="425.6"/><rect fill="#F1F1F1" height="2" style="stroke:#181818;stroke-width:0.5;" width="4" x="1008.6681" y="429.6"/><text fill="#000000" font-family="'Arial'" font-size="14" lengthAdjust="spacing" textLength="133.3281" x="872.34" y="451.5951">&#1578;&#1608;&#1586;&#1610;&#1593; &#1575;&#1604;&#1605;&#1610;&#1575;&#1607; &#1601;&#1610; &#1575;&#1604;&#1605;&#1576;&#1575;&#1606;&#1610;</text></g><!--entity ????? ??????? ???????? (HVAC)--><g class="entity" data-qualified-name="...... ............... ....... ........ .HVAC." data-source-line="22" id="ent0014"><rect fill="#F1F1F1" height="46.2969" rx="2.5" ry="2.5" style="stroke:#181818;stroke-width:0.5;" width="219.0879" x="632.46" y="525.89"/><rect fill="#F1F1F1" height="10" style="stroke:#181818;stroke-width:0.5;" width="15" x="831.5479" y="530.89"/><rect fill="#F1F1F1" height="2" style="stroke:#181818;stroke-width:0.5;" width="4" x="829.5479" y="532.89"/><rect fill="#F1F1F1" height="2" style="stroke:#181818;stroke-width:0.5;" width="4" x="829.5479" y="536.89"/><text fill="#000000" font-family="'Arial'" font-size="14" lengthAdjust="spacing" textLength="179.0879" x="647.46" y="558.8851">&#1571;&#1606;&#1592;&#1605;&#1577; &#1575;&#1604;&#1578;&#1576;&#1585;&#1610;&#1583; &#1608;&#1575;&#1604;&#1578;&#1583;&#1601;&#1574;&#1577; (HVAC)</text></g><!--entity ??????? ????????? ??????????--><g class="entity" data-qualified-name="...... ................. ......... .........." data-source-line="23" id="ent0015"><rect fill="#F1F1F1" height="46.2969" rx="2.5" ry="2.5" style="stroke:#181818;stroke-width:0.5;" width="201.2939" x="886.35" y="525.89"/><rect fill="#F1F1F1" height="10" style="stroke:#181818;stroke-width:0.5;" width="15" x="1067.6439" y="530.89"/><rect fill="#F1F1F1" height="2" style="stroke:#181818;stroke-width:0.5;" width="4" x="1065.6439" y="532.89"/><rect fill="#F1F1F1" height="2" style="stroke:#181818;stroke-width:0.5;" width="4" x="1065.6439" y="536.89"/><text fill="#000000" font-family="'Arial'" font-size="14" lengthAdjust="spacing" textLength="161.2939" x="901.35" y="558.8851">&#1575;&#1604;&#1605;&#1589;&#1575;&#1606;&#1593; &#1608;&#1575;&#1604;&#1593;&#1605;&#1604;&#1610;&#1575;&#1578; &#1575;&#1604;&#1603;&#1610;&#1605;&#1610;&#1575;&#1574;&#1610;&#1577;</text></g><!--link Motor to Shaft--><g class="link" data-entity-1="ent0003" data-entity-2="ent0004" data-link-type="dependency" data-source-line="27" id="lnk16"><path d="M173.69,73.15 C194.52,73.15 211.03,73.15 230.98,73.15" fill="none" id="Motor-to-Shaft" style="stroke:#181818;stroke-width:1;"/><polygon fill="#181818" points="236.98,73.15,227.98,69.15,231.98,73.15,227.98,77.15,236.98,73.15" style="stroke:#181818;stroke-width:1;"/><text fill="#000000" font-family="'Arial'" font-size="13" lengthAdjust="spacing" textLength="27.5107" x="191.81" y="66.2169">&#1578;&#1583;&#1608;&#1610;&#1585;</text></g><!--link Shaft to Impeller--><g class="link" data-entity-1="ent0004" data-entity-2="ent0005" data-link-type="dependency" data-source-line="28" id="lnk17"><path d="M355.01,73.15 C384.44,73.15 414.29,73.15 445.38,73.15" fill="none" id="Shaft-to-Impeller" style="stroke:#181818;stroke-width:1;"/><polygon fill="#181818" points="451.38,73.15,442.38,69.15,446.38,73.15,442.38,77.15,451.38,73.15" style="stroke:#181818;stroke-width:1;"/><text fill="#000000" font-family="'Arial'" font-size="13" lengthAdjust="spacing" textLength="60.4678" x="373.24" y="66.2169">&#1606;&#1602;&#1604; &#1575;&#1604;&#1581;&#1585;&#1603;&#1577;</text></g><!--link Impeller to Casing--><g class="link" data-entity-1="ent0005" data-entity-2="ent0006" data-link-type="dependency" data-source-line="29" id="lnk18"><path d="M451.36,89.54 C432.1,97.29 413.48,108.9 402,126.3 C388.57,146.64 403.4243,160.7173 428.3143,172.5873" fill="none" id="Impeller-to-Casing" style="stroke:#181818;stroke-width:1;"/><polygon fill="#181818" points="433.73,175.17,427.3283,167.6855,429.2169,173.0177,423.8847,174.9064,433.73,175.17" style="stroke:#181818;stroke-width:1;"/><text fill="#000000" font-family="'Arial'" font-size="13" lengthAdjust="spacing" textLength="100.9658" x="403" y="139.3669">&#1586;&#1610;&#1575;&#1583;&#1577; &#1590;&#1594;&#1591; &#1575;&#1604;&#1587;&#1575;&#1574;&#1604;</text></g><!--link ?????? ??????? to ???????? ????????--><g class="link" data-entity-1="ent0002" data-entity-2="ent0007" data-link-type="dependency" data-source-line="31" id="lnk19"><path d="M614.8088,244.3563 C613.9163,249.5039 612.9806,254.595 612,259.6 C604.075,300.055 591.355,344.57 580.48,379.3475 C577.7613,388.0419 575.1578,396.1277 572.7734,403.3893 C571.5813,407.0201 570.4438,410.4448 569.3741,413.6366 C569.1067,414.4345 568.8435,415.2179 568.5848,415.9863 C568.4554,416.3705 568.3271,416.7509 568.2,417.1276 C568.1364,417.3159 569.994,411.8191 569.931,412.0055" fill="none" id="&#1575;&#1604;&#1605;&#1590;&#1582;&#1577; &#1575;&#1604;&#1571;&#1601;&#1602;&#1610;&#1577;-to-&#1575;&#1604;&#1605;&#1605;&#1610;&#1586;&#1575;&#1578; &#1575;&#1604;&#1585;&#1574;&#1610;&#1587;&#1610;&#1577;" style="stroke:#181818;stroke-width:1;stroke-dasharray:7,7;"/><polygon fill="#181818" points="568.0102,417.6897,574.6809,410.4439,569.6109,412.9529,567.1019,407.8828,568.0102,417.6897" style="stroke:#181818;stroke-width:1;"/><text fill="#000000" font-family="'Arial'" font-size="13" lengthAdjust="spacing" textLength="37.7114" x="611" y="280.6669">&#1578;&#1578;&#1605;&#1610;&#1586; &#1576;&#1600;</text></g><!--link ?????? ??????? to ?????? ?????????--><g class="link" data-entity-1="ent0002" data-entity-2="ent0011" data-link-type="dependency" data-source-line="32" id="lnk20"><path d="M640.4328,76.1225 C640.8886,76.2335 641.362,76.3492 641.8524,76.4698 C643.8144,76.952 646.0512,77.5112 648.5464,78.1489 C658.527,80.7001 672.6411,84.5095 689.8341,89.6878 C724.22,100.0444 770.9213,115.8763 821.5,138.0675 C922.6575,182.45 1039.325,252.27 1104,354.6 C1106.4875,358.5363 1108.4898,362.7823 1110.0881,367.2055 C1110.4876,368.3113 1109.0793,363.6991 1109.4296,364.825" fill="none" id="&#1575;&#1604;&#1605;&#1590;&#1582;&#1577; &#1575;&#1604;&#1571;&#1601;&#1602;&#1610;&#1577;-to-&#1605;&#1580;&#1575;&#1604;&#1575;&#1578; &#1575;&#1604;&#1575;&#1587;&#1578;&#1582;&#1583;&#1575;&#1605;" style="stroke:#181818;stroke-width:1;stroke-dasharray:7,7;"/><polygon fill="#181818" points="1111.2122,370.554,1112.3577,360.772,1109.7267,365.7798,1104.719,363.1488,1111.2122,370.554" style="stroke:#181818;stroke-width:1;"/><text fill="#000000" font-family="'Arial'" font-size="13" lengthAdjust="spacing" textLength="63.5845" x="1048" y="280.6669">&#1578;&#1615;&#1587;&#1578;&#1582;&#1583;&#1605; &#1601;&#1610;</text></g></g></svg>