<svg xmlns="http://www.w3.org/2000/svg" xmlns:xlink="http://www.w3.org/1999/xlink" contentStyleType="text/css" data-diagram-type="ACTIVITY" height="760px" preserveAspectRatio="none" style="width:590px;height:760px;background:#FFFFFF;" version="1.1" viewBox="0 0 590 760" width="590px" zoomAndPan="magnify"><title>&#1583;&#1608;&#1585; &#1575;&#1604;&#1603;&#1607;&#1585;&#1576;&#1575;&#1569; &#1575;&#1604;&#1589;&#1606;&#1575;&#1593;&#1610;&#1577; &#1601;&#1610; &#1578;&#1591;&#1608;&#1610;&#1585; &#1575;&#1604;&#1605;&#1589;&#1575;&#1606;&#1593;
&lt;size:14&gt;&#1605;&#1602;&#1583;&#1605; &#1605;&#1606;: &#1576;&#1585;&#1604;&#1610;&#1606;&#1578; &#1587;&#1610;&#1585;&#1601; &#1575;&#1604;&#1585;&#1610;&#1575;&#1590;&lt;/size&gt;</title><defs/><g><rect fill="#FFFFCC" height="26.6406" rx="2.5" ry="2.5" style="stroke:#FFDD88;stroke-width:3;" width="579.6738" x="5" y="5"/><text fill="#000000" font-family="monospace" font-size="10" lengthAdjust="spacing" textLength="355.21" x="10" y="20">Please&#160;use&#160;'!option&#160;handwritten&#160;true'&#160;to&#160;enable&#160;handwritten</text><g class="title" data-source-line="17"><text fill="#000000" font-family="'Arial'" font-size="20" font-weight="bold" lengthAdjust="spacing" textLength="398.584" x="87.0449" y="70.2051">&#1583;&#1608;&#1585; &#1575;&#1604;&#1603;&#1607;&#1585;&#1576;&#1575;&#1569; &#1575;&#1604;&#1589;&#1606;&#1575;&#1593;&#1610;&#1577; &#1601;&#1610; &#1578;&#1591;&#1608;&#1610;&#1585; &#1575;&#1604;&#1605;&#1589;&#1575;&#1606;&#1593;</text><text fill="#000000" font-family="'Arial'" font-size="14" font-weight="bold" lengthAdjust="spacing" textLength="221.4912" x="175.5913" y="87.917">&#1605;&#1602;&#1583;&#1605; &#1605;&#1606;: &#1576;&#1585;&#1604;&#1610;&#1606;&#1578; &#1587;&#1610;&#1585;&#1601; &#1575;&#1604;&#1585;&#1610;&#1575;&#1590;</text></g><ellipse cx="278.8369" cy="112.2188" fill="#FFFFFF" rx="10" ry="10" style="stroke:#000000;stroke-width:1;"/><rect fill="#D6EAF8" height="33.9688" rx="5" ry="5" style="stroke:#2E86C1;stroke-width:1;" width="223.4727" x="167.1006" y="142.2188"/><text fill="#000000" font-family="'Arial'" font-size="12" lengthAdjust="spacing" textLength="203.4727" x="177.1006" y="163.3574">&#1578;&#1581;&#1583;&#1610;&#1583; &#1575;&#1581;&#1578;&#1610;&#1575;&#1580;&#1575;&#1578; &#1575;&#1604;&#1605;&#1589;&#1606;&#1593; &#1604;&#1604;&#1578;&#1591;&#1608;&#1610;&#1585; &#1608;&#1575;&#1604;&#1578;&#1581;&#1583;&#1610;&#1579;</text><rect fill="#D6EAF8" height="47.9375" rx="5" ry="5" style="stroke:#2E86C1;stroke-width:1;" width="169.4316" x="194.1211" y="196.1875"/><text fill="#000000" font-family="'Arial'" font-size="12" lengthAdjust="spacing" textLength="149.4316" x="204.1211" y="217.3262">&#1575;&#1604;&#1575;&#1587;&#1578;&#1588;&#1575;&#1585;&#1577; &#1608;&#1575;&#1604;&#1578;&#1582;&#1591;&#1610;&#1591; &#1575;&#1604;&#1607;&#1606;&#1583;&#1587;&#1610;</text><text fill="#000000" font-family="'Arial'" font-size="12" lengthAdjust="spacing" textLength="108.0762" x="204.1211" y="231.2949">(&#1601;&#1585;&#1610;&#1602; &#1576;&#1585;&#1604;&#1610;&#1606;&#1578; &#1587;&#1610;&#1585;&#1601;)</text><rect fill="#D6EAF8" height="33.9688" rx="5" ry="5" style="stroke:#2E86C1;stroke-width:1;" width="198.7754" x="179.4492" y="264.125"/><text fill="#000000" font-family="'Arial'" font-size="12" lengthAdjust="spacing" textLength="178.7754" x="189.4492" y="285.2637">&#1578;&#1589;&#1605;&#1610;&#1605; &#1608;&#1578;&#1606;&#1601;&#1610;&#1584; &#1575;&#1604;&#1576;&#1606;&#1610;&#1577; &#1575;&#1604;&#1578;&#1581;&#1578;&#1610;&#1577; &#1575;&#1604;&#1603;&#1607;&#1585;&#1576;&#1575;&#1574;&#1610;&#1577;</text><rect fill="#D1F2EB" height="190.2031" rx="5" ry="5" style="stroke:#17A589;stroke-width:1;" width="245.1074" x="156.2832" y="308.0938"/><path d="M374.2393,308.0938 L374.2393,317.3906 L364.2393,327.3906 L156.2832,327.3906" fill="none" style="stroke:#17A589;stroke-width:1;"/><text fill="#000000" font-family="'Arial'" font-size="14" lengthAdjust="spacing" textLength="207.9561" x="159.2832" y="322.0889">&#1575;&#1604;&#1605;&#1603;&#1608;&#1606;&#1575;&#1578; &#1575;&#1604;&#1585;&#1574;&#1610;&#1587;&#1610;&#1577; &#1604;&#1604;&#1581;&#1604;&#1608;&#1604; &#1575;&#1604;&#1603;&#1607;&#1585;&#1576;&#1575;&#1574;&#1610;&#1577;</text><rect fill="#D6EAF8" height="33.9688" rx="5" ry="5" style="stroke:#2E86C1;stroke-width:1;" width="187.5957" x="185.0391" y="344.3906"/><text fill="#000000" font-family="'Arial'" font-size="12" lengthAdjust="spacing" textLength="167.5957" x="195.0391" y="365.5293">&#1578;&#1608;&#1601;&#1610;&#1585; &#1608;&#1578;&#1585;&#1603;&#1610;&#1576; &#1604;&#1608;&#1581;&#1575;&#1578; &#1578;&#1608;&#1586;&#1610;&#1593; &#1575;&#1604;&#1591;&#1575;&#1602;&#1577;</text><rect fill="#D6EAF8" height="33.9688" rx="5" ry="5" style="stroke:#2E86C1;stroke-width:1;" width="225.1074" x="166.2832" y="398.3594"/><text fill="#000000" font-family="'Arial'" font-size="12" lengthAdjust="spacing" textLength="205.1074" x="176.2832" y="419.498">&#1578;&#1591;&#1576;&#1610;&#1602; &#1571;&#1606;&#1592;&#1605;&#1577; &#1575;&#1604;&#1571;&#1578;&#1605;&#1578;&#1577; &#1608;&#1575;&#1604;&#1578;&#1581;&#1603;&#1605; &#1575;&#1604;&#1570;&#1604;&#1610; (PLC)</text><rect fill="#D6EAF8" height="33.9688" rx="5" ry="5" style="stroke:#2E86C1;stroke-width:1;" width="180.4883" x="188.5928" y="452.3281"/><text fill="#000000" font-family="'Arial'" font-size="12" lengthAdjust="spacing" textLength="160.4883" x="198.5928" y="473.4668">&#1578;&#1571;&#1587;&#1610;&#1587; &#1571;&#1606;&#1592;&#1605;&#1577; &#1575;&#1604;&#1587;&#1604;&#1575;&#1605;&#1577; &#1608;&#1575;&#1604;&#1605;&#1585;&#1575;&#1602;&#1576;&#1577;</text><rect fill="#D6EAF8" height="33.9688" rx="5" ry="5" style="stroke:#2E86C1;stroke-width:1;" width="171.3887" x="193.1426" y="518.2969"/><text fill="#000000" font-family="'Arial'" font-size="12" lengthAdjust="spacing" textLength="151.3887" x="203.1426" y="539.4355">&#1578;&#1588;&#1594;&#1610;&#1604; &#1608;&#1575;&#1582;&#1578;&#1576;&#1575;&#1585; &#1575;&#1604;&#1571;&#1606;&#1592;&#1605;&#1577; &#1575;&#1604;&#1580;&#1583;&#1610;&#1583;&#1577;</text><rect fill="#000000" height="6" rx="2.5" ry="2.5" style="stroke:#000000;stroke-width:1;" width="563.6738" x="6" y="572.2656"/><rect fill="#D6EAF8" height="33.9688" rx="5" ry="5" style="stroke:#2E86C1;stroke-width:1;" width="108.4297" x="18" y="598.2656"/><text fill="#000000" font-family="'Arial'" font-size="12" lengthAdjust="spacing" textLength="88.4297" x="28" y="619.4043">&#1586;&#1610;&#1575;&#1583;&#1577; &#1603;&#1601;&#1575;&#1569;&#1577; &#1575;&#1604;&#1573;&#1606;&#1578;&#1575;&#1580;</text><rect fill="#D6EAF8" height="33.9688" rx="5" ry="5" style="stroke:#2E86C1;stroke-width:1;" width="224.7441" x="136.4297" y="598.2656"/><text fill="#000000" font-family="'Arial'" font-size="12" lengthAdjust="spacing" textLength="204.7441" x="146.4297" y="619.4043">&#1578;&#1602;&#1604;&#1610;&#1604; &#1575;&#1604;&#1578;&#1603;&#1575;&#1604;&#1610;&#1601; &#1575;&#1604;&#1578;&#1588;&#1594;&#1610;&#1604;&#1610;&#1577; &#1608;&#1575;&#1587;&#1578;&#1607;&#1604;&#1575;&#1603; &#1575;&#1604;&#1591;&#1575;&#1602;&#1577;</text><rect fill="#D6EAF8" height="33.9688" rx="5" ry="5" style="stroke:#2E86C1;stroke-width:1;" width="168.5" x="389.1738" y="598.2656"/><text fill="#000000" font-family="'Arial'" font-size="12" lengthAdjust="spacing" textLength="148.5" x="399.1738" y="619.4043">&#1578;&#1581;&#1587;&#1610;&#1606; &#1605;&#1593;&#1575;&#1610;&#1610;&#1585; &#1575;&#1604;&#1587;&#1604;&#1575;&#1605;&#1577; &#1608;&#1575;&#1604;&#1571;&#1605;&#1575;&#1606;</text><rect fill="#000000" height="6" rx="2.5" ry="2.5" style="stroke:#000000;stroke-width:1;" width="563.6738" x="6" y="652.2344"/><rect fill="#D6EAF8" height="33.9688" rx="5" ry="5" style="stroke:#2E86C1;stroke-width:1;" width="208.332" x="174.6709" y="678.2344"/><text fill="#000000" font-family="'Arial'" font-size="12" lengthAdjust="spacing" textLength="188.332" x="184.6709" y="699.373">&#1578;&#1581;&#1602;&#1610;&#1602; &#1575;&#1604;&#1578;&#1591;&#1608;&#1585; &#1608;&#1575;&#1604;&#1606;&#1605;&#1608; &#1575;&#1604;&#1605;&#1587;&#1578;&#1583;&#1575;&#1605; &#1604;&#1604;&#1605;&#1589;&#1606;&#1593;</text><ellipse cx="278.8369" cy="743.2031" fill="none" rx="11" ry="11" style="stroke:#000000;stroke-width:1;"/><ellipse cx="278.8369" cy="743.2031" fill="#FFFFFF" rx="6" ry="6" style="stroke:#000000;stroke-width:1;"/><line style="stroke:#2E86C1;stroke-width:1;" x1="278.8369" x2="278.8369" y1="122.2188" y2="142.2188"/><polygon fill="#2E86C1" points="274.8369,132.2188,278.8369,142.2188,282.8369,132.2188,278.8369,136.2188" style="stroke:#2E86C1;stroke-width:1;"/><line style="stroke:#2E86C1;stroke-width:1;" x1="278.8369" x2="278.8369" y1="176.1875" y2="196.1875"/><polygon fill="#2E86C1" points="274.8369,186.1875,278.8369,196.1875,282.8369,186.1875,278.8369,190.1875" style="stroke:#2E86C1;stroke-width:1;"/><line style="stroke:#2E86C1;stroke-width:1;" x1="278.8369" x2="278.8369" y1="244.125" y2="264.125"/><polygon fill="#2E86C1" points="274.8369,254.125,278.8369,264.125,282.8369,254.125,278.8369,258.125" style="stroke:#2E86C1;stroke-width:1;"/><line style="stroke:#2E86C1;stroke-width:1;" x1="278.8369" x2="278.8369" y1="378.3594" y2="398.3594"/><polygon fill="#2E86C1" points="274.8369,388.3594,278.8369,398.3594,282.8369,388.3594,278.8369,392.3594" style="stroke:#2E86C1;stroke-width:1;"/><line style="stroke:#2E86C1;stroke-width:1;" x1="278.8369" x2="278.8369" y1="432.3281" y2="452.3281"/><polygon fill="#2E86C1" points="274.8369,442.3281,278.8369,452.3281,282.8369,442.3281,278.8369,446.3281" style="stroke:#2E86C1;stroke-width:1;"/><line style="stroke:#2E86C1;stroke-width:1;" x1="278.8369" x2="278.8369" y1="298.0938" y2="344.3906"/><polygon fill="#2E86C1" points="274.8369,334.3906,278.8369,344.3906,282.8369,334.3906,278.8369,338.3906" style="stroke:#2E86C1;stroke-width:1;"/><line style="stroke:#2E86C1;stroke-width:1;" x1="278.8369" x2="278.8369" y1="486.2969" y2="518.2969"/><polygon fill="#2E86C1" points="274.8369,508.2969,278.8369,518.2969,282.8369,508.2969,278.8369,512.2969" style="stroke:#2E86C1;stroke-width:1;"/><line style="stroke:#2E86C1;stroke-width:1;" x1="72.2148" x2="72.2148" y1="578.2656" y2="598.2656"/><polygon fill="#2E86C1" points="68.2148,588.2656,72.2148,598.2656,76.2148,588.2656,72.2148,592.2656" style="stroke:#2E86C1;stroke-width:1;"/><line style="stroke:#2E86C1;stroke-width:1;" x1="248.8018" x2="248.8018" y1="578.2656" y2="598.2656"/><polygon fill="#2E86C1" points="244.8018,588.2656,248.8018,598.2656,252.8018,588.2656,248.8018,592.2656" style="stroke:#2E86C1;stroke-width:1;"/><line style="stroke:#2E86C1;stroke-width:1;" x1="473.4238" x2="473.4238" y1="578.2656" y2="598.2656"/><polygon fill="#2E86C1" points="469.4238,588.2656,473.4238,598.2656,477.4238,588.2656,473.4238,592.2656" style="stroke:#2E86C1;stroke-width:1;"/><line style="stroke:#2E86C1;stroke-width:1;" x1="72.2148" x2="72.2148" y1="632.2344" y2="652.2344"/><polygon fill="#2E86C1" points="68.2148,642.2344,72.2148,652.2344,76.2148,642.2344,72.2148,646.2344" style="stroke:#2E86C1;stroke-width:1;"/><line style="stroke:#2E86C1;stroke-width:1;" x1="248.8018" x2="248.8018" y1="632.2344" y2="652.2344"/><polygon fill="#2E86C1" points="244.8018,642.2344,248.8018,652.2344,252.8018,642.2344,248.8018,646.2344" style="stroke:#2E86C1;stroke-width:1;"/><line style="stroke:#2E86C1;stroke-width:1;" x1="473.4238" x2="473.4238" y1="632.2344" y2="652.2344"/><polygon fill="#2E86C1" points="469.4238,642.2344,473.4238,652.2344,477.4238,642.2344,473.4238,646.2344" style="stroke:#2E86C1;stroke-width:1;"/><line style="stroke:#2E86C1;stroke-width:1;" x1="278.8369" x2="278.8369" y1="552.2656" y2="572.2656"/><polygon fill="#2E86C1" points="274.8369,562.2656,278.8369,572.2656,282.8369,562.2656,278.8369,566.2656" style="stroke:#2E86C1;stroke-width:1;"/><line style="stroke:#2E86C1;stroke-width:1;" x1="278.8369" x2="278.8369" y1="658.2344" y2="678.2344"/><polygon fill="#2E86C1" points="274.8369,668.2344,278.8369,678.2344,282.8369,668.2344,278.8369,672.2344" style="stroke:#2E86C1;stroke-width:1;"/><line style="stroke:#2E86C1;stroke-width:1;" x1="278.8369" x2="278.8369" y1="712.2031" y2="732.2031"/><polygon fill="#2E86C1" points="274.8369,722.2031,278.8369,732.2031,282.8369,722.2031,278.8369,726.2031" style="stroke:#2E86C1;stroke-width:1;"/></g></svg>