<?plantuml 1.2026.2beta3?><svg xmlns="http://www.w3.org/2000/svg" xmlns:xlink="http://www.w3.org/1999/xlink" contentStyleType="text/css" data-diagram-type="ACTIVITY" height="1070px" preserveAspectRatio="none" style="width:589px;height:1070px;background:#FFFFFF;" version="1.1" viewBox="0 0 589 1070" width="589px" zoomAndPan="magnify"><title>&#1573;&#1580;&#1585;&#1575;&#1569;&#1575;&#1578; &#1589;&#1610;&#1575;&#1606;&#1577; &#1605;&#1590;&#1582;&#1577; &#1575;&#1604;&#1580;&#1608;&#1603;&#1610; (Jockey Pump)</title><defs/><g><g class="title" data-source-line="2"><text fill="#000000" font-family="Verdana" font-size="22" font-weight="bold" lengthAdjust="spacing" textLength="499.7158" x="43.6373" y="35.4209">&#1573;&#1580;&#1585;&#1575;&#1569;&#1575;&#1578; &#1589;&#1610;&#1575;&#1606;&#1577; &#1605;&#1590;&#1582;&#1577; &#1575;&#1604;&#1580;&#1608;&#1603;&#1610; (Jockey Pump)</text></g><ellipse cx="264.1902" cy="61.6094" fill="#FFFFFF" rx="10" ry="10" style="stroke:#000000;stroke-width:1;"/><rect fill="#FFFFFF" height="33.9688" rx="12.5" ry="12.5" style="stroke:#000000;stroke-width:1;" width="112.0098" x="208.1853" y="91.6094"/><text fill="#000000" font-family="Verdana" font-size="12" lengthAdjust="spacing" textLength="92.0098" x="218.1853" y="112.748">&#1576;&#1583;&#1569; &#1575;&#1604;&#1589;&#1610;&#1575;&#1606;&#1577; &#1575;&#1604;&#1583;&#1608;&#1585;&#1610;&#1577;</text><rect fill="#FFFFFF" height="250.3203" style="stroke:#000000;stroke-width:1;" width="438.5015" x="145.489" y="135.5781"/><path d="M327.3787,135.5781 L327.3787,144.875 L317.3787,154.875 L145.489,154.875" fill="none" style="stroke:#000000;stroke-width:1;"/><text fill="#000000" font-family="Verdana" font-size="14" lengthAdjust="spacing" textLength="171.8896" x="148.489" y="149.5732">1. &#1575;&#1604;&#1601;&#1581;&#1589; &#1575;&#1604;&#1576;&#1589;&#1585;&#1610; &#1608;&#1575;&#1604;&#1603;&#1607;&#1585;&#1576;&#1575;&#1574;&#1610;</text><path d="M368.3054,171.7266 L368.3054,187.8594 L348.3054,191.8594 L368.3054,195.8594 L368.3054,211.9922 A0,0 0 0 0 368.3054,211.9922 L573.9905,211.9922 A0,0 0 0 0 573.9905,211.9922 L573.9905,181.7266 L563.9905,171.7266 L368.3054,171.7266 A0,0 0 0 0 368.3054,171.7266" fill="#FFFFFF" style="stroke:#000000;stroke-width:1;"/><path d="M563.9905,171.7266 L563.9905,181.7266 L573.9905,181.7266 L563.9905,171.7266" fill="#FFFFFF" style="stroke:#000000;stroke-width:1;"/><text fill="#000000" font-family="Verdana" font-size="13" lengthAdjust="spacing" textLength="184.6851" x="374.3054" y="188.7935">&#1575;&#1604;&#1578;&#1571;&#1603;&#1583; &#1605;&#1606; &#1593;&#1583;&#1605; &#1608;&#1580;&#1608;&#1583; &#1578;&#1587;&#1585;&#1610;&#1576; &#1604;&#1604;&#1605;&#1610;&#1575;&#1607;</text><text fill="#000000" font-family="Verdana" font-size="13" lengthAdjust="spacing" textLength="77.2637" x="374.3054" y="203.9263">&#1571;&#1608; &#1589;&#1583;&#1571; &#1571;&#1608; &#1578;&#1570;&#1603;&#1604;</text><rect fill="#FFFFFF" height="33.9688" rx="12.5" ry="12.5" style="stroke:#000000;stroke-width:1;" width="168.2305" x="180.075" y="174.875"/><text fill="#000000" font-family="Verdana" font-size="12" lengthAdjust="spacing" textLength="148.2305" x="190.075" y="196.0137">&#1601;&#1581;&#1589; &#1580;&#1587;&#1605; &#1575;&#1604;&#1605;&#1590;&#1582;&#1577; &#1608;&#1575;&#1604;&#1605;&#1581;&#1585;&#1603;</text><rect fill="#FFFFFF" height="33.9688" rx="12.5" ry="12.5" style="stroke:#000000;stroke-width:1;" width="206.0352" x="161.1726" y="231.9922"/><text fill="#000000" font-family="Verdana" font-size="12" lengthAdjust="spacing" textLength="186.0352" x="171.1726" y="253.1309">&#1601;&#1581;&#1589; &#1604;&#1608;&#1581;&#1577; &#1575;&#1604;&#1578;&#1581;&#1603;&#1605; (Control Panel)</text><rect fill="#FFFFFF" height="33.9688" rx="12.5" ry="12.5" style="stroke:#000000;stroke-width:1;" width="210.5703" x="158.905" y="285.9609"/><text fill="#000000" font-family="Verdana" font-size="12" lengthAdjust="spacing" textLength="190.5703" x="168.905" y="307.0996">&#1575;&#1604;&#1578;&#1581;&#1602;&#1602; &#1605;&#1606; &#1587;&#1604;&#1575;&#1605;&#1577; &#1575;&#1604;&#1578;&#1608;&#1589;&#1610;&#1604;&#1575;&#1578; &#1575;&#1604;&#1603;&#1607;&#1585;&#1576;&#1575;&#1574;&#1610;&#1577;</text><rect fill="#FFFFFF" height="33.9688" rx="12.5" ry="12.5" style="stroke:#000000;stroke-width:1;" width="217.4023" x="155.489" y="339.9297"/><text fill="#000000" font-family="Verdana" font-size="12" lengthAdjust="spacing" textLength="197.4023" x="165.489" y="361.0684">&#1602;&#1610;&#1575;&#1587; &#1575;&#1604;&#1580;&#1607;&#1583; (Voltage) &#1608;&#1575;&#1604;&#1578;&#1610;&#1575;&#1585; (Amps)</text><rect fill="#FFFFFF" height="372.1719" style="stroke:#000000;stroke-width:1;" width="549.6545" x="6" y="395.8984"/><path d="M150.9551,395.8984 L150.9551,405.1953 L140.9551,415.1953 L6,415.1953" fill="none" style="stroke:#000000;stroke-width:1;"/><text fill="#000000" font-family="Verdana" font-size="14" lengthAdjust="spacing" textLength="134.9551" x="9" y="409.8936">2. &#1575;&#1582;&#1578;&#1576;&#1575;&#1585; &#1575;&#1604;&#1571;&#1583;&#1575;&#1569; &#1608;&#1575;&#1604;&#1590;&#1594;&#1591;</text><path d="M380.2351,436.6133 L380.2351,445.1797 L360.2351,449.1797 L380.2351,453.1797 L380.2351,461.7461 A0,0 0 0 0 380.2351,461.7461 L535.7356,461.7461 A0,0 0 0 0 535.7356,461.7461 L535.7356,446.6133 L525.7356,436.6133 L380.2351,436.6133 A0,0 0 0 0 380.2351,436.6133" fill="#FFFFFF" style="stroke:#000000;stroke-width:1;"/><path d="M525.7356,436.6133 L525.7356,446.6133 L535.7356,446.6133 L525.7356,436.6133" fill="#FFFFFF" style="stroke:#000000;stroke-width:1;"/><text fill="#000000" font-family="Verdana" font-size="13" lengthAdjust="spacing" textLength="134.5005" x="386.2351" y="453.6802">&#1601;&#1578;&#1581; &#1589;&#1605;&#1575;&#1605; &#1575;&#1604;&#1578;&#1589;&#1585;&#1610;&#1601; &#1576;&#1576;&#1591;&#1569;</text><rect fill="#FFFFFF" height="33.9688" rx="12.5" ry="12.5" style="stroke:#000000;stroke-width:1;" width="192.0898" x="168.1453" y="432.1953"/><text fill="#000000" font-family="Verdana" font-size="12" lengthAdjust="spacing" textLength="172.0898" x="178.1453" y="453.334">&#1605;&#1581;&#1575;&#1603;&#1575;&#1577; &#1575;&#1606;&#1582;&#1601;&#1575;&#1590; &#1575;&#1604;&#1590;&#1594;&#1591; &#1601;&#1610; &#1575;&#1604;&#1588;&#1576;&#1603;&#1577;</text><polygon fill="#FFFFFF" points="153.7578,486.1641,374.6226,486.1641,386.6226,498.1641,374.6226,510.1641,153.7578,510.1641,141.7578,498.1641,153.7578,486.1641" style="stroke:#000000;stroke-width:1;"/><text fill="#000000" font-family="Verdana" font-size="11" lengthAdjust="spacing" textLength="220.8647" x="153.7578" y="501.9722">&#1607;&#1604; &#1593;&#1605;&#1604;&#1578; &#1575;&#1604;&#1605;&#1590;&#1582;&#1577; &#1593;&#1606;&#1583; &#1606;&#1602;&#1591;&#1577; &#1575;&#1604;&#1578;&#1588;&#1594;&#1610;&#1604; (Cut-in)&#1567;</text><text fill="#000000" font-family="Verdana" font-size="11" lengthAdjust="spacing" textLength="15.689" x="126.0688" y="495.5698">&#1606;&#1593;&#1605;</text><text fill="#000000" font-family="Verdana" font-size="11" lengthAdjust="spacing" textLength="6.2734" x="386.6226" y="495.5698">&#1604;&#1575;</text><rect fill="#FFFFFF" height="33.9688" rx="12.5" ry="12.5" style="stroke:#000000;stroke-width:1;" width="227.5156" x="18" y="520.1641"/><text fill="#000000" font-family="Verdana" font-size="12" lengthAdjust="spacing" textLength="207.5156" x="28" y="541.3027">&#1605;&#1585;&#1575;&#1602;&#1576;&#1577; &#1589;&#1608;&#1578; &#1575;&#1604;&#1605;&#1590;&#1582;&#1577; &#1608;&#1575;&#1604;&#1575;&#1607;&#1578;&#1586;&#1575;&#1586; &#1571;&#1579;&#1606;&#1575;&#1569; &#1575;&#1604;&#1593;&#1605;&#1604;</text><rect fill="#FFFFFF" height="33.9688" rx="12.5" ry="12.5" style="stroke:#000000;stroke-width:1;" width="230.4922" x="281.3765" y="520.1641"/><text fill="#000000" font-family="Verdana" font-size="12" lengthAdjust="spacing" textLength="210.4922" x="291.3765" y="541.3027">&#1605;&#1593;&#1575;&#1610;&#1585;&#1577; &#1605;&#1601;&#1578;&#1575;&#1581; &#1575;&#1604;&#1590;&#1594;&#1591; (Pressure Switch)</text><rect fill="#FFFFFF" height="33.9688" rx="12.5" ry="12.5" style="stroke:#000000;stroke-width:1;" width="83.8848" x="354.6802" y="574.1328"/><text fill="#000000" font-family="Verdana" font-size="12" lengthAdjust="spacing" textLength="63.8848" x="364.6802" y="595.2715">&#1573;&#1593;&#1575;&#1583;&#1577; &#1575;&#1604;&#1575;&#1582;&#1578;&#1576;&#1575;&#1585;</text><polygon fill="#FFFFFF" points="264.1902,614.1016,276.1902,626.1016,264.1902,638.1016,252.1902,626.1016,264.1902,614.1016" style="stroke:#000000;stroke-width:1;"/><polygon fill="#FFFFFF" points="122.1086,658.1016,406.2717,658.1016,418.2717,670.1016,406.2717,682.1016,122.1086,682.1016,110.1086,670.1016,122.1086,658.1016" style="stroke:#000000;stroke-width:1;"/><text fill="#000000" font-family="Verdana" font-size="11" lengthAdjust="spacing" textLength="284.1631" x="122.1086" y="673.9097">&#1607;&#1604; &#1578;&#1608;&#1602;&#1601;&#1578; &#1575;&#1604;&#1605;&#1590;&#1582;&#1577; &#1593;&#1606;&#1583; &#1575;&#1604;&#1608;&#1589;&#1608;&#1604; &#1604;&#1604;&#1590;&#1594;&#1591; &#1575;&#1604;&#1605;&#1591;&#1604;&#1608;&#1576; (Cut-out)&#1567;</text><text fill="#000000" font-family="Verdana" font-size="11" lengthAdjust="spacing" textLength="15.689" x="94.4197" y="667.5073">&#1606;&#1593;&#1605;</text><text fill="#000000" font-family="Verdana" font-size="11" lengthAdjust="spacing" textLength="6.2734" x="418.2717" y="667.5073">&#1604;&#1575;</text><rect fill="#FFFFFF" height="33.9688" rx="12.5" ry="12.5" style="stroke:#000000;stroke-width:1;" width="125.3223" x="37.4475" y="692.1016"/><text fill="#000000" font-family="Verdana" font-size="12" lengthAdjust="spacing" textLength="105.3223" x="47.4475" y="713.2402">&#1573;&#1594;&#1604;&#1575;&#1602; &#1589;&#1605;&#1575;&#1605; &#1575;&#1604;&#1578;&#1589;&#1585;&#1610;&#1601;</text><rect fill="#FFFFFF" height="33.9688" rx="12.5" ry="12.5" style="stroke:#000000;stroke-width:1;" width="214.7656" x="320.8889" y="692.1016"/><text fill="#000000" font-family="Verdana" font-size="12" lengthAdjust="spacing" textLength="194.7656" x="330.8889" y="713.2402">&#1590;&#1576;&#1591; &#1573;&#1593;&#1583;&#1575;&#1583;&#1575;&#1578; &#1575;&#1604;&#1601;&#1589;&#1604; &#1601;&#1610; &#1605;&#1601;&#1578;&#1575;&#1581; &#1575;&#1604;&#1590;&#1594;&#1591;</text><polygon fill="#FFFFFF" points="264.1902,732.0703,276.1902,744.0703,264.1902,756.0703,252.1902,744.0703,264.1902,732.0703" style="stroke:#000000;stroke-width:1;"/><rect fill="#FFFFFF" height="190.2031" style="stroke:#000000;stroke-width:1;" width="252.7949" x="137.7927" y="778.0703"/><path d="M265.1179,778.0703 L265.1179,787.3672 L255.1179,797.3672 L137.7927,797.3672" fill="none" style="stroke:#000000;stroke-width:1;"/><text fill="#000000" font-family="Verdana" font-size="14" lengthAdjust="spacing" textLength="117.3252" x="140.7927" y="792.0654">3. &#1575;&#1604;&#1573;&#1580;&#1585;&#1575;&#1569;&#1575;&#1578; &#1575;&#1604;&#1606;&#1607;&#1575;&#1574;&#1610;&#1577;</text><rect fill="#FFFFFF" height="33.9688" rx="12.5" ry="12.5" style="stroke:#000000;stroke-width:1;" width="223.6309" x="152.3748" y="814.3672"/><text fill="#000000" font-family="Verdana" font-size="12" lengthAdjust="spacing" textLength="203.6309" x="162.3748" y="835.5059">&#1578;&#1588;&#1581;&#1610;&#1605; &#1575;&#1604;&#1605;&#1581;&#1575;&#1605;&#1604; (&#1573;&#1584;&#1575; &#1603;&#1575;&#1606;&#1578; &#1602;&#1575;&#1576;&#1604;&#1577; &#1604;&#1604;&#1578;&#1588;&#1581;&#1610;&#1605;)</text><rect fill="#FFFFFF" height="33.9688" rx="12.5" ry="12.5" style="stroke:#000000;stroke-width:1;" width="141.6113" x="193.3845" y="868.3359"/><text fill="#000000" font-family="Verdana" font-size="12" lengthAdjust="spacing" textLength="121.6113" x="203.3845" y="889.4746">&#1578;&#1606;&#1592;&#1610;&#1601; &#1575;&#1604;&#1605;&#1590;&#1582;&#1577; &#1608;&#1605;&#1581;&#1610;&#1591;&#1607;&#1575;</text><rect fill="#FFFFFF" height="33.9688" rx="12.5" ry="12.5" style="stroke:#000000;stroke-width:1;" width="232.7949" x="147.7927" y="922.3047"/><text fill="#000000" font-family="Verdana" font-size="12" lengthAdjust="spacing" textLength="212.7949" x="157.7927" y="943.4434">&#1575;&#1604;&#1578;&#1571;&#1603;&#1583; &#1605;&#1606; &#1608;&#1590;&#1593; &#1605;&#1601;&#1578;&#1575;&#1581; &#1575;&#1604;&#1578;&#1588;&#1594;&#1610;&#1604; &#1593;&#1604;&#1609; (Auto)</text><rect fill="#FFFFFF" height="33.9688" rx="12.5" ry="12.5" style="stroke:#000000;stroke-width:1;" width="200.1348" x="164.1228" y="988.2734"/><text fill="#000000" font-family="Verdana" font-size="12" lengthAdjust="spacing" textLength="180.1348" x="174.1228" y="1009.4121">&#1578;&#1587;&#1580;&#1610;&#1604; &#1575;&#1604;&#1605;&#1604;&#1575;&#1581;&#1592;&#1575;&#1578; &#1601;&#1610; &#1587;&#1580;&#1604; &#1575;&#1604;&#1589;&#1610;&#1575;&#1606;&#1577;</text><ellipse cx="264.1902" cy="1053.2422" fill="none" rx="11" ry="11" style="stroke:#000000;stroke-width:1;"/><ellipse cx="264.1902" cy="1053.2422" fill="#FFFFFF" rx="6" ry="6" style="stroke:#000000;stroke-width:1;"/><line style="stroke:#000000;stroke-width:1;" x1="264.1902" x2="264.1902" y1="71.6094" y2="91.6094"/><polygon fill="#000000" points="260.1902,81.6094,264.1902,91.6094,268.1902,81.6094,264.1902,85.6094" style="stroke:#000000;stroke-width:1;"/><line style="stroke:#000000;stroke-width:1;" x1="264.1902" x2="264.1902" y1="208.8438" y2="231.9922"/><polygon fill="#000000" points="260.1902,221.9922,264.1902,231.9922,268.1902,221.9922,264.1902,225.9922" style="stroke:#000000;stroke-width:1;"/><line style="stroke:#000000;stroke-width:1;" x1="264.1902" x2="264.1902" y1="265.9609" y2="285.9609"/><polygon fill="#000000" points="260.1902,275.9609,264.1902,285.9609,268.1902,275.9609,264.1902,279.9609" style="stroke:#000000;stroke-width:1;"/><line style="stroke:#000000;stroke-width:1;" x1="264.1902" x2="264.1902" y1="319.9297" y2="339.9297"/><polygon fill="#000000" points="260.1902,329.9297,264.1902,339.9297,268.1902,329.9297,264.1902,333.9297" style="stroke:#000000;stroke-width:1;"/><line style="stroke:#000000;stroke-width:1;" x1="264.1902" x2="264.1902" y1="125.5781" y2="174.875"/><polygon fill="#000000" points="260.1902,164.875,264.1902,174.875,268.1902,164.875,264.1902,168.875" style="stroke:#000000;stroke-width:1;"/><line style="stroke:#000000;stroke-width:1;" x1="396.6226" x2="396.6226" y1="554.1328" y2="574.1328"/><polygon fill="#000000" points="392.6226,564.1328,396.6226,574.1328,400.6226,564.1328,396.6226,568.1328" style="stroke:#000000;stroke-width:1;"/><line style="stroke:#000000;stroke-width:1;" x1="141.7578" x2="131.7578" y1="498.1641" y2="498.1641"/><line style="stroke:#000000;stroke-width:1;" x1="131.7578" x2="131.7578" y1="498.1641" y2="520.1641"/><polygon fill="#000000" points="127.7578,510.1641,131.7578,520.1641,135.7578,510.1641,131.7578,514.1641" style="stroke:#000000;stroke-width:1;"/><line style="stroke:#000000;stroke-width:1;" x1="386.6226" x2="396.6226" y1="498.1641" y2="498.1641"/><line style="stroke:#000000;stroke-width:1;" x1="396.6226" x2="396.6226" y1="498.1641" y2="520.1641"/><polygon fill="#000000" points="392.6226,510.1641,396.6226,520.1641,400.6226,510.1641,396.6226,514.1641" style="stroke:#000000;stroke-width:1;"/><line style="stroke:#000000;stroke-width:1;" x1="131.7578" x2="131.7578" y1="554.1328" y2="626.1016"/><line style="stroke:#000000;stroke-width:1;" x1="131.7578" x2="252.1902" y1="626.1016" y2="626.1016"/><polygon fill="#000000" points="242.1902,622.1016,252.1902,626.1016,242.1902,630.1016,246.1902,626.1016" style="stroke:#000000;stroke-width:1;"/><line style="stroke:#000000;stroke-width:1;" x1="396.6226" x2="396.6226" y1="608.1016" y2="626.1016"/><line style="stroke:#000000;stroke-width:1;" x1="396.6226" x2="276.1902" y1="626.1016" y2="626.1016"/><polygon fill="#000000" points="286.1902,622.1016,276.1902,626.1016,286.1902,630.1016,282.1902,626.1016" style="stroke:#000000;stroke-width:1;"/><line style="stroke:#000000;stroke-width:1;" x1="264.1902" x2="264.1902" y1="466.1641" y2="486.1641"/><polygon fill="#000000" points="260.1902,476.1641,264.1902,486.1641,268.1902,476.1641,264.1902,480.1641" style="stroke:#000000;stroke-width:1;"/><line style="stroke:#000000;stroke-width:1;" x1="110.1086" x2="100.1086" y1="670.1016" y2="670.1016"/><line style="stroke:#000000;stroke-width:1;" x1="100.1086" x2="100.1086" y1="670.1016" y2="692.1016"/><polygon fill="#000000" points="96.1086,682.1016,100.1086,692.1016,104.1086,682.1016,100.1086,686.1016" style="stroke:#000000;stroke-width:1;"/><line style="stroke:#000000;stroke-width:1;" x1="418.2717" x2="428.2717" y1="670.1016" y2="670.1016"/><line style="stroke:#000000;stroke-width:1;" x1="428.2717" x2="428.2717" y1="670.1016" y2="692.1016"/><polygon fill="#000000" points="424.2717,682.1016,428.2717,692.1016,432.2717,682.1016,428.2717,686.1016" style="stroke:#000000;stroke-width:1;"/><line style="stroke:#000000;stroke-width:1;" x1="100.1086" x2="100.1086" y1="726.0703" y2="744.0703"/><line style="stroke:#000000;stroke-width:1;" x1="100.1086" x2="252.1902" y1="744.0703" y2="744.0703"/><polygon fill="#000000" points="242.1902,740.0703,252.1902,744.0703,242.1902,748.0703,246.1902,744.0703" style="stroke:#000000;stroke-width:1;"/><line style="stroke:#000000;stroke-width:1;" x1="428.2717" x2="428.2717" y1="726.0703" y2="744.0703"/><line style="stroke:#000000;stroke-width:1;" x1="428.2717" x2="276.1902" y1="744.0703" y2="744.0703"/><polygon fill="#000000" points="286.1902,740.0703,276.1902,744.0703,286.1902,748.0703,282.1902,744.0703" style="stroke:#000000;stroke-width:1;"/><line style="stroke:#000000;stroke-width:1;" x1="264.1902" x2="264.1902" y1="638.1016" y2="658.1016"/><polygon fill="#000000" points="260.1902,648.1016,264.1902,658.1016,268.1902,648.1016,264.1902,652.1016" style="stroke:#000000;stroke-width:1;"/><line style="stroke:#000000;stroke-width:1;" x1="264.1902" x2="264.1902" y1="373.8984" y2="432.1953"/><polygon fill="#000000" points="260.1902,422.1953,264.1902,432.1953,268.1902,422.1953,264.1902,426.1953" style="stroke:#000000;stroke-width:1;"/><line style="stroke:#000000;stroke-width:1;" x1="264.1902" x2="264.1902" y1="848.3359" y2="868.3359"/><polygon fill="#000000" points="260.1902,858.3359,264.1902,868.3359,268.1902,858.3359,264.1902,862.3359" style="stroke:#000000;stroke-width:1;"/><line style="stroke:#000000;stroke-width:1;" x1="264.1902" x2="264.1902" y1="902.3047" y2="922.3047"/><polygon fill="#000000" points="260.1902,912.3047,264.1902,922.3047,268.1902,912.3047,264.1902,916.3047" style="stroke:#000000;stroke-width:1;"/><line style="stroke:#000000;stroke-width:1;" x1="264.1902" x2="264.1902" y1="756.0703" y2="814.3672"/><polygon fill="#000000" points="260.1902,804.3672,264.1902,814.3672,268.1902,804.3672,264.1902,808.3672" style="stroke:#000000;stroke-width:1;"/><line style="stroke:#000000;stroke-width:1;" x1="264.1902" x2="264.1902" y1="956.2734" y2="988.2734"/><polygon fill="#000000" points="260.1902,978.2734,264.1902,988.2734,268.1902,978.2734,264.1902,982.2734" style="stroke:#000000;stroke-width:1;"/><line style="stroke:#000000;stroke-width:1;" x1="264.1902" x2="264.1902" y1="1022.2422" y2="1042.2422"/><polygon fill="#000000" points="260.1902,1032.2422,264.1902,1042.2422,268.1902,1032.2422,264.1902,1036.2422" style="stroke:#000000;stroke-width:1;"/><?plantuml-src VLHDRzf04BtxLsnpWaChjRt1gUgj9wHAlQFKIQmI6y6Yggfw0Cn7-HDLYb8R5q890K9-oUo_wPjPsmJoWOJatPrvy-RDstsXpznpLzLhLSztjAThhg9BcjA28hh0Fr6qCYEAJ9ycolHeJLVum3gagHcQhXcfmeVW-8lxJLLQv_MYupHrjQ4TfqGnpUd2XkuWP3atGrfWQr9sd3gYFUq5lZfw_KgEJPjcjBAHCQquKY61Jxfc06OnUFqneoFrtL7ubRA4AIrDpq9aHDEy7W8MfbkMU3_GhcfufsTQbloJMWcDJPVcwDBq5Mt1iiVvQ1ERE5qAvrW13uZIqM27C3P3I8MMn-btGh_1DvG8r_yiPMMnHnfGGtnCCWepvFHKuNtWwqPGKvMgxzQAbdSf3-cOJifoYPq8xMNv08FMlCcJUo0PAswhTvW_BRD93j1YuLDGqzLJjvYg1ZIEMQZ2k_Dw4oH-x4th3KyB8YS2lh18OmW0usG8QxgZpMvEF8O86aUMRv-ke494QxKBLgQDSSlwXcB4JWw7La88gy36x77pcNJY5DDMu1FJXYuSIVHELC4CJ8Y9Gh8maoLtyXOqCFE-wI0d7yCDtR6C64HBl_Jy8lqgAjmK7rXz1YhcW-UkS5cG7dFw2fqdZtcGtGBWQ_Hx3OVGNm15sVqGQhPHjzPqKGNn-pMs21oX4jz24I1Y2NQw5IeDjzbiDLpryQkdZyzIqrZZN78wHfFsTszivSoVticXNZ0JRD9-GZ7POxSD4SjN8kMHncxaDBO21Ytzd8AWToS2TPwQwJFIe6pCPRd5kJIPMxyDjD0Qwb7DxlU-x-stzYKwV0aPj8ynfdSfDxOOPWQY-Ul3Fk-nVm3nZoB5faVVYO9F8lWwv3c6gTKaCx_a2U9khP7tNSImABjX0lilmhrt2wAlQVkWtvsZeNreVk9EjtHWxtH9thQfFPMIOf4PtKhNza9oG7Zmc9VviG_g_m40?></g></svg>