<?plantuml 1.2026.2beta3?><svg xmlns="http://www.w3.org/2000/svg" xmlns:xlink="http://www.w3.org/1999/xlink" contentStyleType="text/css" data-diagram-type="DESCRIPTION" height="791px" preserveAspectRatio="none" style="width:1210px;height:791px;background:#FFFFFF;" version="1.1" viewBox="0 0 1210 791" width="1210px" zoomAndPan="magnify"><title>&#1589;&#1610;&#1575;&#1606;&#1577; &#1605;&#1590;&#1582;&#1575;&#1578; KSB &#1575;&#1604;&#1571;&#1604;&#1605;&#1575;&#1606;&#1610;&#1577; (&#1585;&#1608;&#1575;&#1574;&#1593; &#1575;&#1604;&#1603;&#1585;&#1610;&#1587;&#1578;&#1575;&#1604;)</title><defs/><g><g class="title" data-source-line="1"><text fill="#000000" font-family="sans-serif" font-size="14" font-weight="bold" lengthAdjust="spacing" textLength="319.4775" x="438.5712" y="22.9951">&#1589;&#1610;&#1575;&#1606;&#1577; &#1605;&#1590;&#1582;&#1575;&#1578; KSB &#1575;&#1604;&#1571;&#1604;&#1605;&#1575;&#1606;&#1610;&#1577; (&#1585;&#1608;&#1575;&#1574;&#1593; &#1575;&#1604;&#1603;&#1585;&#1610;&#1587;&#1578;&#1575;&#1604;)</text></g><!--cluster ???? ?????? KSB--><g class="cluster" data-qualified-name=".... ...... KSB" data-source-line="5" id="ent0002"><rect fill="none" height="265.59" rx="2.5" ry="2.5" style="stroke:#181818;stroke-width:1;" width="835" x="369.62" y="295.7069"/><text fill="#000000" font-family="sans-serif" font-size="14" font-weight="bold" lengthAdjust="spacing" textLength="127.5791" x="723.3304" y="310.702">&#1606;&#1592;&#1575;&#1605; &#1575;&#1604;&#1605;&#1590;&#1582;&#1577; KSB</text></g><!--cluster ?????? ??????--><g class="cluster" data-qualified-name=".... ...... KSB....... ......" data-source-line="8" id="ent0004"><rect fill="none" height="97.3" rx="2.5" ry="2.5" style="stroke:#181818;stroke-width:1;" width="787" x="393.62" y="439.9969"/><text fill="#000000" font-family="sans-serif" font-size="14" font-weight="bold" lengthAdjust="spacing" textLength="106.8594" x="733.6903" y="454.992">&#1605;&#1603;&#1608;&#1606;&#1575;&#1578; &#1575;&#1604;&#1605;&#1590;&#1582;&#1577;</text></g><!--cluster Maintenance--><g class="cluster" data-qualified-name="Maintenance" data-source-line="21" id="ent0013"><rect fill="none" height="741.21" rx="2.5" ry="2.5" style="stroke:#181818;stroke-width:1;" width="308" x="29.62" y="44.2969"/><text fill="#000000" font-family="sans-serif" font-size="14" font-weight="bold" lengthAdjust="spacing" textLength="92.3125" x="137.4638" y="59.292">&#1593;&#1605;&#1604;&#1610;&#1577; &#1575;&#1604;&#1589;&#1610;&#1575;&#1606;&#1577;</text></g><!--entity Pump--><g class="entity" data-qualified-name=".... ...... KSB.Pump" data-source-line="6" id="ent0003"><rect fill="#F1F1F1" height="46.2969" rx="2.5" ry="2.5" style="stroke:#181818;stroke-width:0.5;" width="182.3105" x="449.46" y="330.7069"/><rect fill="#F1F1F1" height="10" style="stroke:#181818;stroke-width:0.5;" width="15" x="611.7705" y="335.7069"/><rect fill="#F1F1F1" height="2" style="stroke:#181818;stroke-width:0.5;" width="4" x="609.7705" y="337.7069"/><rect fill="#F1F1F1" height="2" style="stroke:#181818;stroke-width:0.5;" width="4" x="609.7705" y="341.7069"/><text fill="#000000" font-family="sans-serif" font-size="14" lengthAdjust="spacing" textLength="142.3105" x="464.46" y="363.702">&#1575;&#1604;&#1605;&#1590;&#1582;&#1577; &#1575;&#1604;&#1585;&#1574;&#1610;&#1587;&#1610;&#1577; (&#1575;&#1604;&#1590;&#1582;)</text></g><!--entity Seal--><g class="entity" data-qualified-name=".... ...... KSB....... .......Seal" data-source-line="9" id="ent0005"><rect fill="#F1F1F1" height="46.2969" rx="2.5" ry="2.5" style="stroke:#181818;stroke-width:0.5;" width="193.877" x="409.68" y="474.9969"/><rect fill="#F1F1F1" height="10" style="stroke:#181818;stroke-width:0.5;" width="15" x="583.557" y="479.9969"/><rect fill="#F1F1F1" height="2" style="stroke:#181818;stroke-width:0.5;" width="4" x="581.557" y="481.9969"/><rect fill="#F1F1F1" height="2" style="stroke:#181818;stroke-width:0.5;" width="4" x="581.557" y="485.9969"/><text fill="#000000" font-family="sans-serif" font-size="14" lengthAdjust="spacing" textLength="153.877" x="424.68" y="507.992">&#1575;&#1604;&#1582;&#1578;&#1605; &#1575;&#1604;&#1605;&#1610;&#1603;&#1575;&#1606;&#1610;&#1603;&#1610;/&#1575;&#1604;&#1581;&#1588;&#1608;&#1575;&#1578;</text></g><!--entity Motor--><g class="entity" data-qualified-name=".... ...... KSB....... .......Motor" data-source-line="10" id="ent0006"><rect fill="#F1F1F1" height="46.2969" rx="2.5" ry="2.5" style="stroke:#181818;stroke-width:0.5;" width="142.792" x="638.22" y="474.9969"/><rect fill="#F1F1F1" height="10" style="stroke:#181818;stroke-width:0.5;" width="15" x="761.012" y="479.9969"/><rect fill="#F1F1F1" height="2" style="stroke:#181818;stroke-width:0.5;" width="4" x="759.012" y="481.9969"/><rect fill="#F1F1F1" height="2" style="stroke:#181818;stroke-width:0.5;" width="4" x="759.012" y="485.9969"/><text fill="#000000" font-family="sans-serif" font-size="14" lengthAdjust="spacing" textLength="102.792" x="653.22" y="507.992">&#1575;&#1604;&#1605;&#1581;&#1585;&#1603; &#1575;&#1604;&#1603;&#1607;&#1585;&#1576;&#1575;&#1574;&#1610;</text></g><!--entity Impeller--><g class="entity" data-qualified-name=".... ...... KSB....... .......Impeller" data-source-line="11" id="ent0007"><rect fill="#F1F1F1" height="46.2969" rx="2.5" ry="2.5" style="stroke:#181818;stroke-width:0.5;" width="141.7393" x="815.75" y="474.9969"/><rect fill="#F1F1F1" height="10" style="stroke:#181818;stroke-width:0.5;" width="15" x="937.4893" y="479.9969"/><rect fill="#F1F1F1" height="2" style="stroke:#181818;stroke-width:0.5;" width="4" x="935.4893" y="481.9969"/><rect fill="#F1F1F1" height="2" style="stroke:#181818;stroke-width:0.5;" width="4" x="935.4893" y="485.9969"/><text fill="#000000" font-family="sans-serif" font-size="14" lengthAdjust="spacing" textLength="101.7393" x="830.75" y="507.992">&#1575;&#1604;&#1605;&#1603;&#1585;&#1607;&#1577; (&#1575;&#1604;&#1585;&#1610;&#1588;&#1577;)</text></g><!--entity Casing--><g class="entity" data-qualified-name=".... ...... KSB....... .......Casing" data-source-line="12" id="ent0008"><rect fill="#F1F1F1" height="46.2969" rx="2.5" ry="2.5" style="stroke:#181818;stroke-width:0.5;" width="172.3848" x="992.43" y="474.9969"/><rect fill="#F1F1F1" height="10" style="stroke:#181818;stroke-width:0.5;" width="15" x="1144.8148" y="479.9969"/><rect fill="#F1F1F1" height="2" style="stroke:#181818;stroke-width:0.5;" width="4" x="1142.8148" y="481.9969"/><rect fill="#F1F1F1" height="2" style="stroke:#181818;stroke-width:0.5;" width="4" x="1142.8148" y="485.9969"/><text fill="#000000" font-family="sans-serif" font-size="14" lengthAdjust="spacing" textLength="132.3848" x="1007.43" y="507.992">&#1580;&#1587;&#1605; &#1575;&#1604;&#1605;&#1590;&#1582;&#1577; (&#1575;&#1604;&#1607;&#1610;&#1603;&#1604;)</text></g><!--entity Log--><g class="entity" data-qualified-name="Maintenance.Log" data-source-line="22" id="ent0014"><path d="M53.83,341.2069 C53.83,331.2069 125.6166,331.2069 125.6166,331.2069 C125.6166,331.2069 197.4032,331.2069 197.4032,341.2069 L197.4032,366.5038 C197.4032,376.5038 125.6166,376.5038 125.6166,376.5038 C125.6166,376.5038 53.83,376.5038 53.83,366.5038 L53.83,341.2069" fill="#F1F1F1" style="stroke:#181818;stroke-width:0.5;"/><path d="M53.83,341.2069 C53.83,351.2069 125.6166,351.2069 125.6166,351.2069 C125.6166,351.2069 197.4032,351.2069 197.4032,341.2069" fill="none" style="stroke:#181818;stroke-width:0.5;"/><text fill="#000000" font-family="sans-serif" font-size="14" lengthAdjust="spacing" textLength="123.5732" x="63.83" y="368.202">&#1587;&#1580;&#1604; &#1575;&#1604;&#1571;&#1593;&#1591;&#1575;&#1604;/&#1575;&#1604;&#1578;&#1575;&#1585;&#1610;&#1582;</text></g><!--entity Diagnosis--><g class="entity" data-qualified-name="Maintenance.Diagnosis" data-source-line="23" id="ent0015"><ellipse cx="123.6243" cy="498.1497" fill="#F1F1F1" rx="68.7143" ry="16.1429" style="stroke:#181818;stroke-width:0.5;"/><text fill="#000000" font-family="sans-serif" font-size="14" lengthAdjust="spacing" textLength="103.1201" x="72.0642" y="502.7982">&#1575;&#1604;&#1578;&#1588;&#1582;&#1610;&#1589; &#1575;&#1604;&#1605;&#1576;&#1583;&#1574;&#1610;</text></g><!--entity Shutdown--><g class="entity" data-qualified-name="Maintenance.Shutdown" data-source-line="24" id="ent0016"><ellipse cx="113.6158" cy="638.8205" fill="#F1F1F1" rx="56.6158" ry="14.5236" style="stroke:#181818;stroke-width:0.5;"/><text fill="#000000" font-family="sans-serif" font-size="14" lengthAdjust="spacing" textLength="75.8242" x="75.7037" y="643.4689">&#1575;&#1604;&#1578;&#1608;&#1602;&#1601; &#1575;&#1604;&#1570;&#1605;&#1606;</text></g><!--entity Dismantle--><g class="entity" data-qualified-name="Maintenance.Dismantle" data-source-line="25" id="ent0017"><ellipse cx="147.6239" cy="745.9277" fill="#F1F1F1" rx="65.9039" ry="15.5808" style="stroke:#181818;stroke-width:0.5;"/><text fill="#000000" font-family="sans-serif" font-size="14" lengthAdjust="spacing" textLength="95.8535" x="99.6971" y="750.5761">&#1575;&#1604;&#1578;&#1601;&#1603;&#1610;&#1603; &#1608;&#1575;&#1604;&#1601;&#1581;&#1589;</text></g><!--entity Assemble--><g class="entity" data-qualified-name="Maintenance.Assemble" data-source-line="26" id="ent0018"><ellipse cx="133.6208" cy="105.781" fill="#F1F1F1" rx="80.4208" ry="18.4842" style="stroke:#181818;stroke-width:0.5;"/><text fill="#000000" font-family="sans-serif" font-size="14" lengthAdjust="spacing" textLength="131.667" x="67.7873" y="110.4295">&#1575;&#1604;&#1578;&#1580;&#1605;&#1610;&#1593; &#1608;&#1573;&#1593;&#1575;&#1583;&#1577; &#1575;&#1604;&#1578;&#1585;&#1603;&#1610;&#1576;</text></g><!--entity Test--><g class="entity" data-qualified-name="Maintenance.Test" data-source-line="27" id="ent0019"><ellipse cx="140.6167" cy="216.9862" fill="#F1F1F1" rx="66.5967" ry="15.7193" style="stroke:#181818;stroke-width:0.5;"/><text fill="#000000" font-family="sans-serif" font-size="14" lengthAdjust="spacing" textLength="97.665" x="91.7842" y="221.6347">&#1575;&#1604;&#1575;&#1582;&#1578;&#1576;&#1575;&#1585; &#1608;&#1575;&#1604;&#1578;&#1588;&#1594;&#1610;&#1604;</text></g><!--link Pump to Seal--><g class="link" data-entity-1="ent0003" data-entity-2="ent0005" data-link-type="dependency" data-source-line="15" id="lnk9"><path d="M451.59,377.4669 C438.16,384.7369 426.01,394.3369 417.62,406.9969 C400.5,432.8569 424.0508,454.5648 453.3208,471.5548" fill="none" id="Pump-to-Seal" style="stroke:#181818;stroke-width:1;"/><polygon fill="#181818" points="458.51,474.5669,452.7343,466.5893,454.1857,472.0568,448.7182,473.5082,458.51,474.5669" style="stroke:#181818;stroke-width:1;"/><text fill="#000000" font-family="sans-serif" font-size="13" lengthAdjust="spacing" textLength="78.2222" x="418.62" y="420.0638">&#1610;&#1601;&#1581;&#1589;/&#1610;&#1587;&#1578;&#1576;&#1583;&#1604;</text></g><!--link Pump to Impeller--><g class="link" data-entity-1="ent0003" data-entity-2="ent0007" data-link-type="dependency" data-source-line="16" id="lnk10"><path d="M580.91,377.3869 C615.44,396.5269 661.09,421.3069 670.62,423.9969 C725.47,439.5169 745.07,412.4669 798.62,431.9969 C823.62,441.1269 843.1396,455.7227 859.7396,470.7327" fill="none" id="Pump-to-Impeller" style="stroke:#181818;stroke-width:1;"/><polygon fill="#181818" points="864.19,474.7569,860.1971,465.7537,860.4813,471.4034,854.8316,471.6876,864.19,474.7569" style="stroke:#181818;stroke-width:1;"/><text fill="#000000" font-family="sans-serif" font-size="13" lengthAdjust="spacing" textLength="68.6626" x="671.62" y="420.0638">&#1610;&#1601;&#1581;&#1589;/&#1610;&#1608;&#1575;&#1586;&#1606;</text></g><!--link Pump to Motor--><g class="link" data-entity-1="ent0003" data-entity-2="ent0006" data-link-type="dependency" data-source-line="17" id="lnk11"><path d="M532.28,377.2369 C528.24,392.3169 526.39,411.6369 537.62,423.9969 C550.08,437.7169 603.3,425.4069 620.62,431.9969 C645.49,441.4769 665.0872,455.9015 681.9272,470.7315" fill="none" id="Pump-to-Motor" style="stroke:#181818;stroke-width:1;"/><polygon fill="#181818" points="686.43,474.6969,682.3193,465.7469,682.6776,471.3924,677.0321,471.7507,686.43,474.6969" style="stroke:#181818;stroke-width:1;"/><text fill="#000000" font-family="sans-serif" font-size="13" lengthAdjust="spacing" textLength="91.0889" x="538.62" y="420.0638">&#1610;&#1601;&#1581;&#1589;/&#1586;&#1610;&#1578;/&#1578;&#1576;&#1585;&#1610;&#1583;</text></g><!--link Pump to Casing--><g class="link" data-entity-1="ent0003" data-entity-2="ent0008" data-link-type="dependency" data-source-line="18" id="lnk12"><path d="M632.27,360.9269 C722.04,369.2069 861.43,388.3869 974.62,431.9969 C1001.86,442.4969 1024.858,456.915 1044.878,471.305" fill="none" id="Pump-to-Casing" style="stroke:#181818;stroke-width:1;"/><polygon fill="#181818" points="1049.75,474.8069,1044.7766,466.306,1045.69,471.8886,1040.1074,472.802,1049.75,474.8069" style="stroke:#181818;stroke-width:1;"/><text fill="#000000" font-family="sans-serif" font-size="13" lengthAdjust="spacing" textLength="70.8271" x="952.62" y="420.0638">&#1610;&#1601;&#1581;&#1589; &#1604;&#1604;&#1578;&#1570;&#1603;&#1604;</text></g><!--link Log to Diagnosis--><g class="link" data-entity-1="ent0014" data-entity-2="ent0015" data-link-type="dependency" data-source-line="30" id="lnk20"><path d="M125.31,376.7769 C124.9,405.7769 124.285,450.1775 123.925,475.5775" fill="none" id="Log-to-Diagnosis" style="stroke:#181818;stroke-width:1;"/><polygon fill="#181818" points="123.84,481.5769,127.9671,472.6345,123.9109,476.5774,119.9679,472.5211,123.84,481.5769" style="stroke:#181818;stroke-width:1;"/><text fill="#000000" font-family="sans-serif" font-size="13" lengthAdjust="spacing" textLength="70.2178" x="126.62" y="420.0638">&#1610;&#1594;&#1584;&#1610; &#1575;&#1604;&#1576;&#1610;&#1575;&#1606;&#1575;&#1578;</text></g><!--link Diagnosis to Shutdown--><g class="link" data-entity-1="ent0015" data-entity-2="ent0016" data-link-type="dependency" data-source-line="31" id="lnk21"><path d="M122.49,514.7869 C120.52,542.1269 116.9116,592.1924 115.0416,618.1224" fill="none" id="Diagnosis-to-Shutdown" style="stroke:#181818;stroke-width:1;"/><polygon fill="#181818" points="114.61,624.1069,119.247,615.4179,114.9697,619.1198,111.2677,614.8425,114.61,624.1069" style="stroke:#181818;stroke-width:1;"/><text fill="#000000" font-family="sans-serif" font-size="13" lengthAdjust="spacing" textLength="48.8389" x="119.62" y="590.3638">&#1610;&#1572;&#1583;&#1610; &#1573;&#1604;&#1609;</text></g><!--link Shutdown to Dismantle--><g class="link" data-entity-1="ent0016" data-entity-2="ent0017" data-link-type="dependency" data-source-line="33" id="lnk22"><path d="M118.06,653.5669 C124.47,673.3669 134.4123,704.0984 141.0023,724.4584" fill="none" id="Shutdown-to-Dismantle" style="stroke:#181818;stroke-width:1;"/><polygon fill="#181818" points="142.85,730.1669,143.8841,720.3725,141.3103,725.4099,136.2729,722.836,142.85,730.1669" style="stroke:#181818;stroke-width:1;"/><text fill="#000000" font-family="sans-serif" font-size="13" lengthAdjust="spacing" textLength="108.0117" x="134.62" y="696.4138">&#1576;&#1583;&#1575;&#1610;&#1577; &#1575;&#1604;&#1593;&#1605;&#1604; &#1575;&#1604;&#1605;&#1610;&#1583;&#1575;&#1606;&#1610;</text></g><!--link Dismantle to Seal--><g class="link" data-entity-1="ent0017" data-entity-2="ent0005" data-link-type="dependency" data-source-line="35" id="lnk23"><path d="M182.93,732.4569 C203.6,724.5169 229.84,713.2969 251.62,700.3469 C343.47,645.7269 434.6428,565.7874 478.1128,525.8274" fill="none" id="Dismantle-to-Seal" style="stroke:#181818;stroke-width:1;"/><polygon fill="#181818" points="482.53,521.7669,473.1971,524.9129,478.849,525.1507,478.6112,530.8025,482.53,521.7669" style="stroke:#181818;stroke-width:1;"/></g><!--link Dismantle to Impeller--><g class="link" data-entity-1="ent0017" data-entity-2="ent0007" data-link-type="dependency" data-source-line="36" id="lnk24"><path d="M198.01,735.5469 C241.13,727.2369 304.76,714.2769 359.62,700.3469 C556.98,650.2269 618.16,663.6069 798.62,569.2969 C822.86,556.6269 842.4767,540.8799 859.2867,525.5499" fill="none" id="Dismantle-to-Impeller" style="stroke:#181818;stroke-width:1;"/><polygon fill="#181818" points="863.72,521.5069,854.3747,524.6158,860.0256,524.876,859.7654,530.5269,863.72,521.5069" style="stroke:#181818;stroke-width:1;"/></g><!--link Dismantle to Motor--><g class="link" data-entity-1="ent0017" data-entity-2="ent0006" data-link-type="dependency" data-source-line="37" id="lnk25"><path d="M191.5,733.9369 C277.67,711.2569 473.38,654.1469 620.62,569.2969 C644.14,555.7469 663.6446,540.3565 680.7946,525.4265" fill="none" id="Dismantle-to-Motor" style="stroke:#181818;stroke-width:1;"/><polygon fill="#181818" points="685.32,521.4869,675.9055,524.3794,681.5488,524.7699,681.1583,530.4132,685.32,521.4869" style="stroke:#181818;stroke-width:1;"/></g><!--link Dismantle to Casing--><g class="link" data-entity-1="ent0017" data-entity-2="ent0008" data-link-type="dependency" data-source-line="38" id="lnk26"><path d="M201.71,736.6169 C256.48,728.0669 343.58,714.0769 418.62,700.3469 C668.35,654.6369 743.22,673.7469 974.62,569.2969 C1002.41,556.7569 1026.142,540.5892 1046.262,525.2192" fill="none" id="Dismantle-to-Casing" style="stroke:#181818;stroke-width:1;"/><polygon fill="#181818" points="1051.03,521.5769,1041.4498,523.8617,1047.0567,524.6121,1046.3063,530.219,1051.03,521.5769" style="stroke:#181818;stroke-width:1;"/><text fill="#000000" font-family="sans-serif" font-size="13" lengthAdjust="spacing" textLength="97.8047" x="834.62" y="643.3838">(&#1575;&#1604;&#1578;&#1601;&#1578;&#1610;&#1588; &#1575;&#1604;&#1605;&#1576;&#1575;&#1588;&#1585;)</text></g><!--link Seal to Assemble--><g class="link" data-entity-1="ent0005" data-entity-2="ent0018" data-link-type="dependency" data-source-line="40" id="lnk27"><path d="M536.72,474.5069 C558.7,459.3769 589.92,440.7169 620.62,431.9969 C633.24,428.4169 847.5,433.4369 856.62,423.9969 C901.91,377.1569 852.25,329.9269 802.62,287.7069 C630.56,141.3269 357.0359,112.5686 220.2259,107.5086" fill="none" id="Seal-to-Assemble" style="stroke:#181818;stroke-width:1;"/><polygon fill="#181818" points="214.23,107.2869,223.076,111.6168,219.2266,107.4717,223.3717,103.6223,214.23,107.2869" style="stroke:#181818;stroke-width:1;"/><text fill="#000000" font-family="sans-serif" font-size="13" lengthAdjust="spacing" textLength="77.4097" x="792.62" y="275.7738">&#1573;&#1589;&#1604;&#1575;&#1581;/&#1575;&#1587;&#1578;&#1576;&#1583;&#1575;&#1604;</text></g><!--link Impeller to Assemble--><g class="link" data-entity-1="ent0007" data-entity-2="ent0018" data-link-type="dependency" data-source-line="41" id="lnk28"><path d="M905.96,474.6469 C940.97,431.0469 1007.33,333.1469 963.62,262.7069 C884.91,135.8669 412.2884,112.2936 219.7384,107.9036" fill="none" id="Impeller-to-Assemble" style="stroke:#181818;stroke-width:1;"/><polygon fill="#181818" points="213.74,107.7669,222.6465,111.971,218.7387,107.8808,222.8288,103.9731,213.74,107.7669" style="stroke:#181818;stroke-width:1;"/><text fill="#000000" font-family="sans-serif" font-size="13" lengthAdjust="spacing" textLength="74.1216" x="971.62" y="275.7738">&#1605;&#1608;&#1575;&#1586;&#1606;&#1577;/&#1578;&#1606;&#1592;&#1610;&#1601;</text></g><!--link Motor to Assemble--><g class="link" data-entity-1="ent0006" data-entity-2="ent0018" data-link-type="dependency" data-source-line="42" id="lnk29"><path d="M732.79,474.6469 C749.61,459.7869 773.71,441.3869 798.62,431.9969 C817.41,424.9269 875.07,438.8169 888.62,423.9969 C937.11,371.0169 921.2,320.5469 878.62,262.7069 C799.99,155.8869 392.5398,121.0668 217.7498,110.8568" fill="none" id="Motor-to-Assemble" style="stroke:#181818;stroke-width:1;"/><polygon fill="#181818" points="211.76,110.5069,220.5114,115.0249,216.7515,110.7984,220.9779,107.0385,211.76,110.5069" style="stroke:#181818;stroke-width:1;"/><text fill="#000000" font-family="sans-serif" font-size="13" lengthAdjust="spacing" textLength="64.6064" x="890.62" y="275.7738">&#1589;&#1610;&#1575;&#1606;&#1577; &#1608;&#1602;&#1575;&#1574;&#1610;&#1577;</text></g><!--link Casing to Assemble--><g class="link" data-entity-1="ent0008" data-entity-2="ent0018" data-link-type="dependency" data-source-line="43" id="lnk30"><path d="M1082.85,474.7769 C1090.01,430.1169 1099.66,328.5569 1054.62,262.7069 C1020.8,213.2469 990.14,223.8069 934.62,201.2669 C868.71,174.5069 851.53,167.3969 781.62,154.2669 C579.85,116.3869 343.4496,108.4384 220.1696,106.9684" fill="none" id="Casing-to-Assemble" style="stroke:#181818;stroke-width:1;"/><polygon fill="#181818" points="214.17,106.8969,223.1217,111.0039,219.1696,106.9565,223.2171,103.0045,214.17,106.8969" style="stroke:#181818;stroke-width:1;"/><text fill="#000000" font-family="sans-serif" font-size="13" lengthAdjust="spacing" textLength="103.6953" x="1064.62" y="275.7738">&#1573;&#1589;&#1604;&#1575;&#1581; &#1575;&#1604;&#1604;&#1581;&#1575;&#1605;/&#1575;&#1604;&#1591;&#1604;&#1575;&#1569;</text></g><!--link Assemble to Test--><g class="link" data-entity-1="ent0018" data-entity-2="ent0019" data-link-type="dependency" data-source-line="45" id="lnk31"><path d="M134.74,124.3269 C136.11,145.5469 137.9844,174.9293 139.2744,194.9593" fill="none" id="Assemble-to-Test" style="stroke:#181818;stroke-width:1;"/><polygon fill="#181818" points="139.66,200.9469,143.0733,191.7084,139.3386,195.9572,135.0898,192.2226,139.66,200.9469" style="stroke:#181818;stroke-width:1;"/><text fill="#000000" font-family="sans-serif" font-size="13" lengthAdjust="spacing" textLength="57.021" x="139.62" y="167.3338">&#1576;&#1593;&#1583; &#1575;&#1604;&#1573;&#1594;&#1604;&#1575;&#1602;</text></g><!--link Test to Pump--><g class="link" data-entity-1="ent0019" data-entity-2="ent0003" data-link-type="dependency" data-source-line="47" id="lnk32"><path d="M194.58,226.4369 C236.43,233.7769 295.55,245.8969 345.62,262.7069 C400.25,281.0469 454.6356,307.321 493.4056,327.461" fill="none" id="Test-to-Pump" style="stroke:#181818;stroke-width:1;"/><polygon fill="#181818" points="498.73,330.2269,492.5873,322.5284,494.293,327.9219,488.8994,329.6276,498.73,330.2269" style="stroke:#181818;stroke-width:1;"/><text fill="#000000" font-family="sans-serif" font-size="13" lengthAdjust="spacing" textLength="76.9463" x="390.62" y="275.7738">&#1578;&#1588;&#1594;&#1610;&#1604; &#1578;&#1580;&#1585;&#1610;&#1576;&#1610;</text></g><!--link Test to Log--><g class="link" data-entity-1="ent0019" data-entity-2="ent0014" data-link-type="dependency" data-source-line="49" id="lnk33"><path d="M84.48,225.6769 C62,231.8169 38.24,242.8569 24.62,262.7069 C6,289.8369 32.5939,311.5527 65.3739,328.1027" fill="none" id="Test-to-Log" style="stroke:#181818;stroke-width:1;"/><polygon fill="#181818" points="70.73,330.8069,64.4987,323.1799,66.2666,328.5534,60.8931,330.3213,70.73,330.8069" style="stroke:#181818;stroke-width:1;"/><text fill="#000000" font-family="sans-serif" font-size="13" lengthAdjust="spacing" textLength="72.8965" x="25.62" y="275.7738">&#1578;&#1587;&#1580;&#1610;&#1604; &#1575;&#1604;&#1606;&#1578;&#1575;&#1574;&#1580;</text></g><!--link Test to Maintenance--><g class="link" data-entity-1="ent0019" data-entity-2="ent0013" data-link-type="dependency" data-source-line="50" id="lnk34"><path d="M167.99,231.7169 C188.56,243.5869 215.52,262.7569 229.62,287.7069 C243.52,312.3069 238.9085,344.4561 238.5485,346.8061" fill="none" id="Test-to-Maintenance" style="stroke:#181818;stroke-width:1;"/><polygon fill="#181818" points="237.64,352.7369,242.9567,344.4464,238.3971,347.7945,235.049,343.235,237.64,352.7369" style="stroke:#181818;stroke-width:1;"/><text fill="#000000" font-family="sans-serif" font-size="13" lengthAdjust="spacing" textLength="125.8613" x="224.62" y="275.7738">(&#1583;&#1608;&#1585;&#1577; &#1575;&#1604;&#1589;&#1610;&#1575;&#1606;&#1577; &#1575;&#1604;&#1605;&#1603;&#1578;&#1605;&#1604;&#1577;)</text></g><?plantuml-src TLJBJjj05DtFLuooWWLYtqMbFZPLMwaI_G4JB8WQsr7ig8kA1M02zL-KDYInGa8Ab8OlkVCtFVVEU1Ad8LAaPERSrxddJDRAsg6c1rFGqFHfhCqv_Q4f3QdKx_TUQvpczDFaECOzK6EzHNDp2S0rBUJQdE6We3ig-T-sKkcNLjm9ka6aeoHEcaVT90frrks5IdN3PXR4XoZPGBM_23YtEMpLCTTiw6zAuzDCeauIXt6c6pM8j3IdQwxf6k8JN6utT93gJxseeoJ3QhLpSsOkKPC7MqrNLTjG4TUbxyyKc5CeGA9YL-vlw5wOAANkNXYqdqk5QZTWwSmHPYumm8WvD8N4VaoofFjyi51yuKTbkkzfRCTz5tN2TZlS73q1HMiCImfp8NFaDiMR86t5XvBWs3B77EgTdPSob7wXWJx110-xRj4ZcfcyZgpwgAE5dz-cNyVAkAj0G0egToKpJpUhuss3Am4Q8-H0N_4GwhWcB5g0i5oK8MnvRLkcWrQSXN4GDqEt-OCW2_Q3b2FlQ69oftbQq2F_igk6jgMngIJva5YsUcdOj94MSqzJO1ugmi6It_3RLd0O9sahtHG8PPwQ4rlu2jtthQ2EUjb1yZNU6772CeIWc60K4rPSeJGAOhXwOuSJLZACYx019XoYGqTJoVh4tKYol4hJCDhVc6J8lX3rpbrrcVm9xUGI-pbCCzu9M9Bj-T5bWVH4jwQmDKTkDR2GMg94Tsvs6_8BSaF808D-LyhVsUHkN225yE5oyo84xr-vWt-LMiPK4byxyfwg7rkNri-yDBUgnU0BUourC0GvSpoBOYKEgRZbZWUG9rDw0vbLpk98vUsq5e59dALe3B_mAygcKDPIw-bNtdL8p3uuD5QkwMURiStp0uS7sXhWKMv-AEK3E9fNRObVqCoIFe0I03MdIiajmyJ8W7cTyC-966h42_50bepWs8b5jRo-sE-Q9alWgesP-nbOcV_dUEsVpvAbW2Vp7m00?></g></svg>