<svg xmlns="http://www.w3.org/2000/svg" xmlns:xlink="http://www.w3.org/1999/xlink" contentStyleType="text/css" data-diagram-type="DESCRIPTION" height="520px" preserveAspectRatio="none" style="width:1194px;height:520px;background:#FFFFFF;" version="1.1" viewBox="0 0 1194 520" width="1194px" zoomAndPan="magnify"><title>&#1605;&#1590;&#1582;&#1575;&#1578; &#1604;&#1608;&#1608;&#1575;&#1585;&#1575; Lowara - &#1585;&#1608;&#1575;&#1574;&#1593; &#1575;&#1604;&#1603;&#1585;&#1610;&#1587;&#1578;&#1575;&#1604;</title><defs/><g><g class="title" data-source-line="1"><text fill="#000000" font-family="sans-serif" font-size="14" font-weight="bold" lengthAdjust="spacing" textLength="285.6328" x="447.1836" y="22.9951">&#1605;&#1590;&#1582;&#1575;&#1578; &#1604;&#1608;&#1608;&#1575;&#1585;&#1575; Lowara - &#1585;&#1608;&#1575;&#1574;&#1593; &#1575;&#1604;&#1603;&#1585;&#1610;&#1587;&#1578;&#1575;&#1604;</text></g><!--cluster Origin--><g class="cluster" data-qualified-name="Origin" data-source-line="16" id="ent0002"><path d="M721.5,43.2969 L831.2939,43.2969 A3.75,3.75 0 0 1 833.7939,45.7969 L840.7939,65.5938 L1184.5,65.5938 A2.5,2.5 0 0 1 1187,68.0938 L1187,154.0969 A2.5,2.5 0 0 1 1184.5,156.5969 L721.5,156.5969 A2.5,2.5 0 0 1 719,154.0969 L719,45.7969 A2.5,2.5 0 0 1 721.5,43.2969" fill="#D5E1F4" style="stroke:#4A75A3;stroke-width:1.5;"/><line style="stroke:#4A75A3;stroke-width:1.5;" x1="719" x2="840.7939" y1="65.5938" y2="65.5938"/><text fill="#000000" font-family="sans-serif" font-size="14" font-weight="bold" lengthAdjust="spacing" textLength="108.7939" x="723" y="58.292">&#1575;&#1604;&#1605;&#1606;&#1588;&#1571; &#1608;&#1575;&#1604;&#1578;&#1589;&#1606;&#1610;&#1593;</text></g><!--cluster PumpAssembly--><g class="cluster" data-qualified-name="PumpAssembly" data-source-line="21" id="ent0005"><path d="M8.5,221.5969 L179.4209,221.5969 A3.75,3.75 0 0 1 181.9209,224.0969 L188.9209,243.8938 L788.5,243.8938 A2.5,2.5 0 0 1 791,246.3938 L791,332.3869 A2.5,2.5 0 0 1 788.5,334.8869 L8.5,334.8869 A2.5,2.5 0 0 1 6,332.3869 L6,224.0969 A2.5,2.5 0 0 1 8.5,221.5969" fill="#D5E1F4" style="stroke:#4A75A3;stroke-width:1.5;"/><line style="stroke:#4A75A3;stroke-width:1.5;" x1="6" x2="188.9209" y1="243.8938" y2="243.8938"/><text fill="#000000" font-family="sans-serif" font-size="14" font-weight="bold" lengthAdjust="spacing" textLength="169.9209" x="10" y="236.592">&#1605;&#1603;&#1608;&#1606;&#1575;&#1578; &#1575;&#1604;&#1605;&#1590;&#1582;&#1577; &#1575;&#1604;&#1585;&#1574;&#1610;&#1587;&#1610;&#1577;</text></g><!--cluster FinalProduct--><g class="cluster" data-qualified-name="FinalProduct" data-source-line="27" id="ent0009"><path d="M372.5,399.8869 L469.0254,399.8869 A3.75,3.75 0 0 1 471.5254,402.3869 L478.5254,422.1838 L548.5,422.1838 A2.5,2.5 0 0 1 551,424.6838 L551,510.6869 A2.5,2.5 0 0 1 548.5,513.1869 L372.5,513.1869 A2.5,2.5 0 0 1 370,510.6869 L370,402.3869 A2.5,2.5 0 0 1 372.5,399.8869" fill="#D5E1F4" style="stroke:#4A75A3;stroke-width:1.5;"/><line style="stroke:#4A75A3;stroke-width:1.5;" x1="370" x2="478.5254" y1="422.1838" y2="422.1838"/><text fill="#000000" font-family="sans-serif" font-size="14" font-weight="bold" lengthAdjust="spacing" textLength="95.5254" x="374" y="414.882">&#1575;&#1604;&#1605;&#1606;&#1578;&#1580; &#1575;&#1604;&#1606;&#1607;&#1575;&#1574;&#1610;</text></g><!--entity ItalianQuality--><g class="entity" data-qualified-name="Origin.ItalianQuality" data-source-line="17" id="ent0003"><rect fill="#ADD1B2" height="46.2969" rx="2.5" ry="2.5" style="stroke:#3F754D;stroke-width:0.5;" width="175.6318" x="762.18" y="86.2969"/><rect fill="#ADD1B2" height="10" style="stroke:#3F754D;stroke-width:0.5;" width="15" x="917.8118" y="91.2969"/><rect fill="#ADD1B2" height="2" style="stroke:#3F754D;stroke-width:0.5;" width="4" x="915.8118" y="93.2969"/><rect fill="#ADD1B2" height="2" style="stroke:#3F754D;stroke-width:0.5;" width="4" x="915.8118" y="97.2969"/><text fill="#000000" font-family="Arial" font-size="14" lengthAdjust="spacing" textLength="135.6318" x="777.18" y="119.292">&#1575;&#1604;&#1580;&#1608;&#1583;&#1577; &#1575;&#1604;&#1573;&#1610;&#1591;&#1575;&#1604;&#1610;&#1577; &#1575;&#1604;&#1571;&#1589;&#1604;&#1610;&#1577;</text></g><!--entity Innovation--><g class="entity" data-qualified-name="Origin.Innovation" data-source-line="18" id="ent0004"><rect fill="#ADD1B2" height="46.2969" rx="2.5" ry="2.5" style="stroke:#3F754D;stroke-width:0.5;" width="190.1514" x="972.92" y="86.2969"/><rect fill="#ADD1B2" height="10" style="stroke:#3F754D;stroke-width:0.5;" width="15" x="1143.0714" y="91.2969"/><rect fill="#ADD1B2" height="2" style="stroke:#3F754D;stroke-width:0.5;" width="4" x="1141.0714" y="93.2969"/><rect fill="#ADD1B2" height="2" style="stroke:#3F754D;stroke-width:0.5;" width="4" x="1141.0714" y="97.2969"/><text fill="#000000" font-family="Arial" font-size="14" lengthAdjust="spacing" textLength="150.1514" x="987.92" y="119.292">&#1575;&#1604;&#1575;&#1576;&#1578;&#1603;&#1575;&#1585; &#1608;&#1575;&#1604;&#1578;&#1589;&#1605;&#1610;&#1605; &#1575;&#1604;&#1607;&#1606;&#1583;&#1587;&#1610;</text></g><!--entity Motor--><g class="entity" data-qualified-name="PumpAssembly.Motor" data-source-line="22" id="ent0006"><rect fill="#ADD1B2" height="46.2969" rx="2.5" ry="2.5" style="stroke:#3F754D;stroke-width:0.5;" width="163.1563" x="49.42" y="264.5969"/><rect fill="#ADD1B2" height="10" style="stroke:#3F754D;stroke-width:0.5;" width="15" x="192.5763" y="269.5969"/><rect fill="#ADD1B2" height="2" style="stroke:#3F754D;stroke-width:0.5;" width="4" x="190.5763" y="271.5969"/><rect fill="#ADD1B2" height="2" style="stroke:#3F754D;stroke-width:0.5;" width="4" x="190.5763" y="275.5969"/><text fill="#000000" font-family="Arial" font-size="14" lengthAdjust="spacing" textLength="123.1563" x="64.42" y="297.592">&#1575;&#1604;&#1605;&#1581;&#1585;&#1603; &#1593;&#1575;&#1604;&#1610; &#1575;&#1604;&#1603;&#1601;&#1575;&#1569;&#1577;</text></g><!--entity Impeller--><g class="entity" data-qualified-name="PumpAssembly.Impeller" data-source-line="23" id="ent0007"><rect fill="#ADD1B2" height="46.2969" rx="2.5" ry="2.5" style="stroke:#3F754D;stroke-width:0.5;" width="227.2158" x="247.39" y="264.5969"/><rect fill="#ADD1B2" height="10" style="stroke:#3F754D;stroke-width:0.5;" width="15" x="454.6058" y="269.5969"/><rect fill="#ADD1B2" height="2" style="stroke:#3F754D;stroke-width:0.5;" width="4" x="452.6058" y="271.5969"/><rect fill="#ADD1B2" height="2" style="stroke:#3F754D;stroke-width:0.5;" width="4" x="452.6058" y="275.5969"/><text fill="#000000" font-family="Arial" font-size="14" lengthAdjust="spacing" textLength="187.2158" x="262.39" y="297.592">&#1575;&#1604;&#1583;&#1601;&#1617;&#1575;&#1593;&#1577; (Impeller) &#1575;&#1604;&#1607;&#1610;&#1583;&#1585;&#1608;&#1604;&#1610;&#1603;&#1610;&#1577;</text></g><!--entity Casing--><g class="entity" data-qualified-name="PumpAssembly.Casing" data-source-line="24" id="ent0008"><rect fill="#ADD1B2" height="46.2969" rx="2.5" ry="2.5" style="stroke:#3F754D;stroke-width:0.5;" width="257.3076" x="509.35" y="264.5969"/><rect fill="#ADD1B2" height="10" style="stroke:#3F754D;stroke-width:0.5;" width="15" x="746.6576" y="269.5969"/><rect fill="#ADD1B2" height="2" style="stroke:#3F754D;stroke-width:0.5;" width="4" x="744.6576" y="271.5969"/><rect fill="#ADD1B2" height="2" style="stroke:#3F754D;stroke-width:0.5;" width="4" x="744.6576" y="275.5969"/><text fill="#000000" font-family="Arial" font-size="14" lengthAdjust="spacing" textLength="217.3076" x="524.35" y="297.592">&#1594;&#1604;&#1575;&#1601; &#1575;&#1604;&#1605;&#1590;&#1582;&#1577; &#1608;&#1575;&#1604;&#1605;&#1608;&#1575;&#1583; &#1575;&#1604;&#1605;&#1602;&#1575;&#1608;&#1605;&#1577; &#1604;&#1604;&#1578;&#1570;&#1603;&#1604;</text></g><!--entity LowaraPump--><g class="entity" data-qualified-name="FinalProduct.LowaraPump" data-source-line="28" id="ent0010"><rect fill="#ADD1B2" height="46.2969" rx="2.5" ry="2.5" style="stroke:#3F754D;stroke-width:0.5;" width="113.4316" x="413.28" y="442.8869"/><rect fill="#ADD1B2" height="10" style="stroke:#3F754D;stroke-width:0.5;" width="15" x="506.7116" y="447.8869"/><rect fill="#ADD1B2" height="2" style="stroke:#3F754D;stroke-width:0.5;" width="4" x="504.7116" y="449.8869"/><rect fill="#ADD1B2" height="2" style="stroke:#3F754D;stroke-width:0.5;" width="4" x="504.7116" y="453.8869"/><text fill="#000000" font-family="Arial" font-size="14" lengthAdjust="spacing" textLength="73.4316" x="428.28" y="475.882">&#1605;&#1590;&#1582;&#1577; &#1604;&#1608;&#1608;&#1575;&#1585;&#1575;</text></g><!--link Origin to PumpAssembly--><g class="link" data-entity-1="ent0002" data-entity-2="ent0005" data-link-type="dependency" data-source-line="32" id="lnk11"><path d="M718.8837,110.3484 C714.1859,110.3019 707.5421,110.2518 699.2007,110.2275 C682.5179,110.1789 659.0452,110.2337 630.7716,110.6286 C574.2244,111.4184 498.4738,113.5688 419.4325,118.9731 C261.35,129.7819 90.105,153.6069 33,205.5969 C29.6838,208.6156 26.892,212.0931 24.5464,215.874 C23.96,216.8192 23.4015,217.7834 22.8697,218.7641 C22.6038,219.2545 22.3445,219.749 22.0917,220.2473 C21.9654,220.4964 21.8406,220.7466 21.7175,220.9976 C21.6559,221.1231 24.2016,215.8448 24.1408,215.9707" fill="none" id="Origin-to-PumpAssembly" style="stroke:#111111;stroke-width:1;"/><polygon fill="#111111" points="21.534,221.3748,29.047,215.0066,23.7063,216.8714,21.8415,211.5308,21.534,221.3748" style="stroke:#111111;stroke-width:1;"/><text fill="#000000" font-family="sans-serif" font-size="13" lengthAdjust="spacing" textLength="151.4043" x="70" y="193.6638">&#1605;&#1593;&#1575;&#1610;&#1610;&#1585; &#1575;&#1604;&#1578;&#1589;&#1606;&#1610;&#1593; (IEC/NEMA)</text></g><!--link Motor to LowaraPump--><g class="link" data-entity-1="ent0006" data-entity-2="ent0010" data-link-type="dependency" data-source-line="33" id="lnk12"><path d="M160.18,311.2069 C179.11,324.6969 204.85,341.0969 230,350.8869 C305.38,380.2569 340.21,341.3169 409,383.8869 C431.78,397.9869 446.1343,418.6909 456.3843,437.4609" fill="none" id="Motor-to-LowaraPump" style="stroke:#111111;stroke-width:1;"/><polygon fill="#111111" points="459.26,442.7269,458.4572,432.9108,456.8636,438.3386,451.4358,436.745,459.26,442.7269" style="stroke:#111111;stroke-width:1;"/></g><!--link Impeller to LowaraPump--><g class="link" data-entity-1="ent0007" data-entity-2="ent0010" data-link-type="dependency" data-source-line="34" id="lnk13"><path d="M374.8,311.0669 C395.71,344.8869 432.0344,403.6337 452.9844,437.5137" fill="none" id="Impeller-to-LowaraPump" style="stroke:#111111;stroke-width:1;"/><polygon fill="#111111" points="456.14,442.6169,454.8087,432.8584,453.5103,438.3642,448.0045,437.0659,456.14,442.6169" style="stroke:#111111;stroke-width:1;"/></g><!--link Casing to LowaraPump--><g class="link" data-entity-1="ent0008" data-entity-2="ent0010" data-link-type="dependency" data-source-line="35" id="lnk14"><path d="M616.72,311.0669 C584.5,344.8869 527.7888,404.3929 495.5088,438.2729" fill="none" id="Casing-to-LowaraPump" style="stroke:#111111;stroke-width:1;"/><polygon fill="#111111" points="491.37,442.6169,500.4742,438.8601,494.819,438.9969,494.6823,433.3417,491.37,442.6169" style="stroke:#111111;stroke-width:1;"/></g><!--link ItalianQuality to LowaraPump--><g class="link" data-entity-1="ent0003" data-entity-2="ent0010" data-link-type="dependency" data-source-line="38" id="lnk15"><path d="M850.2,132.8869 C849.4,179.6169 840.97,288.2169 783,350.8869 C715.45,423.9269 605.2981,449.2764 535.0881,458.7564" fill="none" id="ItalianQuality-to-LowaraPump" style="stroke:#111111;stroke-width:1;"/><polygon fill="#111111" points="527.16,459.8269,535.4895,461.7294,534.6866,455.7834,527.16,459.8269" style="stroke:#111111;stroke-width:1;"/><text fill="#000000" font-family="sans-serif" font-size="13" lengthAdjust="spacing" textLength="162.8237" x="844" y="292.3038">&#1590;&#1605;&#1575;&#1606; &#1575;&#1604;&#1571;&#1583;&#1575;&#1569; (&#1585;&#1608;&#1575;&#1574;&#1593; &#1575;&#1604;&#1603;&#1585;&#1610;&#1587;&#1578;&#1575;&#1604;)</text></g><!--link Innovation to LowaraPump--><g class="link" data-entity-1="ent0004" data-entity-2="ent0010" data-link-type="dependency" data-source-line="39" id="lnk16"><path d="M1070.36,133.0669 C1073.97,180.6369 1075.01,291.5069 1015,350.8869 C946.29,418.8869 660.2721,449.639 534.9321,460.139" fill="none" id="Innovation-to-LowaraPump" style="stroke:#111111;stroke-width:1;"/><polygon fill="#111111" points="526.96,460.8069,535.1825,463.1286,534.6816,457.1495,526.96,460.8069" style="stroke:#111111;stroke-width:1;"/><text fill="#000000" font-family="sans-serif" font-size="13" lengthAdjust="spacing" textLength="66.2378" x="1071" y="292.3038">&#1583;&#1602;&#1577; &#1575;&#1604;&#1578;&#1588;&#1594;&#1610;&#1604;</text></g><!--link PumpAssembly to FinalProduct--><g class="link" data-entity-1="ent0005" data-entity-2="ent0009" data-link-type="dependency" data-source-line="42" id="lnk17"><path d="M22.5572,334.9346 C22.6472,335.1374 22.7381,335.3398 22.83,335.5418 C23.1975,336.3497 23.5803,337.1506 23.9789,337.9428 C24.7761,339.5271 25.6367,341.0766 26.5657,342.5774 C28.4236,345.5789 30.555,348.3856 33,350.8869 C89.005,408.1869 174.35,436.7294 246.1413,450.9444 C282.0369,458.0519 314.5441,461.5775 338.3011,463.325 C350.1796,464.1988 359.8706,464.628 366.7038,464.8381 C367.558,464.8644 368.3675,464.8872 369.131,464.9071 C369.3219,464.9121 363.5117,464.7678 363.6969,464.7724" fill="none" id="PumpAssembly-to-FinalProduct" style="stroke:#111111;stroke-width:1;"/><polygon fill="#111111" points="369.695,464.9215,360.7972,460.6991,364.6966,464.7972,360.5984,468.6966,369.695,464.9215" style="stroke:#111111;stroke-width:1;"/><text fill="#000000" font-family="sans-serif" font-size="13" lengthAdjust="spacing" textLength="102.667" x="56" y="371.9538">&#1578;&#1580;&#1605;&#1610;&#1593; &#1608;&#1575;&#1582;&#1578;&#1576;&#1575;&#1585; &#1606;&#1607;&#1575;&#1574;&#1610;</text></g></g></svg>