<svg xmlns="http://www.w3.org/2000/svg" xmlns:xlink="http://www.w3.org/1999/xlink" contentStyleType="text/css" data-diagram-type="ACTIVITY" height="1190px" preserveAspectRatio="none" style="width:576px;height:1190px;background:#FFFFFF;" version="1.1" viewBox="0 0 576 1190" width="576px" zoomAndPan="magnify"><title>&#1605;&#1582;&#1591;&#1591; &#1593;&#1605;&#1604;&#1610;&#1577; &#1604;&#1601; &#1575;&#1604;&#1605;&#1581;&#1585;&#1603;&#1575;&#1578; &#1575;&#1604;&#1603;&#1607;&#1585;&#1576;&#1575;&#1574;&#1610;&#1577;</title><defs/><g><g class="title" data-source-line="1"><text fill="#000000" font-family="sans-serif" font-size="14" font-weight="bold" lengthAdjust="spacing" textLength="259.5127" x="156.9639" y="32.9951">&#1605;&#1582;&#1591;&#1591; &#1593;&#1605;&#1604;&#1610;&#1577; &#1604;&#1601; &#1575;&#1604;&#1605;&#1581;&#1585;&#1603;&#1575;&#1578; &#1575;&#1604;&#1603;&#1607;&#1585;&#1576;&#1575;&#1574;&#1610;&#1577;</text></g><ellipse cx="186.165" cy="57.2969" fill="#222222" rx="10" ry="10" style="stroke:#222222;stroke-width:1;"/><path d="M302.9277,91.7148 L302.9277,100.2813 L282.9277,104.2813 L302.9277,108.2813 L302.9277,116.8477 A0,0 0 0 0 302.9277,116.8477 L564.4404,116.8477 A0,0 0 0 0 564.4404,116.8477 L564.4404,101.7148 L554.4404,91.7148 L302.9277,91.7148 A0,0 0 0 0 302.9277,91.7148" fill="#FAFAFA" style="stroke:#181818;stroke-width:0.5;"/><path d="M554.4404,91.7148 L554.4404,101.7148 L564.4404,101.7148 L554.4404,91.7148" fill="#FAFAFA" style="stroke:#181818;stroke-width:0.5;"/><text fill="#000000" font-family="sans-serif" font-size="13" lengthAdjust="spacing" textLength="240.5127" x="308.9277" y="108.7817">(&#1575;&#1604;&#1580;&#1607;&#1583;&#1548; &#1575;&#1604;&#1578;&#1610;&#1575;&#1585;&#1548; &#1593;&#1583;&#1583; &#1575;&#1604;&#1571;&#1602;&#1591;&#1575;&#1576;&#1548; &#1591;&#1585;&#1610;&#1602;&#1577; &#1575;&#1604;&#1578;&#1608;&#1589;&#1610;&#1604;)</text><rect fill="#F1F1F1" height="33.9688" rx="12.5" ry="12.5" style="stroke:#181818;stroke-width:0.5;" width="193.5254" x="89.4023" y="87.2969"/><text fill="#000000" font-family="sans-serif" font-size="12" lengthAdjust="spacing" textLength="173.5254" x="99.4023" y="108.4355">&#1601;&#1581;&#1589; &#1608;&#1578;&#1608;&#1579;&#1610;&#1602; &#1576;&#1610;&#1575;&#1606;&#1575;&#1578; &#1575;&#1604;&#1605;&#1581;&#1585;&#1603; &#1575;&#1604;&#1602;&#1583;&#1610;&#1605;</text><rect fill="none" height="190.2031" style="stroke:#000000;stroke-width:1.5;" width="235.0703" x="68.6299" y="131.2656"/><path d="M167.9004,131.2656 L167.9004,140.5625 L157.9004,150.5625 L68.6299,150.5625" fill="none" style="stroke:#000000;stroke-width:1.5;"/><text fill="#000000" font-family="sans-serif" font-size="14" lengthAdjust="spacing" textLength="89.2705" x="71.6299" y="145.2607">&#1575;&#1604;&#1578;&#1601;&#1603;&#1610;&#1603; &#1608;&#1575;&#1604;&#1573;&#1586;&#1575;&#1604;&#1577;</text><rect fill="#F1F1F1" height="33.9688" rx="12.5" ry="12.5" style="stroke:#181818;stroke-width:0.5;" width="121.9355" x="125.1973" y="167.5625"/><text fill="#000000" font-family="sans-serif" font-size="12" lengthAdjust="spacing" textLength="101.9355" x="135.1973" y="188.7012">&#1578;&#1601;&#1603;&#1610;&#1603; &#1571;&#1580;&#1586;&#1575;&#1569; &#1575;&#1604;&#1605;&#1581;&#1585;&#1603;</text><rect fill="#F1F1F1" height="33.9688" rx="12.5" ry="12.5" style="stroke:#181818;stroke-width:0.5;" width="215.0703" x="78.6299" y="221.5313"/><text fill="#000000" font-family="sans-serif" font-size="12" lengthAdjust="spacing" textLength="195.0703" x="88.6299" y="242.6699">&#1573;&#1586;&#1575;&#1604;&#1577; &#1575;&#1604;&#1605;&#1604;&#1601;&#1575;&#1578; &#1575;&#1604;&#1602;&#1583;&#1610;&#1605;&#1577; (&#1575;&#1604;&#1581;&#1585;&#1602; &#1571;&#1608; &#1575;&#1604;&#1602;&#1591;&#1593;)</text><rect fill="#F1F1F1" height="33.9688" rx="12.5" ry="12.5" style="stroke:#181818;stroke-width:0.5;" width="209.5684" x="81.3809" y="275.5"/><text fill="#000000" font-family="sans-serif" font-size="12" lengthAdjust="spacing" textLength="189.5684" x="91.3809" y="296.6387">&#1578;&#1606;&#1592;&#1610;&#1601; &#1605;&#1580;&#1575;&#1585;&#1610; &#1575;&#1604;&#1593;&#1590;&#1608; &#1575;&#1604;&#1579;&#1575;&#1576;&#1578; (&#1575;&#1604;&#1587;&#1578;&#1575;&#1578;&#1608;&#1585;)</text><rect fill="none" height="190.2031" style="stroke:#000000;stroke-width:1.5;" width="350.3301" x="11" y="331.4688"/><path d="M146.2139,331.4688 L146.2139,340.7656 L136.2139,350.7656 L11,350.7656" fill="none" style="stroke:#000000;stroke-width:1.5;"/><text fill="#000000" font-family="sans-serif" font-size="14" lengthAdjust="spacing" textLength="125.2139" x="14" y="345.4639">&#1578;&#1580;&#1607;&#1610;&#1586; &#1575;&#1604;&#1593;&#1586;&#1604; &#1608;&#1575;&#1604;&#1605;&#1604;&#1601;&#1575;&#1578;</text><rect fill="#F1F1F1" height="33.9688" rx="12.5" ry="12.5" style="stroke:#181818;stroke-width:0.5;" width="176.1758" x="98.0771" y="367.7656"/><text fill="#000000" font-family="sans-serif" font-size="12" lengthAdjust="spacing" textLength="156.1758" x="108.0771" y="388.9043">&#1602;&#1610;&#1575;&#1587; &#1571;&#1576;&#1593;&#1575;&#1583; &#1605;&#1580;&#1575;&#1585;&#1610; &#1575;&#1604;&#1593;&#1590;&#1608; &#1575;&#1604;&#1579;&#1575;&#1576;&#1578;</text><rect fill="#F1F1F1" height="33.9688" rx="12.5" ry="12.5" style="stroke:#181818;stroke-width:0.5;" width="275.9434" x="48.1934" y="421.7344"/><text fill="#000000" font-family="sans-serif" font-size="12" lengthAdjust="spacing" textLength="255.9434" x="58.1934" y="442.873">&#1578;&#1580;&#1607;&#1610;&#1586; &#1588;&#1585;&#1575;&#1574;&#1591; &#1575;&#1604;&#1593;&#1586;&#1604; &#1575;&#1604;&#1603;&#1607;&#1585;&#1576;&#1575;&#1574;&#1610; (&#1608;&#1585;&#1602; &#1575;&#1604;&#1605;&#1575;&#1610;&#1604;&#1585;/&#1575;&#1604;&#1601;&#1610;&#1606;&#1608;&#1604;)</text><rect fill="#F1F1F1" height="33.9688" rx="12.5" ry="12.5" style="stroke:#181818;stroke-width:0.5;" width="330.3301" x="21" y="475.7031"/><text fill="#000000" font-family="sans-serif" font-size="12" lengthAdjust="spacing" textLength="310.3301" x="31" y="496.8418">&#1581;&#1587;&#1575;&#1576; &#1593;&#1583;&#1583; &#1575;&#1604;&#1604;&#1601;&#1575;&#1578;&#1548; &#1602;&#1591;&#1585; &#1575;&#1604;&#1587;&#1604;&#1603;&#1548; &#1608;&#1578;&#1581;&#1583;&#1610;&#1583; &#1571;&#1576;&#1593;&#1575;&#1583; &#1575;&#1604;&#1602;&#1608;&#1575;&#1604;&#1576; (&#1575;&#1604;&#1601;&#1585;&#1605;&#1577;)</text><rect fill="none" height="190.2031" style="stroke:#000000;stroke-width:1.5;" width="279.8594" x="46.2354" y="531.6719"/><path d="M120.7803,531.6719 L120.7803,540.9688 L110.7803,550.9688 L46.2354,550.9688" fill="none" style="stroke:#000000;stroke-width:1.5;"/><text fill="#000000" font-family="sans-serif" font-size="14" lengthAdjust="spacing" textLength="64.5449" x="49.2354" y="545.667">&#1593;&#1605;&#1604;&#1610;&#1577; &#1575;&#1604;&#1604;&#1601;</text><rect fill="#F1F1F1" height="33.9688" rx="12.5" ry="12.5" style="stroke:#181818;stroke-width:0.5;" width="223.4902" x="74.4199" y="567.9688"/><text fill="#000000" font-family="sans-serif" font-size="12" lengthAdjust="spacing" textLength="203.4902" x="84.4199" y="589.1074">&#1604;&#1601; &#1575;&#1604;&#1571;&#1587;&#1604;&#1575;&#1603; &#1593;&#1604;&#1609; &#1575;&#1604;&#1602;&#1575;&#1604;&#1576; &#1581;&#1587;&#1576; &#1575;&#1604;&#1581;&#1587;&#1575;&#1576;&#1575;&#1578;</text><rect fill="#F1F1F1" height="33.9688" rx="12.5" ry="12.5" style="stroke:#181818;stroke-width:0.5;" width="259.8594" x="56.2354" y="621.9375"/><text fill="#000000" font-family="sans-serif" font-size="12" lengthAdjust="spacing" textLength="239.8594" x="66.2354" y="643.0762">&#1573;&#1583;&#1582;&#1575;&#1604; &#1605;&#1580;&#1605;&#1608;&#1593;&#1575;&#1578; &#1575;&#1604;&#1605;&#1604;&#1601;&#1575;&#1578; &#1601;&#1610; &#1575;&#1604;&#1605;&#1580;&#1575;&#1585;&#1610; (&#1575;&#1604;&#1578;&#1585;&#1603;&#1610;&#1576;)</text><rect fill="#F1F1F1" height="33.9688" rx="12.5" ry="12.5" style="stroke:#181818;stroke-width:0.5;" width="254.3457" x="58.9922" y="675.9063"/><text fill="#000000" font-family="sans-serif" font-size="12" lengthAdjust="spacing" textLength="234.3457" x="68.9922" y="697.0449">&#1578;&#1579;&#1576;&#1610;&#1578; &#1588;&#1585;&#1575;&#1574;&#1591; &#1575;&#1604;&#1593;&#1586;&#1604; &#1576;&#1610;&#1606; &#1575;&#1604;&#1605;&#1580;&#1575;&#1585;&#1610; &#1608;&#1604;&#1601;&#1575;&#1578; &#1575;&#1604;&#1571;&#1591;&#1608;&#1575;&#1585;</text><rect fill="none" height="244.1719" style="stroke:#000000;stroke-width:1.5;" width="311.3711" x="30.4795" y="731.875"/><path d="M152.3428,731.875 L152.3428,741.1719 L142.3428,751.1719 L30.4795,751.1719" fill="none" style="stroke:#000000;stroke-width:1.5;"/><text fill="#000000" font-family="sans-serif" font-size="14" lengthAdjust="spacing" textLength="111.8633" x="33.4795" y="745.8701">&#1575;&#1604;&#1578;&#1608;&#1589;&#1610;&#1604; &#1608;&#1575;&#1604;&#1578;&#1588;&#1591;&#1610;&#1576;</text><rect fill="#F1F1F1" height="33.9688" rx="12.5" ry="12.5" style="stroke:#181818;stroke-width:0.5;" width="250.7188" x="60.8057" y="768.1719"/><text fill="#000000" font-family="sans-serif" font-size="12" lengthAdjust="spacing" textLength="230.7188" x="70.8057" y="789.3105">&#1578;&#1608;&#1589;&#1610;&#1604; &#1571;&#1591;&#1585;&#1575;&#1601; &#1575;&#1604;&#1605;&#1604;&#1601;&#1575;&#1578; (&#1578;&#1608;&#1589;&#1610;&#1604; &#1606;&#1580;&#1605;&#1577; &#1571;&#1608; &#1605;&#1579;&#1604;&#1579;)</text><rect fill="#F1F1F1" height="33.9688" rx="12.5" ry="12.5" style="stroke:#181818;stroke-width:0.5;" width="161.334" x="105.498" y="822.1406"/><text fill="#000000" font-family="sans-serif" font-size="12" lengthAdjust="spacing" textLength="141.334" x="115.498" y="843.2793">&#1578;&#1571;&#1605;&#1610;&#1606; &#1575;&#1604;&#1578;&#1608;&#1589;&#1610;&#1604;&#1575;&#1578; &#1608;&#1585;&#1576;&#1591;&#1607;&#1575; &#1580;&#1610;&#1583;&#1575;&#1611;</text><rect fill="#F1F1F1" height="33.9688" rx="12.5" ry="12.5" style="stroke:#181818;stroke-width:0.5;" width="240.6934" x="65.8184" y="876.1094"/><text fill="#000000" font-family="sans-serif" font-size="12" lengthAdjust="spacing" textLength="220.6934" x="75.8184" y="897.248">&#1578;&#1591;&#1576;&#1610;&#1602; &#1575;&#1604;&#1593;&#1586;&#1604; &#1575;&#1604;&#1606;&#1607;&#1575;&#1574;&#1610; &#1608;&#1578;&#1594;&#1604;&#1610;&#1601; &#1571;&#1591;&#1585;&#1575;&#1601; &#1575;&#1604;&#1578;&#1608;&#1589;&#1610;&#1604;</text><rect fill="#F1F1F1" height="33.9688" rx="12.5" ry="12.5" style="stroke:#181818;stroke-width:0.5;" width="291.3711" x="40.4795" y="930.0781"/><text fill="#000000" font-family="sans-serif" font-size="12" lengthAdjust="spacing" textLength="271.3711" x="50.4795" y="951.2168">&#1578;&#1585;&#1603;&#1610;&#1576; &#1575;&#1604;&#1605;&#1604;&#1601;&#1575;&#1578; &#1601;&#1610; &#1575;&#1604;&#1593;&#1590;&#1608; &#1575;&#1604;&#1583;&#1608;&#1575;&#1585; (&#1575;&#1604;&#1585;&#1608;&#1578;&#1608;&#1585;) &#1573;&#1584;&#1575; &#1604;&#1586;&#1605; &#1575;&#1604;&#1571;&#1605;&#1585;</text><path d="M296.8018,1000.4648 L296.8018,1009.0313 L276.8018,1013.0313 L296.8018,1017.0313 L296.8018,1025.5977 A0,0 0 0 0 296.8018,1025.5977 L558.7905,1025.5977 A0,0 0 0 0 558.7905,1025.5977 L558.7905,1010.4648 L548.7905,1000.4648 L296.8018,1000.4648 A0,0 0 0 0 296.8018,1000.4648" fill="#FAFAFA" style="stroke:#181818;stroke-width:0.5;"/><path d="M548.7905,1000.4648 L548.7905,1010.4648 L558.7905,1010.4648 L548.7905,1000.4648" fill="#FAFAFA" style="stroke:#181818;stroke-width:0.5;"/><text fill="#000000" font-family="sans-serif" font-size="13" lengthAdjust="spacing" textLength="240.9888" x="302.8018" y="1017.5317">(&#1575;&#1582;&#1578;&#1576;&#1575;&#1585; &#1605;&#1610;&#1580;&#1585; &#1608;&#1575;&#1604;&#1605;&#1602;&#1575;&#1608;&#1605;&#1577; &#1576;&#1610;&#1606; &#1575;&#1604;&#1571;&#1591;&#1608;&#1575;&#1585; &#1608;&#1575;&#1604;&#1571;&#1585;&#1590;&#1610;)</text><rect fill="#F1F1F1" height="33.9688" rx="12.5" ry="12.5" style="stroke:#181818;stroke-width:0.5;" width="181.2734" x="95.5283" y="996.0469"/><text fill="#000000" font-family="sans-serif" font-size="12" lengthAdjust="spacing" textLength="161.2734" x="105.5283" y="1017.1855">&#1575;&#1582;&#1578;&#1576;&#1575;&#1585; &#1575;&#1604;&#1593;&#1586;&#1604; &#1608;&#1575;&#1604;&#1605;&#1602;&#1575;&#1608;&#1605;&#1577; &#1575;&#1604;&#1603;&#1607;&#1585;&#1576;&#1575;&#1574;&#1610;&#1577;</text><rect fill="#F1F1F1" height="33.9688" rx="12.5" ry="12.5" style="stroke:#181818;stroke-width:0.5;" width="247.4023" x="62.4639" y="1050.0156"/><text fill="#000000" font-family="sans-serif" font-size="12" lengthAdjust="spacing" textLength="227.4023" x="72.4639" y="1071.1543">&#1573;&#1593;&#1575;&#1583;&#1577; &#1578;&#1580;&#1605;&#1610;&#1593; &#1575;&#1604;&#1605;&#1581;&#1585;&#1603; &#1608;&#1578;&#1585;&#1603;&#1610;&#1576; &#1575;&#1604;&#1571;&#1594;&#1591;&#1610;&#1577; &#1608;&#1575;&#1604;&#1576;&#1585;&#1575;&#1594;&#1610;</text><rect fill="#F1F1F1" height="33.9688" rx="12.5" ry="12.5" style="stroke:#181818;stroke-width:0.5;" width="241.5898" x="65.3701" y="1103.9844"/><text fill="#000000" font-family="sans-serif" font-size="12" lengthAdjust="spacing" textLength="221.5898" x="75.3701" y="1125.123">&#1575;&#1582;&#1578;&#1576;&#1575;&#1585; &#1578;&#1588;&#1594;&#1610;&#1604; &#1575;&#1604;&#1605;&#1581;&#1585;&#1603; (&#1578;&#1581;&#1578; &#1575;&#1604;&#1581;&#1605;&#1604; &#1573;&#1584;&#1575; &#1571;&#1605;&#1603;&#1606;)</text><ellipse cx="186.165" cy="1168.9531" fill="none" rx="11" ry="11" style="stroke:#222222;stroke-width:1;"/><ellipse cx="186.165" cy="1168.9531" fill="#222222" rx="6" ry="6" style="stroke:#222222;stroke-width:1;"/><line style="stroke:#181818;stroke-width:1;" x1="186.165" x2="186.165" y1="67.2969" y2="87.2969"/><polygon fill="#181818" points="182.165,77.2969,186.165,87.2969,190.165,77.2969,186.165,81.2969" style="stroke:#181818;stroke-width:1;"/><line style="stroke:#181818;stroke-width:1;" x1="186.165" x2="186.165" y1="201.5313" y2="221.5313"/><polygon fill="#181818" points="182.165,211.5313,186.165,221.5313,190.165,211.5313,186.165,215.5313" style="stroke:#181818;stroke-width:1;"/><line style="stroke:#181818;stroke-width:1;" x1="186.165" x2="186.165" y1="255.5" y2="275.5"/><polygon fill="#181818" points="182.165,265.5,186.165,275.5,190.165,265.5,186.165,269.5" style="stroke:#181818;stroke-width:1;"/><line style="stroke:#181818;stroke-width:1;" x1="186.165" x2="186.165" y1="121.2656" y2="167.5625"/><polygon fill="#181818" points="182.165,157.5625,186.165,167.5625,190.165,157.5625,186.165,161.5625" style="stroke:#181818;stroke-width:1;"/><line style="stroke:#181818;stroke-width:1;" x1="186.165" x2="186.165" y1="401.7344" y2="421.7344"/><polygon fill="#181818" points="182.165,411.7344,186.165,421.7344,190.165,411.7344,186.165,415.7344" style="stroke:#181818;stroke-width:1;"/><line style="stroke:#181818;stroke-width:1;" x1="186.165" x2="186.165" y1="455.7031" y2="475.7031"/><polygon fill="#181818" points="182.165,465.7031,186.165,475.7031,190.165,465.7031,186.165,469.7031" style="stroke:#181818;stroke-width:1;"/><line style="stroke:#181818;stroke-width:1;" x1="186.165" x2="186.165" y1="309.4688" y2="367.7656"/><polygon fill="#181818" points="182.165,357.7656,186.165,367.7656,190.165,357.7656,186.165,361.7656" style="stroke:#181818;stroke-width:1;"/><line style="stroke:#181818;stroke-width:1;" x1="186.165" x2="186.165" y1="601.9375" y2="621.9375"/><polygon fill="#181818" points="182.165,611.9375,186.165,621.9375,190.165,611.9375,186.165,615.9375" style="stroke:#181818;stroke-width:1;"/><line style="stroke:#181818;stroke-width:1;" x1="186.165" x2="186.165" y1="655.9063" y2="675.9063"/><polygon fill="#181818" points="182.165,665.9063,186.165,675.9063,190.165,665.9063,186.165,669.9063" style="stroke:#181818;stroke-width:1;"/><line style="stroke:#181818;stroke-width:1;" x1="186.165" x2="186.165" y1="509.6719" y2="567.9688"/><polygon fill="#181818" points="182.165,557.9688,186.165,567.9688,190.165,557.9688,186.165,561.9688" style="stroke:#181818;stroke-width:1;"/><line style="stroke:#181818;stroke-width:1;" x1="186.165" x2="186.165" y1="802.1406" y2="822.1406"/><polygon fill="#181818" points="182.165,812.1406,186.165,822.1406,190.165,812.1406,186.165,816.1406" style="stroke:#181818;stroke-width:1;"/><line style="stroke:#181818;stroke-width:1;" x1="186.165" x2="186.165" y1="856.1094" y2="876.1094"/><polygon fill="#181818" points="182.165,866.1094,186.165,876.1094,190.165,866.1094,186.165,870.1094" style="stroke:#181818;stroke-width:1;"/><line style="stroke:#181818;stroke-width:1;" x1="186.165" x2="186.165" y1="910.0781" y2="930.0781"/><polygon fill="#181818" points="182.165,920.0781,186.165,930.0781,190.165,920.0781,186.165,924.0781" style="stroke:#181818;stroke-width:1;"/><line style="stroke:#181818;stroke-width:1;" x1="186.165" x2="186.165" y1="709.875" y2="768.1719"/><polygon fill="#181818" points="182.165,758.1719,186.165,768.1719,190.165,758.1719,186.165,762.1719" style="stroke:#181818;stroke-width:1;"/><line style="stroke:#181818;stroke-width:1;" x1="186.165" x2="186.165" y1="964.0469" y2="996.0469"/><polygon fill="#181818" points="182.165,986.0469,186.165,996.0469,190.165,986.0469,186.165,990.0469" style="stroke:#181818;stroke-width:1;"/><line style="stroke:#181818;stroke-width:1;" x1="186.165" x2="186.165" y1="1030.0156" y2="1050.0156"/><polygon fill="#181818" points="182.165,1040.0156,186.165,1050.0156,190.165,1040.0156,186.165,1044.0156" style="stroke:#181818;stroke-width:1;"/><line style="stroke:#181818;stroke-width:1;" x1="186.165" x2="186.165" y1="1083.9844" y2="1103.9844"/><polygon fill="#181818" points="182.165,1093.9844,186.165,1103.9844,190.165,1093.9844,186.165,1097.9844" style="stroke:#181818;stroke-width:1;"/><line style="stroke:#181818;stroke-width:1;" x1="186.165" x2="186.165" y1="1137.9531" y2="1157.9531"/><polygon fill="#181818" points="182.165,1147.9531,186.165,1157.9531,190.165,1147.9531,186.165,1151.9531" style="stroke:#181818;stroke-width:1;"/><?plantuml-src XLNBSjf04BphAxPyWbFky3LKhDYg6EG2fN98vS13YgBa9r9K8Y70H11RWI-P_Plqx8CL3rSEBg7LJCzCTyyw2g87NyYOdgYcMj1Und8cCre8FCQ2SZnYMbCbfvHJgG-cyWjLLE3W5uTwtkXzC7Zi3NjzqGy7uTlxOTZtHJJyu3U-ZEvxj-77O70dtlKUHZwIejumyhoE70F_MSYKIlmjPIOdWWe0vp9nDKqJ-cL26uJ5NMyGHhuO1dVtaTVYBxH2QnlwhiA01n1qYjSzJZVwT8xq6kS5dzS0HK7CQp9IUiR1hEtvWrl1y9w7_gCW2iA1k351Or2GeHb4yy5FsghduaPyyeJeD29eJYl-IZzEnkYgi6EU-SQKkudDaFYgH-D4C3ENgVrUqxxTDGKJ-eleCKkvug5bfYVQquj9eAKQkZHmEogv5aQe0FBvTCoIYGHxMmkobJCphMlJJ2idYkOTpreWD0VH_-_2zEtg_85GC1IRq9Myj9jeSSTCXAOpPxMeUgDUntX9P0hvDFmQKw9QKtxRFCHN35Qwt8xhy1bSY3Gmp_5k8CsuqRlG50AeOdqkwNDRP4jQhknI0HebyMlAEpUJNwsc6bzrNWYZkng2cxQssM1TSrO4DADKgfeiprt4T5YQh1fQ-v8zYFuAQn-emXjNlYP3mSIUOp7H3SDYf9e9ekg2ZvFLibjJebRDJRYjiH4CnNqSRw1ZeLOJ9-7fcMJU2VnQihsE8ysHPhjsMPgPL1cgXh5o0H28ZQXlDhDMyqukZ9Xml3AXiic1DUOMJxjrjIoU8VjLVPhhiT4K6g4gSojMRG7PVwDR76vbR6-os93TGSuJAXKgzzhEihDIpTQLA_py9cs0COkGlBeAvNpXrBVwpb7WHMRDcvIzg_Q9SqlbtOpsfnUyehR9680EoYWBYrmeZnvarhsOd4rrq1vgWhRKLXkVhba3owUooLGci0t-8uMF_m00?></g></svg>