<?plantuml 1.2026.2beta3?><svg xmlns="http://www.w3.org/2000/svg" xmlns:xlink="http://www.w3.org/1999/xlink" contentStyleType="text/css" data-diagram-type="DESCRIPTION" height="525px" preserveAspectRatio="none" style="width:993px;height:525px;background:#FFFFFF;" version="1.1" viewBox="0 0 993 525" width="993px" zoomAndPan="magnify"><title>&#1605;&#1582;&#1591;&#1591; &#1606;&#1592;&#1575;&#1605; &#1604;&#1608;&#1581;&#1577; PLC &#1604;&#1604;&#1578;&#1581;&#1603;&#1605; &#1576;&#1575;&#1604;&#1605;&#1590;&#1582;&#1575;&#1578; | &#1585;&#1608;&#1575;&#1574;&#1593; &#1575;&#1604;&#1603;&#1585;&#1610;&#1587;&#1578;&#1575;&#1604;</title><defs/><g><g class="title" data-source-line="6"><text fill="#000000" font-family="Arial" font-size="14" font-weight="bold" lengthAdjust="spacing" textLength="408.1465" x="285.8862" y="22.9951">&#1605;&#1582;&#1591;&#1591; &#1606;&#1592;&#1575;&#1605; &#1604;&#1608;&#1581;&#1577; PLC &#1604;&#1604;&#1578;&#1581;&#1603;&#1605; &#1576;&#1575;&#1604;&#1605;&#1590;&#1582;&#1575;&#1578; | &#1585;&#1608;&#1575;&#1574;&#1593; &#1575;&#1604;&#1603;&#1585;&#1610;&#1587;&#1578;&#1575;&#1604;</text></g><!--cluster ???????? ????????? (Inputs)--><g class="cluster" data-qualified-name="........ ......... .Inputs." data-source-line="8" id="ent0002"><path d="M8.5,43.2969 L214.5166,43.2969 A3.75,3.75 0 0 1 217.0166,45.7969 L224.0166,65.5938 L755.5,65.5938 A2.5,2.5 0 0 1 758,68.0938 L758,128.0969 A2.5,2.5 0 0 1 755.5,130.5969 L8.5,130.5969 A2.5,2.5 0 0 1 6,128.0969 L6,45.7969 A2.5,2.5 0 0 1 8.5,43.2969" fill="none" style="stroke:#000000;stroke-width:1.5;"/><line style="stroke:#000000;stroke-width:1.5;" x1="6" x2="224.0166" y1="65.5938" y2="65.5938"/><text fill="#000000" font-family="Arial" font-size="14" font-weight="bold" lengthAdjust="spacing" textLength="205.0166" x="10" y="58.292">&#1575;&#1604;&#1605;&#1583;&#1582;&#1604;&#1575;&#1578; &#1608;&#1575;&#1604;&#1573;&#1588;&#1575;&#1585;&#1575;&#1578; (Inputs)</text></g><!--cluster ???? ?????? (PLC Panel)--><g class="cluster" data-qualified-name=".... ...... .PLC Panel." data-source-line="14" id="ent0006"><path d="M341.5,179.5969 L520.9385,179.5969 A3.75,3.75 0 0 1 523.4385,182.0969 L530.4385,201.8938 L817.5,201.8938 A2.5,2.5 0 0 1 820,204.3938 L820,379.6669 A2.5,2.5 0 0 1 817.5,382.1669 L341.5,382.1669 A2.5,2.5 0 0 1 339,379.6669 L339,182.0969 A2.5,2.5 0 0 1 341.5,179.5969" fill="none" style="stroke:#000000;stroke-width:1.5;"/><line style="stroke:#000000;stroke-width:1.5;" x1="339" x2="530.4385" y1="201.8938" y2="201.8938"/><text fill="#000000" font-family="Arial" font-size="14" font-weight="bold" lengthAdjust="spacing" textLength="178.4385" x="343" y="194.592">&#1604;&#1608;&#1581;&#1577; &#1575;&#1604;&#1578;&#1581;&#1603;&#1605; (PLC Panel)</text></g><!--cluster ???????? (Outputs)--><g class="cluster" data-qualified-name="........ .Outputs." data-source-line="20" id="ent0010"><path d="M409.5,431.1669 L559.4004,431.1669 A3.75,3.75 0 0 1 561.9004,433.6669 L568.9004,453.4638 L574.5,453.4638 A2.5,2.5 0 0 1 577,455.9638 L577,515.9669 A2.5,2.5 0 0 1 574.5,518.4669 L409.5,518.4669 A2.5,2.5 0 0 1 407,515.9669 L407,433.6669 A2.5,2.5 0 0 1 409.5,431.1669" fill="none" style="stroke:#000000;stroke-width:1.5;"/><line style="stroke:#000000;stroke-width:1.5;" x1="407" x2="568.9004" y1="453.4638" y2="453.4638"/><text fill="#000000" font-family="Arial" font-size="14" font-weight="bold" lengthAdjust="spacing" textLength="148.9004" x="411" y="446.162">&#1575;&#1604;&#1605;&#1582;&#1585;&#1580;&#1575;&#1578; (Outputs)</text></g><!--entity Level--><g class="entity" data-qualified-name="........ ......... .Inputs..Level" data-source-line="9" id="ent0003"><rect fill="#F1F1F1" height="36.2969" rx="2.5" ry="2.5" style="stroke:#181818;stroke-width:0.5;" width="242.4961" x="21.75" y="78.2969"/><text fill="#000000" font-family="Arial" font-size="14" lengthAdjust="spacing" textLength="222.4961" x="31.75" y="101.292">&#1581;&#1587;&#1575;&#1587;&#1575;&#1578; &#1575;&#1604;&#1605;&#1587;&#1578;&#1608;&#1609; (Level Sensors)</text></g><!--entity Pressure--><g class="entity" data-qualified-name="........ ......... .Inputs..Pressure" data-source-line="10" id="ent0004"><rect fill="#F1F1F1" height="36.2969" rx="2.5" ry="2.5" style="stroke:#181818;stroke-width:0.5;" width="255.1221" x="299.44" y="78.2969"/><text fill="#000000" font-family="Arial" font-size="14" lengthAdjust="spacing" textLength="235.1221" x="309.44" y="101.292">&#1581;&#1587;&#1575;&#1587;&#1575;&#1578; &#1575;&#1604;&#1590;&#1594;&#1591; (Pressure Sensors)</text></g><!--entity Buttons--><g class="entity" data-qualified-name="........ ......... .Inputs..Buttons" data-source-line="11" id="ent0005"><rect fill="#F1F1F1" height="36.2969" rx="2.5" ry="2.5" style="stroke:#181818;stroke-width:0.5;" width="152.3506" x="589.82" y="78.2969"/><text fill="#000000" font-family="Arial" font-size="14" lengthAdjust="spacing" textLength="132.3506" x="599.82" y="101.292">&#1571;&#1586;&#1585;&#1575;&#1585; &#1575;&#1604;&#1578;&#1588;&#1594;&#1610;&#1604; &#1608;&#1575;&#1604;&#1573;&#1610;&#1602;&#1575;&#1601;</text></g><!--entity PLC--><g class="entity" data-qualified-name=".... ...... .PLC Panel..PLC" data-source-line="15" id="ent0007"><rect fill="#ADD8E6" height="36.2969" rx="2.5" ry="2.5" style="stroke:#181818;stroke-width:0.5;" width="144.0176" x="354.99" y="214.5969"/><text fill="#000000" font-family="Arial" font-size="14" lengthAdjust="spacing" textLength="124.0176" x="364.99" y="237.592">&#1608;&#1581;&#1583;&#1577; &#1575;&#1604;&#1605;&#1593;&#1575;&#1604;&#1580;&#1577; (PLC)</text></g><!--entity HMI--><g class="entity" data-qualified-name=".... ...... .PLC Panel..HMI" data-source-line="16" id="ent0008"><rect fill="#90EE90" height="36.2969" rx="2.5" ry="2.5" style="stroke:#181818;stroke-width:0.5;" width="140.2578" x="663.87" y="214.5969"/><text fill="#000000" font-family="Arial" font-size="14" lengthAdjust="spacing" textLength="120.2578" x="673.87" y="237.592">&#1588;&#1575;&#1588;&#1577; &#1575;&#1604;&#1578;&#1581;&#1603;&#1605; (HMI)</text></g><!--entity Power--><g class="entity" data-qualified-name=".... ...... .PLC Panel..Power" data-source-line="17" id="ent0009"><rect fill="#D3D3D3" height="36.2969" rx="2.5" ry="2.5" style="stroke:#181818;stroke-width:0.5;" width="274.1602" x="354.92" y="329.8769"/><text fill="#000000" font-family="Arial" font-size="14" lengthAdjust="spacing" textLength="254.1602" x="364.92" y="352.872">&#1602;&#1608;&#1575;&#1591;&#1593; &#1608;&#1605;&#1581;&#1608;&#1604;&#1575;&#1578; &#1575;&#1604;&#1578;&#1585;&#1583;&#1583; (VFD/Contactors)</text></g><!--entity Pumps--><g class="entity" data-qualified-name="........ .Outputs..Pumps" data-source-line="21" id="ent0011"><rect fill="#F1F1F1" height="36.2969" rx="2.5" ry="2.5" style="stroke:#181818;stroke-width:0.5;" width="137.3799" x="423.31" y="466.1669"/><text fill="#000000" font-family="Arial" font-size="14" lengthAdjust="spacing" textLength="117.3799" x="433.31" y="489.162">&#1575;&#1604;&#1605;&#1590;&#1582;&#1575;&#1578; (Pumps)</text></g><g class="entity" data-qualified-name="GMN18" data-source-line="34" id="ent0019"><path d="M839.08,212.6069 L839.08,252.8725 L986.9189,252.8725 L986.9189,222.6069 L976.9189,212.6069 L839.08,212.6069" fill="#FEFFDD" style="stroke:#181818;stroke-width:0.5;"/><path d="M976.9189,212.6069 L976.9189,222.6069 L986.9189,222.6069 L976.9189,212.6069" fill="#FEFFDD" style="stroke:#181818;stroke-width:1;"/><text fill="#000000" font-family="Arial" font-size="13" lengthAdjust="spacing" textLength="126.8389" x="845.08" y="229.6738">&#1605;&#1593;&#1575;&#1604;&#1580;&#1577; &#1575;&#1604;&#1605;&#1606;&#1591;&#1602; &#1575;&#1604;&#1605;&#1576;&#1585;&#1605;&#1580;</text><text fill="#000000" font-family="Arial" font-size="13" lengthAdjust="spacing" textLength="115.3115" x="845.08" y="244.8066">&#1604;&#1604;&#1581;&#1605;&#1575;&#1610;&#1577; &#1608;&#1575;&#1604;&#1578;&#1581;&#1603;&#1605; &#1575;&#1604;&#1570;&#1604;&#1610;</text></g><!--link Level to PLC--><g class="link" data-entity-1="ent0003" data-entity-2="ent0007" data-link-type="dependency" data-source-line="25" id="lnk12"><path d="M180.13,114.9969 C234.56,140.7369 330.0059,185.8718 384.4359,211.6118" fill="none" id="Level-to-PLC" style="stroke:#000000;stroke-width:1;"/><polygon fill="#000000" points="389.86,214.1769,383.4339,206.7133,385.3399,212.0393,380.0139,213.9453,389.86,214.1769" style="stroke:#000000;stroke-width:1;"/><text fill="#000000" font-family="Arial" font-size="13" lengthAdjust="spacing" textLength="73.252" x="277" y="159.6638">&#1602;&#1585;&#1575;&#1569;&#1577; &#1575;&#1604;&#1576;&#1610;&#1575;&#1606;&#1575;&#1578;</text></g><!--link Pressure to PLC--><g class="link" data-entity-1="ent0004" data-entity-2="ent0007" data-link-type="dependency" data-source-line="26" id="lnk13"><path d="M427,114.9969 C427,140.7369 427,182.4369 427,208.1769" fill="none" id="Pressure-to-PLC" style="stroke:#000000;stroke-width:1;"/><polygon fill="#000000" points="427,214.1769,431,205.1769,427,209.1769,423,205.1769,427,214.1769" style="stroke:#000000;stroke-width:1;"/><text fill="#000000" font-family="Arial" font-size="13" lengthAdjust="spacing" textLength="73.252" x="428" y="159.6638">&#1602;&#1585;&#1575;&#1569;&#1577; &#1575;&#1604;&#1576;&#1610;&#1575;&#1606;&#1575;&#1578;</text></g><!--link Buttons to PLC--><g class="link" data-entity-1="ent0005" data-entity-2="ent0007" data-link-type="dependency" data-source-line="27" id="lnk14"><path d="M634.75,114.9969 C588.95,140.7369 509.2908,185.4977 463.4808,211.2377" fill="none" id="Buttons-to-PLC" style="stroke:#000000;stroke-width:1;"/><polygon fill="#000000" points="458.25,214.1769,468.0557,213.2554,462.609,211.7276,464.1368,206.281,458.25,214.1769" style="stroke:#000000;stroke-width:1;"/><text fill="#000000" font-family="Arial" font-size="13" lengthAdjust="spacing" textLength="59.0776" x="575" y="159.6638">&#1571;&#1608;&#1575;&#1605;&#1585; &#1610;&#1583;&#1608;&#1610;&#1577;</text></g><!--link PLC to HMI--><g class="link" data-entity-1="ent0007" data-entity-2="ent0008" data-link-type="dependency" data-source-line="29" id="lnk15"><path d="M505.37,232.7369 C554.91,232.7369 608.29,232.7369 657.44,232.7369" fill="none" id="PLC-HMI" style="stroke:#000000;stroke-width:1;"/><polygon fill="#000000" points="499.37,232.7369,508.37,236.7369,504.37,232.7369,508.37,228.7369,499.37,232.7369" style="stroke:#000000;stroke-width:1;"/><polygon fill="#000000" points="663.44,232.7369,654.44,228.7369,658.44,232.7369,654.44,236.7369,663.44,232.7369" style="stroke:#000000;stroke-width:1;"/><text fill="#000000" font-family="Arial" font-size="13" lengthAdjust="spacing" textLength="128.064" x="517.44" y="225.8038">&#1605;&#1585;&#1575;&#1602;&#1576;&#1577; &#1608;&#1590;&#1576;&#1591; &#1575;&#1604;&#1573;&#1593;&#1583;&#1575;&#1583;&#1575;&#1578;</text></g><!--link PLC to Power--><g class="link" data-entity-1="ent0007" data-entity-2="ent0009" data-link-type="dependency" data-source-line="30" id="lnk16"><path d="M436.87,250.9469 C449.09,272.2369 466.7961,303.0815 479.0461,324.4515" fill="none" id="PLC-to-Power" style="stroke:#000000;stroke-width:1;"/><polygon fill="#000000" points="482.03,329.6569,481.0244,319.8595,479.5434,325.319,474.0839,323.838,482.03,329.6569" style="stroke:#000000;stroke-width:1;"/><text fill="#000000" font-family="Arial" font-size="13" lengthAdjust="spacing" textLength="158.1074" x="464" y="295.9438">&#1573;&#1588;&#1575;&#1585;&#1577; &#1575;&#1604;&#1578;&#1581;&#1603;&#1605; (&#1578;&#1588;&#1594;&#1610;&#1604;/&#1587;&#1585;&#1593;&#1577;)</text></g><!--link Power to Pumps--><g class="link" data-entity-1="ent0009" data-entity-2="ent0011" data-link-type="dependency" data-source-line="31" id="lnk17"><path d="M492,366.5769 C492,392.3169 492,434.0169 492,459.7569" fill="none" id="Power-to-Pumps" style="stroke:#000000;stroke-width:1;"/><polygon fill="#000000" points="492,465.7569,496,456.7569,492,460.7569,488,456.7569,492,465.7569" style="stroke:#000000;stroke-width:1;"/><text fill="#000000" font-family="Arial" font-size="13" lengthAdjust="spacing" textLength="89.521" x="493" y="411.2338">&#1575;&#1604;&#1591;&#1575;&#1602;&#1577; &#1575;&#1604;&#1603;&#1607;&#1585;&#1576;&#1575;&#1574;&#1610;&#1577;</text></g><!--link PLC to GMN18--><g class="link" data-entity-1="ent0007" data-entity-2="ent0019" data-link-type="association" data-source-line="34" id="lnk20"><path d="M461.25,214.1669 C528,180.4869 679.68,116.2569 802.5,155.0969 C837.82,166.2569 871.64,193.2169 892.35,212.2269" fill="none" id="PLC-GMN18" style="stroke:#000000;stroke-width:1;stroke-dasharray:7,7;"/></g><?plantuml-src ZLHRQnD167sVNp6q3suUIdqk8jX8jH0rKF15V1YJQHgwcGsxiuQYFfYBrlmBBPeBkR2cDAQ_PFRVUBxPIvCKmK1WBjyvS-PyPpOuhwkcy4M3Lxn6qrDIwHDzuKhkoueMgkPA5kGbxqJblEPxeQeMFTVpUUkihjVtXUzxhMHhzw7zhMrMvQa8NNtaAVrID2H_ujU5ovYkQvmMzypCBCsInr_C7pE8UppknfTcQaQyN2hIf6l6PXfti6E6AEW2SGFCm8pvHsuY50_CBxFYTg-3XRvP088POqte5ZN9TrBWtCp0Hr22OVZJN6CQsINdM3L37HHs-0V6yNi35GliBEnkoW3g-3B-nfsIV2zTVY9LuFb1uIqN0RTB_u12yorkwPHz6GIXBpUHsMeAlZA_hQOeWOuXyZRknzrSDIPjZ3vRy66ejQS2zcdjlhc9AK5Ye4EMbeMIRdx9lFd046AUOd3LbSLEi40u84We27PBzTgPFdH3kSrWpRo-T-hp5yS96eCK_SoNKjqJqBRDNAAPyBW7-6NQhPGlWhmvTruVFTql8asYeid1H9ZNadvEBYust4WlD0F196drgr1lzNepMKuvR3Ipvj2G-1uaEbOaYlo_Yr64Q2vP4eczlSVMfWEE6khYzyoG8Q8vGCu1P7aE_gyyxV5QjRcoP_SG4jJDOLNVZ1YZpKSe8giFw7L5LkiGfAY_8PqyJVuARWxiVsnXbjlQ2FRiOMptyYwC-qXt199HWIKeYoUl24-WfJqwpLCd_cfjmcDDb2fFusD3_UBUALqAZTX8NT8I6B2CsracXtZVFJEXKleoJ34P45tMYFnJGPCVgEapgQgSpleB?></g></svg>