<?plantuml 1.2026.2beta3?><svg xmlns="http://www.w3.org/2000/svg" xmlns:xlink="http://www.w3.org/1999/xlink" contentStyleType="text/css" data-diagram-type="ACTIVITY" height="721px" preserveAspectRatio="none" style="width:511px;height:721px;background:#FFFFFF;" version="1.1" viewBox="0 0 511 721" width="511px" zoomAndPan="magnify"><title>&#1605;&#1582;&#1591;&#1591; &#1589;&#1610;&#1575;&#1606;&#1577; &#1575;&#1604;&#1605;&#1587;&#1575;&#1576;&#1581; &#1576;&#1580;&#1583;&#1577;</title><defs/><g><g class="title" data-source-line="1"><text fill="#000000" font-family="sans-serif" font-size="14" font-weight="bold" lengthAdjust="spacing" textLength="186.2451" x="161.3682" y="32.9951">&#1605;&#1582;&#1591;&#1591; &#1589;&#1610;&#1575;&#1606;&#1577; &#1575;&#1604;&#1605;&#1587;&#1575;&#1576;&#1581; &#1576;&#1580;&#1583;&#1577;</text></g><ellipse cx="141.6387" cy="57.2969" fill="#222222" rx="10" ry="10" style="stroke:#222222;stroke-width:1;"/><path d="M277.3037,91.7148 L277.3037,100.2813 L257.3037,104.2813 L277.3037,108.2813 L277.3037,116.8477 A0,0 0 0 0 277.3037,116.8477 L499.9814,116.8477 A0,0 0 0 0 499.9814,116.8477 L499.9814,101.7148 L489.9814,91.7148 L277.3037,91.7148 A0,0 0 0 0 277.3037,91.7148" fill="#FEFFDD" style="stroke:#181818;stroke-width:0.5;"/><path d="M489.9814,91.7148 L489.9814,101.7148 L499.9814,101.7148 L489.9814,91.7148" fill="#FEFFDD" style="stroke:#181818;stroke-width:0.5;"/><text fill="#000000" font-family="sans-serif" font-size="13" lengthAdjust="spacing" textLength="201.6777" x="283.3037" y="108.7817">&#1610;&#1588;&#1605;&#1604; (&#1575;&#1604;&#1603;&#1604;&#1608;&#1585;&#1548; &#1575;&#1604;&#1581;&#1605;&#1608;&#1590;&#1577; pH&#1548; &#1575;&#1604;&#1602;&#1604;&#1608;&#1610;&#1577;)</text><rect fill="#F1F1F1" height="33.9688" rx="12.5" ry="12.5" style="stroke:#181818;stroke-width:0.5;" width="231.3301" x="25.9736" y="87.2969"/><text fill="#000000" font-family="sans-serif" font-size="12" lengthAdjust="spacing" textLength="211.3301" x="35.9736" y="108.4355">&#1578;&#1581;&#1583;&#1610;&#1583; &#1581;&#1575;&#1604;&#1577; &#1575;&#1604;&#1605;&#1587;&#1576;&#1581; (&#1601;&#1581;&#1589; &#1576;&#1589;&#1585;&#1610;&#1548; &#1603;&#1610;&#1605;&#1610;&#1575;&#1574;&#1610;)</text><rect fill="#F1F1F1" height="33.9688" rx="12.5" ry="12.5" style="stroke:#181818;stroke-width:0.5;" width="261.2773" x="11" y="189.668"/><text fill="#000000" font-family="sans-serif" font-size="12" lengthAdjust="spacing" textLength="241.2773" x="21" y="210.8066">&#1573;&#1590;&#1575;&#1601;&#1577; &#1575;&#1604;&#1605;&#1608;&#1575;&#1583; &#1575;&#1604;&#1603;&#1610;&#1605;&#1610;&#1575;&#1574;&#1610;&#1577; &#1575;&#1604;&#1604;&#1575;&#1586;&#1605;&#1577; (&#1603;&#1604;&#1608;&#1585;&#1548; &#1581;&#1605;&#1590;&#1548; &#1573;&#1604;&#1582;)</text><polygon fill="#F1F1F1" points="70.9873,141.2656,212.29,141.2656,224.29,153.2656,212.29,165.2656,70.9873,165.2656,58.9873,153.2656,70.9873,141.2656" style="stroke:#181818;stroke-width:0.5;"/><text fill="#000000" font-family="sans-serif" font-size="11" lengthAdjust="spacing" textLength="15.689" x="145.6387" y="175.4761">&#1606;&#1593;&#1605;</text><text fill="#000000" font-family="sans-serif" font-size="11" lengthAdjust="spacing" textLength="141.3027" x="70.9873" y="157.0737">&#1607;&#1604; &#1607;&#1606;&#1575;&#1603; &#1581;&#1575;&#1580;&#1577; &#1604;&#1578;&#1593;&#1583;&#1610;&#1604; &#1603;&#1610;&#1605;&#1610;&#1575;&#1574;&#1610;&#1567;</text><text fill="#000000" font-family="sans-serif" font-size="11" lengthAdjust="spacing" textLength="6.2734" x="224.29" y="150.6714">&#1604;&#1575;</text><polygon fill="#F1F1F1" points="141.6387,243.6367,153.6387,255.6367,141.6387,267.6367,129.6387,255.6367,141.6387,243.6367" style="stroke:#181818;stroke-width:0.5;"/><text fill="#000000" font-family="sans-serif" font-size="11" lengthAdjust="spacing" textLength="36.3892" x="153.6387" y="253.0425">&#1575;&#1587;&#1578;&#1605;&#1585;&#1575;&#1585;</text><rect fill="#F1F1F1" height="33.9688" rx="12.5" ry="12.5" style="stroke:#181818;stroke-width:0.5;" width="243.3828" x="19.9473" y="287.6367"/><text fill="#000000" font-family="sans-serif" font-size="12" lengthAdjust="spacing" textLength="223.3828" x="29.9473" y="308.7754">&#1578;&#1606;&#1592;&#1610;&#1601; &#1575;&#1604;&#1605;&#1587;&#1576;&#1581; (&#1588;&#1601;&#1591;&#1548; &#1603;&#1588;&#1591;&#1548; &#1578;&#1606;&#1592;&#1610;&#1601; &#1575;&#1604;&#1601;&#1604;&#1575;&#1578;&#1585;)</text><rect fill="#F1F1F1" height="33.9688" rx="12.5" ry="12.5" style="stroke:#181818;stroke-width:0.5;" width="244.0273" x="19.625" y="390.0078"/><text fill="#000000" font-family="sans-serif" font-size="12" lengthAdjust="spacing" textLength="224.0273" x="29.625" y="411.1465">&#1601;&#1581;&#1589; &#1608;&#1589;&#1610;&#1575;&#1606;&#1577;/&#1578;&#1606;&#1592;&#1610;&#1601; &#1606;&#1592;&#1575;&#1605; &#1575;&#1604;&#1601;&#1604;&#1578;&#1585;&#1577; &#1608;&#1575;&#1604;&#1605;&#1590;&#1582;&#1575;&#1578;</text><polygon fill="#F1F1F1" points="85.0032,341.6055,198.2742,341.6055,210.2742,353.6055,198.2742,365.6055,85.0032,365.6055,73.0032,353.6055,85.0032,341.6055" style="stroke:#181818;stroke-width:0.5;"/><text fill="#000000" font-family="sans-serif" font-size="11" lengthAdjust="spacing" textLength="6.2734" x="145.6387" y="375.8159">&#1604;&#1575;</text><text fill="#000000" font-family="sans-serif" font-size="11" lengthAdjust="spacing" textLength="113.271" x="85.0032" y="357.4136">&#1607;&#1604; &#1575;&#1604;&#1601;&#1604;&#1578;&#1585;&#1577; &#1578;&#1593;&#1605;&#1604; &#1576;&#1603;&#1601;&#1575;&#1569;&#1577;&#1567;</text><text fill="#000000" font-family="sans-serif" font-size="11" lengthAdjust="spacing" textLength="15.689" x="210.2742" y="351.0112">&#1606;&#1593;&#1605;</text><polygon fill="#F1F1F1" points="141.6387,443.9766,153.6387,455.9766,141.6387,467.9766,129.6387,455.9766,141.6387,443.9766" style="stroke:#181818;stroke-width:0.5;"/><text fill="#000000" font-family="sans-serif" font-size="11" lengthAdjust="spacing" textLength="36.3892" x="153.6387" y="453.3823">&#1575;&#1587;&#1578;&#1605;&#1585;&#1575;&#1585;</text><rect fill="#F1F1F1" height="33.9688" rx="12.5" ry="12.5" style="stroke:#181818;stroke-width:0.5;" width="221.3574" x="30.96" y="487.9766"/><text fill="#000000" font-family="sans-serif" font-size="12" lengthAdjust="spacing" textLength="201.3574" x="40.96" y="509.1152">&#1601;&#1581;&#1589; &#1588;&#1575;&#1605;&#1604; &#1604;&#1604;&#1571;&#1580;&#1586;&#1575;&#1569; &#1575;&#1604;&#1605;&#1610;&#1603;&#1575;&#1606;&#1610;&#1603;&#1610;&#1577; &#1608;&#1575;&#1604;&#1587;&#1576;&#1575;&#1603;&#1577;</text><rect fill="#F1F1F1" height="33.9688" rx="12.5" ry="12.5" style="stroke:#181818;stroke-width:0.5;" width="252.4414" x="15.418" y="590.3477"/><text fill="#000000" font-family="sans-serif" font-size="12" lengthAdjust="spacing" textLength="232.4414" x="25.418" y="611.4863">&#1573;&#1580;&#1585;&#1575;&#1569; &#1575;&#1604;&#1573;&#1589;&#1604;&#1575;&#1581;&#1575;&#1578; &#1575;&#1604;&#1604;&#1575;&#1586;&#1605;&#1577; (&#1604;&#1581;&#1575;&#1605;&#1548; &#1578;&#1594;&#1610;&#1610;&#1585; &#1602;&#1591;&#1593; &#1594;&#1610;&#1575;&#1585;)</text><polygon fill="#F1F1F1" points="72.1179,541.9453,211.1594,541.9453,223.1594,553.9453,211.1594,565.9453,72.1179,565.9453,60.1179,553.9453,72.1179,541.9453" style="stroke:#181818;stroke-width:0.5;"/><text fill="#000000" font-family="sans-serif" font-size="11" lengthAdjust="spacing" textLength="15.689" x="145.6387" y="576.1558">&#1606;&#1593;&#1605;</text><text fill="#000000" font-family="sans-serif" font-size="11" lengthAdjust="spacing" textLength="139.0415" x="72.1179" y="557.7534">&#1575;&#1603;&#1578;&#1588;&#1575;&#1601; &#1578;&#1587;&#1585;&#1610;&#1576; &#1571;&#1608; &#1593;&#1591;&#1604; &#1603;&#1576;&#1610;&#1585;&#1567;</text><text fill="#000000" font-family="sans-serif" font-size="11" lengthAdjust="spacing" textLength="6.2734" x="223.1594" y="551.3511">&#1604;&#1575;</text><polygon fill="#F1F1F1" points="141.6387,644.3164,153.6387,656.3164,141.6387,668.3164,129.6387,656.3164,141.6387,644.3164" style="stroke:#181818;stroke-width:0.5;"/><text fill="#000000" font-family="sans-serif" font-size="11" lengthAdjust="spacing" textLength="23.0313" x="153.6387" y="653.7222">&#1575;&#1606;&#1578;&#1607;&#1575;&#1569;</text><ellipse cx="141.6387" cy="699.3164" fill="none" rx="11" ry="11" style="stroke:#222222;stroke-width:1;"/><ellipse cx="141.6387" cy="699.3164" fill="#222222" rx="6" ry="6" style="stroke:#222222;stroke-width:1;"/><line style="stroke:#181818;stroke-width:1;" x1="141.6387" x2="141.6387" y1="67.2969" y2="87.2969"/><polygon fill="#181818" points="137.6387,77.2969,141.6387,87.2969,145.6387,77.2969,141.6387,81.2969" style="stroke:#181818;stroke-width:1;"/><line style="stroke:#181818;stroke-width:1;" x1="141.6387" x2="141.6387" y1="165.2656" y2="189.668"/><polygon fill="#181818" points="137.6387,179.668,141.6387,189.668,145.6387,179.668,141.6387,183.668" style="stroke:#181818;stroke-width:1;"/><line style="stroke:#181818;stroke-width:1;" x1="224.29" x2="282.2773" y1="153.2656" y2="153.2656"/><polygon fill="#181818" points="278.2773,196.6523,282.2773,206.6523,286.2773,196.6523,282.2773,200.6523" style="stroke:#181818;stroke-width:1;"/><line style="stroke:#181818;stroke-width:1;" x1="282.2773" x2="282.2773" y1="153.2656" y2="255.6367"/><line style="stroke:#181818;stroke-width:1;" x1="282.2773" x2="153.6387" y1="255.6367" y2="255.6367"/><polygon fill="#181818" points="163.6387,251.6367,153.6387,255.6367,163.6387,259.6367,159.6387,255.6367" style="stroke:#181818;stroke-width:1;"/><line style="stroke:#181818;stroke-width:1;" x1="141.6387" x2="141.6387" y1="223.6367" y2="243.6367"/><polygon fill="#181818" points="137.6387,233.6367,141.6387,243.6367,145.6387,233.6367,141.6387,237.6367" style="stroke:#181818;stroke-width:1;"/><line style="stroke:#181818;stroke-width:1;" x1="141.6387" x2="141.6387" y1="121.2656" y2="141.2656"/><polygon fill="#181818" points="137.6387,131.2656,141.6387,141.2656,145.6387,131.2656,141.6387,135.2656" style="stroke:#181818;stroke-width:1;"/><line style="stroke:#181818;stroke-width:1;" x1="141.6387" x2="141.6387" y1="267.6367" y2="287.6367"/><polygon fill="#181818" points="137.6387,277.6367,141.6387,287.6367,145.6387,277.6367,141.6387,281.6367" style="stroke:#181818;stroke-width:1;"/><line style="stroke:#181818;stroke-width:1;" x1="141.6387" x2="141.6387" y1="365.6055" y2="390.0078"/><polygon fill="#181818" points="137.6387,380.0078,141.6387,390.0078,145.6387,380.0078,141.6387,384.0078" style="stroke:#181818;stroke-width:1;"/><line style="stroke:#181818;stroke-width:1;" x1="210.2742" x2="273.6523" y1="353.6055" y2="353.6055"/><polygon fill="#181818" points="269.6523,396.9922,273.6523,406.9922,277.6523,396.9922,273.6523,400.9922" style="stroke:#181818;stroke-width:1;"/><line style="stroke:#181818;stroke-width:1;" x1="273.6523" x2="273.6523" y1="353.6055" y2="455.9766"/><line style="stroke:#181818;stroke-width:1;" x1="273.6523" x2="153.6387" y1="455.9766" y2="455.9766"/><polygon fill="#181818" points="163.6387,451.9766,153.6387,455.9766,163.6387,459.9766,159.6387,455.9766" style="stroke:#181818;stroke-width:1;"/><line style="stroke:#181818;stroke-width:1;" x1="141.6387" x2="141.6387" y1="423.9766" y2="443.9766"/><polygon fill="#181818" points="137.6387,433.9766,141.6387,443.9766,145.6387,433.9766,141.6387,437.9766" style="stroke:#181818;stroke-width:1;"/><line style="stroke:#181818;stroke-width:1;" x1="141.6387" x2="141.6387" y1="321.6055" y2="341.6055"/><polygon fill="#181818" points="137.6387,331.6055,141.6387,341.6055,145.6387,331.6055,141.6387,335.6055" style="stroke:#181818;stroke-width:1;"/><line style="stroke:#181818;stroke-width:1;" x1="141.6387" x2="141.6387" y1="467.9766" y2="487.9766"/><polygon fill="#181818" points="137.6387,477.9766,141.6387,487.9766,145.6387,477.9766,141.6387,481.9766" style="stroke:#181818;stroke-width:1;"/><line style="stroke:#181818;stroke-width:1;" x1="141.6387" x2="141.6387" y1="565.9453" y2="590.3477"/><polygon fill="#181818" points="137.6387,580.3477,141.6387,590.3477,145.6387,580.3477,141.6387,584.3477" style="stroke:#181818;stroke-width:1;"/><line style="stroke:#181818;stroke-width:1;" x1="223.1594" x2="277.8594" y1="553.9453" y2="553.9453"/><polygon fill="#181818" points="273.8594,597.332,277.8594,607.332,281.8594,597.332,277.8594,601.332" style="stroke:#181818;stroke-width:1;"/><line style="stroke:#181818;stroke-width:1;" x1="277.8594" x2="277.8594" y1="553.9453" y2="656.3164"/><line style="stroke:#181818;stroke-width:1;" x1="277.8594" x2="153.6387" y1="656.3164" y2="656.3164"/><polygon fill="#181818" points="163.6387,652.3164,153.6387,656.3164,163.6387,660.3164,159.6387,656.3164" style="stroke:#181818;stroke-width:1;"/><line style="stroke:#181818;stroke-width:1;" x1="141.6387" x2="141.6387" y1="624.3164" y2="644.3164"/><polygon fill="#181818" points="137.6387,634.3164,141.6387,644.3164,145.6387,634.3164,141.6387,638.3164" style="stroke:#181818;stroke-width:1;"/><line style="stroke:#181818;stroke-width:1;" x1="141.6387" x2="141.6387" y1="521.9453" y2="541.9453"/><polygon fill="#181818" points="137.6387,531.9453,141.6387,541.9453,145.6387,531.9453,141.6387,535.9453" style="stroke:#181818;stroke-width:1;"/><line style="stroke:#181818;stroke-width:1;" x1="141.6387" x2="141.6387" y1="668.3164" y2="688.3164"/><polygon fill="#181818" points="137.6387,678.3164,141.6387,688.3164,145.6387,678.3164,141.6387,682.3164" style="stroke:#181818;stroke-width:1;"/><?plantuml-src VLD9Ri9G3Dt_KtW9YwfxaBhkDIerb4W84EG2WGHGr3jK5QAGY4410gKdyRzDdqr8Kpeialp1zXliUAxNSiY6lEOZ7uap6_7SZZWcV0ASxtZE2ruHNalUS6nCttleUSRKEE4LRn2_8ImGNKwIb8hrSP59QiOf0f_93craGy7WDnjLwwRTyHpgkKzDp-1qZxk0AbfbY6V2APAqzWfN4pu0etkVdzc1X20jhXgd_KXIonYt0U0nok0rGjXGsO5yJ2YJy4auo_KtAlnI9Q_fj94xufCDguQenZC0pg7Y8WmCvYBtpA-SdaS4s6vXG8mw9G4WZqfOp12nXcodrNSGWd01khb3DanB49PYbTP5ZzjGay7d7L3-bRVmoaVBn5BUw-8wr5Ss2QV0-tAbkCA5i4v4hPmlGDX7mYl79JDoXhMybH1KJCXj2L0ME0sloujXolg00GEPGdbXyZ_QB-EpbyhICV5tYavkXUQb9H4C01_vQX_Ea6eJciznBbutYTRoHVLE9t91FBKJmb0STIJWGWGQVmp3KXcUaR7Dr60PhkHdzmFz9qBj2t-07UgI7Q1J9vAzIFrz482PsB405LRqlKxt4m00?></g></svg>