<svg xmlns="http://www.w3.org/2000/svg" xmlns:xlink="http://www.w3.org/1999/xlink" contentStyleType="text/css" data-diagram-type="ACTIVITY" height="878px" preserveAspectRatio="none" style="width:442px;height:878px;background:#FFFFFF;" version="1.1" viewBox="0 0 442 878" width="442px" zoomAndPan="magnify"><title>&#1604;&#1608;&#1581;&#1575;&#1578; &#1578;&#1581;&#1603;&#1605; &#1575;&#1604;&#1590;&#1594;&#1591; &#1575;&#1604;&#1571;&#1608;&#1578;&#1608;&#1605;&#1575;&#1578;&#1610;&#1603;&#1610;&#1577; - &#1585;&#1608;&#1575;&#1574;&#1593; &#1575;&#1604;&#1603;&#1585;&#1610;&#1587;&#1578;&#1575;&#1604;</title><defs/><g><g class="title" data-source-line="1"><text fill="#000000" font-family="'Arial'" font-size="14" font-weight="bold" lengthAdjust="spacing" textLength="350.916" x="44.2825" y="32.9951">&#1604;&#1608;&#1581;&#1575;&#1578; &#1578;&#1581;&#1603;&#1605; &#1575;&#1604;&#1590;&#1594;&#1591; &#1575;&#1604;&#1571;&#1608;&#1578;&#1608;&#1605;&#1575;&#1578;&#1610;&#1603;&#1610;&#1577; - &#1585;&#1608;&#1575;&#1574;&#1593; &#1575;&#1604;&#1603;&#1585;&#1610;&#1587;&#1578;&#1575;&#1604;</text></g><ellipse cx="239.5609" cy="57.2969" fill="#222222" rx="10" ry="10" style="stroke:#222222;stroke-width:1;"/><rect fill="#FEFECE" height="33.9688" rx="12.5" ry="12.5" style="stroke:#A80036;stroke-width:0.5;" width="130.4961" x="174.3129" y="87.2969"/><text fill="#000000" font-family="'Arial'" font-size="12" lengthAdjust="spacing" textLength="110.4961" x="184.3129" y="108.4355">&#1605;&#1589;&#1583;&#1585; &#1575;&#1604;&#1591;&#1575;&#1602;&#1577; &#1575;&#1604;&#1585;&#1574;&#1610;&#1587;&#1610;</text><rect fill="none" height="493.8198" style="stroke:#000000;stroke-width:1.5;" width="420.481" x="11" y="131.2656"/><path d="M151.5117,131.2656 L151.5117,140.5625 L141.5117,150.5625 L11,150.5625" fill="none" style="stroke:#000000;stroke-width:1.5;"/><text fill="#000000" font-family="'Arial'" font-size="14" lengthAdjust="spacing" textLength="130.5117" x="14" y="145.2607">&#1608;&#1581;&#1583;&#1577; &#1575;&#1604;&#1578;&#1581;&#1603;&#1605; &#1608;&#1575;&#1604;&#1605;&#1585;&#1575;&#1602;&#1576;&#1577;</text><rect fill="#FEFECE" height="33.9688" rx="12.5" ry="12.5" style="stroke:#A80036;stroke-width:0.5;" width="214.168" x="132.4769" y="167.5625"/><text fill="#000000" font-family="'Arial'" font-size="12" lengthAdjust="spacing" textLength="194.168" x="142.4769" y="188.7012">&#1602;&#1585;&#1575;&#1569;&#1577; &#1605;&#1587;&#1578;&#1608;&#1609; &#1575;&#1604;&#1590;&#1594;&#1591; (&#1581;&#1587;&#1575;&#1587; &#1575;&#1604;&#1590;&#1594;&#1591;)</text><polygon fill="#FEFECE" points="166.4469,221.5313,312.6749,221.5313,324.6749,233.5313,312.6749,245.5313,166.4469,245.5313,154.4469,233.5313,166.4469,221.5313" style="stroke:#A80036;stroke-width:0.5;"/><text fill="#000000" font-family="'Arial'" font-size="11" lengthAdjust="spacing" textLength="146.228" x="166.4469" y="237.3394">&#1607;&#1604; &#1575;&#1604;&#1590;&#1594;&#1591; &#1571;&#1602;&#1604; &#1605;&#1606; &#1575;&#1604;&#1581;&#1583; &#1575;&#1604;&#1571;&#1583;&#1606;&#1609;&#1567;</text><text fill="#000000" font-family="'Arial'" font-size="11" lengthAdjust="spacing" textLength="15.689" x="138.7579" y="230.937">&#1606;&#1593;&#1605;</text><text fill="#000000" font-family="'Arial'" font-size="11" lengthAdjust="spacing" textLength="6.2734" x="324.6749" y="230.937">&#1604;&#1575;</text><rect fill="#FEFECE" height="33.9688" rx="12.5" ry="12.5" style="stroke:#A80036;stroke-width:0.5;" width="152.7793" x="60.051" y="255.5313"/><text fill="#000000" font-family="'Arial'" font-size="12" lengthAdjust="spacing" textLength="132.7793" x="70.051" y="276.6699">&#1573;&#1585;&#1587;&#1575;&#1604; &#1573;&#1588;&#1575;&#1585;&#1577; &#1604;&#1604;&#1608;&#1581;&#1577; &#1575;&#1604;&#1578;&#1581;&#1603;&#1605;</text><rect fill="#FEFECE" height="33.9688" rx="12.5" ry="12.5" style="stroke:#A80036;stroke-width:0.5;" width="136.8008" x="68.0403" y="309.5"/><text fill="#000000" font-family="'Arial'" font-size="12" lengthAdjust="spacing" textLength="116.8008" x="78.0403" y="330.6387">&#1578;&#1601;&#1593;&#1610;&#1604; &#1575;&#1604;&#1581;&#1605;&#1575;&#1610;&#1577; &#1575;&#1604;&#1603;&#1607;&#1585;&#1576;&#1575;&#1574;&#1610;&#1577;</text><rect fill="#FEFECE" height="33.9688" rx="12.5" ry="12.5" style="stroke:#A80036;stroke-width:0.5;" width="148.3027" x="62.2893" y="363.4688"/><text fill="#000000" font-family="'Arial'" font-size="12" lengthAdjust="spacing" textLength="128.3027" x="72.2893" y="384.6074">&#1578;&#1588;&#1594;&#1610;&#1604; &#1575;&#1604;&#1605;&#1590;&#1582;&#1577; &#1571;&#1608;&#1578;&#1608;&#1605;&#1575;&#1578;&#1610;&#1603;&#1610;&#1575;&#1611;</text><rect fill="#FEFECE" height="33.9688" rx="12.5" ry="12.5" style="stroke:#A80036;stroke-width:0.5;" width="120.5938" x="76.1438" y="473.1479"/><text fill="#000000" font-family="'Arial'" font-size="12" lengthAdjust="spacing" textLength="100.5938" x="86.1438" y="494.2866">&#1575;&#1587;&#1578;&#1605;&#1585;&#1575;&#1585; &#1593;&#1605;&#1604;&#1610;&#1577; &#1575;&#1604;&#1590;&#1582;</text><polygon fill="#FEFECE" points="51,417.4375,221.8813,417.4375,233.8813,429.4375,221.8813,441.4375,51,441.4375,39,429.4375,51,417.4375" style="stroke:#A80036;stroke-width:0.5;"/><text fill="#000000" font-family="'Arial'" font-size="11" lengthAdjust="spacing" textLength="6.2734" x="140.4407" y="451.6479">&#1604;&#1575;</text><text fill="#000000" font-family="'Arial'" font-size="11" lengthAdjust="spacing" textLength="170.8813" x="51" y="433.2456">&#1607;&#1604; &#1608;&#1589;&#1604; &#1575;&#1604;&#1590;&#1594;&#1591; &#1604;&#1604;&#1605;&#1587;&#1578;&#1608;&#1609; &#1575;&#1604;&#1605;&#1591;&#1604;&#1608;&#1576;&#1567;</text><text fill="#000000" font-family="'Arial'" font-size="11" lengthAdjust="spacing" textLength="15.689" x="23.311" y="426.8433">&#1606;&#1593;&#1605;</text><rect fill="#FEFECE" height="33.9688" rx="12.5" ry="12.5" style="stroke:#A80036;stroke-width:0.5;" width="144.5996" x="64.1409" y="549.1167"/><text fill="#000000" font-family="'Arial'" font-size="12" lengthAdjust="spacing" textLength="124.5996" x="74.1409" y="570.2554">&#1573;&#1610;&#1602;&#1575;&#1601; &#1575;&#1604;&#1605;&#1590;&#1582;&#1577; &#1571;&#1608;&#1578;&#1608;&#1605;&#1575;&#1578;&#1610;&#1603;&#1610;&#1575;&#1611;</text><rect fill="#FEFECE" height="33.9688" rx="12.5" ry="12.5" style="stroke:#A80036;stroke-width:0.5;" width="153.5996" x="265.8813" y="255.5313"/><text fill="#000000" font-family="'Arial'" font-size="12" lengthAdjust="spacing" textLength="133.5996" x="275.8813" y="276.6699">&#1608;&#1590;&#1593; &#1575;&#1604;&#1575;&#1587;&#1578;&#1593;&#1583;&#1575;&#1583; (Standby)</text><polygon fill="#FEFECE" points="239.5609,589.0854,251.5609,601.0854,239.5609,613.0854,227.5609,601.0854,239.5609,589.0854" style="stroke:#A80036;stroke-width:0.5;"/><rect fill="none" height="136.2344" style="stroke:#000000;stroke-width:1.5;" width="204.8359" x="137.1429" y="635.0854"/><path d="M227.4174,635.0854 L227.4174,644.3823 L217.4174,654.3823 L137.1429,654.3823" fill="none" style="stroke:#000000;stroke-width:1.5;"/><text fill="#000000" font-family="'Arial'" font-size="14" lengthAdjust="spacing" textLength="80.2744" x="140.1429" y="649.0806">&#1571;&#1606;&#1592;&#1605;&#1577; &#1575;&#1604;&#1581;&#1605;&#1575;&#1610;&#1577;</text><rect fill="#FEFECE" height="33.9688" rx="12.5" ry="12.5" style="stroke:#A80036;stroke-width:0.5;" width="184.8359" x="147.1429" y="671.3823"/><text fill="#000000" font-family="'Arial'" font-size="12" lengthAdjust="spacing" textLength="164.8359" x="157.1429" y="692.521">&#1605;&#1585;&#1575;&#1602;&#1576;&#1577; &#1575;&#1604;&#1581;&#1605;&#1604; &#1575;&#1604;&#1586;&#1575;&#1574;&#1583; (Overload)</text><rect fill="#FEFECE" height="33.9688" rx="12.5" ry="12.5" style="stroke:#A80036;stroke-width:0.5;" width="145.4375" x="166.8422" y="725.3511"/><text fill="#000000" font-family="'Arial'" font-size="12" lengthAdjust="spacing" textLength="125.4375" x="176.8422" y="746.4897">&#1581;&#1605;&#1575;&#1610;&#1577; &#1605;&#1606; &#1575;&#1604;&#1578;&#1588;&#1594;&#1610;&#1604; &#1575;&#1604;&#1580;&#1575;&#1601;</text><rect fill="#FEFECE" height="33.9688" rx="12.5" ry="12.5" style="stroke:#A80036;stroke-width:0.5;" width="128.2051" x="175.4584" y="791.3198"/><text fill="#000000" font-family="'Arial'" font-size="12" lengthAdjust="spacing" textLength="108.2051" x="185.4584" y="812.4585">&#1575;&#1587;&#1578;&#1602;&#1585;&#1575;&#1585; &#1590;&#1594;&#1591; &#1575;&#1604;&#1588;&#1576;&#1603;&#1577;</text><ellipse cx="239.5609" cy="856.2886" fill="none" rx="11" ry="11" style="stroke:#222222;stroke-width:1;"/><ellipse cx="239.5609" cy="856.2886" fill="#222222" rx="6" ry="6" style="stroke:#222222;stroke-width:1;"/><line style="stroke:#181818;stroke-width:1;" x1="239.5609" x2="239.5609" y1="67.2969" y2="87.2969"/><polygon fill="#181818" points="235.5609,77.2969,239.5609,87.2969,243.5609,77.2969,239.5609,81.2969" style="stroke:#181818;stroke-width:1;"/><line style="stroke:#181818;stroke-width:1;" x1="136.4407" x2="136.4407" y1="289.5" y2="309.5"/><polygon fill="#181818" points="132.4407,299.5,136.4407,309.5,140.4407,299.5,136.4407,303.5" style="stroke:#181818;stroke-width:1;"/><line style="stroke:#181818;stroke-width:1;" x1="136.4407" x2="136.4407" y1="343.4688" y2="363.4688"/><polygon fill="#181818" points="132.4407,353.4688,136.4407,363.4688,140.4407,353.4688,136.4407,357.4688" style="stroke:#181818;stroke-width:1;"/><line style="stroke:#181818;stroke-width:1;" x1="136.4407" x2="136.4407" y1="441.4375" y2="473.1479"/><polygon fill="#181818" points="132.4407,463.1479,136.4407,473.1479,140.4407,463.1479,136.4407,467.1479" style="stroke:#181818;stroke-width:1;"/><line style="stroke:#181818;stroke-width:1;" x1="136.4407" x2="136.4407" y1="507.1167" y2="517.1167"/><line style="stroke:#181818;stroke-width:1;" x1="136.4407" x2="245.8813" y1="517.1167" y2="517.1167"/><polygon fill="#181818" points="241.8813,481.73,245.8813,471.73,249.8813,481.73,245.8813,477.73" style="stroke:#181818;stroke-width:1;"/><line style="stroke:#181818;stroke-width:1;" x1="245.8813" x2="245.8813" y1="429.4375" y2="517.1167"/><line style="stroke:#181818;stroke-width:1;" x1="245.8813" x2="233.8813" y1="429.4375" y2="429.4375"/><polygon fill="#181818" points="243.8813,425.4375,233.8813,429.4375,243.8813,433.4375,239.8813,429.4375" style="stroke:#181818;stroke-width:1;"/><line style="stroke:#181818;stroke-width:1;" x1="39" x2="27" y1="429.4375" y2="429.4375"/><polygon fill="#181818" points="23,467.73,27,477.73,31,467.73,27,471.73" style="stroke:#181818;stroke-width:1;"/><line style="stroke:#181818;stroke-width:1;" x1="27" x2="27" y1="429.4375" y2="529.1167"/><line style="stroke:#181818;stroke-width:1;" x1="27" x2="136.4407" y1="529.1167" y2="529.1167"/><line style="stroke:#181818;stroke-width:1;" x1="136.4407" x2="136.4407" y1="529.1167" y2="549.1167"/><polygon fill="#181818" points="132.4407,539.1167,136.4407,549.1167,140.4407,539.1167,136.4407,543.1167" style="stroke:#181818;stroke-width:1;"/><line style="stroke:#181818;stroke-width:1;" x1="136.4407" x2="136.4407" y1="397.4375" y2="417.4375"/><polygon fill="#181818" points="132.4407,407.4375,136.4407,417.4375,140.4407,407.4375,136.4407,411.4375" style="stroke:#181818;stroke-width:1;"/><line style="stroke:#181818;stroke-width:1;" x1="154.4469" x2="136.4407" y1="233.5313" y2="233.5313"/><line style="stroke:#181818;stroke-width:1;" x1="136.4407" x2="136.4407" y1="233.5313" y2="255.5313"/><polygon fill="#181818" points="132.4407,245.5313,136.4407,255.5313,140.4407,245.5313,136.4407,249.5313" style="stroke:#181818;stroke-width:1;"/><line style="stroke:#181818;stroke-width:1;" x1="324.6749" x2="342.6812" y1="233.5313" y2="233.5313"/><line style="stroke:#181818;stroke-width:1;" x1="342.6812" x2="342.6812" y1="233.5313" y2="255.5313"/><polygon fill="#181818" points="338.6812,245.5313,342.6812,255.5313,346.6812,245.5313,342.6812,249.5313" style="stroke:#181818;stroke-width:1;"/><line style="stroke:#181818;stroke-width:1;" x1="136.4407" x2="136.4407" y1="583.0854" y2="601.0854"/><line style="stroke:#181818;stroke-width:1;" x1="136.4407" x2="227.5609" y1="601.0854" y2="601.0854"/><polygon fill="#181818" points="217.5609,597.0854,227.5609,601.0854,217.5609,605.0854,221.5609,601.0854" style="stroke:#181818;stroke-width:1;"/><line style="stroke:#181818;stroke-width:1;" x1="342.6812" x2="342.6812" y1="289.5" y2="601.0854"/><line style="stroke:#181818;stroke-width:1;" x1="342.6812" x2="251.5609" y1="601.0854" y2="601.0854"/><polygon fill="#181818" points="261.5609,597.0854,251.5609,601.0854,261.5609,605.0854,257.5609,601.0854" style="stroke:#181818;stroke-width:1;"/><line style="stroke:#181818;stroke-width:1;" x1="239.5609" x2="239.5609" y1="201.5313" y2="221.5313"/><polygon fill="#181818" points="235.5609,211.5313,239.5609,221.5313,243.5609,211.5313,239.5609,215.5313" style="stroke:#181818;stroke-width:1;"/><line style="stroke:#181818;stroke-width:1;" x1="239.5609" x2="239.5609" y1="121.2656" y2="167.5625"/><polygon fill="#181818" points="235.5609,157.5625,239.5609,167.5625,243.5609,157.5625,239.5609,161.5625" style="stroke:#181818;stroke-width:1;"/><line style="stroke:#181818;stroke-width:1;" x1="239.5609" x2="239.5609" y1="705.3511" y2="725.3511"/><polygon fill="#181818" points="235.5609,715.3511,239.5609,725.3511,243.5609,715.3511,239.5609,719.3511" style="stroke:#181818;stroke-width:1;"/><line style="stroke:#181818;stroke-width:1;" x1="239.5609" x2="239.5609" y1="613.0854" y2="671.3823"/><polygon fill="#181818" points="235.5609,661.3823,239.5609,671.3823,243.5609,661.3823,239.5609,665.3823" style="stroke:#181818;stroke-width:1;"/><line style="stroke:#181818;stroke-width:1;" x1="239.5609" x2="239.5609" y1="759.3198" y2="791.3198"/><polygon fill="#181818" points="235.5609,781.3198,239.5609,791.3198,243.5609,781.3198,239.5609,785.3198" style="stroke:#181818;stroke-width:1;"/><line style="stroke:#181818;stroke-width:1;" x1="239.5609" x2="239.5609" y1="825.2886" y2="845.2886"/><polygon fill="#181818" points="235.5609,835.2886,239.5609,845.2886,243.5609,835.2886,239.5609,839.2886" style="stroke:#181818;stroke-width:1;"/></g></svg>