<?plantuml 1.2026.2beta3?><svg xmlns="http://www.w3.org/2000/svg" xmlns:xlink="http://www.w3.org/1999/xlink" contentStyleType="text/css" data-diagram-type="ACTIVITY" height="935px" preserveAspectRatio="none" style="width:427px;height:935px;background:#FFFFFF;" version="1.1" viewBox="0 0 427 935" width="427px" zoomAndPan="magnify"><title>&#1605;&#1582;&#1591;&#1591; &#1573;&#1580;&#1585;&#1575;&#1569;&#1575;&#1578; &#1593;&#1602;&#1608;&#1583; &#1589;&#1610;&#1575;&#1606;&#1577; &#1575;&#1604;&#1605;&#1590;&#1582;&#1575;&#1578; - &#1585;&#1608;&#1575;&#1574;&#1593; &#1575;&#1604;&#1603;&#1585;&#1610;&#1587;&#1578;&#1575;&#1604;</title><defs/><g><g class="title" data-source-line="5"><text fill="#000000" font-family="'Arial'" font-size="14" font-weight="bold" lengthAdjust="spacing" textLength="384.1455" x="20" y="32.9951">&#1605;&#1582;&#1591;&#1591; &#1573;&#1580;&#1585;&#1575;&#1569;&#1575;&#1578; &#1593;&#1602;&#1608;&#1583; &#1589;&#1610;&#1575;&#1606;&#1577; &#1575;&#1604;&#1605;&#1590;&#1582;&#1575;&#1578; - &#1585;&#1608;&#1575;&#1574;&#1593; &#1575;&#1604;&#1603;&#1585;&#1610;&#1587;&#1578;&#1575;&#1604;</text></g><ellipse cx="213.5728" cy="57.2969" fill="#222222" rx="10" ry="10" style="stroke:#222222;stroke-width:1;"/><rect fill="#F1F1F1" height="33.9688" rx="12.5" ry="12.5" style="stroke:#181818;stroke-width:0.5;" width="159.4648" x="133.8403" y="87.2969"/><text fill="#000000" font-family="'Arial'" font-size="12" lengthAdjust="spacing" textLength="139.4648" x="143.8403" y="108.4355">&#1591;&#1604;&#1576; &#1582;&#1583;&#1605;&#1577; &#1589;&#1610;&#1575;&#1606;&#1577; (&#1605;&#1590;&#1582;&#1575;&#1578;)</text><rect fill="#F1F1F1" height="33.9688" rx="12.5" ry="12.5" style="stroke:#181818;stroke-width:0.5;" width="153.8633" x="136.6411" y="141.2656"/><text fill="#000000" font-family="'Arial'" font-size="12" lengthAdjust="spacing" textLength="133.8633" x="146.6411" y="162.4043">&#1575;&#1604;&#1605;&#1593;&#1575;&#1610;&#1606;&#1577; &#1575;&#1604;&#1601;&#1606;&#1610;&#1577; &#1608;&#1578;&#1602;&#1610;&#1610;&#1605; &#1575;&#1604;&#1581;&#1575;&#1604;&#1577;</text><rect fill="none" height="176.2344" style="stroke:#000000;stroke-width:1.5;" width="321.9805" x="52.5825" y="185.2344"/><path d="M151.8325,185.2344 L151.8325,194.5313 L141.8325,204.5313 L52.5825,204.5313" fill="none" style="stroke:#000000;stroke-width:1.5;"/><text fill="#000000" font-family="'Arial'" font-size="14" lengthAdjust="spacing" textLength="89.25" x="55.5825" y="199.2295">&#1578;&#1581;&#1583;&#1610;&#1583; &#1606;&#1608;&#1593; &#1575;&#1604;&#1593;&#1602;&#1583;</text><line style="stroke:#181818;stroke-width:1.5;" x1="135.9243" x2="298.9146" y1="221.5313" y2="221.5313"/><rect fill="#F1F1F1" height="33.9688" rx="12.5" ry="12.5" style="stroke:#181818;stroke-width:0.5;" width="109.291" x="81.2788" y="241.5313"/><text fill="#000000" font-family="'Arial'" font-size="12" lengthAdjust="spacing" textLength="89.291" x="91.2788" y="262.6699">&#1593;&#1602;&#1608;&#1583; &#1589;&#1610;&#1575;&#1606;&#1577; &#1587;&#1606;&#1608;&#1610;&#1577;</text><rect fill="#F1F1F1" height="33.9688" rx="12.5" ry="12.5" style="stroke:#181818;stroke-width:0.5;" width="142.6836" x="64.5825" y="295.5"/><text fill="#000000" font-family="'Arial'" font-size="12" lengthAdjust="spacing" textLength="122.6836" x="74.5825" y="316.6387">&#1578;&#1594;&#1591;&#1610;&#1577; &#1588;&#1575;&#1605;&#1604;&#1577; &#1591;&#1608;&#1575;&#1604; &#1575;&#1604;&#1593;&#1575;&#1605;</text><rect fill="#F1F1F1" height="33.9688" rx="12.5" ry="12.5" style="stroke:#181818;stroke-width:0.5;" width="127.2969" x="235.2661" y="241.5313"/><text fill="#000000" font-family="'Arial'" font-size="12" lengthAdjust="spacing" textLength="107.2969" x="245.2661" y="262.6699">&#1589;&#1610;&#1575;&#1606;&#1577; &#1583;&#1608;&#1585;&#1610;&#1577; (&#1605;&#1580;&#1583;&#1608;&#1604;&#1577;)</text><rect fill="#F1F1F1" height="33.9688" rx="12.5" ry="12.5" style="stroke:#181818;stroke-width:0.5;" width="121.5313" x="238.1489" y="295.5"/><text fill="#000000" font-family="'Arial'" font-size="12" lengthAdjust="spacing" textLength="101.5313" x="248.1489" y="316.6387">&#1586;&#1610;&#1575;&#1585;&#1575;&#1578; &#1608;&#1602;&#1575;&#1574;&#1610;&#1577; &#1605;&#1581;&#1583;&#1583;&#1577;</text><line style="stroke:#181818;stroke-width:1.5;" x1="135.9243" x2="298.9146" y1="349.4688" y2="349.4688"/><rect fill="#F1F1F1" height="33.9688" rx="12.5" ry="12.5" style="stroke:#181818;stroke-width:0.5;" width="190.748" x="118.1987" y="381.4688"/><text fill="#000000" font-family="'Arial'" font-size="12" lengthAdjust="spacing" textLength="170.748" x="128.1987" y="402.6074">&#1578;&#1608;&#1602;&#1610;&#1593; &#1575;&#1604;&#1593;&#1602;&#1583; &#1608;&#1575;&#1593;&#1578;&#1605;&#1575;&#1583; &#1575;&#1604;&#1580;&#1583;&#1608;&#1604; &#1575;&#1604;&#1586;&#1605;&#1606;&#1610;</text><rect fill="none" height="190.2031" style="stroke:#000000;stroke-width:1.5;" width="234.1973" x="96.4741" y="425.4375"/><path d="M245.6538,425.4375 L245.6538,434.7344 L235.6538,444.7344 L96.4741,444.7344" fill="none" style="stroke:#000000;stroke-width:1.5;"/><text fill="#000000" font-family="'Arial'" font-size="14" lengthAdjust="spacing" textLength="139.1797" x="99.4741" y="439.4326">&#1593;&#1605;&#1604;&#1610;&#1575;&#1578; &#1575;&#1604;&#1589;&#1610;&#1575;&#1606;&#1577; &#1575;&#1604;&#1605;&#1610;&#1583;&#1575;&#1606;&#1610;&#1577;</text><rect fill="#F1F1F1" height="33.9688" rx="12.5" ry="12.5" style="stroke:#181818;stroke-width:0.5;" width="209.6211" x="108.7622" y="461.7344"/><text fill="#000000" font-family="'Arial'" font-size="12" lengthAdjust="spacing" textLength="189.6211" x="118.7622" y="482.873">&#1601;&#1581;&#1589; &#1575;&#1604;&#1605;&#1581;&#1585;&#1603;&#1575;&#1578; &#1608;&#1575;&#1604;&#1578;&#1608;&#1589;&#1610;&#1604;&#1575;&#1578; &#1575;&#1604;&#1603;&#1607;&#1585;&#1576;&#1575;&#1574;&#1610;&#1577;</text><rect fill="#F1F1F1" height="33.9688" rx="12.5" ry="12.5" style="stroke:#181818;stroke-width:0.5;" width="213.6875" x="106.729" y="515.7031"/><text fill="#000000" font-family="'Arial'" font-size="12" lengthAdjust="spacing" textLength="193.6875" x="116.729" y="536.8418">&#1578;&#1606;&#1592;&#1610;&#1601; &#1575;&#1604;&#1601;&#1604;&#1575;&#1578;&#1585; &#1608;&#1575;&#1604;&#1578;&#1571;&#1603;&#1583; &#1605;&#1606; &#1593;&#1583;&#1605; &#1575;&#1604;&#1578;&#1587;&#1585;&#1610;&#1576;</text><rect fill="#F1F1F1" height="33.9688" rx="12.5" ry="12.5" style="stroke:#181818;stroke-width:0.5;" width="214.1973" x="106.4741" y="569.6719"/><text fill="#000000" font-family="'Arial'" font-size="12" lengthAdjust="spacing" textLength="194.1973" x="116.4741" y="590.8105">&#1578;&#1588;&#1581;&#1610;&#1605; &#1575;&#1604;&#1571;&#1580;&#1586;&#1575;&#1569; &#1575;&#1604;&#1605;&#1578;&#1581;&#1585;&#1603;&#1577; &#1608;&#1575;&#1582;&#1578;&#1576;&#1575;&#1585; &#1575;&#1604;&#1590;&#1594;&#1591;</text><rect fill="#F1F1F1" height="33.9688" rx="12.5" ry="12.5" style="stroke:#181818;stroke-width:0.5;" width="137.1172" x="145.0142" y="684.043"/><text fill="#000000" font-family="'Arial'" font-size="12" lengthAdjust="spacing" textLength="117.1172" x="155.0142" y="705.1816">&#1578;&#1594;&#1610;&#1610;&#1585; &#1602;&#1591;&#1593; &#1575;&#1604;&#1594;&#1610;&#1575;&#1585; &#1575;&#1604;&#1571;&#1589;&#1604;&#1610;&#1577;</text><polygon fill="#F1F1F1" points="167.0027,635.6406,260.1428,635.6406,272.1428,647.6406,260.1428,659.6406,167.0027,659.6406,155.0027,647.6406,167.0027,635.6406" style="stroke:#181818;stroke-width:0.5;"/><text fill="#000000" font-family="'Arial'" font-size="11" lengthAdjust="spacing" textLength="15.689" x="217.5728" y="669.8511">&#1606;&#1593;&#1605;</text><text fill="#000000" font-family="'Arial'" font-size="11" lengthAdjust="spacing" textLength="93.1401" x="167.0027" y="651.4487">&#1607;&#1604; &#1610;&#1608;&#1580;&#1583; &#1602;&#1591;&#1593; &#1578;&#1575;&#1604;&#1601;&#1577;&#1567;</text><text fill="#000000" font-family="'Arial'" font-size="11" lengthAdjust="spacing" textLength="6.2734" x="272.1428" y="645.0464">&#1604;&#1575;</text><polygon fill="#F1F1F1" points="213.5728,738.0117,225.5728,750.0117,213.5728,762.0117,201.5728,750.0117,213.5728,738.0117" style="stroke:#181818;stroke-width:0.5;"/><rect fill="#F1F1F1" height="33.9688" rx="12.5" ry="12.5" style="stroke:#181818;stroke-width:0.5;" width="155.1055" x="136.02" y="782.0117"/><text fill="#000000" font-family="'Arial'" font-size="12" lengthAdjust="spacing" textLength="135.1055" x="146.02" y="803.1504">&#1573;&#1589;&#1583;&#1575;&#1585; &#1578;&#1602;&#1585;&#1610;&#1585; &#1575;&#1604;&#1589;&#1610;&#1575;&#1606;&#1577; &#1575;&#1604;&#1583;&#1608;&#1585;&#1610;</text><rect fill="#F1F1F1" height="33.9688" rx="12.5" ry="12.5" style="stroke:#181818;stroke-width:0.5;" width="163.0215" x="132.062" y="835.9805"/><text fill="#000000" font-family="'Arial'" font-size="12" lengthAdjust="spacing" textLength="143.0215" x="142.062" y="857.1191">&#1590;&#1605;&#1575;&#1606; &#1575;&#1587;&#1578;&#1605;&#1585;&#1575;&#1585;&#1610;&#1577; &#1603;&#1601;&#1575;&#1569;&#1577; &#1575;&#1604;&#1590;&#1582;</text><ellipse cx="213.5728" cy="900.9492" fill="none" rx="11" ry="11" style="stroke:#222222;stroke-width:1;"/><ellipse cx="213.5728" cy="900.9492" fill="#222222" rx="6" ry="6" style="stroke:#222222;stroke-width:1;"/><line style="stroke:#181818;stroke-width:1;" x1="213.5728" x2="213.5728" y1="67.2969" y2="87.2969"/><polygon fill="#181818" points="209.5728,77.2969,213.5728,87.2969,217.5728,77.2969,213.5728,81.2969" style="stroke:#181818;stroke-width:1;"/><line style="stroke:#181818;stroke-width:1;" x1="213.5728" x2="213.5728" y1="121.2656" y2="141.2656"/><polygon fill="#181818" points="209.5728,131.2656,213.5728,141.2656,217.5728,131.2656,213.5728,135.2656" style="stroke:#181818;stroke-width:1;"/><line style="stroke:#181818;stroke-width:1;" x1="135.9243" x2="135.9243" y1="275.5" y2="295.5"/><polygon fill="#181818" points="131.9243,285.5,135.9243,295.5,139.9243,285.5,135.9243,289.5" style="stroke:#181818;stroke-width:1;"/><line style="stroke:#181818;stroke-width:1;" x1="298.9146" x2="298.9146" y1="275.5" y2="295.5"/><polygon fill="#181818" points="294.9146,285.5,298.9146,295.5,302.9146,285.5,298.9146,289.5" style="stroke:#181818;stroke-width:1;"/><line style="stroke:#181818;stroke-width:1;" x1="135.9243" x2="135.9243" y1="223.0313" y2="241.5313"/><polygon fill="#181818" points="131.9243,231.5313,135.9243,241.5313,139.9243,231.5313,135.9243,235.5313" style="stroke:#181818;stroke-width:1;"/><line style="stroke:#181818;stroke-width:1;" x1="298.9146" x2="298.9146" y1="223.0313" y2="241.5313"/><polygon fill="#181818" points="294.9146,231.5313,298.9146,241.5313,302.9146,231.5313,298.9146,235.5313" style="stroke:#181818;stroke-width:1;"/><line style="stroke:#181818;stroke-width:1;" x1="135.9243" x2="135.9243" y1="329.4688" y2="349.4688"/><polygon fill="#181818" points="131.9243,339.4688,135.9243,349.4688,139.9243,339.4688,135.9243,343.4688" style="stroke:#181818;stroke-width:1;"/><line style="stroke:#181818;stroke-width:1;" x1="298.9146" x2="298.9146" y1="329.4688" y2="349.4688"/><polygon fill="#181818" points="294.9146,339.4688,298.9146,349.4688,302.9146,339.4688,298.9146,343.4688" style="stroke:#181818;stroke-width:1;"/><line style="stroke:#181818;stroke-width:1;" x1="213.5728" x2="213.5728" y1="175.2344" y2="221.5313"/><polygon fill="#181818" points="209.5728,211.5313,213.5728,221.5313,217.5728,211.5313,213.5728,215.5313" style="stroke:#181818;stroke-width:1;"/><line style="stroke:#181818;stroke-width:1;" x1="213.5728" x2="213.5728" y1="350.9688" y2="381.4688"/><polygon fill="#181818" points="209.5728,371.4688,213.5728,381.4688,217.5728,371.4688,213.5728,375.4688" style="stroke:#181818;stroke-width:1;"/><line style="stroke:#181818;stroke-width:1;" x1="213.5728" x2="213.5728" y1="495.7031" y2="515.7031"/><polygon fill="#181818" points="209.5728,505.7031,213.5728,515.7031,217.5728,505.7031,213.5728,509.7031" style="stroke:#181818;stroke-width:1;"/><line style="stroke:#181818;stroke-width:1;" x1="213.5728" x2="213.5728" y1="549.6719" y2="569.6719"/><polygon fill="#181818" points="209.5728,559.6719,213.5728,569.6719,217.5728,559.6719,213.5728,563.6719" style="stroke:#181818;stroke-width:1;"/><line style="stroke:#181818;stroke-width:1;" x1="213.5728" x2="213.5728" y1="415.4375" y2="461.7344"/><polygon fill="#181818" points="209.5728,451.7344,213.5728,461.7344,217.5728,451.7344,213.5728,455.7344" style="stroke:#181818;stroke-width:1;"/><line style="stroke:#181818;stroke-width:1;" x1="213.5728" x2="213.5728" y1="659.6406" y2="684.043"/><polygon fill="#181818" points="209.5728,674.043,213.5728,684.043,217.5728,674.043,213.5728,678.043" style="stroke:#181818;stroke-width:1;"/><line style="stroke:#181818;stroke-width:1;" x1="272.1428" x2="292.1313" y1="647.6406" y2="647.6406"/><polygon fill="#181818" points="288.1313,691.0273,292.1313,701.0273,296.1313,691.0273,292.1313,695.0273" style="stroke:#181818;stroke-width:1;"/><line style="stroke:#181818;stroke-width:1;" x1="292.1313" x2="292.1313" y1="647.6406" y2="750.0117"/><line style="stroke:#181818;stroke-width:1;" x1="292.1313" x2="225.5728" y1="750.0117" y2="750.0117"/><polygon fill="#181818" points="235.5728,746.0117,225.5728,750.0117,235.5728,754.0117,231.5728,750.0117" style="stroke:#181818;stroke-width:1;"/><line style="stroke:#181818;stroke-width:1;" x1="213.5728" x2="213.5728" y1="718.0117" y2="738.0117"/><polygon fill="#181818" points="209.5728,728.0117,213.5728,738.0117,217.5728,728.0117,213.5728,732.0117" style="stroke:#181818;stroke-width:1;"/><line style="stroke:#181818;stroke-width:1;" x1="213.5728" x2="213.5728" y1="603.6406" y2="635.6406"/><polygon fill="#181818" points="209.5728,625.6406,213.5728,635.6406,217.5728,625.6406,213.5728,629.6406" style="stroke:#181818;stroke-width:1;"/><line style="stroke:#181818;stroke-width:1;" x1="213.5728" x2="213.5728" y1="762.0117" y2="782.0117"/><polygon fill="#181818" points="209.5728,772.0117,213.5728,782.0117,217.5728,772.0117,213.5728,776.0117" style="stroke:#181818;stroke-width:1;"/><line style="stroke:#181818;stroke-width:1;" x1="213.5728" x2="213.5728" y1="815.9805" y2="835.9805"/><polygon fill="#181818" points="209.5728,825.9805,213.5728,835.9805,217.5728,825.9805,213.5728,829.9805" style="stroke:#181818;stroke-width:1;"/><line style="stroke:#181818;stroke-width:1;" x1="213.5728" x2="213.5728" y1="869.9492" y2="889.9492"/><polygon fill="#181818" points="209.5728,879.9492,213.5728,889.9492,217.5728,879.9492,213.5728,883.9492" style="stroke:#181818;stroke-width:1;"/><g class="footer" data-source-line="40"><text fill="#888888" font-family="'Arial'" font-size="10" lengthAdjust="spacing" textLength="165.7617" x="129.1919" y="920.2314">&#1585;&#1608;&#1575;&#1574;&#1593; &#1575;&#1604;&#1603;&#1585;&#1610;&#1587;&#1578;&#1575;&#1604; - &#1581;&#1604;&#1608;&#1604; &#1589;&#1610;&#1575;&#1606;&#1577; &#1575;&#1604;&#1605;&#1590;&#1582;&#1575;&#1578;</text></g><?plantuml-src VLHBZjf05DptALgimY8NmAj8KPQvWvCnn8gnaUbPZR8W30pY4b4qce2j0MG843Z9ysrIrMs3DPh45jZz-dsgwhtsy6iO3_pKx-l8ZtktVY_GVgg65-lxeElVHkP34fkFVZ_GhNTfw4UjXiTDc0QVJPZ4sYG3_FIdn9YahvG9JHJeSY9hESfHovCyIo4B-ObVhkLKVYzdij6oB-UoAAUIQJpkuNz015tUQYdWif1VSd9xOnZcifESAwM6na-DKXqvblUor0ZR83nhfdnppTVsuEagdF2SNqkEoYa2CerYEL3DSK_iZgpiV-Of1R8WH9ejb5-XqXpW4JYhm96GR5hwJcbSmq4K6ll6g_CgsnsZMTXhEEPo1XsYaTzmdB2yXcN66bKXshrh6Utt_31kv6ZKs22miEcen3FNpDXkbjpItROcXmHW0SMT7XCInLqX3EARYjWtgfxJ6OvD_jesx8Iz2PuRjrELTOijE47k5vAUoDJYo9tRowcWt3GGM2rofnm1uBwUcnMOZYiMDWS0CW_UwhJbk7m0qsLDqV4YbQdyWUUe7WWR8iKbapmYDTW1EqQNSwQhZPtLTtd9XBQjhWFq2F9R3dqDCgzWPawfDGn4KpZt0xllKTwmYuuzG3Jacb513NcFr3ft42MJ7srjlWGn7ASKi7s1SEOC4tqLmjHdr-KQrjxA3G62Q1WW0mYt5HeSTjdQ9zbJRhhZH5Y6nMjzgUUBH-l0bbEU1Kye5fmeDtkGVMHFVbRJN7iylib0gMwIc23z_r7dfs05ensYVtql_W80?></g></svg>