<?plantuml 1.2026.2beta3?><svg xmlns="http://www.w3.org/2000/svg" xmlns:xlink="http://www.w3.org/1999/xlink" contentStyleType="text/css" data-diagram-type="ACTIVITY" height="642px" preserveAspectRatio="none" style="width:702px;height:642px;background:#FFFFFF;" version="1.1" viewBox="0 0 702 642" width="702px" zoomAndPan="magnify"><title>&#1601;&#1581;&#1589; &#1608;&#1578;&#1588;&#1594;&#1610;&#1604; &#1575;&#1604;&#1605;&#1590;&#1582;&#1575;&#1578; (Commissioning Flow)</title><defs/><g><g class="title" data-source-line="1"><text fill="#000000" font-family="sans-serif" font-size="14" font-weight="bold" lengthAdjust="spacing" textLength="344.2373" x="177.6118" y="32.9951">&#1601;&#1581;&#1589; &#1608;&#1578;&#1588;&#1594;&#1610;&#1604; &#1575;&#1604;&#1605;&#1590;&#1582;&#1575;&#1578; (Commissioning Flow)</text></g><ellipse cx="429.2666" cy="57.2969" fill="#222222" rx="10" ry="10" style="stroke:#222222;stroke-width:1;"/><rect fill="#ADD8E6" height="38.625" rx="12.5" ry="12.5" style="stroke:#1E90FF;stroke-width:0.5;" width="288.5859" x="284.9736" y="87.2969"/><text fill="#000000" font-family="sans-serif" font-size="16" lengthAdjust="spacing" textLength="268.5859" x="294.9736" y="112.1484">1. &#1575;&#1604;&#1605;&#1585;&#1575;&#1580;&#1593;&#1577; &#1608;&#1575;&#1604;&#1578;&#1581;&#1590;&#1610;&#1585; (&#1575;&#1604;&#1608;&#1579;&#1575;&#1574;&#1602; &#1608;&#1575;&#1604;&#1587;&#1604;&#1575;&#1605;&#1577;)</text><rect fill="#ADD8E6" height="38.625" rx="12.5" ry="12.5" style="stroke:#1E90FF;stroke-width:0.5;" width="345.4531" x="256.54" y="145.9219"/><text fill="#000000" font-family="sans-serif" font-size="16" lengthAdjust="spacing" textLength="325.4531" x="266.54" y="170.7734">2. &#1575;&#1604;&#1601;&#1581;&#1589; &#1575;&#1604;&#1605;&#1610;&#1603;&#1575;&#1606;&#1610;&#1603;&#1610; (&#1575;&#1604;&#1605;&#1581;&#1575;&#1584;&#1575;&#1577;&#1548; &#1575;&#1604;&#1578;&#1579;&#1576;&#1610;&#1578;&#1548; &#1575;&#1604;&#1578;&#1586;&#1610;&#1610;&#1578;)</text><rect fill="#ADD8E6" height="38.625" rx="12.5" ry="12.5" style="stroke:#1E90FF;stroke-width:0.5;" width="249.5938" x="304.4697" y="204.5469"/><text fill="#000000" font-family="sans-serif" font-size="16" lengthAdjust="spacing" textLength="229.5938" x="314.4697" y="229.3984">3. &#1601;&#1581;&#1589; &#1575;&#1604;&#1583;&#1608;&#1575;&#1574;&#1585; &#1575;&#1604;&#1603;&#1607;&#1585;&#1576;&#1575;&#1574;&#1610;&#1577; &#1608;&#1575;&#1604;&#1578;&#1581;&#1603;&#1605;</text><rect fill="#ADD8E6" height="38.625" rx="12.5" ry="12.5" style="stroke:#1E90FF;stroke-width:0.5;" width="288.4688" x="285.0322" y="263.1719"/><text fill="#000000" font-family="sans-serif" font-size="16" lengthAdjust="spacing" textLength="268.4688" x="295.0322" y="288.0234">4. &#1605;&#1604;&#1569; &#1575;&#1604;&#1605;&#1590;&#1582;&#1577; &#1608;&#1573;&#1586;&#1575;&#1604;&#1577; &#1575;&#1604;&#1607;&#1608;&#1575;&#1569; (Priming)</text><rect fill="#ADD8E6" height="38.625" rx="12.5" ry="12.5" style="stroke:#1E90FF;stroke-width:0.5;" width="332.4609" x="263.0361" y="321.7969"/><text fill="#000000" font-family="sans-serif" font-size="16" lengthAdjust="spacing" textLength="312.4609" x="273.0361" y="346.6484">5. &#1575;&#1604;&#1578;&#1588;&#1594;&#1610;&#1604; &#1575;&#1604;&#1571;&#1608;&#1604;&#1610; &#1575;&#1604;&#1602;&#1589;&#1610;&#1585; (&#1575;&#1604;&#1578;&#1581;&#1602;&#1602; &#1605;&#1606; &#1575;&#1604;&#1583;&#1608;&#1585;&#1575;&#1606;)</text><polygon fill="#ADD8E6" points="328.0674,380.4219,530.4658,380.4219,542.4658,392.4219,530.4658,404.4219,328.0674,404.4219,316.0674,392.4219,328.0674,380.4219" style="stroke:#1E90FF;stroke-width:0.5;"/><text fill="#000000" font-family="sans-serif" font-size="16" lengthAdjust="spacing" textLength="202.3984" x="328.0674" y="397.9609">&#1607;&#1604; &#1581;&#1575;&#1604;&#1577; &#1575;&#1604;&#1578;&#1588;&#1594;&#1610;&#1604; &#1575;&#1604;&#1571;&#1608;&#1604;&#1610;&#1577; &#1580;&#1610;&#1583;&#1577;&#1567;</text><text fill="#000000" font-family="sans-serif" font-size="16" lengthAdjust="spacing" textLength="22.8203" x="293.2471" y="388.6484">&#1606;&#1593;&#1605;</text><text fill="#000000" font-family="sans-serif" font-size="16" lengthAdjust="spacing" textLength="9.125" x="542.4658" y="388.6484">&#1604;&#1575;</text><rect fill="#ADD8E6" height="38.625" rx="12.5" ry="12.5" style="stroke:#1E90FF;stroke-width:0.5;" width="372.5469" x="70.4004" y="414.4219"/><text fill="#000000" font-family="sans-serif" font-size="16" lengthAdjust="spacing" textLength="352.5469" x="80.4004" y="439.2734">6. &#1575;&#1582;&#1578;&#1576;&#1575;&#1585; &#1575;&#1604;&#1571;&#1583;&#1575;&#1569; &#1578;&#1581;&#1578; &#1575;&#1604;&#1581;&#1605;&#1604; (&#1575;&#1604;&#1590;&#1594;&#1591;&#1548; &#1575;&#1604;&#1578;&#1583;&#1601;&#1602;&#1548; &#1575;&#1604;&#1575;&#1607;&#1578;&#1586;&#1575;&#1586;)</text><polygon fill="#ADD8E6" points="169.998,473.0469,343.3496,473.0469,355.3496,485.0469,343.3496,497.0469,169.998,497.0469,157.998,485.0469,169.998,473.0469" style="stroke:#1E90FF;stroke-width:0.5;"/><text fill="#000000" font-family="sans-serif" font-size="16" lengthAdjust="spacing" textLength="173.3516" x="169.998" y="490.5859">&#1607;&#1604; &#1578;&#1605; &#1578;&#1581;&#1602;&#1610;&#1602; &#1575;&#1604;&#1605;&#1608;&#1575;&#1589;&#1601;&#1575;&#1578;&#1567;</text><text fill="#000000" font-family="sans-serif" font-size="16" lengthAdjust="spacing" textLength="22.8203" x="135.1777" y="481.2734">&#1606;&#1593;&#1605;</text><text fill="#000000" font-family="sans-serif" font-size="16" lengthAdjust="spacing" textLength="9.125" x="355.3496" y="481.2734">&#1604;&#1575;</text><rect fill="#ADD8E6" height="38.625" rx="12.5" ry="12.5" style="stroke:#1E90FF;stroke-width:0.5;" width="245.7188" x="11" y="507.0469"/><text fill="#000000" font-family="sans-serif" font-size="16" lengthAdjust="spacing" textLength="225.7188" x="21" y="531.8984">7. &#1575;&#1604;&#1578;&#1608;&#1579;&#1610;&#1602; &#1608;&#1575;&#1593;&#1578;&#1605;&#1575;&#1583; &#1575;&#1604;&#1578;&#1588;&#1594;&#1610;&#1604; &#1575;&#1604;&#1606;&#1607;&#1575;&#1574;&#1610;</text><ellipse cx="133.8594" cy="576.6719" fill="none" rx="11" ry="11" style="stroke:#222222;stroke-width:1;"/><ellipse cx="133.8594" cy="576.6719" fill="#222222" rx="6" ry="6" style="stroke:#222222;stroke-width:1;"/><rect fill="#ADD8E6" height="38.625" rx="12.5" ry="12.5" style="stroke:#1E90FF;stroke-width:0.5;" width="205.5391" x="276.7188" y="507.0469"/><text fill="#000000" font-family="sans-serif" font-size="16" lengthAdjust="spacing" textLength="185.5391" x="286.7188" y="531.8984">8. &#1573;&#1580;&#1585;&#1575;&#1569; &#1575;&#1604;&#1578;&#1593;&#1583;&#1610;&#1604;&#1575;&#1578; &#1608;&#1575;&#1604;&#1605;&#1593;&#1575;&#1610;&#1585;&#1577;</text><rect fill="#ADD8E6" height="38.625" rx="12.5" ry="12.5" style="stroke:#1E90FF;stroke-width:0.5;" width="179.2031" x="512.2578" y="414.4219"/><text fill="#000000" font-family="sans-serif" font-size="16" lengthAdjust="spacing" textLength="159.2031" x="522.2578" y="439.2734">&#1578;&#1581;&#1583;&#1610;&#1583; &#1575;&#1604;&#1605;&#1588;&#1603;&#1604;&#1577; &#1608;&#1573;&#1589;&#1604;&#1575;&#1581;&#1607;&#1575;</text><polygon fill="#ADD8E6" points="429.2666,606.5703,441.2666,618.5703,429.2666,630.5703,417.2666,618.5703,429.2666,606.5703" style="stroke:#1E90FF;stroke-width:0.5;"/><text fill="#000000" font-family="sans-serif" font-size="16" lengthAdjust="spacing" textLength="141.3438" x="441.2666" y="614.7969">2. &#1575;&#1604;&#1601;&#1581;&#1589; &#1575;&#1604;&#1605;&#1610;&#1603;&#1575;&#1606;&#1610;&#1603;&#1610;</text><line style="stroke:#333333;stroke-width:1;" x1="429.2666" x2="429.2666" y1="67.2969" y2="87.2969"/><polygon fill="#333333" points="425.2666,77.2969,429.2666,87.2969,433.2666,77.2969,429.2666,81.2969" style="stroke:#333333;stroke-width:1;"/><line style="stroke:#333333;stroke-width:1;" x1="429.2666" x2="429.2666" y1="125.9219" y2="145.9219"/><polygon fill="#333333" points="425.2666,135.9219,429.2666,145.9219,433.2666,135.9219,429.2666,139.9219" style="stroke:#333333;stroke-width:1;"/><line style="stroke:#333333;stroke-width:1;" x1="429.2666" x2="429.2666" y1="184.5469" y2="204.5469"/><polygon fill="#333333" points="425.2666,194.5469,429.2666,204.5469,433.2666,194.5469,429.2666,198.5469" style="stroke:#333333;stroke-width:1;"/><line style="stroke:#333333;stroke-width:1;" x1="429.2666" x2="429.2666" y1="243.1719" y2="263.1719"/><polygon fill="#333333" points="425.2666,253.1719,429.2666,263.1719,433.2666,253.1719,429.2666,257.1719" style="stroke:#333333;stroke-width:1;"/><line style="stroke:#333333;stroke-width:1;" x1="429.2666" x2="429.2666" y1="301.7969" y2="321.7969"/><polygon fill="#333333" points="425.2666,311.7969,429.2666,321.7969,433.2666,311.7969,429.2666,315.7969" style="stroke:#333333;stroke-width:1;"/><line style="stroke:#333333;stroke-width:1;" x1="133.8594" x2="133.8594" y1="545.6719" y2="565.6719"/><polygon fill="#333333" points="129.8594,555.6719,133.8594,565.6719,137.8594,555.6719,133.8594,559.6719" style="stroke:#333333;stroke-width:1;"/><line style="stroke:#333333;stroke-width:1;" x1="157.998" x2="133.8594" y1="485.0469" y2="485.0469"/><line style="stroke:#333333;stroke-width:1;" x1="133.8594" x2="133.8594" y1="485.0469" y2="507.0469"/><polygon fill="#333333" points="129.8594,497.0469,133.8594,507.0469,137.8594,497.0469,133.8594,501.0469" style="stroke:#333333;stroke-width:1;"/><line style="stroke:#333333;stroke-width:1;" x1="355.3496" x2="379.4883" y1="485.0469" y2="485.0469"/><line style="stroke:#333333;stroke-width:1;" x1="379.4883" x2="379.4883" y1="485.0469" y2="507.0469"/><polygon fill="#333333" points="375.4883,497.0469,379.4883,507.0469,383.4883,497.0469,379.4883,501.0469" style="stroke:#333333;stroke-width:1;"/><line style="stroke:#333333;stroke-width:1;" x1="379.4883" x2="379.4883" y1="545.6719" y2="618.5703"/><line style="stroke:#333333;stroke-width:1;" x1="379.4883" x2="417.2666" y1="618.5703" y2="618.5703"/><polygon fill="#333333" points="407.2666,614.5703,417.2666,618.5703,407.2666,622.5703,411.2666,618.5703" style="stroke:#333333;stroke-width:1;"/><line style="stroke:#333333;stroke-width:1;" x1="256.6738" x2="256.6738" y1="453.0469" y2="473.0469"/><polygon fill="#333333" points="252.6738,463.0469,256.6738,473.0469,260.6738,463.0469,256.6738,467.0469" style="stroke:#333333;stroke-width:1;"/><line style="stroke:#333333;stroke-width:1;" x1="316.0674" x2="256.6738" y1="392.4219" y2="392.4219"/><line style="stroke:#333333;stroke-width:1;" x1="256.6738" x2="256.6738" y1="392.4219" y2="414.4219"/><polygon fill="#333333" points="252.6738,404.4219,256.6738,414.4219,260.6738,404.4219,256.6738,408.4219" style="stroke:#333333;stroke-width:1;"/><line style="stroke:#333333;stroke-width:1;" x1="542.4658" x2="601.8594" y1="392.4219" y2="392.4219"/><line style="stroke:#333333;stroke-width:1;" x1="601.8594" x2="601.8594" y1="392.4219" y2="414.4219"/><polygon fill="#333333" points="597.8594,404.4219,601.8594,414.4219,605.8594,404.4219,601.8594,408.4219" style="stroke:#333333;stroke-width:1;"/><line style="stroke:#333333;stroke-width:1;" x1="601.8594" x2="601.8594" y1="453.0469" y2="618.5703"/><line style="stroke:#333333;stroke-width:1;" x1="601.8594" x2="441.2666" y1="618.5703" y2="618.5703"/><polygon fill="#333333" points="451.2666,614.5703,441.2666,618.5703,451.2666,622.5703,447.2666,618.5703" style="stroke:#333333;stroke-width:1;"/><line style="stroke:#333333;stroke-width:1;" x1="429.2666" x2="429.2666" y1="360.4219" y2="380.4219"/><polygon fill="#333333" points="425.2666,370.4219,429.2666,380.4219,433.2666,370.4219,429.2666,374.4219" style="stroke:#333333;stroke-width:1;"/><?plantuml-src bLF1Rjf04BtxArRg1Gv5eMbf2bAbD0ddIlq2AvXq5R0ZssdKLZs4O41M_w6AgeJWX198e29VClitVREx5aHALTKIMZCxy-QzD-DOnYrFg5CQqroe0MLqJmygLLr1GzLL2Ite5mqf4uMTeDsMKIG3N_e7ejuAJefET2Zz8pTqswBXDTtZLbmF_FY3_EA9ScNjqjsFvISPVnPV7O7dNH0sl70dQ0MXU5RUUxDHhvkuktzu40R7ViFURU_kRkrLzDrs60OdDhof7ntcVZQweH_dc-D4iHl6JhLSoZLCeU26bZHYXGX1vPWMAgMfAEYK0LqZvL9ryeGx_8Qe71LhZbDzOP6CImOK7ftXhSUdIYrEWeGXtU8tek_2jhgcAxJALe4PQX3Gq9ibiGPB4-vFbo2cySvK7-IlDBVq4NrS9Lp_4lK9GkVhyzA95pJJoIDpqzV8vwBmFfHjJ51tVrNAEQrFdNwg0IfIKzYX-SeftRh3FYMgjw8yPISOKJP50Qs0Crvh_XTylht1CO5RFueY_kZvgExHKYL5JBTQONQGasa7fhOMwQn3pp0piJ5RO0akw85-hxoUg5Cei7-7i3DZMsZ6P8LOqSrK8gou5FBiZDcoEUQ33-0fXk3uEdUGTqYNwg8b0-ASFAKVIzCt8wrfa2WEZl3YjI8FwA1fiRU0VO75dHh11cW9IIadGRnP1pHQuiICQ6G0dxyL_-STbtb-GpQTnoIgEdF2CyhtwnwRryqtRAw9Z5aEGw3llp-LcgCx_G40?></g></svg>