<svg xmlns="http://www.w3.org/2000/svg" xmlns:xlink="http://www.w3.org/1999/xlink" contentStyleType="text/css" data-diagram-type="ACTIVITY" height="2412.5px" preserveAspectRatio="none" style="width:1509px;height:2412px;background:#FFFFFF;" version="1.1" viewBox="0 0 1509 2412" width="1509.375px" zoomAndPan="magnify"><title>&#1605;&#1582;&#1591;&#1591; &#1575;&#1606;&#1587;&#1610;&#1575;&#1576;&#1610;: &#1593;&#1605;&#1604;&#1610;&#1577; &#1605;&#1593;&#1575;&#1610;&#1585;&#1577; &#1590;&#1594;&#1591; &#1575;&#1604;&#1605;&#1590;&#1582;&#1575;&#1578; | &#1585;&#1608;&#1575;&#1574;&#1593; &#1575;&#1604;&#1603;&#1585;&#1610;&#1587;&#1578;&#1575;&#1604;</title><defs/><g><g class="title" data-source-line="7"><text fill="#000000" font-family="Arial" font-size="43.75" font-weight="bold" lengthAdjust="spacing" textLength="1374.0448" x="63.8771" y="103.1097">&#1605;&#1582;&#1591;&#1591; &#1575;&#1606;&#1587;&#1610;&#1575;&#1576;&#1610;: &#1593;&#1605;&#1604;&#1610;&#1577; &#1605;&#1593;&#1575;&#1610;&#1585;&#1577; &#1590;&#1594;&#1591; &#1575;&#1604;&#1605;&#1590;&#1582;&#1575;&#1578; | &#1585;&#1608;&#1575;&#1574;&#1593; &#1575;&#1604;&#1603;&#1585;&#1610;&#1587;&#1578;&#1575;&#1604;</text></g><ellipse cx="954.6555" cy="179.0527" fill="#222222" rx="31.25" ry="31.25" style="stroke:#222222;stroke-width:3.125;"/><rect fill="#E3F2FD" height="106.1523" rx="39.0625" ry="39.0625" style="stroke:#1565C0;stroke-width:1.5625;" width="536.9812" x="686.1649" y="272.8027"/><text fill="#000000" font-family="Arial" font-size="37.5" lengthAdjust="spacing" textLength="474.4812" x="717.4149" y="338.8611">&#1578;&#1580;&#1607;&#1610;&#1586; &#1575;&#1604;&#1605;&#1590;&#1582;&#1577; &#1608;&#1575;&#1604;&#1571;&#1583;&#1608;&#1575;&#1578; &#1575;&#1604;&#1604;&#1575;&#1586;&#1605;&#1577;</text><rect fill="#E3F2FD" height="149.8047" rx="39.0625" ry="39.0625" style="stroke:#1565C0;stroke-width:1.5625;" width="610.3149" x="649.498" y="441.4551"/><text fill="#000000" font-family="Arial" font-size="37.5" lengthAdjust="spacing" textLength="514.6179" x="680.748" y="507.5134">&#1578;&#1585;&#1603;&#1610;&#1576; &#1605;&#1602;&#1610;&#1575;&#1587; &#1575;&#1604;&#1590;&#1594;&#1591; (&#1575;&#1604;&#1605;&#1575;&#1606;&#1608;&#1605;&#1578;&#1585;)</text><text fill="#000000" font-family="Arial" font-size="37.5" lengthAdjust="spacing" textLength="547.8149" x="680.748" y="551.1658">&#1593;&#1604;&#1609; &#1582;&#1591; &#1575;&#1604;&#1583;&#1601;&#1593; (Discharge Line)</text><rect fill="#E3F2FD" height="106.1523" rx="39.0625" ry="39.0625" style="stroke:#1565C0;stroke-width:1.5625;" width="639.502" x="634.9045" y="653.7598"/><text fill="#000000" font-family="Arial" font-size="37.5" lengthAdjust="spacing" textLength="577.002" x="666.1545" y="719.8181">&#1578;&#1588;&#1594;&#1610;&#1604; &#1575;&#1604;&#1605;&#1590;&#1582;&#1577; &#1608;&#1575;&#1604;&#1587;&#1605;&#1575;&#1581; &#1576;&#1578;&#1583;&#1601;&#1602; &#1575;&#1604;&#1605;&#1610;&#1575;&#1607;</text><rect fill="#E3F2FD" height="106.1523" rx="39.0625" ry="39.0625" style="stroke:#1565C0;stroke-width:1.5625;" width="506.366" x="701.4725" y="959.9121"/><text fill="#000000" font-family="Arial" font-size="37.5" lengthAdjust="spacing" textLength="443.866" x="732.7225" y="1025.9705">&#1602;&#1585;&#1575;&#1569;&#1577; &#1605;&#1587;&#1578;&#1608;&#1609; &#1575;&#1604;&#1590;&#1594;&#1591; &#1575;&#1604;&#1581;&#1575;&#1604;&#1610;</text><polygon fill="#E3F2FD" points="701.7944,1128.5645,1207.5165,1128.5645,1245.0165,1166.0645,1207.5165,1203.5645,701.7944,1203.5645,664.2944,1166.0645,701.7944,1128.5645" style="stroke:#1565C0;stroke-width:1.5625;"/><text fill="#000000" font-family="Arial" font-size="34.375" lengthAdjust="spacing" textLength="505.722" x="701.7944" y="1177.9648">&#1607;&#1604; &#1575;&#1604;&#1590;&#1594;&#1591; &#1590;&#1605;&#1606; &#1575;&#1604;&#1606;&#1591;&#1575;&#1602; &#1575;&#1604;&#1605;&#1591;&#1604;&#1608;&#1576;&#1567;</text><text fill="#000000" font-family="Arial" font-size="34.375" lengthAdjust="spacing" textLength="19.6045" x="644.6899" y="1157.9575">&#1604;&#1575;</text><text fill="#000000" font-family="Arial" font-size="34.375" lengthAdjust="spacing" textLength="49.028" x="1245.0165" y="1157.9575">&#1606;&#1593;&#1605;</text><path d="M805.2917,1246.8018 L805.2917,1297.2168 L742.7917,1309.7168 L805.2917,1322.2168 L805.2917,1372.6318 A0,0 0 0 0 805.2917,1372.6318 L1381.665,1372.6318 A0,0 0 0 0 1381.665,1372.6318 L1381.665,1278.0518 L1350.415,1246.8018 L805.2917,1246.8018 A0,0 0 0 0 805.2917,1246.8018" fill="#FEFFDD" style="stroke:#181818;stroke-width:1.5625;"/><path d="M1350.415,1246.8018 L1350.415,1278.0518 L1381.665,1278.0518 L1350.415,1246.8018" fill="#FEFFDD" style="stroke:#181818;stroke-width:1.5625;"/><text fill="#000000" font-family="Arial" font-size="40.625" lengthAdjust="spacing" textLength="498.1125" x="824.0417" y="1300.1358">- &#1583;&#1608;&#1585;&#1575;&#1606; &#1604;&#1604;&#1610;&#1605;&#1610;&#1606;: &#1604;&#1586;&#1610;&#1575;&#1583;&#1577; &#1575;&#1604;&#1590;&#1594;&#1591;</text><text fill="#000000" font-family="Arial" font-size="40.625" lengthAdjust="spacing" textLength="510.7483" x="824.0417" y="1347.4258">- &#1583;&#1608;&#1585;&#1575;&#1606; &#1604;&#1604;&#1610;&#1587;&#1575;&#1585;: &#1604;&#1582;&#1601;&#1590; &#1575;&#1604;&#1590;&#1594;&#1591;</text><rect fill="#E3F2FD" height="149.8047" rx="39.0625" ry="39.0625" style="stroke:#1565C0;stroke-width:1.5625;" width="649.0417" x="93.75" y="1234.8145"/><text fill="#000000" font-family="Arial" font-size="37.5" lengthAdjust="spacing" textLength="414.3677" x="125" y="1300.8728">&#1578;&#1593;&#1583;&#1610;&#1604; &#1605;&#1587;&#1605;&#1575;&#1585; &#1590;&#1576;&#1591; &#1575;&#1604;&#1590;&#1594;&#1591;</text><text fill="#000000" font-family="Arial" font-size="37.5" lengthAdjust="spacing" textLength="586.5417" x="125" y="1344.5251">(Pressure Switch / Relief Valve)</text><polygon fill="#E3F2FD" points="954.6555,822.4121,992.1555,859.9121,954.6555,897.4121,917.1555,859.9121,954.6555,822.4121" style="stroke:#1565C0;stroke-width:1.5625;"/><polygon fill="#E3F2FD" points="816.3834,1447.1191,1092.9276,1447.1191,1130.4276,1484.6191,1092.9276,1522.1191,816.3834,1522.1191,778.8834,1484.6191,816.3834,1447.1191" style="stroke:#1565C0;stroke-width:1.5625;"/><text fill="#000000" font-family="Arial" font-size="34.375" lengthAdjust="spacing" textLength="276.5442" x="816.3834" y="1496.5195">&#1573;&#1593;&#1575;&#1583;&#1577; &#1601;&#1581;&#1589; &#1575;&#1604;&#1602;&#1585;&#1575;&#1569;&#1577;</text><polygon fill="#E3F2FD" points="954.6555,1584.6191,992.1555,1622.1191,954.6555,1659.6191,917.1555,1622.1191,954.6555,1584.6191" style="stroke:#1565C0;stroke-width:1.5625;"/><rect fill="#E3F2FD" height="149.8047" rx="39.0625" ry="39.0625" style="stroke:#1565C0;stroke-width:1.5625;" width="575.7813" x="666.7648" y="1722.1191"/><text fill="#000000" font-family="Arial" font-size="37.5" lengthAdjust="spacing" textLength="513.2813" x="698.0148" y="1788.1775">&#1578;&#1579;&#1576;&#1610;&#1578; &#1589;&#1575;&#1605;&#1608;&#1604;&#1577; &#1575;&#1604;&#1602;&#1601;&#1604; (Lock Nut)</text><text fill="#000000" font-family="Arial" font-size="37.5" lengthAdjust="spacing" textLength="351.178" x="698.0148" y="1831.8298">&#1604;&#1604;&#1581;&#1601;&#1575;&#1592; &#1593;&#1604;&#1609; &#1575;&#1604;&#1573;&#1593;&#1583;&#1575;&#1583;&#1575;&#1578;</text><rect fill="#E3F2FD" height="106.1523" rx="39.0625" ry="39.0625" style="stroke:#1565C0;stroke-width:1.5625;" width="536.7065" x="686.3022" y="1934.4238"/><text fill="#000000" font-family="Arial" font-size="37.5" lengthAdjust="spacing" textLength="474.2065" x="717.5522" y="2000.4822">&#1573;&#1610;&#1602;&#1575;&#1601; &#1575;&#1604;&#1605;&#1590;&#1582;&#1577; &#1608;&#1601;&#1589;&#1604; &#1575;&#1604;&#1605;&#1602;&#1610;&#1575;&#1587;</text><rect fill="#E3F2FD" height="106.1523" rx="39.0625" ry="39.0625" style="stroke:#1565C0;stroke-width:1.5625;" width="863.0371" x="523.1369" y="2103.0762"/><text fill="#000000" font-family="Arial" font-size="37.5" lengthAdjust="spacing" textLength="800.5371" x="554.3869" y="2169.1345">&#1575;&#1582;&#1578;&#1576;&#1575;&#1585; &#1575;&#1604;&#1578;&#1588;&#1594;&#1610;&#1604; &#1575;&#1604;&#1606;&#1607;&#1575;&#1574;&#1610; &#1608;&#1575;&#1604;&#1578;&#1571;&#1603;&#1583; &#1605;&#1606; &#1593;&#1583;&#1605; &#1608;&#1580;&#1608;&#1583; &#1578;&#1587;&#1585;&#1610;&#1576;</text><ellipse cx="954.6555" cy="2306.1035" fill="none" rx="34.375" ry="34.375" style="stroke:#222222;stroke-width:3.125;"/><ellipse cx="954.6555" cy="2306.1035" fill="#222222" rx="18.75" ry="18.75" style="stroke:#222222;stroke-width:3.125;"/><line style="stroke:#1565C0;stroke-width:3.125;" x1="954.6555" x2="954.6555" y1="210.3027" y2="272.8027"/><polygon fill="#1565C0" points="942.1555,241.5527,954.6555,272.8027,967.1555,241.5527,954.6555,254.0527" style="stroke:#1565C0;stroke-width:3.125;"/><line style="stroke:#1565C0;stroke-width:3.125;" x1="954.6555" x2="954.6555" y1="378.9551" y2="441.4551"/><polygon fill="#1565C0" points="942.1555,410.2051,954.6555,441.4551,967.1555,410.2051,954.6555,422.7051" style="stroke:#1565C0;stroke-width:3.125;"/><line style="stroke:#1565C0;stroke-width:3.125;" x1="954.6555" x2="954.6555" y1="591.2598" y2="653.7598"/><polygon fill="#1565C0" points="942.1555,622.5098,954.6555,653.7598,967.1555,622.5098,954.6555,635.0098" style="stroke:#1565C0;stroke-width:3.125;"/><line style="stroke:#1565C0;stroke-width:3.125;" x1="664.2944" x2="418.2709" y1="1166.0645" y2="1166.0645"/><line style="stroke:#1565C0;stroke-width:3.125;" x1="418.2709" x2="418.2709" y1="1166.0645" y2="1234.8145"/><polygon fill="#1565C0" points="405.7709,1203.5645,418.2709,1234.8145,430.7709,1203.5645,418.2709,1216.0645" style="stroke:#1565C0;stroke-width:3.125;"/><line style="stroke:#1565C0;stroke-width:3.125;" x1="1245.0165" x2="1401.799" y1="1166.0645" y2="1166.0645"/><line style="stroke:#1565C0;stroke-width:3.125;" x1="1401.799" x2="1401.799" y1="1166.0645" y2="1234.8145"/><line style="stroke:#1565C0;stroke-width:3.125;" x1="1401.799" x2="31.25" y1="1234.8145" y2="1234.8145"/><line style="stroke:#1565C0;stroke-width:3.125;" x1="31.25" x2="31.25" y1="1234.8145" y2="1622.1191"/><line style="stroke:#1565C0;stroke-width:3.125;" x1="31.25" x2="917.1555" y1="1622.1191" y2="1622.1191"/><polygon fill="#1565C0" points="885.9055,1609.6191,917.1555,1622.1191,885.9055,1634.6191,898.4055,1622.1191" style="stroke:#1565C0;stroke-width:3.125;"/><line style="stroke:#1565C0;stroke-width:3.125;" x1="418.2709" x2="418.2709" y1="1384.6191" y2="1400.2441"/><line style="stroke:#1565C0;stroke-width:3.125;" x1="418.2709" x2="954.6555" y1="1400.2441" y2="1400.2441"/><line style="stroke:#1565C0;stroke-width:3.125;" x1="954.6555" x2="954.6555" y1="1400.2441" y2="1447.1191"/><polygon fill="#1565C0" points="942.1555,1415.8691,954.6555,1447.1191,967.1555,1415.8691,954.6555,1428.3691" style="stroke:#1565C0;stroke-width:3.125;"/><line style="stroke:#1565C0;stroke-width:3.125;" x1="954.6555" x2="954.6555" y1="1066.0645" y2="1128.5645"/><polygon fill="#1565C0" points="942.1555,1097.3145,954.6555,1128.5645,967.1555,1097.3145,954.6555,1109.8145" style="stroke:#1565C0;stroke-width:3.125;"/><line style="stroke:#1565C0;stroke-width:3.125;" x1="954.6555" x2="954.6555" y1="897.4121" y2="959.9121"/><polygon fill="#1565C0" points="942.1555,928.6621,954.6555,959.9121,967.1555,928.6621,954.6555,941.1621" style="stroke:#1565C0;stroke-width:3.125;"/><line style="stroke:#1565C0;stroke-width:3.125;" x1="1130.4276" x2="1429.924" y1="1484.6191" y2="1484.6191"/><polygon fill="#1565C0" points="1417.424,1189.4531,1429.924,1158.2031,1442.424,1189.4531,1429.924,1176.9531" style="stroke:#1565C0;stroke-width:3.125;"/><line style="stroke:#1565C0;stroke-width:3.125;" x1="1429.924" x2="1429.924" y1="859.9121" y2="1484.6191"/><line style="stroke:#1565C0;stroke-width:3.125;" x1="1429.924" x2="992.1555" y1="859.9121" y2="859.9121"/><polygon fill="#1565C0" points="1023.4055,847.4121,992.1555,859.9121,1023.4055,872.4121,1010.9055,859.9121" style="stroke:#1565C0;stroke-width:3.125;"/><line style="stroke:#1565C0;stroke-width:3.125;" x1="954.6555" x2="954.6555" y1="1522.1191" y2="1584.6191"/><polygon fill="#1565C0" points="942.1555,1553.3691,954.6555,1584.6191,967.1555,1553.3691,954.6555,1565.8691" style="stroke:#1565C0;stroke-width:3.125;"/><line style="stroke:#1565C0;stroke-width:3.125;" x1="954.6555" x2="954.6555" y1="759.9121" y2="822.4121"/><polygon fill="#1565C0" points="942.1555,791.1621,954.6555,822.4121,967.1555,791.1621,954.6555,803.6621" style="stroke:#1565C0;stroke-width:3.125;"/><line style="stroke:#1565C0;stroke-width:3.125;" x1="954.6555" x2="954.6555" y1="1659.6191" y2="1722.1191"/><polygon fill="#1565C0" points="942.1555,1690.8691,954.6555,1722.1191,967.1555,1690.8691,954.6555,1703.3691" style="stroke:#1565C0;stroke-width:3.125;"/><line style="stroke:#1565C0;stroke-width:3.125;" x1="954.6555" x2="954.6555" y1="1871.9238" y2="1934.4238"/><polygon fill="#1565C0" points="942.1555,1903.1738,954.6555,1934.4238,967.1555,1903.1738,954.6555,1915.6738" style="stroke:#1565C0;stroke-width:3.125;"/><line style="stroke:#1565C0;stroke-width:3.125;" x1="954.6555" x2="954.6555" y1="2040.5762" y2="2103.0762"/><polygon fill="#1565C0" points="942.1555,2071.8262,954.6555,2103.0762,967.1555,2071.8262,954.6555,2084.3262" style="stroke:#1565C0;stroke-width:3.125;"/><line style="stroke:#1565C0;stroke-width:3.125;" x1="954.6555" x2="954.6555" y1="2209.2285" y2="2271.7285"/><polygon fill="#1565C0" points="942.1555,2240.4785,954.6555,2271.7285,967.1555,2240.4785,954.6555,2252.9785" style="stroke:#1565C0;stroke-width:3.125;"/><g class="footer" data-source-line="42"><text fill="#888888" font-family="Arial" font-size="31.25" lengthAdjust="spacing" textLength="577.9572" x="461.9209" y="2366.3605">&#1602;&#1587;&#1605; &#1575;&#1604;&#1589;&#1610;&#1575;&#1606;&#1577; &#1608;&#1575;&#1604;&#1583;&#1593;&#1605; &#1575;&#1604;&#1601;&#1606;&#1610; - &#1585;&#1608;&#1575;&#1574;&#1593; &#1575;&#1604;&#1603;&#1585;&#1610;&#1587;&#1578;&#1575;&#1604;</text></g></g></svg>