<?plantuml 1.2026.2beta3?><svg xmlns="http://www.w3.org/2000/svg" xmlns:xlink="http://www.w3.org/1999/xlink" contentStyleType="text/css" data-diagram-type="ACTIVITY" height="826px" preserveAspectRatio="none" style="width:651px;height:826px;background:#FFFFFF;" version="1.1" viewBox="0 0 651 826" width="651px" zoomAndPan="magnify"><title>&#1589;&#1610;&#1575;&#1606;&#1577; &#1605;&#1608;&#1575;&#1587;&#1610;&#1585; &#1608;&#1578;&#1608;&#1589;&#1610;&#1604;&#1575;&#1578; &#1575;&#1604;&#1605;&#1590;&#1582;&#1575;&#1578;</title><defs/><g><rect fill="#F9F9F9" height="26.6406" rx="2.5" ry="2.5" style="stroke:#DDDDDD;stroke-width:3;" width="640.7148" x="5" y="5"/><text fill="#000000" font-family="monospace" font-size="10" lengthAdjust="spacing" textLength="355.21" x="10" y="20">Please&#160;use&#160;'!option&#160;handwritten&#160;true'&#160;to&#160;enable&#160;handwritten</text><g class="title" data-source-line="6"><text fill="#000000" font-family="Arial" font-size="14" font-weight="bold" lengthAdjust="spacing" textLength="232.6338" x="200.5405" y="69.6357">&#1589;&#1610;&#1575;&#1606;&#1577; &#1605;&#1608;&#1575;&#1587;&#1610;&#1585; &#1608;&#1578;&#1608;&#1589;&#1610;&#1604;&#1575;&#1578; &#1575;&#1604;&#1605;&#1590;&#1582;&#1575;&#1578;</text></g><polygon fill="#222222" points="421.0013,96.3699,419.5355,98.3728,417.8017,101.3063,415.3221,103.2833,412.7164,104.3644,410.6388,104.4582,407.9685,103.1062,405.4489,102.2229,403.5365,100.4295,402.5334,98.3764,401.9385,96.7416,401.3557,94.6063,400.4097,92.7688,401.1366,90.9748,401.7735,89.0095,404.1636,87.4552,405.8451,85.4385,407.9264,84.7688,410.4007,84.1921,413.5737,84.5347,415.3116,85.3543,417.3321,85.7259,419.7889,88.2429,420.6454,90.9002,421.0175,92.7133,420.596,95.701" style="stroke:#222222;stroke-width:1;"/><polygon fill="#F1F1F1" points="330.8025,123.9375,330.8025,124.1477,340.8204,123.5232,350.8384,124.1308,360.8563,124.3372,370.8743,123.2241,380.8922,123.8598,390.9102,123.511,400.9281,123.554,410.946,123.8693,420.964,123.2461,430.9819,124.4911,440.9999,123.3072,451.0178,123.7397,461.0358,124.3694,471.0537,123.8517,481.0717,124.0057,491.0896,123.9375,491.0855,123.9277,492.8801,124.7247,494.6556,125.4756,496.4676,126.3146,498.2463,127.0731,499.9284,127.5987,500.1376,127.6853,500.7391,129.3989,501.5357,131.1933,502.3414,132.9915,502.6353,134.5777,503.5896,136.4375,503.8158,136.4375,503.4908,141.025,503.7675,145.6125,503.4246,150.2,503.5668,154.7875,503.5896,159.375,503.818,159.4696,502.8424,161.1366,502.1576,162.924,501.4972,164.7215,500.7888,166.4992,499.9284,168.2138,499.9279,168.2126,498.1973,169.0345,496.3199,169.502,494.6614,170.4981,492.9273,171.3116,491.0896,171.875,491.0896,172.3195,481.0717,172.488,471.0537,171.3919,461.0358,171.2228,451.0178,171.2536,440.9999,171.8161,430.9819,171.6785,420.964,172.5564,410.946,171.7003,400.9281,171.5319,390.9102,172.1033,380.8922,171.2082,370.8743,171.3559,360.8563,172.524,350.8384,172.3107,340.8204,172.6095,330.8025,171.875,330.7614,171.7759,329.0754,171.2411,327.3423,170.5924,325.4389,169.5328,323.7192,168.9165,321.9637,168.2138,322.0025,168.2299,321.4321,166.5292,320.4979,164.6778,319.9094,162.9695,318.8642,161.0721,318.3025,159.375,318.0767,159.375,318.4704,154.7875,318.0635,150.2,318.4721,145.6125,318.3714,141.025,318.3025,136.4375,318.22,136.4033,318.9258,134.6246,319.9082,132.9605,320.407,131.096,321.4137,129.4419,321.9637,127.5987,321.8931,127.4284,323.8102,127.0566,325.561,126.2833,327.2982,125.4774,329.0407,124.6843,330.8025,123.9375" style="stroke:#181818;stroke-width:0.5;"/><text fill="#000000" font-family="Arial" font-size="12" lengthAdjust="spacing" textLength="165.2871" x="328.3025" y="145.0762">&#1601;&#1581;&#1589; &#1605;&#1585;&#1574;&#1610; &#1604;&#1604;&#1605;&#1608;&#1575;&#1587;&#1610;&#1585; &#1608;&#1575;&#1604;&#1578;&#1608;&#1589;&#1610;&#1604;&#1575;&#1578;</text><text fill="#000000" font-family="Arial" font-size="12" lengthAdjust="spacing" textLength="98.2324" x="328.3025" y="159.0449">(&#1578;&#1587;&#1585;&#1576;&#1548; &#1578;&#1570;&#1603;&#1604;&#1548; &#1578;&#1604;&#1601;)</text><polygon fill="#F1F1F1" points="340.241,191.875,340.241,192.0852,350.3417,191.4607,360.4424,192.0683,370.5431,192.2747,380.6439,191.1616,390.7446,191.7973,400.8453,191.4485,410.946,191.4915,421.0468,191.8068,431.1475,191.1836,441.2482,192.4286,451.3489,191.2447,461.4497,191.6772,471.5504,192.3069,481.6511,191.875,481.6309,191.8548,484.0672,194.2911,486.4436,196.6675,488.8932,199.1171,491.3075,201.5314,493.6511,203.875,493.7892,204.013,491.4093,206.4332,489.0112,208.8351,486.5111,211.135,484.1604,213.5843,481.6511,215.875,481.6511,216.5772,471.5504,215.1538,461.4497,216.5535,451.3489,215.5785,441.2482,216.4088,431.1475,215.38,421.0468,215.8065,410.946,216.6166,400.8453,215.8263,390.7446,215.9803,380.6439,216.2136,370.5431,216.2912,360.4424,215.8711,350.3417,216.1622,340.241,215.875,340.106,215.7401,337.908,213.542,335.5702,211.2042,333.1457,208.7798,330.7855,206.4195,328.241,203.875,328.1271,203.7611,330.4872,201.3213,332.8945,198.9285,335.4271,196.6611,337.7946,194.2287,340.241,191.875" style="stroke:#181818;stroke-width:0.5;"/><text fill="#000000" font-family="Arial" font-size="11" lengthAdjust="spacing" textLength="141.4102" x="340.241" y="207.6831">&#1607;&#1604; &#1578;&#1608;&#1580;&#1583; &#1605;&#1588;&#1603;&#1604;&#1577; &#1578;&#1578;&#1591;&#1604;&#1576; &#1589;&#1610;&#1575;&#1606;&#1577;&#1567;</text><text fill="#000000" font-family="Arial" font-size="11" lengthAdjust="spacing" textLength="15.689" x="312.552" y="201.2808">&#1606;&#1593;&#1605;</text><text fill="#000000" font-family="Arial" font-size="11" lengthAdjust="spacing" textLength="6.2734" x="493.6511" y="201.2808">&#1604;&#1575;</text><polygon fill="#F1F1F1" points="199.6743,225.875,199.6743,226.0852,209.8105,225.4607,219.9466,226.0683,230.0828,226.2747,240.219,225.1616,250.3551,225.7973,260.4913,225.4485,270.6274,225.4915,280.7636,225.8068,290.8998,225.1836,301.0359,226.4286,311.1721,225.2447,321.3082,225.6772,331.4444,226.3069,341.5806,225.875,341.5696,225.8486,343.357,226.6282,345.112,227.3296,346.9066,228.1267,348.6821,228.8776,350.4194,229.5362,350.5998,229.6109,351.3583,231.3895,352.0931,233.1583,352.6945,234.8719,353.4911,236.6664,354.0806,238.375,354.3146,238.375,353.8402,240.1688,354.3067,241.9625,353.9817,243.7563,354.2585,245.55,354.0806,247.3438,353.9281,247.2806,353.3272,249.1028,352.8445,250.9739,351.8689,252.6408,351.1841,254.4283,350.4194,256.1826,350.4626,256.2869,348.7047,257.043,346.8834,257.6458,345.1527,258.4677,343.2753,258.9352,341.5806,259.8438,341.5806,260.1281,331.4444,260.3919,321.3082,260.2883,311.1721,260.4568,301.0359,259.3607,290.8998,259.1916,280.7636,259.2223,270.6274,259.7849,260.4913,259.6472,250.3551,260.5252,240.219,259.6691,230.0828,259.5007,219.9466,260.072,209.8105,259.1769,199.6743,259.8438,199.6081,259.6839,197.9893,259.3114,196.1944,258.5135,194.4647,257.8732,192.5622,256.8157,190.8355,256.1826,190.9338,256.2233,190.2851,254.4901,189.2255,252.5868,188.6093,250.8671,187.9453,249.1276,187.1743,247.3438,187.3916,247.3438,187.1729,245.55,187.3285,243.7563,186.9897,241.9625,186.9486,240.1688,187.1743,238.375,187.3294,238.4392,187.6858,236.5158,188.7955,234.9044,189.4346,233.0981,190.0207,231.2698,190.8355,229.5362,190.7904,229.4272,192.6618,228.9452,194.3328,227.9795,196.2143,227.5217,197.836,226.437,199.6743,225.875" style="stroke:#181818;stroke-width:0.5;"/><text fill="#000000" font-family="Arial" font-size="12" lengthAdjust="spacing" textLength="146.9063" x="197.1743" y="247.0137">&#1593;&#1586;&#1604; &#1575;&#1604;&#1605;&#1590;&#1582;&#1577; &#1608;&#1573;&#1610;&#1602;&#1575;&#1601; &#1575;&#1604;&#1578;&#1588;&#1594;&#1610;&#1604;</text><polygon fill="#F1F1F1" points="208.8999,279.8438,208.8999,280.0539,219.1878,279.4294,229.4757,280.037,239.7637,280.2434,250.0516,279.1304,260.3395,279.766,270.6274,279.4173,280.9154,279.4603,291.2033,279.7756,301.4912,279.1524,311.7791,280.3974,322.0671,279.2135,332.355,279.8438,332.3298,279.7828,334.1778,280.709,335.8796,281.2818,337.667,282.0615,339.422,282.7628,341.1938,283.5049,341.2488,283.5277,341.9997,285.3032,342.8387,287.1152,343.5972,288.8938,344.3319,290.6626,344.855,292.3438,344.9399,292.3438,345.0095,294.1375,345.0891,295.9313,344.6146,297.725,345.0812,299.5188,344.855,301.3125,344.7637,301.2747,344.2871,303.1484,343.2381,304.7849,342.6372,306.6071,342.1544,308.4782,341.1938,310.1513,341.1876,310.1363,339.4395,310.916,337.7015,311.7201,335.9436,312.4762,334.1222,313.0791,332.355,313.8125,332.355,314.0997,322.0671,313.2401,311.7791,314.0969,301.4912,314.3607,291.2033,314.257,280.9154,314.4255,270.6274,313.3294,260.3395,313.1603,250.0516,313.1911,239.7637,313.7536,229.4757,313.616,219.1878,314.4939,208.8999,313.8125,208.8776,313.7587,207.0884,312.9746,205.3935,312.4183,203.5115,311.4104,201.7626,310.7237,200.0611,310.1513,200.2609,310.2341,199.463,308.4391,198.8228,306.7095,197.7653,304.807,197.2304,303.121,196.3999,301.3125,196.5967,301.3125,196.2424,299.5188,196.3679,297.725,196.4419,295.9313,196.6172,294.1375,196.3999,292.3438,196.3986,292.3432,197.2746,290.635,197.6938,288.7376,198.388,286.9541,199.4839,285.3369,200.0611,283.5049,199.9696,283.2841,201.8938,282.9294,203.623,282.1041,205.3302,281.2257,207.087,280.467,208.8999,279.8438" style="stroke:#181818;stroke-width:0.5;"/><text fill="#000000" font-family="Arial" font-size="12" lengthAdjust="spacing" textLength="128.4551" x="206.3999" y="300.9824">&#1578;&#1589;&#1585;&#1610;&#1601; &#1575;&#1604;&#1587;&#1575;&#1574;&#1604; &#1605;&#1606; &#1575;&#1604;&#1606;&#1592;&#1575;&#1605;</text><polygon fill="#F1F1F1" points="200.6118,333.8125,200.6118,334.0227,210.614,333.3982,220.6163,334.0058,230.6185,334.2122,240.6207,333.0991,250.623,333.7348,260.6252,333.386,270.6274,333.429,280.6297,333.7443,290.6319,333.1211,300.6341,334.3661,310.6364,333.1822,320.6386,333.6147,330.6408,334.2444,340.6431,333.8125,340.6321,333.7861,342.4195,334.5657,344.1745,335.2671,345.9691,336.0642,347.7446,336.8151,349.4819,337.4737,349.6623,337.5484,350.4208,339.327,351.1556,341.0958,351.757,342.8094,352.5536,344.6039,353.1431,346.3125,353.3771,346.3125,352.9027,350.9,353.3692,355.4875,353.0442,360.075,353.321,364.6625,353.1431,369.25,352.9906,369.1869,352.3897,371.009,351.907,372.8801,350.9314,374.5471,350.2466,376.3345,349.4819,378.0888,349.5251,378.1931,347.7672,378.9493,345.9459,379.5521,344.2152,380.374,342.3378,380.8415,340.6431,381.75,340.6431,382.0344,330.6408,382.2982,320.6386,382.1945,310.6364,382.363,300.6341,381.2669,290.6319,381.0978,280.6297,381.1286,270.6274,381.6911,260.6252,381.5535,250.623,382.4314,240.6207,381.5753,230.6185,381.4069,220.6163,381.9783,210.614,381.0832,200.6118,381.75,200.5456,381.5901,198.9268,381.2176,197.1319,380.4197,195.4022,379.7795,193.4997,378.722,191.773,378.0888,191.8713,378.1296,191.2226,376.3964,190.163,374.493,189.5468,372.7733,188.8828,371.0338,188.1118,369.25,188.3291,369.25,188.1104,364.6625,188.266,360.075,187.9272,355.4875,187.8861,350.9,188.1118,346.3125,188.2669,346.3767,188.6233,344.4533,189.733,342.8419,190.3721,341.0356,190.9582,339.2073,191.773,337.4737,191.7279,337.3647,193.5993,336.8827,195.2703,335.917,197.1518,335.4592,198.7735,334.3745,200.6118,333.8125" style="stroke:#181818;stroke-width:0.5;"/><text fill="#000000" font-family="Arial" font-size="12" lengthAdjust="spacing" textLength="139.1074" x="198.1118" y="354.9512">&#1578;&#1606;&#1592;&#1610;&#1601; &#1575;&#1604;&#1605;&#1608;&#1575;&#1587;&#1610;&#1585; &#1608;&#1575;&#1604;&#1578;&#1608;&#1589;&#1610;&#1604;&#1575;&#1578;</text><text fill="#000000" font-family="Arial" font-size="12" lengthAdjust="spacing" textLength="145.0313" x="198.1118" y="368.9199">(&#1573;&#1586;&#1575;&#1604;&#1577; &#1575;&#1604;&#1578;&#1585;&#1587;&#1576;&#1575;&#1578; &#1608;&#1575;&#1604;&#1575;&#1606;&#1587;&#1583;&#1575;&#1583;&#1575;&#1578;)</text><polygon fill="#F1F1F1" points="195.1831,401.75,195.1831,401.9602,205.2424,401.3357,215.3016,401.9433,225.3608,402.1497,235.4201,401.0366,245.4793,401.6723,255.5386,401.3235,265.5978,401.3665,275.6571,401.6818,285.7163,401.0586,295.7756,402.3036,305.8348,401.1197,315.894,401.5522,325.9533,402.1819,336.0125,401.6642,346.0718,401.75,346.0805,401.771,347.8355,402.4724,349.6301,403.2694,351.4056,404.0203,353.2176,404.8593,354.9106,405.4112,355.1173,405.4968,355.852,407.2656,356.4535,408.9792,357.2501,410.7736,358.0558,412.5718,358.5718,414.25,358.3314,414.25,358.7979,418.8375,358.4729,423.425,358.7497,428.0125,358.4068,432.6,358.5718,437.1875,358.5507,437.1788,358.0679,439.0499,357.0923,440.7168,356.4075,442.5042,355.7471,444.3018,354.9106,446.0263,354.9637,446.1545,353.1423,446.7574,351.4117,447.5793,349.5343,448.0468,347.8758,449.0428,346.0718,449.6875,346.0718,450.2357,336.0125,450.132,325.9533,450.3005,315.894,449.2044,305.8348,449.0353,295.7756,449.0661,285.7163,449.6286,275.6571,449.491,265.5978,450.3689,255.5386,449.5128,245.4793,449.3444,235.4201,449.9158,225.3608,449.0207,215.3016,449.1684,205.2424,450.3365,195.1831,449.6875,195.2387,449.8217,193.509,449.1815,191.6065,448.1239,189.9205,447.5891,188.1874,446.9404,186.3443,446.0263,186.1988,445.9661,185.5825,444.2463,184.9186,442.5069,184.3483,440.8062,183.414,438.9547,182.6831,437.1875,182.8373,437.1875,182.4985,432.6,182.4574,428.0125,182.851,423.425,182.4441,418.8375,182.6831,414.25,182.8398,414.3149,183.479,412.5086,184.0651,410.6803,184.7709,408.9016,185.7533,407.2375,186.3443,405.4112,186.3061,405.319,188.1875,404.8612,189.8093,403.7765,191.7263,403.4046,193.4771,402.6314,195.1831,401.75" style="stroke:#181818;stroke-width:0.5;"/><text fill="#000000" font-family="Arial" font-size="12" lengthAdjust="spacing" textLength="155.8887" x="192.6831" y="422.8887">&#1573;&#1589;&#1604;&#1575;&#1581; &#1571;&#1608; &#1575;&#1587;&#1578;&#1576;&#1583;&#1575;&#1604; &#1575;&#1604;&#1571;&#1580;&#1586;&#1575;&#1569; &#1575;&#1604;&#1578;&#1575;&#1604;&#1601;&#1577;</text><text fill="#000000" font-family="Arial" font-size="12" lengthAdjust="spacing" textLength="127.207" x="192.6831" y="436.8574">(&#1581;&#1588;&#1608;&#1575;&#1578;&#1548; &#1608;&#1589;&#1604;&#1575;&#1578;&#1548; &#1571;&#1606;&#1575;&#1576;&#1610;&#1576;)</text><polygon fill="#F1F1F1" points="226.6362,469.6875,226.6362,469.8977,236.4121,469.2732,246.1879,469.8808,255.9637,470.0872,265.7395,468.9741,275.5154,469.6098,285.2912,469.261,295.067,469.304,304.8428,469.6193,314.6187,469.6875,314.5305,469.4746,316.457,470.5902,318.0738,470.9579,319.8967,471.8233,321.7448,472.7495,323.4575,473.3487,323.4311,473.3377,324.2107,475.1251,324.9121,476.8801,325.7092,478.6747,326.4601,480.4502,327.1187,482.1875,327.3139,482.1875,327.3423,483.9813,327.3451,485.775,327.2035,487.5688,327.2732,489.3625,327.1187,491.1563,327.3349,491.2458,326.1643,492.832,325.8631,494.7783,324.8306,496.4217,324.3541,498.2954,323.4575,499.9951,323.3943,499.8426,321.681,500.7062,320.0166,501.6879,318.148,502.1768,316.3999,502.9564,314.6187,503.6563,314.6187,503.9949,304.8428,504.0725,295.067,503.6523,285.2912,503.9435,275.5154,503.0838,265.7395,503.9406,255.9637,504.2044,246.1879,504.1008,236.4121,504.2693,226.6362,503.6563,226.5746,503.5075,224.7853,502.7232,223.0214,502.0004,221.3254,501.4414,219.5401,500.6668,217.7974,499.9951,218.0072,500.082,217.0114,498.205,216.2273,496.4158,215.671,494.7209,214.6631,492.839,214.1362,491.1563,213.9632,491.1563,214.3525,489.3625,214.2815,487.5688,214.3811,485.775,214.029,483.9813,214.1362,482.1875,214.2345,482.2282,215.0503,480.495,215.4552,478.5917,216.3034,476.872,217.104,475.1325,217.7974,473.3487,217.8805,473.5494,219.5646,472.6151,221.3919,472.0267,223.0301,470.9814,224.7821,470.2112,226.6362,469.6875" style="stroke:#181818;stroke-width:0.5;"/><text fill="#000000" font-family="Arial" font-size="12" lengthAdjust="spacing" textLength="92.9824" x="224.1362" y="490.8262">&#1573;&#1593;&#1575;&#1583;&#1577; &#1578;&#1580;&#1605;&#1610;&#1593; &#1575;&#1604;&#1606;&#1592;&#1575;&#1605;</text><polygon fill="#F1F1F1" points="215.7876,523.6563,215.7876,523.8664,225.7585,523.2419,235.7294,523.8495,245.7002,524.0559,255.6711,522.9429,265.642,523.5785,275.6129,523.2298,285.5838,523.2728,295.5546,523.5881,305.5255,522.9649,315.4964,524.2099,325.4673,523.6563,325.3869,523.4621,327.2098,524.3276,329.0579,525.2537,330.7596,525.8265,332.5471,526.6062,334.3061,527.3174,334.2963,527.3133,335.0933,529.108,335.8442,530.8835,336.6832,532.6954,337.4417,534.4741,337.9673,536.1563,338.1937,536.1563,338.0522,537.95,338.1218,539.7438,338.2014,541.5375,337.7269,543.3313,337.9673,545.125,338.1762,545.2116,337.1437,546.8549,336.6672,548.7286,335.6181,550.3652,335.0173,552.1873,334.3061,553.9638,334.4007,554.1922,332.5321,554.6811,330.784,555.4607,329.046,556.2648,327.2881,557.0209,325.4673,557.625,325.4673,557.6211,315.4964,557.9122,305.5255,557.0526,295.5546,557.9094,285.5838,558.1732,275.6129,558.0695,265.642,558.238,255.6711,557.1419,245.7002,556.9728,235.7294,557.0036,225.7585,557.5661,215.7876,557.625,215.7625,557.5645,214.1068,557.1026,212.2298,556.1067,210.4405,555.3227,208.7456,554.7664,206.9488,553.9638,206.7434,553.8788,206.0567,552.1298,205.6841,550.5111,204.8862,548.7161,204.246,546.9865,203.2876,545.125,203.1803,545.125,203.394,543.3313,203.4844,541.5375,203.1301,539.7438,203.2556,537.95,203.2876,536.1563,203.3264,536.1723,204.2205,534.4716,204.7508,532.6202,205.6267,530.912,206.046,529.0145,206.9488,527.3174,206.8624,527.1088,208.7808,526.7403,210.3928,525.6322,212.317,525.2775,214.0462,524.4521,215.7876,523.6563" style="stroke:#181818;stroke-width:0.5;"/><text fill="#000000" font-family="Arial" font-size="12" lengthAdjust="spacing" textLength="114.6797" x="213.2876" y="544.7949">&#1575;&#1582;&#1578;&#1576;&#1575;&#1585; &#1575;&#1604;&#1590;&#1594;&#1591; &#1608;&#1575;&#1604;&#1578;&#1587;&#1585;&#1576;</text><polygon fill="#F1F1F1" points="231.2734,577.625,231.2734,577.8352,241.1119,577.2107,250.9504,577.8183,260.7889,578.0247,270.6274,576.9116,280.4659,577.5473,290.3044,577.1985,300.1429,577.2415,309.9814,577.625,309.9654,577.6089,312.2185,579.862,314.9119,582.5555,317.0329,584.6764,319.5348,587.1784,321.9814,589.625,322.0833,589.7268,319.5612,592.0048,317.1975,594.4411,314.7739,596.8175,312.4235,599.2671,309.9814,601.625,309.9814,601.8641,300.1429,602.2107,290.3044,602.2961,280.4659,602.3043,270.6274,601.8796,260.7889,602.0886,250.9504,602.3272,241.1119,600.9038,231.2734,601.625,231.4334,601.7849,228.8036,599.1551,226.5993,596.9508,223.9568,594.3083,221.6573,592.0089,219.2734,589.625,219.4482,589.7998,221.662,587.2135,224.0983,584.8498,226.5533,582.5048,228.9715,580.1231,231.2734,577.625" style="stroke:#181818;stroke-width:0.5;"/><text fill="#000000" font-family="Arial" font-size="11" lengthAdjust="spacing" textLength="78.708" x="231.2734" y="593.4331">&#1607;&#1604; &#1575;&#1604;&#1575;&#1582;&#1578;&#1576;&#1575;&#1585; &#1606;&#1575;&#1580;&#1581;&#1567;</text><text fill="#000000" font-family="Arial" font-size="11" lengthAdjust="spacing" textLength="6.2734" x="213" y="587.0308">&#1604;&#1575;</text><text fill="#000000" font-family="Arial" font-size="11" lengthAdjust="spacing" textLength="15.689" x="321.9814" y="587.0308">&#1606;&#1593;&#1605;</text><polygon fill="#F1F1F1" points="23.5,611.625,23.5,611.8352,33.3647,611.2107,43.2295,611.8183,53.0942,612.0247,62.9589,610.9116,72.8236,611.5473,82.6884,611.1985,92.5531,611.2415,102.4178,611.5568,112.2826,610.9336,122.1473,612.1786,132.012,610.9947,141.8767,611.4272,151.7415,612.0569,161.6062,611.5392,171.4709,611.6932,181.3356,611.5931,191.2004,611.8035,201.0651,611.8641,210.9298,612.2107,220.7946,612.2961,230.6593,612.3043,240.524,611.8796,250.3887,612.0886,260.2535,612.3272,270.1182,610.9038,279.9829,612.3035,289.8477,611.625,289.8098,611.5337,291.6835,612.5216,293.32,612.937,295.1422,613.8006,297.0133,614.7823,298.6865,615.2862,298.6715,615.2799,299.4512,617.0674,300.2552,618.8649,301.0114,620.6426,301.6142,622.3567,302.3477,624.125,302.4434,624.125,302.1569,628.7125,302.4425,633.3,302.5304,637.8875,302.4958,642.475,302.3477,647.0625,302.5364,647.1407,301.4667,648.7686,300.6823,650.5148,299.9596,652.2865,299.4006,654.1261,298.6865,655.9013,298.6614,655.8408,297.0056,656.8434,295.1287,657.312,293.3394,657.9924,291.6445,658.9006,289.8477,659.5625,289.8477,658.8957,279.9829,659.0434,270.1182,660.2115,260.2535,659.9982,250.3887,660.297,240.524,659.2407,230.6593,659.8817,220.7946,660.1529,210.9298,659.0901,201.0651,659.4666,191.2004,659.6885,181.3356,660.2143,171.4709,659.5583,161.6062,660.0251,151.7415,659.0087,141.8767,658.8852,132.012,660.0661,122.1473,658.8456,112.2826,660.0715,102.4178,659.7691,92.5531,659.2946,82.6884,659.2087,72.8236,660.0213,62.9589,659.2632,53.0942,660.1544,43.2295,659.0098,33.3647,660.1799,23.5,659.5625,23.5618,659.7116,21.7635,658.9057,19.9705,658.1126,18.2894,657.5896,16.5072,656.8225,14.6612,655.9013,14.7133,655.9229,14.0115,654.1678,13.1566,652.3492,12.6851,650.6894,11.7799,648.85,11,647.0625,11.0575,647.0625,10.7972,642.475,10.8649,637.8875,11.1769,633.3,11.1433,628.7125,11,624.125,10.9868,624.1195,11.633,622.3161,12.397,620.5615,12.9854,618.7342,14.0567,617.1068,14.6612,615.2862,14.7555,615.5139,16.4961,614.716,18.2853,614.0357,19.947,613.0474,21.7434,612.3841,23.5,611.625" style="stroke:#181818;stroke-width:0.5;"/><text fill="#000000" font-family="Arial" font-size="12" lengthAdjust="spacing" textLength="271.3477" x="21" y="632.7637">-[&#1575;&#1604;&#1593;&#1608;&#1583;&#1577; &#1604;&#1604;&#1578;&#1589;&#1581;&#1610;&#1581;]--&gt; :&#1573;&#1589;&#1604;&#1575;&#1581; &#1571;&#1608; &#1575;&#1587;&#1578;&#1576;&#1583;&#1575;&#1604; &#1575;&#1604;&#1571;&#1580;&#1586;&#1575;&#1569; &#1575;&#1604;&#1578;&#1575;&#1604;&#1601;&#1577;</text><text fill="#000000" font-family="Arial" font-size="12" lengthAdjust="spacing" textLength="131.25" x="21" y="646.7324">(&#1581;&#1588;&#1608;&#1575;&#1578;&#1548; &#1608;&#1589;&#1604;&#1575;&#1578;&#1548; &#1571;&#1606;&#1575;&#1576;&#1610;&#1576;);</text><polygon fill="#F1F1F1" points="334.8477,611.625,334.8477,611.8352,344.7943,611.2107,354.741,611.8183,364.6877,612.0247,374.6344,610.9116,384.5811,611.5473,394.5277,611.1985,404.4744,611.2415,414.4211,611.5568,424.3678,610.9336,434.3145,611.625,434.3851,611.7955,436.0018,612.1631,437.8248,613.0286,439.6729,613.9547,441.3746,614.5275,443.1533,615.2862,443.1743,615.2949,443.8757,617.0499,444.6727,618.8445,445.4236,620.62,446.2626,622.4319,446.8145,624.125,447.0381,624.125,447.0409,625.9188,446.8993,627.7125,446.969,629.5063,447.0485,631.3,446.8145,633.0938,446.5924,633.0018,446.2912,634.9481,445.2587,636.5915,444.7821,638.4651,443.7331,640.1017,443.1533,641.9326,443.1446,641.9115,441.4801,642.8932,439.6115,643.382,437.8634,644.1617,436.1254,644.9658,434.3145,645.5938,434.3145,646.01,424.3678,645.5898,414.4211,645.881,404.4744,645.0213,394.5277,645.8781,384.5811,646.1419,374.6344,646.0383,364.6877,646.2068,354.741,645.1107,344.7943,644.9416,334.8477,645.5938,334.7684,645.4024,333.0724,644.8434,331.2871,644.0688,329.6313,643.6069,327.7543,642.611,326.0088,641.9326,325.9032,641.8888,325.3469,640.1939,324.339,638.312,323.6523,636.5631,323.2797,634.9443,322.3477,633.0938,322.4929,633.0938,322.5925,631.3,322.2404,629.5063,322.4541,627.7125,322.5445,625.9188,322.3477,624.125,322.2022,624.0647,323.0504,622.345,323.8509,620.6055,324.7451,618.9048,325.2753,617.0534,326.0088,615.2862,326.0678,615.4286,327.7059,614.3834,329.458,613.6131,331.3764,613.2446,332.9884,612.1364,334.8477,611.625" style="stroke:#181818;stroke-width:0.5;"/><text fill="#000000" font-family="Arial" font-size="12" lengthAdjust="spacing" textLength="104.4668" x="332.3477" y="632.7637">&#1573;&#1593;&#1575;&#1583;&#1577; &#1578;&#1588;&#1594;&#1610;&#1604; &#1575;&#1604;&#1605;&#1590;&#1582;&#1577;</text><polygon fill="#F1F1F1" points="337.8857,679.5625,337.8857,679.7727,348.2625,679.1482,358.6392,679.7558,369.016,679.9622,379.3927,678.8491,389.7694,679.4848,400.1462,679.136,410.5229,679.179,420.8996,679.4943,431.2764,679.5625,431.1882,679.3496,433.1148,680.4652,434.7315,680.8329,436.5544,681.6983,438.4025,682.6245,440.1152,683.2237,440.0888,683.2127,440.8684,685.0001,441.5698,686.7551,442.3669,688.5497,443.1178,690.3252,443.7764,692.0625,443.9716,692.0625,444.0001,693.8563,444.0028,695.65,443.8612,697.4438,443.9309,699.2375,443.7764,701.0313,443.9926,701.1208,442.822,702.707,442.5209,704.6533,441.4884,706.2967,441.0118,708.1704,440.1152,709.8701,440.0521,709.7176,438.3387,710.5812,436.6743,711.5629,434.8057,712.0518,433.0576,712.8314,431.2764,713.5313,431.2764,713.8699,420.8996,713.9475,410.5229,713.5273,400.1462,713.8185,389.7694,712.9588,379.3927,713.8156,369.016,714.0794,358.6392,713.9758,348.2625,714.1443,337.8857,713.5313,337.8241,713.3825,336.0348,712.5982,334.2709,711.8754,332.5749,711.3164,330.7896,710.5418,329.0469,709.8701,329.2568,709.957,328.2609,708.08,327.4768,706.2908,326.9205,704.5959,325.9126,702.714,325.3857,701.0313,325.2127,701.0313,325.6021,699.2375,325.531,697.4438,325.6306,695.65,325.2785,693.8563,325.3857,692.0625,325.484,692.1032,326.2998,690.37,326.7047,688.4667,327.5529,686.747,328.3535,685.0075,329.0469,683.2237,329.13,683.4244,330.8141,682.4901,332.6414,681.9017,334.2796,680.8564,336.0316,680.0862,337.8857,679.5625" style="stroke:#181818;stroke-width:0.5;"/><text fill="#000000" font-family="Arial" font-size="12" lengthAdjust="spacing" textLength="98.3906" x="335.3857" y="700.7012">&#1578;&#1608;&#1579;&#1610;&#1602; &#1571;&#1593;&#1605;&#1575;&#1604; &#1575;&#1604;&#1589;&#1610;&#1575;&#1606;&#1577;</text><polygon fill="#F1F1F1" points="270.6274,719.5313,270.677,719.5808,272.9298,721.8336,275.473,724.3768,277.9216,726.8255,280.0593,728.9631,282.6274,731.5313,282.6091,731.5129,280.1269,733.8307,277.737,736.2409,275.4114,738.7152,272.8645,740.9683,270.6274,743.5313,270.7579,743.6617,268.0789,740.9827,265.7808,738.6846,263.5293,736.4331,261.0072,733.911,258.6274,731.5313,258.6435,731.5473,261.0199,729.1237,263.4695,726.7733,265.8838,724.3876,268.3655,722.0693,270.6274,719.5313" style="stroke:#181818;stroke-width:0.5;"/><polygon fill="#F1F1F1" points="489.3145,225.875,489.3145,226.0852,499.6395,225.4607,509.9645,226.0683,520.2896,226.2747,530.6146,225.1616,540.9396,225.7973,551.2646,225.4485,561.5897,225.4915,571.9147,225.8068,582.2397,225.1836,592.5648,226.4286,602.8898,225.2447,613.2148,225.875,613.1896,225.8141,615.0377,226.7403,616.7394,227.3131,618.5268,228.0927,620.2818,228.7941,622.0537,229.5362,622.1087,229.5589,622.8596,231.3344,623.6985,233.1464,624.457,234.9251,625.1918,236.6939,625.7148,238.375,625.7997,238.375,625.8694,240.1688,625.9489,241.9625,625.4744,243.7563,625.941,245.55,625.7148,247.3438,625.6235,247.3059,625.147,249.1796,624.0979,250.8161,623.497,252.6383,623.0143,254.5094,622.0537,256.1826,622.0475,256.1676,620.2993,256.9472,618.5613,257.7513,616.8035,258.5075,614.9821,259.1103,613.2148,259.8438,613.2148,260.131,602.8898,259.2713,592.5648,260.1281,582.2397,260.3919,571.9147,260.2883,561.5897,260.4568,551.2646,259.3607,540.9396,259.1916,530.6146,259.2223,520.2896,259.7849,509.9645,259.6472,499.6395,260.5252,489.3145,259.8438,489.2922,259.79,487.5029,259.0059,485.808,258.4496,483.9261,257.4417,482.1772,256.7549,480.4756,256.1826,480.6755,256.2654,479.8776,254.4704,479.2373,252.7407,478.1798,250.8382,477.645,249.1522,476.8145,247.3438,477.0113,247.3438,476.657,245.55,476.7825,243.7563,476.8564,241.9625,477.0317,240.1688,476.8145,238.375,476.8132,238.3745,477.6891,236.6662,478.1084,234.7688,478.8026,232.9853,479.8985,231.3682,480.4756,229.5362,480.3842,229.3154,482.3083,228.9607,484.0375,228.1353,485.7447,227.257,487.5016,226.4983,489.3145,225.875" style="stroke:#181818;stroke-width:0.5;"/><text fill="#000000" font-family="Arial" font-size="12" lengthAdjust="spacing" textLength="128.9004" x="486.8145" y="247.0137">&#1604;&#1575; &#1578;&#1608;&#1580;&#1583; &#1581;&#1575;&#1580;&#1577; &#1604;&#1589;&#1610;&#1575;&#1606;&#1577; &#1601;&#1608;&#1585;&#1610;&#1577;</text><polygon fill="#F1F1F1" points="410.946,749.5313,410.9956,749.5808,413.2484,751.8336,415.7916,754.3768,418.2403,756.8255,420.3779,758.9631,422.946,761.5313,422.9277,761.5129,420.4455,763.8307,418.0557,766.2409,415.73,768.7152,413.1831,770.9683,410.946,773.5313,411.0765,773.6617,408.3975,770.9827,406.0994,768.6846,403.8479,766.4331,401.3258,763.911,398.946,761.5313,398.9621,761.5473,401.3385,759.1237,403.7881,756.7733,406.2024,754.3876,408.6841,752.0693,410.946,749.5313" style="stroke:#181818;stroke-width:0.5;"/><polygon fill="none" points="422.0068,807.2069,420.3944,809.41,418.4873,812.637,415.7597,814.8116,412.8934,816.0009,410.6081,816.1041,407.6707,814.6168,404.8992,813.6452,402.7956,811.6724,401.6921,809.414,401.0377,807.6158,400.3966,805.267,399.356,803.2457,400.1557,801.2723,400.8562,799.1105,403.4853,797.4007,405.335,795.1823,407.6244,794.4457,410.3462,793.8113,413.8364,794.1882,415.7481,795.0898,417.9708,795.4984,420.6732,798.2672,421.6153,801.1902,422.0246,803.1846,421.561,806.4711" style="stroke:#222222;stroke-width:1;"/><polygon fill="#222222" points="416.9792,805.9907,416.0997,807.1924,415.0594,808.9525,413.5717,810.1387,412.0083,810.7874,410.7617,810.8437,409.1595,810.0325,407.6478,809.5025,406.5003,808.4264,405.8984,807.1946,405.5415,806.2137,405.1918,804.9325,404.6242,803.8301,405.0604,802.7536,405.4425,801.5745,406.8766,800.6419,407.8855,799.4318,409.1343,799.03,410.6188,798.684,412.5226,798.8896,413.5654,799.3814,414.7777,799.6043,416.2518,801.1145,416.7656,802.7089,416.9889,803.7967,416.736,805.5894" style="stroke:#222222;stroke-width:1;"/><path d="M410.946,103.9375 L411.0395,103.9375 L410.7619,107.9375 L411.032,111.9375 L411.1237,115.9375 L410.629,119.9375 L410.946,123.9375" fill="#181818"/><polygon fill="#181818" points="406.946,113.9375,407.0111,113.9635,407.6178,115.8862,408.6059,117.9614,409.4697,119.987,409.9253,121.8492,410.946,123.9375,410.922,123.9279,411.614,121.8847,412.4274,119.89,413.325,117.9291,413.9321,115.8519,414.946,113.9375,415.0765,114.068,413.9975,114.5889,413.2994,115.4909,412.6479,116.4393,411.7258,117.1173,410.946,117.9375,410.9621,117.9536,410.1385,117.13,409.3881,116.3796,408.6024,115.5939,407.8841,114.8755,406.946,113.9375" style="stroke:#181818;stroke-width:1;"/><path d="M270.6274,259.8438 L270.7209,259.8438 L270.4433,263.8438 L270.7133,267.8438 L270.8051,271.8438 L270.3104,275.8438 L270.6274,279.8438" fill="#181818"/><polygon fill="#181818" points="266.6274,269.8438,266.6925,269.8698,267.2992,271.7925,268.2873,273.8677,269.1511,275.8932,269.6067,277.7554,270.6274,279.8438,270.6034,279.8341,271.2954,277.791,272.1088,275.7963,273.0063,273.8353,273.6135,271.7582,274.6274,269.8438,274.7579,269.9742,273.6789,270.4952,272.9808,271.3971,272.3293,272.3456,271.4072,273.0235,270.6274,273.8438,270.6435,273.8598,269.8199,273.0362,269.0695,272.2858,268.2838,271.5001,267.5655,270.7818,266.6274,269.8438" style="stroke:#181818;stroke-width:1;"/><path d="M270.6274,313.8125 L270.7209,313.8125 L270.4433,317.8125 L270.7133,321.8125 L270.8051,325.8125 L270.3104,329.8125 L270.6274,333.8125" fill="#181818"/><polygon fill="#181818" points="266.6274,323.8125,266.6925,323.8385,267.2992,325.7612,268.2873,327.8364,269.1511,329.862,269.6067,331.7242,270.6274,333.8125,270.6034,333.8029,271.2954,331.7597,272.1088,329.765,273.0063,327.8041,273.6135,325.7269,274.6274,323.8125,274.7579,323.943,273.6789,324.4639,272.9808,325.3659,272.3293,326.3143,271.4072,326.9923,270.6274,327.8125,270.6435,327.8286,269.8199,327.005,269.0695,326.2546,268.2838,325.4689,267.5655,324.7505,266.6274,323.8125" style="stroke:#181818;stroke-width:1;"/><path d="M270.6274,381.75 L270.7209,381.75 L270.4433,385.75 L270.7133,389.75 L270.8051,393.75 L270.3104,397.75 L270.6274,401.75" fill="#181818"/><polygon fill="#181818" points="266.6274,391.75,266.6925,391.776,267.2992,393.6987,268.2873,395.7739,269.1511,397.7995,269.6067,399.6617,270.6274,401.75,270.6034,401.7404,271.2954,399.6972,272.1088,397.7025,273.0063,395.7416,273.6135,393.6644,274.6274,391.75,274.7579,391.8805,273.6789,392.4014,272.9808,393.3034,272.3293,394.2518,271.4072,394.9298,270.6274,395.75,270.6435,395.7661,269.8199,394.9425,269.0695,394.1921,268.2838,393.4064,267.5655,392.688,266.6274,391.75" style="stroke:#181818;stroke-width:1;"/><path d="M270.6274,449.6875 L270.7209,449.6875 L270.4433,453.6875 L270.7133,457.6875 L270.8051,461.6875 L270.3104,465.6875 L270.6274,469.6875" fill="#181818"/><polygon fill="#181818" points="266.6274,459.6875,266.6925,459.7135,267.2992,461.6362,268.2873,463.7114,269.1511,465.737,269.6067,467.5992,270.6274,469.6875,270.6034,469.6779,271.2954,467.6347,272.1088,465.64,273.0063,463.6791,273.6135,461.6019,274.6274,459.6875,274.7579,459.818,273.6789,460.3389,272.9808,461.2409,272.3293,462.1893,271.4072,462.8673,270.6274,463.6875,270.6435,463.7036,269.8199,462.88,269.0695,462.1296,268.2838,461.3439,267.5655,460.6255,266.6274,459.6875" style="stroke:#181818;stroke-width:1;"/><path d="M270.6274,503.6563 L270.7209,503.6563 L270.4433,507.6563 L270.7133,511.6563 L270.8051,515.6563 L270.3104,519.6563 L270.6274,523.6563" fill="#181818"/><polygon fill="#181818" points="266.6274,513.6563,266.6925,513.6823,267.2992,515.605,268.2873,517.6802,269.1511,519.7057,269.6067,521.5679,270.6274,523.6563,270.6034,523.6466,271.2954,521.6035,272.1088,519.6088,273.0063,517.6478,273.6135,515.5707,274.6274,513.6563,274.7579,513.7867,273.6789,514.3077,272.9808,515.2096,272.3293,516.1581,271.4072,516.836,270.6274,517.6563,270.6435,517.6723,269.8199,516.8487,269.0695,516.0983,268.2838,515.3126,267.5655,514.5943,266.6274,513.6563" style="stroke:#181818;stroke-width:1;"/><path d="M384.5811,645.5938 L384.6745,645.5938 L384.3969,652.3875 L384.667,659.1813 L384.7587,665.975 L384.264,672.7688 L384.5811,679.5625" fill="#181818"/><polygon fill="#181818" points="380.5811,669.5625,380.6461,669.5885,381.2528,671.5112,382.2409,673.5864,383.1048,675.612,383.5603,677.4742,384.5811,679.5625,384.557,679.5529,385.2491,677.5097,386.0624,675.515,386.96,673.5541,387.5671,671.4769,388.5811,669.5625,388.7115,669.693,387.6325,670.2139,386.9344,671.1159,386.2829,672.0643,385.3608,672.7423,384.5811,673.5625,384.5971,673.5786,383.7735,672.755,383.0231,672.0046,382.2374,671.2189,381.5191,670.5005,380.5811,669.5625" style="stroke:#181818;stroke-width:1;"/><path d="M219.2734,589.625 L219.2734,589.9052 L208.8402,589.0726 L198.4069,589.8827 L187.9736,590.1579 L177.5404,588.6738 L167.1071,589.5214 L156.6738,589.625" fill="#181818"/><path d="M156.6738,589.625 L156.7672,589.625 L156.4897,594.025 L156.7597,598.425 L156.8515,602.825 L156.3568,607.225 L156.6738,611.625" fill="#181818"/><polygon fill="#181818" points="152.6738,601.625,152.7389,601.651,153.3456,603.5737,154.3336,605.6489,155.1975,607.6745,155.653,609.5367,156.6738,611.625,156.6498,611.6154,157.3418,609.5722,158.1551,607.5775,159.0527,605.6166,159.6599,603.5394,160.6738,601.625,160.8043,601.7555,159.7253,602.2764,159.0272,603.1784,158.3756,604.1268,157.4536,604.8048,156.6738,605.625,156.6899,605.6411,155.8663,604.8175,155.1159,604.0671,154.3302,603.2814,153.6119,602.563,152.6738,601.625" style="stroke:#181818;stroke-width:1;"/><path d="M321.9814,589.625 L321.9814,589.9052 L332.4147,589.0726 L342.848,589.8827 L353.2813,590.1579 L363.7145,588.6738 L374.1478,589.5214 L384.5811,589.625" fill="#181818"/><path d="M384.5811,589.625 L384.6745,589.625 L384.3969,594.025 L384.667,598.425 L384.7587,602.825 L384.264,607.225 L384.5811,611.625" fill="#181818"/><polygon fill="#181818" points="380.5811,601.625,380.6461,601.651,381.2528,603.5737,382.2409,605.6489,383.1048,607.6745,383.5603,609.5367,384.5811,611.625,384.557,611.6154,385.2491,609.5722,386.0624,607.5775,386.96,605.6166,387.5671,603.5394,388.5811,601.625,388.7115,601.7555,387.6325,602.2764,386.9344,603.1784,386.2829,604.1268,385.3608,604.8048,384.5811,605.625,384.5971,605.6411,383.7735,604.8175,383.0231,604.0671,382.2374,603.2814,381.5191,602.563,380.5811,601.625" style="stroke:#181818;stroke-width:1;"/><path d="M156.6738,659.5625 L156.9541,659.5625 L156.1214,669.8438 L156.9315,680.125 L157.2067,690.4063 L155.7226,700.6875 L156.5702,710.9688 L156.1052,721.25 L156.6738,731.5313" fill="#181818"/><path d="M156.6738,731.5313 L156.6738,731.8115 L166.8692,730.9788 L177.0646,731.789 L187.2599,732.0642 L197.4553,730.5801 L207.6506,731.4276 L217.846,730.9626 L228.0414,731.0199 L238.2367,731.4404 L248.4321,730.6094 L258.6274,731.5313" fill="#181818"/><polygon fill="#181818" points="248.6274,727.5313,248.6535,727.5963,250.5761,728.203,252.6514,729.1911,254.6769,730.0549,256.5391,730.5105,258.6274,731.5313,258.6178,731.5072,256.5746,732.1993,254.58,733.0126,252.619,733.9102,250.5419,734.5173,248.6274,735.5313,248.7579,735.6617,249.2789,734.5827,250.1808,733.8846,251.1293,733.2331,251.8072,732.311,252.6274,731.5313,252.6435,731.5473,251.8199,730.7237,251.0695,729.9733,250.2838,729.1876,249.5655,728.4693,248.6274,727.5313" style="stroke:#181818;stroke-width:1;"/><path d="M384.5811,713.5313 L384.6745,713.5313 L384.3969,717.1313 L384.667,720.7313 L384.7587,724.3313 L384.264,727.9313 L384.5811,731.5313" fill="#181818"/><path d="M384.5811,731.5313 L384.5811,731.8115 L374.3857,730.9788 L364.1903,731.789 L353.995,732.0642 L343.7996,730.5801 L333.6042,731.4276 L323.4089,730.9626 L313.2135,731.0199 L303.0182,731.4404 L292.8228,730.6094 L282.6274,731.5313" fill="#181818"/><polygon fill="#181818" points="292.6274,727.5313,292.6535,727.5963,290.5761,728.203,288.6514,729.1911,286.6769,730.0549,284.5391,730.5105,282.6274,731.5313,282.6178,731.5072,284.5746,732.1993,286.58,733.0126,288.619,733.9102,290.5419,734.5173,292.6274,735.5313,292.7579,735.6617,291.6789,734.5827,290.9808,733.8846,290.3293,733.2331,289.4072,732.311,288.6274,731.5313,288.6435,731.5473,289.4199,730.7237,290.2695,729.9733,291.0838,729.1876,291.9655,728.4693,292.6274,727.5313" style="stroke:#181818;stroke-width:1;"/><path d="M270.6274,557.625 L270.7209,557.625 L270.4433,561.625 L270.7133,565.625 L270.8051,569.625 L270.3104,573.625 L270.6274,577.625" fill="#181818"/><polygon fill="#181818" points="266.6274,567.625,266.6925,567.651,267.2992,569.5737,268.2873,571.6489,269.1511,573.6745,269.6067,575.5367,270.6274,577.625,270.6034,577.6154,271.2954,575.5722,272.1088,573.5775,273.0063,571.6166,273.6135,569.5394,274.6274,567.625,274.7579,567.7555,273.6789,568.2764,272.9808,569.1784,272.3293,570.1268,271.4072,570.8048,270.6274,571.625,270.6435,571.6411,269.8199,570.8175,269.0695,570.0671,268.2838,569.2814,267.5655,568.563,266.6274,567.625" style="stroke:#181818;stroke-width:1;"/><path d="M328.241,203.875 L328.241,204.1552 L318.6387,203.3226 L309.0365,204.1327 L299.4342,204.4079 L289.8319,202.9238 L280.2297,203.7714 L270.6274,203.875" fill="#181818"/><path d="M270.6274,203.875 L270.7209,203.875 L270.4433,208.275 L270.7133,212.675 L270.8051,217.075 L270.3104,221.475 L270.6274,225.875" fill="#181818"/><polygon fill="#181818" points="266.6274,215.875,266.6925,215.901,267.2992,217.8237,268.2873,219.8989,269.1511,221.9245,269.6067,223.7867,270.6274,225.875,270.6034,225.8654,271.2954,223.8222,272.1088,221.8275,273.0063,219.8666,273.6135,217.7894,274.6274,215.875,274.7579,216.0055,273.6789,216.5264,272.9808,217.4284,272.3293,218.3768,271.4072,219.0548,270.6274,219.875,270.6435,219.8911,269.8199,219.0675,269.0695,218.3171,268.2838,217.5314,267.5655,216.813,266.6274,215.875" style="stroke:#181818;stroke-width:1;"/><path d="M493.6511,203.875 L493.6511,204.1552 L503.2534,203.3226 L512.8556,204.1327 L522.4579,204.4079 L532.0601,202.9238 L541.6624,203.7714 L551.2646,203.875" fill="#181818"/><path d="M551.2646,203.875 L551.3581,203.875 L551.0805,208.275 L551.3506,212.675 L551.4423,217.075 L550.9476,221.475 L551.2646,225.875" fill="#181818"/><polygon fill="#181818" points="547.2646,215.875,547.3297,215.901,547.9364,217.8237,548.9245,219.8989,549.7883,221.9245,550.2439,223.7867,551.2646,225.875,551.2406,225.8654,551.9327,223.8222,552.746,221.8275,553.6436,219.8666,554.2507,217.7894,555.2646,215.875,555.3951,216.0055,554.3161,216.5264,553.618,217.4284,552.9665,218.3768,552.0444,219.0548,551.2646,219.875,551.2807,219.8911,550.4571,219.0675,549.7067,218.3171,548.921,217.5314,548.2027,216.813,547.2646,215.875" style="stroke:#181818;stroke-width:1;"/><path d="M270.6274,743.5313 L270.7209,743.5313 L270.4433,747.1313 L270.7133,750.7313 L270.8051,754.3313 L270.3104,757.9313 L270.6274,761.5313" fill="#181818"/><path d="M270.6274,761.5313 L270.6274,761.8115 L280.4981,760.9788 L290.3688,761.789 L300.2394,762.0642 L310.1101,760.5801 L319.9808,761.4276 L329.8514,760.9626 L339.7221,761.0199 L349.5927,761.4404 L359.4634,760.6094 L369.3341,762.2694 L379.2047,760.6909 L389.0754,761.2676 L398.946,761.5313" fill="#181818"/><polygon fill="#181818" points="388.946,757.5313,388.9721,757.5963,390.8948,758.203,392.97,759.1911,394.9955,760.0549,396.8577,760.5105,398.946,761.5313,398.9364,761.5072,396.8932,762.1993,394.8986,763.0126,392.9376,763.9102,390.8605,764.5173,388.946,765.5313,389.0765,765.6617,389.5975,764.5827,390.4994,763.8846,391.4479,763.2331,392.1258,762.311,392.946,761.5313,392.9621,761.5473,392.1385,760.7237,391.3881,759.9733,390.6024,759.1876,389.8841,758.4693,388.946,757.5313" style="stroke:#181818;stroke-width:1;"/><path d="M551.2646,259.8438 L551.5449,259.8438 L550.7122,269.8775 L551.5224,279.9113 L551.7976,289.945 L550.3135,299.9788 L551.161,310.0125 L550.696,320.0463 L550.7533,330.08 L551.1738,340.1138 L550.3428,350.1475 L552.0028,360.1813 L550.4243,370.215 L551.001,380.2488 L551.8406,390.2825 L551.1503,400.3162 L551.3556,410.35 L551.2221,420.3837 L551.5027,430.4175 L551.5835,440.4512 L552.0456,450.485 L552.1594,460.5187 L552.1703,470.5525 L551.6042,480.5862 L551.8828,490.62 L552.201,500.6538 L550.3031,510.6875 L552.1693,520.7213 L550.8693,530.755 L551.9764,540.7887 L550.6046,550.8225 L551.1733,560.8563 L552.2535,570.89 L551.1997,580.9237 L551.4051,590.9575 L551.7162,600.9913 L551.8196,611.025 L551.2594,621.0587 L551.6476,631.0925 L550.5014,641.1263 L551.6438,651.16 L551.9956,661.1937 L551.8574,671.2275 L552.082,681.2613 L550.6205,691.295 L550.3951,701.3287 L550.4361,711.3625 L551.1861,721.3963 L551.0026,731.43 L552.1732,741.4638 L551.0317,751.4975 L551.2646,761.5313" fill="#181818"/><path d="M551.2646,761.5313 L551.2646,761.8115 L541.394,760.9788 L531.5233,761.789 L521.6527,762.0642 L511.782,760.5801 L501.9113,761.4276 L492.0407,760.9626 L482.17,761.0199 L472.2994,761.4404 L462.4287,760.6094 L452.558,762.2694 L442.6874,760.6909 L432.8167,761.2676 L422.946,761.5313" fill="#181818"/><polygon fill="#181818" points="432.946,757.5313,432.9721,757.5963,430.8948,758.203,428.97,759.1911,426.9955,760.0549,424.8577,760.5105,422.946,761.5313,422.9364,761.5072,424.8932,762.1993,426.8986,763.0126,428.9376,763.9102,430.8605,764.5173,432.946,765.5313,433.0765,765.6617,431.9975,764.5827,431.2994,763.8846,430.6479,763.2331,429.7258,762.311,428.946,761.5313,428.9621,761.5473,429.7385,760.7237,430.5881,759.9733,431.4024,759.1876,432.2841,758.4693,432.946,757.5313" style="stroke:#181818;stroke-width:1;"/><path d="M410.946,171.875 L411.0395,171.875 L410.7619,175.875 L411.032,179.875 L411.1237,183.875 L410.629,187.875 L410.946,191.875" fill="#181818"/><polygon fill="#181818" points="406.946,181.875,407.0111,181.901,407.6178,183.8237,408.6059,185.8989,409.4697,187.9245,409.9253,189.7867,410.946,191.875,410.922,191.8654,411.614,189.8222,412.4274,187.8275,413.325,185.8666,413.9321,183.7894,414.946,181.875,415.0765,182.0055,413.9975,182.5264,413.2994,183.4284,412.6479,184.3768,411.7258,185.0548,410.946,185.875,410.9621,185.8911,410.1385,185.0675,409.3881,184.3171,408.6024,183.5314,407.8841,182.813,406.946,181.875" style="stroke:#181818;stroke-width:1;"/><path d="M410.946,773.5313 L411.0395,773.5313 L410.7619,777.5313 L411.032,781.5313 L411.1237,785.5313 L410.629,789.5313 L410.946,793.5313" fill="#181818"/><polygon fill="#181818" points="406.946,783.5313,407.0111,783.5573,407.6178,785.48,408.6059,787.5552,409.4697,789.5807,409.9253,791.4429,410.946,793.5313,410.922,793.5216,411.614,791.4785,412.4274,789.4838,413.325,787.5228,413.9321,785.4457,414.946,783.5313,415.0765,783.6617,413.9975,784.1827,413.2994,785.0846,412.6479,786.0331,411.7258,786.711,410.946,787.5313,410.9621,787.5473,410.1385,786.7237,409.3881,785.9733,408.6024,785.1876,407.8841,784.4693,406.946,783.5313" style="stroke:#181818;stroke-width:1;"/><?plantuml-src lLFDRjD04BxlKymnEUG54Wc92qTU03XOn24MYLtPM_LiS48LyGu8gZIsYQdSD6tT9vbz6xvPkxPRE73YO7bsP-RxlldPwAFddpYXiwIvuq_FGazhroSTdhegQbtBm0_UpyDWwJxtH7Dd6fnv_WUQEOkexvcwC-TqeLy5ldxj8F5bw3aBfRId5oxnqMnuPzQSaLcPSzxn0HSbmSpnmMiINEQ4eCIi-9P_oL6fI3kXLcfiOYxuY6Gk-T9i2579SoIaFaLxwmyuvmDIKlvAC7-Op_28YUnuE57Acz70V349sSmzNmd5ZGtB92FdEvXfhm3-DYGzHyy6E5LcDLH4OwxuMa0wzPaesaB99rp6L8lZ6tuGSHERa_EHInmRxm6IBm62ijOrqfhlyLyrqN9ie_-fzYrVMqVsI5-29BLzRbAaeWDVuKg-V5XJRG4Z80NnXJaduK5oAZ5DaNo1NW6Slpz2YwQOCw4jq40HbwFJLbBI782sXfb2TDfILPRSDdkFgZPS_QNu7JgQM-bbJNZB3tpN5bxF6ECawWPgw-lbMUuzr7K3H82CZsWqUcFZAo2A65alEvy2Weftez6B_zaM5o-hlrv_DAfPeoVxDca2PGj-oju1Lm0wSUqAMmv_wirKmzJqOIn6znAWM1ectUY_tnXkhAt0r21ufC79Rm00?></g></svg>