<svg xmlns="http://www.w3.org/2000/svg" xmlns:xlink="http://www.w3.org/1999/xlink" contentStyleType="text/css" data-diagram-type="ACTIVITY" height="659px" preserveAspectRatio="none" style="width:669px;height:659px;background:#FFFFFF;" version="1.1" viewBox="0 0 669 659" width="669px" zoomAndPan="magnify"><title>&#1605;&#1582;&#1591;&#1591; &#1578;&#1585;&#1603;&#1610;&#1576; &#1605;&#1590;&#1582;&#1575;&#1578; &#1588;&#1585;&#1602; &#1575;&#1604;&#1585;&#1610;&#1575;&#1590; (&#1605;&#1582;&#1591;&#1591; &#1575;&#1606;&#1587;&#1610;&#1575;&#1576;&#1610;)</title><defs/><g><g class="title" data-source-line="1"><text fill="#000000" font-family="sans-serif" font-size="14" font-weight="bold" lengthAdjust="spacing" textLength="369.1338" x="148.4722" y="32.9951">&#1605;&#1582;&#1591;&#1591; &#1578;&#1585;&#1603;&#1610;&#1576; &#1605;&#1590;&#1582;&#1575;&#1578; &#1588;&#1585;&#1602; &#1575;&#1604;&#1585;&#1610;&#1575;&#1590; (&#1605;&#1582;&#1591;&#1591; &#1575;&#1606;&#1587;&#1610;&#1575;&#1576;&#1610;)</text></g><ellipse cx="206.6953" cy="57.2969" fill="#222222" rx="10" ry="10" style="stroke:#222222;stroke-width:1;"/><path d="M329.6338,91.7148 L329.6338,100.2813 L309.6338,104.2813 L329.6338,108.2813 L329.6338,116.8477 A0,0 0 0 0 329.6338,116.8477 L516.6885,116.8477 A0,0 0 0 0 516.6885,116.8477 L516.6885,101.7148 L506.6885,91.7148 L329.6338,91.7148 A0,0 0 0 0 329.6338,91.7148" fill="#FEFFDD" style="stroke:#181818;stroke-width:0.5;"/><path d="M506.6885,91.7148 L506.6885,101.7148 L516.6885,101.7148 L506.6885,91.7148" fill="#FEFFDD" style="stroke:#181818;stroke-width:0.5;"/><text fill="#000000" font-family="sans-serif" font-size="13" lengthAdjust="spacing" textLength="166.0547" x="335.6338" y="108.7817">&#1610;&#1588;&#1605;&#1604; &#1575;&#1604;&#1581;&#1601;&#1585; &#1608;&#1575;&#1604;&#1578;&#1580;&#1607;&#1610;&#1586; &#1575;&#1604;&#1571;&#1587;&#1575;&#1587;&#1610;</text><rect fill="#F1F1F1" height="33.9688" rx="12.5" ry="12.5" style="stroke:#181818;stroke-width:0.5;" width="205.877" x="103.7568" y="87.2969"/><text fill="#000000" font-family="sans-serif" font-size="12" lengthAdjust="spacing" textLength="185.877" x="113.7568" y="108.4355">&#1578;&#1581;&#1583;&#1610;&#1583; &#1605;&#1608;&#1602;&#1593; &#1575;&#1604;&#1578;&#1585;&#1603;&#1610;&#1576; &#1608;&#1605;&#1587;&#1575;&#1585; &#1575;&#1604;&#1578;&#1605;&#1583;&#1610;&#1583;&#1575;&#1578;</text><rect fill="#F1F1F1" height="33.9688" rx="12.5" ry="12.5" style="stroke:#181818;stroke-width:0.5;" width="319.4199" x="46.9854" y="141.2656"/><text fill="#000000" font-family="sans-serif" font-size="12" lengthAdjust="spacing" textLength="299.4199" x="56.9854" y="162.4043">&#1601;&#1581;&#1589; &#1575;&#1604;&#1605;&#1590;&#1582;&#1577; &#1608;&#1587;&#1604;&#1575;&#1605;&#1577; &#1575;&#1604;&#1605;&#1603;&#1608;&#1606;&#1575;&#1578; (&#1575;&#1604;&#1605;&#1581;&#1585;&#1603;&#1548; &#1575;&#1604;&#1580;&#1587;&#1605;&#1548; &#1575;&#1604;&#1605;&#1585;&#1608;&#1581;&#1577;)</text><rect fill="#F1F1F1" height="33.9688" rx="12.5" ry="12.5" style="stroke:#181818;stroke-width:0.5;" width="226.1621" x="93.6143" y="195.2344"/><text fill="#000000" font-family="sans-serif" font-size="12" lengthAdjust="spacing" textLength="206.1621" x="103.6143" y="216.373">&#1578;&#1579;&#1576;&#1610;&#1578; &#1602;&#1575;&#1593;&#1583;&#1577; &#1575;&#1604;&#1605;&#1590;&#1582;&#1577; &#1608;&#1578;&#1571;&#1605;&#1610;&#1606;&#1607;&#1575; &#1576;&#1605;&#1579;&#1576;&#1578;&#1575;&#1578; &#1602;&#1608;&#1610;&#1577;</text><path d="M422.3906,253.6211 L422.3906,262.1875 L402.3906,266.1875 L422.3906,270.1875 L422.3906,278.7539 A0,0 0 0 0 422.3906,278.7539 L657.0781,278.7539 A0,0 0 0 0 657.0781,278.7539 L657.0781,263.6211 L647.0781,253.6211 L422.3906,253.6211 A0,0 0 0 0 422.3906,253.6211" fill="#FEFFDD" style="stroke:#181818;stroke-width:0.5;"/><path d="M647.0781,253.6211 L647.0781,263.6211 L657.0781,263.6211 L647.0781,253.6211" fill="#FEFFDD" style="stroke:#181818;stroke-width:0.5;"/><text fill="#000000" font-family="sans-serif" font-size="13" lengthAdjust="spacing" textLength="213.6875" x="428.3906" y="270.688">&#1575;&#1587;&#1578;&#1582;&#1583;&#1575;&#1605; &#1571;&#1583;&#1608;&#1575;&#1578; &#1575;&#1604;&#1602;&#1610;&#1575;&#1587; &#1575;&#1604;&#1583;&#1602;&#1610;&#1602;&#1577; &#1604;&#1604;&#1605;&#1581;&#1575;&#1584;&#1575;&#1577;</text><rect fill="#F1F1F1" height="33.9688" rx="12.5" ry="12.5" style="stroke:#181818;stroke-width:0.5;" width="391.3906" x="11" y="249.2031"/><text fill="#000000" font-family="sans-serif" font-size="12" lengthAdjust="spacing" textLength="371.3906" x="21" y="270.3418">&#1578;&#1585;&#1603;&#1610;&#1576; &#1575;&#1604;&#1605;&#1590;&#1582;&#1577; &#1593;&#1604;&#1609; &#1575;&#1604;&#1602;&#1575;&#1593;&#1583;&#1577; &#1608;&#1605;&#1581;&#1575;&#1584;&#1575;&#1577; &#1575;&#1604;&#1605;&#1581;&#1608;&#1585; &#1605;&#1593; &#1575;&#1604;&#1605;&#1581;&#1585;&#1603; (&#1573;&#1584;&#1575; &#1603;&#1575;&#1606;&#1578; &#1605;&#1606;&#1601;&#1589;&#1604;&#1577;)</text><path d="M336.9727,307.5898 L336.9727,316.1563 L316.9727,320.1563 L336.9727,324.1563 L336.9727,332.7227 A0,0 0 0 0 336.9727,332.7227 L637.6948,332.7227 A0,0 0 0 0 637.6948,332.7227 L637.6948,317.5898 L627.6948,307.5898 L336.9727,307.5898 A0,0 0 0 0 336.9727,307.5898" fill="#FEFFDD" style="stroke:#181818;stroke-width:0.5;"/><path d="M627.6948,307.5898 L627.6948,317.5898 L637.6948,317.5898 L627.6948,307.5898" fill="#FEFFDD" style="stroke:#181818;stroke-width:0.5;"/><text fill="#000000" font-family="sans-serif" font-size="13" lengthAdjust="spacing" textLength="279.7222" x="342.9727" y="324.6567">&#1575;&#1604;&#1578;&#1571;&#1603;&#1583; &#1605;&#1606; &#1573;&#1581;&#1603;&#1575;&#1605; &#1575;&#1604;&#1594;&#1604;&#1602; &#1608;&#1575;&#1587;&#1578;&#1582;&#1583;&#1575;&#1605; &#1605;&#1608;&#1575;&#1583; &#1605;&#1575;&#1606;&#1593;&#1577; &#1604;&#1604;&#1578;&#1587;&#1585;&#1576;</text><rect fill="#F1F1F1" height="33.9688" rx="12.5" ry="12.5" style="stroke:#181818;stroke-width:0.5;" width="220.5547" x="96.418" y="303.1719"/><text fill="#000000" font-family="sans-serif" font-size="12" lengthAdjust="spacing" textLength="200.5547" x="106.418" y="324.3105">&#1578;&#1608;&#1589;&#1610;&#1604; &#1582;&#1591;&#1608;&#1591; &#1575;&#1604;&#1587;&#1581;&#1576; &#1608;&#1575;&#1604;&#1591;&#1585;&#1583; (&#1575;&#1604;&#1587;&#1576;&#1575;&#1603;&#1577;)</text><path d="M363.6387,361.5586 L363.6387,370.125 L343.6387,374.125 L363.6387,378.125 L363.6387,386.6914 A0,0 0 0 0 363.6387,386.6914 L621.8252,386.6914 A0,0 0 0 0 621.8252,386.6914 L621.8252,371.5586 L611.8252,361.5586 L363.6387,361.5586 A0,0 0 0 0 363.6387,361.5586" fill="#FEFFDD" style="stroke:#181818;stroke-width:0.5;"/><path d="M611.8252,361.5586 L611.8252,371.5586 L621.8252,371.5586 L611.8252,361.5586" fill="#FEFFDD" style="stroke:#181818;stroke-width:0.5;"/><text fill="#000000" font-family="sans-serif" font-size="13" lengthAdjust="spacing" textLength="237.1865" x="369.6387" y="378.6255">&#1605;&#1591;&#1575;&#1576;&#1602;&#1577; &#1575;&#1604;&#1605;&#1608;&#1575;&#1589;&#1601;&#1575;&#1578; &#1575;&#1604;&#1603;&#1607;&#1585;&#1576;&#1575;&#1574;&#1610;&#1577; &#1608;&#1578;&#1571;&#1605;&#1610;&#1606; &#1575;&#1604;&#1581;&#1605;&#1575;&#1610;&#1577;</text><rect fill="#F1F1F1" height="33.9688" rx="12.5" ry="12.5" style="stroke:#181818;stroke-width:0.5;" width="273.8867" x="69.752" y="357.1406"/><text fill="#000000" font-family="sans-serif" font-size="12" lengthAdjust="spacing" textLength="253.8867" x="79.752" y="378.2793">&#1578;&#1608;&#1589;&#1610;&#1604; &#1575;&#1604;&#1578;&#1605;&#1583;&#1610;&#1583;&#1575;&#1578; &#1575;&#1604;&#1603;&#1607;&#1585;&#1576;&#1575;&#1574;&#1610;&#1577; (&#1575;&#1604;&#1605;&#1581;&#1585;&#1603;&#1548; &#1604;&#1608;&#1581;&#1577; &#1575;&#1604;&#1578;&#1581;&#1603;&#1605;)</text><rect fill="#F1F1F1" height="33.9688" rx="12.5" ry="12.5" style="stroke:#181818;stroke-width:0.5;" width="187.8301" x="112.7803" y="411.1094"/><text fill="#000000" font-family="sans-serif" font-size="12" lengthAdjust="spacing" textLength="167.8301" x="122.7803" y="432.248">&#1605;&#1604;&#1569; &#1606;&#1592;&#1575;&#1605; &#1575;&#1604;&#1590;&#1582; &#1576;&#1575;&#1604;&#1605;&#1575;&#1569; (Priming)</text><rect fill="#F1F1F1" height="33.9688" rx="12.5" ry="12.5" style="stroke:#181818;stroke-width:0.5;" width="218.3691" x="97.5107" y="465.0781"/><text fill="#000000" font-family="sans-serif" font-size="12" lengthAdjust="spacing" textLength="198.3691" x="107.5107" y="486.2168">&#1575;&#1582;&#1578;&#1576;&#1575;&#1585; &#1575;&#1604;&#1578;&#1588;&#1594;&#1610;&#1604; &#1575;&#1604;&#1571;&#1608;&#1604;&#1610; (&#1576;&#1583;&#1608;&#1606; &#1581;&#1605;&#1604; &#1603;&#1575;&#1605;&#1604;)</text><rect fill="#F1F1F1" height="33.9688" rx="12.5" ry="12.5" style="stroke:#181818;stroke-width:0.5;" width="268.0273" x="72.6816" y="519.0469"/><text fill="#000000" font-family="sans-serif" font-size="12" lengthAdjust="spacing" textLength="248.0273" x="82.6816" y="540.1855">&#1590;&#1576;&#1591; &#1573;&#1593;&#1583;&#1575;&#1583;&#1575;&#1578; &#1575;&#1604;&#1590;&#1594;&#1591; &#1608;&#1578;&#1583;&#1601;&#1602; &#1575;&#1604;&#1605;&#1610;&#1575;&#1607; (&#1573;&#1584;&#1575; &#1604;&#1586;&#1605; &#1575;&#1604;&#1571;&#1605;&#1585;)</text><rect fill="#F1F1F1" height="33.9688" rx="12.5" ry="12.5" style="stroke:#181818;stroke-width:0.5;" width="199.209" x="107.0908" y="573.0156"/><text fill="#000000" font-family="sans-serif" font-size="12" lengthAdjust="spacing" textLength="179.209" x="117.0908" y="594.1543">&#1575;&#1604;&#1578;&#1588;&#1594;&#1610;&#1604; &#1575;&#1604;&#1603;&#1575;&#1605;&#1604; &#1608;&#1575;&#1582;&#1578;&#1576;&#1575;&#1585; &#1575;&#1604;&#1571;&#1583;&#1575;&#1569; &#1575;&#1604;&#1606;&#1607;&#1575;&#1574;&#1610;</text><ellipse cx="206.6953" cy="637.9844" fill="none" rx="11" ry="11" style="stroke:#222222;stroke-width:1;"/><ellipse cx="206.6953" cy="637.9844" fill="#222222" rx="6" ry="6" style="stroke:#222222;stroke-width:1;"/><line style="stroke:#181818;stroke-width:1;" x1="206.6953" x2="206.6953" y1="67.2969" y2="87.2969"/><polygon fill="#181818" points="202.6953,77.2969,206.6953,87.2969,210.6953,77.2969,206.6953,81.2969" style="stroke:#181818;stroke-width:1;"/><line style="stroke:#181818;stroke-width:1;" x1="206.6953" x2="206.6953" y1="121.2656" y2="141.2656"/><polygon fill="#181818" points="202.6953,131.2656,206.6953,141.2656,210.6953,131.2656,206.6953,135.2656" style="stroke:#181818;stroke-width:1;"/><line style="stroke:#181818;stroke-width:1;" x1="206.6953" x2="206.6953" y1="175.2344" y2="195.2344"/><polygon fill="#181818" points="202.6953,185.2344,206.6953,195.2344,210.6953,185.2344,206.6953,189.2344" style="stroke:#181818;stroke-width:1;"/><line style="stroke:#181818;stroke-width:1;" x1="206.6953" x2="206.6953" y1="229.2031" y2="249.2031"/><polygon fill="#181818" points="202.6953,239.2031,206.6953,249.2031,210.6953,239.2031,206.6953,243.2031" style="stroke:#181818;stroke-width:1;"/><line style="stroke:#181818;stroke-width:1;" x1="206.6953" x2="206.6953" y1="283.1719" y2="303.1719"/><polygon fill="#181818" points="202.6953,293.1719,206.6953,303.1719,210.6953,293.1719,206.6953,297.1719" style="stroke:#181818;stroke-width:1;"/><line style="stroke:#181818;stroke-width:1;" x1="206.6953" x2="206.6953" y1="337.1406" y2="357.1406"/><polygon fill="#181818" points="202.6953,347.1406,206.6953,357.1406,210.6953,347.1406,206.6953,351.1406" style="stroke:#181818;stroke-width:1;"/><line style="stroke:#181818;stroke-width:1;" x1="206.6953" x2="206.6953" y1="391.1094" y2="411.1094"/><polygon fill="#181818" points="202.6953,401.1094,206.6953,411.1094,210.6953,401.1094,206.6953,405.1094" style="stroke:#181818;stroke-width:1;"/><line style="stroke:#181818;stroke-width:1;" x1="206.6953" x2="206.6953" y1="445.0781" y2="465.0781"/><polygon fill="#181818" points="202.6953,455.0781,206.6953,465.0781,210.6953,455.0781,206.6953,459.0781" style="stroke:#181818;stroke-width:1;"/><line style="stroke:#181818;stroke-width:1;" x1="206.6953" x2="206.6953" y1="499.0469" y2="519.0469"/><polygon fill="#181818" points="202.6953,509.0469,206.6953,519.0469,210.6953,509.0469,206.6953,513.0469" style="stroke:#181818;stroke-width:1;"/><line style="stroke:#181818;stroke-width:1;" x1="206.6953" x2="206.6953" y1="553.0156" y2="573.0156"/><polygon fill="#181818" points="202.6953,563.0156,206.6953,573.0156,210.6953,563.0156,206.6953,567.0156" style="stroke:#181818;stroke-width:1;"/><line style="stroke:#181818;stroke-width:1;" x1="206.6953" x2="206.6953" y1="606.9844" y2="626.9844"/><polygon fill="#181818" points="202.6953,616.9844,206.6953,626.9844,210.6953,616.9844,206.6953,620.9844" style="stroke:#181818;stroke-width:1;"/></g></svg>