<svg xmlns="http://www.w3.org/2000/svg" xmlns:xlink="http://www.w3.org/1999/xlink" contentStyleType="text/css" data-diagram-type="ACTIVITY" height="672px" preserveAspectRatio="none" style="width:531px;height:672px;background:#FFFFFF;" version="1.1" viewBox="0 0 531 672" width="531px" zoomAndPan="magnify"><title>&#1605;&#1582;&#1591;&#1591; &#1587;&#1610;&#1585; &#1593;&#1605;&#1604; &#1589;&#1610;&#1575;&#1606;&#1577; &#1605;&#1590;&#1582;&#1575;&#1578; &#1575;&#1604;&#1585;&#1610;&#1575;&#1590; (&#1582;&#1583;&#1605;&#1577; 24/7)</title><defs/><g><g class="title" data-source-line="1"><text fill="#000000" font-family="sans-serif" font-size="14" font-weight="bold" lengthAdjust="spacing" textLength="361.8467" x="83.4521" y="32.9951">&#1605;&#1582;&#1591;&#1591; &#1587;&#1610;&#1585; &#1593;&#1605;&#1604; &#1589;&#1610;&#1575;&#1606;&#1577; &#1605;&#1590;&#1582;&#1575;&#1578; &#1575;&#1604;&#1585;&#1610;&#1575;&#1590; (&#1582;&#1583;&#1605;&#1577; 24/7)</text></g><ellipse cx="263.7571" cy="57.2969" fill="#222222" rx="10" ry="10" style="stroke:#222222;stroke-width:1;"/><path d="M405.7468,92.8789 L405.7468,101.4453 L385.7468,105.4453 L405.7468,109.4453 L405.7468,118.0117 A0,0 0 0 0 405.7468,118.0117 L512.053,118.0117 A0,0 0 0 0 512.053,118.0117 L512.053,102.8789 L502.053,92.8789 L405.7468,92.8789 A0,0 0 0 0 405.7468,92.8789" fill="#FEFFDD" style="stroke:#181818;stroke-width:0.5;"/><path d="M502.053,92.8789 L502.053,102.8789 L512.053,102.8789 L502.053,92.8789" fill="#FEFFDD" style="stroke:#181818;stroke-width:0.5;"/><text fill="#000000" font-family="sans-serif" font-size="13" lengthAdjust="spacing" textLength="85.3062" x="411.7468" y="109.9458">&#1585;&#1608;&#1575;&#1574;&#1593; &#1575;&#1604;&#1603;&#1585;&#1610;&#1587;&#1578;&#1575;&#1604;</text><rect fill="#CCCCFF" height="36.2969" rx="12.5" ry="12.5" style="stroke:#333366;stroke-width:0.5;" width="243.9795" x="141.7673" y="87.2969"/><text fill="#000000" font-family="sans-serif" font-size="14" lengthAdjust="spacing" textLength="219.5293" x="156.2175" y="110.292">&#1575;&#1578;&#1589;&#1575;&#1604; &#1575;&#1604;&#1593;&#1605;&#1610;&#1604; / &#1591;&#1604;&#1576; &#1575;&#1604;&#1591;&#1608;&#1575;&#1585;&#1574; (24/7)</text><path d="M31.9451,149.1758 L31.9451,174.3086 A0,0 0 0 0 31.9451,174.3086 L140.3269,174.3086 A0,0 0 0 0 140.3269,174.3086 L140.3269,167.1758 L160.3269,161.7422 L140.3269,159.1758 L140.3269,159.1758 L130.3269,149.1758 L31.9451,149.1758 A0,0 0 0 0 31.9451,149.1758" fill="#FEFFDD" style="stroke:#181818;stroke-width:0.5;"/><path d="M130.3269,149.1758 L130.3269,159.1758 L140.3269,159.1758 L130.3269,149.1758" fill="#FEFFDD" style="stroke:#181818;stroke-width:0.5;"/><text fill="#000000" font-family="sans-serif" font-size="13" lengthAdjust="spacing" textLength="87.3818" x="37.9451" y="166.2427">&#1575;&#1604;&#1580;&#1583;&#1608;&#1604;&#1577; &#1608;&#1575;&#1604;&#1578;&#1580;&#1607;&#1610;&#1586;</text><rect fill="#CCCCFF" height="36.2969" rx="12.5" ry="12.5" style="stroke:#333366;stroke-width:0.5;" width="206.8604" x="160.3269" y="143.5938"/><text fill="#000000" font-family="sans-serif" font-size="14" lengthAdjust="spacing" textLength="182.4102" x="174.7771" y="166.5889">&#1575;&#1587;&#1578;&#1580;&#1575;&#1576;&#1577; &#1587;&#1585;&#1610;&#1593;&#1577; &#1608;&#1578;&#1581;&#1583;&#1610;&#1583; &#1575;&#1604;&#1605;&#1588;&#1603;&#1604;&#1577;</text><rect fill="none" height="317.4844" style="stroke:#000000;stroke-width:1.5;" width="509.751" x="11" y="189.8906"/><path d="M172.8262,189.8906 L172.8262,199.1875 L162.8262,209.1875 L11,209.1875" fill="none" style="stroke:#000000;stroke-width:1.5;"/><text fill="#000000" font-family="sans-serif" font-size="14" lengthAdjust="spacing" textLength="151.8262" x="14" y="203.8857">&#1575;&#1604;&#1593;&#1605;&#1604; &#1575;&#1604;&#1605;&#1610;&#1583;&#1575;&#1606;&#1610; &#1608;&#1575;&#1604;&#1578;&#1588;&#1582;&#1610;&#1589;</text><rect fill="#CCCCFF" height="36.2969" rx="12.5" ry="12.5" style="stroke:#333366;stroke-width:0.5;" width="182.4014" x="172.5564" y="226.1875"/><text fill="#000000" font-family="sans-serif" font-size="14" lengthAdjust="spacing" textLength="157.9512" x="187.0066" y="249.1826">&#1608;&#1589;&#1608;&#1604; &#1601;&#1585;&#1610;&#1602; &#1575;&#1604;&#1589;&#1610;&#1575;&#1606;&#1577; &#1604;&#1604;&#1605;&#1608;&#1602;&#1593;</text><rect fill="#CCCCFF" height="36.2969" rx="12.5" ry="12.5" style="stroke:#333366;stroke-width:0.5;" width="268.541" x="129.4866" y="282.4844"/><text fill="#000000" font-family="sans-serif" font-size="14" lengthAdjust="spacing" textLength="244.0908" x="143.9368" y="305.4795">&#1601;&#1581;&#1589; &#1575;&#1604;&#1605;&#1590;&#1582;&#1577; &#1608;&#1578;&#1588;&#1582;&#1610;&#1589; &#1575;&#1604;&#1571;&#1593;&#1591;&#1575;&#1604; &#1575;&#1604;&#1585;&#1574;&#1610;&#1587;&#1610;&#1577;</text><polygon fill="#CCCCFF" points="189.6692,338.7813,337.845,338.7813,349.845,350.7813,337.845,362.7813,189.6692,362.7813,177.6692,350.7813,189.6692,338.7813" style="stroke:#333366;stroke-width:0.5;"/><text fill="#000000" font-family="sans-serif" font-size="14" lengthAdjust="spacing" textLength="148.1758" x="189.6692" y="355.6279">&#1607;&#1604; &#1610;&#1578;&#1591;&#1604;&#1576; &#1573;&#1589;&#1604;&#1575;&#1581;&#1575;&#1611; &#1587;&#1585;&#1610;&#1593;&#1575;&#1611;&#1567;</text><text fill="#000000" font-family="sans-serif" font-size="11" lengthAdjust="spacing" textLength="15.689" x="161.9802" y="348.187">&#1606;&#1593;&#1605;</text><text fill="#000000" font-family="sans-serif" font-size="11" lengthAdjust="spacing" textLength="88.0322" x="349.845" y="348.187">&#1604;&#1575;&#1548; &#1610;&#1578;&#1591;&#1604;&#1576; &#1602;&#1591;&#1593; &#1594;&#1610;&#1575;&#1585;</text><rect fill="#CCCCFF" height="36.2969" rx="12.5" ry="12.5" style="stroke:#333366;stroke-width:0.5;" width="232.6387" x="23" y="372.7813"/><text fill="#000000" font-family="sans-serif" font-size="14" lengthAdjust="spacing" textLength="208.1885" x="37.4502" y="395.7764">&#1578;&#1606;&#1601;&#1610;&#1584; &#1571;&#1593;&#1605;&#1575;&#1604; &#1575;&#1604;&#1589;&#1610;&#1575;&#1606;&#1577; &#1608;&#1575;&#1604;&#1573;&#1589;&#1604;&#1575;&#1581; &#1575;&#1604;&#1601;&#1608;&#1585;&#1610;</text><rect fill="#CCCCFF" height="36.2969" rx="12.5" ry="12.5" style="stroke:#333366;stroke-width:0.5;" width="204.7686" x="285.8105" y="372.7813"/><text fill="#000000" font-family="sans-serif" font-size="14" lengthAdjust="spacing" textLength="180.3184" x="300.2607" y="395.7764">&#1591;&#1604;&#1576; &#1608;&#1578;&#1608;&#1601;&#1610;&#1585; &#1602;&#1591;&#1593; &#1575;&#1604;&#1594;&#1610;&#1575;&#1585; &#1575;&#1604;&#1571;&#1589;&#1604;&#1610;&#1577;</text><rect fill="#CCCCFF" height="36.2969" rx="12.5" ry="12.5" style="stroke:#333366;stroke-width:0.5;" width="225.1123" x="275.6387" y="429.0781"/><text fill="#000000" font-family="sans-serif" font-size="14" lengthAdjust="spacing" textLength="200.6621" x="290.0889" y="452.0732">&#1575;&#1587;&#1578;&#1576;&#1583;&#1575;&#1604; &#1575;&#1604;&#1571;&#1580;&#1586;&#1575;&#1569; &#1571;&#1608; &#1575;&#1604;&#1605;&#1590;&#1582;&#1577; &#1576;&#1575;&#1604;&#1603;&#1575;&#1605;&#1604;</text><polygon fill="#CCCCFF" points="263.7571,471.375,275.7571,483.375,263.7571,495.375,251.7571,483.375,263.7571,471.375" style="stroke:#333366;stroke-width:0.5;"/><rect fill="#CCCCFF" height="36.2969" rx="12.5" ry="12.5" style="stroke:#333366;stroke-width:0.5;" width="219.083" x="154.2156" y="527.375"/><text fill="#000000" font-family="sans-serif" font-size="14" lengthAdjust="spacing" textLength="194.6328" x="168.6658" y="550.3701">&#1575;&#1582;&#1578;&#1576;&#1575;&#1585; &#1571;&#1583;&#1575;&#1569; &#1575;&#1604;&#1605;&#1590;&#1582;&#1577; &#1608;&#1590;&#1605;&#1575;&#1606; &#1575;&#1604;&#1580;&#1608;&#1583;&#1577;</text><rect fill="#CCCCFF" height="36.2969" rx="12.5" ry="12.5" style="stroke:#333366;stroke-width:0.5;" width="226.2949" x="150.6096" y="583.6719"/><text fill="#000000" font-family="sans-serif" font-size="14" lengthAdjust="spacing" textLength="201.8447" x="165.0598" y="606.667">&#1578;&#1587;&#1604;&#1610;&#1605; &#1578;&#1602;&#1585;&#1610;&#1585; &#1575;&#1604;&#1582;&#1583;&#1605;&#1577; &#1608;&#1578;&#1571;&#1603;&#1610;&#1583; &#1575;&#1604;&#1578;&#1588;&#1594;&#1610;&#1604;</text><ellipse cx="263.7571" cy="650.9688" fill="none" rx="11" ry="11" style="stroke:#222222;stroke-width:1;"/><ellipse cx="263.7571" cy="650.9688" fill="#222222" rx="6" ry="6" style="stroke:#222222;stroke-width:1;"/><line style="stroke:#333366;stroke-width:1;" x1="263.7571" x2="263.7571" y1="67.2969" y2="87.2969"/><polygon fill="#333366" points="259.7571,77.2969,263.7571,87.2969,267.7571,77.2969,263.7571,81.2969" style="stroke:#333366;stroke-width:1;"/><line style="stroke:#333366;stroke-width:1;" x1="263.7571" x2="263.7571" y1="123.5938" y2="143.5938"/><polygon fill="#333366" points="259.7571,133.5938,263.7571,143.5938,267.7571,133.5938,263.7571,137.5938" style="stroke:#333366;stroke-width:1;"/><line style="stroke:#333366;stroke-width:1;" x1="263.7571" x2="263.7571" y1="262.4844" y2="282.4844"/><polygon fill="#333366" points="259.7571,272.4844,263.7571,282.4844,267.7571,272.4844,263.7571,276.4844" style="stroke:#333366;stroke-width:1;"/><line style="stroke:#333366;stroke-width:1;" x1="388.1948" x2="388.1948" y1="409.0781" y2="429.0781"/><polygon fill="#333366" points="384.1948,419.0781,388.1948,429.0781,392.1948,419.0781,388.1948,423.0781" style="stroke:#333366;stroke-width:1;"/><line style="stroke:#333366;stroke-width:1;" x1="177.6692" x2="139.3193" y1="350.7813" y2="350.7813"/><line style="stroke:#333366;stroke-width:1;" x1="139.3193" x2="139.3193" y1="350.7813" y2="372.7813"/><polygon fill="#333366" points="135.3193,362.7813,139.3193,372.7813,143.3193,362.7813,139.3193,366.7813" style="stroke:#333366;stroke-width:1;"/><line style="stroke:#333366;stroke-width:1;" x1="349.845" x2="388.1948" y1="350.7813" y2="350.7813"/><line style="stroke:#333366;stroke-width:1;" x1="388.1948" x2="388.1948" y1="350.7813" y2="372.7813"/><polygon fill="#333366" points="384.1948,362.7813,388.1948,372.7813,392.1948,362.7813,388.1948,366.7813" style="stroke:#333366;stroke-width:1;"/><line style="stroke:#333366;stroke-width:1;" x1="139.3193" x2="139.3193" y1="409.0781" y2="483.375"/><line style="stroke:#333366;stroke-width:1;" x1="139.3193" x2="251.7571" y1="483.375" y2="483.375"/><polygon fill="#333366" points="241.7571,479.375,251.7571,483.375,241.7571,487.375,245.7571,483.375" style="stroke:#333366;stroke-width:1;"/><line style="stroke:#333366;stroke-width:1;" x1="388.1948" x2="388.1948" y1="465.375" y2="483.375"/><line style="stroke:#333366;stroke-width:1;" x1="388.1948" x2="275.7571" y1="483.375" y2="483.375"/><polygon fill="#333366" points="285.7571,479.375,275.7571,483.375,285.7571,487.375,281.7571,483.375" style="stroke:#333366;stroke-width:1;"/><line style="stroke:#333366;stroke-width:1;" x1="263.7571" x2="263.7571" y1="318.7813" y2="338.7813"/><polygon fill="#333366" points="259.7571,328.7813,263.7571,338.7813,267.7571,328.7813,263.7571,332.7813" style="stroke:#333366;stroke-width:1;"/><line style="stroke:#333366;stroke-width:1;" x1="263.7571" x2="263.7571" y1="179.8906" y2="226.1875"/><polygon fill="#333366" points="259.7571,216.1875,263.7571,226.1875,267.7571,216.1875,263.7571,220.1875" style="stroke:#333366;stroke-width:1;"/><line style="stroke:#333366;stroke-width:1;" x1="263.7571" x2="263.7571" y1="495.375" y2="527.375"/><polygon fill="#333366" points="259.7571,517.375,263.7571,527.375,267.7571,517.375,263.7571,521.375" style="stroke:#333366;stroke-width:1;"/><line style="stroke:#333366;stroke-width:1;" x1="263.7571" x2="263.7571" y1="563.6719" y2="583.6719"/><polygon fill="#333366" points="259.7571,573.6719,263.7571,583.6719,267.7571,573.6719,263.7571,577.6719" style="stroke:#333366;stroke-width:1;"/><line style="stroke:#333366;stroke-width:1;" x1="263.7571" x2="263.7571" y1="619.9688" y2="639.9688"/><polygon fill="#333366" points="259.7571,629.9688,263.7571,639.9688,267.7571,629.9688,263.7571,633.9688" style="stroke:#333366;stroke-width:1;"/></g></svg>