<?plantuml 1.2026.2beta3?><svg xmlns="http://www.w3.org/2000/svg" xmlns:xlink="http://www.w3.org/1999/xlink" contentStyleType="text/css" data-diagram-type="ACTIVITY" height="524px" preserveAspectRatio="none" style="width:480px;height:524px;background:#FFFFFF;" version="1.1" viewBox="0 0 480 524" width="480px" zoomAndPan="magnify"><title>&#1589;&#1610;&#1575;&#1606;&#1577; &#1594;&#1585;&#1601; &#1575;&#1604;&#1605;&#1590;&#1582;&#1575;&#1578; | &#1585;&#1608;&#1575;&#1574;&#1593; &#1575;&#1604;&#1603;&#1585;&#1610;&#1587;&#1578;&#1575;&#1604;</title><defs/><g><g class="title" data-source-line="1"><text fill="#000000" font-family="sans-serif" font-size="14" font-weight="bold" lengthAdjust="spacing" textLength="270.8262" x="103.1191" y="32.9951">&#1589;&#1610;&#1575;&#1606;&#1577; &#1594;&#1585;&#1601; &#1575;&#1604;&#1605;&#1590;&#1582;&#1575;&#1578; | &#1585;&#1608;&#1575;&#1574;&#1593; &#1575;&#1604;&#1603;&#1585;&#1610;&#1587;&#1578;&#1575;&#1604;</text></g><ellipse cx="172.5811" cy="57.2969" fill="#222222" rx="10" ry="10" style="stroke:#222222;stroke-width:1;"/><rect fill="#F1F1F1" height="33.9688" rx="12.5" ry="12.5" style="stroke:#181818;stroke-width:0.5;" width="121.291" x="111.9355" y="87.2969"/><text fill="#000000" font-family="sans-serif" font-size="12" lengthAdjust="spacing" textLength="101.291" x="121.9355" y="108.4355">&#1601;&#1581;&#1589; &#1583;&#1608;&#1585;&#1610; &#1604;&#1604;&#1605;&#1590;&#1582;&#1577;</text><polygon fill="#F1F1F1" points="139.9006,141.2656,205.2615,141.2656,217.2615,153.2656,205.2615,165.2656,139.9006,165.2656,127.9006,153.2656,139.9006,141.2656" style="stroke:#181818;stroke-width:0.5;"/><text fill="#000000" font-family="sans-serif" font-size="11" lengthAdjust="spacing" textLength="65.3608" x="139.9006" y="157.0737">&#1575;&#1604;&#1581;&#1575;&#1604;&#1577; &#1591;&#1576;&#1610;&#1593;&#1610;&#1577;&#1567;</text><text fill="#000000" font-family="sans-serif" font-size="11" lengthAdjust="spacing" textLength="15.689" x="112.2117" y="150.6714">&#1606;&#1593;&#1605;</text><text fill="#000000" font-family="sans-serif" font-size="11" lengthAdjust="spacing" textLength="6.2734" x="217.2615" y="150.6714">&#1604;&#1575;</text><rect fill="#F1F1F1" height="33.9688" rx="12.5" ry="12.5" style="stroke:#181818;stroke-width:0.5;" width="103.3262" x="11" y="175.2656"/><text fill="#000000" font-family="sans-serif" font-size="12" lengthAdjust="spacing" textLength="83.3262" x="21" y="196.4043">&#1575;&#1587;&#1578;&#1605;&#1585;&#1575;&#1585; &#1575;&#1604;&#1578;&#1588;&#1594;&#1610;&#1604;</text><rect fill="#F1F1F1" height="33.9688" rx="12.5" ry="12.5" style="stroke:#181818;stroke-width:0.5;" width="92.5039" x="236.2471" y="175.2656"/><text fill="#000000" font-family="sans-serif" font-size="12" lengthAdjust="spacing" textLength="72.5039" x="246.2471" y="196.4043">&#1578;&#1581;&#1583;&#1610;&#1583; &#1575;&#1604;&#1605;&#1588;&#1603;&#1604;&#1577;</text><rect fill="#F1F1F1" height="33.9688" rx="12.5" ry="12.5" style="stroke:#181818;stroke-width:0.5;" width="121.2324" x="221.8828" y="229.2344"/><text fill="#000000" font-family="sans-serif" font-size="12" lengthAdjust="spacing" textLength="101.2324" x="231.8828" y="250.373">&#1573;&#1580;&#1585;&#1575;&#1569; &#1575;&#1604;&#1589;&#1610;&#1575;&#1606;&#1577; &#1575;&#1604;&#1604;&#1575;&#1586;&#1605;&#1577;</text><rect fill="#F1F1F1" height="33.9688" rx="12.5" ry="12.5" style="stroke:#181818;stroke-width:0.5;" width="147.2773" x="208.8604" y="283.2031"/><text fill="#000000" font-family="sans-serif" font-size="12" lengthAdjust="spacing" textLength="127.2773" x="218.8604" y="304.3418">&#1575;&#1582;&#1578;&#1576;&#1575;&#1585; &#1575;&#1604;&#1605;&#1590;&#1582;&#1577; &#1576;&#1593;&#1583; &#1575;&#1604;&#1589;&#1610;&#1575;&#1606;&#1577;</text><polygon fill="#F1F1F1" points="251.959,337.1719,313.0391,337.1719,325.0391,349.1719,313.0391,361.1719,251.959,361.1719,239.959,349.1719,251.959,337.1719" style="stroke:#181818;stroke-width:0.5;"/><text fill="#000000" font-family="sans-serif" font-size="11" lengthAdjust="spacing" textLength="61.0801" x="251.959" y="352.98">&#1575;&#1604;&#1575;&#1582;&#1578;&#1576;&#1575;&#1585; &#1606;&#1575;&#1580;&#1581;&#1567;</text><text fill="#000000" font-family="sans-serif" font-size="11" lengthAdjust="spacing" textLength="15.689" x="224.27" y="346.5776">&#1606;&#1593;&#1605;</text><text fill="#000000" font-family="sans-serif" font-size="11" lengthAdjust="spacing" textLength="6.2734" x="325.0391" y="346.5776">&#1604;&#1575;</text><rect fill="#F1F1F1" height="33.9688" rx="12.5" ry="12.5" style="stroke:#181818;stroke-width:0.5;" width="103.9766" x="144.3262" y="371.1719"/><text fill="#000000" font-family="sans-serif" font-size="12" lengthAdjust="spacing" textLength="83.9766" x="154.3262" y="392.3105">&#1575;&#1587;&#1578;&#1574;&#1606;&#1575;&#1601; &#1575;&#1604;&#1578;&#1588;&#1594;&#1610;&#1604;</text><rect fill="#F1F1F1" height="33.9688" rx="12.5" ry="12.5" style="stroke:#181818;stroke-width:0.5;" width="200.7617" x="268.3027" y="371.1719"/><text fill="#000000" font-family="sans-serif" font-size="12" lengthAdjust="spacing" textLength="180.7617" x="278.3027" y="392.3105">&#1573;&#1593;&#1575;&#1583;&#1577; &#1573;&#1580;&#1585;&#1575;&#1569; &#1575;&#1604;&#1589;&#1610;&#1575;&#1606;&#1577; &#1571;&#1608; &#1575;&#1587;&#1578;&#1576;&#1583;&#1575;&#1604; &#1575;&#1604;&#1580;&#1586;&#1569;</text><polygon fill="#F1F1F1" points="282.499,417.0396,294.499,429.0396,282.499,441.0396,270.499,429.0396,282.499,417.0396" style="stroke:#181818;stroke-width:0.5;"/><text fill="#000000" font-family="sans-serif" font-size="11" lengthAdjust="spacing" textLength="66.4619" x="294.499" y="426.4453">&#1578;&#1581;&#1583;&#1610;&#1583; &#1575;&#1604;&#1605;&#1588;&#1603;&#1604;&#1577;</text><polygon fill="#F1F1F1" points="172.5811,447.0396,184.5811,459.0396,172.5811,471.0396,160.5811,459.0396,172.5811,447.0396" style="stroke:#181818;stroke-width:0.5;"/><ellipse cx="172.5811" cy="502.0396" fill="none" rx="11" ry="11" style="stroke:#222222;stroke-width:1;"/><ellipse cx="172.5811" cy="502.0396" fill="#222222" rx="6" ry="6" style="stroke:#222222;stroke-width:1;"/><line style="stroke:#181818;stroke-width:1;" x1="172.5811" x2="172.5811" y1="67.2969" y2="87.2969"/><polygon fill="#181818" points="168.5811,77.2969,172.5811,87.2969,176.5811,77.2969,172.5811,81.2969" style="stroke:#181818;stroke-width:1;"/><line style="stroke:#181818;stroke-width:1;" x1="282.499" x2="282.499" y1="209.2344" y2="229.2344"/><polygon fill="#181818" points="278.499,219.2344,282.499,229.2344,286.499,219.2344,282.499,223.2344" style="stroke:#181818;stroke-width:1;"/><line style="stroke:#181818;stroke-width:1;" x1="282.499" x2="282.499" y1="263.2031" y2="283.2031"/><polygon fill="#181818" points="278.499,273.2031,282.499,283.2031,286.499,273.2031,282.499,277.2031" style="stroke:#181818;stroke-width:1;"/><line style="stroke:#181818;stroke-width:1;" x1="239.959" x2="196.3145" y1="349.1719" y2="349.1719"/><line style="stroke:#181818;stroke-width:1;" x1="196.3145" x2="196.3145" y1="349.1719" y2="371.1719"/><polygon fill="#181818" points="192.3145,361.1719,196.3145,371.1719,200.3145,361.1719,196.3145,365.1719" style="stroke:#181818;stroke-width:1;"/><line style="stroke:#181818;stroke-width:1;" x1="325.0391" x2="368.6836" y1="349.1719" y2="349.1719"/><line style="stroke:#181818;stroke-width:1;" x1="368.6836" x2="368.6836" y1="349.1719" y2="371.1719"/><polygon fill="#181818" points="364.6836,361.1719,368.6836,371.1719,372.6836,361.1719,368.6836,365.1719" style="stroke:#181818;stroke-width:1;"/><line style="stroke:#181818;stroke-width:1;" x1="196.3145" x2="196.3145" y1="405.1406" y2="429.0396"/><line style="stroke:#181818;stroke-width:1;" x1="196.3145" x2="270.499" y1="429.0396" y2="429.0396"/><polygon fill="#181818" points="260.499,425.0396,270.499,429.0396,260.499,433.0396,264.499,429.0396" style="stroke:#181818;stroke-width:1;"/><line style="stroke:#181818;stroke-width:1;" x1="368.6836" x2="368.6836" y1="405.1406" y2="429.0396"/><line style="stroke:#181818;stroke-width:1;" x1="368.6836" x2="294.499" y1="429.0396" y2="429.0396"/><polygon fill="#181818" points="304.499,425.0396,294.499,429.0396,304.499,433.0396,300.499,429.0396" style="stroke:#181818;stroke-width:1;"/><line style="stroke:#181818;stroke-width:1;" x1="282.499" x2="282.499" y1="317.1719" y2="337.1719"/><polygon fill="#181818" points="278.499,327.1719,282.499,337.1719,286.499,327.1719,282.499,331.1719" style="stroke:#181818;stroke-width:1;"/><line style="stroke:#181818;stroke-width:1;" x1="127.9006" x2="62.6631" y1="153.2656" y2="153.2656"/><line style="stroke:#181818;stroke-width:1;" x1="62.6631" x2="62.6631" y1="153.2656" y2="175.2656"/><polygon fill="#181818" points="58.6631,165.2656,62.6631,175.2656,66.6631,165.2656,62.6631,169.2656" style="stroke:#181818;stroke-width:1;"/><line style="stroke:#181818;stroke-width:1;" x1="217.2615" x2="282.499" y1="153.2656" y2="153.2656"/><line style="stroke:#181818;stroke-width:1;" x1="282.499" x2="282.499" y1="153.2656" y2="175.2656"/><polygon fill="#181818" points="278.499,165.2656,282.499,175.2656,286.499,165.2656,282.499,169.2656" style="stroke:#181818;stroke-width:1;"/><line style="stroke:#181818;stroke-width:1;" x1="62.6631" x2="62.6631" y1="209.2344" y2="459.0396"/><line style="stroke:#181818;stroke-width:1;" x1="62.6631" x2="160.5811" y1="459.0396" y2="459.0396"/><polygon fill="#181818" points="150.5811,455.0396,160.5811,459.0396,150.5811,463.0396,154.5811,459.0396" style="stroke:#181818;stroke-width:1;"/><line style="stroke:#181818;stroke-width:1;" x1="282.499" x2="282.499" y1="441.0396" y2="459.0396"/><line style="stroke:#181818;stroke-width:1;" x1="282.499" x2="184.5811" y1="459.0396" y2="459.0396"/><polygon fill="#181818" points="194.5811,455.0396,184.5811,459.0396,194.5811,463.0396,190.5811,459.0396" style="stroke:#181818;stroke-width:1;"/><line style="stroke:#181818;stroke-width:1;" x1="172.5811" x2="172.5811" y1="121.2656" y2="141.2656"/><polygon fill="#181818" points="168.5811,131.2656,172.5811,141.2656,176.5811,131.2656,172.5811,135.2656" style="stroke:#181818;stroke-width:1;"/><line style="stroke:#181818;stroke-width:1;" x1="172.5811" x2="172.5811" y1="471.0396" y2="491.0396"/><polygon fill="#181818" points="168.5811,481.0396,172.5811,491.0396,176.5811,481.0396,172.5811,485.0396" style="stroke:#181818;stroke-width:1;"/><?plantuml-src VP51Ri8m54JtFiLVmg8N85BlKgb1ZOGe0Y-xGOGAvH8LGiL918r2eLKuoVWs7ST9cafj5x5i__bl_ZWwqfDGSB49Z7r69hYYj4lXARPhVE0D1hay2MyttEvH-TgA5mdUaRkJKWjzDzTAZUmIHrm41TKK29Kj9mkKYiOoS0qKkPLsdqZ9gVXbU1cAVWYdCk0abLqFbSY8dZGXekIkhBtfUSRL9ZOEL3XPXDJ7C5wTarmGLhG9pdRbZ8Aw-ef3pTbwJY-r4nE24riQiU7CETBEjeqXlAiQWs-4w-dIzLjPDBGz_fQkouUzapNltiydyZEXJr6ngt2J_1rePpVIi5DgMVMI0qxO1ZNfvbR-VQzmUX-DbL_vWnzdNm00?></g></svg>