<?plantuml 1.2026.2beta3?><svg xmlns="http://www.w3.org/2000/svg" xmlns:xlink="http://www.w3.org/1999/xlink" contentStyleType="text/css" data-diagram-type="DESCRIPTION" height="577px" preserveAspectRatio="none" style="width:1170px;height:577px;background:#FFFFFF;" version="1.1" viewBox="0 0 1170 577" width="1170px" zoomAndPan="magnify"><title>&#1605;&#1602;&#1575;&#1585;&#1606;&#1577; &#1576;&#1610;&#1606; &#1604;&#1608;&#1581;&#1575;&#1578; &#1578;&#1581;&#1603;&#1605; &#1575;&#1604;&#1605;&#1590;&#1582;&#1575;&#1578;: VFD &#1608;&#1587;&#1578;&#1575;&#1585; &#1583;&#1604;&#1578;&#1575;</title><defs/><g><g class="title" data-source-line="22"><text fill="#333333" font-family="'Arial'" font-size="20" font-weight="bold" lengthAdjust="spacing" textLength="495.1367" x="332.9316" y="33.5645">&#1605;&#1602;&#1575;&#1585;&#1606;&#1577; &#1576;&#1610;&#1606; &#1604;&#1608;&#1581;&#1575;&#1578; &#1578;&#1581;&#1603;&#1605; &#1575;&#1604;&#1605;&#1590;&#1582;&#1575;&#1578;: VFD &#1608;&#1587;&#1578;&#1575;&#1585; &#1583;&#1604;&#1578;&#1575;</text></g><!--cluster ???? ?????? ????????--><g class="cluster" data-qualified-name=".... ...... ........" data-source-line="29" id="ent0004"><path d="M13.5,166.5713 L160.0303,166.5713 A3.75,3.75 0 0 1 162.5303,169.0713 L169.5303,188.8681 L1160.5,188.8681 A2.5,2.5 0 0 1 1163,191.3681 L1163,458.8513 A2.5,2.5 0 0 1 1160.5,461.3513 L13.5,461.3513 A2.5,2.5 0 0 1 11,458.8513 L11,169.0713 A2.5,2.5 0 0 1 13.5,166.5713" fill="#FFFFFF" style="stroke:#000000;stroke-width:1;"/><line style="stroke:#000000;stroke-width:1;" x1="11" x2="169.5303" y1="188.8681" y2="188.8681"/><text fill="#000000" font-family="'Arial'" font-size="14" font-weight="bold" lengthAdjust="spacing" textLength="145.5303" x="15" y="181.5664">&#1604;&#1608;&#1581;&#1577; &#1575;&#1604;&#1578;&#1581;&#1603;&#1605; &#1575;&#1604;&#1585;&#1574;&#1610;&#1587;&#1610;&#1577;</text></g><!--cluster ?????? 1: ?????? ??? VFD--><g class="cluster" data-qualified-name=".... ...... ............... 1. ...... ... VFD" data-source-line="33" id="ent0006"><rect fill="#FFFFFF" height="142.48" rx="2.5" ry="2.5" style="stroke:#000000;stroke-width:1;" width="460" x="35" y="294.8713"/><path d="M220,294.8713 L220,304.1681 L210,314.1681 L35,314.1681" fill="none" style="stroke:#000000;stroke-width:1;"/><text fill="#000000" font-family="'Arial'" font-size="14" font-weight="bold" lengthAdjust="spacing" textLength="175" x="38" y="308.8664">&#1575;&#1604;&#1582;&#1610;&#1575;&#1585; 1: &#1575;&#1604;&#1578;&#1581;&#1603;&#1605; &#1593;&#1576;&#1585; VFD</text></g><!--cluster ?????? 2: ?????? ??? ???? ????--><g class="cluster" data-qualified-name=".... ...... ............... 2. ...... ... .... ...." data-source-line="44" id="ent0011"><rect fill="#FFFFFF" height="126.18" rx="2.5" ry="2.5" style="stroke:#000000;stroke-width:1;" width="620" x="519" y="303.0213"/><path d="M733.0664,303.0213 L733.0664,312.3181 L723.0664,322.3181 L519,322.3181" fill="none" style="stroke:#000000;stroke-width:1;"/><text fill="#000000" font-family="'Arial'" font-size="14" font-weight="bold" lengthAdjust="spacing" textLength="204.0664" x="522" y="317.0164">&#1575;&#1604;&#1582;&#1610;&#1575;&#1585; 2: &#1575;&#1604;&#1578;&#1581;&#1603;&#1605; &#1593;&#1576;&#1585; &#1587;&#1578;&#1575;&#1585; &#1583;&#1604;&#1578;&#1575;</text></g><!--entity MainBreaker--><g class="entity" data-qualified-name=".... ...... .........MainBreaker" data-source-line="30" id="ent0005"><rect fill="#F8F8F8" height="46.2969" rx="2.5" ry="2.5" style="stroke:#444444;stroke-width:1;" width="156.6689" x="481.67" y="201.5713"/><rect fill="#F8F8F8" height="10" style="stroke:#444444;stroke-width:1;" width="15" x="618.3389" y="206.5713"/><rect fill="#F8F8F8" height="2" style="stroke:#444444;stroke-width:1;" width="4" x="616.3389" y="208.5713"/><rect fill="#F8F8F8" height="2" style="stroke:#444444;stroke-width:1;" width="4" x="616.3389" y="212.5713"/><text fill="#000000" font-family="'Arial'" font-size="14" lengthAdjust="spacing" textLength="116.6689" x="496.67" y="234.5664">&#1602;&#1575;&#1591;&#1593; &#1585;&#1574;&#1610;&#1587;&#1610; &#1608;&#1581;&#1605;&#1575;&#1610;&#1577;</text></g><!--entity VFD--><g class="entity" data-qualified-name=".... ...... ............... 1. ...... ... VFD.VFD" data-source-line="34" id="ent0007"><rect fill="#F8F8F8" height="62.5938" rx="2.5" ry="2.5" style="stroke:#444444;stroke-width:1;" width="176.377" x="50.81" y="344.3113"/><rect fill="#F8F8F8" height="10" style="stroke:#444444;stroke-width:1;" width="15" x="207.187" y="349.3113"/><rect fill="#F8F8F8" height="2" style="stroke:#444444;stroke-width:1;" width="4" x="205.187" y="351.3113"/><rect fill="#F8F8F8" height="2" style="stroke:#444444;stroke-width:1;" width="4" x="205.187" y="355.3113"/><text fill="#000000" font-family="'Arial'" font-size="14" font-weight="bold" lengthAdjust="spacing" textLength="136.377" x="65.81" y="377.3064">&#1605;&#1581;&#1585;&#1603; &#1575;&#1604;&#1578;&#1585;&#1583;&#1583; &#1575;&#1604;&#1605;&#1578;&#1594;&#1610;&#1585;</text><text fill="#000000" font-family="'Arial'" font-size="14" lengthAdjust="spacing" textLength="76.3984" x="65.81" y="393.6032">(VFD)&lt;/b&gt;</text></g><g class="entity" data-qualified-name=".... ...... ............... 1. ...... ... VFD.GMN8" data-source-line="36" id="ent0009"><path d="M262.6,329.8713 L262.6,371.6113 L227.36,375.6113 L262.6,379.6113 L262.6,421.3556 A0,0 0 0 0 262.6,421.3556 L479.4018,421.3556 A0,0 0 0 0 479.4018,421.3556 L479.4018,339.8713 L469.4018,329.8713 L262.6,329.8713 A0,0 0 0 0 262.6,329.8713" fill="#FFFFE0" style="stroke:#BDBDBD;stroke-width:1;"/><path d="M469.4018,329.8713 L469.4018,339.8713 L479.4018,339.8713 L469.4018,329.8713" fill="#FFFFE0" style="stroke:#BDBDBD;stroke-width:1;"/><text fill="#000000" font-family="'Arial'" font-size="14" font-weight="bold" lengthAdjust="spacing" textLength="49.0615" x="268.6" y="347.8664">&#1575;&#1604;&#1605;&#1586;&#1575;&#1610;&#1575;:</text><text fill="#000000" font-family="'Arial'" font-size="14" lengthAdjust="spacing" textLength="195.8018" x="268.6" y="364.1632">- &#1578;&#1581;&#1603;&#1605; &#1583;&#1602;&#1610;&#1602; &#1601;&#1610; &#1575;&#1604;&#1587;&#1585;&#1593;&#1577; &#1608;&#1575;&#1604;&#1590;&#1594;&#1591;</text><text fill="#000000" font-family="'Arial'" font-size="14" lengthAdjust="spacing" textLength="181.9248" x="268.6" y="380.4601">- &#1576;&#1583;&#1569; &#1578;&#1588;&#1594;&#1610;&#1604; &#1606;&#1575;&#1593;&#1605; (Soft Start)</text><text fill="#000000" font-family="'Arial'" font-size="14" lengthAdjust="spacing" textLength="182.5674" x="268.6" y="396.757">- &#1578;&#1608;&#1601;&#1610;&#1585; &#1603;&#1576;&#1610;&#1585; &#1601;&#1610; &#1575;&#1587;&#1578;&#1607;&#1604;&#1575;&#1603; &#1575;&#1604;&#1591;&#1575;&#1602;&#1577;</text><text fill="#000000" font-family="'Arial'" font-size="14" lengthAdjust="spacing" textLength="139.4736" x="268.6" y="413.0539">- &#1581;&#1605;&#1575;&#1610;&#1577; &#1605;&#1578;&#1603;&#1575;&#1605;&#1604;&#1577; &#1604;&#1604;&#1605;&#1581;&#1585;&#1603;</text></g><!--entity StarDelta--><g class="entity" data-qualified-name=".... ...... ............... 2. ...... ... .... .....StarDelta" data-source-line="45" id="ent0012"><rect fill="#F8F8F8" height="62.5938" rx="2.5" ry="2.5" style="stroke:#444444;stroke-width:1;" width="284.0703" x="838.96" y="344.3113"/><rect fill="#F8F8F8" height="10" style="stroke:#444444;stroke-width:1;" width="15" x="1103.0303" y="349.3113"/><rect fill="#F8F8F8" height="2" style="stroke:#444444;stroke-width:1;" width="4" x="1101.0303" y="351.3113"/><rect fill="#F8F8F8" height="2" style="stroke:#444444;stroke-width:1;" width="4" x="1101.0303" y="355.3113"/><text fill="#000000" font-family="'Arial'" font-size="14" font-weight="bold" lengthAdjust="spacing" textLength="109.2725" x="853.96" y="377.3064">&#1605;&#1615;&#1588;&#1594;&#1617;&#1604; &#1587;&#1578;&#1575;&#1585; &#1583;&#1604;&#1578;&#1575;</text><text fill="#000000" font-family="'Arial'" font-size="14" lengthAdjust="spacing" textLength="244.0703" x="853.96" y="393.6032">(&#1605;&#1603;&#1608;&#1606;&#1575;&#1578;: &#1603;&#1608;&#1606;&#1578;&#1575;&#1603;&#1578;&#1608;&#1585;&#1575;&#1578; + &#1578;&#1575;&#1610;&#1605;&#1585; + &#1571;&#1608;&#1601;&#1585;&#1604;&#1608;&#1583;)</text></g><g class="entity" data-qualified-name=".... ...... ............... 2. ...... ... .... .....GMN13" data-source-line="47" id="ent0014"><path d="M534.52,338.0213 L534.52,413.2088 A0,0 0 0 0 534.52,413.2088 L803.48,413.2088 A0,0 0 0 0 803.48,413.2088 L803.48,379.6113 L838.55,375.6113 L803.48,371.6113 L803.48,348.0213 L793.48,338.0213 L534.52,338.0213 A0,0 0 0 0 534.52,338.0213" fill="#FFFFE0" style="stroke:#BDBDBD;stroke-width:1;"/><path d="M793.48,338.0213 L793.48,348.0213 L803.48,348.0213 L793.48,338.0213" fill="#FFFFE0" style="stroke:#BDBDBD;stroke-width:1;"/><text fill="#000000" font-family="'Arial'" font-size="14" font-weight="bold" lengthAdjust="spacing" textLength="49.0615" x="540.52" y="356.0164">&#1575;&#1604;&#1605;&#1586;&#1575;&#1610;&#1575;:</text><text fill="#000000" font-family="'Arial'" font-size="14" lengthAdjust="spacing" textLength="97.084" x="540.52" y="372.3132">- &#1578;&#1603;&#1604;&#1601;&#1577; &#1571;&#1608;&#1604;&#1610;&#1577; &#1571;&#1602;&#1604;</text><text fill="#000000" font-family="'Arial'" font-size="14" lengthAdjust="spacing" textLength="172.2041" x="540.52" y="388.6101">- &#1576;&#1587;&#1575;&#1591;&#1577; &#1601;&#1610; &#1575;&#1604;&#1578;&#1585;&#1603;&#1610;&#1576; &#1608;&#1575;&#1604;&#1589;&#1610;&#1575;&#1606;&#1577;</text><text fill="#000000" font-family="'Arial'" font-size="14" lengthAdjust="spacing" textLength="247.96" x="540.52" y="404.907">- &#1605;&#1606;&#1575;&#1587;&#1576; &#1604;&#1604;&#1578;&#1591;&#1576;&#1610;&#1602;&#1575;&#1578; &#1575;&#1604;&#1578;&#1610; &#1578;&#1593;&#1605;&#1604; &#1576;&#1587;&#1585;&#1593;&#1577; &#1579;&#1575;&#1576;&#1578;&#1577;</text></g><!--entity PowerSource--><g class="entity" data-qualified-name="PowerSource" data-source-line="25" id="ent0002"><rect fill="#F8F8F8" height="46.2969" rx="2.5" ry="2.5" style="stroke:#444444;stroke-width:1;" width="174.6064" x="472.7" y="56.2813"/><rect fill="#F8F8F8" height="10" style="stroke:#444444;stroke-width:1;" width="15" x="627.3064" y="61.2813"/><rect fill="#F8F8F8" height="2" style="stroke:#444444;stroke-width:1;" width="4" x="625.3064" y="63.2813"/><rect fill="#F8F8F8" height="2" style="stroke:#444444;stroke-width:1;" width="4" x="625.3064" y="67.2813"/><text fill="#000000" font-family="'Arial'" font-size="14" lengthAdjust="spacing" textLength="134.6064" x="487.7" y="89.2764">&#1605;&#1589;&#1583;&#1585; &#1575;&#1604;&#1591;&#1575;&#1602;&#1577; &#1575;&#1604;&#1603;&#1607;&#1585;&#1576;&#1575;&#1574;&#1610;&#1577;</text></g><!--entity Pump--><g class="entity" data-qualified-name="Pump" data-source-line="26" id="ent0003"><rect fill="#F8F8F8" height="46.2969" rx="2.5" ry="2.5" style="stroke:#444444;stroke-width:1;" width="144.8564" x="487.57" y="525.3512"/><rect fill="#F8F8F8" height="10" style="stroke:#444444;stroke-width:1;" width="15" x="612.4264" y="530.3512"/><rect fill="#F8F8F8" height="2" style="stroke:#444444;stroke-width:1;" width="4" x="610.4264" y="532.3512"/><rect fill="#F8F8F8" height="2" style="stroke:#444444;stroke-width:1;" width="4" x="610.4264" y="536.3512"/><text fill="#000000" font-family="'Arial'" font-size="14" lengthAdjust="spacing" textLength="104.8564" x="502.57" y="558.3464">&#1575;&#1604;&#1605;&#1590;&#1582;&#1577; (&#1575;&#1604;&#1605;&#1581;&#1585;&#1603;)</text></g><!--link PowerSource to MainBreaker--><g class="link" data-entity-1="ent0002" data-entity-2="ent0005" data-link-type="dependency" data-source-line="56" id="lnk16"><path d="M560,102.8113 C560,129.7313 560,168.6413 560,195.4912" fill="none" id="PowerSource-to-MainBreaker" style="stroke:#555555;stroke-width:1;"/><polygon fill="#555555" points="560,201.4912,564,192.4912,560,196.4912,556,192.4912,560,201.4912" style="stroke:#555555;stroke-width:1;"/><text fill="#000000" font-family="'Arial'" font-size="14" lengthAdjust="spacing" textLength="68.168" x="561" y="146.5664">&#1578;&#1610;&#1575;&#1585; &#1603;&#1607;&#1585;&#1576;&#1575;&#1574;&#1610;</text></g><!--link MainBreaker to VFD--><g class="link" data-entity-1="ent0005" data-entity-2="ent0007" data-link-type="dependency" data-source-line="57" id="lnk17"><path d="M481.23,230.1513 C415.39,236.3513 320.42,251.2213 245,286.8713 C215.63,300.7513 191.8485,320.4652 171.9785,339.8152" fill="none" id="MainBreaker-to-VFD" style="stroke:#555555;stroke-width:1;"/><polygon fill="#555555" points="167.68,344.0013,176.9185,340.5879,171.2621,340.5129,171.3371,334.8565,167.68,344.0013" style="stroke:#555555;stroke-width:1;"/></g><!--link MainBreaker to StarDelta--><g class="link" data-entity-1="ent0005" data-entity-2="ent0012" data-link-type="dependency" data-source-line="58" id="lnk18"><path d="M638.74,238.4013 C691.41,248.2713 761.68,264.1413 821,286.8713 C860.49,302.0013 897.1774,322.1038 928.1474,340.8538" fill="none" id="MainBreaker-to-StarDelta" style="stroke:#555555;stroke-width:1;"/><polygon fill="#555555" points="933.28,343.9613,927.6527,335.8784,929.0028,341.3717,923.5094,342.7219,933.28,343.9613" style="stroke:#555555;stroke-width:1;"/></g><!--link VFD to Pump--><g class="link" data-entity-1="ent0007" data-entity-2="ent0003" data-link-type="dependency" data-source-line="60" id="lnk19"><path d="M166.3,407.1713 C186.21,427.6413 214.87,453.6313 245,469.3513 C322.18,509.6313 414.9925,528.8873 481.1725,538.5173" fill="none" id="VFD-to-Pump" style="stroke:#555555;stroke-width:1;"/><polygon fill="#555555" points="487.11,539.3813,478.7798,534.127,482.1621,538.6613,477.6278,542.0436,487.11,539.3813" style="stroke:#555555;stroke-width:1;"/><text fill="#000000" font-family="'Arial'" font-size="14" lengthAdjust="spacing" textLength="136.3496" x="302" y="491.3464">&#1578;&#1581;&#1603;&#1605; &#1605;&#1578;&#1594;&#1610;&#1585; &#1601;&#1610; &#1575;&#1604;&#1587;&#1585;&#1593;&#1577;</text></g><!--link StarDelta to Pump--><g class="link" data-entity-1="ent0012" data-entity-2="ent0003" data-link-type="dependency" data-source-line="61" id="lnk20"><path d="M934.91,407.2213 C903.73,426.9313 861.08,452.0213 821,469.3513 C759.46,495.9613 691.8651,515.5832 638.5951,529.1232" fill="none" id="StarDelta-to-Pump" style="stroke:#555555;stroke-width:1;"/><polygon fill="#555555" points="632.78,530.6012,642.488,532.2609,637.6259,529.3695,640.5173,524.5074,632.78,530.6012" style="stroke:#555555;stroke-width:1;"/><text fill="#000000" font-family="'Arial'" font-size="14" lengthAdjust="spacing" textLength="110.626" x="801" y="491.3464">&#1578;&#1588;&#1594;&#1610;&#1604; &#1576;&#1587;&#1585;&#1593;&#1577; &#1579;&#1575;&#1576;&#1578;&#1577;</text></g><?plantuml-src ZLLRQnD157xVNt6C3xP8KNi1ALAmrhufGi0NzM6QJDgbcvqmEo6ezC4alT0NyIU8O2xIXbYrr5yoys_ypkmcksbJi85cBkTyyvtlN7B7xCcwf4OamZYuHsLfg1fgMJ6XYad4LKhC-oYCTwccD5KYeKFpFZ2gGKRHZZ96rNFx8DaFuuRG0cUo9fgHsLQnUIc0NtggGn6LvbkKmm-I7gqMBfCzKLKj_wo84bcugQXwGyKIJk0bgLcFbkVTqiU0Q5DKzdUrQiRLPoe2_RlRZ_d3DqfNfSvELrTNSVHKQzNAJjRMreA30coiZBm54N_F7rv7tDpYpmo42KsKOamZNdwOxJAlbPKLk0IffJjqRTkpOtTa1sJxxjGTaUkw4tk6qo7PeJrp7NT8jeVJG_l7dlFvEhtUtY9ONS00tcH7hilB0BdTahKmbbH7fdEX4b9DauHLIIW4QeXOHa6kuXj0_xOZ1i8xzXB_syo77-suOpksVJpptPtQmJiI2RrIBQdBggahieXI83cWXMntXk0wYwbRizueC6Gc5UYYLPGoOXk1PMLVxCeW-wPIfaVAPqOH46DI5qoiv5KlniJ2NjehogrOiZDmwaqZUG6LDhKK-r87SBz7px115PYMeaHoJh6f8RCoILi3-6YE15r0wJcLF9DpG78c7grVeta5xSQShvJW3CKdEniJXIPUOwHXD4dtqFu5xFXjl03_nISFTZOyQMmyagzN7Uxk6LArwIaHO3E0dpxKtZgxPfTBXQ8QkJOghatk4xJn12v0u0fIGoZU_h5_xMNks0Uvh-p_YucvBg5iU_OAK0jbLJDKDaARnS93xeIX4R_hS77p8dsAAzSTuuNU9FIiw7BdQQA8bG103ytIvMqtBonlBZ6_M0ji3e9Ryh8yFoytEkYsBBdFFkWl2Fg63wkB7C6eWu2FqWxDraEEa8M0iDpHzyaVdIA0CM--iKI8X6jybBO9gxWb8oFo94UovdCyU_KVcGQBBl07wKDTBoUMRTSjPlN2TygWK0T35XVM_Kab_6Pqdb9JFuHxv1FPznc1owKVOErqSdaKXXjoWR1i_MbrsH-mwUDcS3D_1zScH2rIBGwzmJF7_rHbCoCeJ25Qmkz8lBHHx6TQv_ZJxCzEiQ1ejGGlRfthPxdK0G_RoGCympnoLaTvbzxiec2ACSTzqa9pPVa7?></g></svg>