<?plantuml 1.2026.2beta3?><svg xmlns="http://www.w3.org/2000/svg" xmlns:xlink="http://www.w3.org/1999/xlink" contentStyleType="text/css" data-diagram-type="DESCRIPTION" height="313px" preserveAspectRatio="none" style="width:816px;height:313px;background:#FFFFFF;" version="1.1" viewBox="0 0 816 313" width="816px" zoomAndPan="magnify"><title>&#1588;&#1585;&#1603;&#1577; &#1605;&#1590;&#1582;&#1575;&#1578; &#1605;&#1610;&#1575;&#1607; &#1575;&#1604;&#1585;&#1610;&#1575;&#1590; - &#1578;&#1608;&#1585;&#1610;&#1583; &#1608;&#1578;&#1585;&#1603;&#1610;&#1576; &#1608;&#1589;&#1610;&#1575;&#1606;&#1577;</title><defs/><g><g class="title" data-source-line="1"><text fill="#000000" font-family="sans-serif" font-size="14" font-weight="bold" lengthAdjust="spacing" textLength="340.6621" x="230.8768" y="22.9951">&#1588;&#1585;&#1603;&#1577; &#1605;&#1590;&#1582;&#1575;&#1578; &#1605;&#1610;&#1575;&#1607; &#1575;&#1604;&#1585;&#1610;&#1575;&#1590; - &#1578;&#1608;&#1585;&#1610;&#1583; &#1608;&#1578;&#1585;&#1603;&#1610;&#1576; &#1608;&#1589;&#1610;&#1575;&#1606;&#1577;</text></g><!--entity Customer--><g class="entity" data-qualified-name="Customer" data-source-line="5" id="ent0002"><rect fill="#F1F1F1" height="36.2969" rx="2.5" ry="2.5" style="stroke:#181818;stroke-width:0.5;" width="57.8301" x="434.14" y="44.2969"/><text fill="#000000" font-family="sans-serif" font-size="14" lengthAdjust="spacing" textLength="37.8301" x="444.14" y="67.292">&#1575;&#1604;&#1593;&#1605;&#1610;&#1604;</text></g><!--entity Sales--><g class="entity" data-qualified-name="Sales" data-source-line="6" id="ent0003"><rect fill="#F1F1F1" height="36.2969" rx="2.5" ry="2.5" style="stroke:#181818;stroke-width:0.5;" width="101.8467" x="109.13" y="157.5969"/><text fill="#000000" font-family="sans-serif" font-size="14" lengthAdjust="spacing" textLength="81.8467" x="119.13" y="180.592">&#1602;&#1587;&#1605; &#1575;&#1604;&#1605;&#1576;&#1610;&#1593;&#1575;&#1578;</text></g><!--entity Support--><g class="entity" data-qualified-name="Support" data-source-line="7" id="ent0004"><rect fill="#F1F1F1" height="36.2969" rx="2.5" ry="2.5" style="stroke:#181818;stroke-width:0.5;" width="121.7051" x="548.2" y="157.5969"/><text fill="#000000" font-family="sans-serif" font-size="14" lengthAdjust="spacing" textLength="101.7051" x="558.2" y="180.592">&#1602;&#1587;&#1605; &#1575;&#1604;&#1583;&#1593;&#1605; &#1575;&#1604;&#1601;&#1606;&#1610;</text></g><!--entity Warehouse--><g class="entity" data-qualified-name="Warehouse" data-source-line="8" id="ent0005"><rect fill="#F1F1F1" height="36.2969" rx="2.5" ry="2.5" style="stroke:#181818;stroke-width:0.5;" width="99.543" x="41.28" y="270.8869"/><text fill="#000000" font-family="sans-serif" font-size="14" lengthAdjust="spacing" textLength="79.543" x="51.28" y="293.882">&#1602;&#1587;&#1605; &#1575;&#1604;&#1605;&#1582;&#1575;&#1586;&#1606;</text></g><!--entity InstallationTeam--><g class="entity" data-qualified-name="InstallationTeam" data-source-line="9" id="ent0006"><rect fill="#F1F1F1" height="36.2969" rx="2.5" ry="2.5" style="stroke:#181818;stroke-width:0.5;" width="99.1807" x="319.46" y="270.8869"/><text fill="#000000" font-family="sans-serif" font-size="14" lengthAdjust="spacing" textLength="79.1807" x="329.46" y="293.882">&#1601;&#1585;&#1610;&#1602; &#1575;&#1604;&#1578;&#1585;&#1603;&#1610;&#1576;</text></g><!--entity MaintenanceTeam--><g class="entity" data-qualified-name="MaintenanceTeam" data-source-line="10" id="ent0007"><rect fill="#F1F1F1" height="36.2969" rx="2.5" ry="2.5" style="stroke:#181818;stroke-width:0.5;" width="94.6279" x="629.74" y="270.8869"/><text fill="#000000" font-family="sans-serif" font-size="14" lengthAdjust="spacing" textLength="74.6279" x="639.74" y="293.882">&#1601;&#1585;&#1610;&#1602; &#1575;&#1604;&#1589;&#1610;&#1575;&#1606;&#1577;</text></g><!--link Customer to Sales--><g class="link" data-entity-1="ent0002" data-entity-2="ent0003" data-link-type="extension" data-source-line="12" id="lnk8"><path d="M433.74,62.8269 C358.66,61.9369 162.49,64.1769 122.05,110.5969 C109.64,124.8469 110.6459,131.3666 125.0559,144.9366" fill="none" id="Customer-to-Sales" style="stroke:#181818;stroke-width:1;"/><polygon fill="none" points="138.16,157.2769,129.1693,140.5686,120.9425,149.3047,138.16,157.2769" style="stroke:#181818;stroke-width:1;"/><text fill="#000000" font-family="sans-serif" font-size="13" lengthAdjust="spacing" textLength="106.5835" x="123.05" y="123.6638">&#1591;&#1604;&#1576; &#1605;&#1590;&#1582;&#1577; / &#1582;&#1583;&#1605;&#1577;</text></g><!--link Sales to Customer--><g class="link" data-entity-1="ent0003" data-entity-2="ent0002" data-link-type="extension" data-source-line="13" id="lnk9"><path d="M185.2,157.2369 C206.83,142.8969 239.31,123.0069 270.05,110.5969 C325.87,88.0569 377.5069,77.308 416.0469,70.858" fill="none" id="Sales-to-Customer" style="stroke:#181818;stroke-width:1;"/><polygon fill="none" points="433.8,67.8869,415.0565,64.9403,417.0373,76.7757,433.8,67.8869" style="stroke:#181818;stroke-width:1;"/><text fill="#000000" font-family="sans-serif" font-size="13" lengthAdjust="spacing" textLength="134.5005" x="271.05" y="123.6638">&#1593;&#1585;&#1590; &#1571;&#1587;&#1593;&#1575;&#1585; / &#1578;&#1571;&#1603;&#1610;&#1583; &#1591;&#1604;&#1576;</text></g><!--link Sales to Warehouse--><g class="link" data-entity-1="ent0003" data-entity-2="ent0005" data-link-type="extension" data-source-line="14" id="lnk10"><path d="M108.98,179.4269 C77.51,184.0469 39.42,195.6169 19.05,223.8869 C6,242.0269 10.2334,250.2719 32.4934,262.0619" fill="none" id="Sales-to-Warehouse" style="stroke:#181818;stroke-width:1;"/><polygon fill="none" points="48.4,270.4869,35.3017,256.7597,29.6851,267.3641,48.4,270.4869" style="stroke:#181818;stroke-width:1;"/><text fill="#000000" font-family="sans-serif" font-size="13" lengthAdjust="spacing" textLength="96.332" x="20.05" y="236.9538">&#1591;&#1604;&#1576; &#1578;&#1608;&#1585;&#1610;&#1583; &#1605;&#1590;&#1582;&#1577;</text></g><!--link Warehouse to Sales--><g class="link" data-entity-1="ent0005" data-entity-2="ent0003" data-link-type="extension" data-source-line="15" id="lnk11"><path d="M102.25,270.6269 C107.93,261.7569 114.91,250.7769 121.05,240.8869 C130.83,225.1769 132.4623,222.5696 140.2623,209.6396" fill="none" id="Warehouse-to-Sales" style="stroke:#181818;stroke-width:1;"/><polygon fill="none" points="149.56,194.2269,135.1247,206.5404,145.3999,212.7389,149.56,194.2269" style="stroke:#181818;stroke-width:1;"/><text fill="#000000" font-family="sans-serif" font-size="13" lengthAdjust="spacing" textLength="104.7236" x="132.05" y="236.9538">&#1573;&#1588;&#1593;&#1575;&#1585; &#1578;&#1608;&#1601;&#1585; &#1575;&#1604;&#1605;&#1590;&#1582;&#1577;</text></g><!--link Sales to InstallationTeam--><g class="link" data-entity-1="ent0003" data-entity-2="ent0006" data-link-type="extension" data-source-line="16" id="lnk12"><path d="M193.17,194.3769 C232.31,215.2169 281.1439,241.2133 320.2039,262.0233" fill="none" id="Sales-to-InstallationTeam" style="stroke:#181818;stroke-width:1;"/><polygon fill="none" points="336.09,270.4869,323.0251,256.7279,317.3827,267.3186,336.09,270.4869" style="stroke:#181818;stroke-width:1;"/><text fill="#000000" font-family="sans-serif" font-size="13" lengthAdjust="spacing" textLength="101.4419" x="279.05" y="236.9538">&#1578;&#1587;&#1604;&#1610;&#1605; &#1591;&#1604;&#1576; &#1578;&#1585;&#1603;&#1610;&#1576;</text></g><!--link InstallationTeam to Customer--><g class="link" data-entity-1="ent0006" data-entity-2="ent0002" data-link-type="extension" data-source-line="17" id="lnk13"><path d="M376.49,270.5869 C380.26,261.6969 384.92,250.7269 389.05,240.8869 C413.64,182.4369 435.6036,129.6333 448.8436,97.7133" fill="none" id="InstallationTeam-to-Customer" style="stroke:#181818;stroke-width:1;"/><polygon fill="none" points="455.74,81.0869,443.3014,95.4145,454.3857,100.0121,455.74,81.0869" style="stroke:#181818;stroke-width:1;"/><text fill="#000000" font-family="sans-serif" font-size="13" lengthAdjust="spacing" textLength="79.5234" x="424.05" y="180.3038">&#1578;&#1585;&#1603;&#1610;&#1576; &#1575;&#1604;&#1605;&#1590;&#1582;&#1577;</text></g><!--link Customer to Support--><g class="link" data-entity-1="ent0002" data-entity-2="ent0004" data-link-type="extension" data-source-line="18" id="lnk14"><path d="M466.45,80.8069 C470.06,95.0669 477.1,114.9169 490.05,127.5969 C505.85,143.0569 510.3633,147.6728 530.7333,154.8128" fill="none" id="Customer-to-Support" style="stroke:#181818;stroke-width:1;"/><polygon fill="none" points="547.72,160.7669,532.718,149.1505,528.7486,160.475,547.72,160.7669" style="stroke:#181818;stroke-width:1;"/><text fill="#000000" font-family="sans-serif" font-size="13" lengthAdjust="spacing" textLength="61.0581" x="491.05" y="123.6638">&#1591;&#1604;&#1576; &#1589;&#1610;&#1575;&#1606;&#1577;</text></g><!--link Support to Customer--><g class="link" data-entity-1="ent0004" data-entity-2="ent0002" data-link-type="extension" data-source-line="19" id="lnk15"><path d="M597.93,157.2269 C588.39,143.2569 573.59,123.8869 557.05,110.5969 C537.42,94.8069 528.2634,89.2407 508.6634,81.1007" fill="none" id="Support-to-Customer" style="stroke:#181818;stroke-width:1;"/><polygon fill="none" points="492.04,74.1969,506.3621,86.6418,510.9647,75.5595,492.04,74.1969" style="stroke:#181818;stroke-width:1;"/><text fill="#000000" font-family="sans-serif" font-size="13" lengthAdjust="spacing" textLength="118.644" x="575.05" y="123.6638">&#1575;&#1587;&#1578;&#1580;&#1575;&#1576;&#1577; &#1604;&#1591;&#1604;&#1576; &#1575;&#1604;&#1589;&#1610;&#1575;&#1606;&#1577;</text></g><!--link Support to MaintenanceTeam--><g class="link" data-entity-1="ent0004" data-entity-2="ent0007" data-link-type="extension" data-source-line="20" id="lnk16"><path d="M608.11,194.1969 C608.14,207.7669 609.93,226.6269 618.05,240.8869 C624.81,252.7369 621.2045,252.2165 631.8945,259.9165" fill="none" id="Support-to-MaintenanceTeam" style="stroke:#181818;stroke-width:1;"/><polygon fill="none" points="646.5,270.4369,635.4012,255.048,628.3877,264.785,646.5,270.4369" style="stroke:#181818;stroke-width:1;"/><text fill="#000000" font-family="sans-serif" font-size="13" lengthAdjust="spacing" textLength="94.4531" x="619.05" y="236.9538">&#1578;&#1608;&#1580;&#1610;&#1607; &#1591;&#1604;&#1576; &#1589;&#1610;&#1575;&#1606;&#1577;</text></g><!--link MaintenanceTeam to Customer--><g class="link" data-entity-1="ent0007" data-entity-2="ent0002" data-link-type="extension" data-source-line="21" id="lnk17"><path d="M697.77,270.4269 C705.72,262.3469 713.88,252.0669 718.05,240.8869 C738.49,186.2469 742.17,152.9569 702.05,110.5969 C673.7,80.6569 567.8292,70.1777 510.4292,66.3077" fill="none" id="MaintenanceTeam-to-Customer" style="stroke:#181818;stroke-width:1;"/><polygon fill="none" points="492.47,65.0969,510.0256,72.2941,510.8328,60.3213,492.47,65.0969" style="stroke:#181818;stroke-width:1;"/><text fill="#000000" font-family="sans-serif" font-size="13" lengthAdjust="spacing" textLength="75.3657" x="733.05" y="180.3038">&#1589;&#1610;&#1575;&#1606;&#1577; &#1575;&#1604;&#1605;&#1590;&#1582;&#1577;</text></g><?plantuml-src TPE_JiCm4CPtFyM9lM9dO65YO2eIirLP494uKU8EI2mjQOlw6XLg4bL4fL3KDpc_3MUx-Lkw9B7y_VpTVUSeJ_a2y1kt-Wrpq3FSuoUkiQ1FlSIrNW0zKjgc1UvX05ZeTxiiWJuA0z8YCuiVIymnPonvzcJ4Onx0A0oYK0gfXkg5h68nKbm--eAnUWSkhCV1MEhq0dW2D-D4XO68so8znPsUsNgepepC3gPIgnzoNoHdn5YQenqtqNEzTCGuYi9OdJSmCNpfkHK_y5WyXUD4TEGJauEUEfCw2GlSoaHnt-VA2-MzuC5vhWxDSdVSaqf8BaV2OgmA0WQ3rslN9bm1_XAPLUFAuHBeLT8oPqvYrJLBm06tD3vSuSwcjZL8WIjRSdayhytM7JTkxSaVZLaZwzRtGLVA-HZAT5p5whYMKpygWnSqY9GocZNULRpiH7_IQtCfEvwzADtyM-qrrxVQEpbvJV4LkA5tPlwMj48xW-pYlOdQ-YZ73NMt-CUwBpyfePPscli3?></g></svg>