<svg xmlns="http://www.w3.org/2000/svg" xmlns:xlink="http://www.w3.org/1999/xlink" contentStyleType="text/css" data-diagram-type="ACTIVITY" height="599px" preserveAspectRatio="none" style="width:1672px;height:599px;background:#FFFFFF;" version="1.1" viewBox="0 0 1672 599" width="1672px" zoomAndPan="magnify"><title>&#1583;&#1604;&#1610;&#1604; &#1578;&#1588;&#1582;&#1610;&#1589; &#1608;&#1581;&#1604; &#1605;&#1588;&#1603;&#1604;&#1577; &#1591;&#1606;&#1610;&#1606; &#1575;&#1604;&#1605;&#1590;&#1582;&#1577; (Humming Sound)</title><defs/><g><rect fill="#FFFFCC" height="26.6406" rx="2.5" ry="2.5" style="stroke:#FFDD88;stroke-width:3;" width="1661.8052" x="5" y="5"/><text fill="#000000" font-family="monospace" font-size="10" lengthAdjust="spacing" textLength="559.9072" x="10" y="20">This&#160;syntax&#160;is&#160;deprecated,&#160;you&#160;must&#160;add&#160;&lt;&lt;#LightGreen&gt;&gt;&#160;at&#160;the&#160;end&#160;of&#160;the&#160;line,&#160;after&#160;the&#160;';'</text><g class="title" data-source-line="11"><text fill="#000000" font-family="Arial" font-size="14" font-weight="bold" lengthAdjust="spacing" textLength="422.8574" x="615.9739" y="69.6357">&#1583;&#1604;&#1610;&#1604; &#1578;&#1588;&#1582;&#1610;&#1589; &#1608;&#1581;&#1604; &#1605;&#1588;&#1603;&#1604;&#1577; &#1591;&#1606;&#1610;&#1606; &#1575;&#1604;&#1605;&#1590;&#1582;&#1577; (Humming Sound)</text></g><ellipse cx="857.0393" cy="93.9375" fill="#222222" rx="10" ry="10" style="stroke:#222222;stroke-width:1;"/><rect fill="#E3F2FD" height="33.9688" rx="5" ry="5" style="stroke:#1565C0;stroke-width:0.5;" width="219.6523" x="747.2131" y="123.9375"/><text fill="#000000" font-family="Arial" font-size="12" lengthAdjust="spacing" textLength="199.6523" x="757.2131" y="145.0762">&#1575;&#1604;&#1605;&#1590;&#1582;&#1577; &#1578;&#1589;&#1583;&#1585; &#1589;&#1608;&#1578; &#1591;&#1606;&#1610;&#1606; (&#1586;&#1606;&#1617;&#1577;) &#1608;&#1604;&#1575; &#1578;&#1583;&#1608;&#1585;</text><line style="stroke:#1565C0;stroke-width:1.5;" x1="333.2515" x2="1412.103" y1="177.9063" y2="177.9063"/><rect fill="none" height="218.5547" rx="5" ry="5" style="stroke:#000000;stroke-width:1.5;" width="640.7764" x="11" y="227.9531"/><path d="M65.8096,227.9531 L65.8096,237.25 L55.8096,247.25 L11,247.25" fill="none" style="stroke:#000000;stroke-width:1.5;"/><text fill="#000000" font-family="Arial" font-size="14" lengthAdjust="spacing" textLength="44.8096" x="14" y="241.9482">&#1575;&#1604;&#1603;&#1607;&#1585;&#1576;&#1575;&#1569;</text><polygon fill="#E3F2FD" points="36.0891,289.25,223.2019,289.25,235.2019,301.25,223.2019,313.25,36.0891,313.25,24.0891,301.25,36.0891,289.25" style="stroke:#1565C0;stroke-width:0.5;"/><text fill="#000000" font-family="Arial" font-size="11" lengthAdjust="spacing" textLength="15.689" x="133.6455" y="323.4604">&#1606;&#1593;&#1605;</text><text fill="#000000" font-family="Arial" font-size="11" lengthAdjust="spacing" textLength="187.1128" x="36.0891" y="305.0581">&#1607;&#1604; &#1575;&#1604;&#1605;&#1603;&#1579;&#1601; (Capacitor) &#1578;&#1575;&#1604;&#1601; &#1571;&#1608; &#1605;&#1606;&#1578;&#1601;&#1582;&#1567;</text><rect fill="#E3F2FD" height="33.9688" rx="5" ry="5" style="stroke:#1565C0;stroke-width:0.5;" width="217.291" x="21" y="346.0547"/><text fill="#000000" font-family="Arial" font-size="12" lengthAdjust="spacing" textLength="197.291" x="31" y="367.1934">&#1575;&#1587;&#1578;&#1576;&#1583;&#1575;&#1604; &#1575;&#1604;&#1605;&#1603;&#1579;&#1601; &#1576;&#1570;&#1582;&#1585; &#1580;&#1583;&#1610;&#1583; &#1576;&#1606;&#1601;&#1587; &#1575;&#1604;&#1587;&#1593;&#1577;</text><polygon fill="#E3F2FD" points="270.291,289.25,456.915,289.25,468.915,301.25,456.915,313.25,270.291,313.25,258.291,301.25,270.291,289.25" style="stroke:#1565C0;stroke-width:0.5;"/><text fill="#000000" font-family="Arial" font-size="11" lengthAdjust="spacing" textLength="15.689" x="367.603" y="323.4604">&#1606;&#1593;&#1605;</text><text fill="#000000" font-family="Arial" font-size="11" lengthAdjust="spacing" textLength="186.624" x="270.291" y="305.0581">&#1607;&#1604; &#1575;&#1604;&#1580;&#1607;&#1583; &#1575;&#1604;&#1603;&#1607;&#1585;&#1576;&#1575;&#1574;&#1610; (Voltage) &#1605;&#1606;&#1582;&#1601;&#1590;&#1567;</text><text fill="#000000" font-family="Arial" font-size="11" lengthAdjust="spacing" textLength="6.2734" x="468.915" y="298.6558">&#1604;&#1575;</text><rect fill="#E3F2FD" height="33.9688" rx="5" ry="5" style="stroke:#1565C0;stroke-width:0.5;" width="181.8359" x="272.6851" y="346.0547"/><text fill="#000000" font-family="Arial" font-size="12" lengthAdjust="spacing" textLength="161.8359" x="282.6851" y="367.1934">&#1601;&#1581;&#1589; &#1605;&#1589;&#1583;&#1585; &#1575;&#1604;&#1603;&#1607;&#1585;&#1576;&#1575;&#1569; &#1608;&#1575;&#1604;&#1578;&#1608;&#1589;&#1610;&#1604;&#1575;&#1578;</text><rect fill="#E3F2FD" height="33.9688" rx="5" ry="5" style="stroke:#1565C0;stroke-width:0.5;" width="156.5879" x="485.1885" y="342.6523"/><text fill="#000000" font-family="Arial" font-size="12" lengthAdjust="spacing" textLength="136.5879" x="495.1885" y="363.791">&#1601;&#1581;&#1589; &#1587;&#1604;&#1575;&#1605;&#1577; &#1605;&#1604;&#1601;&#1575;&#1578; &#1575;&#1604;&#1605;&#1608;&#1578;&#1608;&#1585;</text><rect fill="none" height="279.3354" rx="5" ry="5" style="stroke:#000000;stroke-width:1.5;" width="475.6245" x="661.7764" y="193.6567"/><path d="M724.3652,193.6567 L724.3652,202.9536 L714.3652,212.9536 L661.7764,212.9536" fill="none" style="stroke:#000000;stroke-width:1.5;"/><text fill="#000000" font-family="Arial" font-size="14" lengthAdjust="spacing" textLength="52.5889" x="664.7764" y="207.6519">&#1575;&#1604;&#1605;&#1610;&#1603;&#1575;&#1606;&#1610;&#1603;&#1575;</text><polygon fill="#E3F2FD" points="683.7764,254.7656,899.2109,254.7656,911.2109,266.7656,899.2109,278.7656,683.7764,278.7656,671.7764,266.7656,683.7764,254.7656" style="stroke:#1565C0;stroke-width:0.5;"/><text fill="#000000" font-family="Arial" font-size="11" lengthAdjust="spacing" textLength="15.689" x="795.4937" y="288.9761">&#1606;&#1593;&#1605;</text><text fill="#000000" font-family="Arial" font-size="11" lengthAdjust="spacing" textLength="215.4346" x="683.7764" y="270.5737">&#1607;&#1604; &#1575;&#1604;&#1583;&#1575;&#1601;&#1593;&#1577; (Impeller) &#1593;&#1575;&#1604;&#1602;&#1577; &#1576;&#1587;&#1576;&#1576; &#1575;&#1604;&#1585;&#1608;&#1575;&#1587;&#1576;&#1567;</text><rect fill="#E3F2FD" height="33.9688" rx="5" ry="5" style="stroke:#1565C0;stroke-width:0.5;" width="153.248" x="714.8696" y="311.5703"/><text fill="#000000" font-family="Arial" font-size="12" lengthAdjust="spacing" textLength="133.248" x="724.8696" y="332.709">&#1601;&#1603; &#1575;&#1604;&#1594;&#1591;&#1575;&#1569; &#1608;&#1578;&#1606;&#1592;&#1610;&#1601; &#1575;&#1604;&#1581;&#1580;&#1585;&#1577;</text><rect fill="#E3F2FD" height="33.9688" rx="5" ry="5" style="stroke:#1565C0;stroke-width:0.5;" width="190.3379" x="696.3247" y="380.5391"/><text fill="#000000" font-family="Arial" font-size="12" lengthAdjust="spacing" textLength="170.3379" x="706.3247" y="401.6777">&#1578;&#1581;&#1585;&#1610;&#1603; &#1575;&#1604;&#1605;&#1585;&#1608;&#1581;&#1577; &#1575;&#1604;&#1582;&#1604;&#1601;&#1610;&#1577; &#1610;&#1583;&#1608;&#1610;&#1575;&#1611; &#1576;&#1605;&#1601;&#1603;</text><polygon fill="#E3F2FD" points="943.2109,254.7656,1095.4009,254.7656,1107.4009,266.7656,1095.4009,278.7656,943.2109,278.7656,931.2109,266.7656,943.2109,254.7656" style="stroke:#1565C0;stroke-width:0.5;"/><text fill="#000000" font-family="Arial" font-size="11" lengthAdjust="spacing" textLength="15.689" x="1023.3059" y="288.9761">&#1606;&#1593;&#1605;</text><text fill="#000000" font-family="Arial" font-size="11" lengthAdjust="spacing" textLength="152.1899" x="943.2109" y="270.5737">&#1607;&#1604; &#1575;&#1604;&#1605;&#1581;&#1575;&#1605;&#1604; (&#1575;&#1604;&#1585;&#1608;&#1605;&#1575;&#1606; &#1576;&#1604;&#1610;) &#1578;&#1575;&#1604;&#1601;&#1577;&#1567;</text><rect fill="#E3F2FD" height="33.9688" rx="5" ry="5" style="stroke:#1565C0;stroke-width:0.5;" width="103.6426" x="967.4846" y="311.5703"/><text fill="#000000" font-family="Arial" font-size="12" lengthAdjust="spacing" textLength="83.6426" x="977.4846" y="332.709">&#1575;&#1587;&#1578;&#1576;&#1583;&#1575;&#1604; &#1575;&#1604;&#1605;&#1581;&#1575;&#1605;&#1604;</text><rect fill="none" height="218.5547" rx="5" ry="5" style="stroke:#000000;stroke-width:1.5;" width="499.4043" x="1147.4009" y="227.9531"/><path d="M1228.0229,227.9531 L1228.0229,237.25 L1218.0229,247.25 L1147.4009,247.25" fill="none" style="stroke:#000000;stroke-width:1.5;"/><text fill="#000000" font-family="Arial" font-size="14" lengthAdjust="spacing" textLength="70.6221" x="1150.4009" y="241.9482">&#1575;&#1604;&#1607;&#1608;&#1575;&#1569; &#1608;&#1575;&#1604;&#1605;&#1575;&#1569;</text><polygon fill="#E3F2FD" points="1196.8052,289.25,1373.2563,289.25,1385.2563,301.25,1373.2563,313.25,1196.8052,313.25,1184.8052,301.25,1196.8052,289.25" style="stroke:#1565C0;stroke-width:0.5;"/><text fill="#000000" font-family="Arial" font-size="11" lengthAdjust="spacing" textLength="15.689" x="1289.0308" y="323.4604">&#1606;&#1593;&#1605;</text><text fill="#000000" font-family="Arial" font-size="11" lengthAdjust="spacing" textLength="176.4512" x="1196.8052" y="305.0581">&#1607;&#1604; &#1610;&#1608;&#1580;&#1583; &#1575;&#1606;&#1581;&#1576;&#1575;&#1587; &#1604;&#1604;&#1607;&#1608;&#1575;&#1569; &#1583;&#1575;&#1582;&#1604; &#1575;&#1604;&#1605;&#1590;&#1582;&#1577;&#1567;</text><rect fill="#E3F2FD" height="33.9688" rx="5" ry="5" style="stroke:#1565C0;stroke-width:0.5;" width="255.2598" x="1157.4009" y="346.0547"/><text fill="#000000" font-family="Arial" font-size="12" lengthAdjust="spacing" textLength="235.2598" x="1167.4009" y="367.1934">&#1601;&#1603; &#1576;&#1585;&#1594;&#1610; &#1575;&#1604;&#1578;&#1606;&#1587;&#1610;&#1605; (Vent Screw) &#1604;&#1573;&#1582;&#1585;&#1575;&#1580; &#1575;&#1604;&#1607;&#1608;&#1575;&#1569;</text><polygon fill="#E3F2FD" points="1460.2529,289.25,1589.2129,289.25,1601.2129,301.25,1589.2129,313.25,1460.2529,313.25,1448.2529,301.25,1460.2529,289.25" style="stroke:#1565C0;stroke-width:0.5;"/><text fill="#000000" font-family="Arial" font-size="11" lengthAdjust="spacing" textLength="15.689" x="1528.7329" y="323.4604">&#1606;&#1593;&#1605;</text><text fill="#000000" font-family="Arial" font-size="11" lengthAdjust="spacing" textLength="128.96" x="1460.2529" y="305.0581">&#1607;&#1604; &#1578;&#1593;&#1605;&#1604; &#1575;&#1604;&#1605;&#1590;&#1582;&#1577; &#1576;&#1583;&#1608;&#1606; &#1605;&#1575;&#1569;&#1567;</text><rect fill="#E3F2FD" height="33.9688" rx="5" ry="5" style="stroke:#1565C0;stroke-width:0.5;" width="184.1445" x="1432.6606" y="346.0547"/><text fill="#000000" font-family="Arial" font-size="12" lengthAdjust="spacing" textLength="164.1445" x="1442.6606" y="367.1934">&#1573;&#1610;&#1602;&#1575;&#1601; &#1575;&#1604;&#1578;&#1588;&#1594;&#1610;&#1604; &#1608;&#1578;&#1608;&#1601;&#1610;&#1585; &#1605;&#1589;&#1583;&#1585; &#1605;&#1610;&#1575;&#1607;</text><line style="stroke:#1565C0;stroke-width:1.5;" x1="333.2515" x2="1412.103" y1="492.9922" y2="492.9922"/><rect fill="#E3F2FD" height="33.9688" rx="5" ry="5" style="stroke:#1565C0;stroke-width:0.5;" width="192.6289" x="760.7249" y="512.9922"/><text fill="#000000" font-family="Arial" font-size="12" lengthAdjust="spacing" textLength="172.6289" x="770.7249" y="534.1309">&#1573;&#1593;&#1575;&#1583;&#1577; &#1575;&#1604;&#1578;&#1588;&#1594;&#1610;&#1604; &#1608;&#1575;&#1582;&#1578;&#1576;&#1575;&#1585; &#1586;&#1608;&#1575;&#1604; &#1575;&#1604;&#1589;&#1608;&#1578;</text><ellipse cx="857.0393" cy="577.9609" fill="none" rx="11" ry="11" style="stroke:#222222;stroke-width:1;"/><ellipse cx="857.0393" cy="577.9609" fill="#222222" rx="6" ry="6" style="stroke:#222222;stroke-width:1;"/><line style="stroke:#1565C0;stroke-width:1;" x1="857.0393" x2="857.0393" y1="103.9375" y2="123.9375"/><polygon fill="#1565C0" points="853.0393,113.9375,857.0393,123.9375,861.0393,113.9375,857.0393,117.9375" style="stroke:#1565C0;stroke-width:1;"/><line style="stroke:#1565C0;stroke-width:1;" x1="129.6455" x2="129.6455" y1="313.25" y2="346.0547"/><polygon fill="#1565C0" points="125.6455,336.0547,129.6455,346.0547,133.6455,336.0547,129.6455,340.0547" style="stroke:#1565C0;stroke-width:1;"/><line style="stroke:#1565C0;stroke-width:1;" x1="129.6455" x2="129.6455" y1="380.0234" y2="434.5078"/><polygon fill="#1565C0" points="125.6455,424.5078,129.6455,434.5078,133.6455,424.5078,129.6455,428.5078" style="stroke:#1565C0;stroke-width:1;"/><line style="stroke:#1565C0;stroke-width:1;" x1="363.603" x2="363.603" y1="313.25" y2="346.0547"/><polygon fill="#1565C0" points="359.603,336.0547,363.603,346.0547,367.603,336.0547,363.603,340.0547" style="stroke:#1565C0;stroke-width:1;"/><line style="stroke:#1565C0;stroke-width:1;" x1="363.603" x2="363.603" y1="380.0234" y2="434.5078"/><polygon fill="#1565C0" points="359.603,424.5078,363.603,434.5078,367.603,424.5078,363.603,428.5078" style="stroke:#1565C0;stroke-width:1;"/><line style="stroke:#1565C0;stroke-width:1;" x1="235.2019" x2="258.291" y1="301.25" y2="301.25"/><polygon fill="#1565C0" points="248.291,297.25,258.291,301.25,248.291,305.25,252.291,301.25" style="stroke:#1565C0;stroke-width:1;"/><line style="stroke:#1565C0;stroke-width:1;" x1="333.2515" x2="129.6455" y1="264.25" y2="264.25"/><line style="stroke:#1565C0;stroke-width:1;" x1="129.6455" x2="129.6455" y1="264.25" y2="289.25"/><polygon fill="#1565C0" points="125.6455,279.25,129.6455,289.25,133.6455,279.25,129.6455,283.25" style="stroke:#1565C0;stroke-width:1;"/><line style="stroke:#1565C0;stroke-width:1;" x1="468.915" x2="563.4824" y1="301.25" y2="301.25"/><line style="stroke:#1565C0;stroke-width:1;" x1="563.4824" x2="563.4824" y1="301.25" y2="342.6523"/><polygon fill="#1565C0" points="559.4824,332.6523,563.4824,342.6523,567.4824,332.6523,563.4824,336.6523" style="stroke:#1565C0;stroke-width:1;"/><line style="stroke:#1565C0;stroke-width:1;" x1="563.4824" x2="563.4824" y1="376.6211" y2="434.5078"/><polygon fill="#1565C0" points="559.4824,424.5078,563.4824,434.5078,567.4824,424.5078,563.4824,428.5078" style="stroke:#1565C0;stroke-width:1;"/><line style="stroke:#1565C0;stroke-width:1;" x1="129.6455" x2="563.4824" y1="434.5078" y2="434.5078"/><line style="stroke:#1565C0;stroke-width:1;" x1="791.4937" x2="791.4937" y1="345.5391" y2="380.5391"/><polygon fill="#1565C0" points="787.4937,370.5391,791.4937,380.5391,795.4937,370.5391,791.4937,374.5391" style="stroke:#1565C0;stroke-width:1;"/><line style="stroke:#1565C0;stroke-width:1;" x1="791.4937" x2="791.4937" y1="278.7656" y2="311.5703"/><polygon fill="#1565C0" points="787.4937,301.5703,791.4937,311.5703,795.4937,301.5703,791.4937,305.5703" style="stroke:#1565C0;stroke-width:1;"/><line style="stroke:#1565C0;stroke-width:1;" x1="791.4937" x2="791.4937" y1="414.5078" y2="460.9922"/><polygon fill="#1565C0" points="787.4937,450.9922,791.4937,460.9922,795.4937,450.9922,791.4937,454.9922" style="stroke:#1565C0;stroke-width:1;"/><line style="stroke:#1565C0;stroke-width:1;" x1="1019.3059" x2="1019.3059" y1="278.7656" y2="311.5703"/><polygon fill="#1565C0" points="1015.3059,301.5703,1019.3059,311.5703,1023.3059,301.5703,1019.3059,305.5703" style="stroke:#1565C0;stroke-width:1;"/><line style="stroke:#1565C0;stroke-width:1;" x1="1019.3059" x2="1019.3059" y1="345.5391" y2="460.9922"/><polygon fill="#1565C0" points="1015.3059,450.9922,1019.3059,460.9922,1023.3059,450.9922,1019.3059,454.9922" style="stroke:#1565C0;stroke-width:1;"/><line style="stroke:#1565C0;stroke-width:1;" x1="911.2109" x2="931.2109" y1="266.7656" y2="266.7656"/><polygon fill="#1565C0" points="921.2109,262.7656,931.2109,266.7656,921.2109,270.7656,925.2109,266.7656" style="stroke:#1565C0;stroke-width:1;"/><line style="stroke:#1565C0;stroke-width:1;" x1="914.5886" x2="791.4937" y1="229.7656" y2="229.7656"/><line style="stroke:#1565C0;stroke-width:1;" x1="791.4937" x2="791.4937" y1="229.7656" y2="254.7656"/><polygon fill="#1565C0" points="787.4937,244.7656,791.4937,254.7656,795.4937,244.7656,791.4937,248.7656" style="stroke:#1565C0;stroke-width:1;"/><line style="stroke:#1565C0;stroke-width:1;" x1="1107.4009" x2="1121.4009" y1="266.7656" y2="266.7656"/><line style="stroke:#1565C0;stroke-width:1;" x1="1121.4009" x2="1121.4009" y1="266.7656" y2="460.9922"/><polygon fill="#1565C0" points="1117.4009,450.9922,1121.4009,460.9922,1125.4009,450.9922,1121.4009,454.9922" style="stroke:#1565C0;stroke-width:1;"/><line style="stroke:#1565C0;stroke-width:1;" x1="791.4937" x2="1121.4009" y1="460.9922" y2="460.9922"/><line style="stroke:#1565C0;stroke-width:1;" x1="1285.0308" x2="1285.0308" y1="313.25" y2="346.0547"/><polygon fill="#1565C0" points="1281.0308,336.0547,1285.0308,346.0547,1289.0308,336.0547,1285.0308,340.0547" style="stroke:#1565C0;stroke-width:1;"/><line style="stroke:#1565C0;stroke-width:1;" x1="1285.0308" x2="1285.0308" y1="380.0234" y2="434.5078"/><polygon fill="#1565C0" points="1281.0308,424.5078,1285.0308,434.5078,1289.0308,424.5078,1285.0308,428.5078" style="stroke:#1565C0;stroke-width:1;"/><line style="stroke:#1565C0;stroke-width:1;" x1="1524.7329" x2="1524.7329" y1="313.25" y2="346.0547"/><polygon fill="#1565C0" points="1520.7329,336.0547,1524.7329,346.0547,1528.7329,336.0547,1524.7329,340.0547" style="stroke:#1565C0;stroke-width:1;"/><line style="stroke:#1565C0;stroke-width:1;" x1="1524.7329" x2="1524.7329" y1="380.0234" y2="434.5078"/><polygon fill="#1565C0" points="1520.7329,424.5078,1524.7329,434.5078,1528.7329,424.5078,1524.7329,428.5078" style="stroke:#1565C0;stroke-width:1;"/><line style="stroke:#1565C0;stroke-width:1;" x1="1385.2563" x2="1448.2529" y1="301.25" y2="301.25"/><polygon fill="#1565C0" points="1438.2529,297.25,1448.2529,301.25,1438.2529,305.25,1442.2529,301.25" style="stroke:#1565C0;stroke-width:1;"/><line style="stroke:#1565C0;stroke-width:1;" x1="1412.103" x2="1285.0308" y1="264.25" y2="264.25"/><line style="stroke:#1565C0;stroke-width:1;" x1="1285.0308" x2="1285.0308" y1="264.25" y2="289.25"/><polygon fill="#1565C0" points="1281.0308,279.25,1285.0308,289.25,1289.0308,279.25,1285.0308,283.25" style="stroke:#1565C0;stroke-width:1;"/><line style="stroke:#1565C0;stroke-width:1;" x1="1601.2129" x2="1630.8052" y1="301.25" y2="301.25"/><line style="stroke:#1565C0;stroke-width:1;" x1="1630.8052" x2="1630.8052" y1="301.25" y2="434.5078"/><polygon fill="#1565C0" points="1626.8052,424.5078,1630.8052,434.5078,1634.8052,424.5078,1630.8052,428.5078" style="stroke:#1565C0;stroke-width:1;"/><line style="stroke:#1565C0;stroke-width:1;" x1="1285.0308" x2="1630.8052" y1="434.5078" y2="434.5078"/><line style="stroke:#1565C0;stroke-width:1;" x1="333.2515" x2="333.2515" y1="179.4063" y2="264.25"/><text fill="#000000" font-family="Arial" font-size="11" font-weight="bold" lengthAdjust="spacing" textLength="82.1455" x="337.2515" y="216.4531">&#1571;&#1587;&#1576;&#1575;&#1576; &#1603;&#1607;&#1585;&#1576;&#1575;&#1574;&#1610;&#1577;</text><line style="stroke:#1565C0;stroke-width:1;" x1="914.5886" x2="914.5886" y1="179.4063" y2="229.7656"/><text fill="#000000" font-family="Arial" font-size="11" font-weight="bold" lengthAdjust="spacing" textLength="86.0986" x="918.5886" y="199.2109">&#1571;&#1587;&#1576;&#1575;&#1576; &#1605;&#1610;&#1603;&#1575;&#1606;&#1610;&#1603;&#1610;&#1577;</text><line style="stroke:#1565C0;stroke-width:1;" x1="1412.103" x2="1412.103" y1="179.4063" y2="264.25"/><text fill="#000000" font-family="Arial" font-size="11" font-weight="bold" lengthAdjust="spacing" textLength="95.9116" x="1416.103" y="216.4531">&#1571;&#1587;&#1576;&#1575;&#1576; &#1607;&#1610;&#1583;&#1585;&#1608;&#1604;&#1610;&#1603;&#1610;&#1577;</text><line style="stroke:#1565C0;stroke-width:1;" x1="333.2515" x2="333.2515" y1="434.5078" y2="492.9922"/><polygon fill="#1565C0" points="329.2515,482.9922,333.2515,492.9922,337.2515,482.9922,333.2515,486.9922" style="stroke:#1565C0;stroke-width:1;"/><line style="stroke:#1565C0;stroke-width:1;" x1="914.5886" x2="914.5886" y1="460.9922" y2="492.9922"/><polygon fill="#1565C0" points="910.5886,482.9922,914.5886,492.9922,918.5886,482.9922,914.5886,486.9922" style="stroke:#1565C0;stroke-width:1;"/><line style="stroke:#1565C0;stroke-width:1;" x1="1412.103" x2="1412.103" y1="434.5078" y2="492.9922"/><polygon fill="#1565C0" points="1408.103,482.9922,1412.103,492.9922,1416.103,482.9922,1412.103,486.9922" style="stroke:#1565C0;stroke-width:1;"/><line style="stroke:#1565C0;stroke-width:1;" x1="857.0393" x2="857.0393" y1="157.9063" y2="177.9063"/><polygon fill="#1565C0" points="853.0393,167.9063,857.0393,177.9063,861.0393,167.9063,857.0393,171.9063" style="stroke:#1565C0;stroke-width:1;"/><line style="stroke:#1565C0;stroke-width:1;" x1="857.0393" x2="857.0393" y1="494.4922" y2="512.9922"/><polygon fill="#1565C0" points="853.0393,502.9922,857.0393,512.9922,861.0393,502.9922,857.0393,506.9922" style="stroke:#1565C0;stroke-width:1;"/><line style="stroke:#1565C0;stroke-width:1;" x1="857.0393" x2="857.0393" y1="546.9609" y2="566.9609"/><polygon fill="#1565C0" points="853.0393,556.9609,857.0393,566.9609,861.0393,556.9609,857.0393,560.9609" style="stroke:#1565C0;stroke-width:1;"/></g></svg>