<svg xmlns="http://www.w3.org/2000/svg" xmlns:xlink="http://www.w3.org/1999/xlink" contentStyleType="text/css" data-diagram-type="ACTIVITY" height="739px" preserveAspectRatio="none" style="width:458px;height:739px;background:#FFFFFF;" version="1.1" viewBox="0 0 458 739" width="458px" zoomAndPan="magnify"><title>&#1605;&#1582;&#1591;&#1591; &#1593;&#1605;&#1604;&#1610;&#1577; &#1578;&#1580;&#1605;&#1610;&#1593; &#1604;&#1608;&#1581;&#1577; &#1578;&#1581;&#1603;&#1605; &#1605;&#1590;&#1582;&#1577;</title><defs/><g><g class="title" data-source-line="2"><text fill="#000000" font-family="'Arial'" font-size="14" font-weight="bold" lengthAdjust="spacing" textLength="258.7607" x="98.1497" y="32.9951">&#1605;&#1582;&#1591;&#1591; &#1593;&#1605;&#1604;&#1610;&#1577; &#1578;&#1580;&#1605;&#1610;&#1593; &#1604;&#1608;&#1581;&#1577; &#1578;&#1581;&#1603;&#1605; &#1605;&#1590;&#1582;&#1577;</text></g><ellipse cx="137.187" cy="57.2969" fill="#222222" rx="10" ry="10" style="stroke:#222222;stroke-width:1;"/><path d="M276.6372,92.8789 L276.6372,101.4453 L256.6372,105.4453 L276.6372,109.4453 L276.6372,118.0117 A0,0 0 0 0 276.6372,118.0117 L418.4014,118.0117 A0,0 0 0 0 418.4014,118.0117 L418.4014,102.8789 L408.4014,92.8789 L276.6372,92.8789 A0,0 0 0 0 276.6372,92.8789" fill="#F0F8FF" style="stroke:#1C6EA4;stroke-width:0.5;"/><path d="M408.4014,92.8789 L408.4014,102.8789 L418.4014,102.8789 L408.4014,92.8789" fill="#F0F8FF" style="stroke:#1C6EA4;stroke-width:0.5;"/><text fill="#000000" font-family="'Arial'" font-size="13" lengthAdjust="spacing" textLength="120.7642" x="282.6372" y="109.9458">- &#1601;&#1607;&#1605; &#1575;&#1581;&#1578;&#1610;&#1575;&#1580;&#1575;&#1578; &#1575;&#1604;&#1593;&#1605;&#1610;&#1604;</text><rect fill="#A9DCDF" height="36.2969" rx="12.5" ry="12.5" style="stroke:#1C6EA4;stroke-width:0.5;" width="238.9004" x="17.7368" y="87.2969"/><text fill="#000000" font-family="'Arial'" font-size="14" lengthAdjust="spacing" textLength="218.9004" x="27.7368" y="110.292">&#1575;&#1604;&#1605;&#1585;&#1581;&#1604;&#1577; 1: &#1575;&#1604;&#1578;&#1589;&#1605;&#1610;&#1605; &#1608;&#1578;&#1581;&#1583;&#1610;&#1583; &#1575;&#1604;&#1605;&#1578;&#1591;&#1604;&#1576;&#1575;&#1578;</text><rect fill="#A9DCDF" height="36.2969" rx="12.5" ry="12.5" style="stroke:#1C6EA4;stroke-width:0.5;" width="158.7764" x="57.7988" y="143.5938"/><text fill="#000000" font-family="'Arial'" font-size="14" lengthAdjust="spacing" textLength="138.7764" x="67.7988" y="166.5889">&#1578;&#1589;&#1605;&#1610;&#1605; &#1575;&#1604;&#1583;&#1575;&#1574;&#1585;&#1577; &#1575;&#1604;&#1603;&#1607;&#1585;&#1576;&#1575;&#1574;&#1610;&#1577;</text><path d="M245.0039,205.4727 L245.0039,214.0391 L225.0039,218.0391 L245.0039,222.0391 L245.0039,230.6055 A0,0 0 0 0 245.0039,230.6055 L400.7012,230.6055 A0,0 0 0 0 400.7012,230.6055 L400.7012,215.4727 L390.7012,205.4727 L245.0039,205.4727 A0,0 0 0 0 245.0039,205.4727" fill="#F0F8FF" style="stroke:#1C6EA4;stroke-width:0.5;"/><path d="M390.7012,205.4727 L390.7012,215.4727 L400.7012,215.4727 L390.7012,205.4727" fill="#F0F8FF" style="stroke:#1C6EA4;stroke-width:0.5;"/><text fill="#000000" font-family="'Arial'" font-size="13" lengthAdjust="spacing" textLength="134.6973" x="251.0039" y="222.5396">- &#1589;&#1606;&#1583;&#1608;&#1602; &#1575;&#1604;&#1578;&#1581;&#1603;&#1605; (&#1575;&#1604;&#1604;&#1608;&#1581;&#1577;)</text><rect fill="#A9DCDF" height="36.2969" rx="12.5" ry="12.5" style="stroke:#1C6EA4;stroke-width:0.5;" width="175.6338" x="49.3701" y="199.8906"/><text fill="#000000" font-family="'Arial'" font-size="14" lengthAdjust="spacing" textLength="155.6338" x="59.3701" y="222.8857">&#1575;&#1604;&#1605;&#1585;&#1581;&#1604;&#1577; 2: &#1578;&#1580;&#1607;&#1610;&#1586; &#1575;&#1604;&#1605;&#1603;&#1608;&#1606;&#1575;&#1578;</text><rect fill="#A9DCDF" height="36.2969" rx="12.5" ry="12.5" style="stroke:#1C6EA4;stroke-width:0.5;" width="153.6221" x="60.376" y="256.1875"/><text fill="#000000" font-family="'Arial'" font-size="14" lengthAdjust="spacing" textLength="133.6221" x="70.376" y="279.1826">&#1575;&#1604;&#1602;&#1608;&#1575;&#1591;&#1593; &#1608;&#1575;&#1604;&#1603;&#1608;&#1606;&#1578;&#1575;&#1603;&#1578;&#1608;&#1585;&#1575;&#1578;</text><rect fill="#A9DCDF" height="36.2969" rx="12.5" ry="12.5" style="stroke:#1C6EA4;stroke-width:0.5;" width="149.1377" x="62.6182" y="312.4844"/><text fill="#000000" font-family="'Arial'" font-size="14" lengthAdjust="spacing" textLength="129.1377" x="72.6182" y="335.4795">&#1571;&#1580;&#1607;&#1586;&#1577; &#1575;&#1604;&#1581;&#1605;&#1575;&#1610;&#1577; &#1608;&#1575;&#1604;&#1578;&#1581;&#1603;&#1605;</text><rect fill="#A9DCDF" height="36.2969" rx="12.5" ry="12.5" style="stroke:#1C6EA4;stroke-width:0.5;" width="64.0439" x="105.165" y="368.7813"/><text fill="#000000" font-family="'Arial'" font-size="14" lengthAdjust="spacing" textLength="44.0439" x="115.165" y="391.7764">&#1575;&#1604;&#1571;&#1587;&#1604;&#1575;&#1603;</text><path d="M253.6479,430.6602 L253.6479,439.2266 L233.6479,443.2266 L253.6479,447.2266 L253.6479,455.793 A0,0 0 0 0 253.6479,455.793 L446.0601,455.793 A0,0 0 0 0 446.0601,455.793 L446.0601,440.6602 L436.0601,430.6602 L253.6479,430.6602 A0,0 0 0 0 253.6479,430.6602" fill="#F0F8FF" style="stroke:#1C6EA4;stroke-width:0.5;"/><path d="M436.0601,430.6602 L436.0601,440.6602 L446.0601,440.6602 L436.0601,430.6602" fill="#F0F8FF" style="stroke:#1C6EA4;stroke-width:0.5;"/><text fill="#000000" font-family="'Arial'" font-size="13" lengthAdjust="spacing" textLength="171.4121" x="259.6479" y="447.7271">- &#1578;&#1579;&#1576;&#1610;&#1578; &#1575;&#1604;&#1605;&#1603;&#1608;&#1606;&#1575;&#1578; &#1583;&#1575;&#1582;&#1604; &#1575;&#1604;&#1589;&#1606;&#1583;&#1608;&#1602;</text><rect fill="#A9DCDF" height="36.2969" rx="12.5" ry="12.5" style="stroke:#1C6EA4;stroke-width:0.5;" width="192.9219" x="40.7261" y="425.0781"/><text fill="#000000" font-family="'Arial'" font-size="14" lengthAdjust="spacing" textLength="172.9219" x="50.7261" y="448.0732">&#1575;&#1604;&#1605;&#1585;&#1581;&#1604;&#1577; 3: &#1575;&#1604;&#1578;&#1580;&#1605;&#1610;&#1593; &#1575;&#1604;&#1605;&#1610;&#1603;&#1575;&#1606;&#1610;&#1603;&#1610;</text><rect fill="#A9DCDF" height="36.2969" rx="12.5" ry="12.5" style="stroke:#1C6EA4;stroke-width:0.5;" width="252.374" x="11" y="481.375"/><text fill="#000000" font-family="'Arial'" font-size="14" lengthAdjust="spacing" textLength="232.374" x="21" y="504.3701">&#1575;&#1604;&#1605;&#1585;&#1581;&#1604;&#1577; 4: &#1575;&#1604;&#1578;&#1608;&#1589;&#1610;&#1604; &#1575;&#1604;&#1603;&#1607;&#1585;&#1576;&#1575;&#1574;&#1610; (Wiring)</text><path d="M264.1035,543.2539 L264.1035,551.8203 L244.1035,555.8203 L264.1035,559.8203 L264.1035,568.3867 A0,0 0 0 0 264.1035,568.3867 L421.394,568.3867 A0,0 0 0 0 421.394,568.3867 L421.394,553.2539 L411.394,543.2539 L264.1035,543.2539 A0,0 0 0 0 264.1035,543.2539" fill="#F0F8FF" style="stroke:#1C6EA4;stroke-width:0.5;"/><path d="M411.394,543.2539 L411.394,553.2539 L421.394,553.2539 L411.394,543.2539" fill="#F0F8FF" style="stroke:#1C6EA4;stroke-width:0.5;"/><text fill="#000000" font-family="'Arial'" font-size="13" lengthAdjust="spacing" textLength="136.2905" x="270.1035" y="560.3208">- &#1601;&#1581;&#1589; &#1575;&#1587;&#1578;&#1605;&#1585;&#1575;&#1585;&#1610;&#1577; &#1575;&#1604;&#1583;&#1608;&#1575;&#1574;&#1585;</text><rect fill="#A9DCDF" height="36.2969" rx="12.5" ry="12.5" style="stroke:#1C6EA4;stroke-width:0.5;" width="213.833" x="30.2705" y="537.6719"/><text fill="#000000" font-family="'Arial'" font-size="14" lengthAdjust="spacing" textLength="193.833" x="40.2705" y="560.667">&#1575;&#1604;&#1605;&#1585;&#1581;&#1604;&#1577; 5: &#1575;&#1604;&#1575;&#1582;&#1578;&#1576;&#1575;&#1585; &#1608;&#1601;&#1581;&#1589; &#1575;&#1604;&#1580;&#1608;&#1583;&#1577;</text><rect fill="#A9DCDF" height="36.2969" rx="12.5" ry="12.5" style="stroke:#1C6EA4;stroke-width:0.5;" width="156.876" x="58.749" y="593.9688"/><text fill="#000000" font-family="'Arial'" font-size="14" lengthAdjust="spacing" textLength="136.876" x="68.749" y="616.9639">&#1575;&#1582;&#1578;&#1576;&#1575;&#1585; &#1575;&#1604;&#1578;&#1588;&#1594;&#1610;&#1604; &#1575;&#1604;&#1608;&#1592;&#1610;&#1601;&#1610;</text><rect fill="#A9DCDF" height="36.2969" rx="12.5" ry="12.5" style="stroke:#1C6EA4;stroke-width:0.5;" width="227.0605" x="23.6567" y="650.2656"/><text fill="#000000" font-family="'Arial'" font-size="14" lengthAdjust="spacing" textLength="207.0605" x="33.6567" y="673.2607">&#1575;&#1604;&#1605;&#1585;&#1581;&#1604;&#1577; 6: &#1575;&#1604;&#1578;&#1594;&#1604;&#1610;&#1601; &#1608;&#1575;&#1604;&#1578;&#1587;&#1604;&#1610;&#1605; &#1604;&#1604;&#1593;&#1605;&#1610;&#1604;</text><ellipse cx="137.187" cy="717.5625" fill="none" rx="11" ry="11" style="stroke:#222222;stroke-width:1;"/><ellipse cx="137.187" cy="717.5625" fill="#222222" rx="6" ry="6" style="stroke:#222222;stroke-width:1;"/><line style="stroke:#1C6EA4;stroke-width:2;" x1="137.187" x2="137.187" y1="67.2969" y2="87.2969"/><polygon fill="#1C6EA4" points="133.187,77.2969,137.187,87.2969,141.187,77.2969,137.187,81.2969" style="stroke:#1C6EA4;stroke-width:1;"/><line style="stroke:#1C6EA4;stroke-width:2;" x1="137.187" x2="137.187" y1="123.5938" y2="143.5938"/><polygon fill="#1C6EA4" points="133.187,133.5938,137.187,143.5938,141.187,133.5938,137.187,137.5938" style="stroke:#1C6EA4;stroke-width:1;"/><line style="stroke:#1C6EA4;stroke-width:2;" x1="137.187" x2="137.187" y1="179.8906" y2="199.8906"/><polygon fill="#1C6EA4" points="133.187,189.8906,137.187,199.8906,141.187,189.8906,137.187,193.8906" style="stroke:#1C6EA4;stroke-width:1;"/><line style="stroke:#1C6EA4;stroke-width:2;" x1="137.187" x2="137.187" y1="236.1875" y2="256.1875"/><polygon fill="#1C6EA4" points="133.187,246.1875,137.187,256.1875,141.187,246.1875,137.187,250.1875" style="stroke:#1C6EA4;stroke-width:1;"/><line style="stroke:#1C6EA4;stroke-width:2;" x1="137.187" x2="137.187" y1="292.4844" y2="312.4844"/><polygon fill="#1C6EA4" points="133.187,302.4844,137.187,312.4844,141.187,302.4844,137.187,306.4844" style="stroke:#1C6EA4;stroke-width:1;"/><line style="stroke:#1C6EA4;stroke-width:2;" x1="137.187" x2="137.187" y1="348.7813" y2="368.7813"/><polygon fill="#1C6EA4" points="133.187,358.7813,137.187,368.7813,141.187,358.7813,137.187,362.7813" style="stroke:#1C6EA4;stroke-width:1;"/><line style="stroke:#1C6EA4;stroke-width:2;" x1="137.187" x2="137.187" y1="405.0781" y2="425.0781"/><polygon fill="#1C6EA4" points="133.187,415.0781,137.187,425.0781,141.187,415.0781,137.187,419.0781" style="stroke:#1C6EA4;stroke-width:1;"/><line style="stroke:#1C6EA4;stroke-width:2;" x1="137.187" x2="137.187" y1="461.375" y2="481.375"/><polygon fill="#1C6EA4" points="133.187,471.375,137.187,481.375,141.187,471.375,137.187,475.375" style="stroke:#1C6EA4;stroke-width:1;"/><line style="stroke:#1C6EA4;stroke-width:2;" x1="137.187" x2="137.187" y1="517.6719" y2="537.6719"/><polygon fill="#1C6EA4" points="133.187,527.6719,137.187,537.6719,141.187,527.6719,137.187,531.6719" style="stroke:#1C6EA4;stroke-width:1;"/><line style="stroke:#1C6EA4;stroke-width:2;" x1="137.187" x2="137.187" y1="573.9688" y2="593.9688"/><polygon fill="#1C6EA4" points="133.187,583.9688,137.187,593.9688,141.187,583.9688,137.187,587.9688" style="stroke:#1C6EA4;stroke-width:1;"/><line style="stroke:#1C6EA4;stroke-width:2;" x1="137.187" x2="137.187" y1="630.2656" y2="650.2656"/><polygon fill="#1C6EA4" points="133.187,640.2656,137.187,650.2656,141.187,640.2656,137.187,644.2656" style="stroke:#1C6EA4;stroke-width:1;"/><line style="stroke:#1C6EA4;stroke-width:2;" x1="137.187" x2="137.187" y1="686.5625" y2="706.5625"/><polygon fill="#1C6EA4" points="133.187,696.5625,137.187,706.5625,141.187,696.5625,137.187,700.5625" style="stroke:#1C6EA4;stroke-width:1;"/></g></svg>