<svg xmlns="http://www.w3.org/2000/svg" xmlns:xlink="http://www.w3.org/1999/xlink" contentStyleType="text/css" data-diagram-type="ACTIVITY" height="816px" preserveAspectRatio="none" style="width:425px;height:816px;background:#FFFFFF;" version="1.1" viewBox="0 0 425 816" width="425px" zoomAndPan="magnify"><title>&#1605;&#1582;&#1591;&#1591; &#1593;&#1605;&#1604;&#1610;&#1577; &#1589;&#1610;&#1575;&#1606;&#1577; &#1571;&#1606;&#1592;&#1605;&#1577; &#1575;&#1604;&#1590;&#1582; - &#1585;&#1608;&#1575;&#1574;&#1593; &#1575;&#1604;&#1603;&#1585;&#1610;&#1587;&#1578;&#1575;&#1604;</title><defs/><g><g class="title" data-source-line="6"><text fill="#000000" font-family="'Arial'" font-size="14" font-weight="bold" lengthAdjust="spacing" textLength="345.8506" x="38.5386" y="32.9951">&#1605;&#1582;&#1591;&#1591; &#1593;&#1605;&#1604;&#1610;&#1577; &#1589;&#1610;&#1575;&#1606;&#1577; &#1571;&#1606;&#1592;&#1605;&#1577; &#1575;&#1604;&#1590;&#1582; - &#1585;&#1608;&#1575;&#1574;&#1593; &#1575;&#1604;&#1603;&#1585;&#1610;&#1587;&#1578;&#1575;&#1604;</text></g><ellipse cx="220.7554" cy="57.2969" fill="#222222" rx="10" ry="10" style="stroke:#222222;stroke-width:1;"/><rect fill="#F1F1F1" height="33.9688" rx="12.5" ry="12.5" style="stroke:#181818;stroke-width:0.5;" width="147.002" x="147.2544" y="87.2969"/><text fill="#000000" font-family="'Arial'" font-size="12" lengthAdjust="spacing" textLength="127.002" x="157.2544" y="108.4355">&#1591;&#1604;&#1576; &#1575;&#1604;&#1578;&#1593;&#1575;&#1602;&#1583; (&#1593;&#1602;&#1583; &#1587;&#1606;&#1608;&#1610;)</text><rect fill="#F1F1F1" height="33.9688" rx="12.5" ry="12.5" style="stroke:#181818;stroke-width:0.5;" width="157.9883" x="141.7612" y="141.2656"/><text fill="#000000" font-family="'Arial'" font-size="12" lengthAdjust="spacing" textLength="137.9883" x="151.7612" y="162.4043">&#1575;&#1604;&#1605;&#1593;&#1575;&#1610;&#1606;&#1577; &#1575;&#1604;&#1601;&#1606;&#1610;&#1577; &#1575;&#1604;&#1571;&#1608;&#1604;&#1610;&#1577; &#1604;&#1604;&#1605;&#1608;&#1602;&#1593;</text><rect fill="none" height="244.1719" style="stroke:#000000;stroke-width:1.5;" width="225.8066" x="107.8521" y="185.2344"/><path d="M228.9565,185.2344 L228.9565,194.5313 L218.9565,204.5313 L107.8521,204.5313" fill="none" style="stroke:#000000;stroke-width:1.5;"/><text fill="#000000" font-family="'Arial'" font-size="14" lengthAdjust="spacing" textLength="111.1045" x="110.8521" y="199.2295">&#1576;&#1606;&#1608;&#1583; &#1575;&#1604;&#1589;&#1610;&#1575;&#1606;&#1577; &#1575;&#1604;&#1583;&#1608;&#1585;&#1610;&#1577;</text><rect fill="#F1F1F1" height="33.9688" rx="12.5" ry="12.5" style="stroke:#181818;stroke-width:0.5;" width="200.0762" x="120.7173" y="221.5313"/><text fill="#000000" font-family="'Arial'" font-size="12" lengthAdjust="spacing" textLength="180.0762" x="130.7173" y="242.6699">&#1601;&#1581;&#1589; &#1575;&#1604;&#1605;&#1581;&#1585;&#1603;&#1575;&#1578; &#1608;&#1575;&#1604;&#1604;&#1608;&#1581;&#1575;&#1578; &#1575;&#1604;&#1603;&#1607;&#1585;&#1576;&#1575;&#1574;&#1610;&#1577;</text><rect fill="#F1F1F1" height="33.9688" rx="12.5" ry="12.5" style="stroke:#181818;stroke-width:0.5;" width="205.8066" x="117.8521" y="275.5"/><text fill="#000000" font-family="'Arial'" font-size="12" lengthAdjust="spacing" textLength="185.8066" x="127.8521" y="296.6387">&#1575;&#1604;&#1578;&#1571;&#1603;&#1583; &#1605;&#1606; &#1587;&#1604;&#1575;&#1605;&#1577; &#1575;&#1604;&#1578;&#1608;&#1589;&#1610;&#1604;&#1575;&#1578; &#1608;&#1575;&#1604;&#1605;&#1608;&#1575;&#1587;&#1610;&#1585;</text><rect fill="#F1F1F1" height="33.9688" rx="12.5" ry="12.5" style="stroke:#181818;stroke-width:0.5;" width="177.0664" x="132.2222" y="329.4688"/><text fill="#000000" font-family="'Arial'" font-size="12" lengthAdjust="spacing" textLength="157.0664" x="142.2222" y="350.6074">&#1578;&#1588;&#1581;&#1610;&#1605; &#1608;&#1578;&#1586;&#1610;&#1610;&#1578; &#1575;&#1604;&#1571;&#1580;&#1586;&#1575;&#1569; &#1575;&#1604;&#1605;&#1578;&#1581;&#1585;&#1603;&#1577;</text><rect fill="#F1F1F1" height="33.9688" rx="12.5" ry="12.5" style="stroke:#181818;stroke-width:0.5;" width="183.5996" x="128.9556" y="383.4375"/><text fill="#000000" font-family="'Arial'" font-size="12" lengthAdjust="spacing" textLength="163.5996" x="138.9556" y="404.5762">&#1602;&#1610;&#1575;&#1587; &#1590;&#1594;&#1591; &#1575;&#1604;&#1605;&#1610;&#1575;&#1607; &#1608;&#1603;&#1601;&#1575;&#1569;&#1577; &#1575;&#1604;&#1578;&#1583;&#1601;&#1602;</text><polygon fill="#F1F1F1" points="169.8938,449.4063,271.6169,449.4063,283.6169,461.4063,271.6169,473.4063,169.8938,473.4063,157.8938,461.4063,169.8938,449.4063" style="stroke:#181818;stroke-width:0.5;"/><text fill="#000000" font-family="'Arial'" font-size="11" lengthAdjust="spacing" textLength="101.7231" x="169.8938" y="465.2144">&#1607;&#1604; &#1610;&#1608;&#1580;&#1583; &#1593;&#1591;&#1604; &#1591;&#1575;&#1585;&#1574;&#1567;</text><text fill="#000000" font-family="'Arial'" font-size="11" lengthAdjust="spacing" textLength="15.689" x="142.2048" y="458.812">&#1606;&#1593;&#1605;</text><text fill="#000000" font-family="'Arial'" font-size="11" lengthAdjust="spacing" textLength="6.2734" x="283.6169" y="458.812">&#1604;&#1575;</text><rect fill="#F1F1F1" height="33.9688" rx="12.5" ry="12.5" style="stroke:#181818;stroke-width:0.5;" width="207.5469" x="11" y="483.4063"/><text fill="#000000" font-family="'Arial'" font-size="12" lengthAdjust="spacing" textLength="187.5469" x="21" y="504.5449">&#1575;&#1587;&#1578;&#1583;&#1593;&#1575;&#1569; &#1601;&#1585;&#1610;&#1602; &#1575;&#1604;&#1589;&#1610;&#1575;&#1606;&#1577; &#1575;&#1604;&#1591;&#1575;&#1585;&#1574;&#1577; (24/7)</text><rect fill="#F1F1F1" height="33.9688" rx="12.5" ry="12.5" style="stroke:#181818;stroke-width:0.5;" width="187.7188" x="20.9141" y="537.375"/><text fill="#000000" font-family="'Arial'" font-size="12" lengthAdjust="spacing" textLength="167.7188" x="30.9141" y="558.5137">&#1578;&#1588;&#1582;&#1610;&#1589; &#1575;&#1604;&#1593;&#1591;&#1604; &#1608;&#1578;&#1581;&#1583;&#1610;&#1583; &#1602;&#1591;&#1593; &#1575;&#1604;&#1594;&#1610;&#1575;&#1585;</text><rect fill="#F1F1F1" height="33.9688" rx="12.5" ry="12.5" style="stroke:#181818;stroke-width:0.5;" width="136.4258" x="46.5605" y="591.3438"/><text fill="#000000" font-family="'Arial'" font-size="12" lengthAdjust="spacing" textLength="116.4258" x="56.5605" y="612.4824">&#1575;&#1604;&#1573;&#1589;&#1604;&#1575;&#1581; &#1608;&#1575;&#1582;&#1578;&#1576;&#1575;&#1585; &#1575;&#1604;&#1578;&#1588;&#1594;&#1610;&#1604;</text><rect fill="#F1F1F1" height="33.9688" rx="12.5" ry="12.5" style="stroke:#181818;stroke-width:0.5;" width="176.3809" x="238.5469" y="483.4063"/><text fill="#000000" font-family="'Arial'" font-size="12" lengthAdjust="spacing" textLength="156.3809" x="248.5469" y="504.5449">&#1575;&#1587;&#1578;&#1605;&#1585;&#1575;&#1585; &#1580;&#1583;&#1608;&#1604; &#1575;&#1604;&#1586;&#1610;&#1575;&#1585;&#1575;&#1578; &#1575;&#1604;&#1608;&#1602;&#1575;&#1574;&#1610;&#1577;</text><polygon fill="#F1F1F1" points="220.7554,631.3125,232.7554,643.3125,220.7554,655.3125,208.7554,643.3125,220.7554,631.3125" style="stroke:#181818;stroke-width:0.5;"/><rect fill="#F1F1F1" height="33.9688" rx="12.5" ry="12.5" style="stroke:#181818;stroke-width:0.5;" width="172.7012" x="134.4048" y="675.3125"/><text fill="#000000" font-family="'Arial'" font-size="12" lengthAdjust="spacing" textLength="152.7012" x="144.4048" y="696.4512">&#1578;&#1602;&#1583;&#1610;&#1605; &#1578;&#1602;&#1585;&#1610;&#1585; &#1601;&#1606;&#1610; &#1605;&#1601;&#1589;&#1604; &#1604;&#1604;&#1593;&#1605;&#1610;&#1604;</text><rect fill="#F1F1F1" height="33.9688" rx="12.5" ry="12.5" style="stroke:#181818;stroke-width:0.5;" width="159.5586" x="140.9761" y="729.2813"/><text fill="#000000" font-family="'Arial'" font-size="12" lengthAdjust="spacing" textLength="139.5586" x="150.9761" y="750.4199">&#1578;&#1581;&#1583;&#1610;&#1579; &#1587;&#1580;&#1604; &#1575;&#1604;&#1589;&#1610;&#1575;&#1606;&#1577; &#1575;&#1604;&#1583;&#1608;&#1585;&#1610;</text><ellipse cx="220.7554" cy="794.25" fill="none" rx="11" ry="11" style="stroke:#222222;stroke-width:1;"/><ellipse cx="220.7554" cy="794.25" fill="#222222" rx="6" ry="6" style="stroke:#222222;stroke-width:1;"/><line style="stroke:#181818;stroke-width:1;" x1="220.7554" x2="220.7554" y1="67.2969" y2="87.2969"/><polygon fill="#181818" points="216.7554,77.2969,220.7554,87.2969,224.7554,77.2969,220.7554,81.2969" style="stroke:#181818;stroke-width:1;"/><line style="stroke:#181818;stroke-width:1;" x1="220.7554" x2="220.7554" y1="121.2656" y2="141.2656"/><polygon fill="#181818" points="216.7554,131.2656,220.7554,141.2656,224.7554,131.2656,220.7554,135.2656" style="stroke:#181818;stroke-width:1;"/><line style="stroke:#181818;stroke-width:1;" x1="220.7554" x2="220.7554" y1="255.5" y2="275.5"/><polygon fill="#181818" points="216.7554,265.5,220.7554,275.5,224.7554,265.5,220.7554,269.5" style="stroke:#181818;stroke-width:1;"/><line style="stroke:#181818;stroke-width:1;" x1="220.7554" x2="220.7554" y1="309.4688" y2="329.4688"/><polygon fill="#181818" points="216.7554,319.4688,220.7554,329.4688,224.7554,319.4688,220.7554,323.4688" style="stroke:#181818;stroke-width:1;"/><line style="stroke:#181818;stroke-width:1;" x1="220.7554" x2="220.7554" y1="363.4375" y2="383.4375"/><polygon fill="#181818" points="216.7554,373.4375,220.7554,383.4375,224.7554,373.4375,220.7554,377.4375" style="stroke:#181818;stroke-width:1;"/><line style="stroke:#181818;stroke-width:1;" x1="220.7554" x2="220.7554" y1="175.2344" y2="221.5313"/><polygon fill="#181818" points="216.7554,211.5313,220.7554,221.5313,224.7554,211.5313,220.7554,215.5313" style="stroke:#181818;stroke-width:1;"/><line style="stroke:#181818;stroke-width:1;" x1="114.7734" x2="114.7734" y1="517.375" y2="537.375"/><polygon fill="#181818" points="110.7734,527.375,114.7734,537.375,118.7734,527.375,114.7734,531.375" style="stroke:#181818;stroke-width:1;"/><line style="stroke:#181818;stroke-width:1;" x1="114.7734" x2="114.7734" y1="571.3438" y2="591.3438"/><polygon fill="#181818" points="110.7734,581.3438,114.7734,591.3438,118.7734,581.3438,114.7734,585.3438" style="stroke:#181818;stroke-width:1;"/><line style="stroke:#181818;stroke-width:1;" x1="157.8938" x2="114.7734" y1="461.4063" y2="461.4063"/><line style="stroke:#181818;stroke-width:1;" x1="114.7734" x2="114.7734" y1="461.4063" y2="483.4063"/><polygon fill="#181818" points="110.7734,473.4063,114.7734,483.4063,118.7734,473.4063,114.7734,477.4063" style="stroke:#181818;stroke-width:1;"/><line style="stroke:#181818;stroke-width:1;" x1="283.6169" x2="326.7373" y1="461.4063" y2="461.4063"/><line style="stroke:#181818;stroke-width:1;" x1="326.7373" x2="326.7373" y1="461.4063" y2="483.4063"/><polygon fill="#181818" points="322.7373,473.4063,326.7373,483.4063,330.7373,473.4063,326.7373,477.4063" style="stroke:#181818;stroke-width:1;"/><line style="stroke:#181818;stroke-width:1;" x1="114.7734" x2="114.7734" y1="625.3125" y2="643.3125"/><line style="stroke:#181818;stroke-width:1;" x1="114.7734" x2="208.7554" y1="643.3125" y2="643.3125"/><polygon fill="#181818" points="198.7554,639.3125,208.7554,643.3125,198.7554,647.3125,202.7554,643.3125" style="stroke:#181818;stroke-width:1;"/><line style="stroke:#181818;stroke-width:1;" x1="326.7373" x2="326.7373" y1="517.375" y2="643.3125"/><line style="stroke:#181818;stroke-width:1;" x1="326.7373" x2="232.7554" y1="643.3125" y2="643.3125"/><polygon fill="#181818" points="242.7554,639.3125,232.7554,643.3125,242.7554,647.3125,238.7554,643.3125" style="stroke:#181818;stroke-width:1;"/><line style="stroke:#181818;stroke-width:1;" x1="220.7554" x2="220.7554" y1="417.4063" y2="449.4063"/><polygon fill="#181818" points="216.7554,439.4063,220.7554,449.4063,224.7554,439.4063,220.7554,443.4063" style="stroke:#181818;stroke-width:1;"/><line style="stroke:#181818;stroke-width:1;" x1="220.7554" x2="220.7554" y1="655.3125" y2="675.3125"/><polygon fill="#181818" points="216.7554,665.3125,220.7554,675.3125,224.7554,665.3125,220.7554,669.3125" style="stroke:#181818;stroke-width:1;"/><line style="stroke:#181818;stroke-width:1;" x1="220.7554" x2="220.7554" y1="709.2813" y2="729.2813"/><polygon fill="#181818" points="216.7554,719.2813,220.7554,729.2813,224.7554,719.2813,220.7554,723.2813" style="stroke:#181818;stroke-width:1;"/><line style="stroke:#181818;stroke-width:1;" x1="220.7554" x2="220.7554" y1="763.25" y2="783.25"/><polygon fill="#181818" points="216.7554,773.25,220.7554,783.25,224.7554,773.25,220.7554,777.25" style="stroke:#181818;stroke-width:1;"/></g></svg>