<?plantuml 1.2026.2beta3?><svg xmlns="http://www.w3.org/2000/svg" xmlns:xlink="http://www.w3.org/1999/xlink" contentStyleType="text/css" data-diagram-type="DESCRIPTION" height="588px" preserveAspectRatio="none" style="width:683px;height:588px;background:#FFFFFF;" version="1.1" viewBox="0 0 683 588" width="683px" zoomAndPan="magnify"><title>&#1605;&#1608;&#1585;&#1583; &#1605;&#1590;&#1582;&#1575;&#1578; &#1605;&#1610;&#1575;&#1607; &#1601;&#1610; &#1575;&#1604;&#1587;&#1593;&#1608;&#1583;&#1610;&#1577; | &#1585;&#1608;&#1575;&#1574;&#1593; &#1575;&#1604;&#1603;&#1585;&#1610;&#1587;&#1578;&#1575;&#1604;</title><defs/><g><g class="title" data-source-line="1"><text fill="#000000" font-family="sans-serif" font-size="14" font-weight="bold" lengthAdjust="spacing" textLength="342.8564" x="163.4318" y="22.9951">&#1605;&#1608;&#1585;&#1583; &#1605;&#1590;&#1582;&#1575;&#1578; &#1605;&#1610;&#1575;&#1607; &#1601;&#1610; &#1575;&#1604;&#1587;&#1593;&#1608;&#1583;&#1610;&#1577; | &#1585;&#1608;&#1575;&#1574;&#1593; &#1575;&#1604;&#1603;&#1585;&#1610;&#1587;&#1578;&#1575;&#1604;</text></g><!--cluster crystal_masterpieces--><g class="cluster" data-qualified-name="crystal_masterpieces" data-source-line="5" id="ent0003"><path d="M91.81,237.1369 L203.5932,237.1369 A3.75,3.75 0 0 1 206.0932,239.6369 L213.0932,259.4338 L306.81,259.4338 A2.5,2.5 0 0 1 309.31,261.9338 L309.31,578.5269 A2.5,2.5 0 0 1 306.81,581.0269 L91.81,581.0269 A2.5,2.5 0 0 1 89.31,578.5269 L89.31,239.6369 A2.5,2.5 0 0 1 91.81,237.1369" fill="none" style="stroke:#000000;stroke-width:1.5;"/><line style="stroke:#000000;stroke-width:1.5;" x1="89.31" x2="213.0932" y1="259.4338" y2="259.4338"/><text fill="#000000" font-family="sans-serif" font-size="14" font-weight="bold" lengthAdjust="spacing" textLength="110.7832" x="93.31" y="252.132">&#1585;&#1608;&#1575;&#1574;&#1593; &#1575;&#1604;&#1603;&#1585;&#1610;&#1587;&#1578;&#1575;&#1604;</text></g><!--entity support_consulting--><g class="entity" data-qualified-name="crystal_masterpieces.support_consulting" data-source-line="6" id="ent0004"><rect fill="#F1F1F1" height="46.2969" rx="2.5" ry="2.5" style="stroke:#181818;stroke-width:0.5;" width="188.3809" x="105.11" y="272.1369"/><rect fill="#F1F1F1" height="10" style="stroke:#181818;stroke-width:0.5;" width="15" x="273.4909" y="277.1369"/><rect fill="#F1F1F1" height="2" style="stroke:#181818;stroke-width:0.5;" width="4" x="271.4909" y="279.1369"/><rect fill="#F1F1F1" height="2" style="stroke:#181818;stroke-width:0.5;" width="4" x="271.4909" y="283.1369"/><text fill="#000000" font-family="sans-serif" font-size="14" lengthAdjust="spacing" textLength="148.3809" x="120.11" y="305.132">&#1575;&#1604;&#1583;&#1593;&#1605; &#1575;&#1604;&#1601;&#1606;&#1610; &#1608;&#1575;&#1604;&#1575;&#1587;&#1578;&#1588;&#1575;&#1585;&#1575;&#1578;</text></g><!--entity pump_range--><g class="entity" data-qualified-name="crystal_masterpieces.pump_range" data-source-line="7" id="ent0005"><rect fill="#F1F1F1" height="46.2969" rx="2.5" ry="2.5" style="stroke:#181818;stroke-width:0.5;" width="174.8184" x="104.9" y="395.4369"/><rect fill="#F1F1F1" height="10" style="stroke:#181818;stroke-width:0.5;" width="15" x="259.7184" y="400.4369"/><rect fill="#F1F1F1" height="2" style="stroke:#181818;stroke-width:0.5;" width="4" x="257.7184" y="402.4369"/><rect fill="#F1F1F1" height="2" style="stroke:#181818;stroke-width:0.5;" width="4" x="257.7184" y="406.4369"/><text fill="#000000" font-family="sans-serif" font-size="14" lengthAdjust="spacing" textLength="134.8184" x="119.9" y="428.432">&#1605;&#1580;&#1605;&#1608;&#1593;&#1577; &#1605;&#1590;&#1582;&#1575;&#1578; &#1575;&#1604;&#1605;&#1610;&#1575;&#1607;</text></g><!--entity installation_maintenance--><g class="entity" data-qualified-name="crystal_masterpieces.installation_maintenance" data-source-line="8" id="ent0006"><rect fill="#F1F1F1" height="46.2969" rx="2.5" ry="2.5" style="stroke:#181818;stroke-width:0.5;" width="181.5381" x="108.54" y="518.7269"/><rect fill="#F1F1F1" height="10" style="stroke:#181818;stroke-width:0.5;" width="15" x="270.0781" y="523.7269"/><rect fill="#F1F1F1" height="2" style="stroke:#181818;stroke-width:0.5;" width="4" x="268.0781" y="525.7269"/><rect fill="#F1F1F1" height="2" style="stroke:#181818;stroke-width:0.5;" width="4" x="268.0781" y="529.7269"/><text fill="#000000" font-family="sans-serif" font-size="14" lengthAdjust="spacing" textLength="141.5381" x="123.54" y="551.722">&#1582;&#1583;&#1605;&#1575;&#1578; &#1575;&#1604;&#1578;&#1585;&#1603;&#1610;&#1576; &#1608;&#1575;&#1604;&#1589;&#1610;&#1575;&#1606;&#1577;</text></g><!--entity customer--><g class="entity" data-qualified-name="customer" data-source-line="3" id="ent0002"><rect fill="#F1F1F1" height="46.2969" rx="2.5" ry="2.5" style="stroke:#181818;stroke-width:0.5;" width="77.8301" x="160.39" y="127.8369"/><rect fill="#F1F1F1" height="10" style="stroke:#181818;stroke-width:0.5;" width="15" x="218.2201" y="132.8369"/><rect fill="#F1F1F1" height="2" style="stroke:#181818;stroke-width:0.5;" width="4" x="216.2201" y="134.8369"/><rect fill="#F1F1F1" height="2" style="stroke:#181818;stroke-width:0.5;" width="4" x="216.2201" y="138.8369"/><text fill="#000000" font-family="sans-serif" font-size="14" lengthAdjust="spacing" textLength="37.8301" x="175.39" y="160.832">&#1575;&#1604;&#1593;&#1605;&#1610;&#1604;</text></g><!--link customer to support_consulting--><g class="link" data-entity-1="ent0002" data-entity-2="ent0004" data-link-type="dependency" data-source-line="11" id="lnk7"><path d="M160.08,151.8869 C120.59,154.1369 61.46,164.4969 32.31,204.1369 C6,239.9069 47.8694,261.4256 98.9094,275.2756" fill="none" id="customer-to-support_consulting" style="stroke:#181818;stroke-width:1;"/><polygon fill="#181818" points="104.7,276.8469,97.0616,270.6295,99.8745,275.5374,94.9666,278.3503,104.7,276.8469" style="stroke:#181818;stroke-width:1;"/><text fill="#000000" font-family="sans-serif" font-size="13" lengthAdjust="spacing" textLength="122.4399" x="33.31" y="217.2038">&#1575;&#1587;&#1578;&#1601;&#1587;&#1575;&#1585; &#1608;&#1575;&#1582;&#1578;&#1610;&#1575;&#1585; &#1575;&#1604;&#1605;&#1606;&#1578;&#1580;</text></g><!--link customer to support_consulting--><g class="link" data-entity-1="ent0002" data-entity-2="ent0004" data-link-type="dependency" data-source-line="15" id="lnk11"><path d="M197.72,174.5669 C197.15,183.7369 196.58,194.4369 196.31,204.1369 C195.64,227.1469 196.385,247.4668 197.435,265.6968" fill="none" id="customer-to-support_consulting-1" style="stroke:#181818;stroke-width:1;"/><polygon fill="#181818" points="197.78,271.6869,201.2559,262.4718,197.4925,266.6951,193.2691,262.9318,197.78,271.6869" style="stroke:#181818;stroke-width:1;"/><text fill="#000000" font-family="sans-serif" font-size="13" lengthAdjust="spacing" textLength="163.8457" x="197.31" y="217.2038">&#1591;&#1604;&#1576; &#1583;&#1593;&#1605; &#1605;&#1575; &#1576;&#1593;&#1583; &#1575;&#1604;&#1576;&#1610;&#1593; &#1608;&#1575;&#1604;&#1589;&#1610;&#1575;&#1606;&#1577;</text></g><!--link support_consulting to pump_range--><g class="link" data-entity-1="ent0004" data-entity-2="ent0005" data-link-type="dependency" data-source-line="12" id="lnk8"><path d="M198,318.8169 C196.75,340.6069 195.1944,367.4368 193.9444,389.1768" fill="none" id="support_consulting-to-pump_range" style="stroke:#181818;stroke-width:1;"/><polygon fill="#181818" points="193.6,395.1669,198.11,386.4113,193.887,390.1751,190.1232,385.9521,193.6,395.1669" style="stroke:#181818;stroke-width:1;"/><text fill="#000000" font-family="sans-serif" font-size="13" lengthAdjust="spacing" textLength="114.6387" x="197.31" y="361.5038">&#1578;&#1581;&#1583;&#1610;&#1583; &#1608;&#1578;&#1580;&#1607;&#1610;&#1586; &#1575;&#1604;&#1605;&#1590;&#1582;&#1577;</text></g><!--link pump_range to installation_maintenance--><g class="link" data-entity-1="ent0005" data-entity-2="ent0006" data-link-type="dependency" data-source-line="13" id="lnk9"><path d="M193.61,442.1169 C194.86,463.8969 196.4156,490.7368 197.6656,512.4768" fill="none" id="pump_range-to-installation_maintenance" style="stroke:#181818;stroke-width:1;"/><polygon fill="#181818" points="198.01,518.4669,201.4868,509.2521,197.723,513.4751,193.5,509.7113,198.01,518.4669" style="stroke:#181818;stroke-width:1;"/><text fill="#000000" font-family="sans-serif" font-size="13" lengthAdjust="spacing" textLength="124.3442" x="197.31" y="484.7938">&#1573;&#1593;&#1583;&#1575;&#1583; &#1604;&#1604;&#1578;&#1587;&#1604;&#1610;&#1605; &#1608;&#1575;&#1604;&#1578;&#1585;&#1603;&#1610;&#1576;</text></g><!--link installation_maintenance to customer--><g class="link" data-entity-1="ent0006" data-entity-2="ent0002" data-link-type="dependency" data-source-line="14" id="lnk10"><path d="M290.29,519.3969 C305.64,511.9969 319.94,502.0669 330.31,488.7269 C676.72,43.2969 388.63,235.9069 365.31,204.1369 C336.44,164.8069 283.9192,154.7068 244.6492,152.3468" fill="none" id="installation_maintenance-to-customer" style="stroke:#181818;stroke-width:1;"/><polygon fill="#181818" points="238.66,151.9869,247.4038,156.5196,243.651,152.2868,247.8837,148.534,238.66,151.9869" style="stroke:#181818;stroke-width:1;"/><text fill="#000000" font-family="sans-serif" font-size="13" lengthAdjust="spacing" textLength="125.0742" x="431.31" y="361.5038">&#1578;&#1608;&#1589;&#1610;&#1604; &#1608;&#1578;&#1585;&#1603;&#1610;&#1576; &#1575;&#1604;&#1605;&#1590;&#1582;&#1577;</text></g><?plantuml-src ZP9DReCm48NtFeMLVIxGHQyIMSYAKC4WC8kgxIBANyKzMWXAWsYQLjp4latV698cQL9rWx7n--RD6xIl0ydjt3wRnjHuCPzcOmfJqLbk2hlaTc9pZhUPsPeMzsgSh_WZDmqsXNarhVjgfpZ8SQUY7MDU5CQHaahpWHEt1BIp0HSfzx9KHw5C68k5ToV64dV-edMYv3xL8XY58jKoYNtfoPG_CCxFAzLKgwDCx0BcYOppmk4-i3RKeOEcMHn7YHvvaKgpGFjgV0f486kNJekUZz9nz3uX1ugpC1ubGetbcQCD0fiVD33Gs2bqvTxLpa4MPkKmlg8U0w7zIA5JNscfXF8aUqAYVMfyEBozO9pVyAv5Ey4JJReAg5zH1MnxpmjuMBCBUiB-j46uohovSTU4WiekiNdlGIwB5JjI4E1Q0uHxGOerh00tSr5iiUQOLH_58HjsbK8b3ZcGGqXtz5zr3lVPdZZyHsvVg0vLz-VGkBWfoMmtinBCzjUylW40?></g></svg>