<?plantuml 1.2026.2beta3?><svg xmlns="http://www.w3.org/2000/svg" xmlns:xlink="http://www.w3.org/1999/xlink" contentStyleType="text/css" data-diagram-type="DESCRIPTION" height="581px" preserveAspectRatio="none" style="width:964px;height:581px;background:#FFFFFF;" version="1.1" viewBox="0 0 964 581" width="964px" zoomAndPan="magnify"><title>&#1604;&#1608;&#1581;&#1575;&#1578; &#1578;&#1588;&#1594;&#1610;&#1604; &#1605;&#1590;&#1582;&#1575;&#1578; - &#1610;&#1583;&#1608;&#1610; &#1608;&#1571;&#1608;&#1578;&#1608; | &#1585;&#1608;&#1575;&#1574;&#1593; &#1575;&#1604;&#1603;&#1585;&#1610;&#1587;&#1578;&#1575;&#1604;</title><defs/><g><g class="title" data-source-line="1"><text fill="#000000" font-family="sans-serif" font-size="14" font-weight="bold" lengthAdjust="spacing" textLength="367.8828" x="291.2899" y="22.9951">&#1604;&#1608;&#1581;&#1575;&#1578; &#1578;&#1588;&#1594;&#1610;&#1604; &#1605;&#1590;&#1582;&#1575;&#1578; - &#1610;&#1583;&#1608;&#1610; &#1608;&#1571;&#1608;&#1578;&#1608; | &#1585;&#1608;&#1575;&#1574;&#1593; &#1575;&#1604;&#1603;&#1585;&#1610;&#1587;&#1578;&#1575;&#1604;</text></g><!--cluster ManualMode--><g class="cluster" data-qualified-name="ManualMode" data-source-line="21" id="ent0005"><path d="M8.5,151.5969 L152.5625,151.5969 A3.75,3.75 0 0 1 155.0625,154.0969 L162.0625,173.8938 L353.5,173.8938 A2.5,2.5 0 0 1 356,176.3938 L356,271.3969 A2.5,2.5 0 0 1 353.5,273.8969 L8.5,273.8969 A2.5,2.5 0 0 1 6,271.3969 L6,154.0969 A2.5,2.5 0 0 1 8.5,151.5969" fill="#90EE90" style="stroke:#008000;stroke-width:1.5;"/><line style="stroke:#008000;stroke-width:1.5;" x1="6" x2="162.0625" y1="173.8938" y2="173.8938"/><text fill="#000000" font-family="sans-serif" font-size="14" font-weight="bold" lengthAdjust="spacing" textLength="143.0625" x="10" y="166.592">&#1608;&#1590;&#1593; &#1575;&#1604;&#1578;&#1588;&#1594;&#1610;&#1604; &#1575;&#1604;&#1610;&#1583;&#1608;&#1610;</text></g><!--cluster AutoMode--><g class="cluster" data-qualified-name="AutoMode" data-source-line="26" id="ent0008"><path d="M328.5,338.8969 L461.9053,338.8969 A3.75,3.75 0 0 1 464.4053,341.3969 L471.4053,361.1938 L552.5,361.1938 A2.5,2.5 0 0 1 555,363.6938 L555,571.9869 A2.5,2.5 0 0 1 552.5,574.4869 L328.5,574.4869 A2.5,2.5 0 0 1 326,571.9869 L326,341.3969 A2.5,2.5 0 0 1 328.5,338.8969" fill="#90EE90" style="stroke:#008000;stroke-width:1.5;"/><line style="stroke:#008000;stroke-width:1.5;" x1="326" x2="471.4053" y1="361.1938" y2="361.1938"/><text fill="#000000" font-family="sans-serif" font-size="14" font-weight="bold" lengthAdjust="spacing" textLength="132.4053" x="330" y="353.892">&#1608;&#1590;&#1593; &#1575;&#1604;&#1578;&#1588;&#1594;&#1610;&#1604; &#1575;&#1604;&#1570;&#1604;&#1610;</text></g><!--entity ManualStartButton--><g class="entity" data-qualified-name="ManualMode.ManualStartButton" data-source-line="22" id="ent0006"><rect fill="#ADD8E6" height="36.2969" rx="2.5" ry="2.5" style="stroke:#0000FF;stroke-width:0.5;" width="126.3193" x="29.84" y="213.5969"/><text fill="#000000" font-family="sans-serif" font-size="14" lengthAdjust="spacing" textLength="106.3193" x="39.84" y="236.592">&#1586;&#1585; &#1575;&#1604;&#1578;&#1588;&#1594;&#1610;&#1604; &#1575;&#1604;&#1610;&#1583;&#1608;&#1610;</text></g><!--entity ManualStopButton--><g class="entity" data-qualified-name="ManualMode.ManualStopButton" data-source-line="23" id="ent0007"><rect fill="#ADD8E6" height="36.2969" rx="2.5" ry="2.5" style="stroke:#0000FF;stroke-width:0.5;" width="122.0469" x="190.98" y="213.5969"/><text fill="#000000" font-family="sans-serif" font-size="14" lengthAdjust="spacing" textLength="102.0469" x="200.98" y="236.592">&#1586;&#1585; &#1575;&#1604;&#1573;&#1610;&#1602;&#1575;&#1601; &#1575;&#1604;&#1610;&#1583;&#1608;&#1610;</text></g><!--entity LevelSensor--><g class="entity" data-qualified-name="AutoMode.LevelSensor" data-source-line="27" id="ent0009"><rect fill="#ADD8E6" height="36.2969" rx="2.5" ry="2.5" style="stroke:#0000FF;stroke-width:0.5;" width="161.8936" x="350.05" y="400.8969"/><text fill="#000000" font-family="sans-serif" font-size="14" lengthAdjust="spacing" textLength="141.8936" x="360.05" y="423.892">&#1605;&#1587;&#1578;&#1588;&#1593;&#1585; &#1605;&#1587;&#1578;&#1608;&#1609; &#1575;&#1604;&#1587;&#1575;&#1574;&#1604;</text></g><!--entity AutoController--><g class="entity" data-qualified-name="AutoMode.AutoController" data-source-line="28" id="ent0010"><rect fill="#ADD8E6" height="36.2969" rx="2.5" ry="2.5" style="stroke:#0000FF;stroke-width:0.5;" width="125.8203" x="386.09" y="514.1869"/><text fill="#000000" font-family="sans-serif" font-size="14" lengthAdjust="spacing" textLength="105.8203" x="396.09" y="537.182">&#1608;&#1581;&#1583;&#1577; &#1575;&#1604;&#1578;&#1581;&#1603;&#1605; &#1575;&#1604;&#1570;&#1604;&#1610;</text></g><!--entity PowerSource--><g class="entity" data-qualified-name="PowerSource" data-source-line="17" id="ent0002"><rect fill="#ADD8E6" height="36.2969" rx="2.5" ry="2.5" style="stroke:#0000FF;stroke-width:0.5;" width="96.3027" x="583.85" y="44.2969"/><text fill="#000000" font-family="sans-serif" font-size="14" lengthAdjust="spacing" textLength="76.3027" x="593.85" y="67.292">&#1605;&#1589;&#1583;&#1585; &#1575;&#1604;&#1591;&#1575;&#1602;&#1577;</text></g><!--entity ControlPanel--><g class="entity" data-qualified-name="ControlPanel" data-source-line="18" id="ent0003"><rect fill="#ADD8E6" height="36.2969" rx="2.5" ry="2.5" style="stroke:#0000FF;stroke-width:0.5;" width="90.5742" x="586.71" y="213.5969"/><text fill="#000000" font-family="sans-serif" font-size="14" lengthAdjust="spacing" textLength="70.5742" x="596.71" y="236.592">&#1604;&#1608;&#1581;&#1577; &#1575;&#1604;&#1578;&#1581;&#1603;&#1605;</text></g><!--entity Pump--><g class="entity" data-qualified-name="Pump" data-source-line="19" id="ent0004"><rect fill="#ADD8E6" height="36.2969" rx="2.5" ry="2.5" style="stroke:#0000FF;stroke-width:0.5;" width="64.9326" x="893.53" y="400.8969"/><text fill="#000000" font-family="sans-serif" font-size="14" lengthAdjust="spacing" textLength="44.9326" x="903.53" y="423.892">&#1575;&#1604;&#1605;&#1590;&#1582;&#1577;</text></g><!--link PowerSource to ControlPanel--><g class="link" data-entity-1="ent0002" data-entity-2="ent0003" data-link-type="dependency" data-source-line="31" id="lnk11"><path d="M632,81.0369 C632,113.1669 632,174.9969 632,207.1369" fill="none" id="PowerSource-to-ControlPanel" style="stroke:#000000;stroke-width:1;"/><polygon fill="#000000" points="632,213.1369,636,204.1369,632,208.1369,628,204.1369,632,213.1369" style="stroke:#000000;stroke-width:1;"/><text fill="#000000" font-family="sans-serif" font-size="13" lengthAdjust="spacing" textLength="26.8887" x="633" y="123.6638">&#1610;&#1594;&#1584;&#1610;</text></g><!--link ControlPanel to ManualStartButton--><g class="link" data-entity-1="ent0003" data-entity-2="ent0006" data-link-type="dependency" data-source-line="32" id="lnk12"><path d="M602.33,213.2369 C527.05,168.8269 323.95,64.9869 173,135.7069 C138.81,151.7269 116.9609,185.0414 104.6609,208.1314" fill="none" id="ControlPanel-to-ManualStartButton" style="stroke:#000000;stroke-width:1;"/><polygon fill="#000000" points="101.84,213.4269,109.6017,207.3642,104.1908,209.0139,102.541,203.603,101.84,213.4269" style="stroke:#000000;stroke-width:1;"/><text fill="#000000" font-family="sans-serif" font-size="13" lengthAdjust="spacing" textLength="67.2153" x="232.5" y="123.6638">&#1610;&#1585;&#1587;&#1604; &#1573;&#1588;&#1575;&#1585;&#1577;</text></g><!--link ManualStartButton to ControlPanel--><g class="link" data-entity-1="ent0006" data-entity-2="ent0003" data-link-type="dependency" data-source-line="37" id="lnk16"><path d="M101.84,213.4269 C114.14,190.3369 138.81,151.7269 173,135.7069 C323.95,64.9869 521.8822,165.7782 597.1622,210.1882" fill="none" id="ManualStartButton-to-ControlPanel" style="stroke:#000000;stroke-width:1;"/><polygon fill="#000000" points="602.33,213.2369,596.6108,205.2188,598.0235,210.6964,592.5459,212.1091,602.33,213.2369" style="stroke:#000000;stroke-width:1;"/><text fill="#000000" font-family="sans-serif" font-size="13" lengthAdjust="spacing" textLength="63.9019" x="422.5" y="123.6638">&#1578;&#1571;&#1603;&#1610;&#1583; &#1578;&#1588;&#1594;&#1610;&#1604;</text></g><!--link ControlPanel to ManualStopButton--><g class="link" data-entity-1="ent0003" data-entity-2="ent0007" data-link-type="dependency" data-source-line="33" id="lnk13"><path d="M593.64,213.2269 C542.63,189.7269 448.97,150.4669 364,135.7069 C343.42,132.1269 335.45,125.9169 317,135.7069 C286.23,152.0369 269.5556,184.5591 260.5556,207.5691" fill="none" id="ControlPanel-to-ManualStopButton" style="stroke:#000000;stroke-width:1;"/><polygon fill="#000000" points="258.37,213.1569,265.3735,206.2323,260.1913,208.5004,257.9232,203.3182,258.37,213.1569" style="stroke:#000000;stroke-width:1;"/><text fill="#000000" font-family="sans-serif" font-size="13" lengthAdjust="spacing" textLength="67.2153" x="348.5" y="123.6638">&#1610;&#1585;&#1587;&#1604; &#1573;&#1588;&#1575;&#1585;&#1577;</text></g><!--link ManualStopButton to ControlPanel--><g class="link" data-entity-1="ent0007" data-entity-2="ent0003" data-link-type="dependency" data-source-line="38" id="lnk17"><path d="M258.37,213.1569 C267.37,190.1469 286.23,152.0369 317,135.7069 C335.45,125.9169 343.42,132.1269 364,135.7069 C448.97,150.4669 537.1805,187.2163 588.1905,210.7163" fill="none" id="ManualStopButton-to-ControlPanel" style="stroke:#000000;stroke-width:1;"/><polygon fill="#000000" points="593.64,213.2269,587.1394,205.828,589.0987,211.1347,583.792,213.094,593.64,213.2269" style="stroke:#000000;stroke-width:1;"/><text fill="#000000" font-family="sans-serif" font-size="13" lengthAdjust="spacing" textLength="59.8901" x="492.5" y="123.6638">&#1578;&#1571;&#1603;&#1610;&#1583; &#1573;&#1610;&#1602;&#1575;&#1601;</text></g><!--link ControlPanel to LevelSensor--><g class="link" data-entity-1="ent0003" data-entity-2="ent0009" data-link-type="dependency" data-source-line="34" id="lnk14"><path d="M586.42,237.3569 C546.15,243.9069 488.84,259.7369 456,297.8969 C430.84,327.1169 428.5398,369.0809 429.4798,394.6809" fill="none" id="ControlPanel-to-LevelSensor" style="stroke:#000000;stroke-width:1;"/><polygon fill="#000000" points="429.7,400.6769,433.3671,391.5362,429.5165,395.6802,425.3724,391.8297,429.7,400.6769" style="stroke:#000000;stroke-width:1;"/><text fill="#000000" font-family="sans-serif" font-size="13" lengthAdjust="spacing" textLength="66.9805" x="457" y="310.9638">&#1610;&#1585;&#1587;&#1604; &#1576;&#1610;&#1575;&#1606;&#1575;&#1578;</text></g><!--link ControlPanel to AutoController--><g class="link" data-entity-1="ent0003" data-entity-2="ent0010" data-link-type="dependency" data-source-line="35" id="lnk15"><path d="M630.13,250.2069 C624.36,295.5469 602.67,418.0669 532,484.1869 C519.29,496.0769 508.3629,503.3589 493.6129,511.0989" fill="none" id="ControlPanel-to-AutoController" style="stroke:#000000;stroke-width:1;"/><polygon fill="#000000" points="488.3,513.8869,498.128,513.2469,492.7275,511.5636,494.4108,506.163,488.3,513.8869" style="stroke:#000000;stroke-width:1;"/><text fill="#000000" font-family="sans-serif" font-size="13" lengthAdjust="spacing" textLength="67.2153" x="616" y="423.6038">&#1610;&#1585;&#1587;&#1604; &#1573;&#1588;&#1575;&#1585;&#1577;</text></g><!--link AutoController to ControlPanel--><g class="link" data-entity-1="ent0010" data-entity-2="ent0003" data-link-type="dependency" data-source-line="40" id="lnk19"><path d="M512.18,526.2369 C569.82,517.8569 651.92,495.6969 692,437.1869 C720.71,395.2769 706.7,371.5169 692,322.8969 C683.46,294.6369 666.7448,271.6837 652.0648,254.6337" fill="none" id="AutoController-to-ControlPanel" style="stroke:#000000;stroke-width:1;"/><polygon fill="#000000" points="648.15,250.0869,650.991,259.5171,651.4124,253.8759,657.0535,254.2973,648.15,250.0869" style="stroke:#000000;stroke-width:1;"/><text fill="#000000" font-family="sans-serif" font-size="13" lengthAdjust="spacing" textLength="98.2871" x="709" y="423.6038">&#1602;&#1585;&#1575;&#1585; &#1578;&#1588;&#1594;&#1610;&#1604;/&#1573;&#1610;&#1602;&#1575;&#1601;</text></g><!--link LevelSensor to AutoController--><g class="link" data-entity-1="ent0009" data-entity-2="ent0010" data-link-type="dependency" data-source-line="39" id="lnk18"><path d="M433.81,437.4269 C437.17,458.2169 441.8121,486.8838 445.1921,507.7838" fill="none" id="LevelSensor-to-AutoController" style="stroke:#000000;stroke-width:1;"/><polygon fill="#000000" points="446.15,513.7069,448.6619,504.1837,445.3518,508.771,440.7645,505.4609,446.15,513.7069" style="stroke:#000000;stroke-width:1;"/><text fill="#000000" font-family="sans-serif" font-size="13" lengthAdjust="spacing" textLength="81.5547" x="442" y="480.2538">&#1602;&#1585;&#1575;&#1569;&#1577; &#1575;&#1604;&#1605;&#1587;&#1578;&#1608;&#1609;</text></g><!--link ControlPanel to Pump--><g class="link" data-entity-1="ent0003" data-entity-2="ent0004" data-link-type="extension" data-source-line="42" id="lnk20"><path d="M677.53,241.0969 C728.39,252.3369 810.93,276.5269 867,322.8969 C892.61,344.0769 903.3096,362.8424 912.2596,383.9724" fill="none" id="ControlPanel-to-Pump" style="stroke:#000000;stroke-width:1;"/><polygon fill="none" points="919.28,400.5469,917.7844,381.6322,906.7347,386.3125,919.28,400.5469" style="stroke:#000000;stroke-width:1;"/><text fill="#000000" font-family="sans-serif" font-size="13" lengthAdjust="spacing" textLength="92.7583" x="857" y="310.9638">&#1571;&#1605;&#1585; &#1578;&#1588;&#1594;&#1610;&#1604;/&#1573;&#1610;&#1602;&#1575;&#1601;</text></g><!--link ManualMode to AutoMode--><!--link ControlPanel to ManualMode--><g class="link" data-entity-1="ent0003" data-entity-2="ent0005" data-link-type="association" data-source-line="45" id="lnk22"><path d="M586.49,231.7469 C548.045,231.7469 491.7,231.7469 443.4288,231.7469 C419.2931,231.7469 397.1759,231.7469 380.3239,231.7469 C371.8979,231.7469 364.7882,231.7469 359.4006,231.7469 C358.7271,231.7469 358.0806,231.7469 357.4617,231.7469 C357.1523,231.7469 356.8498,231.7469 356.5543,231.7469 C356.4066,231.7469 356.2606,231.7469 356.1164,231.7469" fill="none" id="ControlPanel-ManualMode" style="stroke:#000000;stroke-width:1;stroke-dasharray:7,7;"/><text fill="#000000" font-family="sans-serif" font-size="13" lengthAdjust="spacing" textLength="59.8521" x="438.04" y="224.8138">&#1610;&#1581;&#1578;&#1608;&#1610; &#1593;&#1604;&#1609;</text></g><!--link ControlPanel to AutoMode--><g class="link" data-entity-1="ent0003" data-entity-2="ent0008" data-link-type="association" data-source-line="46" id="lnk23"><path d="M589.09,250.2869 C569.12,260.8869 547.32,276.5369 536,297.8969 C532.91,303.7269 532.0069,313.9638 532.4014,326.0853 C532.5,329.1157 532.6798,332.2639 532.9267,335.4905 C532.9885,336.2971 533.0544,337.1086 533.1243,337.9245 C533.1418,338.1284 533.1595,360.6295 533.1775,360.834" fill="none" id="ControlPanel-AutoMode" style="stroke:#000000;stroke-width:1;stroke-dasharray:7,7;"/><text fill="#000000" font-family="sans-serif" font-size="13" lengthAdjust="spacing" textLength="59.8521" x="537" y="310.9638">&#1610;&#1581;&#1578;&#1608;&#1610; &#1593;&#1604;&#1609;</text></g><?plantuml-src ZLHDRnen4BtxLrZSIUyzH2evz998aJXMELYiHL0sDZBUvj3aK48gil-YHUaM94efRIhoIyR_9cDxIRnVJGuWUvZtPjuR3tgWOqxDn4nX2HaiA2pW3poOr4oekO5x-EcYRMfIM9cfIIbcpl2pC5DwIM6Dnmo-mvP2XYpN64XXWoHu8sHqDX13fjWvLRodcUXZhK-4qWxhdVMLJ4Hq86EfwE6WVwexSSBjRr95NFcu2rs5F4D4ilv_MDuhpaM9niSAF4mfUU5OTfMGpAOyDzf2_NzX1Mid3VxXznZcBSf6z5XUSDMLYUhn0i3REFU01IpDjRbnW0Cfj9BnCHCy3X7ED6zppfoS3mdPgMmXtttkRJ0OXyhduL17J2GiFfAHDoOiy7lN_ulmhcPATnAjfMZYk4Fy64-VcpdaCAUuUfKC-6Pv7CExHCiw2UZFng6ss8Q_ODLR3z_OrsScZk2GV-HnbukHL2K6EvLLQIvrvVCnnLpPzeCfqtPxlp14-jPkn0FyCYafn6rYnK-VlOQDLNs7KZAyp9k1EnDVYmkK5o0_y9YPBtQ5gw2Yu8PIfAgbnWhqT8QUudi8_Zz8HSqBoAVNHK8zzQsEiRiClkOpVNuLf9HQDpUFNGUjlWbgbuswt7TBQNkTOPr6MB23xG-dWoZYuYHltGQBj7jxuSuwwvTEG4fXYtfkA-bFsr6J_0W0?></g></svg>