<?plantuml 1.2026.2beta3?><svg xmlns="http://www.w3.org/2000/svg" xmlns:xlink="http://www.w3.org/1999/xlink" contentStyleType="text/css" data-diagram-type="DESCRIPTION" height="430px" preserveAspectRatio="none" style="width:1411px;height:430px;background:#FFFFFF;" version="1.1" viewBox="0 0 1411 430" width="1411px" zoomAndPan="magnify"><title>&#1578;&#1576;&#1583;&#1610;&#1604; &#1581;&#1587;&#1575;&#1587; &#1590;&#1594;&#1591; &#1575;&#1604;&#1605;&#1590;&#1582;&#1575;&#1578; (&#1585;&#1608;&#1575;&#1574;&#1593; &#1575;&#1604;&#1603;&#1585;&#1610;&#1587;&#1578;&#1575;&#1604;)</title><defs/><g><rect fill="#FFFFCC" height="26.6406" rx="2.5" ry="2.5" style="stroke:#FFDD88;stroke-width:3;" width="1400" x="5" y="5"/><text fill="#000000" font-family="monospace" font-size="10" lengthAdjust="spacing" textLength="355.21" x="10" y="20">Please&#160;use&#160;'!option&#160;handwritten&#160;true'&#160;to&#160;enable&#160;handwritten</text><g class="title" data-source-line="1"><text fill="#000000" font-family="Arial" font-size="14" font-weight="bold" lengthAdjust="spacing" textLength="327.8721" x="527.064" y="59.6357">&#1578;&#1576;&#1583;&#1610;&#1604; &#1581;&#1587;&#1575;&#1587; &#1590;&#1594;&#1591; &#1575;&#1604;&#1605;&#1590;&#1582;&#1575;&#1578; (&#1585;&#1608;&#1575;&#1574;&#1593; &#1575;&#1604;&#1603;&#1585;&#1610;&#1587;&#1578;&#1575;&#1604;)</text></g><!--cluster ???? ??????--><g class="cluster" data-qualified-name=".... ......" data-source-line="6" id="ent0002"><polygon fill="none" points="9.5,81.9175,9.5,82.1277,19.5087,81.5032,29.5174,82.1108,39.5261,82.3172,49.5348,81.2041,59.5435,81.8398,69.5522,81.491,79.5609,81.534,89.5696,81.8493,99.5783,81.2261,109.587,82.4711,119.5957,81.2872,129.6043,81.7197,139.613,82.3494,149.6217,81.8317,159.6304,81.9857,169.6391,81.8856,179.6478,82.096,189.6565,82.1566,199.6652,82.5032,209.6739,82.5886,219.6826,82.5968,229.6913,82.1721,239.7,82.3811,249.7087,82.6197,259.7174,81.1963,269.7261,82.596,279.7348,81.621,289.7435,82.4513,299.7522,81.4225,309.7609,81.849,319.7696,82.6591,329.7783,81.8688,339.787,82.0228,349.7957,82.2561,359.8043,82.3337,369.813,81.9136,379.8217,82.2047,389.8304,81.3451,399.8391,82.2019,409.8478,82.4657,419.8565,82.362,429.8652,82.5305,439.8739,81.4344,449.8826,81.2653,459.8913,81.2961,469.9,81.8586,479.9087,81.721,489.9174,82.5989,499.9261,81.7428,509.9348,81.5744,519.9435,82.1458,529.9522,81.2507,539.9609,81.3984,549.9696,82.5665,559.9783,82.3532,569.987,82.652,579.9957,81.5957,590.0043,82.2367,600.013,82.5079,610.0217,81.4451,620.0304,81.8216,630.0391,82.0435,640.0478,82.5693,650.0565,81.9133,660.0652,82.3801,670.0739,81.3637,680.0826,81.2402,690.0913,82.4211,700.1,81.2006,710.1087,82.4265,720.1174,82.1241,730.1261,81.6496,740.1348,81.5637,750.1435,82.3763,760.1522,81.6182,770.1609,82.5094,780.1696,81.3648,790.1783,82.5349,800.187,82.4018,810.1957,82.1625,820.2043,81.9647,830.213,82.6441,840.2217,82.5311,850.2304,82.0868,860.2391,82.1857,870.2478,81.7872,880.2565,82.634,890.2652,82.0724,900.2739,82.0901,910.2826,81.3091,920.2913,81.5123,930.3,82.4482,940.3087,82.3473,950.3174,81.8746,960.3261,81.5953,970.3348,81.6986,980.3435,81.2313,990.3522,82.3322,1000.3609,82.6571,1010.3696,82.4439,1020.3783,82.6124,1030.387,81.7808,1040.3957,82.0047,1050.4043,81.5299,1060.413,82.2015,1070.4217,82.1643,1080.4304,82.4699,1090.4391,81.6878,1100.4478,81.7831,1110.4565,82.361,1120.4652,82.4848,1130.4739,81.405,1140.4826,81.7236,1150.4913,82.0668,1160.5,81.9175,1160.4221,81.7294,1160.8986,82.1728,1161.24,82.2898,1161.5478,82.3258,1161.9324,82.5471,1162.2678,82.6497,1162.4922,82.7427,1162.3179,82.9634,1162.6577,83.397,1162.7951,83.7468,1162.8892,84.0787,1163,84.4175,1163.1409,84.4175,1163.1135,94.3554,1162.3758,104.2934,1162.5992,114.2313,1162.5385,124.1693,1163.0638,134.1072,1163.0881,144.0451,1163.1617,153.9831,1162.709,163.921,1162.9325,173.859,1162.8798,183.7969,1163.5769,193.7349,1163.4266,203.6728,1162.5145,213.6107,1162.9271,223.5487,1162.4228,233.4866,1163.2884,243.4246,1163.6085,253.3625,1163.5446,263.3004,1162.5644,273.2384,1163.464,283.1763,1162.2572,293.1143,1163.2002,303.0522,1162.7007,312.9901,1163.0967,322.9281,1163.2403,332.866,1163.4721,342.804,1162.2801,352.7419,1163.4755,362.6799,1163.1782,372.6178,1163.3553,382.5557,1163.7478,392.4937,1163.0055,402.4316,1163.1753,412.3696,1163,422.3075,1163.0657,422.3347,1162.9143,422.6862,1162.7069,423.0145,1162.7795,423.4588,1162.2264,423.6439,1162.2678,424.0753,1162.3399,424.2493,1161.8346,424.0295,1161.4917,424.2018,1161.2122,424.5269,1160.8572,424.6698,1160.5,424.8075,1160.5,424.3147,1150.4913,425.2212,1140.4826,424.9164,1130.4739,425.5342,1120.4652,425.4746,1110.4565,424.3592,1100.4478,424.4096,1090.4391,424.6783,1080.4304,425.163,1070.4217,425.2105,1060.413,425.1087,1050.4043,424.4655,1040.3957,425.4439,1030.387,425.4413,1020.3783,424.7602,1010.3696,424.5684,1000.3609,424.4061,990.3522,424.5929,980.3435,424.9449,970.3348,424.7391,960.3261,424.3897,950.3174,425.2949,940.3087,424.3486,930.3,425.3099,920.2913,425.2347,910.2826,425.1794,900.2739,425.5,890.2652,424.5616,880.2565,424.5069,870.2478,425.3264,860.2391,424.2106,850.2304,424.5735,840.2217,424.923,830.213,424.8762,820.2043,424.449,810.1957,424.7645,800.187,425.5521,790.1783,425.456,780.1696,424.2112,770.1609,424.886,760.1522,424.2936,750.1435,424.7812,740.1348,425.1005,730.1261,425.2274,720.1174,424.1428,710.1087,425.208,700.1,424.8159,690.0913,424.2522,680.0826,424.3364,670.0739,425.1341,660.0652,425.0574,650.0565,424.7911,640.0478,424.1354,630.0391,425.4656,620.0304,424.4957,610.0217,424.2794,600.013,424.7402,590.0043,425.3972,579.9957,425.4229,569.987,424.8426,559.9783,424.6563,549.9696,424.9773,539.9609,424.9937,529.9522,424.2997,519.9435,425.2215,509.9348,425.3663,499.9261,424.5917,489.9174,424.3783,479.9087,425.4821,469.9,424.8285,459.8913,424.8073,449.8826,425.1065,439.8739,424.1618,429.8652,425.3375,419.8565,424.7921,409.8478,425.4763,399.8391,424.5916,389.8304,425.2165,379.8217,424.3635,369.813,425.0525,359.8043,425.1868,349.7957,424.4802,339.787,425.1705,329.7783,424.2361,319.7696,424.337,309.7609,425.4903,299.7522,425.4919,289.7435,425.376,279.7348,424.4471,269.7261,425.1917,259.7174,424.3354,249.7087,424.8657,239.7,424.8062,229.6913,424.5451,219.6826,425.4234,209.6739,425.2508,199.6652,424.4867,189.6565,425.3341,179.6478,424.8994,169.6391,424.2239,159.6304,424.5742,149.6217,424.2822,139.613,424.6684,129.6043,424.1785,119.5957,424.2073,109.587,424.8778,99.5783,424.6871,89.5696,424.7489,79.5609,424.6643,69.5522,424.9748,59.5435,424.2524,49.5348,424.9676,39.5261,424.0644,29.5174,425.1035,19.5087,425.4003,9.5,424.8075,9.5666,424.9683,9.1925,424.7723,8.8174,424.5738,8.4528,424.4007,8.0041,424.0246,7.7322,424.0753,7.8697,424.1322,7.6873,423.7638,7.3921,423.3486,7.2911,423.0139,7.0822,422.6344,7,422.3075,7.2177,422.3075,7.6805,412.3696,6.6461,402.4316,7.4689,392.4937,6.9108,382.5557,6.6207,372.6178,6.5681,362.6799,6.3553,352.7419,6.5591,342.804,7.0363,332.866,7.273,322.9281,7.5762,312.9901,7.4201,303.0522,6.2886,293.1143,7.619,283.1763,7.4861,273.2384,7.5407,263.3004,7.5219,253.3625,6.3409,243.4246,6.7423,233.4866,7.316,223.5487,6.5185,213.6107,6.8971,203.6728,7.067,193.7349,7.3261,183.7969,7.0458,173.859,7.7447,163.921,7.4114,153.9831,7.2561,144.0451,6.4601,134.1072,7.3388,124.1693,6.4255,114.2313,7.3057,104.2934,7.0078,94.3554,7,84.4175,7.0922,84.4557,7.1195,84.0528,7.2325,83.6854,7.2112,83.2623,7.5198,82.9759,7.7322,82.6497,7.6423,82.4326,8.0544,82.4275,8.4952,82.4917,8.8134,82.2599,9.0888,81.9249,9.5,81.9175" style="stroke:#181818;stroke-width:1;"/><text fill="#000000" font-family="Arial" font-size="14" font-weight="bold" lengthAdjust="spacing" textLength="91.1025" x="539.4487" y="96.9126">&#1606;&#1592;&#1575;&#1605; &#1575;&#1604;&#1605;&#1590;&#1582;&#1577;</text></g><!--cluster ????? ???????--><g class="cluster" data-qualified-name="..... ......." data-source-line="14" id="ent0008"><polygon fill="none" points="1187,89.9375,1187.0495,89.987,1188.9023,87.8398,1191.0456,85.9831,1193.0942,84.0317,1194.8319,81.7694,1197,79.9375,1197,79.8598,1207.1111,79.511,1217.2222,79.554,1227.3333,79.8693,1237.4444,79.2461,1247.5556,80.4911,1257.6667,79.3072,1267.7778,79.7397,1277.8889,80.3694,1288,79.8517,1298.1111,80.0057,1308.2222,79.9056,1318.3333,80.116,1328.4444,80.1766,1338.5556,80.5232,1348.6667,80.6086,1358.7778,80.6168,1368.8889,80.1921,1379,79.9375,1379.4636,79.9375,1379.7022,89.5219,1378.2788,99.1064,1379.6785,108.6908,1378.7035,118.2753,1379.5338,127.8597,1378.505,137.4442,1378.9315,147.0286,1379.7416,156.6131,1379,166.1975,1378.9885,166.186,1377.0248,168.2223,1375.0798,170.2773,1373.0981,172.2956,1370.9991,174.1966,1369,176.1975,1369,176.4847,1358.8889,175.6251,1348.7778,176.4819,1338.6667,176.7457,1328.5556,176.642,1318.4444,176.8105,1308.3333,175.7144,1298.2222,175.5453,1288.1111,175.5761,1278,176.1386,1267.8889,176.001,1257.7778,176.8789,1247.6667,176.0228,1237.5556,175.8544,1227.4444,176.4258,1217.3333,175.5307,1207.2222,175.6784,1197.1111,176.8465,1187,176.1975,1187.4357,176.1975,1187.7345,166.6131,1186.6782,157.0286,1187.3192,147.4442,1187.5904,137.8597,1186.5276,128.2753,1186.9041,118.6908,1187.126,109.1064,1187.6518,99.5219,1187,89.9375" style="stroke:#181818;stroke-width:1;"/><path d="M1369,89.9375 L1369.0661,90.0036 L1370.8698,87.8073 L1373.0607,85.9982 L1375.1256,84.0631 L1376.7758,81.7133 L1379,79.9375" fill="none" style="stroke:#181818;stroke-width:1;"/><path d="M1187,89.9375 L1187,90.2177 L1197.1111,89.3851 L1207.2222,90.1952 L1217.3333,90.4704 L1227.4444,88.9863 L1237.5556,89.8339 L1247.6667,89.3688 L1257.7778,89.4262 L1267.8889,89.8466 L1278,89.0157 L1288.1111,90.6757 L1298.2222,89.0971 L1308.3333,89.6738 L1318.4444,90.5134 L1328.5556,89.8231 L1338.6667,90.0285 L1348.7778,89.8949 L1358.8889,90.1755 L1369,89.9375" fill="none" style="stroke:#181818;stroke-width:1;"/><path d="M1369,89.9375 L1369.2802,89.9375 L1368.4476,99.5219 L1369.2577,109.1064 L1369.5329,118.6908 L1368.0488,128.2753 L1368.8964,137.8597 L1368.4313,147.4442 L1368.4887,157.0286 L1368.9091,166.6131 L1369,176.1975" fill="none" style="stroke:#181818;stroke-width:1;"/><text fill="#000000" font-family="Arial" font-size="14" font-weight="bold" lengthAdjust="spacing" textLength="91.0684" x="1233.4658" y="105.9326">&#1593;&#1605;&#1604;&#1610;&#1577; &#1575;&#1604;&#1578;&#1576;&#1583;&#1610;&#1604;</text></g><!--entity Pump--><g class="entity" data-qualified-name=".... .......Pump" data-source-line="7" id="ent0003"><polygon fill="#F1F1F1" points="83.7,240.2175,83.7,240.4277,93.9003,239.8032,104.1005,240.4108,114.3008,240.6172,124.5011,239.5041,134.7014,240.1398,144.9016,239.791,155.1019,239.834,165.3022,240.1493,175.5024,239.5261,185.7027,240.7711,195.903,239.5872,206.1032,240.0197,216.3035,240.2175,216.3586,240.3505,216.6461,240.3375,217.0193,240.5314,217.3601,240.647,217.7405,240.8583,218.0713,240.9497,218.1449,240.9802,218.3981,241.378,218.5708,241.7424,218.7198,242.097,218.7355,242.3964,218.8035,242.7175,218.958,242.7175,219.0376,250.9769,218.5631,259.2363,219.0297,267.4956,218.7047,275.755,218.8035,284.0144,218.9679,284.0825,218.5046,284.3048,218.4895,284.7127,218.5926,285.1696,218.2027,285.4224,218.0713,285.7821,218.0847,285.8146,217.7609,286.0329,217.4173,286.2032,217.0101,286.2203,216.6937,286.4564,216.3035,286.5144,216.3035,285.942,206.1032,286.7988,195.903,287.0626,185.7027,286.9589,175.5024,287.1274,165.3022,286.0313,155.1019,285.8622,144.9016,285.893,134.7014,286.4555,124.5011,286.3178,114.3008,287.1958,104.1005,286.3397,93.9003,286.1713,83.7,286.5144,83.7291,286.5847,83.2614,286.1626,82.9267,286.0616,82.7221,286.2749,82.3414,286.0628,81.9322,285.7821,82.1584,285.8758,81.6867,285.3875,81.7376,285.1158,81.6747,284.7968,81.201,284.3077,81.2,284.0144,81.168,284.0144,81.242,275.755,81.4173,267.4956,81.1986,259.2363,81.3542,250.9769,81.2,242.7175,81.0295,242.6469,81.1379,242.2776,81.648,242.0746,81.4186,241.5654,81.9425,241.3682,81.9322,240.9497,81.9586,241.0134,82.2516,240.7208,82.5942,240.5479,83.0514,240.6517,83.3083,240.2718,83.7,240.2175" style="stroke:#181818;stroke-width:0.5;"/><polygon fill="#F1F1F1" points="198.8035,245.2175,198.8035,245.2876,201.8035,245.0794,204.8035,245.2819,207.8035,245.3507,210.8035,244.9797,213.8035,245.2175,213.7776,245.2175,213.6614,247.2175,213.6757,249.2175,213.7808,251.2175,213.5731,253.2175,213.8035,255.2175,213.8035,255.402,210.8035,255.0074,207.8035,255.1516,204.8035,255.3615,201.8035,255.1889,198.8035,255.2175,198.8263,255.2175,198.7929,253.2175,198.863,251.2175,198.8832,249.2175,198.9987,247.2175,198.8035,245.2175" style="stroke:#181818;stroke-width:0.5;"/><polygon fill="#F1F1F1" points="196.8035,247.2175,196.8035,247.2876,197.6035,247.0794,198.4035,247.2819,199.2035,247.3507,200.0035,246.9797,200.8035,247.2175,200.7776,247.2175,200.6614,247.6175,200.6757,248.0175,200.7808,248.4175,200.5731,248.8175,200.8035,249.2175,200.8035,249.402,200.0035,249.0074,199.2035,249.1516,198.4035,249.3615,197.6035,249.1889,196.8035,249.2175,196.8263,249.2175,196.7929,248.8175,196.863,248.4175,196.8832,248.0175,196.9987,247.6175,196.8035,247.2175" style="stroke:#181818;stroke-width:0.5;"/><polygon fill="#F1F1F1" points="196.8035,251.2175,196.8035,251.2876,197.6035,251.0794,198.4035,251.2819,199.2035,251.3507,200.0035,250.9797,200.8035,251.2175,200.7776,251.2175,200.6614,251.6175,200.6757,252.0175,200.7808,252.4175,200.5731,252.8175,200.8035,253.2175,200.8035,253.402,200.0035,253.0074,199.2035,253.1516,198.4035,253.3615,197.6035,253.1889,196.8035,253.2175,196.8263,253.2175,196.7929,252.8175,196.863,252.4175,196.8832,252.0175,196.9987,251.6175,196.8035,251.2175" style="stroke:#181818;stroke-width:0.5;"/><text fill="#000000" font-family="Arial" font-size="14" lengthAdjust="spacing" textLength="97.6035" x="96.2" y="273.2126">&#1575;&#1604;&#1605;&#1590;&#1582;&#1577; &#1575;&#1604;&#1585;&#1574;&#1610;&#1587;&#1610;&#1577;</text></g><!--entity OldDB--><g class="entity" data-qualified-name=".... .......OldDB" data-source-line="8" id="ent0004"><path d="M512.8,373.5075 L512.8,373.5075 L512.8445,373.5896 L514.8436,372.1894 L517.1037,371.2705 L519.2789,370.1949 L521.1744,368.6038 L523.457,367.7263 L523.4514,367.6922 L525.6112,367.1837 L527.799,366.8471 L530.0061,366.6299 L532.1463,366.0011 L534.3804,365.9489 L534.4037,366.1939 L536.8582,365.4318 L539.3808,365.3848 L541.9117,365.4252 L544.3943,364.9578 L546.9023,364.7575 L546.904,364.7878 L549.4059,364.5988 L551.9156,364.5477 L554.4216,364.43 L556.9348,364.4392 L559.4242,364.0348 L559.4344,364.3329 L561.6192,364.2623 L563.7974,363.9995 L565.9853,364.0181 L568.1735,364.0499 L570.3476,363.6638 L570.3429,363.3433 L572.4834,363.934 L574.6085,363.4695 L576.7453,363.8072 L578.87,363.3188 L581.0046,363.5075 L581.0046,363.5075 L581.0041,363.4771 L583.1408,363.8683 L585.2671,363.5483 L587.3995,363.648 L589.5324,363.783 L591.6616,363.6638 L591.6678,363.8486 L593.8462,363.7362 L596.0352,363.9398 L598.207,363.6321 L600.4046,364.0869 L602.5849,364.0348 L602.599,364.2781 L605.1007,364.3766 L607.6094,364.5959 L610.0857,364.2541 L612.5858,364.3236 L615.1069,364.7575 L615.0807,364.4826 L617.6088,364.9697 L620.1074,365.1471 L622.6487,365.7738 L625.1171,365.6333 L627.6288,365.9489 L627.6043,365.7984 L629.8298,366.4045 L631.9506,366.3673 L634.1458,366.7876 L636.4139,367.6555 L638.5522,367.7263 L638.6445,367.8964 L640.8393,369.1694 L642.7468,369.913 L645.014,371.3197 L647.2029,372.5819 L649.2092,373.5075 L648.7893,373.5075 L649.124,378.5669 L649.3212,383.6262 L649.7885,388.6856 L649.2055,393.745 L649.2092,398.8044 L649.2092,398.8044 L649.3072,398.9851 L646.9604,399.7443 L644.8029,400.8523 L642.9217,402.4699 L640.5317,403.1493 L638.5522,404.5856 L638.5885,404.8089 L636.3823,405.0317 L634.1637,405.179 L631.9729,405.4968 L629.8462,406.2087 L627.6288,406.363 L627.6162,406.2305 L625.1493,406.8631 L622.5968,406.595 L620.1417,407.351 L617.6317,407.5304 L615.1069,407.5544 L615.1132,407.6631 L612.6037,407.7199 L610.1167,408.1658 L607.6094,408.2602 L605.0937,408.2076 L602.5849,408.277 L602.589,408.3962 L600.3983,408.2934 L598.2264,408.7437 L596.0333,408.5685 L593.8488,408.6506 L591.6616,408.6481 L591.6576,408.3778 L589.5275,408.4993 L587.4022,408.9465 L585.2702,408.9329 L583.1357,408.754 L581.0046,408.8044 L581.0046,408.8044 L581.0025,408.6612 L578.8718,408.6758 L576.7373,408.4369 L574.6131,408.8949 L572.4838,409.008 L570.3476,408.6481 L570.3556,408.8819 L568.1734,408.8826 L565.9762,408.439 L563.7949,408.4642 L561.6031,408.1791 L559.4242,408.277 L559.4315,408.4031 L556.9262,408.242 L554.4296,408.2331 L551.9052,407.7415 L549.4032,407.6393 L546.9023,407.5544 L546.921,407.7506 L544.4218,407.5671 L541.8719,406.851 L539.381,406.7537 L536.891,406.6673 L534.3804,406.363 L534.3368,406.095 L532.2209,406.1625 L530.0294,405.7652 L527.8191,405.2524 L525.6518,405.0035 L523.457,404.5856 L523.6114,404.8703 L521.2593,403.3071 L519.2609,402.3962 L517.1233,401.2285 L514.9559,400.0059 L512.8,398.8044 L512.9253,398.8044 L512.9009,393.745 L512.2452,388.6856 L512.4437,383.6262 L512.3897,378.5669 L512.8,373.5075" fill="#F1F1F1" style="stroke:#181818;stroke-width:0.5;"/><path d="M512.8,373.5075 L512.8,373.5075 L512.8445,373.5896 L514.8436,374.5019 L517.1037,375.8955 L519.2789,377.1324 L521.1744,377.8538 L523.457,379.2888 L523.4514,379.2547 L525.6112,379.4571 L527.799,379.8315 L530.0061,380.3253 L532.1463,380.4073 L534.3804,381.0661 L534.4037,381.3111 L536.8582,381.0255 L539.3808,381.4552 L541.9117,381.9721 L544.3943,381.9813 L546.9023,382.2575 L546.904,382.2878 L549.4059,382.3879 L551.9156,382.6258 L554.4216,382.7972 L556.9348,383.0955 L559.4242,382.9802 L559.4344,383.2782 L561.6192,383.3561 L563.7974,383.2417 L565.9853,383.4087 L568.1735,383.589 L570.3476,383.3513 L570.3429,383.0308 L572.4834,383.684 L574.6085,383.282 L576.7453,383.6822 L578.87,383.2563 L581.0046,383.5075 L581.0046,383.5075 L581.0041,383.4771 L583.1408,383.8058 L585.2671,383.4233 L587.3995,383.4605 L589.5324,383.533 L591.6616,383.3513 L591.6678,383.5361 L593.8462,383.2753 L596.0352,383.3304 L598.207,382.8743 L600.4046,383.1807 L602.5849,382.9802 L602.599,383.2234 L605.1007,383.0329 L607.6094,382.9631 L610.0857,382.3322 L612.5858,382.1127 L615.1069,382.2575 L615.0807,381.9826 L617.6088,381.9932 L620.1074,381.694 L622.6487,381.8441 L625.1171,381.2271 L627.6288,381.0661 L627.6043,380.9156 L629.8298,380.8108 L631.9506,380.0626 L634.1458,379.772 L636.4139,379.9289 L638.5522,379.2888 L638.6445,379.4589 L640.8393,378.4194 L642.7468,376.8505 L645.014,375.9447 L647.2029,374.8944 L649.2092,373.5075" fill="none" style="stroke:#181818;stroke-width:0.5;"/><text fill="#000000" font-family="Arial" font-size="14" lengthAdjust="spacing" textLength="116.4092" x="522.8" y="400.5026">&#1587;&#1580;&#1604; &#1575;&#1604;&#1590;&#1594;&#1591; &#1575;&#1604;&#1602;&#1583;&#1610;&#1605;</text></g><!--entity SensorOld--><g class="entity" data-qualified-name=".... .......SensorOld" data-source-line="9" id="ent0005"><polygon fill="#F1F1F1" points="581.59,240.2175,581.59,240.4277,591.7122,239.8032,601.8345,240.4108,611.9567,240.6172,622.079,239.5041,632.2012,240.1398,642.3234,239.791,652.4457,239.834,662.5679,240.1493,672.6902,239.5261,682.8124,240.7711,692.9346,239.5872,703.0569,240.0197,713.1791,240.6494,723.3014,240.1317,733.4236,240.2857,743.5458,240.1856,753.6681,240.396,763.7903,240.4566,773.9126,240.8032,784.0348,240.8886,794.157,240.8968,804.2793,240.4721,814.4015,240.2175,814.4607,240.3603,814.8447,240.5802,815.0166,240.2883,815.5487,240.8658,815.7779,240.712,816.1693,240.9497,816.3337,241.0178,816.1633,241.2401,816.4411,241.6481,816.837,242.105,816.7401,242.3577,816.9015,242.7175,816.9366,242.7175,817.0144,250.9769,817.0403,259.2363,816.9002,267.4956,816.9973,275.755,816.9015,284.0144,816.7252,283.9414,816.8427,284.4042,816.7775,284.7914,816.5991,285.1317,816.5045,285.5068,816.1693,285.7821,816.1077,285.6334,815.7325,285.7277,815.3829,285.8837,815.1011,286.2033,814.73,286.3074,814.4015,286.5144,814.4015,287.1958,804.2793,286.3397,794.157,286.1713,784.0348,286.7426,773.9126,285.8475,763.7903,285.9952,753.6681,287.1633,743.5458,286.95,733.4236,287.2489,723.3014,286.1926,713.1791,286.8336,703.0569,287.1048,692.9346,286.042,682.8124,286.4185,672.6902,286.6404,662.5679,287.1661,652.4457,286.5102,642.3234,286.9769,632.2012,285.9606,622.079,285.8371,611.9567,287.018,601.8345,285.7974,591.7122,287.0233,581.59,286.5144,581.6164,286.578,581.2023,286.2854,580.8378,286.1125,580.5879,286.2163,580.1376,285.8364,579.8222,285.7821,580.0045,285.8576,579.5056,285.3581,579.7195,285.1538,579.532,284.7833,579.3119,284.3992,579.09,284.0144,579.1057,284.0144,579.3322,275.755,579.2945,267.4956,579.1464,259.2363,579.1794,250.9769,579.09,242.7175,579.0499,242.7009,579.4571,242.4553,579.4306,242.0301,579.5825,241.6789,579.4884,241.2257,579.8222,240.9497,579.7705,240.8249,580.2435,240.9667,580.5842,240.7892,580.8774,240.4972,581.1954,240.2647,581.59,240.2175" style="stroke:#181818;stroke-width:0.5;"/><polygon fill="#F1F1F1" points="796.9015,245.2175,796.9015,245.2876,799.9015,245.0794,802.9015,245.2819,805.9015,245.3507,808.9015,244.9797,811.9015,245.2175,811.8756,245.2175,811.7594,247.2175,811.7737,249.2175,811.8788,251.2175,811.6711,253.2175,811.9015,255.2175,811.9015,255.402,808.9015,255.0074,805.9015,255.1516,802.9015,255.3615,799.9015,255.1889,796.9015,255.2175,796.9243,255.2175,796.8909,253.2175,796.961,251.2175,796.9812,249.2175,797.0968,247.2175,796.9015,245.2175" style="stroke:#181818;stroke-width:0.5;"/><polygon fill="#F1F1F1" points="794.9015,247.2175,794.9015,247.2876,795.7015,247.0794,796.5015,247.2819,797.3015,247.3507,798.1015,246.9797,798.9015,247.2175,798.8756,247.2175,798.7594,247.6175,798.7737,248.0175,798.8788,248.4175,798.6711,248.8175,798.9015,249.2175,798.9015,249.402,798.1015,249.0074,797.3015,249.1516,796.5015,249.3615,795.7015,249.1889,794.9015,249.2175,794.9243,249.2175,794.8909,248.8175,794.961,248.4175,794.9812,248.0175,795.0968,247.6175,794.9015,247.2175" style="stroke:#181818;stroke-width:0.5;"/><polygon fill="#F1F1F1" points="794.9015,251.2175,794.9015,251.2876,795.7015,251.0794,796.5015,251.2819,797.3015,251.3507,798.1015,250.9797,798.9015,251.2175,798.8756,251.2175,798.7594,251.6175,798.7737,252.0175,798.8788,252.4175,798.6711,252.8175,798.9015,253.2175,798.9015,253.402,798.1015,253.0074,797.3015,253.1516,796.5015,253.3615,795.7015,253.1889,794.9015,253.2175,794.9243,253.2175,794.8909,252.8175,794.961,252.4175,794.9812,252.0175,795.0968,251.6175,794.9015,251.2175" style="stroke:#181818;stroke-width:0.5;"/><text fill="#000000" font-family="Arial" font-size="14" lengthAdjust="spacing" textLength="197.8115" x="594.09" y="273.2126">&#1581;&#1587;&#1575;&#1587; &#1575;&#1604;&#1590;&#1594;&#1591; &#1575;&#1604;&#1602;&#1583;&#1610;&#1605; (&#1575;&#1604;&#1605;&#1593;&#1591;&#1608;&#1576;)</text></g><!--entity SensorNew--><g class="entity" data-qualified-name=".... .......SensorNew" data-source-line="10" id="ent0006"><polygon fill="#F1F1F1" points="854.02,240.2175,854.02,240.4277,864.1919,239.8032,874.3638,240.4108,884.5356,240.6172,894.7075,239.5041,904.8794,240.1398,915.0513,239.791,925.2231,239.834,935.395,240.1493,945.5669,239.5261,955.7388,240.7711,965.9106,239.5872,976.0825,240.0197,986.2544,240.6494,996.4263,240.1317,1006.5981,240.2857,1016.77,240.1856,1026.9419,240.396,1037.1138,240.4566,1047.2856,240.8032,1057.4575,240.8886,1067.6294,240.8968,1077.8013,240.4721,1087.9731,240.2175,1088.0323,240.3603,1088.4163,240.5802,1088.5882,240.2883,1089.1203,240.8658,1089.3495,240.712,1089.7409,240.9497,1089.9053,241.0178,1089.7349,241.2401,1090.0127,241.6481,1090.4086,242.105,1090.3117,242.3577,1090.4731,242.7175,1090.5082,242.7175,1090.586,250.9769,1090.6119,259.2363,1090.4718,267.4956,1090.5689,275.755,1090.4731,284.0144,1090.2968,283.9414,1090.4143,284.4042,1090.3491,284.7914,1090.1707,285.1317,1090.0761,285.5068,1089.7409,285.7821,1089.6793,285.6334,1089.3041,285.7277,1088.9545,285.8837,1088.6727,286.2033,1088.3016,286.3074,1087.9731,286.5144,1087.9731,287.1958,1077.8013,286.3397,1067.6294,286.1713,1057.4575,286.7426,1047.2856,285.8475,1037.1138,285.9952,1026.9419,287.1633,1016.77,286.95,1006.5981,287.2489,996.4263,286.1926,986.2544,286.8336,976.0825,287.1048,965.9106,286.042,955.7388,286.4185,945.5669,286.6404,935.395,287.1661,925.2231,286.5102,915.0513,286.9769,904.8794,285.9606,894.7075,285.8371,884.5356,287.018,874.3638,285.7974,864.1919,287.0233,854.02,286.5144,854.0464,286.578,853.6323,286.2854,853.2678,286.1125,853.0179,286.2163,852.5676,285.8364,852.2522,285.7821,852.4345,285.8576,851.9356,285.3581,852.1495,285.1538,851.962,284.7833,851.7419,284.3992,851.52,284.0144,851.5357,284.0144,851.7622,275.755,851.7245,267.4956,851.5764,259.2363,851.6094,250.9769,851.52,242.7175,851.4799,242.7009,851.8871,242.4553,851.8606,242.0301,852.0125,241.6789,851.9184,241.2257,852.2522,240.9497,852.2005,240.8249,852.6735,240.9667,853.0142,240.7892,853.3074,240.4972,853.6254,240.2647,854.02,240.2175" style="stroke:#181818;stroke-width:0.5;"/><polygon fill="#F1F1F1" points="1070.4731,245.2175,1070.4731,245.2876,1073.4731,245.0794,1076.4731,245.2819,1079.4731,245.3507,1082.4731,244.9797,1085.4731,245.2175,1085.4472,245.2175,1085.331,247.2175,1085.3453,249.2175,1085.4504,251.2175,1085.2427,253.2175,1085.4731,255.2175,1085.4731,255.402,1082.4731,255.0074,1079.4731,255.1516,1076.4731,255.3615,1073.4731,255.1889,1070.4731,255.2175,1070.4959,255.2175,1070.4625,253.2175,1070.5326,251.2175,1070.5528,249.2175,1070.6684,247.2175,1070.4731,245.2175" style="stroke:#181818;stroke-width:0.5;"/><polygon fill="#F1F1F1" points="1068.4731,247.2175,1068.4731,247.2876,1069.2731,247.0794,1070.0731,247.2819,1070.8731,247.3507,1071.6731,246.9797,1072.4731,247.2175,1072.4472,247.2175,1072.331,247.6175,1072.3453,248.0175,1072.4504,248.4175,1072.2427,248.8175,1072.4731,249.2175,1072.4731,249.402,1071.6731,249.0074,1070.8731,249.1516,1070.0731,249.3615,1069.2731,249.1889,1068.4731,249.2175,1068.4959,249.2175,1068.4625,248.8175,1068.5326,248.4175,1068.5528,248.0175,1068.6684,247.6175,1068.4731,247.2175" style="stroke:#181818;stroke-width:0.5;"/><polygon fill="#F1F1F1" points="1068.4731,251.2175,1068.4731,251.2876,1069.2731,251.0794,1070.0731,251.2819,1070.8731,251.3507,1071.6731,250.9797,1072.4731,251.2175,1072.4472,251.2175,1072.331,251.6175,1072.3453,252.0175,1072.4504,252.4175,1072.2427,252.8175,1072.4731,253.2175,1072.4731,253.402,1071.6731,253.0074,1070.8731,253.1516,1070.0731,253.3615,1069.2731,253.1889,1068.4731,253.2175,1068.4959,253.2175,1068.4625,252.8175,1068.5326,252.4175,1068.5528,252.0175,1068.6684,251.6175,1068.4731,251.2175" style="stroke:#181818;stroke-width:0.5;"/><text fill="#000000" font-family="Arial" font-size="14" lengthAdjust="spacing" textLength="198.9531" x="866.52" y="273.2126">&#1581;&#1587;&#1575;&#1587; &#1575;&#1604;&#1590;&#1594;&#1591; &#1575;&#1604;&#1580;&#1583;&#1610;&#1583; (&#1575;&#1604;&#1575;&#1581;&#1578;&#1610;&#1575;&#1591;&#1610;)</text></g><!--entity Controller--><g class="entity" data-qualified-name=".... .......Controller" data-source-line="11" id="ent0007"><polygon fill="#F1F1F1" points="497.66,116.9175,497.66,117.1277,507.6941,116.5032,517.7283,117.1108,527.7624,117.3172,537.7965,116.2041,547.8307,116.8398,557.8648,116.491,567.8989,116.534,577.933,116.8493,587.9672,116.2261,598.0013,117.4711,608.0354,116.2872,618.0696,116.7197,628.1037,117.3494,638.1378,116.8317,648.172,116.9857,658.2061,116.8856,668.2402,117.096,678.2744,117.1566,688.3085,117.5032,698.3426,116.9175,698.4282,117.1242,698.7828,117.2731,699.0822,117.2888,699.4624,117.4996,699.8464,117.7195,700.1104,117.6497,699.8883,117.5577,700.4658,118.0898,700.312,118.319,700.7141,118.7785,700.5437,119.0008,700.8426,119.4175,700.8198,119.4175,701.0898,127.6769,700.8264,135.9363,700.8777,144.1956,700.9555,152.455,700.8426,160.7144,700.9708,160.7675,700.695,161.0674,700.6382,161.4581,700.227,161.702,700.3444,162.1649,700.1104,162.4821,700.1803,162.651,699.8135,162.7655,699.4815,162.9638,698.9881,162.7727,698.613,162.8671,698.3426,163.2144,698.3426,162.593,688.3085,163.1555,678.2744,163.0178,668.2402,163.8958,658.2061,163.0397,648.172,162.8713,638.1378,163.4426,628.1037,162.5475,618.0696,162.6952,608.0354,163.8633,598.0013,163.65,587.9672,163.9489,577.933,162.8926,567.8989,163.5336,557.8648,163.8048,547.8307,162.742,537.7965,163.1185,527.7624,163.3404,517.7283,163.8661,507.6941,163.2102,497.66,163.2144,497.719,163.3568,497.2358,162.8974,496.8665,162.7129,496.6636,162.9301,496.1543,162.4078,495.8922,162.4821,496.049,162.5471,495.8094,162.1549,495.5168,161.7409,495.3439,161.3764,495.4477,161.1264,495.16,160.7144,495.0602,160.7144,495.3573,152.455,494.9758,144.1956,495.3658,135.9363,495.3214,127.6769,495.16,119.4175,495.2354,119.4487,495.321,119.07,495.6767,118.8031,495.7883,118.4351,495.7979,118.0249,495.8922,117.6497,495.9264,117.7323,496.2292,117.4632,496.6907,117.5775,496.9726,117.2581,497.3285,117.1171,497.66,116.9175" style="stroke:#181818;stroke-width:0.5;"/><polygon fill="#F1F1F1" points="680.8426,121.9175,680.8426,121.9876,683.8426,121.7794,686.8426,121.9819,689.8426,122.0507,692.8426,121.6797,695.8426,121.9175,695.8167,121.9175,695.7005,123.9175,695.7148,125.9175,695.8199,127.9175,695.6122,129.9175,695.8426,131.9175,695.8426,132.102,692.8426,131.7074,689.8426,131.8516,686.8426,132.0615,683.8426,131.8889,680.8426,131.9175,680.8654,131.9175,680.832,129.9175,680.9021,127.9175,680.9223,125.9175,681.0378,123.9175,680.8426,121.9175" style="stroke:#181818;stroke-width:0.5;"/><polygon fill="#F1F1F1" points="678.8426,123.9175,678.8426,123.9876,679.6426,123.7794,680.4426,123.9819,681.2426,124.0507,682.0426,123.6797,682.8426,123.9175,682.8167,123.9175,682.7005,124.3175,682.7148,124.7175,682.8199,125.1175,682.6122,125.5175,682.8426,125.9175,682.8426,126.102,682.0426,125.7074,681.2426,125.8516,680.4426,126.0615,679.6426,125.8889,678.8426,125.9175,678.8654,125.9175,678.832,125.5175,678.9021,125.1175,678.9223,124.7175,679.0378,124.3175,678.8426,123.9175" style="stroke:#181818;stroke-width:0.5;"/><polygon fill="#F1F1F1" points="678.8426,127.9175,678.8426,127.9876,679.6426,127.7794,680.4426,127.9819,681.2426,128.0507,682.0426,127.6797,682.8426,127.9175,682.8167,127.9175,682.7005,128.3175,682.7148,128.7175,682.8199,129.1175,682.6122,129.5175,682.8426,129.9175,682.8426,130.102,682.0426,129.7074,681.2426,129.8516,680.4426,130.0615,679.6426,129.8889,678.8426,129.9175,678.8654,129.9175,678.832,129.5175,678.9021,129.1175,678.9223,128.7175,679.0378,128.3175,678.8426,127.9175" style="stroke:#181818;stroke-width:0.5;"/><text fill="#000000" font-family="Arial" font-size="14" lengthAdjust="spacing" textLength="165.6826" x="510.16" y="149.9126">&#1608;&#1581;&#1583;&#1577; &#1575;&#1604;&#1578;&#1581;&#1603;&#1605; (PLC/&#1575;&#1604;&#1605;&#1578;&#1581;&#1603;&#1605;)</text></g><g class="entity" data-qualified-name="..... ........GMN12" data-source-line="21" id="ent0013"><path d="M1203,119.9375 L1203.1868,119.9375 L1202.6317,123.1635 L1203.1718,126.3895 L1203.3553,129.6155 L1202.3659,132.8415 L1203,136.0675 L1202.9983,135.8603 L1192.9513,135.0102 L1182.9127,135.2049 L1172.8798,136.1258 L1162.8269,134.5439 L1152.8138,137.9438 L1142.749,134.8668 L1132.7186,136.1001 L1122.6924,137.8593 L1112.6418,136.5588 L1102.6054,137.0495 L1092.5637,136.8623 L1082.5286,137.5036 L1072.4903,137.7452 L1062.458,138.7493 L1052.4203,139.0569 L1042.3808,139.1588 L1032.3322,138.1065 L1022.2971,138.7437 L1012.2625,139.4601 L1002.1927,135.7444 L992.1828,139.5568 L982.1225,137.0368 L972.1005,139.331 L962.0391,136.6675 L952.0085,137.8848 L941.9862,140.1251 L931.9298,138.0975 L921.8934,138.5883 L911.8588,139.2905 L901.8208,139.5774 L891.7723,138.5371 L881.7389,139.3934 L871.681,137.1811 L861.6596,139.5458 L851.6256,140.3293 L841.5838,140.1329 L831.5478,140.6622 L821.4849,137.8193 L811.4417,137.4484 L801.4028,137.6105 L791.3751,139.1905 L781.3326,138.9034 L771.3117,141.3245 L761.2539,139.1217 L751.2107,138.7527 L741.1833,140.3562 L731.1246,138.0493 L721.0882,138.5232 L711.0734,141.718 L701.02,140.0675 L701.0293,141.2292 L711.0752,142.1061 L721.0924,139.3694 L731.1456,141.1587 L741.1909,141.9619 L751.208,139.2078 L761.2556,140.2919 L771.2999,140.9634 L781.3506,142.4455 L791.3763,140.7763 L801.4258,142.101 L811.4438,139.4708 L821.4808,139.2215 L831.5455,142.4504 L841.5592,139.2757 L851.6248,142.6247 L861.658,141.8985 L871.6875,140.7131 L881.7253,140.5641 L891.7821,142.8108 L901.8056,140.8693 L911.8642,143.3257 L921.8795,140.3536 L931.9439,143.5539 L941.9807,143.2789 L952.0152,142.7207 L962.0506,142.2734 L972.1046,144.1651 L982.1418,143.9437 L992.172,142.8388 L1002.2137,143.1826 L1012.2448,142.2001 L1022.3024,144.538 L1032.3301,143.1205 L1042.3701,143.2477 L1052.3931,141.2453 L1062.437,141.8669 L1072.4965,144.4428 L1082.5339,144.2535 L1092.5635,143.073 L1102.5972,142.4084 L1112.6389,142.7637 L1122.6686,141.5978 L1132.7316,144.6134 L1142.7781,145.5596 L1152.8132,145.0712 L1162.8564,145.6006 L1172.8783,143.4629 L1182.9227,144.1401 L1192.9522,142.9539 L1203,144.0675 L1203.2525,144.0675 L1203.2193,147.2946 L1203.491,150.5218 L1202.7959,153.7489 L1202.8805,156.976 L1203,160.2031 L1203,160.2031 L1203,161.3857 L1213.0005,161.716 L1223.0009,158.8364 L1233.0014,159.6861 L1243.0018,160.6012 L1253.0023,158.5742 L1263.0027,161.1455 L1273.0032,160.8911 L1283.0037,159.9344 L1293.0041,160.5825 L1303.0046,162.1463 L1313.005,159.3688 L1323.0055,161.0431 L1333.006,160.9649 L1343.0064,160.5118 L1353.0069,160.5789 L1363.0073,160.2031 L1363.0073,160.2031 L1363.1082,160.2031 L1362.4525,154.15 L1362.651,148.0969 L1362.5971,142.0438 L1363.0641,135.9906 L1363.0073,129.9375 L1363.0627,129.9929 L1361.109,128.0392 L1358.8244,125.7546 L1356.9649,123.8951 L1354.9318,121.8619 L1353.0073,119.9375 L1353.0073,121.4758 L1343.0068,121.075 L1333.0063,118.6427 L1323.0059,119.743 L1313.0054,118.3982 L1303.0049,120.7065 L1293.0044,121.5601 L1283.0039,121.3897 L1273.0034,118.776 L1263.0029,121.1747 L1253.0024,117.9567 L1243.002,120.4712 L1233.0015,119.1393 L1223.001,120.1954 L1213.0005,120.5784 L1203,119.9375 L1203,119.9375" fill="#FEFFDD" style="stroke:#181818;stroke-width:0.5;"/><path d="M1353.0073,119.9375 L1353.1942,119.9375 L1352.639,121.9375 L1353.1791,123.9375 L1353.3626,125.9375 L1352.3732,127.9375 L1353.0073,129.9375 L1353.0073,129.8684 L1355.0073,129.5584 L1357.0073,129.5966 L1359.0073,129.8769 L1361.0073,129.3229 L1363.0073,129.9375 L1363.3553,130.2855 L1360.6112,127.5413 L1358.883,125.8132 L1357.2788,124.209 L1354.9534,121.8836 L1353.0073,119.9375" fill="#FEFFDD" style="stroke:#181818;stroke-width:0.5;"/><text fill="#000000" font-family="Arial" font-size="13" lengthAdjust="spacing" textLength="108.8687" x="1209" y="137.0044">&#1578;&#1581;&#1583;&#1610;&#1583; &#1575;&#1604;&#1581;&#1575;&#1580;&#1577; &#1604;&#1604;&#1578;&#1576;&#1583;&#1610;&#1604;</text><text fill="#000000" font-family="Arial" font-size="13" lengthAdjust="spacing" textLength="139.0073" x="1209" y="152.1372">(&#1573;&#1606;&#1584;&#1575;&#1585; &#1590;&#1594;&#1591; &#1582;&#1575;&#1585;&#1580; &#1575;&#1604;&#1606;&#1591;&#1575;&#1602;)</text></g><!--link Controller to SensorOld--><g class="link" data-entity-1="ent0007" data-entity-2="ent0005" data-link-type="dependency" data-source-line="15" id="lnk9"><path d="M503.8,163.6675 L503.8384,163.7527 L501.8067,164.3646 L500.0002,165.4758 L498.1203,166.4244 L495.9993,166.8384 L494.2121,167.9925 L494.1953,167.9623 L492.4251,168.7745 L490.7399,169.7386 L489.1138,170.8084 L487.2841,171.514 L485.7395,172.7297 L485.9006,172.9157 L483.0745,174.6659 L480.7187,176.9594 L478.4202,179.319 L475.788,181.2931 L473.3313,183.47 L473.3599,183.48 L472.4431,185.9606 L471.6566,188.4869 L470.8072,190.9911 L470.0778,193.5374 L468.9573,195.9466 L469.232,196.0629 L470.4439,198.9185 L471.4786,201.6991 L472.7727,204.5895 L474.0789,207.485 L475,210.2175 L474.8314,209.9449 L477.4468,211.8892 L479.5071,212.9358 L481.9894,214.6649 L484.0371,215.6912 L486.441,217.2935 L486.4302,217.2651 L488.5096,218.3373 L490.3382,218.7439 L492.3148,219.5433 L494.3038,220.3757 L496.2032,220.9701 L496.258,221.1468 L498.611,221.7164 L501.0578,222.5879 L503.3529,222.971 L505.8742,224.0826 L508.2451,224.7099 L508.3086,224.9451 L511.0988,225.6568 L513.9204,226.4853 L516.5956,226.7712 L519.3782,227.4548 L522.2558,228.4908 L522.1907,228.2224 L525.3834,229.2255 L528.5026,229.9261 L531.7283,231.0653 L534.7723,231.4556 L537.9243,232.2912 L537.8911,232.1424 L541.3494,233.1497 L544.6658,233.521 L548.0831,234.3446 L551.5992,235.6109 L554.9394,236.0889 L554.9791,236.2785 L558.6164,237.1631 L562.1305,237.4582 L565.799,238.4918 L569.4338,239.3644 L572.9903,239.8622" fill="none" style="stroke:#181818;stroke-width:1;"/><polygon fill="#181818" points="578.87,241.0575,578.9106,241.1146,577.1853,239.8024,575.6983,238.8249,574.1336,237.7384,572.3139,236.2936,570.8473,235.3447,570.8257,235.3304,571.3533,236.2096,571.9899,237.1608,572.7021,238.1622,573.1535,238.9909,573.9702,240.0614,574.0721,240.2153,572.9109,240.5108,572.0472,241.2556,571.2197,242.0553,570.1811,242.536,569.2535,243.1844,569.2584,243.2066,571.1745,242.7486,573.113,242.3917,575.0406,241.9861,576.9889,241.6735,578.87,241.0575" style="stroke:#181818;stroke-width:1;"/><text fill="#000000" font-family="Arial" font-size="13" lengthAdjust="spacing" textLength="78.0381" x="476" y="206.2844">&#1602;&#1585;&#1575;&#1569;&#1577; &#1605;&#1587;&#1578;&#1605;&#1585;&#1577;</text></g><!--link SensorOld to Controller--><g class="link" data-entity-1="ent0005" data-entity-2="ent0007" data-link-type="dependency" data-source-line="16" id="lnk10"><path d="M627.36,239.7775 L627.41,239.8564 L625.3811,238.4294 L623.6454,237.4648 L621.8142,236.3496 L619.6689,234.7393 L617.9584,233.8144 L617.937,233.7873 L616.0983,232.2907 L614.3675,230.9308 L612.7116,229.666 L610.7974,228.0736 L609.245,226.94 L609.4201,227.1129 L607.4965,225.1741 L606.0841,223.74 L604.7341,222.3675 L603.0211,220.6367 L601.4991,219.0944 L601.5235,219.1123 L600.1878,217.3106 L598.9635,215.5905 L597.6854,213.831 L596.5098,212.1466 L595,210.2175 L595.2692,210.3458 L594.3014,208.3103 L593.16,206.192 L592.2728,204.1948 L591.3975,202.2033 L590.1447,200.0319 L589.8314,199.964 L590.0054,198.0935 L589.1479,195.9994 L589.0746,194.0753 L588.1937,191.9761 L587.9747,190.0204 L587.9443,190.0204 L588.3057,187.9977 L587.9558,185.9746 L588.0257,183.9517 L588.1308,181.9289 L587.9816,179.9058 L588.1643,179.935 L588.315,177.8066 L588.7778,175.728 L588.7356,173.5688 L589.4467,171.5298 L589.6569,169.4109" fill="none" style="stroke:#181818;stroke-width:1;"/><polygon fill="#181818" points="590.93,163.5475,590.9865,163.5889,589.6549,165.0552,588.6546,166.7641,587.5464,168.394,586.0833,169.7641,585.1115,171.4939,585.0975,171.4721,585.9861,170.7623,586.9454,170.1623,587.9538,169.6386,588.7929,168.8519,589.8691,168.4337,590.0243,168.5335,590.3045,169.2715,591.0378,170.301,591.8264,171.3661,592.2933,172.2243,592.9293,173.1913,592.9516,173.1959,592.519,171.2604,592.1879,169.3459,591.8078,167.4212,591.521,165.5159,590.93,163.5475" style="stroke:#181818;stroke-width:1;"/><text fill="#000000" font-family="Arial" font-size="13" lengthAdjust="spacing" textLength="154.5908" x="596" y="206.2844">&#1573;&#1588;&#1575;&#1585;&#1577; &#1590;&#1594;&#1591; (&#1582;&#1575;&#1591;&#1574;&#1577;/&#1605;&#1578;&#1608;&#1602;&#1601;&#1577;)</text></g><!--link Controller to Pump--><!--link Controller to Pump--><g class="link" data-entity-1="ent0007" data-entity-2="ent0003" data-link-type="dependency" data-source-line="30" id="lnk18"><path d="M494.95,145.9175 L494.9564,146.0107 L487.1024,146.2727 L479.2859,147.081 L471.4572,147.7114 L463.5882,147.7567 L455.775,148.6119 L455.7722,148.5775 L451.6396,148.7485 L447.5207,149.0931 L443.4113,149.5584 L439.269,149.6079 L435.1728,150.2397 L435.1941,150.4849 L430.9468,150.3263 L426.7617,150.8834 L422.5842,151.5278 L418.3625,151.6642 L414.1641,152.0678 L414.167,152.098 L409.9201,152.4613 L405.6864,152.9621 L401.4464,153.3965 L397.2185,153.9575 L392.951,154.106 L392.9826,154.4026 L388.74,154.8578 L384.4771,155.1218 L380.2439,155.6658 L376.0122,156.2229 L371.7361,156.3642 L371.6984,156.0459 L367.5687,157.1613 L363.3149,157.2285 L359.1553,158.0926 L354.8987,158.1361 L350.7217,158.8522 L350.7177,158.822 L346.6426,159.7245 L342.4742,159.9219 L338.3608,160.5353 L334.2521,161.1836 L330.11,161.58 L330.1372,161.763 L326.1084,162.1738 L322.1262,162.8972 L318.0686,163.1148 L314.1234,164.0869 L310.1035,164.5574 L310.144,164.7976 L306.2965,165.3996 L302.4692,166.1208 L298.5484,166.2878 L294.6961,166.8611 L290.9045,167.7943 L290.8522,167.5231 L287.2617,168.4698 L283.6123,169.111 L280.0483,170.1954 L276.3385,170.523 L272.7154,171.3005 L272.6822,171.1517 L269.3421,172.1566 L265.8601,172.5254 L262.479,173.3466 L259.1966,174.6104 L255.7384,175.0859 L255.7875,175.2733 L252.7086,176.2166 L249.4773,176.5774 L246.437,177.6679 L243.355,178.5994 L240.1761,179.1605 L240.1133,178.9602 L237.3743,179.9945 L234.6147,180.9633 L231.8955,182.061 L229.0192,182.6575 L226.2307,183.534 L226.3047,183.7258 L223.7168,184.2409 L221.2718,185.1262 L219.0356,186.5523 L216.415,186.9827 L214.1045,188.2164 L214.2049,188.4191 L212.1243,189.2989 L210.0099,190.1101 L207.9721,191.0761 L206.1113,192.4 L204,193.2175 L203.9247,193.1078 L201.5896,195.1918 L198.7423,196.53 L196.4774,198.7162 L193.8846,200.4249 L191.2034,202.0049 L191.2785,202.0838 L189.1087,204.0289 L187.2079,206.2562 L185.0641,208.2286 L182.8188,210.0943 L180.6578,212.0486 L180.751,212.1229 L178.8605,214.2098 L177.4026,216.6418 L175.4553,218.6835 L173.7094,220.8858 L171.8973,223.0353 L171.6696,222.8894 L170.2573,225.2615 L169.1193,227.8093 L167.5931,230.1084 L165.9279,232.3184 L164.4557,234.6521" fill="none" style="stroke:#181818;stroke-width:1;"/><polygon fill="#181818" points="161.42,239.8275,161.4608,239.8844,162.9403,238.5674,164.659,237.5841,166.2999,236.4922,167.6844,235.0428,169.4238,234.0882,169.4172,234.0631,168.2931,234.2359,167.2019,234.5351,166.1336,234.9221,164.9864,235.0064,163.9497,235.5147,164.1283,235.5612,163.4611,234.3669,163.3153,233.3084,163.2332,232.2666,162.7809,231.1282,162.5232,230.0406,162.5458,230.0432,162.292,231.9968,162.1411,233.962,161.9405,235.9217,161.8346,237.892,161.42,239.8275" style="stroke:#181818;stroke-width:1;"/><text fill="#000000" font-family="Arial" font-size="13" lengthAdjust="spacing" textLength="222.9995" x="205" y="206.2844">&#1573;&#1593;&#1575;&#1583;&#1577; &#1575;&#1604;&#1578;&#1588;&#1594;&#1610;&#1604; (&#1576;&#1606;&#1575;&#1569;&#1611; &#1593;&#1604;&#1609; &#1575;&#1604;&#1581;&#1587;&#1575;&#1587; &#1575;&#1604;&#1580;&#1583;&#1610;&#1583;)</text></g><!--link Controller to OldDB--><g class="link" data-entity-1="ent0007" data-entity-2="ent0004" data-link-type="dependency" data-source-line="25" id="lnk15"><path d="M497.43,163.6975 L497.4756,163.7791 L495.23,164.7155 L493.2515,166.1299 L491.1861,167.3887 L488.8346,168.1356 L486.8791,169.5911 L486.8594,169.5627 L484.792,170.8027 L482.8236,172.1859 L480.9239,173.6688 L478.7871,174.8084 L476.9825,176.4287 L477.144,176.6144 L474.9926,177.7878 L473.3127,179.5032 L471.6903,181.2848 L469.7332,182.6816 L467.9522,184.2808 L467.9748,184.3009 L466.3511,186.0587 L464.8306,187.9082 L463.2603,189.7135 L461.7849,191.6032 L460,193.2175 L460.2635,193.3571 L459.0584,195.6398 L457.6832,197.8325 L456.5568,200.157 L455.4422,202.4876 L453.958,204.6225 L453.6385,204.5963 L454.0872,206.7391 L453.4839,208.7957 L453.6804,210.9179 L453.0533,212.9725 L453.1013,215.0825 L453.071,215.0789 L453.6971,217.377 L453.6168,219.5909 L453.9533,221.8545 L454.3248,224.1223 L454.4439,226.36 L454.6287,226.3674 L454.5534,229.1314 L454.7939,231.9081 L454.5234,234.6643 L455.0151,237.4511 L455,240.2175 L455.2416,240.2489 L454.8505,242.9023 L454.5794,245.5712 L453.751,248.1678 L453.3311,250.8174 L453.2731,253.5141 L453.002,253.4614 L452.8353,255.6318 L452.3631,257.7428 L452.334,259.9398 L451.5484,261.99 L451.2125,264.1275 L451.0601,264.125 L451.2806,266.1753 L450.8494,268.215 L450.8817,270.2623 L451.3674,272.317 L451.0456,274.3584 L451.2297,274.4184 L452.1469,276.8893 L452.4914,279.1738 L453.5531,281.6918 L454.4586,284.1589 L455,286.5075 L454.8164,286.4056 L456.3242,288.9402 L457.772,291.4414 L459.3378,294.0082 L460.4444,296.3201 L461.8075,298.7744 L461.9761,298.892 L463.1773,300.8868 L464.7039,303.1087 L466.7061,305.6621 L467.8328,307.605 L469.6658,310.0406 L469.8384,310.1868 L471.4857,312.1652 L473.0747,314.0941 L474.7954,316.1346 L476.8207,318.4333 L478.415,320.3668 L478.3211,320.2725 L480.4967,322.4425 L482.0337,323.9716 L484.2968,326.2293 L486.151,328.0768 L487.8951,329.8138 L487.966,329.8964 L489.919,331.5554 L492.1259,333.5102 L494.1034,335.1978 L495.985,336.7737 L497.9462,338.4424 L498.0178,338.5376 L500.0038,339.9703 L502.3224,341.8452 L504.2648,343.2199 L506.3619,344.8004 L508.4082,346.3132 L508.2577,346.0886 L510.4506,347.5984 L512.8246,349.3788 L514.9423,350.7763 L516.968,352.0366 L519.1212,353.4872 L519.0471,353.3647 L521.2316,354.7115 L523.2849,355.8414 L525.6991,357.5676 L527.9346,358.9987 L529.9253,360.0251" fill="none" style="stroke:#181818;stroke-width:1;"/><polygon fill="#181818" points="535.12,363.0275,535.1767,363.0687,533.8502,361.3529,532.8559,359.8786,531.7535,358.3257,530.2953,356.5142,529.3295,355.0607,529.3045,355.054,529.4845,356.1169,529.7906,357.2136,530.1845,358.3337,530.2761,359.373,530.7911,360.5255,530.8387,360.7037,529.6438,360.6148,528.5881,361.0464,527.5494,361.5415,526.4118,361.6671,525.3263,361.987,525.3287,362.0096,527.2839,362.1845,529.25,362.4624,531.2109,362.6906,533.1819,363.0135,535.12,363.0275" style="stroke:#181818;stroke-width:1;"/><text fill="#000000" font-family="Arial" font-size="13" lengthAdjust="spacing" textLength="105.7012" x="456" y="267.9244">&#1581;&#1601;&#1592; &#1576;&#1610;&#1575;&#1606;&#1575;&#1578; &#1575;&#1604;&#1573;&#1610;&#1602;&#1575;&#1601;</text></g><!--link Controller to SensorNew--><g class="link" data-entity-1="ent0007" data-entity-2="ent0006" data-link-type="dependency" data-source-line="27" id="lnk16"><path d="M672.14,163.6675 L672.1693,163.7562 L676.1501,164.8388 L680.3028,166.4414 L684.3995,167.8746 L688.312,168.7511 L692.4795,170.3983 L692.4683,170.3656 L696.617,171.6697 L700.8226,173.1384 L705.0677,174.7214 L709.1766,175.9102 L713.4762,177.6513 L713.5603,177.8825 L717.5893,178.9177 L721.8637,180.6281 L726.168,182.4208 L730.2981,183.7343 L734.5198,185.2998 L734.5308,185.3281 L738.6108,186.8701 L742.7405,188.5409 L746.8463,190.1496 L750.9978,191.8768 L755,193.2175 L755.129,193.4864 L758.7216,195.2129 L762.231,196.766 L765.8621,198.573 L769.499,200.3919 L772.955,201.8338 L772.8199,201.5431 L776.6911,203.784 L780.1175,205.0677 L783.882,207.0792 L787.2983,208.3412 L791,210.2175 L790.9896,210.1889 L795.4452,212.103 L799.6578,213.3485 L804.0137,214.9886 L808.3818,216.6617 L812.6629,218.096 L812.7218,218.2713 L816.9091,219.5212 L821.197,221.0707 L825.3221,222.1353 L829.6901,223.9231 L833.8965,225.2302 L833.9689,225.4628 L838.2061,226.7414 L842.4792,228.1355 L846.5853,228.9929 L850.8138,230.2437 L855.1508,231.8431 L855.0737,231.5779 L859.4884,233.0809 L863.8163,234.2851 L868.2702,235.9227 L872.5089,236.8203 L876.8756,238.1578" fill="none" style="stroke:#181818;stroke-width:1;"/><polygon fill="#181818" points="882.65,239.7875,882.6948,239.8414,881.0467,238.4224,879.6611,237.3194,878.19,236.1135,876.4379,234.5693,875.0748,233.4933,875.0522,233.4807,875.5034,234.4111,876.0685,235.4053,876.7129,236.4439,877.0842,237.3296,877.838,238.4294,877.9281,238.5905,876.7481,238.7987,875.8313,239.4772,874.9466,240.213,873.8751,240.615,872.9019,241.1926,872.9051,241.2151,874.85,240.901,876.8096,240.6895,878.7621,240.4284,880.7282,240.2618,882.65,239.7875" style="stroke:#181818;stroke-width:1;"/><text fill="#000000" font-family="Arial" font-size="13" lengthAdjust="spacing" textLength="69.7544" x="792" y="206.2844">&#1578;&#1608;&#1589;&#1610;&#1604;/&#1578;&#1601;&#1593;&#1610;&#1604;</text></g><!--link SensorNew to Controller--><g class="link" data-entity-1="ent0006" data-entity-2="ent0007" data-link-type="dependency" data-source-line="28" id="lnk17"><path d="M989.18,239.9075 L989.2614,239.9534 L990.3361,237.4838 L991.8877,235.2833 L993.284,232.9952 L994.1696,230.4189 L995.7622,228.2416 L995.7295,228.2303 L996.4311,225.7209 L997.2972,223.2684 L998.2777,220.8552 L998.864,218.3061 L1000.0025,215.9475 L1000.2485,215.9533 L999.7793,213.5436 L1000.0283,211.1508 L1000.3649,208.7601 L1000.1916,206.3573 L1000.2866,203.9609 L1000.3138,203.9743 L999.2165,201.806 L998.2431,199.6986 L997.21,197.5618 L996.2909,195.4811 L995,193.2175 L995.1519,193.4742 L992.4905,191.9018 L989.7313,190.1638 L987.1154,188.6681 L984.5062,187.1838 L981.6841,185.3396 L981.5806,185.0363 L979.6121,184.8847 L977.3027,183.7343 L975.2525,183.3433 L972.9354,182.1702 L970.8371,181.6381 L970.8292,181.6087 L968.2663,181.2481 L965.52,180.2001 L962.8819,179.5577 L960.2529,178.9494 L957.5584,178.0954 L957.598,178.2761 L954.4702,177.417 L951.41,176.8666 L948.2403,175.8167 L945.2339,175.5119 L942.119,174.7117 L942.1636,174.9512 L938.6893,174.2611 L935.2371,173.6898 L931.6821,172.5661 L928.2025,171.8473 L924.7896,171.4874 L924.7455,171.2148 L920.9958,170.8487 L917.1963,170.1754 L913.4689,169.9477 L909.6185,168.9592 L905.8412,168.4229 L905.8196,168.272 L901.7962,167.9425 L897.6805,166.9678 L893.6304,166.4519 L889.6446,166.3849 L885.5444,165.5185 L885.5691,165.7105 L881.3112,165.2935 L876.9766,164.279 L872.738,164.0128 L868.4785,163.5836 L864.1703,162.7745 L864.146,162.5659 L859.7292,162.2155 L855.3045,161.7968 L850.8954,161.5123 L846.4255,160.706 L841.9896,160.1913 L842.0114,160.3957 L837.4202,159.4621 L832.8711,158.9231 L828.3834,158.9605 L823.7826,157.9367 L819.2731,157.7691 L819.2952,157.9942 L814.6858,157.4084 L810.0689,156.7464 L805.4689,156.2562 L800.908,156.1635 L796.2917,155.5085 L796.2566,155.1109 L787.2263,155.4874 L777.9572,153.1601 L768.9597,153.9071 L759.8092,152.9231 L750.6176,151.4728 L750.626,151.5813 L741.9225,150.8165 L733.2492,150.4404 L724.5485,149.7132 L715.8365,148.8391 L707.1339,148.087" fill="none" style="stroke:#181818;stroke-width:1;"/><polygon fill="#181818" points="701.15,147.6475,701.1831,147.7093,702.8214,148.4554,704.6536,149.5637,706.4226,150.554,707.984,151.1566,709.8329,152.2959,709.8132,152.279,708.986,151.3466,708.2576,150.4995,707.5979,149.7118,706.7014,148.7196,706.1366,148.0137,706.2572,148.1534,706.8557,147.1154,707.8064,146.4853,708.8,145.9049,709.5437,145.035,710.4188,144.3174,710.4265,144.3388,708.5614,144.9734,706.7314,145.7055,704.8845,146.3905,703.0698,147.1652,701.15,147.6475" style="stroke:#181818;stroke-width:1;"/><text fill="#000000" font-family="Arial" font-size="13" lengthAdjust="spacing" textLength="111.7251" x="1001" y="206.2844">&#1573;&#1588;&#1575;&#1585;&#1577; &#1590;&#1594;&#1591; (&#1580;&#1583;&#1610;&#1583;&#1577;)</text></g><!--link Controller to SensorNew--><g class="link" data-entity-1="ent0007" data-entity-2="ent0006" data-link-type="dependency" data-source-line="32" id="lnk19"><path d="M701.24,151.5775 L701.2546,151.6698 L705.1244,152.0133 L709.0796,152.8978 L713.007,153.6061 L716.843,153.7352 L720.8055,154.6661 L720.7995,154.6321 L724.8379,155.2024 L728.9068,155.9441 L732.997,156.805 L737.0141,157.2552 L741.1334,158.2806 L741.1818,158.5219 L745.2496,158.8419 L749.4586,159.8664 L753.6849,160.9768 L757.8109,161.5871 L761.9896,162.4605 L761.9963,162.49 L766.2166,163.4035 L770.4673,164.4517 L774.7033,165.4348 L778.9674,166.542 L783.14,167.245 L783.2118,167.5345 L785.3351,168.0643 L787.4122,168.4074 L789.557,169.0238 L791.705,169.653 L793.7523,169.8763 L793.6705,169.5664 L795.9489,170.7274 L797.9579,170.8678 L800.1717,171.7841 L802.1746,171.9014 L804.3504,172.6736 L804.3421,172.6443 L806.5505,173.5845 L808.5663,173.84 L810.6957,174.4995 L812.8347,175.193 L814.9049,175.6417 L814.958,175.8189 L817.0007,176.2688 L819.1342,177.0216 L821.1208,177.2844 L823.3265,178.2779 L825.3866,178.7856 L825.4609,179.0177 L827.5228,179.6387 L829.6215,180.3749 L831.5489,180.5759 L833.6019,181.1693 L835.7662,182.1102 L835.6767,181.849 L837.8074,182.7875 L839.8372,183.4317 L842.0133,184.5029 L843.9397,184.845 L846.0145,185.6205 L845.962,185.4773 L848.067,186.4559 L849.9475,186.8225 L851.9876,187.6243 L854.184,188.8519 L856.1022,189.3213 L856.1731,189.5014 L858.2013,190.4043 L860.0089,190.7467 L862.0928,191.791 L864.1166,192.6824 L866,193.2175 L865.9056,193.03 L868.704,194.55 L871.4714,196.0086 L874.2996,197.5879 L876.8917,198.698 L879.6157,200.0702 L879.7226,200.2459 L882.8989,201.9359 L886.2816,203.9649 L889.9657,206.4892 L893.0949,208.1017 L896.6717,210.4498 L896.7953,210.6392 L898.587,211.744 L900.3368,212.7846 L902.181,213.9699 L904.2435,215.4896 L905.9972,216.5362 L905.9229,216.4258 L908.0629,218.0458 L909.6977,218.9151 L911.907,220.638 L913.7928,221.8803 L915.5915,222.9931 L915.6536,223.0825 L919.4448,225.6791 L923.4585,228.5959 L927.2712,231.2235 L930.9999,233.7301 L934.7984,236.3371" fill="none" style="stroke:#008000;stroke-width:1;"/><polygon fill="#008000" points="939.7,239.7975,939.7602,239.8334,938.5723,238.0351,937.7372,236.4472,936.7871,234.7907,935.4594,232.909,934.6546,231.3392,934.629,231.3348,934.7066,232.43,934.9129,233.5473,935.2086,234.6801,935.1961,235.7598,935.6153,236.9138,935.6467,237.0957,934.4647,236.8989,933.3743,237.2332,932.295,237.6322,931.1508,237.6543,930.0407,237.8746,930.0451,237.8969,931.9705,238.2488,933.916,238.7021,935.8518,239.1065,937.8063,239.6044,939.7,239.7975" style="stroke:#008000;stroke-width:1;"/><text fill="#000000" font-family="Arial" font-size="13" lengthAdjust="spacing" textLength="87.3311" x="895" y="206.2844">&#1605;&#1585;&#1575;&#1602;&#1576;&#1577; &#1608;&#1575;&#1587;&#1578;&#1602;&#1585;&#1575;&#1585;</text></g><!--link SensorNew to OldDB--><g class="link" data-entity-1="ent0006" data-entity-2="ent0004" data-link-type="dependency" data-source-line="34" id="lnk20"><path d="M898.1,286.9375 L898.1829,287.2052 L888.2266,289.4176 L878.7564,293.1993 L869.1279,296.4699 L858.9788,298.0601 L849.5196,301.8775 L839.6721,304.4411 L829.9791,307.5036 L820.3936,310.9131 L810.4377,313.1271 L801.219,317.7206 L791.042,319.2205 L781.5027,322.7792 L772.0411,326.589 L762.1269,328.9374 L752.4778,332.1414 L742.7283,335.0216 L733.1014,338.2974 L723.4154,341.3824 L713.8421,344.8316 L704.1659,347.9481 L694.4592,350.9663 L684.5817,353.4333 L674.9542,356.7073 L665.3384,360.019 L655.3514,362.1324" fill="none" style="stroke:#181818;stroke-width:1;"/><polygon fill="#181818" points="649.62,363.9075,649.6282,363.9771,651.5599,364.002,653.5398,364.4348,655.504,364.7348,657.4164,364.598,659.4005,365.0658,659.3884,365.0429,658.3334,364.4125,657.3392,363.8977,656.3873,363.4632,655.2896,362.7519,654.3962,362.4283,654.5594,362.5143,654.7378,361.3294,655.3929,360.3958,656.1061,359.4928,656.4809,358.4115,657.0337,357.4239,657.0487,357.4411,655.544,358.7126,654.1074,360.0622,652.638,361.3741,651.2313,362.7577,649.62,363.9075" style="stroke:#181818;stroke-width:1;"/><text fill="#000000" font-family="Arial" font-size="13" lengthAdjust="spacing" textLength="164.2646" x="800" y="329.5744">&#1578;&#1587;&#1580;&#1610;&#1604; &#1576;&#1610;&#1575;&#1606;&#1575;&#1578; &#1575;&#1604;&#1578;&#1588;&#1594;&#1610;&#1604; &#1575;&#1604;&#1580;&#1583;&#1610;&#1583;&#1577;</text></g><?plantuml-src ZLHDRzf05BplhrZH2nmYxZbKQbFrL2MHUgnwSECDM35hP1RbKEKG0YYblo9I2M3XK2jj2FabR_zDPzV6NYLK2XBWZ_VcpSmRMmKg59mIcjDAJ_IGKqhtDADxJW_qH6jECptK8vpSuMh2wvJfQnpTqYQ_TOKB4xGavgp1MEyia5qlzZgyxKd_F0wK4fAhk2-SMxuuzVgX-XX9TUXr17yN1rx8M2nEb2TR85JJOte4uiYTlwZnxupZSn9rkf4KKl6QUzlMKaQtXX2-gFTw_BZVwTektrFUDwy7SD1T6gcct54vi1QCRDTHw7zu_s9OwStkJhYJqzdG6YxD6nRgiv2zA0RWQ-5eQU1ebSEX8gK4vpE0Jbp8Gt7-719JKrfjhKWerLU6rl6dWsP1hRYMunnW0N4KXY9c5up9o3VcRFG8bPCAf8Z6rlsgYU_jlQtayNqE8pBml44lHY4K-CreOTkgEjFbWEnpcj8Vj6LcP6v3tSPjZPWjceQqljO3VKaB1EmvXI_jmFU5_0fGise3bm3koL1kqXH_0-YuD8H-uJ394MIa18-3LblnwDJrWHSVOrIn1cj32ZvBesleUbAMrp5fJB-DYlB9kREQbdb4nb0pquE6xH3IjmpOBaDjz8oC58eVEStDxj5l7ZzBfTJ4_hyFPCCwWK3ypPr8WBOfELTLhzf6aSYT2t2CdoBvCpT_nHw0CBSARlHF3XP3_MFhglC454DsxVXDAnRvZbrvDbqm5Tl0OinhoKGkps36TkWihKtiAy2-xrxOMx5sMI75xE8V?></g></svg>