<?plantuml 1.2026.2beta3?><svg xmlns="http://www.w3.org/2000/svg" xmlns:xlink="http://www.w3.org/1999/xlink" contentStyleType="text/css" data-diagram-type="ACTIVITY" height="680px" preserveAspectRatio="none" style="width:443px;height:680px;background:#FFFFFF;" version="1.1" viewBox="0 0 443 680" width="443px" zoomAndPan="magnify"><title>&#1593;&#1605;&#1604;&#1610;&#1577; &#1578;&#1589;&#1604;&#1610;&#1581; &#1605;&#1590;&#1582;&#1575;&#1578; &#1575;&#1604;&#1605;&#1610;&#1575;&#1607; - &#1588;&#1605;&#1575;&#1604; &#1575;&#1604;&#1585;&#1610;&#1575;&#1590;</title><defs/><g><g class="title" data-source-line="5"><text fill="#000000" font-family="'Arial'" font-size="14" font-weight="bold" lengthAdjust="spacing" textLength="293.7197" x="73.6392" y="32.9951">&#1593;&#1605;&#1604;&#1610;&#1577; &#1578;&#1589;&#1604;&#1610;&#1581; &#1605;&#1590;&#1582;&#1575;&#1578; &#1575;&#1604;&#1605;&#1610;&#1575;&#1607; - &#1588;&#1605;&#1575;&#1604; &#1575;&#1604;&#1585;&#1610;&#1575;&#1590;</text></g><ellipse cx="225.4077" cy="57.2969" fill="#222222" rx="10" ry="10" style="stroke:#222222;stroke-width:1;"/><rect fill="#F1F1F1" height="33.9688" rx="12.5" ry="12.5" style="stroke:#181818;stroke-width:0.5;" width="182.0762" x="134.3696" y="87.2969"/><text fill="#000000" font-family="'Arial'" font-size="12" lengthAdjust="spacing" textLength="162.0762" x="144.3696" y="108.4355">&#1575;&#1587;&#1578;&#1602;&#1576;&#1575;&#1604; &#1591;&#1604;&#1576; &#1575;&#1604;&#1589;&#1610;&#1575;&#1606;&#1577; &#1605;&#1606; &#1575;&#1604;&#1593;&#1605;&#1610;&#1604;</text><rect fill="#F1F1F1" height="33.9688" rx="12.5" ry="12.5" style="stroke:#181818;stroke-width:0.5;" width="286.502" x="82.1567" y="141.2656"/><text fill="#000000" font-family="'Arial'" font-size="12" lengthAdjust="spacing" textLength="266.502" x="92.1567" y="162.4043">&#1573;&#1585;&#1587;&#1575;&#1604; &#1575;&#1604;&#1601;&#1606;&#1610; &#1575;&#1604;&#1605;&#1582;&#1578;&#1589; &#1604;&#1605;&#1608;&#1602;&#1593; &#1575;&#1604;&#1593;&#1605;&#1610;&#1604; &#1601;&#1610; &#1588;&#1605;&#1575;&#1604; &#1575;&#1604;&#1585;&#1610;&#1575;&#1590;</text><rect fill="#F1F1F1" height="33.9688" rx="12.5" ry="12.5" style="stroke:#181818;stroke-width:0.5;" width="175.7598" x="137.5278" y="195.2344"/><text fill="#000000" font-family="'Arial'" font-size="12" lengthAdjust="spacing" textLength="155.7598" x="147.5278" y="216.373">&#1601;&#1581;&#1589; &#1575;&#1604;&#1605;&#1590;&#1582;&#1577; &#1608;&#1578;&#1588;&#1582;&#1610;&#1589; &#1575;&#1604;&#1593;&#1591;&#1604;</text><polygon fill="#F1F1F1" points="198.5522,249.2031,252.2632,249.2031,264.2632,261.2031,252.2632,273.2031,198.5522,273.2031,186.5522,261.2031,198.5522,249.2031" style="stroke:#181818;stroke-width:0.5;"/><text fill="#000000" font-family="'Arial'" font-size="11" lengthAdjust="spacing" textLength="53.7109" x="198.5522" y="265.0112">&#1606;&#1608;&#1593; &#1575;&#1604;&#1593;&#1591;&#1604;&#1567;</text><text fill="#000000" font-family="'Arial'" font-size="11" lengthAdjust="spacing" textLength="40.2617" x="146.2905" y="258.6089">&#1605;&#1610;&#1603;&#1575;&#1606;&#1610;&#1603;&#1610;</text><text fill="#000000" font-family="'Arial'" font-size="11" lengthAdjust="spacing" textLength="35.0195" x="264.2632" y="258.6089">&#1603;&#1607;&#1585;&#1576;&#1575;&#1574;&#1610;</text><rect fill="#F1F1F1" height="33.9688" rx="12.5" ry="12.5" style="stroke:#181818;stroke-width:0.5;" width="207.8164" x="11" y="283.2031"/><text fill="#000000" font-family="'Arial'" font-size="12" lengthAdjust="spacing" textLength="187.8164" x="21" y="304.3418">&#1573;&#1589;&#1604;&#1575;&#1581; &#1575;&#1604;&#1578;&#1585;&#1608;&#1587; &#1571;&#1608; &#1575;&#1587;&#1578;&#1576;&#1583;&#1575;&#1604; "&#1575;&#1604;&#1587;&#1583;&#1575;&#1583;&#1575;&#1578;"</text><rect fill="#F1F1F1" height="33.9688" rx="12.5" ry="12.5" style="stroke:#181818;stroke-width:0.5;" width="194.1816" x="238.8164" y="283.2031"/><text fill="#000000" font-family="'Arial'" font-size="12" lengthAdjust="spacing" textLength="174.1816" x="248.8164" y="304.3418">&#1601;&#1581;&#1589; &#1575;&#1604;&#1571;&#1587;&#1604;&#1575;&#1603; &#1571;&#1608; &#1573;&#1593;&#1575;&#1583;&#1577; &#1604;&#1601; &#1575;&#1604;&#1605;&#1581;&#1585;&#1603;</text><polygon fill="#F1F1F1" points="225.4077,323.1719,237.4077,335.1719,225.4077,347.1719,213.4077,335.1719,225.4077,323.1719" style="stroke:#181818;stroke-width:0.5;"/><polygon fill="#F1F1F1" points="178.8376,367.1719,271.9778,367.1719,283.9778,379.1719,271.9778,391.1719,178.8376,391.1719,166.8376,379.1719,178.8376,367.1719" style="stroke:#181818;stroke-width:0.5;"/><text fill="#000000" font-family="'Arial'" font-size="11" lengthAdjust="spacing" textLength="93.1401" x="178.8376" y="382.98">&#1607;&#1604; &#1578;&#1608;&#1580;&#1583; &#1602;&#1591;&#1593; &#1578;&#1575;&#1604;&#1601;&#1577;&#1567;</text><text fill="#000000" font-family="'Arial'" font-size="11" lengthAdjust="spacing" textLength="15.689" x="151.1487" y="376.5776">&#1606;&#1593;&#1605;</text><text fill="#000000" font-family="'Arial'" font-size="11" lengthAdjust="spacing" textLength="6.2734" x="283.9778" y="376.5776">&#1604;&#1575;</text><rect fill="#F1F1F1" height="33.9688" rx="12.5" ry="12.5" style="stroke:#181818;stroke-width:0.5;" width="162.7754" x="45.9395" y="401.1719"/><text fill="#000000" font-family="'Arial'" font-size="12" lengthAdjust="spacing" textLength="142.7754" x="55.9395" y="422.3105">&#1578;&#1576;&#1583;&#1610;&#1604; &#1575;&#1604;&#1602;&#1591;&#1593; &#1576;&#1602;&#1591;&#1593; &#1594;&#1610;&#1575;&#1585; &#1571;&#1589;&#1604;&#1610;&#1577;</text><rect fill="#F1F1F1" height="33.9688" rx="12.5" ry="12.5" style="stroke:#181818;stroke-width:0.5;" width="189.5469" x="228.7148" y="401.1719"/><text fill="#000000" font-family="'Arial'" font-size="12" lengthAdjust="spacing" textLength="169.5469" x="238.7148" y="422.3105">&#1578;&#1606;&#1592;&#1610;&#1601; &#1575;&#1604;&#1605;&#1590;&#1582;&#1577; &#1608;&#1593;&#1605;&#1604; &#1589;&#1610;&#1575;&#1606;&#1577; &#1583;&#1608;&#1585;&#1610;&#1577;</text><polygon fill="#F1F1F1" points="225.4077,441.1406,237.4077,453.1406,225.4077,465.1406,213.4077,453.1406,225.4077,441.1406" style="stroke:#181818;stroke-width:0.5;"/><rect fill="#F1F1F1" height="33.9688" rx="12.5" ry="12.5" style="stroke:#181818;stroke-width:0.5;" width="258.0781" x="96.3687" y="485.1406"/><text fill="#000000" font-family="'Arial'" font-size="12" lengthAdjust="spacing" textLength="238.0781" x="106.3687" y="506.2793">&#1575;&#1582;&#1578;&#1576;&#1575;&#1585; &#1590;&#1594;&#1591; &#1575;&#1604;&#1605;&#1610;&#1575;&#1607; &#1608;&#1575;&#1604;&#1578;&#1571;&#1603;&#1583; &#1605;&#1606; &#1593;&#1583;&#1605; &#1608;&#1580;&#1608;&#1583; &#1578;&#1587;&#1585;&#1610;&#1576;</text><rect fill="#F1F1F1" height="33.9688" rx="12.5" ry="12.5" style="stroke:#181818;stroke-width:0.5;" width="194.334" x="128.2407" y="539.1094"/><text fill="#000000" font-family="'Arial'" font-size="12" lengthAdjust="spacing" textLength="174.334" x="138.2407" y="560.248">&#1578;&#1588;&#1594;&#1610;&#1604; &#1575;&#1604;&#1606;&#1592;&#1575;&#1605; &#1575;&#1604;&#1571;&#1608;&#1578;&#1608;&#1605;&#1575;&#1578;&#1610;&#1603;&#1610; &#1604;&#1604;&#1605;&#1590;&#1582;&#1577;</text><rect fill="#F1F1F1" height="33.9688" rx="12.5" ry="12.5" style="stroke:#181818;stroke-width:0.5;" width="190.6074" x="130.104" y="593.0781"/><text fill="#000000" font-family="'Arial'" font-size="12" lengthAdjust="spacing" textLength="170.6074" x="140.104" y="614.2168">&#1578;&#1587;&#1604;&#1610;&#1605; &#1575;&#1604;&#1593;&#1605;&#1610;&#1604; &#1608;&#1578;&#1602;&#1583;&#1610;&#1605; &#1588;&#1607;&#1575;&#1583;&#1577; &#1590;&#1605;&#1575;&#1606;</text><ellipse cx="225.4077" cy="658.0469" fill="none" rx="11" ry="11" style="stroke:#222222;stroke-width:1;"/><ellipse cx="225.4077" cy="658.0469" fill="#222222" rx="6" ry="6" style="stroke:#222222;stroke-width:1;"/><line style="stroke:#181818;stroke-width:1;" x1="225.4077" x2="225.4077" y1="67.2969" y2="87.2969"/><polygon fill="#181818" points="221.4077,77.2969,225.4077,87.2969,229.4077,77.2969,225.4077,81.2969" style="stroke:#181818;stroke-width:1;"/><line style="stroke:#181818;stroke-width:1;" x1="225.4077" x2="225.4077" y1="121.2656" y2="141.2656"/><polygon fill="#181818" points="221.4077,131.2656,225.4077,141.2656,229.4077,131.2656,225.4077,135.2656" style="stroke:#181818;stroke-width:1;"/><line style="stroke:#181818;stroke-width:1;" x1="225.4077" x2="225.4077" y1="175.2344" y2="195.2344"/><polygon fill="#181818" points="221.4077,185.2344,225.4077,195.2344,229.4077,185.2344,225.4077,189.2344" style="stroke:#181818;stroke-width:1;"/><line style="stroke:#181818;stroke-width:1;" x1="186.5522" x2="114.9082" y1="261.2031" y2="261.2031"/><line style="stroke:#181818;stroke-width:1;" x1="114.9082" x2="114.9082" y1="261.2031" y2="283.2031"/><polygon fill="#181818" points="110.9082,273.2031,114.9082,283.2031,118.9082,273.2031,114.9082,277.2031" style="stroke:#181818;stroke-width:1;"/><line style="stroke:#181818;stroke-width:1;" x1="264.2632" x2="335.9072" y1="261.2031" y2="261.2031"/><line style="stroke:#181818;stroke-width:1;" x1="335.9072" x2="335.9072" y1="261.2031" y2="283.2031"/><polygon fill="#181818" points="331.9072,273.2031,335.9072,283.2031,339.9072,273.2031,335.9072,277.2031" style="stroke:#181818;stroke-width:1;"/><line style="stroke:#181818;stroke-width:1;" x1="114.9082" x2="114.9082" y1="317.1719" y2="335.1719"/><line style="stroke:#181818;stroke-width:1;" x1="114.9082" x2="213.4077" y1="335.1719" y2="335.1719"/><polygon fill="#181818" points="203.4077,331.1719,213.4077,335.1719,203.4077,339.1719,207.4077,335.1719" style="stroke:#181818;stroke-width:1;"/><line style="stroke:#181818;stroke-width:1;" x1="335.9072" x2="335.9072" y1="317.1719" y2="335.1719"/><line style="stroke:#181818;stroke-width:1;" x1="335.9072" x2="237.4077" y1="335.1719" y2="335.1719"/><polygon fill="#181818" points="247.4077,331.1719,237.4077,335.1719,247.4077,339.1719,243.4077,335.1719" style="stroke:#181818;stroke-width:1;"/><line style="stroke:#181818;stroke-width:1;" x1="225.4077" x2="225.4077" y1="229.2031" y2="249.2031"/><polygon fill="#181818" points="221.4077,239.2031,225.4077,249.2031,229.4077,239.2031,225.4077,243.2031" style="stroke:#181818;stroke-width:1;"/><line style="stroke:#181818;stroke-width:1;" x1="166.8376" x2="127.3271" y1="379.1719" y2="379.1719"/><line style="stroke:#181818;stroke-width:1;" x1="127.3271" x2="127.3271" y1="379.1719" y2="401.1719"/><polygon fill="#181818" points="123.3271,391.1719,127.3271,401.1719,131.3271,391.1719,127.3271,395.1719" style="stroke:#181818;stroke-width:1;"/><line style="stroke:#181818;stroke-width:1;" x1="283.9778" x2="323.4883" y1="379.1719" y2="379.1719"/><line style="stroke:#181818;stroke-width:1;" x1="323.4883" x2="323.4883" y1="379.1719" y2="401.1719"/><polygon fill="#181818" points="319.4883,391.1719,323.4883,401.1719,327.4883,391.1719,323.4883,395.1719" style="stroke:#181818;stroke-width:1;"/><line style="stroke:#181818;stroke-width:1;" x1="127.3271" x2="127.3271" y1="435.1406" y2="453.1406"/><line style="stroke:#181818;stroke-width:1;" x1="127.3271" x2="213.4077" y1="453.1406" y2="453.1406"/><polygon fill="#181818" points="203.4077,449.1406,213.4077,453.1406,203.4077,457.1406,207.4077,453.1406" style="stroke:#181818;stroke-width:1;"/><line style="stroke:#181818;stroke-width:1;" x1="323.4883" x2="323.4883" y1="435.1406" y2="453.1406"/><line style="stroke:#181818;stroke-width:1;" x1="323.4883" x2="237.4077" y1="453.1406" y2="453.1406"/><polygon fill="#181818" points="247.4077,449.1406,237.4077,453.1406,247.4077,457.1406,243.4077,453.1406" style="stroke:#181818;stroke-width:1;"/><line style="stroke:#181818;stroke-width:1;" x1="225.4077" x2="225.4077" y1="347.1719" y2="367.1719"/><polygon fill="#181818" points="221.4077,357.1719,225.4077,367.1719,229.4077,357.1719,225.4077,361.1719" style="stroke:#181818;stroke-width:1;"/><line style="stroke:#181818;stroke-width:1;" x1="225.4077" x2="225.4077" y1="465.1406" y2="485.1406"/><polygon fill="#181818" points="221.4077,475.1406,225.4077,485.1406,229.4077,475.1406,225.4077,479.1406" style="stroke:#181818;stroke-width:1;"/><line style="stroke:#181818;stroke-width:1;" x1="225.4077" x2="225.4077" y1="519.1094" y2="539.1094"/><polygon fill="#181818" points="221.4077,529.1094,225.4077,539.1094,229.4077,529.1094,225.4077,533.1094" style="stroke:#181818;stroke-width:1;"/><line style="stroke:#181818;stroke-width:1;" x1="225.4077" x2="225.4077" y1="573.0781" y2="593.0781"/><polygon fill="#181818" points="221.4077,583.0781,225.4077,593.0781,229.4077,583.0781,225.4077,587.0781" style="stroke:#181818;stroke-width:1;"/><line style="stroke:#181818;stroke-width:1;" x1="225.4077" x2="225.4077" y1="627.0469" y2="647.0469"/><polygon fill="#181818" points="221.4077,637.0469,225.4077,647.0469,229.4077,637.0469,225.4077,641.0469" style="stroke:#181818;stroke-width:1;"/><?plantuml-src RLCxRjj04Ett50DLSP4BH9MRb6bo0iQc7C8KAKYR8gKYao9uYHI28v6mH0ZK9z99Pc-JDxihMaPSB4ZEphptvirmyXWbes0S3Ea-6eTtEaeJqka8XxwbMgT3DNdD20V1ZrX_JXFz9HY6rBiTHq7SkyeO1NUFmKFuLV-CGnAu87c8GwLqf17WaydCaocv8gvvRr_NP38-y8QNN1Cl4SiGNPevVIJUuGuX6-UjnFcWr4G7Owq-uQFbslpYbSiv8cVbKlSM8WSFq78N4-xIFFLH-CnRb5w0pTJaflJS409bP6KKm3wzAIRabk_B0gwPyXgr7aXw0dy1l1rlaBJtK2AqhrGqe0yWBZeAsy3l6zBVmmHNGZYJBkHfoXj59ChX6kZMhgO6Uy4jyS8KvFo06uqLrxCPhNpPK_VwAemd8Q1dPWu7O1l_yS1Nqdd1hN2OcOTzXZI1gCILwQMzDQXdG4pkeu5lPYwMr13qmWt1kwEqLZkBkRfgBHS_NKDMhxNMvlcYrUNbRCtTGebVbwfh0X8z1F3-0cBwd_DstUXg6q1Ls85LdN9PeusLONaEVERZspr4YVDwWNaqVgDEWChawWMdaJPR2xoI_PA9dr-RWZmyC--kR0HMAvEHkD6AhvrkLzzAivUIRlaAk-wDkzbXY6uiVB3xcFVbrqX7_m00?></g></svg>