<?plantuml 1.2026.2beta3?><svg xmlns="http://www.w3.org/2000/svg" xmlns:xlink="http://www.w3.org/1999/xlink" contentStyleType="text/css" data-diagram-type="DESCRIPTION" height="413px" preserveAspectRatio="none" style="width:1501px;height:413px;background:#FFFFFF;" version="1.1" viewBox="0 0 1501 413" width="1501px" zoomAndPan="magnify"><title>&#1605;&#1603;&#1608;&#1606;&#1575;&#1578; &#1604;&#1608;&#1581;&#1577; &#1578;&#1581;&#1603;&#1605; &#1588;&#1606;&#1575;&#1610;&#1583;&#1585; &#1575;&#1604;&#1571;&#1589;&#1604;&#1610;&#1577;</title><defs/><g><g class="title" data-source-line="1"><text fill="#000000" font-family="sans-serif" font-size="14" font-weight="bold" lengthAdjust="spacing" textLength="231.6494" x="627.6753" y="22.9951">&#1605;&#1603;&#1608;&#1606;&#1575;&#1578; &#1604;&#1608;&#1581;&#1577; &#1578;&#1581;&#1603;&#1605; &#1588;&#1606;&#1575;&#1610;&#1583;&#1585; &#1575;&#1604;&#1571;&#1589;&#1604;&#1610;&#1577;</text></g><!--cluster Panel--><g class="cluster" data-qualified-name="Panel" data-source-line="12" id="ent0002"><path d="M8.5,43.2969 L237.5127,43.2969 A3.75,3.75 0 0 1 240.0127,45.7969 L247.0127,65.5938 L1491.5,65.5938 A2.5,2.5 0 0 1 1494,68.0938 L1494,403.6869 A2.5,2.5 0 0 1 1491.5,406.1869 L8.5,406.1869 A2.5,2.5 0 0 1 6,403.6869 L6,45.7969 A2.5,2.5 0 0 1 8.5,43.2969" fill="#E6F0FF" style="stroke:#003366;stroke-width:1.5;"/><line style="stroke:#003366;stroke-width:1.5;" x1="6" x2="247.0127" y1="65.5938" y2="65.5938"/><text fill="#000000" font-family="sans-serif" font-size="14" font-weight="bold" lengthAdjust="spacing" textLength="228.0127" x="10" y="58.292">&#1604;&#1608;&#1581;&#1577; &#1575;&#1604;&#1578;&#1581;&#1603;&#1605; (Schneider Panel)</text></g><!--entity Input--><g class="entity" data-qualified-name="Panel.Input" data-source-line="14" id="ent0003"><rect fill="#FFFFFF" height="46.2969" rx="2.5" ry="2.5" style="stroke:#006699;stroke-width:0.5;" width="179.4258" x="567.29" y="97.2969"/><rect fill="#FFFFFF" height="10" style="stroke:#006699;stroke-width:0.5;" width="15" x="726.7158" y="102.2969"/><rect fill="#FFFFFF" height="2" style="stroke:#006699;stroke-width:0.5;" width="4" x="724.7158" y="104.2969"/><rect fill="#FFFFFF" height="2" style="stroke:#006699;stroke-width:0.5;" width="4" x="724.7158" y="108.2969"/><text fill="#000000" font-family="sans-serif" font-size="14" lengthAdjust="spacing" textLength="139.4258" x="582.29" y="130.292">1. &#1605;&#1583;&#1582;&#1604; &#1608;&#1605;&#1589;&#1583;&#1585; &#1575;&#1604;&#1591;&#1575;&#1602;&#1577;</text></g><!--entity Breaker--><g class="entity" data-qualified-name="Panel.Breaker" data-source-line="16" id="ent0004"><rect fill="#FFCCAA" height="46.2969" rx="2.5" ry="2.5" style="stroke:#006699;stroke-width:0.5;" width="239.377" x="537.31" y="220.5969"/><rect fill="#FFCCAA" height="10" style="stroke:#006699;stroke-width:0.5;" width="15" x="756.687" y="225.5969"/><rect fill="#FFCCAA" height="2" style="stroke:#006699;stroke-width:0.5;" width="4" x="754.687" y="227.5969"/><rect fill="#FFCCAA" height="2" style="stroke:#006699;stroke-width:0.5;" width="4" x="754.687" y="231.5969"/><text fill="#000000" font-family="sans-serif" font-size="14" lengthAdjust="spacing" textLength="199.377" x="552.31" y="253.592">2. &#1602;&#1575;&#1591;&#1593; &#1575;&#1604;&#1583;&#1575;&#1574;&#1585;&#1577; &#1575;&#1604;&#1585;&#1574;&#1610;&#1587;&#1610; (MCCB)</text></g><!--entity Busbar--><g class="entity" data-qualified-name="Panel.Busbar" data-source-line="18" id="ent0005"><rect fill="#FFFFFF" height="46.2969" rx="2.5" ry="2.5" style="stroke:#006699;stroke-width:0.5;" width="277.4805" x="864.26" y="220.5969"/><rect fill="#FFFFFF" height="10" style="stroke:#006699;stroke-width:0.5;" width="15" x="1121.7405" y="225.5969"/><rect fill="#FFFFFF" height="2" style="stroke:#006699;stroke-width:0.5;" width="4" x="1119.7405" y="227.5969"/><rect fill="#FFFFFF" height="2" style="stroke:#006699;stroke-width:0.5;" width="4" x="1119.7405" y="231.5969"/><text fill="#000000" font-family="sans-serif" font-size="14" lengthAdjust="spacing" textLength="237.4805" x="879.26" y="253.592">3. &#1606;&#1592;&#1575;&#1605; &#1578;&#1608;&#1586;&#1610;&#1593; &#1575;&#1604;&#1591;&#1575;&#1602;&#1577; (&#1575;&#1604;&#1602;&#1590;&#1576;&#1575;&#1606; &#1575;&#1604;&#1606;&#1581;&#1575;&#1587;&#1610;&#1577;)</text></g><!--entity PLC--><g class="entity" data-qualified-name="Panel.PLC" data-source-line="20" id="ent0006"><rect fill="#CCFFCC" height="46.2969" rx="2.5" ry="2.5" style="stroke:#006699;stroke-width:0.5;" width="301.3242" x="1176.34" y="220.5969"/><rect fill="#CCFFCC" height="10" style="stroke:#006699;stroke-width:0.5;" width="15" x="1457.6642" y="225.5969"/><rect fill="#CCFFCC" height="2" style="stroke:#006699;stroke-width:0.5;" width="4" x="1455.6642" y="227.5969"/><rect fill="#CCFFCC" height="2" style="stroke:#006699;stroke-width:0.5;" width="4" x="1455.6642" y="231.5969"/><text fill="#000000" font-family="sans-serif" font-size="14" lengthAdjust="spacing" textLength="261.3242" x="1191.34" y="253.592">4. &#1608;&#1581;&#1583;&#1577; &#1575;&#1604;&#1578;&#1581;&#1603;&#1605; &#1575;&#1604;&#1605;&#1606;&#1591;&#1602;&#1610;&#1577; (PLC/Controller)</text></g><!--entity Contactors--><g class="entity" data-qualified-name="Panel.Contactors" data-source-line="22" id="ent0007"><rect fill="#FFFFFF" height="46.2969" rx="2.5" ry="2.5" style="stroke:#006699;stroke-width:0.5;" width="283.8857" x="1191.06" y="343.8869"/><rect fill="#FFFFFF" height="10" style="stroke:#006699;stroke-width:0.5;" width="15" x="1454.9457" y="348.8869"/><rect fill="#FFFFFF" height="2" style="stroke:#006699;stroke-width:0.5;" width="4" x="1452.9457" y="350.8869"/><rect fill="#FFFFFF" height="2" style="stroke:#006699;stroke-width:0.5;" width="4" x="1452.9457" y="354.8869"/><text fill="#000000" font-family="sans-serif" font-size="14" lengthAdjust="spacing" textLength="243.8857" x="1206.06" y="376.882">5. &#1571;&#1580;&#1607;&#1586;&#1577; &#1575;&#1604;&#1578;&#1576;&#1583;&#1610;&#1604; &#1608;&#1575;&#1604;&#1578;&#1588;&#1594;&#1610;&#1604; (Contactors)</text></g><!--entity Protection--><g class="entity" data-qualified-name="Panel.Protection" data-source-line="24" id="ent0008"><rect fill="#FFFFFF" height="46.2969" rx="2.5" ry="2.5" style="stroke:#006699;stroke-width:0.5;" width="324.8398" x="760.58" y="343.8869"/><rect fill="#FFFFFF" height="10" style="stroke:#006699;stroke-width:0.5;" width="15" x="1065.4198" y="348.8869"/><rect fill="#FFFFFF" height="2" style="stroke:#006699;stroke-width:0.5;" width="4" x="1063.4198" y="350.8869"/><rect fill="#FFFFFF" height="2" style="stroke:#006699;stroke-width:0.5;" width="4" x="1063.4198" y="354.8869"/><text fill="#000000" font-family="sans-serif" font-size="14" lengthAdjust="spacing" textLength="284.8398" x="775.58" y="376.882">6. &#1571;&#1580;&#1607;&#1586;&#1577; &#1575;&#1604;&#1581;&#1605;&#1575;&#1610;&#1577; &#1608;&#1575;&#1604;&#1605;&#1585;&#1575;&#1602;&#1576;&#1577; (Relays/Overload)</text></g><!--entity HMI--><g class="entity" data-qualified-name="Panel.HMI" data-source-line="26" id="ent0009"><rect fill="#FFFFFF" height="46.2969" rx="2.5" ry="2.5" style="stroke:#006699;stroke-width:0.5;" width="224.4473" x="21.78" y="220.5969"/><rect fill="#FFFFFF" height="10" style="stroke:#006699;stroke-width:0.5;" width="15" x="226.2273" y="225.5969"/><rect fill="#FFFFFF" height="2" style="stroke:#006699;stroke-width:0.5;" width="4" x="224.2273" y="227.5969"/><rect fill="#FFFFFF" height="2" style="stroke:#006699;stroke-width:0.5;" width="4" x="224.2273" y="231.5969"/><text fill="#000000" font-family="sans-serif" font-size="14" lengthAdjust="spacing" textLength="184.4473" x="36.78" y="253.592">7. &#1608;&#1575;&#1580;&#1607;&#1577; &#1575;&#1604;&#1605;&#1588;&#1594;&#1604; (HMI/&#1605;&#1601;&#1575;&#1578;&#1610;&#1581;)</text></g><g class="entity" data-qualified-name="Panel.GMN19" data-source-line="46" id="ent0020"><path d="M281.55,231.1769 L281.55,239.7369 L246.62,243.7369 L281.55,247.7369 L281.55,256.3097 A0,0 0 0 0 281.55,256.3097 L502.4504,256.3097 A0,0 0 0 0 502.4504,256.3097 L502.4504,241.1769 L492.4504,231.1769 L281.55,231.1769 A0,0 0 0 0 281.55,231.1769" fill="#FEFFDD" style="stroke:#181818;stroke-width:0.5;"/><path d="M492.4504,231.1769 L492.4504,241.1769 L502.4504,241.1769 L492.4504,231.1769" fill="#FEFFDD" style="stroke:#181818;stroke-width:0.5;"/><text fill="#000000" font-family="sans-serif" font-size="13" lengthAdjust="spacing" textLength="199.9004" x="287.55" y="248.2438">&#1578;&#1588;&#1605;&#1604;: &#1605;&#1601;&#1575;&#1578;&#1610;&#1581;&#1548; &#1571;&#1590;&#1608;&#1575;&#1569; &#1573;&#1588;&#1575;&#1585;&#1577;&#1548; &#1588;&#1575;&#1588;&#1575;&#1578;</text></g><!--link Input to Breaker--><g class="link" data-entity-1="ent0003" data-entity-2="ent0004" data-link-type="dependency" data-source-line="30" id="lnk10"><path d="M657,143.9769 C657,165.7669 657,192.5869 657,214.3269" fill="none" id="Input-to-Breaker" style="stroke:#181818;stroke-width:1;"/><polygon fill="#181818" points="657,220.3269,661,211.3269,657,215.3269,653,211.3269,657,220.3269" style="stroke:#181818;stroke-width:1;"/><text fill="#000000" font-family="sans-serif" font-size="13" lengthAdjust="spacing" textLength="72.8774" x="658" y="186.6638">&#1578;&#1594;&#1584;&#1610;&#1577; &#1603;&#1607;&#1585;&#1576;&#1575;&#1574;&#1610;&#1577;</text></g><!--link Breaker to Busbar--><g class="link" data-entity-1="ent0004" data-entity-2="ent0005" data-link-type="dependency" data-source-line="32" id="lnk11"><path d="M777.04,243.7369 C805.05,243.7369 829.11,243.7369 857.87,243.7369" fill="none" id="Breaker-to-Busbar" style="stroke:#181818;stroke-width:1;"/><polygon fill="#181818" points="863.87,243.7369,854.87,239.7369,858.87,243.7369,854.87,247.7369,863.87,243.7369" style="stroke:#181818;stroke-width:1;"/><text fill="#000000" font-family="sans-serif" font-size="13" lengthAdjust="spacing" textLength="51.7524" x="794.97" y="236.8038">&#1578;&#1608;&#1586;&#1610;&#1593; &#1570;&#1605;&#1606;</text></g><!--link Busbar to Protection--><g class="link" data-entity-1="ent0005" data-entity-2="ent0008" data-link-type="dependency" data-source-line="34" id="lnk12"><path d="M988.14,267.2769 C973.77,289.0569 955.4237,316.8783 941.0837,338.6183" fill="none" id="Busbar-to-Protection" style="stroke:#181818;stroke-width:1;"/><polygon fill="#181818" points="937.78,343.6269,946.0746,338.3165,940.5331,339.4531,939.3965,333.9116,937.78,343.6269" style="stroke:#181818;stroke-width:1;"/><text fill="#000000" font-family="sans-serif" font-size="13" lengthAdjust="spacing" textLength="80.2344" x="968" y="309.9538">&#1578;&#1594;&#1584;&#1610;&#1577; &#1575;&#1604;&#1605;&#1603;&#1608;&#1606;&#1575;&#1578;</text></g><!--link Busbar to Contactors--><g class="link" data-entity-1="ent0005" data-entity-2="ent0007" data-link-type="dependency" data-source-line="35" id="lnk13"><path d="M1040.04,267.2369 C1065.7,282.0769 1101.04,301.0669 1134,313.8869 C1163.96,325.5469 1191.6401,333.9487 1222.4701,341.8987" fill="none" id="Busbar-to-Contactors" style="stroke:#181818;stroke-width:1;"/><polygon fill="#181818" points="1228.28,343.3969,1220.5639,337.2763,1223.4384,342.1484,1218.5663,345.0229,1228.28,343.3969" style="stroke:#181818;stroke-width:1;"/></g><!--link Busbar to PLC--><g class="link" data-entity-1="ent0005" data-entity-2="ent0006" data-link-type="dependency" data-source-line="36" id="lnk14"><path d="M1142.22,243.7369 C1153.53,243.7369 1158.84,243.7369 1170.14,243.7369" fill="none" id="Busbar-to-PLC" style="stroke:#181818;stroke-width:1;"/><polygon fill="#181818" points="1176.14,243.7369,1167.14,239.7369,1171.14,243.7369,1167.14,247.7369,1176.14,243.7369" style="stroke:#181818;stroke-width:1;"/></g><!--link PLC to Contactors--><g class="link" data-entity-1="ent0006" data-entity-2="ent0007" data-link-type="dependency" data-source-line="38" id="lnk15"><path d="M1328.11,267.2769 C1329.19,289.0569 1330.525,315.8941 1331.595,337.6341" fill="none" id="PLC-to-Contactors" style="stroke:#181818;stroke-width:1;"/><polygon fill="#181818" points="1331.89,343.6269,1335.4427,334.4411,1331.6442,338.6329,1327.4524,334.8344,1331.89,343.6269" style="stroke:#181818;stroke-width:1;"/><text fill="#000000" font-family="sans-serif" font-size="13" lengthAdjust="spacing" textLength="80.4438" x="1331" y="309.9538">&#1573;&#1588;&#1575;&#1585;&#1575;&#1578; &#1575;&#1604;&#1578;&#1581;&#1603;&#1605;</text></g><!--link PLC to Protection--><g class="link" data-entity-1="ent0006" data-entity-2="ent0008" data-link-type="dependency" data-source-line="39" id="lnk16"><path d="M1251.96,267.2769 C1179.62,288.9869 1076.5066,319.9515 1004.0666,341.7015" fill="none" id="PLC-to-Protection" style="stroke:#181818;stroke-width:1;"/><polygon fill="#181818" points="998.32,343.4269,1008.0901,344.6698,1003.1088,341.989,1005.7896,337.0077,998.32,343.4269" style="stroke:#181818;stroke-width:1;"/><text fill="#000000" font-family="sans-serif" font-size="13" lengthAdjust="spacing" textLength="69.8433" x="1150" y="309.9538">&#1605;&#1585;&#1575;&#1602;&#1576;&#1577; &#1575;&#1604;&#1581;&#1575;&#1604;&#1577;</text></g><!--link Protection to Contactors--><!--link HMI to PLC--><g class="link" data-entity-1="ent0009" data-entity-2="ent0006" data-link-type="dependency" data-source-line="43" id="lnk18"><path d="M208.99,220.1469 C256.23,206.5369 318.79,190.7969 375.5,183.8669 C459.16,173.6469 782.47,184.4369 1159,220.5969 C1164.57,221.1269 1164.2749,221.0603 1169.9949,221.6803" fill="none" id="HMI-to-PLC" style="stroke:#181818;stroke-width:1;stroke-dasharray:7,7;"/><polygon fill="#181818" points="1175.96,222.3269,1167.4434,217.3803,1170.9891,221.7881,1166.5814,225.3337,1175.96,222.3269" style="stroke:#181818;stroke-width:1;"/><text fill="#000000" font-family="sans-serif" font-size="13" lengthAdjust="spacing" textLength="109.3765" x="376.5" y="186.6638">&#1573;&#1583;&#1582;&#1575;&#1604;/&#1573;&#1582;&#1585;&#1575;&#1580; &#1575;&#1604;&#1576;&#1610;&#1575;&#1606;&#1575;&#1578;</text></g><?plantuml-src RLHTJnf157tdLzoi3wKF29MMHX-QwAQa9fYQ-jZqOGjJ8IuxP5XgJED35TIG_ecsgNn4fFX5zPVC_fkUcTbrWNKJoCpilUUUUywTzMk-ooZe1CV1MN0YUt98GJiuaoCv83cK8vntIDweLq5NZkM4i6ZBt_8MOLqvI3NtQbx34KwTohpUu1xp_1t_09YjkhioyxRXbFUSNKRVKeHdWuiA4pPtkQ2bN2wVBnJCEQ9s1MzvbV3Tsq8nLooc3f-gypHMeR2w-ZHMKJ_0IaLahBXNrLNKRtgdNFLO3QYqxNZCVMwHqpHBrDJWCGdhnJBqWpINGPiWOaVUnZfDyNya1pf_qskq_4Js2hAFeFjKtfkKCJRdSX9nciXpw7mTT2czPTiRXig6OCuUqotPzlfw0ZGFq1Fv3m0mRuWMhu1nFqU9qcg7rPtiOtMYNo9fXFBNojcmKglvsH690YzHG0atNfHEetI0CmsE50gbjqjsrkQUBxZhCX5AMR9foROL-mJqgsN2U5q4f_8g1k_BST3L-eO7D_917wGLj5FskMWQw7YVG2uaaKUmgwTv6cHi9rgVlgB-WRdEGJFx_YiJBdSg8NV1VLRsQznB57YjLUdf4eDG2iqKFDzjRMOXp7TrnL1mPC1mQb2UKT7b-yI_q3RVXxEELw5GDHEWfuSocJUFvg-H1I4Uv5_3_nX59yfBFJ03owH5mIfFMsdIuf7ufToAWaq4OkCc5yg4_Zv-BQo5n1dv5n1BeTNA-ynSf2xn1qBrbFZu0irEb3MNDCzhpYtZf_wFcf-9pdoirYeLvdqIoTBn49WBg3t45GnHu14jwmP2ehZgAZ2BvQLcV64I-y3eHRBeL0_rITHsgxvoLfbDuQD663gsrsXsAEGFDQ5tci1FUjHaeCxLKls66eDXFXHwAdNu7m00?></g></svg>