<?plantuml 1.2026.2beta3?><svg xmlns="http://www.w3.org/2000/svg" xmlns:xlink="http://www.w3.org/1999/xlink" contentStyleType="text/css" data-diagram-type="ACTIVITY" height="464px" preserveAspectRatio="none" style="width:470px;height:464px;background:#FFFFFF;" version="1.1" viewBox="0 0 470 464" width="470px" zoomAndPan="magnify"><title>&#1604;&#1608;&#1581;&#1575;&#1578; &#1578;&#1581;&#1603;&#1605; &#1605;&#1590;&#1582;&#1575;&#1578; &#1575;&#1604;&#1589;&#1585;&#1601; &#1575;&#1604;&#1589;&#1581;&#1610; | &#1585;&#1608;&#1575;&#1574;&#1593; &#1575;&#1604;&#1603;&#1585;&#1610;&#1587;&#1578;&#1575;&#1604;</title><defs/><g><g class="title" data-source-line="1"><text fill="#000000" font-family="sans-serif" font-size="14" font-weight="bold" lengthAdjust="spacing" textLength="371.8613" x="47.8403" y="32.9951">&#1604;&#1608;&#1581;&#1575;&#1578; &#1578;&#1581;&#1603;&#1605; &#1605;&#1590;&#1582;&#1575;&#1578; &#1575;&#1604;&#1589;&#1585;&#1601; &#1575;&#1604;&#1589;&#1581;&#1610; | &#1585;&#1608;&#1575;&#1574;&#1593; &#1575;&#1604;&#1603;&#1585;&#1610;&#1587;&#1578;&#1575;&#1604;</text></g><ellipse cx="262.0439" cy="57.2969" fill="#222222" rx="10" ry="10" style="stroke:#222222;stroke-width:1;"/><rect fill="#F1F1F1" height="33.9688" rx="12.5" ry="12.5" style="stroke:#181818;stroke-width:0.5;" width="253.6953" x="135.1963" y="87.2969"/><text fill="#000000" font-family="sans-serif" font-size="12" lengthAdjust="spacing" textLength="233.6953" x="145.1963" y="108.4355">&#1575;&#1587;&#1578;&#1602;&#1576;&#1575;&#1604; &#1573;&#1588;&#1575;&#1585;&#1577; &#1605;&#1606; &#1575;&#1604;&#1605;&#1587;&#1578;&#1588;&#1593;&#1585; (&#1605;&#1587;&#1578;&#1608;&#1609; &#1575;&#1604;&#1587;&#1575;&#1574;&#1604;)</text><polygon fill="#F1F1F1" points="201.4526,141.2656,322.6353,141.2656,334.6353,153.2656,322.6353,165.2656,201.4526,165.2656,189.4526,153.2656,201.4526,141.2656" style="stroke:#181818;stroke-width:0.5;"/><text fill="#000000" font-family="sans-serif" font-size="11" lengthAdjust="spacing" textLength="121.1826" x="201.4526" y="157.0737">&#1607;&#1604; &#1605;&#1587;&#1578;&#1608;&#1609; &#1575;&#1604;&#1587;&#1575;&#1574;&#1604; &#1605;&#1585;&#1578;&#1601;&#1593;&#1567;</text><text fill="#000000" font-family="sans-serif" font-size="11" lengthAdjust="spacing" textLength="15.689" x="173.7637" y="150.6714">&#1606;&#1593;&#1605;</text><text fill="#000000" font-family="sans-serif" font-size="11" lengthAdjust="spacing" textLength="6.2734" x="334.6353" y="150.6714">&#1604;&#1575;</text><rect fill="#F1F1F1" height="33.9688" rx="12.5" ry="12.5" style="stroke:#181818;stroke-width:0.5;" width="90.2363" x="95.7705" y="175.2656"/><text fill="#000000" font-family="sans-serif" font-size="12" lengthAdjust="spacing" textLength="70.2363" x="105.7705" y="196.4043">&#1578;&#1601;&#1593;&#1610;&#1604; &#1575;&#1604;&#1605;&#1590;&#1582;&#1577;</text><rect fill="#F1F1F1" height="33.9688" rx="12.5" ry="12.5" style="stroke:#181818;stroke-width:0.5;" width="129.9277" x="75.9248" y="229.2344"/><text fill="#000000" font-family="sans-serif" font-size="12" lengthAdjust="spacing" textLength="109.9277" x="85.9248" y="250.373">&#1605;&#1585;&#1575;&#1602;&#1576;&#1577; &#1605;&#1587;&#1578;&#1608;&#1609; &#1575;&#1604;&#1587;&#1575;&#1574;&#1604;</text><polygon fill="#F1F1F1" points="78.584,283.2031,203.1934,283.2031,215.1934,295.2031,203.1934,307.2031,78.584,307.2031,66.584,295.2031,78.584,283.2031" style="stroke:#181818;stroke-width:0.5;"/><text fill="#000000" font-family="sans-serif" font-size="11" lengthAdjust="spacing" textLength="124.6094" x="78.584" y="299.0112">&#1607;&#1604; &#1605;&#1587;&#1578;&#1608;&#1609; &#1575;&#1604;&#1587;&#1575;&#1574;&#1604; &#1591;&#1576;&#1610;&#1593;&#1610;&#1567;</text><text fill="#000000" font-family="sans-serif" font-size="11" lengthAdjust="spacing" textLength="15.689" x="50.895" y="292.6089">&#1606;&#1593;&#1605;</text><text fill="#000000" font-family="sans-serif" font-size="11" lengthAdjust="spacing" textLength="6.2734" x="215.1934" y="292.6089">&#1604;&#1575;</text><rect fill="#F1F1F1" height="33.9688" rx="12.5" ry="12.5" style="stroke:#181818;stroke-width:0.5;" width="91.168" x="11" y="317.2031"/><text fill="#000000" font-family="sans-serif" font-size="12" lengthAdjust="spacing" textLength="71.168" x="21" y="338.3418">&#1573;&#1610;&#1602;&#1575;&#1601; &#1575;&#1604;&#1605;&#1590;&#1582;&#1577;</text><rect fill="#F1F1F1" height="33.9688" rx="12.5" ry="12.5" style="stroke:#181818;stroke-width:0.5;" width="103.3262" x="173.5303" y="317.2031"/><text fill="#000000" font-family="sans-serif" font-size="12" lengthAdjust="spacing" textLength="83.3262" x="183.5303" y="338.3418">&#1575;&#1587;&#1578;&#1605;&#1585;&#1575;&#1585; &#1575;&#1604;&#1578;&#1588;&#1594;&#1610;&#1604;</text><polygon fill="#F1F1F1" points="140.8887,357.1719,152.8887,369.1719,140.8887,381.1719,128.8887,369.1719,140.8887,357.1719" style="stroke:#181818;stroke-width:0.5;"/><rect fill="#F1F1F1" height="33.9688" rx="12.5" ry="12.5" style="stroke:#181818;stroke-width:0.5;" width="152.6855" x="306.8564" y="175.2656"/><text fill="#000000" font-family="sans-serif" font-size="12" lengthAdjust="spacing" textLength="132.6855" x="316.8564" y="196.4043">&#1575;&#1604;&#1605;&#1590;&#1582;&#1577; &#1601;&#1610; &#1608;&#1590;&#1593; &#1575;&#1604;&#1575;&#1587;&#1578;&#1593;&#1583;&#1575;&#1583;</text><polygon fill="#F1F1F1" points="262.0439,387.1719,274.0439,399.1719,262.0439,411.1719,250.0439,399.1719,262.0439,387.1719" style="stroke:#181818;stroke-width:0.5;"/><ellipse cx="262.0439" cy="442.1719" fill="none" rx="11" ry="11" style="stroke:#222222;stroke-width:1;"/><ellipse cx="262.0439" cy="442.1719" fill="#222222" rx="6" ry="6" style="stroke:#222222;stroke-width:1;"/><line style="stroke:#181818;stroke-width:1;" x1="262.0439" x2="262.0439" y1="67.2969" y2="87.2969"/><polygon fill="#181818" points="258.0439,77.2969,262.0439,87.2969,266.0439,77.2969,262.0439,81.2969" style="stroke:#181818;stroke-width:1;"/><line style="stroke:#181818;stroke-width:1;" x1="140.8887" x2="140.8887" y1="209.2344" y2="229.2344"/><polygon fill="#181818" points="136.8887,219.2344,140.8887,229.2344,144.8887,219.2344,140.8887,223.2344" style="stroke:#181818;stroke-width:1;"/><line style="stroke:#181818;stroke-width:1;" x1="66.584" x2="56.584" y1="295.2031" y2="295.2031"/><line style="stroke:#181818;stroke-width:1;" x1="56.584" x2="56.584" y1="295.2031" y2="317.2031"/><polygon fill="#181818" points="52.584,307.2031,56.584,317.2031,60.584,307.2031,56.584,311.2031" style="stroke:#181818;stroke-width:1;"/><line style="stroke:#181818;stroke-width:1;" x1="215.1934" x2="225.1934" y1="295.2031" y2="295.2031"/><line style="stroke:#181818;stroke-width:1;" x1="225.1934" x2="225.1934" y1="295.2031" y2="317.2031"/><polygon fill="#181818" points="221.1934,307.2031,225.1934,317.2031,229.1934,307.2031,225.1934,311.2031" style="stroke:#181818;stroke-width:1;"/><line style="stroke:#181818;stroke-width:1;" x1="56.584" x2="56.584" y1="351.1719" y2="369.1719"/><line style="stroke:#181818;stroke-width:1;" x1="56.584" x2="128.8887" y1="369.1719" y2="369.1719"/><polygon fill="#181818" points="118.8887,365.1719,128.8887,369.1719,118.8887,373.1719,122.8887,369.1719" style="stroke:#181818;stroke-width:1;"/><line style="stroke:#181818;stroke-width:1;" x1="225.1934" x2="225.1934" y1="351.1719" y2="369.1719"/><line style="stroke:#181818;stroke-width:1;" x1="225.1934" x2="152.8887" y1="369.1719" y2="369.1719"/><polygon fill="#181818" points="162.8887,365.1719,152.8887,369.1719,162.8887,373.1719,158.8887,369.1719" style="stroke:#181818;stroke-width:1;"/><line style="stroke:#181818;stroke-width:1;" x1="140.8887" x2="140.8887" y1="263.2031" y2="283.2031"/><polygon fill="#181818" points="136.8887,273.2031,140.8887,283.2031,144.8887,273.2031,140.8887,277.2031" style="stroke:#181818;stroke-width:1;"/><line style="stroke:#181818;stroke-width:1;" x1="189.4526" x2="140.8887" y1="153.2656" y2="153.2656"/><line style="stroke:#181818;stroke-width:1;" x1="140.8887" x2="140.8887" y1="153.2656" y2="175.2656"/><polygon fill="#181818" points="136.8887,165.2656,140.8887,175.2656,144.8887,165.2656,140.8887,169.2656" style="stroke:#181818;stroke-width:1;"/><line style="stroke:#181818;stroke-width:1;" x1="334.6353" x2="383.1992" y1="153.2656" y2="153.2656"/><line style="stroke:#181818;stroke-width:1;" x1="383.1992" x2="383.1992" y1="153.2656" y2="175.2656"/><polygon fill="#181818" points="379.1992,165.2656,383.1992,175.2656,387.1992,165.2656,383.1992,169.2656" style="stroke:#181818;stroke-width:1;"/><line style="stroke:#181818;stroke-width:1;" x1="140.8887" x2="140.8887" y1="381.1719" y2="399.1719"/><line style="stroke:#181818;stroke-width:1;" x1="140.8887" x2="250.0439" y1="399.1719" y2="399.1719"/><polygon fill="#181818" points="240.0439,395.1719,250.0439,399.1719,240.0439,403.1719,244.0439,399.1719" style="stroke:#181818;stroke-width:1;"/><line style="stroke:#181818;stroke-width:1;" x1="383.1992" x2="383.1992" y1="209.2344" y2="399.1719"/><line style="stroke:#181818;stroke-width:1;" x1="383.1992" x2="274.0439" y1="399.1719" y2="399.1719"/><polygon fill="#181818" points="284.0439,395.1719,274.0439,399.1719,284.0439,403.1719,280.0439,399.1719" style="stroke:#181818;stroke-width:1;"/><line style="stroke:#181818;stroke-width:1;" x1="262.0439" x2="262.0439" y1="121.2656" y2="141.2656"/><polygon fill="#181818" points="258.0439,131.2656,262.0439,141.2656,266.0439,131.2656,262.0439,135.2656" style="stroke:#181818;stroke-width:1;"/><line style="stroke:#181818;stroke-width:1;" x1="262.0439" x2="262.0439" y1="411.1719" y2="431.1719"/><polygon fill="#181818" points="258.0439,421.1719,262.0439,431.1719,266.0439,421.1719,262.0439,425.1719" style="stroke:#181818;stroke-width:1;"/><?plantuml-src XL5BJiCm4Dtx5BCaLqXEWqGg8bK5qIpPf4rAo2LOjMagXIfgAGedUNCRtjXK0a75pdv-Fy_aMJvDHKkjqQF5Jh13hqkjH2kSy1gmLakyOT3YVEoraKSXKfEmmUXnNH9eSA05RyxDy-k7tBcO56AwmDPmmHf7GWCwPkWgI2ilEsB485VXfhK-Xxo3XMWP9Svb4pu_qUK2n_21U46dbqZostH6mGgZLf4JYSEJDjOZvDedkyJUlBJrFRjB_aRyjmFUiUKW6FDN1sknPeC5DSMl5kbqdf9TeZrpm_HyDmx71zcaFkmJNZ6xoIRkfox-RYjQS5rSrUbhKS6I4zhpj4zSSE2-xku_0G00?></g></svg>