<svg xmlns="http://www.w3.org/2000/svg" xmlns:xlink="http://www.w3.org/1999/xlink" contentStyleType="text/css" data-diagram-type="ACTIVITY" height="1394px" preserveAspectRatio="none" style="width:471px;height:1394px;background:#FFFFFF;" version="1.1" viewBox="0 0 471 1394" width="471px" zoomAndPan="magnify"><title>12 &#1606;&#1608;&#1593; &#1605;&#1590;&#1582;&#1577; &#1610;&#1580;&#1576; &#1571;&#1606; &#1578;&#1593;&#1585;&#1601;&#1607;&#1575; &#1602;&#1576;&#1604; &#1575;&#1604;&#1588;&#1585;&#1575;&#1569; - &#1583;&#1604;&#1610;&#1604; 2026 &#1575;&#1604;&#1588;&#1575;&#1605;&#1604;</title><defs/><g><g class="title" data-source-line="1"><text fill="#000000" font-family="sans-serif" font-size="14" font-weight="bold" lengthAdjust="spacing" textLength="428.6816" x="20" y="32.9951">12 &#1606;&#1608;&#1593; &#1605;&#1590;&#1582;&#1577; &#1610;&#1580;&#1576; &#1571;&#1606; &#1578;&#1593;&#1585;&#1601;&#1607;&#1575; &#1602;&#1576;&#1604; &#1575;&#1604;&#1588;&#1585;&#1575;&#1569; - &#1583;&#1604;&#1610;&#1604; 2026 &#1575;&#1604;&#1588;&#1575;&#1605;&#1604;</text></g><ellipse cx="235.8408" cy="57.2969" fill="#222222" rx="10" ry="10" style="stroke:#222222;stroke-width:1;"/><rect fill="#F1F1F1" height="33.9688" rx="12.5" ry="12.5" style="stroke:#181818;stroke-width:0.5;" width="141.834" x="164.9238" y="87.2969"/><text fill="#000000" font-family="sans-serif" font-size="12" lengthAdjust="spacing" textLength="121.834" x="174.9238" y="108.4355">&#1575;&#1576;&#1583;&#1571; &#1593;&#1605;&#1604;&#1610;&#1577; &#1575;&#1582;&#1578;&#1610;&#1575;&#1585; &#1575;&#1604;&#1605;&#1590;&#1582;&#1577;</text><rect fill="none" height="176.2344" style="stroke:#000000;stroke-width:1.5;" width="187.5723" x="142.0547" y="131.2656"/><path d="M291.3096,131.2656 L291.3096,140.5625 L281.3096,150.5625 L142.0547,150.5625" fill="none" style="stroke:#000000;stroke-width:1.5;"/><text fill="#000000" font-family="sans-serif" font-size="14" lengthAdjust="spacing" textLength="139.2549" x="145.0547" y="145.2607">&#1571;&#1606;&#1608;&#1575;&#1593; &#1575;&#1604;&#1605;&#1590;&#1582;&#1575;&#1578; &#1575;&#1604;&#1585;&#1574;&#1610;&#1587;&#1610;&#1577;</text><line style="stroke:#181818;stroke-width:1.5;" x1="235.8408" x2="235.8408" y1="167.5625" y2="167.5625"/><rect fill="#F1F1F1" height="33.9688" rx="12.5" ry="12.5" style="stroke:#181818;stroke-width:0.5;" width="138.2363" x="166.7227" y="187.5625"/><text fill="#000000" font-family="sans-serif" font-size="12" lengthAdjust="spacing" textLength="118.2363" x="176.7227" y="208.7012">&#1605;&#1590;&#1582;&#1575;&#1578; &#1575;&#1604;&#1591;&#1585;&#1583; &#1575;&#1604;&#1605;&#1585;&#1603;&#1586;&#1610;</text><rect fill="#F1F1F1" height="33.9688" rx="12.5" ry="12.5" style="stroke:#181818;stroke-width:0.5;" width="139.5723" x="166.0547" y="241.5313"/><text fill="#000000" font-family="sans-serif" font-size="12" lengthAdjust="spacing" textLength="119.5723" x="176.0547" y="262.6699">&#1605;&#1590;&#1582;&#1575;&#1578; &#1575;&#1604;&#1573;&#1586;&#1575;&#1581;&#1577; &#1575;&#1604;&#1573;&#1610;&#1580;&#1575;&#1576;&#1610;&#1577;</text><line style="stroke:#181818;stroke-width:1.5;" x1="235.8408" x2="235.8408" y1="295.5" y2="295.5"/><rect fill="none" height="244.1719" style="stroke:#000000;stroke-width:1.5;" width="218.1543" x="126.7637" y="317.5"/><path d="M229.1035,317.5 L229.1035,326.7969 L219.1035,336.7969 L126.7637,336.7969" fill="none" style="stroke:#000000;stroke-width:1.5;"/><text fill="#000000" font-family="sans-serif" font-size="14" lengthAdjust="spacing" textLength="92.3398" x="129.7637" y="331.4951">&#1575;&#1593;&#1578;&#1576;&#1575;&#1585;&#1575;&#1578; &#1585;&#1574;&#1610;&#1587;&#1610;&#1577;</text><rect fill="#F1F1F1" height="33.9688" rx="12.5" ry="12.5" style="stroke:#181818;stroke-width:0.5;" width="195.9863" x="137.8477" y="353.7969"/><text fill="#000000" font-family="sans-serif" font-size="12" lengthAdjust="spacing" textLength="175.9863" x="147.8477" y="374.9355">&#1578;&#1581;&#1583;&#1610;&#1583; &#1575;&#1604;&#1578;&#1591;&#1576;&#1610;&#1602; (&#1587;&#1575;&#1574;&#1604;&#1548; &#1590;&#1594;&#1591;&#1548; &#1578;&#1583;&#1601;&#1602;)</text><rect fill="#F1F1F1" height="33.9688" rx="12.5" ry="12.5" style="stroke:#181818;stroke-width:0.5;" width="198.1543" x="136.7637" y="407.7656"/><text fill="#000000" font-family="sans-serif" font-size="12" lengthAdjust="spacing" textLength="178.1543" x="146.7637" y="428.9043">&#1578;&#1602;&#1610;&#1610;&#1605; &#1582;&#1589;&#1575;&#1574;&#1589; &#1575;&#1604;&#1587;&#1575;&#1574;&#1604; (&#1604;&#1586;&#1608;&#1580;&#1577;&#1548; &#1578;&#1570;&#1603;&#1604;)</text><rect fill="#F1F1F1" height="33.9688" rx="12.5" ry="12.5" style="stroke:#181818;stroke-width:0.5;" width="133.6895" x="168.9961" y="461.7344"/><text fill="#000000" font-family="sans-serif" font-size="12" lengthAdjust="spacing" textLength="113.6895" x="178.9961" y="482.873">&#1583;&#1585;&#1575;&#1587;&#1577; &#1605;&#1578;&#1591;&#1604;&#1576;&#1575;&#1578; &#1575;&#1604;&#1591;&#1575;&#1602;&#1577;</text><rect fill="#F1F1F1" height="33.9688" rx="12.5" ry="12.5" style="stroke:#181818;stroke-width:0.5;" width="133.3086" x="169.1865" y="515.7031"/><text fill="#000000" font-family="sans-serif" font-size="12" lengthAdjust="spacing" textLength="113.3086" x="179.1865" y="536.8418">&#1605;&#1602;&#1575;&#1585;&#1606;&#1577; &#1575;&#1604;&#1578;&#1603;&#1604;&#1601;&#1577; &#1608;&#1575;&#1604;&#1589;&#1610;&#1575;&#1606;&#1577;</text><rect fill="none" height="715.9219" style="stroke:#000000;stroke-width:1.5;" width="319.6016" x="76.04" y="571.6719"/><path d="M213.8926,571.6719 L213.8926,580.9688 L203.8926,590.9688 L76.04,590.9688" fill="none" style="stroke:#000000;stroke-width:1.5;"/><text fill="#000000" font-family="sans-serif" font-size="14" lengthAdjust="spacing" textLength="127.8525" x="79.04" y="585.667">&#1605;&#1590;&#1582;&#1575;&#1578; &#1588;&#1575;&#1574;&#1593;&#1577; (&#1571;&#1605;&#1579;&#1604;&#1577;)</text><line style="stroke:#181818;stroke-width:1.5;" x1="235.8408" x2="235.8408" y1="607.9688" y2="607.9688"/><rect fill="#F1F1F1" height="33.9688" rx="12.5" ry="12.5" style="stroke:#181818;stroke-width:0.5;" width="268.4023" x="101.6396" y="627.9688"/><text fill="#000000" font-family="sans-serif" font-size="12" lengthAdjust="spacing" textLength="248.4023" x="111.6396" y="649.1074">&#1605;&#1590;&#1582;&#1575;&#1578; &#1575;&#1604;&#1591;&#1585;&#1583; &#1575;&#1604;&#1605;&#1585;&#1603;&#1586;&#1610; &#1575;&#1604;&#1571;&#1581;&#1575;&#1583;&#1610;&#1577;/&#1575;&#1604;&#1605;&#1578;&#1593;&#1583;&#1583;&#1577; &#1575;&#1604;&#1605;&#1585;&#1575;&#1581;&#1604;</text><rect fill="#F1F1F1" height="33.9688" rx="12.5" ry="12.5" style="stroke:#181818;stroke-width:0.5;" width="101.0234" x="185.3291" y="681.9375"/><text fill="#000000" font-family="sans-serif" font-size="12" lengthAdjust="spacing" textLength="81.0234" x="195.3291" y="703.0762">&#1605;&#1590;&#1582;&#1575;&#1578; &#1575;&#1604;&#1578;&#1585;&#1608;&#1587;</text><rect fill="#F1F1F1" height="33.9688" rx="12.5" ry="12.5" style="stroke:#181818;stroke-width:0.5;" width="151.6543" x="160.0137" y="735.9063"/><text fill="#000000" font-family="sans-serif" font-size="12" lengthAdjust="spacing" textLength="131.6543" x="170.0137" y="757.0449">&#1605;&#1590;&#1582;&#1575;&#1578; &#1575;&#1604;&#1578;&#1585;&#1583;&#1583;&#1610;&#1577; (&#1605;&#1603;&#1576;&#1587;&#1610;&#1577;)</text><rect fill="#F1F1F1" height="33.9688" rx="12.5" ry="12.5" style="stroke:#181818;stroke-width:0.5;" width="106.4727" x="182.6045" y="789.875"/><text fill="#000000" font-family="sans-serif" font-size="12" lengthAdjust="spacing" textLength="86.4727" x="192.6045" y="811.0137">&#1605;&#1590;&#1582;&#1575;&#1578; &#1575;&#1604;&#1594;&#1575;&#1591;&#1587;&#1577;</text><rect fill="#F1F1F1" height="33.9688" rx="12.5" ry="12.5" style="stroke:#181818;stroke-width:0.5;" width="129.7344" x="170.9736" y="843.8438"/><text fill="#000000" font-family="sans-serif" font-size="12" lengthAdjust="spacing" textLength="109.7344" x="180.9736" y="864.9824">&#1605;&#1590;&#1582;&#1575;&#1578; &#1575;&#1604;&#1606;&#1601;&#1591; &#1575;&#1604;&#1583;&#1608;&#1575;&#1585;&#1577;</text><rect fill="#F1F1F1" height="33.9688" rx="12.5" ry="12.5" style="stroke:#181818;stroke-width:0.5;" width="134.3516" x="168.665" y="897.8125"/><text fill="#000000" font-family="sans-serif" font-size="12" lengthAdjust="spacing" textLength="114.3516" x="178.665" y="918.9512">&#1605;&#1590;&#1582;&#1575;&#1578; &#1575;&#1604;&#1587;&#1581;&#1576; &#1575;&#1604;&#1584;&#1575;&#1578;&#1610;</text><rect fill="#F1F1F1" height="33.9688" rx="12.5" ry="12.5" style="stroke:#181818;stroke-width:0.5;" width="103.8828" x="183.8994" y="951.7813"/><text fill="#000000" font-family="sans-serif" font-size="12" lengthAdjust="spacing" textLength="83.8828" x="193.8994" y="972.9199">&#1605;&#1590;&#1582;&#1575;&#1578; &#1575;&#1604;&#1594;&#1588;&#1575;&#1574;&#1610;&#1577;</text><rect fill="#F1F1F1" height="33.9688" rx="12.5" ry="12.5" style="stroke:#181818;stroke-width:0.5;" width="90.8398" x="190.4209" y="1005.75"/><text fill="#000000" font-family="sans-serif" font-size="12" lengthAdjust="spacing" textLength="70.8398" x="200.4209" y="1026.8887">&#1605;&#1590;&#1582;&#1575;&#1578; &#1575;&#1604;&#1605;&#1610;&#1575;&#1607;</text><rect fill="#F1F1F1" height="33.9688" rx="12.5" ry="12.5" style="stroke:#181818;stroke-width:0.5;" width="137.0293" x="167.3262" y="1059.7188"/><text fill="#000000" font-family="sans-serif" font-size="12" lengthAdjust="spacing" textLength="117.0293" x="177.3262" y="1080.8574">&#1605;&#1590;&#1582;&#1575;&#1578; &#1575;&#1604;&#1581;&#1580;&#1575;&#1576; &#1575;&#1604;&#1581;&#1575;&#1580;&#1586;</text><rect fill="#F1F1F1" height="33.9688" rx="12.5" ry="12.5" style="stroke:#181818;stroke-width:0.5;" width="191.5859" x="140.0479" y="1113.6875"/><text fill="#000000" font-family="sans-serif" font-size="12" lengthAdjust="spacing" textLength="171.5859" x="150.0479" y="1134.8262">&#1605;&#1590;&#1582;&#1575;&#1578; &#1575;&#1604;&#1583;&#1608;&#1575;&#1585;&#1577; (Screw Pumps)</text><rect fill="#F1F1F1" height="33.9688" rx="12.5" ry="12.5" style="stroke:#181818;stroke-width:0.5;" width="271.6016" x="100.04" y="1167.6563"/><text fill="#000000" font-family="sans-serif" font-size="12" lengthAdjust="spacing" textLength="251.6016" x="110.04" y="1188.7949">&#1605;&#1590;&#1582;&#1575;&#1578; &#1575;&#1604;&#1591;&#1575;&#1585;&#1583;&#1577; &#1575;&#1604;&#1605;&#1585;&#1603;&#1586;&#1610;&#1577; (Centrifugal Pumps)</text><rect fill="#F1F1F1" height="33.9688" rx="12.5" ry="12.5" style="stroke:#181818;stroke-width:0.5;" width="183.7402" x="143.9707" y="1221.625"/><text fill="#000000" font-family="sans-serif" font-size="12" lengthAdjust="spacing" textLength="163.7402" x="153.9707" y="1242.7637">&#1605;&#1590;&#1582;&#1575;&#1578; &#1575;&#1604;&#1605;&#1581;&#1608;&#1585; (Axial Pumps)</text><line style="stroke:#181818;stroke-width:1.5;" x1="235.8408" x2="235.8408" y1="1275.5938" y2="1275.5938"/><rect fill="#F1F1F1" height="33.9688" rx="12.5" ry="12.5" style="stroke:#181818;stroke-width:0.5;" width="309.7754" x="80.9531" y="1307.5938"/><text fill="#000000" font-family="sans-serif" font-size="12" lengthAdjust="spacing" textLength="289.7754" x="90.9531" y="1328.7324">&#1575;&#1582;&#1578;&#1585; &#1575;&#1604;&#1605;&#1590;&#1582;&#1577; &#1575;&#1604;&#1605;&#1606;&#1575;&#1587;&#1576;&#1577; &#1576;&#1606;&#1575;&#1569;&#1611; &#1593;&#1604;&#1609; &#1575;&#1604;&#1575;&#1593;&#1578;&#1576;&#1575;&#1585;&#1575;&#1578; &#1608;&#1571;&#1606;&#1608;&#1575;&#1593; &#1575;&#1604;&#1605;&#1590;&#1582;&#1575;&#1578;</text><ellipse cx="235.8408" cy="1372.5625" fill="none" rx="11" ry="11" style="stroke:#222222;stroke-width:1;"/><ellipse cx="235.8408" cy="1372.5625" fill="#222222" rx="6" ry="6" style="stroke:#222222;stroke-width:1;"/><line style="stroke:#181818;stroke-width:1;" x1="235.8408" x2="235.8408" y1="67.2969" y2="87.2969"/><polygon fill="#181818" points="231.8408,77.2969,235.8408,87.2969,239.8408,77.2969,235.8408,81.2969" style="stroke:#181818;stroke-width:1;"/><line style="stroke:#181818;stroke-width:1;" x1="235.8408" x2="235.8408" y1="221.5313" y2="241.5313"/><polygon fill="#181818" points="231.8408,231.5313,235.8408,241.5313,239.8408,231.5313,235.8408,235.5313" style="stroke:#181818;stroke-width:1;"/><line style="stroke:#181818;stroke-width:1;" x1="235.8408" x2="235.8408" y1="169.0625" y2="187.5625"/><polygon fill="#181818" points="231.8408,177.5625,235.8408,187.5625,239.8408,177.5625,235.8408,181.5625" style="stroke:#181818;stroke-width:1;"/><line style="stroke:#181818;stroke-width:1;" x1="235.8408" x2="235.8408" y1="275.5" y2="295.5"/><polygon fill="#181818" points="231.8408,285.5,235.8408,295.5,239.8408,285.5,235.8408,289.5" style="stroke:#181818;stroke-width:1;"/><line style="stroke:#181818;stroke-width:1;" x1="235.8408" x2="235.8408" y1="121.2656" y2="167.5625"/><polygon fill="#181818" points="231.8408,157.5625,235.8408,167.5625,239.8408,157.5625,235.8408,161.5625" style="stroke:#181818;stroke-width:1;"/><line style="stroke:#181818;stroke-width:1;" x1="235.8408" x2="235.8408" y1="387.7656" y2="407.7656"/><polygon fill="#181818" points="231.8408,397.7656,235.8408,407.7656,239.8408,397.7656,235.8408,401.7656" style="stroke:#181818;stroke-width:1;"/><line style="stroke:#181818;stroke-width:1;" x1="235.8408" x2="235.8408" y1="441.7344" y2="461.7344"/><polygon fill="#181818" points="231.8408,451.7344,235.8408,461.7344,239.8408,451.7344,235.8408,455.7344" style="stroke:#181818;stroke-width:1;"/><line style="stroke:#181818;stroke-width:1;" x1="235.8408" x2="235.8408" y1="495.7031" y2="515.7031"/><polygon fill="#181818" points="231.8408,505.7031,235.8408,515.7031,239.8408,505.7031,235.8408,509.7031" style="stroke:#181818;stroke-width:1;"/><line style="stroke:#181818;stroke-width:1;" x1="235.8408" x2="235.8408" y1="297" y2="353.7969"/><polygon fill="#181818" points="231.8408,343.7969,235.8408,353.7969,239.8408,343.7969,235.8408,347.7969" style="stroke:#181818;stroke-width:1;"/><line style="stroke:#181818;stroke-width:1;" x1="235.8408" x2="235.8408" y1="661.9375" y2="681.9375"/><polygon fill="#181818" points="231.8408,671.9375,235.8408,681.9375,239.8408,671.9375,235.8408,675.9375" style="stroke:#181818;stroke-width:1;"/><line style="stroke:#181818;stroke-width:1;" x1="235.8408" x2="235.8408" y1="715.9063" y2="735.9063"/><polygon fill="#181818" points="231.8408,725.9063,235.8408,735.9063,239.8408,725.9063,235.8408,729.9063" style="stroke:#181818;stroke-width:1;"/><line style="stroke:#181818;stroke-width:1;" x1="235.8408" x2="235.8408" y1="769.875" y2="789.875"/><polygon fill="#181818" points="231.8408,779.875,235.8408,789.875,239.8408,779.875,235.8408,783.875" style="stroke:#181818;stroke-width:1;"/><line style="stroke:#181818;stroke-width:1;" x1="235.8408" x2="235.8408" y1="823.8438" y2="843.8438"/><polygon fill="#181818" points="231.8408,833.8438,235.8408,843.8438,239.8408,833.8438,235.8408,837.8438" style="stroke:#181818;stroke-width:1;"/><line style="stroke:#181818;stroke-width:1;" x1="235.8408" x2="235.8408" y1="877.8125" y2="897.8125"/><polygon fill="#181818" points="231.8408,887.8125,235.8408,897.8125,239.8408,887.8125,235.8408,891.8125" style="stroke:#181818;stroke-width:1;"/><line style="stroke:#181818;stroke-width:1;" x1="235.8408" x2="235.8408" y1="931.7813" y2="951.7813"/><polygon fill="#181818" points="231.8408,941.7813,235.8408,951.7813,239.8408,941.7813,235.8408,945.7813" style="stroke:#181818;stroke-width:1;"/><line style="stroke:#181818;stroke-width:1;" x1="235.8408" x2="235.8408" y1="985.75" y2="1005.75"/><polygon fill="#181818" points="231.8408,995.75,235.8408,1005.75,239.8408,995.75,235.8408,999.75" style="stroke:#181818;stroke-width:1;"/><line style="stroke:#181818;stroke-width:1;" x1="235.8408" x2="235.8408" y1="1039.7188" y2="1059.7188"/><polygon fill="#181818" points="231.8408,1049.7188,235.8408,1059.7188,239.8408,1049.7188,235.8408,1053.7188" style="stroke:#181818;stroke-width:1;"/><line style="stroke:#181818;stroke-width:1;" x1="235.8408" x2="235.8408" y1="1093.6875" y2="1113.6875"/><polygon fill="#181818" points="231.8408,1103.6875,235.8408,1113.6875,239.8408,1103.6875,235.8408,1107.6875" style="stroke:#181818;stroke-width:1;"/><line style="stroke:#181818;stroke-width:1;" x1="235.8408" x2="235.8408" y1="1147.6563" y2="1167.6563"/><polygon fill="#181818" points="231.8408,1157.6563,235.8408,1167.6563,239.8408,1157.6563,235.8408,1161.6563" style="stroke:#181818;stroke-width:1;"/><line style="stroke:#181818;stroke-width:1;" x1="235.8408" x2="235.8408" y1="1201.625" y2="1221.625"/><polygon fill="#181818" points="231.8408,1211.625,235.8408,1221.625,239.8408,1211.625,235.8408,1215.625" style="stroke:#181818;stroke-width:1;"/><line style="stroke:#181818;stroke-width:1;" x1="235.8408" x2="235.8408" y1="609.4688" y2="627.9688"/><polygon fill="#181818" points="231.8408,617.9688,235.8408,627.9688,239.8408,617.9688,235.8408,621.9688" style="stroke:#181818;stroke-width:1;"/><line style="stroke:#181818;stroke-width:1;" x1="235.8408" x2="235.8408" y1="1255.5938" y2="1275.5938"/><polygon fill="#181818" points="231.8408,1265.5938,235.8408,1275.5938,239.8408,1265.5938,235.8408,1269.5938" style="stroke:#181818;stroke-width:1;"/><line style="stroke:#181818;stroke-width:1;" x1="235.8408" x2="235.8408" y1="549.6719" y2="607.9688"/><polygon fill="#181818" points="231.8408,597.9688,235.8408,607.9688,239.8408,597.9688,235.8408,601.9688" style="stroke:#181818;stroke-width:1;"/><line style="stroke:#181818;stroke-width:1;" x1="235.8408" x2="235.8408" y1="1277.0938" y2="1307.5938"/><polygon fill="#181818" points="231.8408,1297.5938,235.8408,1307.5938,239.8408,1297.5938,235.8408,1301.5938" style="stroke:#181818;stroke-width:1;"/><line style="stroke:#181818;stroke-width:1;" x1="235.8408" x2="235.8408" y1="1341.5625" y2="1361.5625"/><polygon fill="#181818" points="231.8408,1351.5625,235.8408,1361.5625,239.8408,1351.5625,235.8408,1355.5625" style="stroke:#181818;stroke-width:1;"/></g></svg>