<?plantuml 1.2026.2beta3?><svg xmlns="http://www.w3.org/2000/svg" xmlns:xlink="http://www.w3.org/1999/xlink" contentStyleType="text/css" data-diagram-type="ACTIVITY" height="518px" preserveAspectRatio="none" style="width:473px;height:518px;background:#FFFFFF;" version="1.1" viewBox="0 0 473 518" width="473px" zoomAndPan="magnify"><title>&#1576;&#1585;&#1605;&#1580;&#1577; &#1575;&#1606;&#1601;&#1585;&#1578;&#1585; VFD &#1604;&#1604;&#1605;&#1590;&#1582;&#1575;&#1578;: &#1578;&#1608;&#1601;&#1610;&#1585; &#1575;&#1604;&#1591;&#1575;&#1602;&#1577; &#1608;&#1575;&#1604;&#1605;&#1575;&#1604;</title><defs/><g><g class="title" data-source-line="1"><text fill="#000000" font-family="sans-serif" font-size="14" font-weight="bold" lengthAdjust="spacing" textLength="344.2305" x="63.1299" y="32.9951">&#1576;&#1585;&#1605;&#1580;&#1577; &#1575;&#1606;&#1601;&#1585;&#1578;&#1585; VFD &#1604;&#1604;&#1605;&#1590;&#1582;&#1575;&#1578;: &#1578;&#1608;&#1601;&#1610;&#1585; &#1575;&#1604;&#1591;&#1575;&#1602;&#1577; &#1608;&#1575;&#1604;&#1605;&#1575;&#1604;</text></g><ellipse cx="187.9597" cy="57.2969" fill="#222222" rx="10" ry="10" style="stroke:#222222;stroke-width:1;"/><rect fill="#F1F1F1" height="33.9688" rx="12.5" ry="12.5" style="stroke:#181818;stroke-width:0.5;" width="94.8711" x="140.5242" y="87.2969"/><text fill="#000000" font-family="sans-serif" font-size="12" lengthAdjust="spacing" textLength="74.8711" x="150.5242" y="108.4355">&#1578;&#1588;&#1594;&#1610;&#1604; &#1575;&#1604;&#1605;&#1590;&#1582;&#1577;</text><rect fill="#F1F1F1" height="33.9688" rx="12.5" ry="12.5" style="stroke:#181818;stroke-width:0.5;" width="118.209" x="128.8552" y="141.2656"/><text fill="#000000" font-family="sans-serif" font-size="12" lengthAdjust="spacing" textLength="98.209" x="138.8552" y="162.4043">&#1578;&#1581;&#1604;&#1610;&#1604; &#1575;&#1604;&#1581;&#1605;&#1604; &#1575;&#1604;&#1581;&#1575;&#1604;&#1610;</text><polygon fill="#F1F1F1" points="138.0032,195.2344,237.9163,195.2344,249.9163,207.2344,237.9163,219.2344,138.0032,219.2344,126.0032,207.2344,138.0032,195.2344" style="stroke:#181818;stroke-width:0.5;"/><text fill="#000000" font-family="sans-serif" font-size="11" lengthAdjust="spacing" textLength="99.9131" x="138.0032" y="211.0425">&#1575;&#1604;&#1581;&#1605;&#1604; &lt; &#1575;&#1604;&#1581;&#1583; &#1575;&#1604;&#1571;&#1583;&#1606;&#1609;&#1567;</text><text fill="#000000" font-family="sans-serif" font-size="11" lengthAdjust="spacing" textLength="15.689" x="110.3142" y="204.6401">&#1606;&#1593;&#1605;</text><text fill="#000000" font-family="sans-serif" font-size="11" lengthAdjust="spacing" textLength="6.2734" x="249.9163" y="204.6401">&#1604;&#1575;</text><rect fill="#F1F1F1" height="33.9688" rx="12.5" ry="12.5" style="stroke:#181818;stroke-width:0.5;" width="122.5039" x="11" y="229.2344"/><text fill="#000000" font-family="sans-serif" font-size="12" lengthAdjust="spacing" textLength="102.5039" x="21" y="250.373">&#1578;&#1602;&#1604;&#1610;&#1604; &#1587;&#1585;&#1593;&#1577; &#1575;&#1604;&#1605;&#1590;&#1582;&#1577;</text><polygon fill="#F1F1F1" points="250.2922,229.2344,357.0427,229.2344,369.0427,241.2344,357.0427,253.2344,250.2922,253.2344,238.2922,241.2344,250.2922,229.2344" style="stroke:#181818;stroke-width:0.5;"/><text fill="#000000" font-family="sans-serif" font-size="11" lengthAdjust="spacing" textLength="106.7505" x="250.2922" y="245.0425">&#1575;&#1604;&#1581;&#1605;&#1604; &gt; &#1575;&#1604;&#1581;&#1583; &#1575;&#1604;&#1571;&#1602;&#1589;&#1609;&#1567;</text><text fill="#000000" font-family="sans-serif" font-size="11" lengthAdjust="spacing" textLength="15.689" x="222.6033" y="238.6401">&#1606;&#1593;&#1605;</text><text fill="#000000" font-family="sans-serif" font-size="11" lengthAdjust="spacing" textLength="6.2734" x="369.0427" y="238.6401">&#1604;&#1575;</text><rect fill="#F1F1F1" height="33.9688" rx="12.5" ry="12.5" style="stroke:#181818;stroke-width:0.5;" width="120.834" x="163.5039" y="263.2344"/><text fill="#000000" font-family="sans-serif" font-size="12" lengthAdjust="spacing" textLength="100.834" x="173.5039" y="284.373">&#1586;&#1610;&#1575;&#1583;&#1577; &#1587;&#1585;&#1593;&#1577; &#1575;&#1604;&#1605;&#1590;&#1582;&#1577;</text><rect fill="#F1F1F1" height="33.9688" rx="12.5" ry="12.5" style="stroke:#181818;stroke-width:0.5;" width="158.1523" x="304.3379" y="263.2344"/><text fill="#000000" font-family="sans-serif" font-size="12" lengthAdjust="spacing" textLength="138.1523" x="314.3379" y="284.373">&#1575;&#1604;&#1581;&#1601;&#1575;&#1592; &#1593;&#1604;&#1609; &#1575;&#1604;&#1587;&#1585;&#1593;&#1577; &#1575;&#1604;&#1581;&#1575;&#1604;&#1610;&#1577;</text><polygon fill="#F1F1F1" points="303.6675,303.2031,315.6675,315.2031,303.6675,327.2031,291.6675,315.2031,303.6675,303.2031" style="stroke:#181818;stroke-width:0.5;"/><polygon fill="#F1F1F1" points="187.9597,333.2031,199.9597,345.2031,187.9597,357.2031,175.9597,345.2031,187.9597,333.2031" style="stroke:#181818;stroke-width:0.5;"/><rect fill="#F1F1F1" height="33.9688" rx="12.5" ry="12.5" style="stroke:#181818;stroke-width:0.5;" width="132.0547" x="121.9324" y="377.2031"/><text fill="#000000" font-family="sans-serif" font-size="12" lengthAdjust="spacing" textLength="112.0547" x="131.9324" y="398.3418">&#1605;&#1585;&#1575;&#1602;&#1576;&#1577; &#1575;&#1587;&#1578;&#1607;&#1604;&#1575;&#1603; &#1575;&#1604;&#1591;&#1575;&#1602;&#1577;</text><rect fill="#F1F1F1" height="33.9688" rx="12.5" ry="12.5" style="stroke:#181818;stroke-width:0.5;" width="208.6484" x="83.6355" y="431.1719"/><text fill="#000000" font-family="sans-serif" font-size="12" lengthAdjust="spacing" textLength="188.6484" x="93.6355" y="452.3105">&#1578;&#1593;&#1583;&#1610;&#1604; &#1576;&#1575;&#1585;&#1575;&#1605;&#1578;&#1585;&#1575;&#1578; VFD &#1604;&#1578;&#1581;&#1587;&#1610;&#1606; &#1575;&#1604;&#1603;&#1601;&#1575;&#1569;&#1577;</text><ellipse cx="187.9597" cy="496.1406" fill="none" rx="11" ry="11" style="stroke:#222222;stroke-width:1;"/><ellipse cx="187.9597" cy="496.1406" fill="#222222" rx="6" ry="6" style="stroke:#222222;stroke-width:1;"/><line style="stroke:#181818;stroke-width:1;" x1="187.9597" x2="187.9597" y1="67.2969" y2="87.2969"/><polygon fill="#181818" points="183.9597,77.2969,187.9597,87.2969,191.9597,77.2969,187.9597,81.2969" style="stroke:#181818;stroke-width:1;"/><line style="stroke:#181818;stroke-width:1;" x1="187.9597" x2="187.9597" y1="121.2656" y2="141.2656"/><polygon fill="#181818" points="183.9597,131.2656,187.9597,141.2656,191.9597,131.2656,187.9597,135.2656" style="stroke:#181818;stroke-width:1;"/><line style="stroke:#181818;stroke-width:1;" x1="238.2922" x2="223.9209" y1="241.2344" y2="241.2344"/><line style="stroke:#181818;stroke-width:1;" x1="223.9209" x2="223.9209" y1="241.2344" y2="263.2344"/><polygon fill="#181818" points="219.9209,253.2344,223.9209,263.2344,227.9209,253.2344,223.9209,257.2344" style="stroke:#181818;stroke-width:1;"/><line style="stroke:#181818;stroke-width:1;" x1="369.0427" x2="383.4141" y1="241.2344" y2="241.2344"/><line style="stroke:#181818;stroke-width:1;" x1="383.4141" x2="383.4141" y1="241.2344" y2="263.2344"/><polygon fill="#181818" points="379.4141,253.2344,383.4141,263.2344,387.4141,253.2344,383.4141,257.2344" style="stroke:#181818;stroke-width:1;"/><line style="stroke:#181818;stroke-width:1;" x1="223.9209" x2="223.9209" y1="297.2031" y2="315.2031"/><line style="stroke:#181818;stroke-width:1;" x1="223.9209" x2="291.6675" y1="315.2031" y2="315.2031"/><polygon fill="#181818" points="281.6675,311.2031,291.6675,315.2031,281.6675,319.2031,285.6675,315.2031" style="stroke:#181818;stroke-width:1;"/><line style="stroke:#181818;stroke-width:1;" x1="383.4141" x2="383.4141" y1="297.2031" y2="315.2031"/><line style="stroke:#181818;stroke-width:1;" x1="383.4141" x2="315.6675" y1="315.2031" y2="315.2031"/><polygon fill="#181818" points="325.6675,311.2031,315.6675,315.2031,325.6675,319.2031,321.6675,315.2031" style="stroke:#181818;stroke-width:1;"/><line style="stroke:#181818;stroke-width:1;" x1="126.0032" x2="72.252" y1="207.2344" y2="207.2344"/><line style="stroke:#181818;stroke-width:1;" x1="72.252" x2="72.252" y1="207.2344" y2="229.2344"/><polygon fill="#181818" points="68.252,219.2344,72.252,229.2344,76.252,219.2344,72.252,223.2344" style="stroke:#181818;stroke-width:1;"/><line style="stroke:#181818;stroke-width:1;" x1="249.9163" x2="303.6675" y1="207.2344" y2="207.2344"/><line style="stroke:#181818;stroke-width:1;" x1="303.6675" x2="303.6675" y1="207.2344" y2="229.2344"/><polygon fill="#181818" points="299.6675,219.2344,303.6675,229.2344,307.6675,219.2344,303.6675,223.2344" style="stroke:#181818;stroke-width:1;"/><line style="stroke:#181818;stroke-width:1;" x1="72.252" x2="72.252" y1="263.2031" y2="345.2031"/><line style="stroke:#181818;stroke-width:1;" x1="72.252" x2="175.9597" y1="345.2031" y2="345.2031"/><polygon fill="#181818" points="165.9597,341.2031,175.9597,345.2031,165.9597,349.2031,169.9597,345.2031" style="stroke:#181818;stroke-width:1;"/><line style="stroke:#181818;stroke-width:1;" x1="303.6675" x2="303.6675" y1="327.2031" y2="345.2031"/><line style="stroke:#181818;stroke-width:1;" x1="303.6675" x2="199.9597" y1="345.2031" y2="345.2031"/><polygon fill="#181818" points="209.9597,341.2031,199.9597,345.2031,209.9597,349.2031,205.9597,345.2031" style="stroke:#181818;stroke-width:1;"/><line style="stroke:#181818;stroke-width:1;" x1="187.9597" x2="187.9597" y1="175.2344" y2="195.2344"/><polygon fill="#181818" points="183.9597,185.2344,187.9597,195.2344,191.9597,185.2344,187.9597,189.2344" style="stroke:#181818;stroke-width:1;"/><line style="stroke:#181818;stroke-width:1;" x1="187.9597" x2="187.9597" y1="357.2031" y2="377.2031"/><polygon fill="#181818" points="183.9597,367.2031,187.9597,377.2031,191.9597,367.2031,187.9597,371.2031" style="stroke:#181818;stroke-width:1;"/><line style="stroke:#181818;stroke-width:1;" x1="187.9597" x2="187.9597" y1="411.1719" y2="431.1719"/><polygon fill="#181818" points="183.9597,421.1719,187.9597,431.1719,191.9597,421.1719,187.9597,425.1719" style="stroke:#181818;stroke-width:1;"/><line style="stroke:#181818;stroke-width:1;" x1="187.9597" x2="187.9597" y1="465.1406" y2="485.1406"/><polygon fill="#181818" points="183.9597,475.1406,187.9597,485.1406,191.9597,475.1406,187.9597,479.1406" style="stroke:#181818;stroke-width:1;"/><?plantuml-src RL5TJeD047xVKynZUmLgV38UmNSJQIHfgh5x0Lh0baiOumEKg0Jh7vvavZP-imiDRHgIoIxVt-oCZUmi92wvaPHVUKjSI2OnDrnnGrUN5oG9lfI_-PqBhWBYIjOIImuOt8H_K9SGobglOA8Qix3N3zQO03QV_2Uv9DJ1QhITEEGDFte4btH_TDHyOamqfT40FUlnsXzUk4Qt6tuQaxqDvpIIZ5j9nuO8_hBi_NTuJ-iVDsWXd2r2I18kL70KTNuSXKT-dOxIi0yCfE1QCqw74Ht6gSYdnH3-4imIsVYieKC_ZCvZVXDDZQycW7lZfbywCdILF6g0h0vsuwVTObXk6YMegajrnxhKRi-w4Tw1a_dULwwrPzLZdtVt_m00?></g></svg>