<svg xmlns="http://www.w3.org/2000/svg" xmlns:xlink="http://www.w3.org/1999/xlink" contentStyleType="text/css" data-diagram-type="DESCRIPTION" height="451px" preserveAspectRatio="none" style="width:998px;height:451px;background:#FFFFFF;" version="1.1" viewBox="0 0 998 451" width="998px" zoomAndPan="magnify"><title>&#1605;&#1582;&#1591;&#1591; &#1606;&#1592;&#1575;&#1605; &#1578;&#1593;&#1586;&#1610;&#1586; &#1590;&#1594;&#1591; &#1575;&#1604;&#1605;&#1610;&#1575;&#1607; (Booster)</title><defs/><g><g class="title" data-source-line="23"><text fill="#000000" font-family="'Arial'" font-size="22" font-weight="bold" lengthAdjust="spacing" textLength="457.6494" x="266.0719" y="35.4209">&#1605;&#1582;&#1591;&#1591; &#1606;&#1592;&#1575;&#1605; &#1578;&#1593;&#1586;&#1610;&#1586; &#1590;&#1594;&#1591; &#1575;&#1604;&#1605;&#1610;&#1575;&#1607; (Booster)</text></g><!--cluster booster--><g class="cluster" data-qualified-name="booster" data-source-line="27" id="ent0003"><rect fill="#87CEFA" height="346.34" rx="10" ry="10" style="stroke:#00008B;stroke-width:2;" width="433" x="289.5327" y="58.6094"/><text fill="#000000" font-family="'Arial'" font-size="14" font-weight="bold" lengthAdjust="spacing" textLength="244.1729" x="383.9463" y="73.6045">&#1608;&#1581;&#1583;&#1577; &#1578;&#1593;&#1586;&#1610;&#1586; &#1575;&#1604;&#1590;&#1594;&#1591; (Booster Unit)</text></g><!--entity pump--><g class="entity" data-qualified-name="booster.pump" data-source-line="28" id="ent0004"><rect fill="#87CEFA" height="36.2969" rx="10" ry="10" style="stroke:#00008B;stroke-width:2;" width="137.9541" x="305.5527" y="93.6094"/><text fill="#000000" font-family="'Arial'" font-size="14" lengthAdjust="spacing" textLength="117.9541" x="315.5527" y="116.6045">1. &#1575;&#1604;&#1605;&#1590;&#1582;&#1577; (Pump)</text></g><!--entity motor--><g class="entity" data-qualified-name="booster.motor" data-source-line="29" id="ent0005"><rect fill="#87CEFA" height="36.2969" rx="10" ry="10" style="stroke:#00008B;stroke-width:2;" width="196.4287" x="310.3127" y="286.3594"/><text fill="#000000" font-family="'Arial'" font-size="14" lengthAdjust="spacing" textLength="176.4287" x="320.3127" y="309.3545">2. &#1575;&#1604;&#1605;&#1581;&#1585;&#1603; &#1575;&#1604;&#1603;&#1607;&#1585;&#1576;&#1575;&#1574;&#1610; (Motor)</text></g><!--entity tank--><g class="entity" data-qualified-name="booster.tank" data-source-line="30" id="ent0006"><rect fill="#87CEFA" height="36.2969" rx="10" ry="10" style="stroke:#00008B;stroke-width:2;" width="227.7236" x="478.6727" y="93.6094"/><text fill="#000000" font-family="'Arial'" font-size="14" lengthAdjust="spacing" textLength="207.7236" x="488.6727" y="116.6045">3. &#1582;&#1586;&#1575;&#1606; &#1575;&#1604;&#1590;&#1594;&#1591; (Pressure Tank)</text></g><!--entity pressure_switch--><g class="entity" data-qualified-name="booster.pressure_switch" data-source-line="31" id="ent0007"><rect fill="#87CEFA" height="36.2969" rx="10" ry="10" style="stroke:#00008B;stroke-width:2;" width="251.8477" x="435.6127" y="220.0594"/><text fill="#000000" font-family="'Arial'" font-size="14" lengthAdjust="spacing" textLength="231.8477" x="445.6127" y="243.0545">4. &#1581;&#1587;&#1575;&#1587; &#1575;&#1604;&#1590;&#1594;&#1591; (Pressure Switch)</text></g><!--entity control_panel--><g class="entity" data-qualified-name="booster.control_panel" data-source-line="32" id="ent0008"><rect fill="#87CEFA" height="36.2969" rx="10" ry="10" style="stroke:#00008B;stroke-width:2;" width="217.5176" x="376.7727" y="352.6494"/><text fill="#000000" font-family="'Arial'" font-size="14" lengthAdjust="spacing" textLength="197.5176" x="386.7727" y="375.6445">5. &#1604;&#1608;&#1581;&#1577; &#1575;&#1604;&#1578;&#1581;&#1603;&#1605; (Control Panel)</text></g><!--entity source--><g class="entity" data-qualified-name="source" data-source-line="25" id="ent0002"><path d="M20.7946,89.9542 C23.3876,84.7725 28.7143,84.2 32.0692,89.1022 C36.7266,83.8651 40.6702,83.4534 44.6625,89.8236 C47.7192,83.7621 51.6744,83.5886 56.0701,88.4215 C60.1601,82.8675 63.9625,82.6344 67.7113,88.7616 C70.7262,83.1115 76.9298,82.0441 80.5106,88.1452 C84.3963,82.8454 89.5424,83.7703 92.5952,89.0927 C95.8025,83.3866 99.6804,82.6097 104.2715,87.5791 C108.4971,82.4857 111.6879,83.5691 114.9082,88.632 C118.9171,81.7072 123.7611,81.8509 127.7354,88.6643 C131.4294,82.2349 135.1881,82.3843 139.4315,88.1368 C143.4804,83.0842 147.7915,84.1615 150.2588,89.7466 C153.3969,84.625 158.7623,84.9208 161.3521,90.3244 C166.7249,93.6261 167.1803,98.0653 161.9348,101.9014 C167.8335,104.3139 168.1249,108.1619 163.2757,112.0013 C170.06,115.7347 169.9463,120.6138 163.8384,124.9092 C169.3859,129.3341 168.6324,133.257 162.5448,136.3684 C159.3234,142.4105 154.0658,141.6793 150.6156,136.6142 C147.5681,143.2294 143.0081,143.497 138.5195,138.0607 C135.8063,142.7067 130.4778,143.6727 127.7352,138.0917 C125.4578,145.5457 118.9742,145.4899 114.8937,139.8616 C112.412,144.9579 107.1593,146.0346 104.0182,140.5386 C99.9456,145.6031 96.0647,145.5969 91.9738,140.5605 C88.1171,145.5882 83.5369,146.9708 79.7853,140.4497 C75.6744,145.7696 71.2703,143.9879 68.7197,138.8057 C66.2735,145.1642 60.4306,144.1598 57.1667,139.6771 C52.1954,145.5911 46.5518,144.6898 44.2625,137.1119 C40.1462,141.3602 36.8221,140.7751 33.5271,136.1215 C29.9038,141.8683 25.7561,140.7425 22.476,135.7678 C16.6944,134.143 14.7252,128.6122 19.1309,124.0733 C12.1103,122.2019 11,117.675 15.4122,112.2176 C11.7475,107.2703 12.3335,101.4566 19.706,100.5824 C14.7618,96.9904 14.7836,92.4241 20.7946,89.9542" fill="#D3D3D3" style="stroke:#808080;stroke-width:1;"/><text fill="#000000" font-family="'Arial'" font-size="14" lengthAdjust="spacing" textLength="70.2734" x="27.3027" y="108.4645">&#1605;&#1589;&#1583;&#1585; &#1575;&#1604;&#1605;&#1610;&#1575;&#1607;</text><text fill="#000000" font-family="'Arial'" font-size="14" lengthAdjust="spacing" textLength="126.458" x="27.3027" y="124.7614">(&#1582;&#1586;&#1575;&#1606; &#1571;&#1608; &#1582;&#1591; &#1585;&#1574;&#1610;&#1587;&#1610;)</text></g><!--entity destination--><g class="entity" data-qualified-name="destination" data-source-line="35" id="ent0009"><polygon fill="#90EE90" points="833.2727,90.4694,843.2727,80.4694,981.7932,80.4694,981.7932,133.0631,971.7932,143.0631,833.2727,143.0631,833.2727,90.4694" style="stroke:#006400;stroke-width:1;"/><line style="stroke:#006400;stroke-width:1;" x1="971.7932" x2="981.7932" y1="90.4694" y2="80.4694"/><line style="stroke:#006400;stroke-width:1;" x1="833.2727" x2="971.7932" y1="90.4694" y2="90.4694"/><line style="stroke:#006400;stroke-width:1;" x1="971.7932" x2="971.7932" y1="90.4694" y2="143.0631"/><text fill="#000000" font-family="'Arial'" font-size="14" lengthAdjust="spacing" textLength="40.1064" x="848.2727" y="113.4645">&#1575;&#1604;&#1588;&#1576;&#1603;&#1577;</text><text fill="#000000" font-family="'Arial'" font-size="14" lengthAdjust="spacing" textLength="4.4502" x="888.3791" y="113.4645">&#160;</text><text fill="#000000" font-family="'Arial'" font-size="14" lengthAdjust="spacing" textLength="44.4131" x="892.8293" y="113.4645">&#1575;&#1604;&#1583;&#1575;&#1582;&#1604;&#1610;&#1577;</text><text fill="#000000" font-family="'Arial'" font-size="14" lengthAdjust="spacing" textLength="46.2041" x="848.2727" y="129.7614">(&#1589;&#1606;&#1575;&#1576;&#1610;&#1585;&#1548;</text><text fill="#000000" font-family="'Arial'" font-size="14" lengthAdjust="spacing" textLength="4.4502" x="894.4768" y="129.7614">&#160;</text><text fill="#000000" font-family="'Arial'" font-size="14" lengthAdjust="spacing" textLength="34.6035" x="898.927" y="129.7614">&#1583;&#1608;&#1588;&#1548;</text><text fill="#000000" font-family="'Arial'" font-size="14" lengthAdjust="spacing" textLength="4.4502" x="933.5305" y="129.7614">&#160;</text><text fill="#000000" font-family="'Arial'" font-size="14" lengthAdjust="spacing" textLength="18.8125" x="937.9807" y="129.7614">...)</text></g><!--link source to pump--><g class="link" data-entity-1="ent0002" data-entity-2="ent0004" data-link-type="dependency" data-source-line="38" id="lnk10"><path d="M168.8927,111.7594 C211.5727,111.7594 257.9427,111.7594 299.1427,111.7594" fill="none" id="source-to-pump" style="stroke:#0000FF;stroke-width:2;"/><polygon fill="#0000FF" points="305.1427,111.7594,296.1427,107.7594,300.1427,111.7594,296.1427,115.7594,305.1427,111.7594" style="stroke:#0000FF;stroke-width:2;"/><text fill="#000000" font-family="'Arial'" font-size="13" lengthAdjust="spacing" textLength="100.585" x="187.1527" y="104.8263">&#1605;&#1575;&#1569; &#1576;&#1590;&#1594;&#1591; &#1605;&#1606;&#1582;&#1601;&#1590;</text></g><!--link pump to tank--><g class="link" data-entity-1="ent0004" data-entity-2="ent0006" data-link-type="dependency" data-source-line="39" id="lnk11"><path d="M443.9327,111.7594 C455.3527,111.7594 460.7627,111.7594 472.1827,111.7594" fill="none" id="pump-to-tank" style="stroke:#0000FF;stroke-width:2;"/><polygon fill="#0000FF" points="478.1827,111.7594,469.1827,107.7594,473.1827,111.7594,469.1827,115.7594,478.1827,111.7594" style="stroke:#0000FF;stroke-width:2;"/></g><!--link tank to destination--><g class="link" data-entity-1="ent0006" data-entity-2="ent0009" data-link-type="dependency" data-source-line="40" id="lnk12"><path d="M706.7027,111.7594 C748.7827,111.7594 789.3327,111.7594 827.0227,111.7594" fill="none" id="tank-to-destination" style="stroke:#0000FF;stroke-width:2;"/><polygon fill="#0000FF" points="833.0227,111.7594,824.0227,107.7594,828.0227,111.7594,824.0227,115.7594,833.0227,111.7594" style="stroke:#0000FF;stroke-width:2;"/><text fill="#000000" font-family="'Arial'" font-size="13" lengthAdjust="spacing" textLength="90.0542" x="724.8327" y="104.8263">&#1605;&#1575;&#1569; &#1576;&#1590;&#1594;&#1591; &#1605;&#1585;&#1578;&#1601;&#1593;</text></g><!--reverse link pump to motor--><g class="link" data-entity-1="ent0004" data-entity-2="ent0005" data-link-type="dependency" data-source-line="42" id="lnk14"><path d="M378.7247,136.2764 C385.1947,172.6064 398.9327,249.6394 405.4027,285.9394" fill="none" id="pump-backto-motor" style="stroke:#0000FF;stroke-width:2;stroke-dasharray:7,7;"/><polygon fill="#0000FF" points="377.6727,130.3694,375.3126,139.9313,378.5493,135.2919,383.1887,138.5286,377.6727,130.3694" style="stroke:#0000FF;stroke-width:2;"/><text fill="#000000" font-family="'Arial'" font-size="13" lengthAdjust="spacing" textLength="123.1318" x="388.5327" y="186.1263">&#1610;&#1608;&#1601;&#1585; &#1575;&#1604;&#1591;&#1575;&#1602;&#1577; &#1575;&#1604;&#1605;&#1610;&#1603;&#1575;&#1606;&#1610;&#1603;&#1610;&#1577;</text></g><!--link pressure_switch to control_panel--><g class="link" data-entity-1="ent0007" data-entity-2="ent0008" data-link-type="dependency" data-source-line="43" id="lnk15"><path d="M552.9827,256.7794 C544.4927,273.8794 530.8527,300.4694 517.5327,322.6494 C511.5227,332.6594 507.6855,338.5384 501.5955,347.2684" fill="none" id="pressure_switch-to-control_panel" style="stroke:#0000FF;stroke-width:2;stroke-dasharray:7,7;"/><polygon fill="#0000FF" points="498.1627,352.1894,506.5926,347.0965,501.0234,348.0886,500.0313,342.5194,498.1627,352.1894" style="stroke:#0000FF;stroke-width:2;"/><text fill="#000000" font-family="'Arial'" font-size="13" lengthAdjust="spacing" textLength="108.8052" x="538.5327" y="309.0663">&#1610;&#1585;&#1587;&#1604; &#1573;&#1588;&#1575;&#1585;&#1577; &#1575;&#1604;&#1590;&#1594;&#1591;</text></g><!--reverse link motor to control_panel--><g class="link" data-entity-1="ent0005" data-entity-2="ent0008" data-link-type="dependency" data-source-line="44" id="lnk17"><path d="M434.1758,326.918 C445.0358,335.998 453.6527,343.1794 464.5127,352.2494" fill="none" id="motor-backto-control_panel" style="stroke:#0000FF;stroke-width:2;stroke-dasharray:7,7;"/><polygon fill="#0000FF" points="429.5727,323.0694,433.9115,331.911,433.4086,326.2765,439.043,325.7736,429.5727,323.0694" style="stroke:#0000FF;stroke-width:2;"/></g><!--link tank to pressure_switch--><g class="link" data-entity-1="ent0006" data-entity-2="ent0007" data-link-type="dependency" data-source-line="45" id="lnk18"><path d="M588.1527,130.3294 C582.2527,154.0494 573.2338,190.2375 567.3338,213.9075" fill="none" id="tank-to-pressure_switch" style="stroke:#0000FF;stroke-width:2;stroke-dasharray:7,7;"/><polygon fill="#0000FF" points="565.8827,219.7294,571.9407,211.964,567.092,214.8778,564.1782,210.0291,565.8827,219.7294" style="stroke:#0000FF;stroke-width:2;"/><text fill="#000000" font-family="'Arial'" font-size="13" lengthAdjust="spacing" textLength="101.2959" x="577.5327" y="186.1263">(&#1610;&#1602;&#1610;&#1587; &#1575;&#1604;&#1590;&#1594;&#1591; &#1607;&#1606;&#1575;)</text></g><g class="footer" data-source-line="47"><text fill="#000000" font-family="'Arial'" font-size="10" lengthAdjust="spacing" textLength="3.1787" x="493.3072" y="424.2316">&#160;</text><text fill="#000000" font-family="'Arial'" font-size="10" lengthAdjust="spacing" textLength="65.6201" x="462.0865" y="435.8722">&#1585;&#1608;&#1575;&#1574;&#1593; &#1575;&#1604;&#1603;&#1585;&#1610;&#1587;&#1578;&#1575;&#1604;</text></g></g></svg>