<?plantuml 1.2026.2beta3?><svg xmlns="http://www.w3.org/2000/svg" xmlns:xlink="http://www.w3.org/1999/xlink" contentStyleType="text/css" data-diagram-type="ACTIVITY" height="743px" preserveAspectRatio="none" style="width:546px;height:743px;background:#FFFFFF;" version="1.1" viewBox="0 0 546 743" width="546px" zoomAndPan="magnify"><title>&#1605;&#1582;&#1591;&#1591; &#1578;&#1608;&#1585;&#1610;&#1583; &#1605;&#1590;&#1582;&#1575;&#1578; &#1575;&#1604;&#1605;&#1610;&#1575;&#1607; - &#1585;&#1608;&#1575;&#1574;&#1593; &#1575;&#1604;&#1603;&#1585;&#1610;&#1587;&#1578;&#1575;&#1604;</title><defs/><g><g class="title" data-source-line="8"><text fill="#000000" font-family="sans-serif" font-size="14" font-weight="bold" lengthAdjust="spacing" textLength="314.3438" x="114.6604" y="32.9951">&#1605;&#1582;&#1591;&#1591; &#1578;&#1608;&#1585;&#1610;&#1583; &#1605;&#1590;&#1582;&#1575;&#1578; &#1575;&#1604;&#1605;&#1610;&#1575;&#1607; - &#1585;&#1608;&#1575;&#1574;&#1593; &#1575;&#1604;&#1603;&#1585;&#1610;&#1587;&#1578;&#1575;&#1604;</text></g><ellipse cx="246.8979" cy="57.2969" fill="#222222" rx="10" ry="10" style="stroke:#222222;stroke-width:1;"/><rect fill="#E6F2FF" height="36.2969" rx="12.5" ry="12.5" style="stroke:#0066CC;stroke-width:0.5;" width="215.2686" x="139.2637" y="87.2969"/><text fill="#000000" font-family="sans-serif" font-size="14" lengthAdjust="spacing" textLength="195.2686" x="149.2637" y="110.292">&#1576;&#1583;&#1575;&#1610;&#1577; &#1575;&#1604;&#1591;&#1604;&#1576; (&#1575;&#1604;&#1581;&#1575;&#1580;&#1577; &#1604;&#1605;&#1590;&#1582;&#1577; &#1605;&#1610;&#1575;&#1607;)</text><rect fill="#E6F2FF" height="36.2969" rx="12.5" ry="12.5" style="stroke:#0066CC;stroke-width:0.5;" width="194.5898" x="149.603" y="143.5938"/><text fill="#000000" font-family="sans-serif" font-size="14" lengthAdjust="spacing" textLength="174.5898" x="159.603" y="166.5889">&#1575;&#1604;&#1578;&#1608;&#1575;&#1589;&#1604; &#1605;&#1593; "&#1585;&#1608;&#1575;&#1574;&#1593; &#1575;&#1604;&#1603;&#1585;&#1610;&#1587;&#1578;&#1575;&#1604;"</text><rect fill="none" height="140.8906" style="stroke:#000000;stroke-width:1.5;" width="483.7959" x="11" y="189.8906"/><path d="M125.8428,189.8906 L125.8428,199.1875 L115.8428,209.1875 L11,209.1875" fill="none" style="stroke:#000000;stroke-width:1.5;"/><text fill="#000000" font-family="sans-serif" font-size="14" lengthAdjust="spacing" textLength="104.8428" x="14" y="203.8857">&#1578;&#1581;&#1583;&#1610;&#1583; &#1606;&#1608;&#1593; &#1575;&#1604;&#1605;&#1590;&#1582;&#1577;</text><line style="stroke:#0066CC;stroke-width:1.5;" x1="76.0083" x2="398.2915" y1="226.1875" y2="226.1875"/><rect fill="#E6F2FF" height="52.5938" rx="12.5" ry="12.5" style="stroke:#0066CC;stroke-width:0.5;" width="106.0166" x="23" y="246.1875"/><text fill="#000000" font-family="sans-serif" font-size="14" lengthAdjust="spacing" textLength="86.0166" x="33" y="269.1826">&#1605;&#1590;&#1582;&#1575;&#1578; &#1605;&#1606;&#1586;&#1604;&#1610;&#1577;</text><text fill="#000000" font-family="sans-serif" font-size="14" lengthAdjust="spacing" textLength="75.0586" x="33" y="285.4795">(&#1578;&#1602;&#1608;&#1610;&#1577; / &#1585;&#1601;&#1593;)</text><rect fill="#E6F2FF" height="52.5938" rx="12.5" ry="12.5" style="stroke:#0066CC;stroke-width:0.5;" width="140.7705" x="157.0166" y="246.1875"/><text fill="#000000" font-family="sans-serif" font-size="14" lengthAdjust="spacing" textLength="88.0674" x="167.0166" y="269.1826">&#1605;&#1590;&#1582;&#1575;&#1578; &#1586;&#1585;&#1575;&#1593;&#1610;&#1577;</text><text fill="#000000" font-family="sans-serif" font-size="14" lengthAdjust="spacing" textLength="120.7705" x="167.0166" y="285.4795">(&#1594;&#1591;&#1575;&#1587;&#1575;&#1578; / &#1587;&#1591;&#1581;&#1610;&#1577;)</text><rect fill="#E6F2FF" height="52.5938" rx="12.5" ry="12.5" style="stroke:#0066CC;stroke-width:0.5;" width="145.0088" x="325.7871" y="246.1875"/><text fill="#000000" font-family="sans-serif" font-size="14" lengthAdjust="spacing" textLength="91.0342" x="335.7871" y="269.1826">&#1605;&#1590;&#1582;&#1575;&#1578; &#1589;&#1606;&#1575;&#1593;&#1610;&#1577;</text><text fill="#000000" font-family="sans-serif" font-size="14" lengthAdjust="spacing" textLength="125.0088" x="335.7871" y="285.4795">(&#1589;&#1585;&#1601; &#1589;&#1581;&#1610; / &#1578;&#1581;&#1604;&#1610;&#1577;)</text><line style="stroke:#0066CC;stroke-width:1.5;" x1="76.0083" x2="398.2915" y1="318.7813" y2="318.7813"/><rect fill="#E6F2FF" height="36.2969" rx="12.5" ry="12.5" style="stroke:#0066CC;stroke-width:0.5;" width="180.3438" x="156.7261" y="350.7813"/><text fill="#000000" font-family="sans-serif" font-size="14" lengthAdjust="spacing" textLength="160.3438" x="166.7261" y="373.7764">&#1578;&#1580;&#1607;&#1610;&#1586; &#1575;&#1604;&#1591;&#1604;&#1576; &#1608;&#1601;&#1581;&#1589; &#1575;&#1604;&#1580;&#1608;&#1583;&#1577;</text><path d="M340.1133,405.0938 L340.1133,421.2266 L320.1133,425.2266 L340.1133,429.2266 L340.1133,445.3594 A0,0 0 0 0 340.1133,445.3594 L534.6646,445.3594 A0,0 0 0 0 534.6646,445.3594 L534.6646,415.0938 L524.6646,405.0938 L340.1133,405.0938 A0,0 0 0 0 340.1133,405.0938" fill="#FEFFDD" style="stroke:#181818;stroke-width:0.5;"/><path d="M524.6646,405.0938 L524.6646,415.0938 L534.6646,415.0938 L524.6646,405.0938" fill="#FEFFDD" style="stroke:#181818;stroke-width:0.5;"/><text fill="#000000" font-family="sans-serif" font-size="13" lengthAdjust="spacing" textLength="103.5112" x="346.1133" y="422.1606">&#1578;&#1594;&#1591;&#1610;&#1577; &#1588;&#1575;&#1605;&#1604;&#1577; &#1604;&#1580;&#1605;&#1610;&#1593;</text><text fill="#000000" font-family="sans-serif" font-size="13" lengthAdjust="spacing" textLength="173.5513" x="346.1133" y="437.2935">&#1605;&#1606;&#1575;&#1591;&#1602; &#1575;&#1604;&#1605;&#1605;&#1604;&#1603;&#1577; &#1575;&#1604;&#1593;&#1585;&#1576;&#1610;&#1577; &#1575;&#1604;&#1587;&#1593;&#1608;&#1583;&#1610;&#1577;</text><rect fill="#E6F2FF" height="36.2969" rx="12.5" ry="12.5" style="stroke:#0066CC;stroke-width:0.5;" width="146.4307" x="173.6826" y="407.0781"/><text fill="#000000" font-family="sans-serif" font-size="14" lengthAdjust="spacing" textLength="126.4307" x="183.6826" y="430.0732">&#1593;&#1605;&#1604;&#1610;&#1577; &#1575;&#1604;&#1578;&#1608;&#1585;&#1610;&#1583; &#1608;&#1575;&#1604;&#1588;&#1581;&#1606;</text><rect fill="#E6F2FF" height="36.2969" rx="12.5" ry="12.5" style="stroke:#0066CC;stroke-width:0.5;" width="174.7041" x="159.5459" y="465.3594"/><text fill="#000000" font-family="sans-serif" font-size="14" lengthAdjust="spacing" textLength="154.7041" x="169.5459" y="488.3545">&#1608;&#1589;&#1608;&#1604; &#1575;&#1604;&#1605;&#1606;&#1578;&#1580; &#1604;&#1605;&#1608;&#1602;&#1593; &#1575;&#1604;&#1593;&#1605;&#1610;&#1604;</text><polygon fill="#E6F2FF" points="180.3159,521.6563,313.48,521.6563,325.48,533.6563,313.48,545.6563,180.3159,545.6563,168.3159,533.6563,180.3159,521.6563" style="stroke:#0066CC;stroke-width:0.5;"/><text fill="#000000" font-family="sans-serif" font-size="14" lengthAdjust="spacing" textLength="133.1641" x="180.3159" y="538.5029">&#1607;&#1604; &#1578;&#1608;&#1580;&#1583; &#1582;&#1583;&#1605;&#1577; &#1578;&#1585;&#1603;&#1610;&#1576;&#1567;</text><text fill="#000000" font-family="sans-serif" font-size="11" lengthAdjust="spacing" textLength="15.689" x="152.627" y="531.062">&#1606;&#1593;&#1605;</text><text fill="#000000" font-family="sans-serif" font-size="11" lengthAdjust="spacing" textLength="64.8882" x="325.48" y="531.062">&#1604;&#1575; - &#1578;&#1608;&#1585;&#1610;&#1583; &#1601;&#1602;&#1591;</text><rect fill="#E6F2FF" height="36.2969" rx="12.5" ry="12.5" style="stroke:#0066CC;stroke-width:0.5;" width="175.7842" x="65.5366" y="555.6563"/><text fill="#000000" font-family="sans-serif" font-size="14" lengthAdjust="spacing" textLength="155.7842" x="75.5366" y="578.6514">&#1575;&#1604;&#1578;&#1585;&#1603;&#1610;&#1576; &#1608;&#1575;&#1604;&#1578;&#1588;&#1594;&#1610;&#1604; &#1575;&#1604;&#1578;&#1580;&#1585;&#1610;&#1576;&#1610;</text><rect fill="#E6F2FF" height="36.2969" rx="12.5" ry="12.5" style="stroke:#0066CC;stroke-width:0.5;" width="158.0928" x="261.3208" y="555.6563"/><text fill="#000000" font-family="sans-serif" font-size="14" lengthAdjust="spacing" textLength="138.0928" x="271.3208" y="578.6514">&#1578;&#1587;&#1604;&#1610;&#1605; &#1575;&#1604;&#1605;&#1590;&#1582;&#1577; &#1608;&#1575;&#1604;&#1590;&#1605;&#1575;&#1606;</text><polygon fill="#E6F2FF" points="246.8979,597.9531,258.8979,609.9531,246.8979,621.9531,234.8979,609.9531,246.8979,597.9531" style="stroke:#0066CC;stroke-width:0.5;"/><rect fill="#E6F2FF" height="36.2969" rx="12.5" ry="12.5" style="stroke:#0066CC;stroke-width:0.5;" width="192.1904" x="150.8027" y="641.9531"/><text fill="#000000" font-family="sans-serif" font-size="14" lengthAdjust="spacing" textLength="172.1904" x="160.8027" y="664.9482">&#1575;&#1606;&#1578;&#1607;&#1575;&#1569; &#1575;&#1604;&#1593;&#1605;&#1604;&#1610;&#1577; (&#1575;&#1604;&#1582;&#1583;&#1605;&#1577; &#1605;&#1603;&#1578;&#1605;&#1604;&#1577;)</text><ellipse cx="246.8979" cy="709.25" fill="none" rx="11" ry="11" style="stroke:#222222;stroke-width:1;"/><ellipse cx="246.8979" cy="709.25" fill="#222222" rx="6" ry="6" style="stroke:#222222;stroke-width:1;"/><line style="stroke:#0066CC;stroke-width:1;" x1="246.8979" x2="246.8979" y1="67.2969" y2="87.2969"/><polygon fill="#0066CC" points="242.8979,77.2969,246.8979,87.2969,250.8979,77.2969,246.8979,81.2969" style="stroke:#0066CC;stroke-width:1;"/><line style="stroke:#0066CC;stroke-width:1;" x1="246.8979" x2="246.8979" y1="123.5938" y2="143.5938"/><polygon fill="#0066CC" points="242.8979,133.5938,246.8979,143.5938,250.8979,133.5938,246.8979,137.5938" style="stroke:#0066CC;stroke-width:1;"/><line style="stroke:#0066CC;stroke-width:1;" x1="76.0083" x2="76.0083" y1="227.6875" y2="246.1875"/><polygon fill="#0066CC" points="72.0083,236.1875,76.0083,246.1875,80.0083,236.1875,76.0083,240.1875" style="stroke:#0066CC;stroke-width:1;"/><line style="stroke:#0066CC;stroke-width:1;" x1="227.4019" x2="227.4019" y1="227.6875" y2="246.1875"/><polygon fill="#0066CC" points="223.4019,236.1875,227.4019,246.1875,231.4019,236.1875,227.4019,240.1875" style="stroke:#0066CC;stroke-width:1;"/><line style="stroke:#0066CC;stroke-width:1;" x1="398.2915" x2="398.2915" y1="227.6875" y2="246.1875"/><polygon fill="#0066CC" points="394.2915,236.1875,398.2915,246.1875,402.2915,236.1875,398.2915,240.1875" style="stroke:#0066CC;stroke-width:1;"/><line style="stroke:#0066CC;stroke-width:1;" x1="76.0083" x2="76.0083" y1="298.7813" y2="318.7813"/><polygon fill="#0066CC" points="72.0083,308.7813,76.0083,318.7813,80.0083,308.7813,76.0083,312.7813" style="stroke:#0066CC;stroke-width:1;"/><line style="stroke:#0066CC;stroke-width:1;" x1="227.4019" x2="227.4019" y1="298.7813" y2="318.7813"/><polygon fill="#0066CC" points="223.4019,308.7813,227.4019,318.7813,231.4019,308.7813,227.4019,312.7813" style="stroke:#0066CC;stroke-width:1;"/><line style="stroke:#0066CC;stroke-width:1;" x1="398.2915" x2="398.2915" y1="298.7813" y2="318.7813"/><polygon fill="#0066CC" points="394.2915,308.7813,398.2915,318.7813,402.2915,308.7813,398.2915,312.7813" style="stroke:#0066CC;stroke-width:1;"/><line style="stroke:#0066CC;stroke-width:1;" x1="246.8979" x2="246.8979" y1="179.8906" y2="226.1875"/><polygon fill="#0066CC" points="242.8979,216.1875,246.8979,226.1875,250.8979,216.1875,246.8979,220.1875" style="stroke:#0066CC;stroke-width:1;"/><line style="stroke:#0066CC;stroke-width:1;" x1="246.8979" x2="246.8979" y1="320.2813" y2="350.7813"/><polygon fill="#0066CC" points="242.8979,340.7813,246.8979,350.7813,250.8979,340.7813,246.8979,344.7813" style="stroke:#0066CC;stroke-width:1;"/><line style="stroke:#0066CC;stroke-width:1;" x1="246.8979" x2="246.8979" y1="387.0781" y2="407.0781"/><polygon fill="#0066CC" points="242.8979,397.0781,246.8979,407.0781,250.8979,397.0781,246.8979,401.0781" style="stroke:#0066CC;stroke-width:1;"/><line style="stroke:#0066CC;stroke-width:1;" x1="246.8979" x2="246.8979" y1="443.375" y2="465.3594"/><polygon fill="#0066CC" points="242.8979,455.3594,246.8979,465.3594,250.8979,455.3594,246.8979,459.3594" style="stroke:#0066CC;stroke-width:1;"/><line style="stroke:#0066CC;stroke-width:1;" x1="168.3159" x2="153.4287" y1="533.6563" y2="533.6563"/><line style="stroke:#0066CC;stroke-width:1;" x1="153.4287" x2="153.4287" y1="533.6563" y2="555.6563"/><polygon fill="#0066CC" points="149.4287,545.6563,153.4287,555.6563,157.4287,545.6563,153.4287,549.6563" style="stroke:#0066CC;stroke-width:1;"/><line style="stroke:#0066CC;stroke-width:1;" x1="325.48" x2="340.3672" y1="533.6563" y2="533.6563"/><line style="stroke:#0066CC;stroke-width:1;" x1="340.3672" x2="340.3672" y1="533.6563" y2="555.6563"/><polygon fill="#0066CC" points="336.3672,545.6563,340.3672,555.6563,344.3672,545.6563,340.3672,549.6563" style="stroke:#0066CC;stroke-width:1;"/><line style="stroke:#0066CC;stroke-width:1;" x1="153.4287" x2="153.4287" y1="591.9531" y2="609.9531"/><line style="stroke:#0066CC;stroke-width:1;" x1="153.4287" x2="234.8979" y1="609.9531" y2="609.9531"/><polygon fill="#0066CC" points="224.8979,605.9531,234.8979,609.9531,224.8979,613.9531,228.8979,609.9531" style="stroke:#0066CC;stroke-width:1;"/><line style="stroke:#0066CC;stroke-width:1;" x1="340.3672" x2="340.3672" y1="591.9531" y2="609.9531"/><line style="stroke:#0066CC;stroke-width:1;" x1="340.3672" x2="258.8979" y1="609.9531" y2="609.9531"/><polygon fill="#0066CC" points="268.8979,605.9531,258.8979,609.9531,268.8979,613.9531,264.8979,609.9531" style="stroke:#0066CC;stroke-width:1;"/><line style="stroke:#0066CC;stroke-width:1;" x1="246.8979" x2="246.8979" y1="501.6563" y2="521.6563"/><polygon fill="#0066CC" points="242.8979,511.6563,246.8979,521.6563,250.8979,511.6563,246.8979,515.6563" style="stroke:#0066CC;stroke-width:1;"/><line style="stroke:#0066CC;stroke-width:1;" x1="246.8979" x2="246.8979" y1="621.9531" y2="641.9531"/><polygon fill="#0066CC" points="242.8979,631.9531,246.8979,641.9531,250.8979,631.9531,246.8979,635.9531" style="stroke:#0066CC;stroke-width:1;"/><line style="stroke:#0066CC;stroke-width:1;" x1="246.8979" x2="246.8979" y1="678.25" y2="698.25"/><polygon fill="#0066CC" points="242.8979,688.25,246.8979,698.25,250.8979,688.25,246.8979,692.25" style="stroke:#0066CC;stroke-width:1;"/><g class="footer" data-source-line="49"><text fill="#888888" font-family="sans-serif" font-size="10" lengthAdjust="spacing" textLength="208.3691" x="167.6477" y="728.5322">&#1578;&#1605; &#1575;&#1604;&#1573;&#1606;&#1588;&#1575;&#1569; &#1576;&#1608;&#1575;&#1587;&#1591;&#1577; &#1605;&#1607;&#1606;&#1583;&#1587; &#1578;&#1602;&#1606;&#1610; - &#1585;&#1608;&#1575;&#1574;&#1593; &#1575;&#1604;&#1603;&#1585;&#1610;&#1587;&#1578;&#1575;&#1604;</text></g><?plantuml-src ZLJTZj9G4BxlKvpW3LmOLsEusBroYRo0la1T2jiijgIj6ZLU0AKGNi9ueOK6jk5lIVT9vhoDtvpJGbatQXEITiuttyptpHpy6zlfcPxvNhmphsuwdll1QJNShkk99qtr6Fu1qR8zwogmNKUylIo5No7sqGu-NpuaU5rllZWXE21ThsLvEUhih5vlD1v1DLqdU6D_iSJpb-LJptC_dQOQWHrqBI57T4jxsWjAv8HMSaefn-uGZIaH5CjGZX2DvLWy5G1C4Fz5cJuPgemD9Vnb67vWUe5XdDECKaIcD5SmskCt4rNrlaJ-0WVCgyhWDIzGk-1S1YMgp4w6t4icAd-jMq4QP48Fkrn1S4cf5X8XBK_9YrN4LqFWyNjTEr1l_9oN9AERYDR8GFi7G1Kj3UH4INh6DlGfGxi79c5sJDjvb8_MjC9Bze3l7gx7aC0GC6xmkMJ8_xBkqEMVh3jk3OVCnRJmGYl9QIsdbKl_nbudj91Z7A_BSuBCFYpSwTW25gOqLwF9u4ru76jfOoOgi4MrwC9mtC0IdjsvrWQZ2iJgj2rmu53p1pKFFbCWvNeCsA3OkP6QSrugWuUpO-KDMfce8SyDbiGLqI1YEtGV5XGH2rIRXkWWtmIbOYf3ABBReWhzeLx-1OJ0tHGkpxdfbHoYm8o-rqHmRJc0HfnRK_tcUrg02WSIABndzjmXaB93QFt2iBg-1PAGOhv99VFww6rVq2QqOO_bw6Hj2_ux16Bs6AhjjhukK2d7yEx7KPuUahvmXIA4Xq0gz_cc-O7RCuos2-iyRaSNf9_WssgscRfql9agUuoJb3P2NOK8-_MF_uFV?></g></svg>