<svg xmlns="http://www.w3.org/2000/svg" xmlns:xlink="http://www.w3.org/1999/xlink" contentStyleType="text/css" data-diagram-type="DESCRIPTION" height="575px" preserveAspectRatio="none" style="width:935px;height:575px;background:#FFFFFF;" version="1.1" viewBox="0 0 935 575" width="935px" zoomAndPan="magnify"><title>&#1605;&#1582;&#1591;&#1591; &#1605;&#1603;&#1608;&#1606;&#1575;&#1578; &#1605;&#1590;&#1582;&#1575;&#1578; &#1575;&#1604;&#1570;&#1576;&#1575;&#1585; (&#1575;&#1604;&#1594;&#1575;&#1591;&#1587;&#1577; &#1608;&#1575;&#1604;&#1578;&#1608;&#1585;&#1576;&#1610;&#1606;&#1610;&#1577;)</title><defs/><g><g class="title" data-source-line="5"><text fill="#000000" font-family="Arial" font-size="14" font-weight="bold" lengthAdjust="spacing" textLength="351.8252" x="284.5874" y="22.9951">&#1605;&#1582;&#1591;&#1591; &#1605;&#1603;&#1608;&#1606;&#1575;&#1578; &#1605;&#1590;&#1582;&#1575;&#1578; &#1575;&#1604;&#1570;&#1576;&#1575;&#1585; (&#1575;&#1604;&#1594;&#1575;&#1591;&#1587;&#1577; &#1608;&#1575;&#1604;&#1578;&#1608;&#1585;&#1576;&#1610;&#1606;&#1610;&#1577;)</text></g><!--cluster ???? ????? ??????--><g class="cluster" data-qualified-name=".... ..... ......" data-source-line="7" id="ent0002"><rect fill="none" height="525.19" rx="2.5" ry="2.5" style="stroke:#181818;stroke-width:1;" width="922" x="7" y="44.2969"/><text fill="#000000" font-family="Arial" font-size="14" font-weight="bold" lengthAdjust="spacing" textLength="129.9238" x="403.0381" y="59.292">&#1606;&#1592;&#1575;&#1605; &#1605;&#1590;&#1582;&#1575;&#1578; &#1575;&#1604;&#1570;&#1576;&#1575;&#1585;</text></g><!--cluster ?????? ??????? (Submersible)--><g class="cluster" data-qualified-name=".... ..... ............. ....... .Submersible." data-source-line="9" id="ent0003"><polygon fill="none" points="31,97.2969,41,87.2969,419,87.2969,419,410.1869,409,420.1869,31,420.1869,31,97.2969" style="stroke:#181818;stroke-width:1;"/><line style="stroke:#181818;stroke-width:1;" x1="409" x2="419" y1="97.2969" y2="87.2969"/><line style="stroke:#181818;stroke-width:1;" x1="31" x2="409" y1="97.2969" y2="97.2969"/><line style="stroke:#181818;stroke-width:1;" x1="409" x2="409" y1="97.2969" y2="420.1869"/><text fill="#000000" font-family="Arial" font-size="14" font-weight="bold" lengthAdjust="spacing" textLength="232.0049" x="104.9976" y="113.292">&#1575;&#1604;&#1605;&#1590;&#1582;&#1577; &#1575;&#1604;&#1594;&#1575;&#1591;&#1587;&#1577; (Submersible)</text></g><!--cluster ?????? ?????????? (Turbine)--><g class="cluster" data-qualified-name=".... ..... ............. .......... .Turbine." data-source-line="20" id="ent0012"><polygon fill="none" points="631,97.2969,641,87.2969,905,87.2969,905,535.4869,895,545.4869,631,545.4869,631,97.2969" style="stroke:#181818;stroke-width:1;"/><line style="stroke:#181818;stroke-width:1;" x1="895" x2="905" y1="97.2969" y2="87.2969"/><line style="stroke:#181818;stroke-width:1;" x1="631" x2="895" y1="97.2969" y2="97.2969"/><line style="stroke:#181818;stroke-width:1;" x1="895" x2="895" y1="97.2969" y2="545.4869"/><text fill="#000000" font-family="Arial" font-size="14" font-weight="bold" lengthAdjust="spacing" textLength="198.5635" x="664.7183" y="113.292">&#1575;&#1604;&#1605;&#1590;&#1582;&#1577; &#1575;&#1604;&#1578;&#1608;&#1585;&#1576;&#1610;&#1606;&#1610;&#1577; (Turbine)</text></g><!--entity DischargePipe--><g class="entity" data-qualified-name=".... ..... .......DischargePipe" data-source-line="31" id="ent0020"><rect fill="#F1F1F1" height="46.2969" rx="2.5" ry="2.5" style="stroke:#181818;stroke-width:0.5;" width="180.1162" x="434.94" y="357.8969"/><rect fill="#F1F1F1" height="10" style="stroke:#181818;stroke-width:0.5;" width="15" x="595.0562" y="362.8969"/><rect fill="#F1F1F1" height="2" style="stroke:#181818;stroke-width:0.5;" width="4" x="593.0562" y="364.8969"/><rect fill="#F1F1F1" height="2" style="stroke:#181818;stroke-width:0.5;" width="4" x="593.0562" y="368.8969"/><text fill="#000000" font-family="Arial" font-size="14" lengthAdjust="spacing" textLength="140.1162" x="449.94" y="390.892">&#1571;&#1606;&#1576;&#1608;&#1576; &#1575;&#1604;&#1578;&#1589;&#1585;&#1610;&#1601; &#1575;&#1604;&#1585;&#1574;&#1610;&#1587;&#1610;</text></g><!--entity SubControl--><g class="entity" data-qualified-name=".... ..... ............. ....... .Submersible..SubControl" data-source-line="10" id="ent0004"><rect fill="#F1F1F1" height="46.2969" rx="2.5" ry="2.5" style="stroke:#181818;stroke-width:0.5;" width="168.8779" x="46.56" y="127.2969"/><rect fill="#F1F1F1" height="10" style="stroke:#181818;stroke-width:0.5;" width="15" x="195.4379" y="132.2969"/><rect fill="#F1F1F1" height="2" style="stroke:#181818;stroke-width:0.5;" width="4" x="193.4379" y="134.2969"/><rect fill="#F1F1F1" height="2" style="stroke:#181818;stroke-width:0.5;" width="4" x="193.4379" y="138.2969"/><text fill="#000000" font-family="Arial" font-size="14" lengthAdjust="spacing" textLength="128.8779" x="61.56" y="160.292">&#1604;&#1608;&#1581;&#1577; &#1575;&#1604;&#1578;&#1581;&#1603;&#1605; &#1575;&#1604;&#1603;&#1607;&#1585;&#1576;&#1575;&#1574;&#1610;&#1577;</text></g><!--entity Cable--><g class="entity" data-qualified-name=".... ..... ............. ....... .Submersible..Cable" data-source-line="11" id="ent0005"><rect fill="#F1F1F1" height="46.2969" rx="2.5" ry="2.5" style="stroke:#181818;stroke-width:0.5;" width="142.8467" x="46.58" y="234.5969"/><rect fill="#F1F1F1" height="10" style="stroke:#181818;stroke-width:0.5;" width="15" x="169.4267" y="239.5969"/><rect fill="#F1F1F1" height="2" style="stroke:#181818;stroke-width:0.5;" width="4" x="167.4267" y="241.5969"/><rect fill="#F1F1F1" height="2" style="stroke:#181818;stroke-width:0.5;" width="4" x="167.4267" y="245.5969"/><text fill="#000000" font-family="Arial" font-size="14" lengthAdjust="spacing" textLength="102.8467" x="61.58" y="267.592">&#1603;&#1575;&#1576;&#1604; &#1591;&#1575;&#1602;&#1577; &#1605;&#1593;&#1586;&#1608;&#1604;</text></g><!--entity SubMotor--><g class="entity" data-qualified-name=".... ..... ............. ....... .Submersible..SubMotor" data-source-line="12" id="ent0006"><rect fill="#F1F1F1" height="46.2969" rx="2.5" ry="2.5" style="stroke:#181818;stroke-width:0.5;" width="195.4082" x="130.3" y="357.8969"/><rect fill="#F1F1F1" height="10" style="stroke:#181818;stroke-width:0.5;" width="15" x="305.7082" y="362.8969"/><rect fill="#F1F1F1" height="2" style="stroke:#181818;stroke-width:0.5;" width="4" x="303.7082" y="364.8969"/><rect fill="#F1F1F1" height="2" style="stroke:#181818;stroke-width:0.5;" width="4" x="303.7082" y="368.8969"/><text fill="#000000" font-family="Arial" font-size="14" lengthAdjust="spacing" textLength="155.4082" x="145.3" y="390.892">&#1575;&#1604;&#1605;&#1581;&#1585;&#1603; &#1575;&#1604;&#1603;&#1607;&#1585;&#1576;&#1575;&#1574;&#1610; &#1575;&#1604;&#1594;&#1575;&#1591;&#1587;</text></g><!--entity SubPump--><g class="entity" data-qualified-name=".... ..... ............. ....... .Submersible..SubPump" data-source-line="13" id="ent0007"><rect fill="#F1F1F1" height="46.2969" rx="2.5" ry="2.5" style="stroke:#181818;stroke-width:0.5;" width="178.8789" x="224.56" y="234.5969"/><rect fill="#F1F1F1" height="10" style="stroke:#181818;stroke-width:0.5;" width="15" x="383.4389" y="239.5969"/><rect fill="#F1F1F1" height="2" style="stroke:#181818;stroke-width:0.5;" width="4" x="381.4389" y="241.5969"/><rect fill="#F1F1F1" height="2" style="stroke:#181818;stroke-width:0.5;" width="4" x="381.4389" y="245.5969"/><text fill="#000000" font-family="Arial" font-size="14" lengthAdjust="spacing" textLength="138.8789" x="239.56" y="267.592">&#1580;&#1587;&#1605; &#1575;&#1604;&#1605;&#1590;&#1582;&#1577; (&#1575;&#1604;&#1605;&#1585;&#1575;&#1608;&#1581;)</text></g><!--entity TurbMotor--><g class="entity" data-qualified-name=".... ..... ............. .......... .Turbine..TurbMotor" data-source-line="21" id="ent0013"><rect fill="#F1F1F1" height="46.2969" rx="2.5" ry="2.5" style="stroke:#181818;stroke-width:0.5;" width="173.1914" x="672.4" y="127.2969"/><rect fill="#F1F1F1" height="10" style="stroke:#181818;stroke-width:0.5;" width="15" x="825.5914" y="132.2969"/><rect fill="#F1F1F1" height="2" style="stroke:#181818;stroke-width:0.5;" width="4" x="823.5914" y="134.2969"/><rect fill="#F1F1F1" height="2" style="stroke:#181818;stroke-width:0.5;" width="4" x="823.5914" y="138.2969"/><text fill="#000000" font-family="Arial" font-size="14" lengthAdjust="spacing" textLength="133.1914" x="687.4" y="160.292">&#1605;&#1581;&#1585;&#1603; &#1603;&#1607;&#1585;&#1576;&#1575;&#1574;&#1610; &#1587;&#1591;&#1581;&#1610;</text></g><!--entity WellHead--><g class="entity" data-qualified-name=".... ..... ............. .......... .Turbine..WellHead" data-source-line="22" id="ent0014"><rect fill="#F1F1F1" height="46.2969" rx="2.5" ry="2.5" style="stroke:#181818;stroke-width:0.5;" width="223.3193" x="647.34" y="234.5969"/><rect fill="#F1F1F1" height="10" style="stroke:#181818;stroke-width:0.5;" width="15" x="850.6593" y="239.5969"/><rect fill="#F1F1F1" height="2" style="stroke:#181818;stroke-width:0.5;" width="4" x="848.6593" y="241.5969"/><rect fill="#F1F1F1" height="2" style="stroke:#181818;stroke-width:0.5;" width="4" x="848.6593" y="245.5969"/><text fill="#000000" font-family="Arial" font-size="14" lengthAdjust="spacing" textLength="183.3193" x="662.34" y="267.592">&#1585;&#1571;&#1587; &#1575;&#1604;&#1576;&#1574;&#1585; (Discharge Head)</text></g><!--entity Shaft--><g class="entity" data-qualified-name=".... ..... ............. .......... .Turbine..Shaft" data-source-line="23" id="ent0015"><rect fill="#F1F1F1" height="46.2969" rx="2.5" ry="2.5" style="stroke:#181818;stroke-width:0.5;" width="203.3174" x="653.34" y="357.8969"/><rect fill="#F1F1F1" height="10" style="stroke:#181818;stroke-width:0.5;" width="15" x="836.6574" y="362.8969"/><rect fill="#F1F1F1" height="2" style="stroke:#181818;stroke-width:0.5;" width="4" x="834.6574" y="364.8969"/><rect fill="#F1F1F1" height="2" style="stroke:#181818;stroke-width:0.5;" width="4" x="834.6574" y="368.8969"/><text fill="#000000" font-family="Arial" font-size="14" lengthAdjust="spacing" textLength="163.3174" x="668.34" y="390.892">&#1593;&#1605;&#1608;&#1583; &#1575;&#1604;&#1583;&#1608;&#1585;&#1575;&#1606; (Line Shaft)</text></g><!--entity BowlAssembly--><g class="entity" data-qualified-name=".... ..... ............. .......... .Turbine..BowlAssembly" data-source-line="24" id="ent0016"><rect fill="#F1F1F1" height="46.2969" rx="2.5" ry="2.5" style="stroke:#181818;stroke-width:0.5;" width="172.9727" x="662.51" y="483.1869"/><rect fill="#F1F1F1" height="10" style="stroke:#181818;stroke-width:0.5;" width="15" x="815.4827" y="488.1869"/><rect fill="#F1F1F1" height="2" style="stroke:#181818;stroke-width:0.5;" width="4" x="813.4827" y="490.1869"/><rect fill="#F1F1F1" height="2" style="stroke:#181818;stroke-width:0.5;" width="4" x="813.4827" y="494.1869"/><text fill="#000000" font-family="Arial" font-size="14" lengthAdjust="spacing" textLength="132.9727" x="677.51" y="516.182">&#1608;&#1581;&#1583;&#1577; &#1575;&#1604;&#1605;&#1585;&#1575;&#1608;&#1581; &#1575;&#1604;&#1594;&#1575;&#1591;&#1587;&#1577;</text></g><!--link SubControl to Cable--><g class="link" data-entity-1="ent0004" data-entity-2="ent0005" data-link-type="dependency" data-source-line="15" id="lnk8"><path d="M128.21,174.0369 C126.02,191.8069 123.7176,210.4824 121.5176,228.2424" fill="none" id="SubControl-to-Cable" style="stroke:#181818;stroke-width:1;"/><polygon fill="#181818" points="120.78,234.1969,125.8561,225.7569,121.3947,229.2348,117.9167,224.7734,120.78,234.1969" style="stroke:#181818;stroke-width:1;"/></g><!--link Cable to SubMotor--><g class="link" data-entity-1="ent0005" data-entity-2="ent0006" data-link-type="dependency" data-source-line="16" id="lnk9"><path d="M126.85,281.2269 C133.24,295.6069 142.87,314.0869 155,327.8969 C164.87,339.1269 172.6555,345.8681 184.7155,354.1581" fill="none" id="Cable-to-SubMotor" style="stroke:#181818;stroke-width:1;"/><polygon fill="#181818" points="189.66,357.5569,184.5091,349.1623,185.5396,354.7245,179.9774,355.755,189.66,357.5569" style="stroke:#181818;stroke-width:1;"/></g><!--reverse link SubPump to SubMotor--><g class="link" data-entity-1="ent0007" data-entity-2="ent0006" data-link-type="dependency" data-source-line="17" id="lnk11"><path d="M218.5734,283.1602 C192.5234,291.6202 174.69,299.9969 167,310.8969 C155.36,327.3669 169.96,344.3769 187.78,357.4069" fill="none" id="SubPump-backto-SubMotor" style="stroke:#181818;stroke-width:1;"/><polygon fill="#181818" points="224.28,281.3069,214.4846,280.2824,219.5245,282.8513,216.9556,287.8912,224.28,281.3069" style="stroke:#181818;stroke-width:1;"/><text fill="#000000" font-family="Arial" font-size="13" lengthAdjust="spacing" textLength="90.5747" x="168" y="323.9638">&#1583;&#1601;&#1593; &#1605;&#1576;&#1575;&#1588;&#1585; &#1604;&#1604;&#1605;&#1610;&#1575;&#1607;</text></g><!--link TurbMotor to WellHead--><g class="link" data-entity-1="ent0013" data-entity-2="ent0014" data-link-type="dependency" data-source-line="26" id="lnk17"><path d="M759,174.0369 C759,191.8069 759,210.4369 759,228.1969" fill="none" id="TurbMotor-to-WellHead" style="stroke:#181818;stroke-width:1;"/><polygon fill="#181818" points="759,234.1969,763,225.1969,759,229.1969,755,225.1969,759,234.1969" style="stroke:#181818;stroke-width:1;"/></g><!--link WellHead to Shaft--><g class="link" data-entity-1="ent0014" data-entity-2="ent0015" data-link-type="dependency" data-source-line="27" id="lnk18"><path d="M758.26,281.2769 C757.54,303.0669 756.6586,329.8902 755.9386,351.6302" fill="none" id="WellHead-to-Shaft" style="stroke:#181818;stroke-width:1;"/><polygon fill="#181818" points="755.74,357.6269,760.0357,348.7642,755.9055,352.6296,752.0401,348.4994,755.74,357.6269" style="stroke:#181818;stroke-width:1;"/></g><!--link Shaft to BowlAssembly--><g class="link" data-entity-1="ent0015" data-entity-2="ent0016" data-link-type="dependency" data-source-line="28" id="lnk19"><path d="M753.9,404.6569 C752.82,426.9069 751.4615,454.674 750.3815,476.874" fill="none" id="Shaft-to-BowlAssembly" style="stroke:#181818;stroke-width:1;"/><polygon fill="#181818" points="750.09,482.8669,754.5226,474.0719,750.333,477.8728,746.532,473.6831,750.09,482.8669" style="stroke:#181818;stroke-width:1;"/><text fill="#000000" font-family="Arial" font-size="13" lengthAdjust="spacing" textLength="120.3643" x="753" y="449.2538">&#1606;&#1602;&#1604; &#1575;&#1604;&#1581;&#1585;&#1603;&#1577; &#1575;&#1604;&#1605;&#1610;&#1603;&#1575;&#1606;&#1610;&#1603;&#1610;&#1577;</text></g><!--link SubPump to DischargePipe--><g class="link" data-entity-1="ent0007" data-entity-2="ent0020" data-link-type="dependency" data-source-line="32" id="lnk21"><path d="M353.19,281.2769 C390.97,302.9969 442.6284,332.6863 480.4584,354.4363" fill="none" id="SubPump-to-DischargePipe" style="stroke:#181818;stroke-width:1;"/><polygon fill="#181818" points="485.66,357.4269,479.8514,349.4733,481.3254,354.9347,475.8639,356.4087,485.66,357.4269" style="stroke:#181818;stroke-width:1;"/></g><!--link WellHead to DischargePipe--><g class="link" data-entity-1="ent0014" data-entity-2="ent0020" data-link-type="dependency" data-source-line="33" id="lnk22"><path d="M715.53,281.2769 C673.64,302.9969 615.9066,332.9152 573.9566,354.6652" fill="none" id="WellHead-to-DischargePipe" style="stroke:#181818;stroke-width:1;"/><polygon fill="#181818" points="568.63,357.4269,578.4611,356.8354,573.0689,355.1254,574.7788,349.7332,568.63,357.4269" style="stroke:#181818;stroke-width:1;"/></g></g></svg>