<?plantuml 1.2026.2beta3?><svg xmlns="http://www.w3.org/2000/svg" xmlns:xlink="http://www.w3.org/1999/xlink" contentStyleType="text/css" data-diagram-type="ACTIVITY" height="433px" preserveAspectRatio="none" style="width:688px;height:433px;background:#FFFFFF;" version="1.1" viewBox="0 0 688 433" width="688px" zoomAndPan="magnify"><title>&#1605;&#1582;&#1591;&#1591; &#1581;&#1587;&#1575;&#1576; &#1587;&#1585;&#1593;&#1577; &#1575;&#1604;&#1605;&#1581;&#1585;&#1603; &#1575;&#1604;&#1603;&#1607;&#1585;&#1576;&#1575;&#1574;&#1610;</title><defs/><g><rect fill="#FFFFCC" height="26.6406" rx="2.5" ry="2.5" style="stroke:#FFDD88;stroke-width:3;" width="677.2559" x="5" y="5"/><text fill="#000000" font-family="monospace" font-size="10" lengthAdjust="spacing" textLength="662.2559" x="10" y="20">You&#160;should&#160;use&#160;a&#160;bracket&#160;({)&#160;when&#160;defining&#160;your&#160;container&#160;'rectangle'&#160;"&#1575;&#1604;&#1585;&#1580;&#1608;&#1593;&#160;&#1573;&#1604;&#1609;&#160;&#1580;&#1583;&#1608;&#1604;&#160;&#1575;&#1604;&#1587;&#1585;&#1593;&#1575;&#1578;&#160;&#1575;&#1604;&#1602;&#1610;&#1575;&#1587;&#1610;&#1577;&#160;2026";</text><g class="title" data-source-line="1"><text fill="#000000" font-family="sans-serif" font-size="14" font-weight="bold" lengthAdjust="spacing" textLength="268.2285" x="149.0447" y="69.6357">&#1605;&#1582;&#1591;&#1591; &#1581;&#1587;&#1575;&#1576; &#1587;&#1585;&#1593;&#1577; &#1575;&#1604;&#1605;&#1581;&#1585;&#1603; &#1575;&#1604;&#1603;&#1607;&#1585;&#1576;&#1575;&#1574;&#1610;</text></g><ellipse cx="155.856" cy="93.9375" fill="#222222" rx="10" ry="10" style="stroke:#222222;stroke-width:1;"/><path d="M223.936,128.3555 L223.936,136.9219 L203.936,140.9219 L223.936,144.9219 L223.936,153.4883 A0,0 0 0 0 223.936,153.4883 L424.6826,153.4883 A0,0 0 0 0 424.6826,153.4883 L424.6826,138.3555 L414.6826,128.3555 L223.936,128.3555 A0,0 0 0 0 223.936,128.3555" fill="#FEFFDD" style="stroke:#181818;stroke-width:0.5;"/><path d="M414.6826,128.3555 L414.6826,138.3555 L424.6826,138.3555 L414.6826,128.3555" fill="#FEFFDD" style="stroke:#181818;stroke-width:0.5;"/><text fill="#000000" font-family="sans-serif" font-size="13" lengthAdjust="spacing" textLength="179.7466" x="229.936" y="145.4224">&#1576;&#1575;&#1604;&#1607;&#1585;&#1578;&#1586; (Hz) - &#1593;&#1575;&#1583;&#1577; 50 &#1571;&#1608; 60 Hz</text><rect fill="#F1F1F1" height="33.9688" rx="12.5" ry="12.5" style="stroke:#181818;stroke-width:0.5;" width="96.1602" x="107.7759" y="123.9375"/><text fill="#000000" font-family="sans-serif" font-size="12" lengthAdjust="spacing" textLength="76.1602" x="117.7759" y="145.0762">&#1578;&#1581;&#1583;&#1610;&#1583; &#1575;&#1604;&#1578;&#1585;&#1583;&#1583; (f)</text><path d="M260.7241,182.3242 L260.7241,190.8906 L240.7241,194.8906 L260.7241,198.8906 L260.7241,207.457 A0,0 0 0 0 260.7241,207.457 L426.0762,207.457 A0,0 0 0 0 426.0762,207.457 L426.0762,192.3242 L416.0762,182.3242 L260.7241,182.3242 A0,0 0 0 0 260.7241,182.3242" fill="#FEFFDD" style="stroke:#181818;stroke-width:0.5;"/><path d="M416.0762,182.3242 L416.0762,192.3242 L426.0762,192.3242 L416.0762,182.3242" fill="#FEFFDD" style="stroke:#181818;stroke-width:0.5;"/><text fill="#000000" font-family="sans-serif" font-size="13" lengthAdjust="spacing" textLength="144.3521" x="266.7241" y="199.3911">&#1593;&#1583;&#1583; &#1586;&#1608;&#1580;&#1610; (&#1605;&#1579;&#1575;&#1604;: 2, 4, 6)</text><rect fill="#F1F1F1" height="33.9688" rx="12.5" ry="12.5" style="stroke:#181818;stroke-width:0.5;" width="169.7363" x="70.9878" y="177.9063"/><text fill="#000000" font-family="sans-serif" font-size="12" lengthAdjust="spacing" textLength="149.7363" x="80.9878" y="199.0449">&#1578;&#1581;&#1583;&#1610;&#1583; &#1593;&#1583;&#1583; &#1571;&#1602;&#1591;&#1575;&#1576; &#1575;&#1604;&#1605;&#1581;&#1585;&#1603; (P)</text><path d="M257.6685,243.2773 L257.6685,251.8438 L237.6685,255.8438 L257.6685,259.8438 L257.6685,268.4102 A0,0 0 0 0 257.6685,268.4102 L557.3179,268.4102 A0,0 0 0 0 557.3179,268.4102 L557.3179,253.2773 L547.3179,243.2773 L257.6685,243.2773 A0,0 0 0 0 257.6685,243.2773" fill="#FEFFDD" style="stroke:#181818;stroke-width:0.5;"/><path d="M547.3179,243.2773 L547.3179,253.2773 L557.3179,253.2773 L547.3179,243.2773" fill="#FEFFDD" style="stroke:#181818;stroke-width:0.5;"/><text fill="#000000" font-family="sans-serif" font-size="13" lengthAdjust="spacing" textLength="278.6494" x="263.6685" y="260.3442">&#1581;&#1610;&#1579; Ns &#1607;&#1610; &#1575;&#1604;&#1587;&#1585;&#1593;&#1577; &#1575;&#1604;&#1578;&#1586;&#1575;&#1605;&#1606;&#1610;&#1577; &#1576;&#1575;&#1604;&#1583;&#1608;&#1585;&#1577;/&#1583;&#1602;&#1610;&#1602;&#1577; (RPM)</text><rect fill="#F1F1F1" height="47.9375" rx="12.5" ry="12.5" style="stroke:#181818;stroke-width:0.5;" width="163.625" x="74.0435" y="231.875"/><text fill="#000000" font-family="sans-serif" font-size="12" lengthAdjust="spacing" textLength="143.625" x="84.0435" y="253.0137">&#1578;&#1591;&#1576;&#1610;&#1602; &#1605;&#1593;&#1575;&#1583;&#1604;&#1577; &#1587;&#1585;&#1593;&#1577; &#1575;&#1604;&#1578;&#1586;&#1575;&#1605;&#1606;:</text><text fill="#000000" font-family="sans-serif" font-size="12" lengthAdjust="spacing" textLength="101.9414" x="84.0435" y="266.9824">Ns = (120 * f) / P</text><rect fill="#F1F1F1" height="33.9688" rx="12.5" ry="12.5" style="stroke:#181818;stroke-width:0.5;" width="181.1211" x="65.2954" y="299.8125"/><text fill="#000000" font-family="sans-serif" font-size="12" lengthAdjust="spacing" textLength="161.1211" x="75.2954" y="320.9512">&#1575;&#1604;&#1587;&#1585;&#1593;&#1577; &#1575;&#1604;&#1605;&#1581;&#1587;&#1608;&#1576;&#1577; &#1604;&#1604;&#1605;&#1581;&#1585;&#1603; (Ns)</text><rect fill="none" height="78.2969" style="stroke:#000000;stroke-width:1.5;" width="289.7119" x="11" y="343.7813"/><text fill="#000000" font-family="sans-serif" font-size="14" lengthAdjust="spacing" textLength="269.7119" x="21" y="358.7764">"&#1575;&#1604;&#1585;&#1580;&#1608;&#1593; &#1573;&#1604;&#1609; &#1580;&#1583;&#1608;&#1604; &#1575;&#1604;&#1587;&#1585;&#1593;&#1575;&#1578; &#1575;&#1604;&#1602;&#1610;&#1575;&#1587;&#1610;&#1577; 2026";</text><ellipse cx="155.856" cy="391.0781" fill="none" rx="11" ry="11" style="stroke:#222222;stroke-width:1;"/><ellipse cx="155.856" cy="391.0781" fill="#222222" rx="6" ry="6" style="stroke:#222222;stroke-width:1;"/><line style="stroke:#181818;stroke-width:1;" x1="155.856" x2="155.856" y1="103.9375" y2="123.9375"/><polygon fill="#181818" points="151.856,113.9375,155.856,123.9375,159.856,113.9375,155.856,117.9375" style="stroke:#181818;stroke-width:1;"/><line style="stroke:#181818;stroke-width:1;" x1="155.856" x2="155.856" y1="157.9063" y2="177.9063"/><polygon fill="#181818" points="151.856,167.9063,155.856,177.9063,159.856,167.9063,155.856,171.9063" style="stroke:#181818;stroke-width:1;"/><line style="stroke:#181818;stroke-width:1;" x1="155.856" x2="155.856" y1="211.875" y2="231.875"/><polygon fill="#181818" points="151.856,221.875,155.856,231.875,159.856,221.875,155.856,225.875" style="stroke:#181818;stroke-width:1;"/><line style="stroke:#181818;stroke-width:1;" x1="155.856" x2="155.856" y1="279.8125" y2="299.8125"/><polygon fill="#181818" points="151.856,289.8125,155.856,299.8125,159.856,289.8125,155.856,293.8125" style="stroke:#181818;stroke-width:1;"/><line style="stroke:#181818;stroke-width:1;" x1="155.856" x2="155.856" y1="333.7813" y2="380.0781"/><polygon fill="#181818" points="151.856,370.0781,155.856,380.0781,159.856,370.0781,155.856,374.0781" style="stroke:#181818;stroke-width:1;"/><?plantuml-src RL6xRi904Epz5IigEoB2iH8Ae_GqGIXr6XG1GOfCXA-Yv14S_qQKsEOHor0W_ydktsJke21MglFSpiwCvzH8lVP9blp3HpuIx_Z02QU4e-2IC-945XZlk93v2SnbXLaAshV4bXMgtaHPbizha7A9EJSqm89p07lWjAnWhFeq6GrVb4zw5J9QPCrxijjJXwu9PWdu6Tsvn9yIKTEbzhIYMnf5Z6T8Qs9UfhExLQSpVoyHRoKc6zIDNl79gzDjdPhEoU38gSGoqpsO68YV_Qr0HyMvb7V_AUY4T4_sZUVI5GqSQb2tuhj3t0s19YlOclt_nS3BpeN0DG8dQ-1ZfjDWOZzs7qp4geBvvmCMKbm0NfJG2T62DUa_grumnDlMp7A10Y8kYR_0_I3UQZjPN6PBU7tIXZl0mMJpNAzPQ-bN7h_z0W00?></g></svg>