<?plantuml 1.2026.2beta3?><svg xmlns="http://www.w3.org/2000/svg" xmlns:xlink="http://www.w3.org/1999/xlink" contentStyleType="text/css" data-diagram-type="ACTIVITY" height="698px" preserveAspectRatio="none" style="width:488px;height:698px;background:#FFFFFF;" version="1.1" viewBox="0 0 488 698" width="488px" zoomAndPan="magnify"><title>&#1605;&#1582;&#1591;&#1591; &#1593;&#1605;&#1604;&#1610;&#1577; &#1589;&#1610;&#1575;&#1606;&#1577; &#1605;&#1590;&#1582;&#1575;&#1578; &#1580;&#1585;&#1575;&#1606;&#1583;&#1601;&#1608;&#1587; (&#1585;&#1608;&#1575;&#1574;&#1593; &#1575;&#1604;&#1603;&#1585;&#1610;&#1587;&#1578;&#1575;&#1604;)</title><defs/><g><g class="title" data-source-line="9"><text fill="#000000" font-family="Arial" font-size="14" font-weight="bold" lengthAdjust="spacing" textLength="398.5352" x="43.4197" y="32.9951">&#1605;&#1582;&#1591;&#1591; &#1593;&#1605;&#1604;&#1610;&#1577; &#1589;&#1610;&#1575;&#1606;&#1577; &#1605;&#1590;&#1582;&#1575;&#1578; &#1580;&#1585;&#1575;&#1606;&#1583;&#1601;&#1608;&#1587; (&#1585;&#1608;&#1575;&#1574;&#1593; &#1575;&#1604;&#1603;&#1585;&#1610;&#1587;&#1578;&#1575;&#1604;)</text></g><ellipse cx="233.0293" cy="57.2969" fill="#222222" rx="10" ry="10" style="stroke:#222222;stroke-width:1;"/><path d="M312.5205,84.1484 L312.5205,100.2813 L292.5205,104.2813 L312.5205,108.2813 L312.5205,124.4141 A0,0 0 0 0 312.5205,124.4141 L476.3745,124.4141 A0,0 0 0 0 476.3745,124.4141 L476.3745,94.1484 L466.3745,84.1484 L312.5205,84.1484 A0,0 0 0 0 312.5205,84.1484" fill="#FEFFDD" style="stroke:#181818;stroke-width:0.5;"/><path d="M466.3745,84.1484 L466.3745,94.1484 L476.3745,94.1484 L466.3745,84.1484" fill="#FEFFDD" style="stroke:#181818;stroke-width:0.5;"/><text fill="#000000" font-family="Arial" font-size="13" lengthAdjust="spacing" textLength="142.854" x="318.5205" y="101.2153">&#1575;&#1604;&#1578;&#1608;&#1575;&#1589;&#1604; &#1605;&#1593; &#1575;&#1604;&#1608;&#1603;&#1610;&#1604; &#1575;&#1604;&#1605;&#1593;&#1578;&#1605;&#1583;</text><text fill="#000000" font-family="Arial" font-size="13" lengthAdjust="spacing" textLength="95.4497" x="318.5205" y="116.3481">(&#1585;&#1608;&#1575;&#1574;&#1593; &#1575;&#1604;&#1603;&#1585;&#1610;&#1587;&#1578;&#1575;&#1604;)</text><rect fill="#E6F5FF" height="33.9688" rx="12.5" ry="12.5" style="stroke:#005F99;stroke-width:0.5;" width="118.9824" x="173.5381" y="87.2969"/><text fill="#000000" font-family="Arial" font-size="12" lengthAdjust="spacing" textLength="98.9824" x="183.5381" y="108.4355">&#1575;&#1587;&#1578;&#1604;&#1575;&#1605; &#1591;&#1604;&#1576; &#1575;&#1604;&#1589;&#1610;&#1575;&#1606;&#1577;</text><rect fill="#E6F5FF" height="33.9688" rx="12.5" ry="12.5" style="stroke:#005F99;stroke-width:0.5;" width="174.6699" x="145.6943" y="144.4141"/><text fill="#000000" font-family="Arial" font-size="12" lengthAdjust="spacing" textLength="154.6699" x="155.6943" y="165.5527">&#1575;&#1604;&#1601;&#1581;&#1589; &#1575;&#1604;&#1571;&#1608;&#1604;&#1610; &#1608;&#1578;&#1588;&#1582;&#1610;&#1589; &#1575;&#1604;&#1593;&#1591;&#1604;</text><polygon fill="#FFFFFF" points="204.9197,198.3828,261.1389,198.3828,273.1389,210.3828,261.1389,222.3828,204.9197,222.3828,192.9197,210.3828,204.9197,198.3828" style="stroke:#005F99;stroke-width:0.5;"/><text fill="#000000" font-family="Arial" font-size="11" lengthAdjust="spacing" textLength="56.2192" x="204.9197" y="214.1909">&#1606;&#1608;&#1593; &#1575;&#1604;&#1589;&#1610;&#1575;&#1606;&#1577;&#1567;</text><text fill="#000000" font-family="Arial" font-size="11" lengthAdjust="spacing" textLength="53.4746" x="139.4451" y="207.7886">&#1573;&#1589;&#1604;&#1575;&#1581; &#1593;&#1591;&#1604;</text><text fill="#000000" font-family="Arial" font-size="11" lengthAdjust="spacing" textLength="52.9482" x="273.1389" y="207.7886">&#1589;&#1610;&#1575;&#1606;&#1577; &#1583;&#1608;&#1585;&#1610;&#1577;</text><rect fill="#E6F5FF" height="33.9688" rx="12.5" ry="12.5" style="stroke:#005F99;stroke-width:0.5;" width="122.2637" x="53.7119" y="232.3828"/><text fill="#000000" font-family="Arial" font-size="12" lengthAdjust="spacing" textLength="102.2637" x="63.7119" y="253.5215">&#1578;&#1601;&#1603;&#1610;&#1603; &#1571;&#1580;&#1586;&#1575;&#1569; &#1575;&#1604;&#1605;&#1590;&#1582;&#1577;</text><rect fill="#E6F5FF" height="33.9688" rx="12.5" ry="12.5" style="stroke:#005F99;stroke-width:0.5;" width="118.7422" x="55.4727" y="286.3516"/><text fill="#000000" font-family="Arial" font-size="12" lengthAdjust="spacing" textLength="98.7422" x="65.4727" y="307.4902">&#1578;&#1581;&#1583;&#1610;&#1583; &#1575;&#1604;&#1571;&#1580;&#1586;&#1575;&#1569; &#1575;&#1604;&#1578;&#1575;&#1604;&#1601;&#1577;</text><rect fill="#E6F5FF" height="33.9688" rx="12.5" ry="12.5" style="stroke:#005F99;stroke-width:0.5;" width="207.6875" x="11" y="340.3203"/><text fill="#000000" font-family="Arial" font-size="12" lengthAdjust="spacing" textLength="187.6875" x="21" y="361.459">&#1575;&#1587;&#1578;&#1576;&#1583;&#1575;&#1604; &#1576;&#1602;&#1591;&#1593; &#1594;&#1610;&#1575;&#1585; &#1580;&#1585;&#1575;&#1606;&#1583;&#1601;&#1608;&#1587; &#1575;&#1604;&#1571;&#1589;&#1604;&#1610;&#1577;</text><rect fill="#E6F5FF" height="33.9688" rx="12.5" ry="12.5" style="stroke:#005F99;stroke-width:0.5;" width="151.0508" x="275.6895" y="232.3828"/><text fill="#000000" font-family="Arial" font-size="12" lengthAdjust="spacing" textLength="131.0508" x="285.6895" y="253.5215">&#1601;&#1581;&#1589; &#1575;&#1604;&#1578;&#1608;&#1589;&#1610;&#1604;&#1575;&#1578; &#1575;&#1604;&#1603;&#1607;&#1585;&#1576;&#1575;&#1574;&#1610;&#1577;</text><rect fill="#E6F5FF" height="33.9688" rx="12.5" ry="12.5" style="stroke:#005F99;stroke-width:0.5;" width="225.0547" x="238.6875" y="286.3516"/><text fill="#000000" font-family="Arial" font-size="12" lengthAdjust="spacing" textLength="205.0547" x="248.6875" y="307.4902">&#1601;&#1581;&#1589; &#1605;&#1575;&#1606;&#1593; &#1575;&#1604;&#1578;&#1587;&#1585;&#1576; (Mechanical Seal)</text><rect fill="#E6F5FF" height="33.9688" rx="12.5" ry="12.5" style="stroke:#005F99;stroke-width:0.5;" width="140.5156" x="280.957" y="340.3203"/><text fill="#000000" font-family="Arial" font-size="12" lengthAdjust="spacing" textLength="120.5156" x="290.957" y="361.459">&#1578;&#1606;&#1592;&#1610;&#1601; &#1608;&#1578;&#1588;&#1581;&#1610;&#1605; &#1575;&#1604;&#1605;&#1581;&#1575;&#1605;&#1604;</text><polygon fill="#FFFFFF" points="233.0293,380.2891,245.0293,392.2891,233.0293,404.2891,221.0293,392.2891,233.0293,380.2891" style="stroke:#005F99;stroke-width:0.5;"/><rect fill="#E6F5FF" height="33.9688" rx="12.5" ry="12.5" style="stroke:#005F99;stroke-width:0.5;" width="119.9551" x="173.0518" y="424.2891"/><text fill="#000000" font-family="Arial" font-size="12" lengthAdjust="spacing" textLength="99.9551" x="183.0518" y="445.4277">&#1573;&#1593;&#1575;&#1583;&#1577; &#1578;&#1580;&#1605;&#1610;&#1593; &#1575;&#1604;&#1605;&#1590;&#1582;&#1577;</text><path d="M313.2354,475.1094 L313.2354,491.2422 L293.2354,495.2422 L313.2354,499.2422 L313.2354,515.375 A0,0 0 0 0 313.2354,515.375 L436.9976,515.375 A0,0 0 0 0 436.9976,515.375 L436.9976,485.1094 L426.9976,475.1094 L313.2354,475.1094 A0,0 0 0 0 313.2354,475.1094" fill="#FEFFDD" style="stroke:#181818;stroke-width:0.5;"/><path d="M426.9976,475.1094 L426.9976,485.1094 L436.9976,485.1094 L426.9976,475.1094" fill="#FEFFDD" style="stroke:#181818;stroke-width:0.5;"/><text fill="#000000" font-family="Arial" font-size="13" lengthAdjust="spacing" textLength="91.8062" x="319.2354" y="492.1763">&#1575;&#1604;&#1578;&#1571;&#1603;&#1583; &#1605;&#1606; &#1575;&#1604;&#1603;&#1601;&#1575;&#1569;&#1577;</text><text fill="#000000" font-family="Arial" font-size="13" lengthAdjust="spacing" textLength="102.7622" x="319.2354" y="507.3091">&#1608;&#1593;&#1583;&#1605; &#1608;&#1580;&#1608;&#1583; &#1578;&#1587;&#1585;&#1610;&#1576;</text><rect fill="#E6F5FF" height="33.9688" rx="12.5" ry="12.5" style="stroke:#005F99;stroke-width:0.5;" width="120.4121" x="172.8232" y="478.2578"/><text fill="#000000" font-family="Arial" font-size="12" lengthAdjust="spacing" textLength="100.4121" x="182.8232" y="499.3965">&#1575;&#1582;&#1578;&#1576;&#1575;&#1585; &#1575;&#1604;&#1571;&#1583;&#1575;&#1569; &#1608;&#1575;&#1604;&#1590;&#1594;&#1591;</text><polygon fill="#FFFFFF" points="170.1848,535.375,295.8738,535.375,307.8738,547.375,295.8738,559.375,170.1848,559.375,158.1848,547.375,170.1848,535.375" style="stroke:#005F99;stroke-width:0.5;"/><text fill="#000000" font-family="Arial" font-size="11" lengthAdjust="spacing" textLength="125.689" x="170.1848" y="551.1831">&#1575;&#1604;&#1606;&#1578;&#1610;&#1580;&#1577; &#1605;&#1591;&#1575;&#1576;&#1602;&#1577; &#1604;&#1604;&#1605;&#1608;&#1575;&#1589;&#1601;&#1575;&#1578;&#1567;</text><text fill="#000000" font-family="Arial" font-size="11" lengthAdjust="spacing" textLength="15.689" x="142.4958" y="544.7808">&#1606;&#1593;&#1605;</text><text fill="#000000" font-family="Arial" font-size="11" lengthAdjust="spacing" textLength="6.2734" x="307.8738" y="544.7808">&#1604;&#1575;</text><rect fill="#E6F5FF" height="33.9688" rx="12.5" ry="12.5" style="stroke:#005F99;stroke-width:0.5;" width="151.0215" x="66.5381" y="569.375"/><text fill="#000000" font-family="Arial" font-size="12" lengthAdjust="spacing" textLength="131.0215" x="76.5381" y="590.5137">&#1575;&#1604;&#1578;&#1587;&#1604;&#1610;&#1605; &#1604;&#1604;&#1593;&#1605;&#1610;&#1604; &#1605;&#1593; &#1575;&#1604;&#1590;&#1605;&#1575;&#1606;</text><rect fill="#E6F5FF" height="33.9688" rx="12.5" ry="12.5" style="stroke:#005F99;stroke-width:0.5;" width="172.9004" x="237.5596" y="569.375"/><text fill="#000000" font-family="Arial" font-size="12" lengthAdjust="spacing" textLength="152.9004" x="247.5596" y="590.5137">&#1605;&#1585;&#1575;&#1580;&#1593;&#1577; &#1575;&#1604;&#1578;&#1585;&#1603;&#1610;&#1576; &#1608;&#1573;&#1593;&#1575;&#1583;&#1577; &#1575;&#1604;&#1601;&#1581;&#1589;</text><ellipse cx="324.0098" cy="634.3438" fill="none" rx="11" ry="11" style="stroke:#222222;stroke-width:1;"/><ellipse cx="324.0098" cy="634.3438" fill="#222222" rx="6" ry="6" style="stroke:#222222;stroke-width:1;"/><ellipse cx="233.0293" cy="676.3438" fill="none" rx="11" ry="11" style="stroke:#222222;stroke-width:1;"/><ellipse cx="233.0293" cy="676.3438" fill="#222222" rx="6" ry="6" style="stroke:#222222;stroke-width:1;"/><line style="stroke:#005F99;stroke-width:1;" x1="233.0293" x2="233.0293" y1="67.2969" y2="87.2969"/><polygon fill="#005F99" points="229.0293,77.2969,233.0293,87.2969,237.0293,77.2969,233.0293,81.2969" style="stroke:#005F99;stroke-width:1;"/><line style="stroke:#005F99;stroke-width:1;" x1="233.0293" x2="233.0293" y1="121.2656" y2="144.4141"/><polygon fill="#005F99" points="229.0293,134.4141,233.0293,144.4141,237.0293,134.4141,233.0293,138.4141" style="stroke:#005F99;stroke-width:1;"/><line style="stroke:#005F99;stroke-width:1;" x1="114.8438" x2="114.8438" y1="266.3516" y2="286.3516"/><polygon fill="#005F99" points="110.8438,276.3516,114.8438,286.3516,118.8438,276.3516,114.8438,280.3516" style="stroke:#005F99;stroke-width:1;"/><line style="stroke:#005F99;stroke-width:1;" x1="114.8438" x2="114.8438" y1="320.3203" y2="340.3203"/><polygon fill="#005F99" points="110.8438,330.3203,114.8438,340.3203,118.8438,330.3203,114.8438,334.3203" style="stroke:#005F99;stroke-width:1;"/><line style="stroke:#005F99;stroke-width:1;" x1="351.2148" x2="351.2148" y1="266.3516" y2="286.3516"/><polygon fill="#005F99" points="347.2148,276.3516,351.2148,286.3516,355.2148,276.3516,351.2148,280.3516" style="stroke:#005F99;stroke-width:1;"/><line style="stroke:#005F99;stroke-width:1;" x1="351.2148" x2="351.2148" y1="320.3203" y2="340.3203"/><polygon fill="#005F99" points="347.2148,330.3203,351.2148,340.3203,355.2148,330.3203,351.2148,334.3203" style="stroke:#005F99;stroke-width:1;"/><line style="stroke:#005F99;stroke-width:1;" x1="192.9197" x2="114.8438" y1="210.3828" y2="210.3828"/><line style="stroke:#005F99;stroke-width:1;" x1="114.8438" x2="114.8438" y1="210.3828" y2="232.3828"/><polygon fill="#005F99" points="110.8438,222.3828,114.8438,232.3828,118.8438,222.3828,114.8438,226.3828" style="stroke:#005F99;stroke-width:1;"/><line style="stroke:#005F99;stroke-width:1;" x1="273.1389" x2="351.2148" y1="210.3828" y2="210.3828"/><line style="stroke:#005F99;stroke-width:1;" x1="351.2148" x2="351.2148" y1="210.3828" y2="232.3828"/><polygon fill="#005F99" points="347.2148,222.3828,351.2148,232.3828,355.2148,222.3828,351.2148,226.3828" style="stroke:#005F99;stroke-width:1;"/><line style="stroke:#005F99;stroke-width:1;" x1="114.8438" x2="114.8438" y1="374.2891" y2="392.2891"/><line style="stroke:#005F99;stroke-width:1;" x1="114.8438" x2="221.0293" y1="392.2891" y2="392.2891"/><polygon fill="#005F99" points="211.0293,388.2891,221.0293,392.2891,211.0293,396.2891,215.0293,392.2891" style="stroke:#005F99;stroke-width:1;"/><line style="stroke:#005F99;stroke-width:1;" x1="351.2148" x2="351.2148" y1="374.2891" y2="392.2891"/><line style="stroke:#005F99;stroke-width:1;" x1="351.2148" x2="245.0293" y1="392.2891" y2="392.2891"/><polygon fill="#005F99" points="255.0293,388.2891,245.0293,392.2891,255.0293,396.2891,251.0293,392.2891" style="stroke:#005F99;stroke-width:1;"/><line style="stroke:#005F99;stroke-width:1;" x1="233.0293" x2="233.0293" y1="178.3828" y2="198.3828"/><polygon fill="#005F99" points="229.0293,188.3828,233.0293,198.3828,237.0293,188.3828,233.0293,192.3828" style="stroke:#005F99;stroke-width:1;"/><line style="stroke:#005F99;stroke-width:1;" x1="233.0293" x2="233.0293" y1="404.2891" y2="424.2891"/><polygon fill="#005F99" points="229.0293,414.2891,233.0293,424.2891,237.0293,414.2891,233.0293,418.2891" style="stroke:#005F99;stroke-width:1;"/><line style="stroke:#005F99;stroke-width:1;" x1="233.0293" x2="233.0293" y1="458.2578" y2="478.2578"/><polygon fill="#005F99" points="229.0293,468.2578,233.0293,478.2578,237.0293,468.2578,233.0293,472.2578" style="stroke:#005F99;stroke-width:1;"/><line style="stroke:#005F99;stroke-width:1;" x1="324.0098" x2="324.0098" y1="603.3438" y2="623.3438"/><polygon fill="#005F99" points="320.0098,613.3438,324.0098,623.3438,328.0098,613.3438,324.0098,617.3438" style="stroke:#005F99;stroke-width:1;"/><line style="stroke:#005F99;stroke-width:1;" x1="158.1848" x2="142.0488" y1="547.375" y2="547.375"/><line style="stroke:#005F99;stroke-width:1;" x1="142.0488" x2="142.0488" y1="547.375" y2="569.375"/><polygon fill="#005F99" points="138.0488,559.375,142.0488,569.375,146.0488,559.375,142.0488,563.375" style="stroke:#005F99;stroke-width:1;"/><line style="stroke:#005F99;stroke-width:1;" x1="307.8738" x2="324.0098" y1="547.375" y2="547.375"/><line style="stroke:#005F99;stroke-width:1;" x1="324.0098" x2="324.0098" y1="547.375" y2="569.375"/><polygon fill="#005F99" points="320.0098,559.375,324.0098,569.375,328.0098,559.375,324.0098,563.375" style="stroke:#005F99;stroke-width:1;"/><line style="stroke:#005F99;stroke-width:1;" x1="142.0488" x2="142.0488" y1="603.3438" y2="650.3438"/><line style="stroke:#005F99;stroke-width:1;" x1="142.0488" x2="233.0293" y1="650.3438" y2="650.3438"/><line style="stroke:#005F99;stroke-width:1;" x1="233.0293" x2="233.0293" y1="650.3438" y2="665.3438"/><polygon fill="#005F99" points="229.0293,655.3438,233.0293,665.3438,237.0293,655.3438,233.0293,659.3438" style="stroke:#005F99;stroke-width:1;"/><line style="stroke:#005F99;stroke-width:1;" x1="233.0293" x2="233.0293" y1="512.2266" y2="535.375"/><polygon fill="#005F99" points="229.0293,525.375,233.0293,535.375,237.0293,525.375,233.0293,529.375" style="stroke:#005F99;stroke-width:1;"/><?plantuml-src XLDDRzf04BtxLwpK2znoIQN0AVtmhRtqceiB9bWnTcGsZNgas1Jn9wegIW4Bi0W5wloIsN_JDxisq8IsICZUdPatRzuRTw-yuDg9d8xuw3IkBgFm9cY-3lqm4hTjJxfMTnTlkYtdnfTs6CZtJiSLvv7d-0VnyuRqFddoywidE2_UlhHFRVjOPXWrtQZ8EZavjS_E3hEYABpzQx20UECvdJ1eFkjfwzy_2ewqjgGdVLUeX1QqfQsWN2KgLYEQ2bhZCLO3l2AyGSAOKa4pMkhRJFNKa5QYGaiyn_I3Se50hFgu6D6AKZvLBQihdKXQLWqvk5GnhXD1MxnCTC6-JzqAGkcAoBjiovg9fHfxhMBcK3GOghuQuKOVS8kaXBABuBzCQlgsHtDQ6_GxO65OWRAKVj82sKKaPu9ro_9Qeg86YETFkDAtgf1jDy3yzymFVUV2b5Kj8MeWrTCy-uBk8De34hwNb5bCJAlJm2O3Q5Om-YFLC0VZ8bahI1FA-5hGH7s1QM3soAne-ToS0dDjBArRhjzrmNZlB3A7MgMfPdqe3ak_Pg6DxrfGzHKD9gonmTkNO2f6p4lUAquKbNTke-q4NiFnnGVNyQl5qCZy1UXUgVmSXwHKPyuRmkgxGTDhiMtt47QCgS4tfHc2ezBYdPPwlnPQ7Qs46JpJKl9MuBYXHzeUsp7iGHy607TGpjdZGffU16mzH4eOP8P_9inme30nww4h1fXf1Fdrjx95CNk3GymSYnrcp7I_DwoMIioo59gnJTmgvWtaCG_tdZP6uz95DiQObh3hQ9wpG0PgoRi70z3wGBpT-hCDNHbUbnBp-sy0?></g></svg>